<svg xmlns="http://www.w3.org/2000/svg" width="344" height="221.856" viewBox="0 0 344 221.856">
  <g id="Universal_declaration_of_human_rights-pana" data-name="Universal declaration of human rights-pana" transform="translate(-25.49 -32.73)">
    <g id="freepik--background-simple--inject-2" transform="translate(36.134 38.825)">
      <path id="Trazado_217312" data-name="Trazado 217312" d="M582.634,134.746l-.71-1.152A31.035,31.035,0,0,0,553.63,118.47a30.339,30.339,0,0,0-4.378.6,32.565,32.565,0,0,0-23.2,20.163c-2.2,5.927-2.824,12.747-7.009,17.448-5.46,6.12-14.7,6.309-22.833,6.056s-17.373-.035-22.833,6.105c-3.4,3.847-4.467,9.322-4.2,14.474.725,13.64,10.23,25.837,22.337,31.9s26.308,6.6,39.551,3.936c18.535-3.738,36.161-14,46.754-29.842S591.112,151.846,582.634,134.746Z" transform="translate(-259.562 -81.976)" fill="#f5f5f5"/>
      <path id="Trazado_217313" data-name="Trazado 217313" d="M57.092,66.025l.794-.769A25.155,25.155,0,0,1,83.2,59.3a23.747,23.747,0,0,1,3.306,1.385,26.387,26.387,0,0,1,13.983,20.674c.5,5.1-.452,10.573,1.847,15.13,2.978,5.932,10.2,8.012,16.624,9.511s13.631,3.6,16.6,9.545c1.856,3.723,1.559,8.235.268,12.216-3.415,10.538-13.4,18.108-24.144,20.352s-22-.318-31.813-5.167c-13.74-6.835-25.41-18.555-30.423-33.183S46.882,77.655,57.092,66.025Z" transform="translate(-46.933 -51.58)" fill="#f5f5f5"/>
      <circle id="Elipse_7172" data-name="Elipse 7172" cx="10.042" cy="10.042" r="10.042" transform="translate(63.42 19.537) rotate(-76.6)" fill="#f5f5f5"/>
      <circle id="Elipse_7173" data-name="Elipse 7173" cx="10.042" cy="10.042" r="10.042" transform="translate(301.474 136.455)" fill="#f5f5f5"/>
    </g>
    <g id="freepik--Floor--inject-2" transform="translate(25.49 249.861)">
      <path id="Trazado_217314" data-name="Trazado 217314" d="M369.49,470.289c0,.069-77.013.129-171.99.129s-172.01-.06-172.01-.129,77-.129,172.01-.129S369.49,470.215,369.49,470.289Z" transform="translate(-25.49 -470.16)" fill="#263238"/>
    </g>
    <g id="freepik--Books--inject-2" transform="translate(43.573 179.047)">
      <path id="Trazado_217315" data-name="Trazado 217315" d="M108.4,396.87h79.748V374.94H108.4A10.965,10.965,0,0,0,97.44,385.89h0A10.965,10.965,0,0,0,108.4,396.87Z" transform="translate(-79.809 -351.392)" fill="#455a64"/>
      <path id="Trazado_217316" data-name="Trazado 217316" d="M110.748,397.167h79.857V380.32H110.748a8.438,8.438,0,0,0-8.438,8.438h0A8.438,8.438,0,0,0,110.748,397.167Z" transform="translate(-82.261 -354.101)" fill="#f5f5f5"/>
      <path id="Trazado_217317" data-name="Trazado 217317" d="M292.921,380.3a8.821,8.821,0,0,0-3.911,7.446,17.218,17.218,0,0,0,3.291,9.4H266.067s-3.475-2.184-3.122-8.438a8.414,8.414,0,0,1,2.745-6.036,12.78,12.78,0,0,1,5.8-2.388Z" transform="translate(-163.148 -354.086)" fill="#e0e0e0"/>
      <path id="Trazado_217318" data-name="Trazado 217318" d="M280.19,377.611H304.2a1.335,1.335,0,0,0,1.335-1.335h0a1.335,1.335,0,0,0-1.335-1.335H280.19Z" transform="translate(-171.845 -351.392)" fill="#455a64"/>
      <path id="Trazado_217319" data-name="Trazado 217319" d="M280.19,416.672h24.144a1.206,1.206,0,0,0,1.206-1.206h0a1.206,1.206,0,0,0-1.206-1.206H280.19Z" transform="translate(-171.845 -371.194)" fill="#455a64"/>
      <path id="Trazado_217320" data-name="Trazado 217320" d="M277.76,409.369c0-.069,4.12-.129,9.2-.129s9.2.06,9.2.129-4.12.129-9.2.129S277.76,409.439,277.76,409.369Z" transform="translate(-170.622 -368.666)" fill="#263238"/>
      <path id="Trazado_217321" data-name="Trazado 217321" d="M272.35,400.349c0-.069,4.5-.129,10.047-.129s10.042.06,10.042.129-4.5.129-10.042.129S272.35,400.424,272.35,400.349Z" transform="translate(-167.897 -364.123)" fill="#263238"/>
      <path id="Trazado_217322" data-name="Trazado 217322" d="M269.34,396.344c0-.074,3.718-.134,8.3-.134s8.309.06,8.309.134-3.718.129-8.309.129S269.34,396.414,269.34,396.344Z" transform="translate(-166.381 -362.104)" fill="#263238"/>
      <path id="Trazado_217323" data-name="Trazado 217323" d="M272,389.529c0-.069,4.542-.129,10.146-.129s10.141.06,10.141.129-4.542.129-10.141.129S272,389.6,272,389.529Z" transform="translate(-167.721 -358.674)" fill="#263238"/>
      <path id="Trazado_217324" data-name="Trazado 217324" d="M282.57,383.519c0-.07,3.564-.129,7.942-.129s7.942.06,7.942.129-3.564.129-7.942.129S282.57,383.594,282.57,383.519Z" transform="translate(-173.044 -355.647)" fill="#263238"/>
      <path id="Trazado_217325" data-name="Trazado 217325" d="M124.08,387.729c0-.069,15.14-.129,33.813-.129s33.818.06,33.818.129-15.14.129-33.818.129S124.08,387.8,124.08,387.729Z" transform="translate(-93.225 -357.768)" fill="#263238"/>
      <path id="Trazado_217326" data-name="Trazado 217326" d="M114.46,391.939c0-.074,15.209-.129,33.962-.129s33.967.055,33.967.129-15.2.129-33.967.129S114.46,392.009,114.46,391.939Z" transform="translate(-88.38 -359.888)" fill="#263238"/>
      <path id="Trazado_217327" data-name="Trazado 217327" d="M107,396.749c0-.074,16.524-.129,36.9-.129s36.9.055,36.9.129-16.519.129-36.9.129S107,396.809,107,396.749Z" transform="translate(-84.623 -362.31)" fill="#263238"/>
      <path id="Trazado_217328" data-name="Trazado 217328" d="M117.06,401.349c0-.07,15.388-.129,34.414-.129s34.414.06,34.414.129-15.388.129-34.414.129S117.06,401.424,117.06,401.349Z" transform="translate(-89.69 -364.627)" fill="#263238"/>
      <path id="Trazado_217329" data-name="Trazado 217329" d="M120.27,407.164c0-.074,14.673-.134,32.761-.134s32.761.06,32.761.134-14.668.129-32.761.129S120.27,407.234,120.27,407.164Z" transform="translate(-91.306 -367.553)" fill="#263238"/>
      <g id="Grupo_149288" data-name="Grupo 149288" transform="translate(108.345 23.548)" opacity="0.3">
        <path id="Trazado_217330" data-name="Trazado 217330" d="M280.19,377.611H304.2a1.335,1.335,0,0,0,1.335-1.335h0a1.335,1.335,0,0,0-1.335-1.335H280.19Z" transform="translate(-280.19 -374.94)"/>
      </g>
      <g id="Grupo_149289" data-name="Grupo 149289" transform="translate(108.345 43.066)" opacity="0.3">
        <path id="Trazado_217331" data-name="Trazado 217331" d="M280.19,416.672h24.144a1.206,1.206,0,0,0,1.206-1.206h0a1.206,1.206,0,0,0-1.206-1.206H280.19Z" transform="translate(-280.19 -414.26)"/>
      </g>
      <path id="Trazado_217332" data-name="Trazado 217332" d="M213.964,444.559H121.28V419.07h92.684a12.742,12.742,0,0,1,12.747,12.742h0A12.747,12.747,0,0,1,213.964,444.559Z" transform="translate(-91.815 -373.617)" fill="#f67409"/>
      <path id="Trazado_217333" data-name="Trazado 217333" d="M214.1,444.907H121.28V425.32H214.1a9.789,9.789,0,0,1,9.789,9.794h0A9.794,9.794,0,0,1,214.1,444.907Z" transform="translate(-91.815 -376.764)" fill="#f5f5f5"/>
      <path id="Trazado_217334" data-name="Trazado 217334" d="M71.1,425.31a10.255,10.255,0,0,1,4.547,8.657c0,5.991-3.827,10.92-3.827,10.92h30.5s4.031-2.541,3.629-9.794a9.811,9.811,0,0,0-3.187-7.019,14.841,14.841,0,0,0-6.746-2.775Z" transform="translate(-66.543 -376.754)" fill="#e0e0e0"/>
      <path id="Trazado_217335" data-name="Trazado 217335" d="M91.385,422.172H63.474a1.554,1.554,0,0,1-1.554-1.554h0a1.554,1.554,0,0,1,1.554-1.549H91.385Z" transform="translate(-61.92 -373.617)" fill="#f67409"/>
      <path id="Trazado_217336" data-name="Trazado 217336" d="M91.385,467.58H63.32a1.4,1.4,0,0,1-1.4-1.4h0a1.4,1.4,0,0,1,1.4-1.4H91.385Z" transform="translate(-61.92 -396.637)" fill="#f67409"/>
      <path id="Trazado_217337" data-name="Trazado 217337" d="M102.394,459.109c0,.069-4.785.129-10.692.129s-10.7-.06-10.7-.129,4.785-.129,10.692-.129S102.394,459.035,102.394,459.109Z" transform="translate(-71.529 -393.716)" fill="#263238"/>
      <path id="Trazado_217338" data-name="Trazado 217338" d="M106.7,448.629c0,.07-5.227.129-11.675.129s-11.675-.06-11.675-.129,5.227-.129,11.675-.129S106.7,448.555,106.7,448.629Z" transform="translate(-72.713 -388.438)" fill="#263238"/>
      <path id="Trazado_217339" data-name="Trazado 217339" d="M114.3,443.969c0,.069-4.323.129-9.655.129s-9.65-.06-9.65-.129,4.323-.129,9.655-.129S114.3,443.919,114.3,443.969Z" transform="translate(-78.58 -386.091)" fill="#263238"/>
      <path id="Trazado_217340" data-name="Trazado 217340" d="M106.933,436.049c0,.069-5.281.129-11.794.129s-11.789-.06-11.789-.129,5.277-.129,11.789-.129S106.933,435.96,106.933,436.049Z" transform="translate(-72.713 -382.103)" fill="#263238"/>
      <path id="Trazado_217341" data-name="Trazado 217341" d="M99.745,429.059c0,.074-4.14.129-9.248.129s-9.248-.055-9.248-.129,4.14-.129,9.248-.129S99.745,428.99,99.745,429.059Z" transform="translate(-71.655 -378.582)" fill="#263238"/>
      <path id="Trazado_217342" data-name="Trazado 217342" d="M222.981,433.949c0,.074-17.6.134-39.3.134s-39.308-.06-39.308-.134,17.6-.129,39.308-.129S222.981,433.88,222.981,433.949Z" transform="translate(-103.444 -381.045)" fill="#263238"/>
      <path id="Trazado_217343" data-name="Trazado 217343" d="M233.809,438.869c0,.069-17.676.129-39.477.129s-39.482-.06-39.482-.129,17.671-.129,39.482-.129S233.809,438.785,233.809,438.869Z" transform="translate(-108.722 -383.523)" fill="#263238"/>
      <path id="Trazado_217344" data-name="Trazado 217344" d="M235.5,444.439c0,.069-19.2.129-42.892.129s-42.892-.06-42.892-.129,19.2-.129,42.892-.129S235.5,444.365,235.5,444.439Z" transform="translate(-106.138 -386.328)" fill="#263238"/>
      <path id="Trazado_217345" data-name="Trazado 217345" d="M229.721,449.789c0,.074-17.909.129-40,.129s-40-.055-40-.129,17.909-.129,40-.129S229.721,449.72,229.721,449.789Z" transform="translate(-106.138 -389.022)" fill="#263238"/>
      <path id="Trazado_217346" data-name="Trazado 217346" d="M229.869,456.549c0,.069-17.061.129-38.092.129s-38.1-.06-38.1-.129,17.056-.129,38.1-.129S229.869,456.475,229.869,456.549Z" transform="translate(-108.132 -392.427)" fill="#263238"/>
      <g id="Grupo_149290" data-name="Grupo 149290" transform="translate(0 45.453)" opacity="0.3">
        <path id="Trazado_217347" data-name="Trazado 217347" d="M91.385,422.172H63.474a1.554,1.554,0,0,1-1.554-1.554h0a1.554,1.554,0,0,1,1.554-1.549H91.385Z" transform="translate(-61.92 -419.07)"/>
      </g>
      <g id="Grupo_149291" data-name="Grupo 149291" transform="translate(0 68.143)" opacity="0.3">
        <path id="Trazado_217348" data-name="Trazado 217348" d="M91.385,467.58H63.32a1.4,1.4,0,0,1-1.4-1.4h0a1.4,1.4,0,0,1,1.4-1.4H91.385Z" transform="translate(-61.92 -464.78)"/>
      </g>
      <path id="Trazado_217349" data-name="Trazado 217349" d="M200.59,327.5h86.439a11.883,11.883,0,0,1,11.883,11.883h0a11.883,11.883,0,0,1-11.883,11.883H200.59Z" transform="translate(-131.757 -327.5)" fill="#f67409"/>
      <path id="Trazado_217350" data-name="Trazado 217350" d="M287.163,351.592H200.59V333.33h86.573a9.133,9.133,0,0,1,9.133,9.133h0A9.128,9.128,0,0,1,287.163,351.592Z" transform="translate(-131.757 -330.436)" fill="#f5f5f5"/>
      <path id="Trazado_217351" data-name="Trazado 217351" d="M153.79,333.33a9.55,9.55,0,0,1,4.239,8.071,18.678,18.678,0,0,1-3.564,10.191H182.9s3.753-2.368,3.385-9.128a9.135,9.135,0,0,0-2.978-6.547,13.851,13.851,0,0,0-6.289-2.586Z" transform="translate(-108.188 -330.436)" fill="#e0e0e0"/>
      <path id="Trazado_217352" data-name="Trazado 217352" d="M172.709,330.394h-26.03a1.445,1.445,0,0,1-1.449-1.449h0a1.444,1.444,0,0,1,1.449-1.444h26.03Z" transform="translate(-103.877 -327.5)" fill="#f67409"/>
      <path id="Trazado_217353" data-name="Trazado 217353" d="M172.71,372.731H146.535a1.305,1.305,0,0,1-1.305-1.305h0a1.305,1.305,0,0,1,1.305-1.305H172.71Z" transform="translate(-103.877 -348.964)" fill="#f67409"/>
      <path id="Trazado_217354" data-name="Trazado 217354" d="M182.964,364.869c0,.069-4.467.129-9.972.129s-9.992-.079-9.992-.129,4.467-.129,9.972-.129S182.964,364.775,182.964,364.869Z" transform="translate(-112.826 -346.255)" fill="#263238"/>
      <path id="Trazado_217355" data-name="Trazado 217355" d="M186.986,355.049c0,.074-4.874.129-10.886.129s-10.891-.055-10.891-.129,4.874-.129,10.891-.129S186.986,354.96,186.986,355.049Z" transform="translate(-113.939 -341.309)" fill="#263238"/>
      <path id="Trazado_217356" data-name="Trazado 217356" d="M194.074,350.709c0,.07-4.031.129-9,.129s-9-.06-9-.129,4.031-.129,9-.129S194.074,350.64,194.074,350.709Z" transform="translate(-119.408 -339.124)" fill="#263238"/>
      <path id="Trazado_217357" data-name="Trazado 217357" d="M187.2,343.329c0,.069-4.924.129-11,.129s-10.995-.06-10.995-.129,4.924-.129,10.995-.129S187.2,343.255,187.2,343.329Z" transform="translate(-113.939 -335.407)" fill="#263238"/>
      <path id="Trazado_217358" data-name="Trazado 217358" d="M180.5,336.809c0,.069-3.862.129-8.622.129s-8.627-.06-8.627-.129,3.862-.129,8.627-.129S180.5,336.74,180.5,336.809Z" transform="translate(-112.952 -332.123)" fill="#263238"/>
      <path id="Trazado_217359" data-name="Trazado 217359" d="M295.42,341.369c0,.074-16.41.129-36.653.129s-36.658-.055-36.658-.129,16.41-.129,36.658-.129S295.42,341.3,295.42,341.369Z" transform="translate(-142.595 -334.42)" fill="#263238"/>
      <path id="Trazado_217360" data-name="Trazado 217360" d="M305.518,345.929c0,.074-16.485.129-36.811.129s-36.816-.055-36.816-.129,16.48-.129,36.816-.129S305.518,345.86,305.518,345.929Z" transform="translate(-147.521 -336.716)" fill="#263238"/>
      <path id="Trazado_217361" data-name="Trazado 217361" d="M307.1,351.139c0,.074-17.909.134-39.993.134s-40-.06-40-.134,17.9-.129,40-.129S307.1,351.07,307.1,351.139Z" transform="translate(-145.113 -339.34)" fill="#263238"/>
      <path id="Trazado_217362" data-name="Trazado 217362" d="M301.711,356.139c0,.07-16.7.129-37.3.129s-37.3-.06-37.3-.129,16.7-.129,37.3-.129S301.711,356.07,301.711,356.139Z" transform="translate(-145.113 -341.858)" fill="#263238"/>
      <path id="Trazado_217363" data-name="Trazado 217363" d="M301.847,362.439c0,.069-15.909.129-35.521.129s-35.526-.06-35.526-.129,15.884-.129,35.526-.129S301.847,362.365,301.847,362.439Z" transform="translate(-146.972 -345.031)" fill="#263238"/>
      <g id="Grupo_149292" data-name="Grupo 149292" transform="translate(41.353)" opacity="0.3">
        <path id="Trazado_217364" data-name="Trazado 217364" d="M172.709,330.394h-26.03a1.445,1.445,0,0,1-1.449-1.449h0a1.444,1.444,0,0,1,1.449-1.444h26.03Z" transform="translate(-145.23 -327.5)"/>
      </g>
      <g id="Grupo_149293" data-name="Grupo 149293" transform="translate(41.353 21.156)" opacity="0.3">
        <path id="Trazado_217365" data-name="Trazado 217365" d="M172.71,372.731H146.535a1.305,1.305,0,0,1-1.305-1.305h0a1.305,1.305,0,0,1,1.305-1.305H172.71Z" transform="translate(-145.23 -370.12)"/>
      </g>
    </g>
    <g id="freepik--Parchment--inject-2" transform="translate(124.319 32.73)">
      <path id="Trazado_217366" data-name="Trazado 217366" d="M524.445,33.175s15.239-1.221,16.941,35.427H492.28l2.432-27.46Z" transform="translate(-359.404 -32.952)" fill="#e0e0e0"/>
      <path id="Trazado_217367" data-name="Trazado 217367" d="M390.708,163.185c-2.512-21.925-7.024-43.428-8.781-65.477s-8.126-54.19,7.714-64.663c0,0-118.55-.134-123.99-.134-24.357,0-33.089,32.528-28.845,64.8,2.879,21.875,6.274,43.552,8.786,65.477s2.914,44.967-3.286,65.586c-3.112,10.359-9.357,20.972-17.7,21.31H373.285s10.92-10.6,14.142-21.31C393.627,208.176,393.22,185.1,390.708,163.185Z" transform="translate(-224.6 -32.82)" fill="#fff"/>
      <path id="Trazado_217368" data-name="Trazado 217368" d="M390.7,163.094s.065.531.184,1.578.3,2.606.5,4.656c.387,4.105.9,10.186,1.062,18.083.055,3.946,0,8.344-.238,13.164a138.514,138.514,0,0,1-1.782,15.631c-.233,1.395-.546,2.8-.824,4.244s-.67,2.874-.993,4.353c-.2.73-.412,1.464-.615,2.2l-.313,1.117-.154.566-.194.551c-.258.74-.5,1.489-.819,2.224-.159.362-.313.73-.5,1.1s-.347.72-.526,1.082a54.342,54.342,0,0,1-5.277,8.438,76.592,76.592,0,0,1-6.87,7.942H373.3l-148.675.035v-.243a10.752,10.752,0,0,0,3.6-.814,13.516,13.516,0,0,0,3.192-1.921,23.941,23.941,0,0,0,5-5.639,42.96,42.96,0,0,0,3.589-6.766,55.911,55.911,0,0,0,2.551-7.317,128.072,128.072,0,0,0,4.562-31.411,228.708,228.708,0,0,0-1.628-32.85c-1.266-11.064-2.785-22.253-4.363-33.555-1.559-11.164-3.162-22.2-4.567-33.128-.347-2.735-.556-5.46-.725-8.21s-.189-5.46-.139-8.185a93.4,93.4,0,0,1,1.643-16.1,59.888,59.888,0,0,1,4.964-15.135,31.18,31.18,0,0,1,9.833-11.958,22.883,22.883,0,0,1,7-3.281l1.886-.422c.63-.119,1.271-.179,1.906-.268l.5-.06h.5l.958-.04c.64-.04,1.276-.035,1.911-.035h15.085l107.749.134h.328l-.273.179a18.569,18.569,0,0,0-5.267,5.381,26.476,26.476,0,0,0-3.058,6.726,44.26,44.26,0,0,0-1.489,7.073c-.3,2.363-.467,4.711-.546,7.029a134.38,134.38,0,0,0,.347,13.516c.313,4.368.73,8.592,1.157,12.673s.839,8.026,1.152,11.834.655,7.446,1.072,10.955c.8,7,1.727,13.377,2.586,19.111s1.648,10.836,2.318,15.259,1.206,8.17,1.613,11.208c.814,6.076,1.147,9.287,1.147,9.287s-.1-.8-.3-2.363-.5-3.882-.9-6.915-.968-6.786-1.643-11.208-1.489-9.516-2.348-15.249-1.8-12.112-2.606-19.111c-.422-3.5-.764-7.158-1.087-10.965s-.759-7.743-1.176-11.8-.849-8.3-1.166-12.673a133.282,133.282,0,0,1-.357-13.536,54.7,54.7,0,0,1,2.05-14.152,26.764,26.764,0,0,1,3.073-6.8,18.719,18.719,0,0,1,5.336-5.46l.055.179-107.784-.094H266.777c-.635,0-1.271,0-1.906.035l-.948.04h-.5l-.472.06c-.625.089-1.261.144-1.886.263l-1.866.417a22.555,22.555,0,0,0-6.924,3.251,31.6,31.6,0,0,0-9.813,11.913A59.64,59.64,0,0,0,237.55,64a93.317,93.317,0,0,0-1.638,16.053c-.05,2.715,0,5.46.144,8.165s.372,5.46.725,8.19c1.4,10.92,3,21.965,4.562,33.128,1.583,11.3,3.1,22.491,4.363,33.56a228.466,228.466,0,0,1,1.628,32.885,128.322,128.322,0,0,1-4.577,31.47,55.963,55.963,0,0,1-2.576,7.376,43.681,43.681,0,0,1-3.614,6.8,24.2,24.2,0,0,1-5.053,5.7,13.7,13.7,0,0,1-3.246,1.961,10.92,10.92,0,0,1-3.678.834v-.243l148.675.04h-.06a76.276,76.276,0,0,0,6.86-7.942,54.911,54.911,0,0,0,5.272-8.409c.174-.362.362-.715.526-1.082s.313-.735.467-1.1c.333-.72.561-1.489.819-2.209l.189-.551.159-.561.313-1.117c.2-.74.412-1.489.616-2.2.342-1.489.71-2.914,1.018-4.343s.591-2.844.824-4.239a138.613,138.613,0,0,0,1.807-15.591c.273-4.815.308-9.213.258-13.159-.144-7.892-.645-13.973-.993-18.078-.179-2.05-.352-3.609-.462-4.656S390.7,163.094,390.7,163.094Z" transform="translate(-224.59 -32.73)" fill="#263238"/>
      <path id="Trazado_217369" data-name="Trazado 217369" d="M393.018,160.019s.074.571.208,1.693.333,2.795.6,4.964c.5,4.383,1.31,10.851,1.986,19.23.323,4.189.571,8.86.616,13.983a109.289,109.289,0,0,1-1.033,16.629c-.243,1.489-.442,2.978-.809,4.5-.164.759-.333,1.524-.5,2.293s-.437,1.519-.655,2.288a77.981,77.981,0,0,1-3.43,9.287l-1.092,2.328c-.387.774-.814,1.529-1.226,2.3a43.036,43.036,0,0,1-2.869,4.467c-.248.372-.551.71-.834,1.067s-.556.715-.869,1.047l-.938.993c-.313.333-.665.63-.993.953a13.164,13.164,0,0,1-4.765,2.944h0l-133.794.089v-.243a6.5,6.5,0,0,0,3.2-1.087,11.292,11.292,0,0,0,2.546-2.343,28.079,28.079,0,0,0,3.614-6.031,78.249,78.249,0,0,0,4.467-13.626,165.726,165.726,0,0,0,4.229-29.286,187.006,187.006,0,0,0-.928-30.562q-.839-7.714-2.115-15.482c-.839-5.172-1.787-10.364-2.675-15.591-1.852-10.747-3.435-21.419-4.865-31.972a119.82,119.82,0,0,1-.819-31.436c.308-2.571.73-5.118,1.246-7.634a69.04,69.04,0,0,1,2.04-7.4,44.748,44.748,0,0,1,3.048-6.949,31.274,31.274,0,0,1,4.328-6.175,21.841,21.841,0,0,1,5.867-4.646,19.825,19.825,0,0,1,7.063-2.179c2.457-.268,4.9-.144,7.322-.169h7.242L391.1,38.4h.263l-.194.174a18.48,18.48,0,0,0-4.2,5.584,29.067,29.067,0,0,0-2.273,6.453,60.205,60.205,0,0,0-1.345,13.149A224.187,224.187,0,0,0,384.986,88c.4,3.777.779,7.446,1.067,10.955s.581,6.91.913,10.151c.64,6.488,1.335,12.409,1.986,17.731,1.33,10.647,2.368,18.927,3.068,24.551.333,2.81.586,4.964.755,6.4s.243,2.184.243,2.184c-.025-.194-.367-2.978-1.052-8.582s-1.767-13.9-3.122-24.541c-.66-5.326-1.365-11.243-2.01-17.731-.333-3.246-.63-6.632-.923-10.156s-.68-7.168-1.082-10.95a224.026,224.026,0,0,1-1.663-24.263,60.653,60.653,0,0,1,1.34-13.194,29.144,29.144,0,0,1,2.288-6.478,18.714,18.714,0,0,1,4.239-5.644l.065.174L287.433,38.53h-7.242c-2.422.025-4.874-.094-7.292.169a19.657,19.657,0,0,0-6.979,2.154,21.582,21.582,0,0,0-5.8,4.567,31.325,31.325,0,0,0-4.294,6.11A44.673,44.673,0,0,0,252.8,58.48a68.794,68.794,0,0,0-2.045,7.366c-.5,2.512-.938,5.048-1.241,7.614a119.775,119.775,0,0,0,.819,31.371c1.43,10.548,3.018,21.22,4.865,31.962.893,5.227,1.837,10.424,2.68,15.6s1.549,10.345,2.115,15.5a186.911,186.911,0,0,1,.923,30.6,165.835,165.835,0,0,1-4.2,29.316,78.772,78.772,0,0,1-4.512,13.67,28.293,28.293,0,0,1-3.648,6.086,11.774,11.774,0,0,1-2.6,2.388,6.781,6.781,0,0,1-3.326,1.127v-.243l133.749.03h0a12.976,12.976,0,0,0,4.681-2.9c.333-.318.685-.616.993-.948l.933-.993c.313-.328.576-.695.869-1.042a11.314,11.314,0,0,0,.829-1.062,43.753,43.753,0,0,0,2.859-4.467c.412-.769.839-1.524,1.226-2.293s.73-1.554,1.087-2.323a77.689,77.689,0,0,0,3.435-9.262c.218-.769.437-1.529.655-2.283s.338-1.529.5-2.288c.372-1.489.571-3.013.814-4.467a109.151,109.151,0,0,0,1.052-16.609c-.035-5.118-.278-9.789-.6-13.978-.64-8.374-1.435-14.842-1.916-19.23-.253-2.189-.442-3.862-.571-4.964S393.018,160.019,393.018,160.019Z" transform="translate(-233.67 -35.512)" fill="#263238"/>
      <path id="Trazado_217370" data-name="Trazado 217370" d="M405.547,55.589c0,.069-25.256.129-56.4.129s-56.408-.06-56.408-.129,25.251-.129,56.408-.129S405.547,55.52,405.547,55.589Z" transform="translate(-258.912 -44.177)" fill="#263238"/>
      <path id="Trazado_217371" data-name="Trazado 217371" d="M404.147,60.779c0,.074-25.256.129-56.4.129s-56.408-.055-56.408-.129,25.251-.129,56.408-.129S404.147,60.71,404.147,60.779Z" transform="translate(-258.207 -46.791)" fill="#263238"/>
      <path id="Trazado_217372" data-name="Trazado 217372" d="M333.043,88.68v.159h-1.018V93.8a9.6,9.6,0,0,0,.05.993,2.661,2.661,0,0,0,.233.879,1.489,1.489,0,0,0,.541.625,1.722,1.722,0,0,0,.968.238,3.053,3.053,0,0,0,.993-.139,2.051,2.051,0,0,0,.67-.362,1.638,1.638,0,0,0,.407-.5,2.393,2.393,0,0,0,.213-.566,2.576,2.576,0,0,0,.074-.531v-5.6h-.993v-.154H337.4v.154h-1.032v5.634a2.426,2.426,0,0,1-.089.571,2.69,2.69,0,0,1-.233.6,1.633,1.633,0,0,1-.452.536,2.393,2.393,0,0,1-.754.387,3.623,3.623,0,0,1-1.117.149,5.162,5.162,0,0,1-1.727-.238,2.482,2.482,0,0,1-.993-.616,1.921,1.921,0,0,1-.462-.869,4.427,4.427,0,0,1-.109-.993V88.839H329.4v-.154Z" transform="translate(-277.375 -60.907)" fill="#263238"/>
      <path id="Trazado_217373" data-name="Trazado 217373" d="M349.361,88.68l3.683,5.267h.025V88.839h-1.023v-.154h2.214v.154h-1.018v7.724h-.3l-4.964-7.093h-.025v6.949h1.018v.154H346.76v-.154h1.023v-7.58H346.76v-.154Z" transform="translate(-286.117 -60.907)" fill="#263238"/>
      <path id="Trazado_217374" data-name="Trazado 217374" d="M367.048,88.68v.159h-1.018v7.57h1.018v.154H363.41v-.154h.993v-7.57h-.993v-.154Z" transform="translate(-294.503 -60.907)" fill="#263238"/>
      <path id="Trazado_217375" data-name="Trazado 217375" d="M374.928,88.68v.159h-1.062l2.288,6,2.338-6H377.5v-.154h2.115v.154h-.953l-3.117,8.021h-.323l-3.058-8.021h-.933v-.154Z" transform="translate(-298.441 -60.907)" fill="#263238"/>
      <path id="Trazado_217376" data-name="Trazado 217376" d="M395.152,88.68v1.891h-.144a4.215,4.215,0,0,0-.189-.5,2.442,2.442,0,0,0-.372-.571,2.194,2.194,0,0,0-.616-.5,1.916,1.916,0,0,0-.918-.2h-1.757v3.42h.62a1.772,1.772,0,0,0,.69-.119,1.186,1.186,0,0,0,.5-.333,1.7,1.7,0,0,0,.308-.5,4.069,4.069,0,0,0,.2-.68h.144v3.44h-.144a5.983,5.983,0,0,0-.179-.62,2.13,2.13,0,0,0-.283-.526,1.386,1.386,0,0,0-.437-.357,1.42,1.42,0,0,0-.65-.134h-.74v3.971h1.812a2.348,2.348,0,0,0,.918-.174,2.229,2.229,0,0,0,.725-.5,2.592,2.592,0,0,0,.526-.725,3.714,3.714,0,0,0,.323-.889h.144v2.422h-7.1v-.154h1.018V88.839H388.53v-.154Z" transform="translate(-307.154 -60.907)" fill="#263238"/>
      <path id="Trazado_217377" data-name="Trazado 217377" d="M404.59,88.844V88.69h3.529a4.964,4.964,0,0,1,.913.089,2.978,2.978,0,0,1,.884.3,1.936,1.936,0,0,1,.655.581,1.543,1.543,0,0,1,.263.918,1.375,1.375,0,0,1-.2.759,1.638,1.638,0,0,1-.5.5,2.726,2.726,0,0,1-.7.3,4.681,4.681,0,0,1-.764.139v.04c.362.065.685.134.968.2a2.378,2.378,0,0,1,.74.3,1.45,1.45,0,0,1,.5.556,2.526,2.526,0,0,1,.228.948c.035.467.065.839.084,1.122a4.347,4.347,0,0,0,.094.65.611.611,0,0,0,.169.313.5.5,0,0,0,.3.074.541.541,0,0,0,.367-.124l.253-.238.109.1-.213.2a1.027,1.027,0,0,1-.243.159,1.587,1.587,0,0,1-.338.109,2.825,2.825,0,0,1-.5.035,1.941,1.941,0,0,1-.948-.194,1.3,1.3,0,0,1-.5-.5,1.574,1.574,0,0,1-.2-.625c-.025-.223-.045-.437-.05-.635a6.283,6.283,0,0,0-.06-.879,2.66,2.66,0,0,0-.184-.759,1.221,1.221,0,0,0-.432-.531,1.4,1.4,0,0,0-.809-.2h-.73v3.971h1.018v.154h-3.638v-.154h1.018v-7.53Zm3.073,3.42a1.916,1.916,0,0,0,.789-.134,1.037,1.037,0,0,0,.432-.357,1.28,1.28,0,0,0,.179-.5,3.826,3.826,0,0,0,.04-.586,4.537,4.537,0,0,0-.065-.839,1.489,1.489,0,0,0-.223-.571.913.913,0,0,0-.427-.343,1.911,1.911,0,0,0-.69-.109h-.486v3.42Z" transform="translate(-315.242 -60.912)" fill="#263238"/>
      <path id="Trazado_217378" data-name="Trazado 217378" d="M421.484,93.949a3.479,3.479,0,0,0,.079.347,3.06,3.06,0,0,0,.159.467,3.642,3.642,0,0,0,.268.5,2.224,2.224,0,0,0,.392.5,2.318,2.318,0,0,0,.5.387,2.63,2.63,0,0,0,.452.194,1.811,1.811,0,0,0,.412.065h.357a2.164,2.164,0,0,0,.963-.184,1.589,1.589,0,0,0,.591-.447,1.648,1.648,0,0,0,.308-.561,1.762,1.762,0,0,0,.089-.5,1.112,1.112,0,0,0-.194-.675,1.489,1.489,0,0,0-.5-.442,3.791,3.791,0,0,0-.73-.3l-.844-.248a8,8,0,0,1-.839-.3,2.835,2.835,0,0,1-.73-.442,2.09,2.09,0,0,1-.5-.67,2.278,2.278,0,0,1-.194-.993,1.985,1.985,0,0,1,.2-.849,2.3,2.3,0,0,1,.556-.725,2.7,2.7,0,0,1,.844-.5,2.894,2.894,0,0,1,1.067-.194,2.78,2.78,0,0,1,.645.065c.184.045.347.094.5.139a3.235,3.235,0,0,1,.367.139.789.789,0,0,0,.3.065.333.333,0,0,0,.2-.045.541.541,0,0,0,.1-.184h.179v2.1h-.144c-.089-.258-.184-.5-.283-.764a2.934,2.934,0,0,0-.427-.71,1.822,1.822,0,0,0-.586-.5,1.926,1.926,0,0,0-.9-.189,2.214,2.214,0,0,0-.779.124,1.857,1.857,0,0,0-.571.318,1.415,1.415,0,0,0-.352.447,1.052,1.052,0,0,0-.124.5.993.993,0,0,0,.208.64,1.693,1.693,0,0,0,.536.437,3.917,3.917,0,0,0,.754.318l.879.278c.3.094.586.2.874.313a3.032,3.032,0,0,1,.754.437,2.124,2.124,0,0,1,.541.645,1.931,1.931,0,0,1,.2.928,2.423,2.423,0,0,1-.223,1.027,2.587,2.587,0,0,1-.625.854,3.058,3.058,0,0,1-.963.581,3.42,3.42,0,0,1-1.246.213,3.5,3.5,0,0,1-.68-.065c-.223-.045-.432-.089-.63-.139l-.521-.139a1.281,1.281,0,0,0-.338-.065.362.362,0,0,0-.218.05.462.462,0,0,0-.124.2h-.174V93.919Z" transform="translate(-323.672 -60.756)" fill="#263238"/>
      <path id="Trazado_217379" data-name="Trazado 217379" d="M434.723,96.086l3.3-8.036h.3l3.475,8.036h.953v.154h-3.718v-.154h1.027l-1.281-2.978h-2.646L434.9,96.086h.993v.154H433.8v-.154Zm1.464-3.1h2.546l-1.305-3.018Z" transform="translate(-329.953 -60.59)" fill="#263238"/>
      <path id="Trazado_217380" data-name="Trazado 217380" d="M455.938,88.68v.159h-1.018v7.57h1.827a2.259,2.259,0,0,0,.735-.124,1.985,1.985,0,0,0,.7-.4,2.949,2.949,0,0,0,.586-.73,3.8,3.8,0,0,0,.4-1.092h.144v2.482H452.3v-.154h1.018v-7.55H452.3v-.154Z" transform="translate(-339.27 -60.907)" fill="#263238"/>
      <path id="Trazado_217381" data-name="Trazado 217381" d="M313.41,124.626h.948v-5.867h-.948v-.119h3.013l.377.035a1.794,1.794,0,0,1,.333.06,1.2,1.2,0,0,1,.338.094,3.187,3.187,0,0,1,.908.462,2.562,2.562,0,0,1,.625.665,2.785,2.785,0,0,1,.357.824,3.757,3.757,0,0,1,0,1.951,3.012,3.012,0,0,1-.377.794,2.694,2.694,0,0,1-.561.6,3.036,3.036,0,0,1-.69.407,2.6,2.6,0,0,1-.392.149,3.164,3.164,0,0,1-.377.074,3.534,3.534,0,0,1-.422.035H313.43Zm1.807,0,.338.025h.427a4.43,4.43,0,0,0,.576-.035,2.229,2.229,0,0,0,.551-.124,1.916,1.916,0,0,0,.5-.283,1.811,1.811,0,0,0,.407-.5,3.147,3.147,0,0,0,.382-.948,4.705,4.705,0,0,0,.109-1.057,5.517,5.517,0,0,0-.129-1.231,2.423,2.423,0,0,0-.427-.943,1.891,1.891,0,0,0-.784-.606,2.978,2.978,0,0,0-1.206-.213h-.73Z" transform="translate(-269.322 -75.996)" fill="#263238"/>
      <path id="Trazado_217382" data-name="Trazado 217382" d="M327.48,124.626h.953v-5.867h-.953v-.119h4.9v1.489h-.094a4.561,4.561,0,0,0-.238-.591,1.623,1.623,0,0,0-.308-.427,1.192,1.192,0,0,0-.432-.263,1.891,1.891,0,0,0-.6-.084h-1.425v2.651h.556a1.921,1.921,0,0,0,.5-.055.7.7,0,0,0,.337-.189,1.122,1.122,0,0,0,.238-.387,3.871,3.871,0,0,0,.194-.63h.1v2.666h-.094c-.04-.164-.079-.328-.124-.5a1.316,1.316,0,0,0-.179-.407.814.814,0,0,0-.308-.288.993.993,0,0,0-.5-.109h-.695v3.1h1.618a1.414,1.414,0,0,0,.784-.2,1.762,1.762,0,0,0,.5-.5,2.035,2.035,0,0,0,.293-.576,2.714,2.714,0,0,0,.119-.5h.074v1.881H327.48Z" transform="translate(-276.408 -75.996)" fill="#263238"/>
      <path id="Trazado_217383" data-name="Trazado 217383" d="M345.552,124.589h-.129a.827.827,0,0,0-.139-.124.382.382,0,0,0-.238-.055.954.954,0,0,0-.278.045l-.347.109a3.686,3.686,0,0,1-.432.1,2.513,2.513,0,0,1-.531.05,2.929,2.929,0,0,1-1.047-.2,2.874,2.874,0,0,1-.968-.645,3.718,3.718,0,0,1-.7-.993,2.978,2.978,0,0,1-.283-1.33,3.321,3.321,0,0,1,.228-1.226,3.247,3.247,0,0,1,.645-1.027,3.132,3.132,0,0,1,.968-.71,2.829,2.829,0,0,1,1.216-.258,1.911,1.911,0,0,1,.472.05,2.743,2.743,0,0,1,.372.119l.3.114a.725.725,0,0,0,.263.05.437.437,0,0,0,.248-.055,1.588,1.588,0,0,0,.134-.124h.124V120.2h-.094a4.958,4.958,0,0,0-.194-.64,1.782,1.782,0,0,0-.338-.561,1.534,1.534,0,0,0-.541-.4,2.293,2.293,0,0,0-1.6,0,1.777,1.777,0,0,0-.551.377,1.881,1.881,0,0,0-.357.551,3.18,3.18,0,0,0-.2.66,4.805,4.805,0,0,0-.094.7v.67a6.278,6.278,0,0,0,.149,1.489,2.427,2.427,0,0,0,.407.933,1.41,1.41,0,0,0,.63.5,2.352,2.352,0,0,0,.814.139,2.2,2.2,0,0,0,.923-.164,1.608,1.608,0,0,0,.566-.427,1.861,1.861,0,0,0,.328-.591c.074-.218.139-.437.2-.655h.094Z" transform="translate(-282.944 -75.839)" fill="#263238"/>
      <path id="Trazado_217384" data-name="Trazado 217384" d="M352.1,124.626h.933v-5.867h-.948v-.119h2.76v.119H353.9v5.867h1.524a1.529,1.529,0,0,0,1.186-.472,2.979,2.979,0,0,0,.625-1.291h.094v1.881H352.1Z" transform="translate(-288.802 -75.996)" fill="#263238"/>
      <path id="Trazado_217385" data-name="Trazado 217385" d="M363.4,124.47h.754l2.318-6.14h.2L369,124.47h.764v.119h-2.641v-.119h.948l-.908-2.388h-1.985l-.9,2.388h.953v.119H363.39Zm2.775-5-.943,2.482h1.886Z" transform="translate(-294.493 -75.84)" fill="#263238"/>
      <path id="Trazado_217386" data-name="Trazado 217386" d="M376.75,124.626h.948v-5.867h-.948v-.119H379.2a5.878,5.878,0,0,1,.889.055,1.489,1.489,0,0,1,.725.323,1.335,1.335,0,0,1,.422.521,1.375,1.375,0,0,1,.124.551,1.58,1.58,0,0,1-.045.328,1.2,1.2,0,0,1-.208.412,1.573,1.573,0,0,1-.457.387,2.15,2.15,0,0,1-.8.233h0a3.476,3.476,0,0,1,.372.065,2.1,2.1,0,0,1,.5.159,1.905,1.905,0,0,1,.452.293.993.993,0,0,1,.288.5,2.042,2.042,0,0,1,.074.392c0,.144.025.293.035.447a4.338,4.338,0,0,0,.025.447,2.13,2.13,0,0,0,.05.362,1.311,1.311,0,0,0,.159.4.4.4,0,0,0,.362.179.819.819,0,0,0,.233-.04.586.586,0,0,0,.213-.139l.074.094a1.034,1.034,0,0,1-.1.074.5.5,0,0,1-.139.07,1.044,1.044,0,0,1-.208.06,2.6,2.6,0,0,1-.308,0,1.708,1.708,0,0,1-.571-.084.884.884,0,0,1-.362-.253,1.147,1.147,0,0,1-.2-.412,3.973,3.973,0,0,1-.089-.571l-.06-.779a1.608,1.608,0,0,0-.169-.67.993.993,0,0,0-.323-.352.953.953,0,0,0-.382-.134,2.983,2.983,0,0,0-.343,0h-.859v3.1h.953v.119h-2.76Zm1.807-3.217h.8a1.489,1.489,0,0,0,.437-.06.715.715,0,0,0,.338-.213.963.963,0,0,0,.218-.407,2.17,2.17,0,0,0,.079-.65,1.885,1.885,0,0,0-.114-.715.992.992,0,0,0-.3-.407.879.879,0,0,0-.412-.179,2.274,2.274,0,0,0-.447-.045h-.313a1.988,1.988,0,0,0-.273,0Z" transform="translate(-301.221 -75.995)" fill="#263238"/>
      <path id="Trazado_217387" data-name="Trazado 217387" d="M388.68,124.47h.754l2.318-6.14h.2l2.343,6.14h.764v.119h-2.651v-.119h.948l-.9-2.388h-1.986l-.9,2.388h.953v.119h-1.846Zm2.79-5-.943,2.482h1.886Z" transform="translate(-307.229 -75.84)" fill="#263238"/>
      <path id="Trazado_217388" data-name="Trazado 217388" d="M402.086,124.626h.953v-5.867h-.5a2.867,2.867,0,0,0-.387.03,1.043,1.043,0,0,0-.432.169,1.4,1.4,0,0,0-.422.432,2.913,2.913,0,0,0-.347.819h-.094V118.64h5.212v1.569h-.094a2.774,2.774,0,0,0-.348-.819,1.449,1.449,0,0,0-.417-.432,1.1,1.1,0,0,0-.432-.169,2.866,2.866,0,0,0-.387-.03h-.5v5.867h.948v.119h-2.76Z" transform="translate(-313.363 -75.996)" fill="#263238"/>
      <path id="Trazado_217389" data-name="Trazado 217389" d="M412.59,124.626h.953v-5.867h-.953v-.119h2.76v.119H414.4v5.867h.953v.119h-2.76Z" transform="translate(-319.271 -75.996)" fill="#263238"/>
      <path id="Trazado_217390" data-name="Trazado 217390" d="M419.9,121.547a2.979,2.979,0,0,1,.268-1.266,3.43,3.43,0,0,1,.695-.993,3.2,3.2,0,0,1,.958-.675,2.482,2.482,0,0,1,1.062-.243,2.617,2.617,0,0,1,1.1.243,3.117,3.117,0,0,1,.953.675,3.113,3.113,0,0,1,.675,3.435,3.416,3.416,0,0,1-.635.993,3.117,3.117,0,0,1-.943.72,2.576,2.576,0,0,1-1.171.278,2.655,2.655,0,0,1-1.191-.268,2.979,2.979,0,0,1-.948-.7,3.157,3.157,0,0,1-.62-1.023A3.3,3.3,0,0,1,419.9,121.547Zm.993,0a7.593,7.593,0,0,0,.1,1.345,2.745,2.745,0,0,0,.342.963,1.553,1.553,0,0,0,.616.576,2.4,2.4,0,0,0,1.866,0,1.534,1.534,0,0,0,.621-.576,2.561,2.561,0,0,0,.342-.963,7.6,7.6,0,0,0,.1-1.345,8.537,8.537,0,0,0-.074-1.142,3.247,3.247,0,0,0-.3-.993,1.713,1.713,0,0,0-.611-.69,1.822,1.822,0,0,0-2.641.69,3.108,3.108,0,0,0-.293.993,7.784,7.784,0,0,0-.089,1.142Z" transform="translate(-322.952 -75.86)" fill="#263238"/>
      <path id="Trazado_217391" data-name="Trazado 217391" d="M433.45,124.626h.953v-5.867h-.953v-.119h1.837l2.9,4.671h0v-4.552h-.953v-.119h2.03v.119h-.953v6.105h-.169l-3.609-5.753h0v5.515h.953v.119H433.45Z" transform="translate(-329.776 -75.996)" fill="#263238"/>
      <path id="Trazado_217392" data-name="Trazado 217392" d="M451.54,121.547a2.978,2.978,0,0,1,.268-1.266,3.524,3.524,0,0,1,.695-.993,3.261,3.261,0,0,1,.958-.675,2.507,2.507,0,0,1,1.062-.243,2.616,2.616,0,0,1,1.1.243,3.2,3.2,0,0,1,.958.675,3.276,3.276,0,0,1,.67.993,3.216,3.216,0,0,1,.025,2.442,3.416,3.416,0,0,1-.635.993,3.137,3.137,0,0,1-.948.72,2.561,2.561,0,0,1-1.171.278,2.685,2.685,0,0,1-1.191-.268,3.033,3.033,0,0,1-.948-.7,3.342,3.342,0,0,1-.62-1.023A3.3,3.3,0,0,1,451.54,121.547Zm.993,0a8.143,8.143,0,0,0,.1,1.345,2.651,2.651,0,0,0,.347.963,1.524,1.524,0,0,0,.615.576,2.1,2.1,0,0,0,.933.189,2.129,2.129,0,0,0,.933-.189,1.534,1.534,0,0,0,.62-.576,2.744,2.744,0,0,0,.342-.963,7.59,7.59,0,0,0,.1-1.345,7.771,7.771,0,0,0-.079-1.142,2.977,2.977,0,0,0-.3-.993,1.737,1.737,0,0,0-.606-.69,2.134,2.134,0,0,0-2.035,0,1.738,1.738,0,0,0-.606.69,3.113,3.113,0,0,0-.3.993,8.54,8.54,0,0,0-.079,1.142Z" transform="translate(-338.887 -75.86)" fill="#263238"/>
      <path id="Trazado_217393" data-name="Trazado 217393" d="M465.26,124.626h.948v-5.867h-.948v-.119h4.9v1.489h-.069a4.535,4.535,0,0,0-.243-.591,1.624,1.624,0,0,0-.308-.427,1.211,1.211,0,0,0-.427-.263,1.946,1.946,0,0,0-.6-.084h-1.449v2.78h.546a1.891,1.891,0,0,0,.5-.055.7.7,0,0,0,.338-.189,1.205,1.205,0,0,0,.243-.387,4.5,4.5,0,0,0,.189-.63h.094v2.666h-.094c-.04-.164-.079-.328-.124-.5a1.4,1.4,0,0,0-.179-.412.859.859,0,0,0-.308-.288,1.057,1.057,0,0,0-.5-.1h-.695v2.978h.953v.119h-2.76Z" transform="translate(-345.797 -75.996)" fill="#263238"/>
      <path id="Trazado_217394" data-name="Trazado 217394" d="M304.548,145.61v.159h-1.018V149.4h3.2v-3.629H305.71v-.159h3.643v.159h-1.018v7.57h1.018v.154H305.71v-.154h1.023v-3.787h-3.2v3.787h1.018v.154H300.91v-.154h.993v-7.57h-.993v-.159Z" transform="translate(-263.026 -89.579)" fill="#263238"/>
      <path id="Trazado_217395" data-name="Trazado 217395" d="M323.094,145.61v.159H322.1v4.964a9.664,9.664,0,0,0,.05.993,2.661,2.661,0,0,0,.233.879,1.49,1.49,0,0,0,.541.625,1.723,1.723,0,0,0,.968.238,3.212,3.212,0,0,0,.993-.139,2.06,2.06,0,0,0,.67-.367,1.638,1.638,0,0,0,.407-.5,2.394,2.394,0,0,0,.213-.566,2.675,2.675,0,0,0,.074-.531q0-.246,0-.417v-5.182h-.993v-.159h2.214v.159h-1.032v5.639a3.031,3.031,0,0,1-.089.566,2.725,2.725,0,0,1-.233.6,1.692,1.692,0,0,1-.452.536,2.392,2.392,0,0,1-.754.387,3.624,3.624,0,0,1-1.117.149,5.162,5.162,0,0,1-1.727-.238,2.437,2.437,0,0,1-.993-.62,1.871,1.871,0,0,1-.462-.869,4.352,4.352,0,0,1-.109-.993v-5.157H319.47v-.159Z" transform="translate(-272.374 -89.579)" fill="#263238"/>
      <path id="Trazado_217396" data-name="Trazado 217396" d="M339.644,145.61l1.916,5.515h.025l1.946-5.515H346.3v.159h-1.018v7.57H346.3v.154h-3.629v-.154h.993v-7.57h0l-2.72,7.724h-.179l-2.73-7.724h-.025v7.57h1.018v.154H336.8v-.154h1.023v-7.57H336.8v-.159Z" transform="translate(-281.101 -89.579)" fill="#263238"/>
      <path id="Trazado_217397" data-name="Trazado 217397" d="M357.063,153.031l3.3-8.031h.3l3.475,8.036h.953v.154h-3.708v-.154h1.027l-1.281-2.978h-2.656l-1.231,2.978h.993v.154H356.14v-.154Zm1.459-3.122h2.546l-1.305-3.023Z" transform="translate(-290.841 -89.271)" fill="#263238"/>
      <path id="Trazado_217398" data-name="Trazado 217398" d="M377,145.61l3.688,5.272h0v-5.113h-1.018v-.159h2.214v.159h-1.018v7.724h-.3l-4.964-7.093h0v6.949h1.018v.154H374.41v-.154h1.018v-7.58H374.41v-.159Z" transform="translate(-300.043 -89.579)" fill="#263238"/>
      <path id="Trazado_217399" data-name="Trazado 217399" d="M397.11,145.769v-.159h3.509a5.461,5.461,0,0,1,.913.084,2.924,2.924,0,0,1,.879.308,1.911,1.911,0,0,1,.66.581,1.544,1.544,0,0,1,.258.918,1.4,1.4,0,0,1-.2.759,1.589,1.589,0,0,1-.5.5,2.626,2.626,0,0,1-.7.308,4.263,4.263,0,0,1-.764.134v.06c.362.065.685.129.968.2a2.234,2.234,0,0,1,.735.3,1.444,1.444,0,0,1,.5.551,2.586,2.586,0,0,1,.223.953q.06.7.089,1.117a4.329,4.329,0,0,0,.094.655.536.536,0,0,0,.164.308.5.5,0,0,0,.308.079.531.531,0,0,0,.362-.129c.1-.084.184-.164.258-.238l.109.1c-.074.074-.144.144-.218.208a1.082,1.082,0,0,1-.243.159,1.29,1.29,0,0,1-.338.1,2.706,2.706,0,0,1-.5.04,1.951,1.951,0,0,1-.953-.194,1.286,1.286,0,0,1-.5-.5,1.628,1.628,0,0,1-.2-.625,5.949,5.949,0,0,1-.05-.635c0-.3-.04-.6-.065-.879a2.3,2.3,0,0,0-.184-.759,1.2,1.2,0,0,0-.432-.531,1.375,1.375,0,0,0-.8-.2h-.759v4h1.018v.154H397.11v-.154h1.018v-7.57Zm3.078,3.415a1.881,1.881,0,0,0,.784-.129.953.953,0,0,0,.432-.362,1.191,1.191,0,0,0,.184-.5,4.6,4.6,0,0,0,.04-.591,4.47,4.47,0,0,0-.069-.834,1.519,1.519,0,0,0-.218-.576.963.963,0,0,0-.427-.338,1.827,1.827,0,0,0-.69-.109h-.243l-.243.025v3.415Z" transform="translate(-311.475 -89.579)" fill="#263238"/>
      <path id="Trazado_217400" data-name="Trazado 217400" d="M416.938,145.61v.159h-1.018v7.57h1.018v.154H413.3v-.154h1.018v-7.57H413.3v-.159Z" transform="translate(-319.628 -89.579)" fill="#263238"/>
      <path id="Trazado_217401" data-name="Trazado 217401" d="M429.128,147.707a3.867,3.867,0,0,0-.864-1.688,1.986,1.986,0,0,0-1.539-.591,2.274,2.274,0,0,0-1.226.293,1.956,1.956,0,0,0-.715.764,3.013,3.013,0,0,0-.328,1.072,9.068,9.068,0,0,0-.079,1.221v.963a9.073,9.073,0,0,0,.134,1.7,2.978,2.978,0,0,0,.417,1.1,1.6,1.6,0,0,0,.73.606,2.874,2.874,0,0,0,1.067.184,1.573,1.573,0,0,0,.809-.184,1.221,1.221,0,0,0,.457-.5,2.105,2.105,0,0,0,.208-.75c.025-.288.04-.6.04-.938v-.422H427.1v-.154h3.42v.154h-.72v2.546h-.2a.278.278,0,0,0-.129-.194.5.5,0,0,0-.238-.06,1.226,1.226,0,0,0-.5.1l-.5.228a5.461,5.461,0,0,1-.635.228,3.177,3.177,0,0,1-.869.1,3.971,3.971,0,0,1-1.564-.318,4.2,4.2,0,0,1-2.234-2.149,3.971,3.971,0,0,1,.04-3.311,4.437,4.437,0,0,1,.993-1.305,4.314,4.314,0,0,1,1.335-.834,3.832,3.832,0,0,1,1.444-.293,3.05,3.05,0,0,1,.64.065c.208.045.4.089.576.139l.5.139a1.186,1.186,0,0,0,.352.065.372.372,0,0,0,.223-.05.417.417,0,0,0,.119-.184h.189v2.259Z" transform="translate(-324.313 -89.417)" fill="#263238"/>
      <path id="Trazado_217402" data-name="Trazado 217402" d="M443.263,145.61v.159h-.993V149.4h3.2v-3.629H444.4v-.159h3.643v.159h-1.018v7.57h1.018v.154H444.4v-.154h1.023v-3.787h-3.2v3.787h.993v.154H439.58v-.154H440.6v-7.57H439.58v-.159Z" transform="translate(-332.864 -89.579)" fill="#263238"/>
      <path id="Trazado_217403" data-name="Trazado 217403" d="M460.558,145.769a2.978,2.978,0,0,0-.73.079,1.534,1.534,0,0,0-.576.288,1.856,1.856,0,0,0-.452.571,4.686,4.686,0,0,0-.367.928h-.144V145.61h6.949v2.025H465.1a4.686,4.686,0,0,0-.367-.928,1.856,1.856,0,0,0-.452-.571,1.534,1.534,0,0,0-.576-.288,2.978,2.978,0,0,0-.73-.079h-.4v7.57h1.032v.154h-3.643v-.154h1.018v-7.57Z" transform="translate(-342.286 -89.579)" fill="#263238"/>
      <path id="Trazado_217404" data-name="Trazado 217404" d="M474.754,150.884a1.838,1.838,0,0,0,.074.347,3.321,3.321,0,0,0,.164.467,4.134,4.134,0,0,0,.263.5,2.414,2.414,0,0,0,.392.5,2.318,2.318,0,0,0,.5.387,2.06,2.06,0,0,0,.457.194,1.791,1.791,0,0,0,.407.069h.362a2.249,2.249,0,0,0,.963-.184,1.8,1.8,0,0,0,.591-.447,1.677,1.677,0,0,0,.3-.561,1.792,1.792,0,0,0,.089-.5,1.122,1.122,0,0,0-.194-.675,1.593,1.593,0,0,0-.5-.442,3.664,3.664,0,0,0-.735-.3l-.839-.248a7.609,7.609,0,0,1-.839-.3,2.78,2.78,0,0,1-.735-.442,2.074,2.074,0,0,1-.5-.67,2.293,2.293,0,0,1-.194-.993,1.92,1.92,0,0,1,.2-.854,2.421,2.421,0,0,1,.551-.725,2.909,2.909,0,0,1,1.916-.7,2.734,2.734,0,0,1,.64.065,4.985,4.985,0,0,1,.5.139c.144.05.268.094.372.139a.765.765,0,0,0,.293.065c.1,0,.174,0,.2-.05a.631.631,0,0,0,.109-.184h.174v2.1H479.6c-.089-.258-.184-.5-.283-.764a2.759,2.759,0,0,0-.382-.68,1.713,1.713,0,0,0-.586-.5,1.891,1.891,0,0,0-.893-.189,2.368,2.368,0,0,0-.784.119,1.836,1.836,0,0,0-.566.323,1.489,1.489,0,0,0-.357.442,1.127,1.127,0,0,0-.119.5.993.993,0,0,0,.2.64,1.891,1.891,0,0,0,.536.437,4.468,4.468,0,0,0,.759.318l.874.273c.3.1.591.2.874.318a2.978,2.978,0,0,1,.759.437,2.076,2.076,0,0,1,.536.64,1.9,1.9,0,0,1,.2.928,2.536,2.536,0,0,1-.218,1.032,2.616,2.616,0,0,1-.625.849,3.023,3.023,0,0,1-.963.581,3.649,3.649,0,0,1-1.926.154l-.63-.139-.521-.139a1.341,1.341,0,0,0-.338-.069.367.367,0,0,0-.223.055.4.4,0,0,0-.119.2h-.179v-2.482Z" transform="translate(-350.515 -89.427)" fill="#263238"/>
      <path id="Trazado_217405" data-name="Trazado 217405" d="M399.357,195.809c0,.07-22.833.129-50.938.129s-50.948-.06-50.948-.129,22.8-.129,50.948-.129S399.357,195.735,399.357,195.809Z" transform="translate(-261.294 -114.795)" fill="#263238"/>
      <path id="Trazado_217406" data-name="Trazado 217406" d="M399.357,208.529c0,.069-22.833.129-50.938.129s-50.948-.06-50.948-.129,22.8-.129,50.948-.129S399.357,208.455,399.357,208.529Z" transform="translate(-261.294 -121.201)" fill="#263238"/>
      <path id="Trazado_217407" data-name="Trazado 217407" d="M402.017,221.249c0,.069-22.809.129-50.938.129s-50.948-.06-50.948-.129,22.8-.129,50.948-.129S402.017,221.175,402.017,221.249Z" transform="translate(-262.634 -127.607)" fill="#263238"/>
      <path id="Trazado_217408" data-name="Trazado 217408" d="M405.392,235.089c0,.074-22.833.129-50.943.129s-50.948-.055-50.948-.129,22.809-.129,50.948-.129S405.392,235.02,405.392,235.089Z" transform="translate(-264.331 -134.577)" fill="#263238"/>
      <path id="Trazado_217409" data-name="Trazado 217409" d="M406.627,248.929c0,.074-22.809.134-50.938.134s-50.948-.06-50.948-.134,22.8-.129,50.948-.129S406.627,248.86,406.627,248.929Z" transform="translate(-264.955 -141.547)" fill="#263238"/>
      <path id="Trazado_217410" data-name="Trazado 217410" d="M408.762,262.779c0,.07-22.809.129-50.943.129s-50.948-.06-50.948-.129,22.809-.129,50.948-.129S408.762,262.7,408.762,262.779Z" transform="translate(-266.028 -148.522)" fill="#263238"/>
      <path id="Trazado_217411" data-name="Trazado 217411" d="M408.762,276.619c0,.074-22.809.129-50.943.129s-50.948-.055-50.948-.129,22.809-.129,50.948-.129S408.762,276.55,408.762,276.619Z" transform="translate(-266.028 -155.493)" fill="#263238"/>
      <path id="Trazado_217412" data-name="Trazado 217412" d="M412.137,290.469c0,.07-22.809.129-50.938.129s-50.948-.06-50.948-.129,22.8-.129,50.948-.129S412.137,290.395,412.137,290.469Z" transform="translate(-267.73 -162.468)" fill="#263238"/>
      <path id="Trazado_217413" data-name="Trazado 217413" d="M412.137,304.309c0,.069-22.809.129-50.938.129s-50.948-.06-50.948-.129,22.8-.129,50.948-.129S412.137,304.24,412.137,304.309Z" transform="translate(-267.73 -169.438)" fill="#263238"/>
      <circle id="Elipse_7174" data-name="Elipse 7174" cx="4.745" cy="4.745" r="4.745" transform="translate(82.146 159.372)" fill="#fff"/>
      <path id="Trazado_217414" data-name="Trazado 217414" d="M394.569,363.277a5,5,0,1,1,5-4.994A5,5,0,0,1,394.569,363.277Zm0-9.5a4.5,4.5,0,1,0,4.5,4.5A4.5,4.5,0,0,0,394.569,353.781Z" transform="translate(-307.677 -194.166)" fill="#f67409"/>
      <path id="Trazado_217415" data-name="Trazado 217415" d="M377.779,362.968A22.069,22.069,0,1,1,399.848,340.9,22.069,22.069,0,0,1,377.779,362.968Zm0-43.637A21.573,21.573,0,1,0,399.352,340.9,21.573,21.573,0,0,0,377.779,319.331Z" transform="translate(-290.625 -176.816)" fill="#f67409"/>
      <rect id="Rectángulo_45222" data-name="Rectángulo 45222" width="0.496" height="43.2" transform="translate(86.861 142.277)" fill="#f67409"/>
      <path id="Trazado_217416" data-name="Trazado 217416" d="M355.9,363.356v-.5h43.8v.5H377.8C370.449,363.346,363.1,363.356,355.9,363.356Z" transform="translate(-290.721 -198.99)" fill="#f67409"/>
      <rect id="Rectángulo_45223" data-name="Rectángulo 45223" width="43.552" height="0.496" transform="matrix(0.725, -0.689, 0.689, 0.725, 70.835, 178.941)" fill="#f67409"/>
      <rect id="Rectángulo_45224" data-name="Rectángulo 45224" width="0.496" height="43.532" transform="translate(70.994 149.437) rotate(-46.27)" fill="#f67409"/>
      <path id="Trazado_217417" data-name="Trazado 217417" d="M389.568,363.155a9.928,9.928,0,1,1,9.928-9.928A9.928,9.928,0,0,1,389.568,363.155Zm0-19.314A9.431,9.431,0,1,0,399,353.247a9.431,9.431,0,0,0-9.431-9.406Z" transform="translate(-302.677 -189.14)" fill="#f67409"/>
      <path id="Trazado_217418" data-name="Trazado 217418" d="M385.161,363.122a14.271,14.271,0,1,1,14.271-14.269,14.271,14.271,0,0,1-14.271,14.269Zm0-28.04a13.775,13.775,0,1,0,13.774,13.775A13.775,13.775,0,0,0,385.161,335.081Z" transform="translate(-298.27 -184.748)" fill="#f67409"/>
      <path id="Trazado_217419" data-name="Trazado 217419" d="M381.756,362.973a17.626,17.626,0,1,1,17.626-17.625A17.626,17.626,0,0,1,381.756,362.973Zm0-34.746a17.13,17.13,0,1,0,17.13,17.13,17.13,17.13,0,0,0-17.13-17.13Z" transform="translate(-294.865 -181.293)" fill="#f67409"/>
      <path id="Trazado_217420" data-name="Trazado 217420" d="M436.211,390.941a.66.66,0,0,1-.208.357c-.074.065-.318.194-.342,0a1.349,1.349,0,0,1,.065-.338c.06-.144.124-.05.218-.03S436.132,390.851,436.211,390.941Z" transform="translate(-330.889 -213.103)" fill="#f67409"/>
      <path id="Trazado_217421" data-name="Trazado 217421" d="M434.105,360.25c.035.119.06.243.084.357-.094.139-.273.089-.412.164s-.079.164-.144.184-.084-.05-.134-.05-.179.243-.328.184c-.084.06,0,.3-.1.318s-.114-.1-.159-.174-.134-.134-.134-.208.119-.194.159-.243.139-.179.2-.194a2.464,2.464,0,0,0,.308-.03c.084-.03.079-.184.119-.218s.069,0,.1-.04a.412.412,0,0,0,.119-.412c-.03-.114-.184-.238-.084-.377a.5.5,0,0,1,.367.377v.218C434.071,360.18,434.09,360.17,434.105,360.25Z" transform="translate(-329.439 -197.303)" fill="#f67409"/>
      <path id="Trazado_217422" data-name="Trazado 217422" d="M434.845,358.342c0,.05-.055.04-.094.069s-.074.124-.114.134-.144-.079-.213-.06-.03.094-.055.184a.288.288,0,0,1-.189-.208c0-.055.065-.094.079-.164a.683.683,0,0,0-.079-.283v-.035c.084,0,.243.169.427.208S434.84,358.2,434.845,358.342Z" transform="translate(-330.144 -196.533)" fill="#f67409"/>
      <path id="Trazado_217423" data-name="Trazado 217423" d="M434.763,379.605c0,.084-.109.074-.124,0S434.748,379.536,434.763,379.605Z" transform="translate(-330.374 -207.396)" fill="#f67409"/>
      <path id="Trazado_217424" data-name="Trazado 217424" d="M433.7,357c.084.055.283.179.144.288A.263.263,0,0,1,433.7,357Z" transform="translate(-329.902 -196.039)" fill="#f67409"/>
      <path id="Trazado_217425" data-name="Trazado 217425" d="M432.769,378.595c.094-.065.2-.2.372-.134-.04.129-.164.124-.248.184s-.149.164-.248.174a.134.134,0,0,0-.035-.04C432.61,378.664,432.7,378.639,432.769,378.595Z" transform="translate(-329.353 -206.838)" fill="#f67409"/>
      <path id="Trazado_217426" data-name="Trazado 217426" d="M432.062,374.82c.1,0,.194-.04.263,0,0,.258-.338.06-.556.1-.045,0-.06.05-.109.03a.2.2,0,0,1,.159-.184C431.883,374.77,431.973,374.82,432.062,374.82Z" transform="translate(-328.875 -204.989)" fill="#f67409"/>
      <path id="Trazado_217427" data-name="Trazado 217427" d="M431.98,375.48c0,.139-.149.159-.194.268.069.129.1.308.179.427a.537.537,0,0,1-.025.218c-.169.04-.263-.333-.328-.462-.129.03,0,.531-.184.472-.089-.035,0-.179,0-.288s-.094-.119-.1-.194.055-.134.074-.2,0-.268.1-.273.109.114.134.119C431.722,375.6,431.841,375.445,431.98,375.48Z" transform="translate(-328.708 -205.331)" fill="#f67409"/>
      <path id="Trazado_217428" data-name="Trazado 217428" d="M431.778,378.5c-.035.079-.2.045-.218-.03S431.778,378.419,431.778,378.5Z" transform="translate(-328.824 -206.83)" fill="#f67409"/>
      <path id="Trazado_217429" data-name="Trazado 217429" d="M431.5,378.959a.119.119,0,0,1-.03.04c-.065-.025-.134-.045-.154-.124S431.5,378.865,431.5,378.959Z" transform="translate(-328.702 -207.038)" fill="#f67409"/>
      <path id="Trazado_217430" data-name="Trazado 217430" d="M430.8,378.467c-.045.074-.194,0-.243.074-.089,0-.179,0-.194-.094s.1,0,.169-.03S430.766,378.318,430.8,378.467Z" transform="translate(-328.219 -206.804)" fill="#f67409"/>
      <path id="Trazado_217431" data-name="Trazado 217431" d="M428.644,382.93a2.033,2.033,0,0,0-.06-.268v-.124a1.313,1.313,0,0,1-.025-.149c0-.07.079-.079.094-.134s-.035-.114-.035-.228.05-.119.084-.223a1.335,1.335,0,0,1,.035-.174c0-.045.114-.079.149-.1.129-.074.233-.218.362-.243h.1c.02,0,.174-.094.278-.124s.194,0,.268-.074a.844.844,0,0,0,.238-.308c.035-.109,0-.2.1-.243s.069,0,.109,0a.5.5,0,0,0,.154-.094c.055-.065.065-.169.134-.233a.994.994,0,0,1,.194-.154.233.233,0,0,1,.134-.04c.114,0,.174.213.3.174.045,0,.089-.134.134-.208s.1-.243.208-.273.179.04.228-.055-.04-.1,0-.144.263.169.412.179.223-.109.243.04c0,.065-.06.119-.079.184s0,.074,0,.124-.144.05-.144.144.134.169.218.233a1.06,1.06,0,0,1,.134.134c.03.025.065.025.084.04s.094.144.169.144.169-.129.218-.258a2.479,2.479,0,0,0,.084-.5,1.1,1.1,0,0,1,.05-.154c.03-.139.074-.328.174-.377a.943.943,0,0,1,.119.6c.069.06.184.04.2.184v.164c0,.05.06.164.069.238a1.825,1.825,0,0,0,.035.347c.035.1.194.119.273.253a.618.618,0,0,0,.045.184c0,.035,0,.084,0,.1s.1.074.124.134a1.349,1.349,0,0,1,.025.134,1.446,1.446,0,0,0,.119.2,1.191,1.191,0,0,1,.109.2,1.234,1.234,0,0,1-.06.258,2.688,2.688,0,0,1-.035.338c-.04.124-.134.243-.208.4a1.4,1.4,0,0,1-.238.357c-.05.05-.114.079-.164.134a2.283,2.283,0,0,0-.218.273c-.079.1-.169.174-.228.258s-.129.318-.278.338a.8.8,0,0,0-.243.04c-.124.06-.208.174-.268.174s-.124-.089-.184-.1-.124.06-.218.06-.065-.03-.119-.05-.253-.045-.268-.2.045-.129.04-.208-.065-.094-.089-.164a.2.2,0,0,0-.045-.2.238.238,0,0,1,.035-.144.764.764,0,0,0-.169.084c-.06.045-.1.149-.174.129s0-.109-.03-.174a.992.992,0,0,0-.139-.3,1.068,1.068,0,0,0-.288-.129c-.258-.05-.427.119-.63.144a.847.847,0,0,0-.159,0,1.1,1.1,0,0,0-.462.3,2.4,2.4,0,0,0-.531.025c-.179.06-.278.243-.551.194-.055-.06-.154-.084-.154-.184s.094-.129.129-.184a.888.888,0,0,0,.089-.288c0-.07-.035-.149-.035-.238S428.644,382.994,428.644,382.93Z" transform="translate(-327.253 -207.34)" fill="#f67409"/>
      <path id="Trazado_217432" data-name="Trazado 217432" d="M413.878,335.271c0-.05-.025-.114,0-.169s0-.04.025-.06,0-.079,0-.094.114,0,.144,0,0-.069,0-.129.089-.035.154-.07.05-.065.079-.07a1.126,1.126,0,0,1,.213.025,3.384,3.384,0,0,1,.5.069,1.078,1.078,0,0,1,.124.05c.1.035.238.045.372.084a2.76,2.76,0,0,0,.352.109.854.854,0,0,0,.357-.035c.074-.035.079-.089.179-.069s.089.04.139.05a1.141,1.141,0,0,0,.208.035c.089,0,.124-.05.218-.05l.273.025.179.05c.144.069.169.2.338.248a.5.5,0,0,0,.213-.03.566.566,0,0,1,.323-.03c.109.03.213.114.293.094s-.03-.074.03-.074.293.223.5.308c.1.04.308.065.293.149s-.1.025-.134.055,0,.045-.035.055-.184-.05-.208,0,.134.159.223.233a1.7,1.7,0,0,1,.139.139l.094.065c.06.05.084.119.179.159a.412.412,0,0,0,.328,0c.1-.045.144-.134.208-.2s.069-.03.094-.05a.352.352,0,0,1,.3-.1.308.308,0,0,1,0,.362c.069.069.223.119.208.2s-.045.05-.055.074.04.114.035.159-.074.114-.035.194.218.164.293.273v.174c0,.015.109.089.129.134s0,.045,0,.079.07.109.1.169.094.124.094.159-.089.065-.129.1-.05.119-.114.154a3.128,3.128,0,0,1-.347.089,1.212,1.212,0,0,1-.367.06h-.908c-.089,0-.233.094-.422.025a1.925,1.925,0,0,0-.313-.1c-.164-.035-.293-.025-.372-.055s-.134-.114-.208-.149-.159-.035-.283-.084a1.034,1.034,0,0,1-.134-.089c-.144-.084-.308-.154-.293-.243s.084-.04.094-.084-.06-.084-.079-.129.06-.074,0-.129a.094.094,0,0,1,.074-.055c-.065,0-.149-.04-.228-.045a1.081,1.081,0,0,1-.248-.025c-.084-.025,0-.065,0-.1a.532.532,0,0,0-.114-.223,1.985,1.985,0,0,0-.328-.218,5.46,5.46,0,0,0-.814-.263c-.07-.025-.134-.065-.2-.084a2.328,2.328,0,0,0-.645-.084,6.662,6.662,0,0,0-.665-.273,2.319,2.319,0,0,1-.73-.194c-.055-.055-.174-.124-.149-.174s.144,0,.194-.025a.353.353,0,0,0,.179-.1c0-.03,0-.094,0-.134S413.863,335.3,413.878,335.271Z" transform="translate(-319.685 -184.798)" fill="#f67409"/>
      <path id="Trazado_217433" data-name="Trazado 217433" d="M427.855,377.71c.05,0,.084-.05.129-.05s.194.089.308.07c.025.035,0,.065,0,.114.1.065.258.055.313.174-.074.094-.184.03-.278,0a.809.809,0,0,0-.268,0c-.089,0-.223-.094-.338-.114a.677.677,0,0,0-.2,0c-.065,0-.357-.144-.357-.233s.124-.119.243-.1S427.661,377.745,427.855,377.71Z" transform="translate(-326.609 -206.395)" fill="#f67409"/>
      <path id="Trazado_217434" data-name="Trazado 217434" d="M428.617,374.424c-.065-.025-.124,0-.149-.03a1.276,1.276,0,0,1-.07-.238c-.02-.07-.089-.109-.124-.2s-.079-.452.065-.5c.06,0,.119.04.159.03s.069-.154.134-.2.109,0,.164-.045a.4.4,0,0,0,.134-.139.72.72,0,0,1,.109-.179c.05-.04.1-.04.139-.079.114-.1.114-.243.2-.367s.194.1.2.184.124.079.159.154c-.05.179-.189.194-.159.452a.8.8,0,0,0,.05.174c.025.06.094.124.094.164s-.134.069-.164.154,0,.079,0,.194-.134.1-.164.2,0,.278-.074.372c-.055,0-.114.055-.184.05s-.144-.134-.258-.134-.1.035-.144.03S428.682,374.438,428.617,374.424Z" transform="translate(-327.152 -203.813)" fill="#f67409"/>
      <path id="Trazado_217435" data-name="Trazado 217435" d="M427.766,376c.213,0,.213.4,0,.4S427.547,376,427.766,376Z" transform="translate(-326.832 -205.608)" fill="#f67409"/>
      <path id="Trazado_217436" data-name="Trazado 217436" d="M425.638,374.462a.437.437,0,0,1,.119.2c0,.074-.089.07-.119.164s0,.318-.05.392-.1,0-.169,0a2.828,2.828,0,0,1-.4-.462,1.434,1.434,0,0,1-.134-.184c-.045-.1-.06-.208-.109-.3s-.124-.139-.169-.223-.035-.169-.074-.238-.094-.089-.134-.144a1.168,1.168,0,0,1-.07-.124c-.1-.154-.308-.233-.318-.457.045-.065.089,0,.169.04a1.237,1.237,0,0,1,.149,0c.079.03.129.174.213.253s.1.079.149.124a1.6,1.6,0,0,0,.129.154c.055.04.129.07.2.124s.273.154.293.308v.134c0,.03.065.074.1.124s.05.139.109.149S425.579,374.452,425.638,374.462Z" transform="translate(-325.022 -204.13)" fill="#f67409"/>
      <path id="Trazado_217437" data-name="Trazado 217437" d="M419.241,371.55c.069.025.313.382.243.581a.184.184,0,0,1-.189.114c-.164-.035-.134-.5-.079-.665A.03.03,0,0,1,419.241,371.55Z" transform="translate(-322.586 -203.367)" fill="#f67409"/>
      <path id="Trazado_217438" data-name="Trazado 217438" d="M407.909,381a.522.522,0,0,1,.109-.268c.079-.07.184-.06.263-.109a.65.65,0,0,0,.2-.189c.04-.06.045-.134.074-.184s.074-.04.1-.079,0-.1.06-.144c.114-.06.149.2.164.377a.783.783,0,0,1,.025.144c0,.084-.084.1-.1.154a2.084,2.084,0,0,1-.144.606c-.06.159-.089.333-.134.472,0,.05-.055.089-.069.134-.06.174-.084.447-.194.521a.7.7,0,0,1-.233.07.248.248,0,0,1-.218-.2v-.184a.993.993,0,0,1-.04-.248c0-.208.184-.308.194-.5S407.884,381.133,407.909,381Z" transform="translate(-316.843 -207.634)" fill="#f67409"/>
      <path id="Trazado_217439" data-name="Trazado 217439" d="M394.592,349.719c0,.169-.213.149-.243.3,0,.065.03.154,0,.213s-.1.074-.213.134-.1.134-.169.144-.084-.04-.124-.03-.035.094-.119.109-.174-.069-.184.03.1.1.169.094.089-.05.144-.05.164.089.223.089c.149,0,.288-.164.442-.144.065,0,.1.069.159.065s.149-.124.208-.164c0-.174,0-.4.134-.412s.228.189.243,0a.149.149,0,0,0-.124-.154c-.05,0-.114.119-.154,0s.089-.07.134-.089.065-.065.1-.084c.2-.084.5.084.551-.124-.174-.184-.5.07-.68.055a.283.283,0,0,1-.223-.184.877.877,0,0,1,0-.134c0-.065-.035-.134-.035-.174,0-.189.387-.223.387-.452a.273.273,0,0,0-.352,0c-.025.035-.025.1-.06.164-.074.139-.318.159-.4.328a.442.442,0,0,0-.03.2C394.413,349.59,394.587,349.615,394.592,349.719Zm-1.986,10.017a1.137,1.137,0,0,0-.66.164.769.769,0,0,1-.273.134,2.1,2.1,0,0,1-.238-.06,1.042,1.042,0,0,0-.328,0c-.094,0-.184.1-.268.114-.164,0-.318-.179-.422-.278s-.124-.109-.184-.164a2.023,2.023,0,0,1-.194-.154,1.037,1.037,0,0,1-.1-.318c-.04-.124-.164-.213-.258-.328s-.238-.218-.253-.328a.727.727,0,0,1,0-.184c0-.06-.06-.144-.06-.2s.089-.164.109-.238a.346.346,0,0,0,0-.144.8.8,0,0,0,.065-.318c0-.06-.045-.114-.05-.194s.03-.084.025-.134-.1-.1-.109-.2.079-.189.134-.308a.763.763,0,0,1,.218-.392c.035-.089.035-.154.06-.2s.094-.094.154-.174.065-.144.1-.174a1.039,1.039,0,0,1,.149-.07.73.73,0,0,0,.347-.382.5.5,0,0,1,.065-.347.69.69,0,0,1,.179-.268c.1-.069.2-.079.278-.213a.73.73,0,0,0,.089-.258.278.278,0,0,0-.159-.243c-.074,0-.194.069-.233-.03s0-.109,0-.144-.06-.114-.06-.164.079-.2.1-.308a1.489,1.489,0,0,0,0-.442c.119-.223.382-.114.64-.094a1.052,1.052,0,0,0,.124,0c.159,0,.278.065.328-.1a1.409,1.409,0,0,0,.03-.347.784.784,0,0,0-.179-.288c-.084-.065-.2-.04-.253-.154.04-.2.228-.035.338-.084s.05-.144.1-.164.079.045.129.045a.909.909,0,0,0,.223-.124c.055-.045.074-.139.119-.174s.074-.025.109-.045a.615.615,0,0,0,.208-.184c.07-.1.1-.228.189-.243s.367.025.382-.124-.1-.258-.055-.412.124-.1.248-.174c.065.055.045.208.055.3.074,0,.233-.025.248-.114s-.114-.208-.139-.273-.04-.194-.1-.208-.253.218-.412.218a.293.293,0,0,1-.243-.194.9.9,0,0,1,0-.164.74.74,0,0,1-.035-.288c.065-.134.213-.159.318-.228s.074-.079.119-.1.184,0,.258-.055.035-.084.069-.154.069-.065.1-.109.025-.084.045-.114c.07-.109.2-.154.258-.268s-.04-.069-.025-.144.134,0,.194-.03.159-.139.253-.164a1.771,1.771,0,0,0,.283-.05c.055-.025.1-.084.154-.094a.453.453,0,0,0,.089,0,.16.16,0,0,0,.109-.03c.04-.03.139,0,.218,0a.935.935,0,0,1,.372,0c.114.05.05.114.124.144s.089,0,.144,0,.169.079.278.094h.114a1.558,1.558,0,0,1,.372.144c.1.04.308.089.313.2s-.184.174-.263.174-.308-.094-.447-.04a.372.372,0,0,0,.4.377c0-.109-.1-.05-.094-.154.084-.074.184.055.3.03s.04-.094.05-.149c.1-.074.228-.184.382-.1a.049.049,0,0,1,.03-.04c0-.114-.1-.174-.04-.278a.122.122,0,0,1,.208,0c.025.05-.04.06-.035.124a.129.129,0,0,0,.134.089c.084,0,.1-.094.179-.144s.079,0,.119-.04a.291.291,0,0,1,.124-.079.4.4,0,0,1,.109,0c.04,0,.1-.065.144-.065s.084.074.149.084a.151.151,0,0,0,.129-.03.869.869,0,0,1,.114,0c.084,0,.139-.07.2-.065s.129.079.159.04-.069-.114-.035-.174a1.785,1.785,0,0,1,.4.03,3.828,3.828,0,0,0,.546.154c0-.139-.149-.1-.208-.164a.606.606,0,0,1-.094-.213,1.1,1.1,0,0,1,.119-.243.283.283,0,0,1,.387.03c.045.079.03.194.1.194s.089-.179.159-.184.084.114.144.114.119-.164.208-.169.065.035.144.045,0-.1,0-.154.308,0,.427-.074c.035-.05-.045-.079,0-.134a1.106,1.106,0,0,1,.457-.129c.1-.025.208-.114.293-.124s.174.065.253.06a.417.417,0,0,0,.149-.04c.05-.025.079-.079.129-.094a1.366,1.366,0,0,1,.248,0,1.25,1.25,0,0,1,.238-.04c.06,0,.109.094.169.1.174.035.357-.035.5,0,.03,0,.06.045.094.06a.241.241,0,0,1,.2.2c.084.035.134.129.233.164s.134,0,.208,0a1.566,1.566,0,0,1,.313.025c.05,0,.089.05.134.06h.119a.824.824,0,0,0,.144.03c.084,0,.154-.1.223-.114a.588.588,0,0,1,.129.025,2.838,2.838,0,0,1,.417,0,.736.736,0,0,1,.238.164c.05.045.079.119.124.154a.417.417,0,0,0,.2.079c.05,0,.055-.084.109-.109.164-.05.462.065.6,0,.05,0,.04-.094.084-.129a7.239,7.239,0,0,1,.74,0,.992.992,0,0,1,.243,0c.084,0,.144.119.223.154s.154,0,.238.03.1.055.144.06a.894.894,0,0,0,.258,0,1.246,1.246,0,0,1,.63.06c.1.05.144.154.253.164s.392,0,.556,0a.965.965,0,0,0,.1.025c.055,0,.084-.06.149-.065s.218.159.338.134-.04-.1,0-.144.109,0,.184,0h.124c.035,0,.184.109.3.144a.88.88,0,0,0,.328,0,.709.709,0,0,1,.223-.03c.04,0,.07.04.109.05a.365.365,0,0,0,.1,0c.03,0,.055.045.079.055.159.055.367.079.531.139a1.027,1.027,0,0,0,.278.114h.124c.258,0,.556.129.531.422-.3.079-.546-.253-.859-.154a.154.154,0,0,0-.1.144c0,.179.382.164.412.338-.06.055-.129,0-.179,0a.561.561,0,0,0-.248.164c-.06.065-.109.228-.169.243s-.189-.089-.3-.06-.079.074-.119.079-.208-.06-.268.074c.03.094,0,.223.074.278s.094,0,.144.03.089.114.144.164.084.04.109.089-.025.084,0,.134.124.109.129.164-.069.06-.084.134.045.06.05.124-.03.084,0,.134a.266.266,0,0,1,.04.174.169.169,0,0,1-.074.114c-.159-.129-.3-.3-.5-.462a1.147,1.147,0,0,1-.5-.72c0-.055.089-.094.109-.174s0-.079,0-.124c0-.119.084-.233.084-.308a.417.417,0,0,0-.184-.243c-.05.03,0,.094,0,.144a.2.2,0,0,1-.129.144c-.159,0-.174-.253-.427-.174a.268.268,0,0,0-.134.283c0,.045.109.094.1.154s-.228.079-.278.074c-.134,0-.2-.139-.323-.134s-.114.06-.164.069c-.263.06-.655-.159-.745.124v.134c0,.04-.055.1-.065.144a.548.548,0,0,1-.025.144c-.025.05-.174.218-.035.263h.094c.045,0,.189.154.273.154s.124-.07.164-.07a.579.579,0,0,1,.189.089c.055.035.144.109.189.1s.04-.069.114-.1c.149.055.213.243.352.392.055.055.129.1.194.174s.159.154.164.2-.035.069-.045.114a.8.8,0,0,0,0,.154c-.134-.06-.164-.223-.263-.357a1.98,1.98,0,0,0-.124-.184c-.025-.035-.114-.149-.169-.124s.06.243.084.288a.77.77,0,0,1,.134.308c0,.06-.035.169-.035.273v.194a1.113,1.113,0,0,1-.06.2.818.818,0,0,1-.04.213c-.015.05-.144.2-.218.2s-.1-.065-.169-.06-.124.124-.184.213.03.139,0,.208-.149.124-.144.233.114.119.169.164a1.551,1.551,0,0,1,.278.308.665.665,0,0,1,.109.288c0,.1-.248.243-.348.2s-.06-.144-.079-.243-.069-.114-.094-.179,0-.084,0-.119-.139-.05-.243-.114-.05-.134-.074-.213a.263.263,0,0,0-.353-.119c-.089,0-.119.114-.2.134-.119-.089.025-.313-.124-.328s-.194.2-.263.263-.129.055-.134.114.1.089.189.134.084.149.159.154.1-.079.159-.084a.362.362,0,0,1,.253.094c-.045.124-.268.213-.268.377s.089.114.159.174a3.447,3.447,0,0,1,.218.308c.084.1.094.074.109.1s.03.149.074.194,0,.069,0,.124.109.06.134.134c0,.174.04.342-.079.407a1.275,1.275,0,0,1-.293.74,1.6,1.6,0,0,1-.561.278c-.05,0-.089.079-.134.1s-.313,0-.323.184c0,.084.089.134.094.218s-.084.258-.149.263a.154.154,0,0,1-.164-.144c0-.119.124-.169.134-.243a.218.218,0,0,0-.218-.248.66.66,0,0,0-.367.432,1.021,1.021,0,0,0,.243.412,1.087,1.087,0,0,1,.447,1.023c-.06.159-.208.189-.328.278s-.134.268-.288.288c-.06-.03-.025-.144-.04-.2s-.144-.109-.218-.184-.089-.159-.134-.213-.149-.084-.218-.134-.084-.134-.129-.134-.045.089-.065.238-.1.248-.079.417c0,.069.084.124.119.194a2.163,2.163,0,0,0,.129.323c.035.04.1.05.149.089a1.225,1.225,0,0,1,.278.337c.035.109,0,.238.025.348s.169.228.084.362a.72.72,0,0,1-.218-.134.8.8,0,0,1-.243-.308,1.081,1.081,0,0,1-.069-.124c-.03-.089,0-.194-.05-.308a1.023,1.023,0,0,0-.184-.328c-.06-.069-.164-.109-.169-.2s.04-.3.035-.462a.208.208,0,0,0-.025-.114.794.794,0,0,1,0-.243c0-.069-.055-.124-.074-.184s-.045-.119-.07-.2-.069-.347-.149-.357-.169.194-.278.194a.159.159,0,0,1-.144-.119c0-.065.03-.129.025-.2a.8.8,0,0,0-.144-.283c-.065-.094-.03-.094-.05-.124s-.109-.089-.159-.144a1.146,1.146,0,0,1-.119-.184c-.03-.079-.04-.184-.089-.2s-.1.074-.154.094a.9.9,0,0,1-.223.05c-.169,0-.308-.04-.288.208-.025.109-.119.109-.184.164a2.613,2.613,0,0,0-.228.308c-.04.05-.1.084-.144.129s-.04.109-.074.144-.223.114-.283.258.065.3.05.462c0,.074-.055.139-.06.213s0,.134,0,.2-.045.06-.07.1-.03.094-.05.124-.074.074-.1.114-.055.1-.094.109c-.184.035-.228-.392-.313-.571-.035-.084-.114-.159-.149-.258a3.744,3.744,0,0,0-.119-.387,3.434,3.434,0,0,1-.174-.308c-.03-.1-.055-.223-.084-.333a2.086,2.086,0,0,1-.065-.347c0-.129,0-.213-.069-.263s-.119.119-.208.119-.333-.189-.263-.357c-.055-.1-.2-.159-.318-.278s-.124-.228-.233-.243a.351.351,0,0,0-.1,0h-.278a1.326,1.326,0,0,1-.352,0l-.268-.04a.551.551,0,0,1-.308-.114c-.04-.04-.055-.174-.119-.194s-.119.05-.194.07a.422.422,0,0,1-.387-.119c-.074-.06-.139-.094-.194-.134s-.149-.417-.342-.422a.184.184,0,0,0-.184.144.5.5,0,0,0,.089.238c.094.159.268.218.323.437.035,0,.1-.035.139,0s0,.268.074.308c.352.069.452-.164.606-.328.094.074.065.139.094.218a.318.318,0,0,0,.144.174.351.351,0,0,1,.159.03.71.71,0,0,1,.208.278,1.068,1.068,0,0,1-.144.318c-.03.05-.084.074-.1.119a.4.4,0,0,0,0,.134c0,.02-.094.094-.134.144a1.7,1.7,0,0,1-.144.134c-.055.05-.084.119-.144.144a1.041,1.041,0,0,0-.308.1c-.089.07-.065.159-.139.218s-.2.06-.318.124-.114.114-.174.139-.06,0-.084,0-.109.065-.164.079a.345.345,0,0,1-.124,0c-.129.045-.248.208-.377.114a5.451,5.451,0,0,0-.144-.546c-.035-.074-.109-.1-.134-.184s.065-.045.07-.1-.109-.164-.164-.258-.035-.109-.065-.164c-.1-.179-.3-.268-.338-.5v-.154a.654.654,0,0,0-.1-.213c-.03-.045-.094-.079-.134-.144a.673.673,0,0,1-.05-.154,1.663,1.663,0,0,0-.338-.5c-.07,0-.139,0-.174.069a1.54,1.54,0,0,0,.144.357,2.284,2.284,0,0,1,.159.333.285.285,0,0,0,.025.139c.05.164.218.213.253.4s0,.213.025.338.174.194.233.308a2.739,2.739,0,0,1,.084.318c.05.129.189.189.293.278a3.136,3.136,0,0,1,.238.283c.045.05.1.06.114.114s-.025.094-.035.154.129.233.238.248.1-.05.169-.065a.2.2,0,0,1,.1,0c.03,0,.084-.06.134-.069a2.322,2.322,0,0,1,.293-.03c.1,0,.174-.124.253-.094.089.114.025.248,0,.357a1.032,1.032,0,0,0,0,.114c-.045.184-.164.318-.218.5a.281.281,0,0,1-.035.164,2.208,2.208,0,0,1-.293.462,2.446,2.446,0,0,1-.169.2c-.06.06-.134.094-.2.154a2.035,2.035,0,0,0-.367.452c-.04.06-.055.134-.094.184a2.132,2.132,0,0,0-.184.184,2.5,2.5,0,0,0-.1.268c-.05.119-.144.2-.129.357,0,.065.055.1.069.164a.858.858,0,0,1,0,.318,1.187,1.187,0,0,0,.169.392c0,.2,0,.407,0,.581a.675.675,0,0,1,0,.3.938.938,0,0,1-.228.308c-.079.065-.2.079-.288.154a2.26,2.26,0,0,0-.164.2c-.06.06-.238.2-.248.3a.811.811,0,0,0,.055.208,1.067,1.067,0,0,1,0,.531c-.06.179-.367.139-.4.328v.164a1.491,1.491,0,0,1-.084.3c-.035.084-.119.124-.174.194s-.1.223-.179.318a2.848,2.848,0,0,1-.357.377.953.953,0,0,1-.5.218,2.314,2.314,0,0,0-.323,0c-.04,0-.079.05-.134.06h-.094c-.05,0-.1.065-.149.06a.434.434,0,0,1-.253-.318c0-.06.045-.114.045-.174s-.07-.144-.119-.263-.07-.248-.119-.338-.119-.149-.159-.228a1.8,1.8,0,0,1-.109-.531,1.85,1.85,0,0,1-.05-.208,2.375,2.375,0,0,0,0-.273.9.9,0,0,0-.1-.194c-.06-.134-.1-.308-.149-.412a.943.943,0,0,1-.154-.308,2.8,2.8,0,0,1,0-.288c0-.07.055-.129.069-.2a.6.6,0,0,0,0-.164c.04-.233.253-.318.223-.606,0-.119-.079-.179-.089-.318v-.184a1.153,1.153,0,0,0-.094-.3,2.585,2.585,0,0,0-.258-.606c-.069-.089-.154-.159-.213-.243a.7.7,0,0,1-.1-.258c0-.06.04-.094.05-.154a1.429,1.429,0,0,1,.045-.338,1.031,1.031,0,0,0,.05-.278.407.407,0,0,0-.2-.273c-.114-.035-.238.045-.387.03-.079-.045-.07-.3-.253-.338Zm4.641,3.668c.04-.074.089-.283,0-.338h0c-.06.084-.119.293-.01.338Zm-.114-2.139c.025-.07.094-.144.084-.233-.025-.2-.328-.1-.362.04a.657.657,0,0,0,0,.263c0,.094.119.094.223.084s.02-.094.05-.154Zm-.5,1.052c.03-.074-.055-.124-.07-.208s0-.2-.05-.253h-.025C396.4,362.029,396.493,362.317,396.632,362.317Zm5.728-10.176c-.035-.079-.124.025-.084.094s.055-.035.065-.089Zm-1.961.422c.139-.035,0-.3-.1-.268s-.01.293.079.273Zm-.64,1.315c.045-.357-.184-.382-.223-.635v-.03s.139.05.164-.035a.169.169,0,0,0-.248-.149.283.283,0,0,1-.055-.169c-.094-.065-.328-.218-.328-.357s.124-.179.263-.174c.06-.055,0-.218-.035-.253a.437.437,0,0,0-.472.1c-.065.06-.139.1-.174.134a.273.273,0,0,0-.074.164c0,.065.079.1.109.184s0,.1.025.134.129.164.2.248.194.184.194.253-.04.074-.06.134a1.169,1.169,0,0,0-.025.258c0,.109.114.114.2.164s.169.129.258.129A.3.3,0,0,0,399.759,353.879Zm-1.986-.74c.228-.05.124-.283,0-.367s-.194-.119-.293-.194-.283-.129-.288-.218.169-.124.1-.3c-.114-.03-.392,0-.372.179s.1.04.119.129c-.084.04-.184.129-.268.114s-.129-.174-.184-.268c-.084,0-.134-.094-.228-.079s-.154.189-.2.278-.069.069-.084.109,0,.069,0,.1c-.03.114-.109.154-.1.258s.089.129.094.2-.109.035-.1.134c.149.149.159-.074.233-.1a.751.751,0,0,1,.258,0c.074,0,.114-.089.189-.124a.5.5,0,0,1,.159-.04c.268,0,.437.2.67.2a1.168,1.168,0,0,0,.308-.01Zm-.526,1.236c0-.109-.035-.194-.04-.347-.159-.114-.273.1-.432.079s-.164-.154-.268-.134-.084.1-.144.114-.174-.119-.3-.06a1.2,1.2,0,0,1-.3-.75c-.1-.159-.248-.03-.323.069-.045,0-.1-.03-.109.035-.03.189.223.208.218.338s-.1.074-.144.129,0,.119-.074.154c-.164,0-.218-.084-.218-.263s-.159-.228-.223-.338a.5.5,0,0,1-.07-.164v-.164c0-.055-.169-.174-.263-.228a1.227,1.227,0,0,1-.293-.184c-.05-.05-.074-.139-.119-.174s-.084-.025-.114-.05-.04-.1-.1-.124-.079.04-.1.069c-.04.223.109.238.179.338a1.757,1.757,0,0,0,.114.218c.05.045.119.04.184.07s.074.094.119.124.208.069.218.184-.164-.06-.2.04.04.1.04.164-.094.213-.179.2c0-.06.045-.109.045-.174a1.007,1.007,0,0,0-.328-.392c-.109-.06-.114-.03-.159-.06a1.341,1.341,0,0,1-.278-.278c-.06-.094-.114-.278-.243-.268s-.1.065-.144.094l-.124.079a.313.313,0,0,1-.134.084c-.109,0-.2-.094-.288-.07s-.055.04-.094.079,0,.1,0,.164-.109.055-.169.094a1.278,1.278,0,0,0-.233.253c-.045.055-.089.1-.094.144s.025.1,0,.144a.5.5,0,0,1-.134.194c-.03.025-.07.03-.1.055s-.094.109-.149.119c-.149.035-.417-.035-.412.154s.139.129.228.124a2.017,2.017,0,0,0,.283,0c.045,0,.094-.074.144-.1s.06,0,.084-.035a.386.386,0,0,1,.119-.1.814.814,0,0,1,.3-.084h.382c.05,0,.1-.045.159-.05s.208.045.283.04.109-.065.169-.06a.179.179,0,0,1,.154.109v.124c0,.045.06.1.06.154s-.139.149-.119.228.1.1.154.129a.432.432,0,0,0,.184.094h.134a.591.591,0,0,1,.233.1c.079.065.07.174.159.213s.109,0,.164,0,.208.154.3.144.079-.184.094-.3c.035-.263.457-.248.536-.069a.429.429,0,0,1,.189.03c.07.03.07.069.109.079a.4.4,0,0,0,.109,0c.159,0,.3.169.442.144s.154-.114.238-.124c.159,0,.263.149.437.074s.1-.218.144-.382a1.723,1.723,0,0,0,.119-.253Zm9.059-3.475a.437.437,0,0,0-.084-.347c-.1,0-.03.144-.035.213s-.1.174-.094.278-.084.065-.089.144.074-.035.114-.084.164-.149.189-.238Zm-2.2-3.554c-.089,0-.124.045-.184.079s-.094.035-.074.094c.079-.05.233-.094.258-.208Zm-3.544,1.261c.2.055.288-.218.159-.372-.03-.035-.134-.05-.174-.134s-.045-.233-.169-.2v.03c0,.223.258.283.253.462-.025.06-.094.069-.069.184Z" transform="translate(-307.577 -190.932)" fill="#f67409"/>
      <path id="Trazado_217440" data-name="Trazado 217440" d="M406.34,349.442c0-.109.149-.094.119,0a.079.079,0,0,1-.119,0Z" transform="translate(-316.123 -192.195)" fill="#f67409"/>
      <path id="Trazado_217441" data-name="Trazado 217441" d="M404.26,361.777c0-.084.164-.114.194-.04S404.295,361.876,404.26,361.777Z" transform="translate(-315.076 -198.403)" fill="#f67409"/>
      <path id="Trazado_217442" data-name="Trazado 217442" d="M398.45,360.7c.089-.084.283-.03.407-.03a.331.331,0,0,1-.079.223A.437.437,0,0,1,398.45,360.7Z" transform="translate(-312.15 -197.88)" fill="#f67409"/>
      <path id="Trazado_217443" data-name="Trazado 217443" d="M397.21,359.585c.114-.149.238-.07.194.213-.03.084-.149.2-.2.069A1.313,1.313,0,0,0,397.21,359.585Z" transform="translate(-311.52 -197.304)" fill="#f67409"/>
      <path id="Trazado_217444" data-name="Trazado 217444" d="M397.447,358.969a.149.149,0,0,1-.06.154C397.278,359.1,397.363,358.855,397.447,358.969Z" transform="translate(-311.588 -197.016)" fill="#f67409"/>
      <path id="Trazado_217445" data-name="Trazado 217445" d="M393.925,353.867a.189.189,0,0,0-.074-.169.136.136,0,0,1-.1-.03,1.427,1.427,0,0,0-.159-.194,1.2,1.2,0,0,1,0-.268.521.521,0,0,1,.184-.194c.074-.03.149,0,.194-.07a.035.035,0,0,1,.04,0c0,.065-.045.074-.05.134s.144.035.159.119-.079.114-.084.189.1.174.154.253.1.1.134.164.035.119.06.144.144.06.149.134-.1.134-.084.243c-.114.114-.308.055-.5.084-.084,0-.179.114-.268.03s.074-.079.084-.144-.069-.05-.084-.1.1-.1.094-.218S393.915,353.961,393.925,353.867Z" transform="translate(-309.699 -193.993)" fill="#f67409"/>
      <path id="Trazado_217446" data-name="Trazado 217446" d="M392.663,354.274c.109-.084.308,0,.318.079s-.06.089-.084.179,0,.169-.025.223-.094.045-.144.06-.308.194-.4,0c0-.089.084-.1.109-.184s-.05-.089-.04-.154.06-.05.124-.079S392.6,354.324,392.663,354.274Z" transform="translate(-309.067 -194.649)" fill="#f67409"/>
      <path id="Trazado_217447" data-name="Trazado 217447" d="M381.2,349.775c0,.089-.223.208-.248.094S381.132,349.656,381.2,349.775Z" transform="translate(-303.334 -192.373)" fill="#f67409"/>
      <path id="Trazado_217448" data-name="Trazado 217448" d="M380.759,396.345h-.129a.149.149,0,0,1,.129,0Z" transform="translate(-303.175 -215.847)" fill="#f67409"/>
      <path id="Trazado_217449" data-name="Trazado 217449" d="M380.12,348.359a.04.04,0,0,1,.055,0,.041.041,0,0,1-.055.04Z" transform="translate(-302.918 -191.682)" fill="#f67409"/>
      <path id="Trazado_217450" data-name="Trazado 217450" d="M378.432,351.591c0,.055-.169.149-.184.04a.089.089,0,0,1,.03-.084C378.323,351.516,378.432,351.536,378.432,351.591Z" transform="translate(-301.975 -193.285)" fill="#f67409"/>
      <path id="Trazado_217451" data-name="Trazado 217451" d="M371.525,370.784v.045C371.415,370.824,371.5,370.685,371.525,370.784Z" transform="translate(-298.562 -202.963)" fill="#f67409"/>
      <path id="Trazado_217452" data-name="Trazado 217452" d="M364.709,356.381c.06-.04.114.065.074.114S364.7,356.421,364.709,356.381Z" transform="translate(-295.156 -195.723)" fill="#f67409"/>
      <path id="Trazado_217453" data-name="Trazado 217453" d="M370.554,352.436a.935.935,0,0,0-.139,0l-.134-.03a.439.439,0,0,1-.278-.055,3.223,3.223,0,0,1,.362-.462c.035-.04.119-.069.1-.154s-.159,0-.228.055a.789.789,0,0,1-.233.134c-.139.025-.323-.055-.437.04,0,.074.129.045.109.164a.159.159,0,0,1-.154-.03c-.04-.045,0-.109-.04-.134a.427.427,0,0,0-.278-.04.2.2,0,0,0-.179.174c.109.06.283-.065.323.089-.06.129-.2.2-.179.367a.238.238,0,0,0,.119.169c.045,0,.074-.05.119-.045s.035.074.089.065.129-.184.218-.174c.114.164-.1.243-.218.293s-.308.094-.412.144-.253.268-.283.084.1-.094.124-.2c-.129-.035-.248.065-.367.119s-.457.129-.5.362v.164c0,.035-.139.025-.194.05s-.149.1-.2.124a.658.658,0,0,0-.119,0c-.069.03-.094.139-.169.213s-.1.055-.124.084-.05.184-.129.2-.089-.045-.134,0a1.49,1.49,0,0,1,0,.442,2.168,2.168,0,0,1-.333.253c-.069.05-.134.06-.218.114s-.119.124-.184.174a.645.645,0,0,0-.357.541c0,.065.03.134.035.208a1.181,1.181,0,0,1,0,.134c0,.05.074.243,0,.318-.114-.06-.258-.079-.338-.179s.045-.184.035-.273a.323.323,0,0,0-.144-.218c-.05,0-.094.06-.149.055s-.119-.114-.2-.124a1.478,1.478,0,0,1-.333,0c-.129.084-.164.228-.323.213-.055,0-.1-.055-.164-.07a.705.705,0,0,0-.248-.04c-.139,0-.243.134-.367.213s-.263.154-.293.3,0,.184-.025.253a1.14,1.14,0,0,1-.07.134,1.211,1.211,0,0,0-.1.789,1.843,1.843,0,0,0,.144.347.4.4,0,0,0,.243.144.7.7,0,0,0,.194-.05,1.541,1.541,0,0,0,.218-.04c.179-.074.144-.372.328-.472a.71.71,0,0,1,.308-.065.278.278,0,0,1,.06.2c0,.05-.045.1-.065.174s0,.139-.045.194a.553.553,0,0,0-.1.184.3.3,0,0,0,0,.134c0,.04-.089.114-.055.184.179.089.4-.025.551,0a.288.288,0,0,1,.2.238c0,.089-.06.154-.07.253s-.055.288-.06.392.208.462.357.457.253-.194.442-.089c.065.035.134.159.2.154s.144-.129.184-.213.05-.194.134-.248.164-.03.278-.084a.625.625,0,0,0,.144-.1c.04-.035.084-.124.134-.065s-.084.129-.025.218.174-.139.258-.144a.5.5,0,0,1,.169.1c.065.05.089.124.159.139a.8.8,0,0,0,.189,0c.065,0,.134.1.2.1s.119-.109.184-.124c.149-.03.2,0,.273.134.07,0,.074-.1.139-.06-.035.089,0,.129.045.2s0,.079.035.1.114.045.174.089a1.143,1.143,0,0,1,.169.238.5.5,0,0,0,.293.213c.094,0,.169-.03.243,0a.754.754,0,0,1,.407.243c.065.065.129.109.149.189a.567.567,0,0,1,0,.184c0,.06.189.189.134.407,0,.065.084.089.144.134s.089.114.144.124a.32.32,0,0,0,.1,0,.843.843,0,0,1,.243.089.9.9,0,0,1,.154.065c.04.035.045.154.1.184s.109,0,.169,0,.213.079.293.084.089-.025.134-.025c.2,0,.323.323.521.412.06.03.159,0,.2.03a1.077,1.077,0,0,1,.139.442c0,.372-.213.5-.352.74-.025.05-.045.129-.084.2a.633.633,0,0,0-.159.442c0,.069.035.144.035.223a1.647,1.647,0,0,1-.025.318c0,.069-.06.124-.069.184a.9.9,0,0,0,0,.164.9.9,0,0,1-.094.228c-.074.174-.094.377-.248.447s-.218,0-.323.065-.089.065-.139.089c-.149.084-.357.2-.4.382s.05.293,0,.5a1.668,1.668,0,0,1-.1.174c-.04.06-.055.124-.094.184s-.129.109-.159.213,0,.079,0,.134-.04.055-.055.094a.7.7,0,0,1-.025.109c-.035.094-.149.313-.233.343-.174.06-.357-.094-.5-.065,0,.1.074.094.114.164a.952.952,0,0,0,.07.144c.035.055.069.074.074.134a.4.4,0,0,1-.124.3.665.665,0,0,1-.248.079c-.06,0-.218,0-.248.065a1.134,1.134,0,0,0,0,.318c-.065.149-.233,0-.318.04a.213.213,0,0,0,.065.194c.055.04.134,0,.169.065s-.1.114-.124.213.025.124,0,.184-.189.124-.184.268.328.124.338.328c0,.124-.094.124-.129.243s0,.079,0,.134-.084.094-.084.174.119.208.179.288a.993.993,0,0,0,.208.248c.119.079.293.06.347.2,0,.084-.084.109-.154.134h0a.149.149,0,0,0-.129,0h-.114c-.114-.065-.253-.1-.387-.164-.05,0-.109-.074-.159-.1s-.089-.03-.119-.05-.154-.2-.228-.258-.114-.055-.144-.094-.04-.109-.065-.149-.079-.084-.109-.134a.993.993,0,0,1-.159-.347c0-.084.065-.139.04-.218s-.149-.055-.169-.144.04-.139.035-.213-.069-.1-.04-.164.084,0,.134-.03c-.035-.149,0-.387-.119-.432-.06.065.065.208-.04.248-.1-.06-.079-.218-.1-.342a1.774,1.774,0,0,1-.05-.233,1.4,1.4,0,0,0,0-.144c0-.139-.144-.248-.154-.387a1.608,1.608,0,0,1,.045-.2v-.154c0-.055.035-.124.04-.184a2.08,2.08,0,0,0,0-.4,3.554,3.554,0,0,1-.109-.347v-.189c0-.065-.03-.109-.035-.174a1.3,1.3,0,0,1,0-.184v-.5c0-.035-.03-.213-.035-.318a4.373,4.373,0,0,0,0-.5,2.146,2.146,0,0,0-.084-.432,1.186,1.186,0,0,0-.313-.318c-.06-.04-.129-.055-.194-.089s-.4-.258-.462-.422a.289.289,0,0,0-.035-.164,2.27,2.27,0,0,0-.169-.3c-.1-.194-.184-.437-.293-.635a3.342,3.342,0,0,0-.159-.3c-.035-.045-.144-.089-.159-.164a1.585,1.585,0,0,1-.069-.3c0-.094.169-.174.169-.263s-.084-.119-.1-.184a.531.531,0,0,1,.074-.382.5.5,0,0,1,.05-.144c.015-.035.094-.069.134-.134s.04-.1.07-.154.169-.139.194-.233a2.48,2.48,0,0,0,0-.586c0-.07-.074-.134-.094-.2s-.045-.258-.149-.258-.114.089-.154.144,0,.154-.07.174-.129-.119-.243-.164-.114,0-.139-.03a1.021,1.021,0,0,0-.194-.243c-.084-.055-.134-.035-.179-.1a.906.906,0,0,1,0-.2c-.094-.07-.174-.313-.278-.372s-.184-.035-.273-.069a.8.8,0,0,0-.114-.05.5.5,0,0,1-.154-.045c-.164-.1-.253-.427-.462-.417-.084,0-.169.1-.253.1a.908.908,0,0,1-.308-.129c-.1-.06-.218-.094-.3-.144s-.119-.124-.179-.154-.109-.03-.149-.055a1.429,1.429,0,0,1-.164-.2.362.362,0,0,1-.134-.2c0-.079.06-.149.069-.223a.913.913,0,0,0-.218-.566c-.07-.1-.149-.2-.218-.3a.649.649,0,0,0,0-.139,1.81,1.81,0,0,1-.154-.248c-.05-.084-.144-.174-.159-.268s.035-.213,0-.328-.268-.1-.243.144a1.586,1.586,0,0,0,.109.228c.025.065,0,.149.045.233a1.139,1.139,0,0,1,.109.238c.025.089.035.288.065.377s.134.149.074.243-.109-.074-.159-.129-.124-.094-.144-.164.035-.144,0-.218-.268-.149-.268-.3.1-.1.1-.194-.109-.184-.134-.268a1.7,1.7,0,0,1-.035-.3,1.811,1.811,0,0,0,0-.3.5.5,0,0,0-.159-.208c-.074-.05-.134-.03-.169-.1a.839.839,0,0,1-.06-.268c0-.124,0-.258,0-.387a2.716,2.716,0,0,1,0-.4c.045-.1.119-.149.159-.243s.035-.154.07-.228a2.845,2.845,0,0,1,.283-.387,1.747,1.747,0,0,0,.243-.442.645.645,0,0,0,.069-.258c0-.1-.164-.179-.149-.293s.089-.074.114-.144a.783.783,0,0,0,0-.189,2.88,2.88,0,0,1,0-.3c0-.094.124-.129.07-.228s-.159.055-.218,0,0-.129,0-.233V350.7c0-.03.079-.124.06-.154s-.1-.248-.194-.308-.258-.025-.432-.06-.154-.144-.248-.134-.094.089-.179.134a1.693,1.693,0,0,1-.268.05c-.079,0-.119.089-.2.079s-.07-.079-.149-.089a1.064,1.064,0,0,0-.144.03,1.668,1.668,0,0,1-.5,0,1.281,1.281,0,0,1-.328-.154c-.1-.055-.283-.124-.278-.213s.179-.119.243-.144a1.054,1.054,0,0,1,.263-.114.658.658,0,0,0,.119,0c.04,0,.094-.05.149-.06s.283,0,.268-.134-.452.065-.462-.124.139-.144.243-.174a1.389,1.389,0,0,1,.328-.06c.1,0,.223.134.278,0a.566.566,0,0,0-.05-.278c.069-.119.2-.1.3-.124a.956.956,0,0,0,.318-.1,1.132,1.132,0,0,1,.318-.1,2.328,2.328,0,0,0,.333-.084,1.972,1.972,0,0,0,.243,0,.824.824,0,0,1,.223-.06c.055,0,.1.05.154.06a.848.848,0,0,0,.159,0c.055,0,.074.045.119.055a1.258,1.258,0,0,0,.194,0c.065,0,.1.05.159.06h.4c.124,0,.089.04.144.05a.745.745,0,0,0,.149,0c.05,0,.124.094.194.1a2.507,2.507,0,0,0,.412-.079,1.586,1.586,0,0,0,.3-.025,2.145,2.145,0,0,1,.268-.069,1.13,1.13,0,0,0,.124,0c.045,0,.1-.07.144-.06s.055.109.119.134a.7.7,0,0,0,.228,0,.883.883,0,0,1,.233-.035c.154.03.367.213.5.114.03-.025.025-.069.05-.134a.547.547,0,0,0,.094-.318c-.169,0-.328.1-.5.114-.194-.149.05-.238.194-.308s.208-.179.352-.2a1.378,1.378,0,0,1,.387.05h.208c.045,0,.124.129.194.154h.119c.074,0,.144.07.218,0,.06,0,.065.089.124.1s.1-.129.184-.154a.946.946,0,0,1,.119,0c.069,0,.159-.129.2,0s-.109.084-.159.144a.378.378,0,0,0-.109.223c0,.1.129.06.134.184s-.089.04-.144.074-.069.089-.124.1c-.154.035-.283-.045-.412-.04,0,.07.065.109.1.134a.606.606,0,0,0,.387.06c.084,0,.184.035.258-.03s.045-.124.084-.174a.308.308,0,0,1,.228-.1.134.134,0,0,1,.089.1c0,.094-.1.065-.109.164.074.055.263-.055.273-.144s-.065-.1-.06-.164.124-.1.109-.213-.119,0-.179,0-.154-.139-.194-.218c.04-.055.114,0,.169,0a.417.417,0,0,1,.338-.164c.055,0,.129-.035.159.03s-.119.159-.094.268c.114.035.154-.149.243-.223a.991.991,0,0,1,.164-.084c.05-.025.109-.084.149-.079s.055.045.1.069.1,0,.109.05c-.094.208-.457.089-.551.3,0,.144-.06.278,0,.372s.154,0,.179.089-.1.094-.069.208.2-.065.278-.114.2-.119.213-.248-.213,0-.238-.134a.392.392,0,0,1,.07-.213.849.849,0,0,1,.611-.268c.045,0,.084.04.129.045.144,0,.313-.079.427,0,.089-.065.2,0,.328,0,.1.069.07.218.218.283a.326.326,0,0,1,.144.025c.055.025.079.065.124.089s.114.03.129.084-.05.084-.045.144a.316.316,0,0,0,.025.139c.025.05.129.089.218.134s.2.129.194.208-.129.139-.169.164-.169.1-.218.089-.109-.208-.218-.2-.089.035-.089.114.119.139.124.253-.065.149-.159.238a.621.621,0,0,0-.218-.094c-.055.079.089.1.04.2-.134.035-.238-.045-.357-.089a.992.992,0,0,1-.129-.03c-.045-.035-.06-.134-.1-.189s-.139-.144-.213-.139-.253.154-.333,0c.055-.238.328-.065.5-.144.069-.03.089-.119.144-.154s.288-.089.268-.238c0-.074-.094-.074-.139-.109s-.119-.238-.213-.248-.084.045-.134.05-.228-.05-.328,0,0,.084-.05.144-.1.065-.124.114-.03.129-.069.174a1.513,1.513,0,0,1-.3.124c-.089.04-.089.07-.124.07s-.1-.114-.179-.07.094.154.159.2a.4.4,0,0,1,.169.2c-.069.179-.179,0-.283,0s-.293.278-.4.055c.025-.119.134-.139.159-.258-.119.025-.218.149-.362.184a.312.312,0,0,0-.164.03,2.166,2.166,0,0,1-.278.174c-.1.045-.094,0-.134.035a1.813,1.813,0,0,0-.328.184,1.936,1.936,0,0,0-.3.213.6.6,0,0,0-.124.213c0,.065.1.084.1.144s-.055.119,0,.174.1,0,.179.025a2.511,2.511,0,0,1,.308.213.82.82,0,0,0,.268.124c.119,0,.248-.045.263.07s-.109.149-.119.218a1.423,1.423,0,0,0-.04.233.187.187,0,0,0,.134.184.342.342,0,0,0,.243-.2c.035-.1,0-.288.1-.382a.625.625,0,0,0,.7-.7.869.869,0,0,1,0-.164c0-.079.124-.144.109-.243.109-.045.1-.258.218-.288s.2.079.328.07c.04,0,.094-.045.134-.04s.134.139.194.194.114.035.129.1-.084.114-.079.223a.218.218,0,0,0,.129.174.337.337,0,0,0,.208-.06c.114-.065.208-.263.3-.238s.134.308.144.412,0,.194,0,.3.189.154.278.243.035.1.06.134.094.069.1.144c0,.179-.129.194-.119.392-.03.074-.1.07-.1.174s.2.035.253.164,0,.114-.025.213c.065.094.065.248-.05.248S370.629,352.456,370.554,352.436Zm-9.079-.268c.04-.05,0-.154-.074-.114S361.411,352.183,361.476,352.168Zm5.862.933c-.035-.04-.149-.03-.223,0s-.124,0-.129.07c.089.03.328.065.352-.07Zm-.437-.174a.134.134,0,0,0-.035-.213h-.109c-.05,0-.094-.06-.134-.065a.189.189,0,0,0-.159.074c0,.06.04.07.035.134-.079.07-.04.308.04.318s.134-.263.248-.288C366.827,352.9,366.846,352.937,366.9,352.927Zm-.114.407c-.124-.05-.233.04-.328.055s-.169,0-.154.089.119.06.184.035a.818.818,0,0,0,.3-.164Zm-.372-.774c.169-.089-.035-.357-.109-.382s-.328.124-.5.174-.174.035-.194.124c.079.159.238-.035.352,0s.094.109.154.124a2.166,2.166,0,0,0,.293-.04Zm-.119.164c-.035-.05-.223,0-.278.05a1.4,1.4,0,0,0-.1.164c-.04.06-.084.1-.114.154s-.2.342-.069.377c.055,0,.174-.129.184-.184a.62.62,0,0,1,.228-.407C366.216,352.823,366.285,352.853,366.3,352.724Zm-1.047-1.152c.094,0,.154-.338,0-.293s-.134.3,0,.293Zm-.457,7.689v-.045c0-.1-.089.04,0,.045Zm-3.554-8.577v-.04c0-.015-.055,0-.05.03S361.227,350.708,361.237,350.683Zm8.831-1.608c.045,0,.065,0,.06-.065s-.089.01-.06.065Zm-.963-.993a.04.04,0,0,0-.055,0v.04c.04,0,.045-.03.055-.05Zm-3.192.8a.076.076,0,0,0,.05-.1c-.02-.05-.253,0-.387-.03-.079-.134-.208-.154-.218.06C365.516,348.941,365.749,348.713,365.913,348.882Zm-1.489,1.057c.045,0,.114,0,.124-.069s-.079-.094-.124-.094-.094.065-.154.1-.169.055-.174.134a.526.526,0,0,0,.313-.1Zm-.045-.74a.179.179,0,0,0,.144-.04c-.04-.223-.3-.084-.447-.069a.586.586,0,0,0-.084.2c.1.01.243-.089.372-.119Zm2.522,10.474c.065,0,.045-.2-.035-.154s-.045.139.02.129Z" transform="translate(-291.849 -191.395)" fill="#f67409"/>
      <path id="Trazado_217454" data-name="Trazado 217454" d="M364.313,353.55v.04c0,.04-.045,0-.055,0S364.288,353.55,364.313,353.55Z" transform="translate(-294.929 -194.302)" fill="#f67409"/>
      <path id="Trazado_217455" data-name="Trazado 217455" d="M363.7,354.715a.189.189,0,0,1-.119.124.193.193,0,0,1-.04-.05C363.545,354.69,363.654,354.62,363.7,354.715Z" transform="translate(-294.568 -194.866)" fill="#f67409"/>
      <path id="Trazado_217456" data-name="Trazado 217456" d="M350.16,330.679a11.346,11.346,0,0,1,1.772-4.621,7.52,7.52,0,0,1,2.71-2.075,12.519,12.519,0,0,1,2.432-.923,13.878,13.878,0,0,1-6.915,7.619" transform="translate(-287.83 -178.946)" fill="#f67409"/>
      <path id="Trazado_217457" data-name="Trazado 217457" d="M347.744,333.733a13.135,13.135,0,0,0-1.583.859,5.271,5.271,0,0,0-1.2,1.216,10.57,10.57,0,0,0,.362-1.489,31.269,31.269,0,0,1,1.792-5.708A10.059,10.059,0,0,0,343.977,332a9.138,9.138,0,0,0-.675,4.065c.045,1.37,0,1.986,0,3.529a8.612,8.612,0,0,1,1.921-1.708c.665-.452,1.39-.819,2.045-1.281a10.225,10.225,0,0,0,3.594-4.989A15.387,15.387,0,0,1,347.744,333.733Z" transform="translate(-284.367 -181.741)" fill="#f67409"/>
      <path id="Trazado_217458" data-name="Trazado 217458" d="M341.607,346.662a12.241,12.241,0,0,0-1.166,1.37,5.132,5.132,0,0,0-.69,1.564,11.417,11.417,0,0,0-.184-1.489,31.006,31.006,0,0,1-.372-5.957,9.83,9.83,0,0,0-1.717,4.279,9.2,9.2,0,0,0,.824,4.041c.526,1.261.72,1.876,1.266,3.291a8.243,8.243,0,0,1,1.181-2.273c.457-.665.993-1.266,1.449-1.936,1.162-1.727,2.809-3.827,2.755-5.907C344.362,344.731,342.451,345.729,341.607,346.662Z" transform="translate(-281.441 -188.56)" fill="#f67409"/>
      <path id="Trazado_217459" data-name="Trazado 217459" d="M339.6,362.19a13.086,13.086,0,0,0-.72,1.727,5.3,5.3,0,0,0-.179,1.767,11,11,0,0,0-.665-1.425,32.178,32.178,0,0,1-2.268-5.778,10.225,10.225,0,0,0-.328,4.775,9.475,9.475,0,0,0,2.1,3.728c.923,1.077,1.31,1.618,2.3,2.849a8.8,8.8,0,0,1,.442-2.631c.243-.8.586-1.564.814-2.368.6-2.08,1.554-4.676.839-6.716C341.724,359.406,340.155,361,339.6,362.19Z" transform="translate(-280.332 -196.603)" fill="#f67409"/>
      <path id="Trazado_217460" data-name="Trazado 217460" d="M341.35,376.167a14.449,14.449,0,0,0-.159,2.12,6.164,6.164,0,0,0,.437,1.986,13.364,13.364,0,0,0-1.221-1.315,36.741,36.741,0,0,1-4.527-5.43,11.687,11.687,0,0,0,1.36,5.281,10.822,10.822,0,0,0,3.6,3.276,24.733,24.733,0,0,0,3.678,2.06,8.731,8.731,0,0,1-.64-2.8c-.025-.948.074-1.9.035-2.854-.1-2.457,0-5.609-1.489-7.555C342.626,372.4,341.5,374.688,341.35,376.167Z" transform="translate(-280.638 -203.055)" fill="#f67409"/>
      <path id="Trazado_217461" data-name="Trazado 217461" d="M346.672,389.041a14.58,14.58,0,0,0,.551,2.055,6.09,6.09,0,0,0,1.047,1.7,23.719,23.719,0,0,0-2.229-.958,29.342,29.342,0,0,1-7.361-4.438,19.2,19.2,0,0,0,4.3,5.545,14.59,14.59,0,0,0,5.207,2.174,19.853,19.853,0,0,0,4.17.154,4.428,4.428,0,0,1-1.6-2.2c-.342-.893-.561-1.822-.913-2.71-.908-2.283-1.852-5.3-3.911-6.637C346.632,385.065,346.324,387.6,346.672,389.041Z" transform="translate(-282.048 -209.501)" fill="#f67409"/>
      <path id="Trazado_217462" data-name="Trazado 217462" d="M356.969,400.1a14.43,14.43,0,0,0,1.439,1.569,6.031,6.031,0,0,0,1.737,1.032l-2.1.134c-5.9.134-8.8-1.524-10.8-2.015,2.343,2.909,6.478,4.105,8.285,4.443a14.221,14.221,0,0,0,5.624-.5c1.559-.457,4.532-1.176,4.318-1.583a10.888,10.888,0,0,1-2.978-1.415,17.137,17.137,0,0,1-2.06-1.986c-1.588-1.946-3.162-3.6-5.227-4.006C355.773,397,356,398.987,356.969,400.1Z" transform="translate(-286.359 -215.57)" fill="#f67409"/>
      <path id="Trazado_217463" data-name="Trazado 217463" d="M359.27,413.358a8.478,8.478,0,0,0,5.768,3.018,11.01,11.01,0,0,0,6.423-1.444c1.489-.834,2.839-1.986,4.492-2.383a7.225,7.225,0,0,1,5.912,1.489,17.2,17.2,0,0,1,4.016,4.815l2.273-1.986s-5.2-4.82-10.1-5.624-8.538,1.986-11.983,2.715A13.165,13.165,0,0,1,359.27,413.358Z" transform="translate(-292.418 -223.285)" fill="#f67409"/>
      <path id="Trazado_217464" data-name="Trazado 217464" d="M442.99,330.679a11.347,11.347,0,0,0-1.772-4.621,7.476,7.476,0,0,0-2.71-2.075,12.473,12.473,0,0,0-2.427-.923,13.869,13.869,0,0,0,6.91,7.619" transform="translate(-331.101 -178.946)" fill="#f67409"/>
      <path id="Trazado_217465" data-name="Trazado 217465" d="M444.772,333.733a13.133,13.133,0,0,1,1.583.859,5.083,5.083,0,0,1,1.2,1.216,12.2,12.2,0,0,1-.362-1.489,31.267,31.267,0,0,0-1.792-5.708A10.059,10.059,0,0,1,448.54,332a9.139,9.139,0,0,1,.675,4.065c-.04,1.37,0,1.986,0,3.529a8.5,8.5,0,0,0-1.921-1.708c-.665-.452-1.385-.819-2.045-1.281a10.186,10.186,0,0,1-3.589-4.989,15.387,15.387,0,0,0,3.112,2.119Z" transform="translate(-333.911 -181.741)" fill="#f67409"/>
      <path id="Trazado_217466" data-name="Trazado 217466" d="M451,346.662a12.834,12.834,0,0,1,1.171,1.37,5.122,5.122,0,0,1,.685,1.564,11.421,11.421,0,0,1,.189-1.489,31.4,31.4,0,0,0,.367-5.957,9.831,9.831,0,0,1,1.717,4.279,9.128,9.128,0,0,1-.819,4.041c-.531,1.261-.725,1.876-1.266,3.291a8.522,8.522,0,0,0-1.181-2.273c-.462-.665-.993-1.266-1.454-1.936-1.157-1.727-2.809-3.827-2.755-5.907C448.249,344.731,450.16,345.729,451,346.662Z" transform="translate(-336.932 -188.56)" fill="#f67409"/>
      <path id="Trazado_217467" data-name="Trazado 217467" d="M453.543,362.19a13.06,13.06,0,0,1,.715,1.727,5.431,5.431,0,0,1,.184,1.767,10.985,10.985,0,0,1,.66-1.425,32.575,32.575,0,0,0,2.273-5.778,10.225,10.225,0,0,1,.328,4.775,9.54,9.54,0,0,1-2.1,3.728c-.928,1.077-1.315,1.618-2.3,2.849a8.8,8.8,0,0,0-.442-2.631c-.238-.8-.586-1.564-.814-2.368-.591-2.08-1.554-4.676-.834-6.716C451.438,359.406,453.007,361,453.543,362.19Z" transform="translate(-338.591 -196.603)" fill="#f67409"/>
      <path id="Trazado_217468" data-name="Trazado 217468" d="M450.092,376.177a15.176,15.176,0,0,1,.154,2.12,6.036,6.036,0,0,1-.437,1.986,13.356,13.356,0,0,1,1.226-1.305,36.745,36.745,0,0,0,4.527-5.43,11.682,11.682,0,0,1-1.355,5.281A10.836,10.836,0,0,1,450.6,382.1a24.728,24.728,0,0,1-3.678,2.06,8.731,8.731,0,0,0,.635-2.8c.025-.948-.074-1.9-.03-2.854.1-2.457,0-5.609,1.489-7.555C448.816,372.409,449.938,374.7,450.092,376.177Z" transform="translate(-336.56 -203.065)" fill="#f67409"/>
      <path id="Trazado_217469" data-name="Trazado 217469" d="M439.643,389.056a15.308,15.308,0,0,1-.556,2.055,6.091,6.091,0,0,1-1.062,1.717c.521-.313,1.688-.725,2.229-.958a29.344,29.344,0,0,0,7.361-4.438,19.176,19.176,0,0,1-4.3,5.545,14.616,14.616,0,0,1-5.212,2.174,19.812,19.812,0,0,1-4.165.154,4.428,4.428,0,0,0,1.6-2.2c.338-.893.556-1.822.908-2.71.913-2.283,1.852-5.3,3.916-6.637C439.683,385.08,439.986,387.612,439.643,389.056Z" transform="translate(-330.023 -209.516)" fill="#f67409"/>
      <path id="Trazado_217470" data-name="Trazado 217470" d="M424.732,400.119a13.483,13.483,0,0,1-1.44,1.569,5.956,5.956,0,0,1-1.737,1.032c.7.045,2.1.149,2.1.149,5.9.134,8.8-1.524,10.806-2.015-2.348,2.909-6.483,4.105-8.285,4.443a14.246,14.246,0,0,1-5.629-.5c-1.559-.457-4.527-1.176-4.314-1.583a10.887,10.887,0,0,0,2.978-1.415,17.133,17.133,0,0,0,2.06-1.986c1.588-1.946,3.162-3.6,5.232-4.006C425.928,397.011,425.7,399,424.732,400.119Z" transform="translate(-321.103 -215.585)" fill="#f67409"/>
      <path id="Trazado_217471" data-name="Trazado 217471" d="M411.624,413.358a8.468,8.468,0,0,1-5.768,3.018,10.985,10.985,0,0,1-6.418-1.444c-1.489-.834-2.844-1.986-4.5-2.383a7.23,7.23,0,0,0-5.912,1.489,17.113,17.113,0,0,0-4.016,4.815l-2.273-1.986s5.207-4.82,10.106-5.624,8.533,1.986,11.978,2.715A13.165,13.165,0,0,0,411.624,413.358Z" transform="translate(-304.238 -223.285)" fill="#f67409"/>
      <path id="Trazado_217472" data-name="Trazado 217472" d="M402.569,441.329c0,.07-21.965.129-49.052.129s-49.057-.06-49.057-.129,21.96-.129,49.057-.129S402.569,441.26,402.569,441.329Z" transform="translate(-264.814 -238.444)" fill="#263238"/>
    </g>
    <g id="freepik--Mullet--inject-2" transform="translate(234.2 177.76)">
      <path id="Trazado_217473" data-name="Trazado 217473" d="M617.1,372.663,600.213,340.14,577.36,352.728,594.6,384.566Z" transform="translate(-512.134 -332.578)" fill="#f67409"/>
      <g id="Grupo_149294" data-name="Grupo 149294" transform="translate(65.226 7.562)" opacity="0.3">
        <path id="Trazado_217474" data-name="Trazado 217474" d="M617.1,372.663,600.213,340.14,577.36,352.728,594.6,384.566Z" transform="translate(-577.36 -340.14)"/>
      </g>
      <path id="Trazado_217475" data-name="Trazado 217475" d="M572.082,344.768l21.841-11.417a4.467,4.467,0,0,0,1.9-6.041h0a4.468,4.468,0,0,0-6.041-1.891l-21.841,11.417a4.467,4.467,0,0,0-1.9,6.041h0a4.467,4.467,0,0,0,6.041,1.891Z" transform="translate(-506.175 -324.907)" fill="#263238"/>
      <path id="Trazado_217476" data-name="Trazado 217476" d="M613.493,421.3l21.841-11.417a4.467,4.467,0,0,0,1.931-6.036h0a4.467,4.467,0,0,0-6.041-1.9l-21.841,11.417a4.467,4.467,0,0,0-1.9,6.041h0A4.467,4.467,0,0,0,613.493,421.3Z" transform="translate(-527.046 -363.45)" fill="#263238"/>
      <path id="Trazado_217477" data-name="Trazado 217477" d="M457.713,433.82l34.568-18.793c12.409-5.957,25.7-12.3,30.726-15.313l-2.978-5.693c-6.175,2.646-16.951,9.689-30.056,16.654-10.846,5.768-23.4,11.074-35.243,17.458Z" transform="translate(-450.374 -359.714)" fill="#f67409"/>
      <path id="Trazado_217478" data-name="Trazado 217478" d="M527.008,431.316h0a2.02,2.02,0,0,0,.854-2.725l-2.154-4.12a2.015,2.015,0,0,0-2.72-.854h0a2.015,2.015,0,0,0-.859,2.72l2.154,4.125a2.02,2.02,0,0,0,2.725.854Z" transform="translate(-484.203 -374.504)" fill="#f67409"/>
      <path id="Trazado_217479" data-name="Trazado 217479" d="M446.583,465.508a5.515,5.515,0,1,0-.375-4.207A5.52,5.52,0,0,0,446.583,465.508Z" transform="translate(-445.955 -391.65)" fill="#f67409"/>
      <path id="Trazado_217480" data-name="Trazado 217480" d="M.01,0H72.566V5.028a.829.829,0,0,1-.829.829H.829A.829.829,0,0,1,0,5.028V0Z" transform="translate(130.341 72.106) rotate(180)" fill="#f67409"/>
      <path id="Trazado_217481" data-name="Trazado 217481" d="M635.229,451.118V447.46A5.425,5.425,0,0,0,629.8,442H574.115a5.425,5.425,0,0,0-5.425,5.46v3.673Z" transform="translate(-507.767 -383.877)" fill="#f67409"/>
      <rect id="Rectángulo_45225" data-name="Rectángulo 45225" width="59.094" height="5.237" transform="translate(123.849 60.634) rotate(180)" fill="#f67409"/>
      <path id="Trazado_217482" data-name="Trazado 217482" d="M583.133,364.159l22.977-12a3.172,3.172,0,0,0,1.345-4.289h0a3.177,3.177,0,0,0-4.289-1.345l-22.977,12a3.182,3.182,0,0,0-1.345,4.289h0A3.177,3.177,0,0,0,583.133,364.159Z" transform="translate(-512.699 -335.61)" fill="#f67409"/>
      <path id="Trazado_217483" data-name="Trazado 217483" d="M602.2,403l22.977-12a3.182,3.182,0,0,0,1.345-4.289h0a3.182,3.182,0,0,0-4.289-1.35l-22.967,12.007a3.172,3.172,0,0,0-1.345,4.289h0A3.177,3.177,0,0,0,602.2,403Z" transform="translate(-522.305 -355.169)" fill="#f67409"/>
      <path id="Trazado_217484" data-name="Trazado 217484" d="M590.533,398.35h0a1.782,1.782,0,0,0,.69-2.422l-3.326-6.046a1.792,1.792,0,0,0-2.427-.7h0a1.792,1.792,0,0,0-.7,2.432l3.326,6.046a1.787,1.787,0,0,0,2.442.695Z" transform="translate(-515.751 -357.164)" fill="#f67409"/>
      <path id="Trazado_217485" data-name="Trazado 217485" d="M575.48,441.869c0-.074,13.4-.129,29.9-.129s29.9.055,29.9.129-13.4.129-29.9.129S575.48,441.958,575.48,441.869Z" transform="translate(-511.187 -383.746)" fill="#263238"/>
      <path id="Trazado_217486" data-name="Trazado 217486" d="M564.76,458.229c0-.069,15.705-.129,35.079-.129s35.084.06,35.084.129-15.705.129-35.084.129S564.76,458.3,564.76,458.229Z" transform="translate(-505.788 -391.986)" fill="#263238"/>
      <path id="Trazado_217487" data-name="Trazado 217487" d="M584.38,393.13a5.555,5.555,0,0,1,.571.993c.333.635.794,1.489,1.345,2.452s1.077,1.777,1.489,2.378a6.142,6.142,0,0,1,.6.993,4.6,4.6,0,0,1-.75-.893A26.208,26.208,0,0,1,586.1,396.7a26.68,26.68,0,0,1-1.286-2.482A4.854,4.854,0,0,1,584.38,393.13Z" transform="translate(-515.669 -359.265)" fill="#263238"/>
      <path id="Trazado_217488" data-name="Trazado 217488" d="M532.222,429.965a14.024,14.024,0,0,1-1.36-2.373,14.2,14.2,0,0,1-1.132-2.482,14.854,14.854,0,0,1,1.36,2.373A15.356,15.356,0,0,1,532.222,429.965Z" transform="translate(-488.146 -375.371)" fill="#263238"/>
      <path id="Trazado_217489" data-name="Trazado 217489" d="M524.309,433.93a13.713,13.713,0,0,1-1.236-2.358,13.93,13.93,0,0,1-.993-2.482,13.894,13.894,0,0,1,1.231,2.358A13.578,13.578,0,0,1,524.309,433.93Z" transform="translate(-484.293 -377.376)" fill="#263238"/>
    </g>
  </g>
</svg>
