<svg id="a" xmlns="http://www.w3.org/2000/svg" viewBox="0 0 344.65 344.65"><defs><style>.b{fill:#fff;fill-rule:evenodd;}.c{fill:#ff6b00;}</style></defs><circle class="c" cx="172.33" cy="172.33" r="172.33"/><g transform="translate(-101.671 -608.712)"><g transform="translate(101.671 608.712)"><path class="b" d="M173.26,59c-14.04,0-25.27,11.23-25.27,25.27s11.23,25.27,25.27,25.27,25.27-11.23,25.27-25.27-11.23-25.27-25.27-25.27h0Zm32.75,58.49v23.4l-20.59-23.4h-19.18v34.16h14.04v-22.46l19.65,22.46h19.65v-34.16h-13.57Zm-87.03,0h0l-.47,34.16h41.18v-7.49h-26.2v-6.55h23.4v-7.49l-22.93,.47v-5.15h24.8v-7.49l-39.77-.47h0Zm142.24,0h-16.38l-23.4,34.16h14.97l3.74-6.55h23.86l3.74,6.55h15.91l-22.46-34.16Zm-169.85,0h-2.81c-2.81,0-5.15,0-7.95,.47-3.28,.47-6.55,1.4-9.36,2.81-2.81,.94-4.68,3.74-4.68,6.55,0,1.4,0,2.34,.94,3.74,.47,.47,.47,.94,.94,1.4,2.34,1.87,4.68,3.28,7.95,3.74,3.74,.94,7.49,1.87,11.23,2.34,2.34,.47,4.68,.94,7.02,1.4,.94,.47,1.87,.94,2.81,1.4,.47,.47,.47,1.4,0,1.87h0c-1.87,.94-3.28,1.4-4.68,1.4h-7.02c-2.81-.47-4.21-1.4-4.68-2.81v-1.87h-14.51v.47c0,.94,0,1.87,.47,2.34,.94,3.74,3.74,6.08,8.89,7.49,2.34,.47,4.68,.94,7.02,.94h9.83c10.76-.47,17.78-2.81,20.12-7.02,.47-.94,.94-2.34,.94-3.28,0-1.4-.47-2.81-1.4-4.21-1.4-1.87-3.28-3.28-5.61-3.74-3.74-1.4-7.49-2.34-11.7-2.81-3.28-.47-6.55-.94-9.36-1.87l-2.81-1.4v-.94c.47-.94,2.34-1.4,4.68-1.87h5.61c1.4,0,2.81,.47,3.74,1.4,.47,.47,.47,.94,.94,1.4q0,.47,.47,.47h14.04v-.47c0-.94,0-1.4-.47-2.34-.94-3.74-5.15-6.08-12.63-7.02-3.28,0-5.61,0-7.95,0h0Zm160.49,8.42l7.49,12.17h-14.97l7.49-12.17Zm-87.97,32.75l-108.55,.47v17.78h35.09c33.69,0,35.09,0,36.03,.47,1.4,.94,2.34,2.34,2.34,3.74,.47,2.81,.94,0-26.2,46.79l-15.91,27.61,13.1,12.17,64.1-109.02h0Zm16.84,.47l64.57,108.55,13.1-12.17-16.38-27.61c-27.14-46.32-26.67-43.98-26.2-46.79,0-1.4,.94-3.28,2.34-3.74,.94-.47,2.34-.47,36.03-.47h35.09v-17.78h-108.55Zm-8.89,18.72l-58.49,99.66,15.44,7.02,33.22-57.08,5.61-9.83c.94-1.4,1.4-1.87,4.21-1.87,1.87,0,3.28,.47,4.21,1.87l6.08,10.29,34.16,57.08,15.44-8.89-59.89-98.26h0Z"/></g></g></svg>