<svg xmlns="http://www.w3.org/2000/svg" width="267.793" height="546.925" viewBox="0 0 267.793 546.925">
  <g id="Grupo_149431" data-name="Grupo 149431" transform="translate(-1001.552 -3525.075)">
    <path id="Trazado_218161" data-name="Trazado 218161" d="M102.527,450.16l1.18,4.422s16.007,26.047,14.112,28.557a10.19,10.19,0,0,1-11.1,3.325c-5.569-1.4-29.073-23.72-29.073-23.72L76.3,459.169Z" transform="translate(1141.813 3585.026)" fill="#f67409"/>
    <path id="Trazado_218162" data-name="Trazado 218162" d="M115.411,472.875s-6.932-3.059-10.938,5.9c0,0-2.992-1.13-11.3-8.078s-16.34-13.763-16.34-13.763-.864-.7-.615,0,.615,1.878.615,1.878l16.041,14.146s9.608,8.311,12.018,8.91,4.854,1.463,7.912.1a8.528,8.528,0,0,0,4.571-3.973C117.372,477.6,115.411,472.875,115.411,472.875Z" transform="translate(1142.626 3589.307)"/>
    <path id="Trazado_218163" data-name="Trazado 218163" d="M77.58,475.581c.1,0,.266-.881.848-2.211a12.251,12.251,0,0,1,8.311-7.015c1.413-.332,2.327-.349,2.327-.432a5.5,5.5,0,0,0-2.36.166,11.437,11.437,0,0,0-5.269,2.477,11.635,11.635,0,0,0-3.325,4.737,6.15,6.15,0,0,0-.532,2.277Z" transform="translate(1168.588 3595.427)" fill="#263238"/>
    <path id="Trazado_218164" data-name="Trazado 218164" d="M76.35,456.12a2.38,2.38,0,0,0,.366.382l1.13,1,4.106,3.624,13.913,11.769a59.3,59.3,0,0,0,8.012,6.084,12.883,12.883,0,0,0,8,1.878,7.978,7.978,0,0,0,4.987-2.493,4.986,4.986,0,0,0,1.08-1.662,10.873,10.873,0,0,1-1.23,1.662,8.078,8.078,0,0,1-4.837,2.144,12.765,12.765,0,0,1-7.68-1.945,61.028,61.028,0,0,1-7.929-6.017c-5.4-4.488-10.273-8.56-14.013-11.636l-4.272-3.491-1.2-.931a2.028,2.028,0,0,0-.432-.366Z" transform="translate(1141.76 3588.974)" fill="#263238"/>
    <path id="Trazado_218165" data-name="Trazado 218165" d="M82.6,464.227a17.868,17.868,0,0,0,2.959-1.828,19.377,19.377,0,0,0,2.876-1.978,8.843,8.843,0,0,0-3.158,1.529,8.924,8.924,0,0,0-2.676,2.277Z" transform="translate(1160.875 3591.821)" fill="#263238"/>
    <path id="Trazado_218166" data-name="Trazado 218166" d="M83.85,461.725a23.052,23.052,0,0,0,3.64-1.513,20.35,20.35,0,0,0,3.557-1.662,11.334,11.334,0,0,0-3.773,1.2,11.834,11.834,0,0,0-3.424,1.978Z" transform="translate(1156.185 3590.583)" fill="#263238"/>
    <path id="Trazado_218167" data-name="Trazado 218167" d="M85.52,460.06c.116.116,1.563-1.164,3.657-2.177s3.989-1.43,3.956-1.662a8.312,8.312,0,0,0-4.172,1.114,8.677,8.677,0,0,0-3.441,2.726Z" transform="translate(1151.323 3589.04)" fill="#263238"/>
    <path id="Trazado_218168" data-name="Trazado 218168" d="M87.13,457.423c0,.116,1.43-.864,3.324-1.662s3.491-1.18,3.457-1.33a7.514,7.514,0,0,0-3.674.864,7.164,7.164,0,0,0-3.108,2.128Z" transform="translate(1147.868 3587.854)" fill="#263238"/>
    <path id="Trazado_218169" data-name="Trazado 218169" d="M87.609,456.676a6.484,6.484,0,0,0,1.995-1.33,14.748,14.748,0,0,0,1.8-1.845,12.062,12.062,0,0,0,.914-1.247,2.777,2.777,0,0,0,.416-.765,1,1,0,0,0-.166-1.014,1.662,1.662,0,0,0-1.812-.216,3.874,3.874,0,0,0-1.33.914,4.986,4.986,0,0,0-1.213,2.344,6.648,6.648,0,0,0-.166,1.745c0,.416,0,.648.1.648a21.338,21.338,0,0,1,.416-2.294,4.987,4.987,0,0,1,1.213-2.111,3.576,3.576,0,0,1,1.164-.781,1.214,1.214,0,0,1,1.23,0c.266.266,0,.748-.266,1.164s-.582.848-.864,1.23A18.089,18.089,0,0,1,89.371,455C88.307,456.094,87.575,456.593,87.609,456.676Z" transform="translate(1148.187 3584.977)" fill="#263238"/>
    <path id="Trazado_218170" data-name="Trazado 218170" d="M96.689,455.555a1.876,1.876,0,0,0-.166-.648,6.1,6.1,0,0,0-.964-1.513,6.848,6.848,0,0,0-3.59-2.244,2.193,2.193,0,0,0-.931,0,1.031,1.031,0,0,0-.765.748,2.1,2.1,0,0,0,.7,1.662,5.922,5.922,0,0,0,1.2,1.064,6.318,6.318,0,0,0,2.493.981,5.5,5.5,0,0,0,1.812,0c.416,0,.632-.166.632-.2a12.753,12.753,0,0,1-2.36-.166,6.466,6.466,0,0,1-2.294-1.03,5.139,5.139,0,0,1-1.1-1,1.662,1.662,0,0,1-.565-1.247c0-.382.6-.465,1.08-.366a6.187,6.187,0,0,1,1.38.5,7.212,7.212,0,0,1,2.045,1.479A15.562,15.562,0,0,1,96.689,455.555Z" transform="translate(1139.456 3585.648)" fill="#263238"/>
    <path id="Trazado_218171" data-name="Trazado 218171" d="M93.907,455.046a3.856,3.856,0,0,1,2.261.116,8.411,8.411,0,0,1,4.039,3.674,9.026,9.026,0,0,1,1.064,5.386c-.166,1.43-.549,2.261-.465,2.294a4.986,4.986,0,0,0,.831-2.244,8.694,8.694,0,0,0-.981-5.685,8.111,8.111,0,0,0-4.372-3.773,2.427,2.427,0,0,0-2.377.233Z" transform="translate(1128.757 3587.97)" fill="#263238"/>
    <path id="Trazado_218172" data-name="Trazado 218172" d="M89.46,461.18a13.165,13.165,0,0,0,2.709,2.643,13.763,13.763,0,0,0,3.042,2.261,13.166,13.166,0,0,0-2.709-2.643,14.215,14.215,0,0,0-3.042-2.261Z" transform="translate(1142.696 3592.324)" fill="#263238"/>
    <path id="Trazado_218173" data-name="Trazado 218173" d="M95.254,460.16c-.15,0-.332.332-.432.765a2.245,2.245,0,0,0,0,.864,1.236,1.236,0,0,0,.432-.765C95.354,460.542,95.387,460.177,95.254,460.16Z" transform="translate(1133.727 3591.648)" fill="#263238"/>
    <path id="Trazado_218174" data-name="Trazado 218174" d="M94.855,458.192c-.133,0-.166.449,0,.864s.316.765.449.748.166-.4,0-.864S94.988,458.142,94.855,458.192Z" transform="translate(1133.71 3590.342)" fill="#263238"/>
    <path id="Trazado_218175" data-name="Trazado 218175" d="M95.527,456.521c-.116.116,0,.432.332.8s.582.565.7.5,0-.449-.3-.831S95.61,456.421,95.527,456.521Z" transform="translate(1131.292 3589.221)" fill="#263238"/>
    <path id="Trazado_218176" data-name="Trazado 218176" d="M96.912,455.5c0,.133.249.4.648.6s.781.233.864.116-.216-.382-.648-.6S96.962,455.368,96.912,455.5Z" transform="translate(1127.082 3588.512)" fill="#263238"/>
    <path id="Trazado_218177" data-name="Trazado 218177" d="M98.8,455.339c0,.15.4.266.831.266s.814-.116.831-.249-.349-.266-.831-.266S98.784,455.19,98.8,455.339Z" transform="translate(1121.919 3588.291)" fill="#263238"/>
    <path id="Trazado_218178" data-name="Trazado 218178" d="M202.155,202c1.031,1.247,2.493,14.445,2.493,14.445S229,258,232.391,258.583s18.168-28.84,18.168-28.84l15.176,13.98s-7.912,37.135-32.647,43.5c-11.636,3.009-32.048-34.026-45.645-64.828-.233-.5-7.264-17.254-7.264-17.254Z" transform="translate(821.372 3420.683)" fill="#a56959"/>
    <path id="Trazado_218179" data-name="Trazado 218179" d="M226.192,206.236a1.367,1.367,0,0,0,.083.416c.632,1.995,4.4,10.206,5.569,10.123s3.856-1.995,3.574-3.175-5.07-10.206-5.07-10.206-.831-1.38-3.457-.648C225.262,203.211,226.192,206.236,226.192,206.236Z" transform="translate(775.625 3421.034)" fill="#a56959"/>
    <path id="Trazado_218180" data-name="Trazado 218180" d="M224.053,203.119v.432c.632,1.978,4.4,10.206,5.569,10.106s3.856-1.995,3.557-3.175-4.987-10.19-4.987-10.19-.848-1.38-3.457-.648C223.123,200.094,224.053,203.119,224.053,203.119Z" transform="translate(781.421 3418.981)" fill="#a56959"/>
    <path id="Trazado_218181" data-name="Trazado 218181" d="M221.527,200.943v.416c.632,1.995,4.4,10.223,5.569,10.123s3.84-1.995,3.557-3.175-4.987-10.19-4.987-10.19-.848-1.38-3.474-.665C220.6,197.917,221.527,200.943,221.527,200.943Z" transform="translate(788.153 3417.534)" fill="#a56959"/>
    <path id="Trazado_218182" data-name="Trazado 218182" d="M218.978,198.826a1.231,1.231,0,0,0,0,.416c.648,1.995,4.4,10.223,5.569,10.123s3.856-1.995,3.574-3.175-4.987-10.206-4.987-10.206-.848-1.38-3.474-.648C218.064,195.8,218.978,198.826,218.978,198.826Z" transform="translate(794.907 3416.127)" fill="#a56959"/>
    <path id="Trazado_218183" data-name="Trazado 218183" d="M230.383,210.866a16.225,16.225,0,0,1-2.161-3.856,16.707,16.707,0,0,1-1.662-4.039,18.769,18.769,0,0,1,2.161,3.856,17.9,17.9,0,0,1,1.662,4.039Z" transform="translate(779.629 3421.325)" fill="#7c4435"/>
    <path id="Trazado_218184" data-name="Trazado 218184" d="M229.089,210.953a34.5,34.5,0,0,1-2.992-5.535,35.051,35.051,0,0,1-2.477-5.768,34.49,34.49,0,0,1,2.992,5.535A35.058,35.058,0,0,1,229.089,210.953Z" transform="translate(785.811 3419.126)" fill="#7c4435"/>
    <path id="Trazado_218185" data-name="Trazado 218185" d="M226.2,209.393a35.253,35.253,0,0,1-2.975-5.535,33.408,33.408,0,0,1-2.477-5.768,36.388,36.388,0,0,1,2.992,5.519,34.524,34.524,0,0,1,2.46,5.785Z" transform="translate(793.468 3418.093)" fill="#7c4435"/>
    <path id="Trazado_218186" data-name="Trazado 218186" d="M234.279,219.307l1.662-7.281a12.683,12.683,0,0,0-1.479-9.342l-1.3-2.144-15.908,8.045s3.973,5.17,7.979,2.128L222.311,217Z" transform="translate(789.214 3419.716)" fill="#a56959"/>
    <path id="Trazado_218187" data-name="Trazado 218187" d="M226.181,217.455c.1,0,0-.848.15-2.261a8.029,8.029,0,0,1,2.859-4.987l1.529-1.23-1.862.6-4.139,1.346h.1a4.82,4.82,0,0,1-4.771-1.978,1.662,1.662,0,0,1-.2-.366l-.216.532c4.588-2.078,8.71-4.023,11.636-5.6a25.915,25.915,0,0,0,4.555-2.809,44.882,44.882,0,0,0-4.82,2.244c-2.942,1.43-7.081,3.325-11.636,5.352l-.366.166.133.382a3.74,3.74,0,0,0,.266.515,4.821,4.821,0,0,0,2.576,2.061A6.8,6.8,0,0,0,225,211.7h0l4.089-1.43-.332-.615a8.129,8.129,0,0,0-2.826,5.5A4.421,4.421,0,0,0,226.181,217.455Z" transform="translate(786.757 3419.821)" fill="#7c4435"/>
    <path id="Trazado_218188" data-name="Trazado 218188" d="M234.063,208.15c-.166,0,.133.9,0,2.078a1.529,1.529,0,0,1-1.2,1.263,2.277,2.277,0,0,1-1.945-1.213c-1.064-1.662-2.128-3.208-2.776-4.339s-1-1.862-1.114-1.828,0,.864.565,2.111a38.492,38.492,0,0,0,2.61,4.538,2.992,2.992,0,0,0,2.726,1.479,2.178,2.178,0,0,0,1.662-1.961,3.541,3.541,0,0,0-.249-1.662C234.23,208.316,234.113,208.133,234.063,208.15Z" transform="translate(774.686 3422.079)" fill="#7c4435"/>
    <path id="Trazado_218189" data-name="Trazado 218189" d="M133.97,316.7s13.547-33.361,13.481-33.993l-3.507-12.417-1.413-7.181-4.588,5.336-22.391-23.4c-.416.565,10.14-14.761,20.828-29.754,7.447-10.439,15.509-12.733,20.213-13.065a32.285,32.285,0,0,1,6-1.23l38.531-.332a36.57,36.57,0,0,1,23.005,8.428c1.779,1.463,16.539,21.094,26.6,40.509l-30.984,22.357-5.1-8.976v.183c-.432,3.042-2.277,11.918-2.876,14.96-1.878,9.358-2.477,20.629,2.094,28.358a239.227,239.227,0,0,1,8.876,26.513H127.653S130.712,324.73,133.97,316.7Z" transform="translate(943.83 3419.795)" fill="#455a64"/>
    <path id="Trazado_218190" data-name="Trazado 218190" d="M106,282.623,109.327,280v-.3l.133.166,21.493-17.321-9.225-15.21L144,231.06c-.1,1.08,20.662,31.865,17.853,37.916-3.973,8.544-30.951,25.632-41.988,32.364a68.836,68.836,0,0,1,8.91,1.762c2.809.914-6.35,3.324-8.577,3.807-.864.166-2.643-1.214-4.538-3.042l-.515.3-.6-1.4a65.877,65.877,0,0,1-5.652-6.649c-.465-.715-.449-3.956-.266-7.38Z" transform="translate(1048.293 3439.928)" fill="#a56959"/>
    <path id="Trazado_218191" data-name="Trazado 218191" d="M213.858,456.852l.133-3.142,31.865.914L245.574,465h-1.961c-8.777.216-44.615.532-50.416-1.28C186.73,461.772,213.858,456.852,213.858,456.852Z" transform="translate(821.271 3587.377)" fill="#f67409"/>
    <path id="Trazado_218192" data-name="Trazado 218192" d="M192.23,463.438a10.09,10.09,0,0,1,4.239-6.184,11.32,11.32,0,0,1,7.48-1.945l-.249,8.311Z" transform="translate(863.129 3588.404)"/>
    <path id="Trazado_218193" data-name="Trazado 218193" d="M200.788,457.31s-9.525,2.277-8.311,3.757,37.284,2.377,53.292,1.546v-.648l-42.254-.781S202.633,457.426,200.788,457.31Z" transform="translate(821.076 3589.761)"/>
    <path id="Trazado_218194" data-name="Trazado 218194" d="M246.013,460.683h-7.962c-4.887,0-11.636,0-19.049-.183s-14.179-.5-19.033-.781l-5.768-.382-1.563-.116H194.3l5.768.266c4.854.216,11.636.482,19.016.682s14.179.249,19.049.283h7.331Z" transform="translate(821.297 3591.026)" fill="#263238"/>
    <path id="Trazado_218195" data-name="Trazado 218195" d="M220.682,461.794a11.089,11.089,0,0,0-1-2.593,12.726,12.726,0,0,0-1.895-2.111,4.322,4.322,0,0,1,2.227,1.928A3.657,3.657,0,0,1,220.682,461.794Z" transform="translate(803.859 3589.616)" fill="#263238"/>
    <path id="Trazado_218196" data-name="Trazado 218196" d="M213.718,458.411a3.509,3.509,0,0,1-.964-1.164c-.432-.7-.731-1.3-.648-1.346s.532.482.964,1.164S213.8,458.361,213.718,458.411Z" transform="translate(820.331 3588.826)" fill="#263238"/>
    <path id="Trazado_218197" data-name="Trazado 218197" d="M212.465,457.377a3.34,3.34,0,0,1-1.1-.731c-.532-.482-.914-.9-.831-.981s.549.249,1.1.731S212.531,457.311,212.465,457.377Z" transform="translate(824.194 3588.664)" fill="#263238"/>
    <path id="Trazado_218198" data-name="Trazado 218198" d="M212.834,455.091a3.922,3.922,0,0,1-1.662.15,4.024,4.024,0,0,1-1.662-.2,3.972,3.972,0,0,1,1.662-.149,3.655,3.655,0,0,1,1.662.2Z" transform="translate(825.52 3588.141)" fill="#263238"/>
    <path id="Trazado_218199" data-name="Trazado 218199" d="M212.9,453.874a4.987,4.987,0,0,1-3.773.166,9.017,9.017,0,0,1,1.878-.083A11.373,11.373,0,0,1,212.9,453.874Z" transform="translate(826.082 3587.479)" fill="#263238"/>
    <path id="Trazado_218200" data-name="Trazado 218200" d="M218.627,456.908a5.749,5.749,0,0,1-2.045,0,11.622,11.622,0,0,1-2.161-.5,5.735,5.735,0,0,1-1.23-.515.948.948,0,0,1-.482-.6.748.748,0,0,1,.332-.748,3.89,3.89,0,0,1,4.588,1.147,2.909,2.909,0,0,1,.632,1.28v.515a4.986,4.986,0,0,0-.881-1.662,3.674,3.674,0,0,0-1.662-1.1,3.441,3.441,0,0,0-2.443.083c-.332.216-.216.582.133.781a5.407,5.407,0,0,0,1.147.482,12.744,12.744,0,0,0,2.078.565C217.846,456.825,218.627,456.858,218.627,456.908Z" transform="translate(814.424 3587.72)" fill="#263238"/>
    <path id="Trazado_218201" data-name="Trazado 218201" d="M211.647,457.327a1.662,1.662,0,0,1-.2-1.313,3.092,3.092,0,0,1,.6-1.38,2.028,2.028,0,0,1,1.662-.914.748.748,0,0,1,.6.881,2.194,2.194,0,0,1-.366.848,6.1,6.1,0,0,1-1,1.114,2.791,2.791,0,0,1-1.2.731,10.023,10.023,0,0,0,1-.914,7.452,7.452,0,0,0,.9-1.114c.283-.382.5-1.1,0-1.2s-1.047.4-1.363.765a3.108,3.108,0,0,0-.615,1.213,5.721,5.721,0,0,0-.017,1.28Z" transform="translate(820.906 3587.384)" fill="#263238"/>
    <path id="Trazado_218202" data-name="Trazado 218202" d="M203.862,455.39a14.457,14.457,0,0,0-2.344,0,10.589,10.589,0,0,0-5.17,1.829,9.476,9.476,0,0,0-3.324,4.106c-.515,1.247-.6,2.094-.665,2.094s0-.216,0-.6a6.782,6.782,0,0,1,.4-1.662,9.126,9.126,0,0,1,3.324-4.322,10.139,10.139,0,0,1,5.386-1.778,8.6,8.6,0,0,1,1.745,0A2.047,2.047,0,0,1,203.862,455.39Z" transform="translate(863.049 3588.24)" fill="#263238"/>
    <path id="Trazado_218203" data-name="Trazado 218203" d="M210.905,458.473a28.257,28.257,0,0,1-9.275-.166,41.155,41.155,0,0,1,4.638.1C208.827,458.506,210.889,458.356,210.905,458.473Z" transform="translate(840.547 3590.394)" fill="#263238"/>
    <path id="Trazado_218204" data-name="Trazado 218204" d="M198.834,458.486s-.183.4-.416.831-.349.831-.449.831-.15-.482.116-.981S198.768,458.4,198.834,458.486Z" transform="translate(858.835 3590.53)" fill="#263238"/>
    <path id="Trazado_218205" data-name="Trazado 218205" d="M197.677,456.886a1.445,1.445,0,0,1-.482.681c-.332.3-.665.482-.748.416s.15-.366.482-.682S197.594,456.819,197.677,456.886Z" transform="translate(862.419 3589.471)" fill="#263238"/>
    <path id="Trazado_218206" data-name="Trazado 218206" d="M196.215,456.262c0,.1-.449.083-.914.233s-.815.366-.9.283.2-.465.781-.632S196.248,456.179,196.215,456.262Z" transform="translate(867.272 3588.948)" fill="#263238"/>
    <path id="Trazado_218207" data-name="Trazado 218207" d="M193.971,455.91c0,.083-.15.233-.416.332s-.5.083-.549,0,.166-.233.432-.332S193.971,455.81,193.971,455.91Z" transform="translate(871.826 3588.784)" fill="#263238"/>
    <path id="Trazado_218208" data-name="Trazado 218208" d="M172.641,154.652a11.636,11.636,0,0,1,13.547-1.047c2.045,1.313,3.657,3.324,5.868,4.289,3.674,1.662,8,.366,11.968,1a12.65,12.65,0,0,1,10.256,12.7c-.166,3.192-1.529,6.649,0,9.425,1.363,2.46,4.438,3.324,6.649,5.086a9.475,9.475,0,0,1,1.313,12.866,47,47,0,0,0-3.74,3.989c-1.562,2.444-1.346,5.569-1.745,8.428s-2.045,6.117-4.987,6.3c-2.344.15-4.422-1.8-6.749-1.662-3.325.266-4.6,4.189-6.5,6.865a11.636,11.636,0,0,1-10.821,4.7c-2.975-.4-5.918-1.961-8.81-1.23-3.657.931-5.851,5.2-9.575,5.735-2.776.4-5.352-1.446-7.414-3.325s-4.156-4.072-6.915-4.571c-3.325-.6-6.516,1.413-9.857,1.878a11.187,11.187,0,0,1-10.987-5.519c-1.829-3.325-1.829-7.414-3.541-10.8a62.188,62.188,0,0,0-4.438-6.217,8.311,8.311,0,0,1-1.662-7.181c.6-1.662,2.061-3.042,2.776-4.721,1.064-2.527.283-5.386,0-8.112s.283-6.034,2.776-7.164a23.407,23.407,0,0,0,3.208-1.064c1.945-1.2,1.845-3.973,2.011-6.25a10.456,10.456,0,0,1,4.721-8.394c2.909-1.662,7.214-.831,8.677,2.161" transform="translate(955.857 3387.511)" fill="#263238"/>
    <path id="Trazado_218209" data-name="Trazado 218209" d="M184.961,184.882a21.609,21.609,0,0,0-11.636-30.718,34.226,34.226,0,0,0-13.049-1.513,27.245,27.245,0,0,0-10.987,2.244,11.885,11.885,0,0,0-6.8,8.461" transform="translate(962.137 3387.933)" fill="#f67409"/>
    <path id="Trazado_218210" data-name="Trazado 218210" d="M178.788,248.694h0a15.259,15.259,0,0,1-16.423-14.644c-.316-8.311-.6-16.722-.6-16.722s-12.6-1.164-13.514-13.63-.5-41.257-.5-41.257h0a43.451,43.451,0,0,1,43.9,2.826l1.945,1.313-.715,67.055a15.276,15.276,0,0,1-14.1,15.06Z" transform="translate(947.565 3391.409)" fill="#a56959"/>
    <path id="Trazado_218211" data-name="Trazado 218211" d="M174.442,175.023a1.812,1.812,0,1,0-2.56,0A1.812,1.812,0,0,0,174.442,175.023Z" transform="translate(926.812 3400.768)" fill="#263238"/>
    <path id="Trazado_218212" data-name="Trazado 218212" d="M170.808,173.3c.2.216,1.38-.8,3.092-.914s3.009.7,3.192.465-.133-.482-.7-.864a4.222,4.222,0,0,0-4.987.366C170.857,172.819,170.708,173.217,170.808,173.3Z" transform="translate(925.592 3400.379)" fill="#263238"/>
    <path id="Trazado_218213" data-name="Trazado 218213" d="M160.968,172.54a1.812,1.812,0,1,0,1.865-.251A1.812,1.812,0,0,0,160.968,172.54Z" transform="translate(956.576 3400.906)" fill="#263238"/>
    <path id="Trazado_218214" data-name="Trazado 218214" d="M159.526,173.546a3.557,3.557,0,0,1,3.092-.914c1.662-.15,3.025.7,3.208.465s-.133-.482-.715-.864a4.189,4.189,0,0,0-2.56-.648,4.272,4.272,0,0,0-2.46,1.014C159.593,173.064,159.427,173.463,159.526,173.546Z" transform="translate(955.607 3400.532)" fill="#263238"/>
    <path id="Trazado_218215" data-name="Trazado 218215" d="M171.463,186.764a8.529,8.529,0,0,0-2.809-.416c-.465,0-.814-.1-.864-.349a2.377,2.377,0,0,1,.249-1.3c.366-1.164.748-2.344,1.147-3.574a49.386,49.386,0,0,0,2.377-9.358c-.266-.083-1.662,3.973-3.325,9.059l-1.064,3.607a2.826,2.826,0,0,0-.133,1.878,1.147,1.147,0,0,0,.814.665,2.693,2.693,0,0,0,.781,0,8.311,8.311,0,0,0,2.826-.216Z" transform="translate(937.553 3400.662)" fill="#263238"/>
    <path id="Trazado_218216" data-name="Trazado 218216" d="M157.22,195.748a29.106,29.106,0,0,0,15.974-5.618s-3.325,9.209-15.808,8.843Z" transform="translate(952.079 3412.821)" fill="#7c4435"/>
    <path id="Trazado_218217" data-name="Trazado 218217" d="M191.782,160.742a11.752,11.752,0,0,1-9.974,10.273c-3.059.366-6.383-.482-9.142.9a16.107,16.107,0,0,0-4.654,4.7,7.414,7.414,0,0,1-5.519,3.324,14.479,14.479,0,0,1-3.125-.731,3.64,3.64,0,0,0-3.092.332,23.8,23.8,0,0,1-1.845-11.636,10.688,10.688,0,0,1,6.882-8.893c2.477-.748,5.153-.266,7.7-.715a25.865,25.865,0,0,0,5.984-2.194,18.7,18.7,0,0,1,10.273-2.194c3.524.532,6.915,3.424,6.815,6.981" transform="translate(937.996 3388.801)" fill="#263238"/>
    <path id="Trazado_218218" data-name="Trazado 218218" d="M160.02,194.323c-4.521,3.64-9.973-5.768-12.384-11.636a58.178,58.178,0,0,1-3.507-18.867,9.259,9.259,0,0,1,1.1-6.067c1.3-1.762,1.878.4,3.324-1.247,2.776-3.225,7.9-1.479,10.422-.382,4.205,1.812,6.832,6.516,7.663,11.287a46.991,46.991,0,0,1-.515,14.462c-.316,2.194-.632,4.388-.931,6.649a10.605,10.605,0,0,1-1.313,4.438,3.158,3.158,0,0,1-3.807,1.463" transform="translate(980.263 3389.33)" fill="#263238"/>
    <path id="Trazado_218219" data-name="Trazado 218219" d="M143.1,173.1a1.9,1.9,0,0,1,1.812-1.878c2.327,0,6.134.864,6.483,7.281.5,9.176-8.311,6.882-8.311,6.649S143.088,176.672,143.1,173.1Z" transform="translate(997.345 3400.298)" fill="#a56959"/>
    <path id="Trazado_218220" data-name="Trazado 218220" d="M144.523,180.348a2.7,2.7,0,0,0,.449.2,1.662,1.662,0,0,0,1.2,0,3.973,3.973,0,0,0,1.662-3.657,5.219,5.219,0,0,0-.565-2.261,1.878,1.878,0,0,0-1.28-1.164.815.815,0,0,0-.914.5c-.1.266,0,.432-.083.465s-.216-.15-.15-.532a.964.964,0,0,1,.316-.6,1.28,1.28,0,0,1,.881-.3,2.261,2.261,0,0,1,1.745,1.33,5.652,5.652,0,0,1,.7,2.527,4.172,4.172,0,0,1-2.111,4.089,1.662,1.662,0,0,1-1.479-.15C144.556,180.564,144.49,180.364,144.523,180.348Z" transform="translate(997.888 3401.477)" fill="#7c4435"/>
    <path id="Trazado_218221" data-name="Trazado 218221" d="M168.764,182.637a2.51,2.51,0,1,1-.2-.3" transform="translate(944.657 3407)" fill="#7c4435"/>
    <path id="Trazado_218222" data-name="Trazado 218222" d="M163.581,184.189a4.771,4.771,0,0,0,3.89-.116c2.111-.748,3.324-2.227,3.075-2.377s-1.463.9-3.325,1.546S163.6,183.873,163.581,184.189Z" transform="translate(944.122 3407.227)" fill="#263238"/>
    <path id="Trazado_218223" data-name="Trazado 218223" d="M150.83,160.567c3.408-.465,5.818-3.79,6.4-7.164a24.253,24.253,0,0,0-1.2-10.123,14.511,14.511,0,0,0-4.887,18" transform="translate(980.261 3381.795)" fill="#f67409"/>
    <path id="Trazado_218224" data-name="Trazado 218224" d="M164.309,156.6a5.9,5.9,0,0,0-2.826-6.649,12.184,12.184,0,0,0-7.48-1.33,1.4,1.4,0,0,0-.648.183,1.1,1.1,0,0,0-.382.781,6.366,6.366,0,0,0,3.574,6.184,18.551,18.551,0,0,0,7.364,1.662,2.294,2.294,0,0,0,1.164-.1.748.748,0,0,0,.416-.981" transform="translate(966.815 3385.25)" fill="#f67409"/>
    <path id="Trazado_218225" data-name="Trazado 218225" d="M169.649,169.183a.743.743,0,0,1,.216-.432,1.662,1.662,0,0,1,1.13-.632,1.38,1.38,0,0,1,1.662.9,1.978,1.978,0,0,1-1.031,2.211,2.41,2.41,0,0,1-2.826-.914,3.856,3.856,0,0,1-.249-3.657A6.466,6.466,0,0,1,176,162.982l.5.15,2.311.731-1.895-1.479a3.757,3.757,0,0,1-1.1-3.973,4.688,4.688,0,0,1,2.842-2.876,7.979,7.979,0,0,1,7.015,1.031c.9.549,1.662,1.2,2.443,1.662a4.356,4.356,0,0,0,2.194.665c1.33,0,1.828-.7,1.779-.7a3.025,3.025,0,0,1-1.762.366,4.089,4.089,0,0,1-1.961-.748c-.7-.449-1.43-1.13-2.377-1.745a10.539,10.539,0,0,0-3.325-1.479,7.1,7.1,0,0,0-4.255.233,5.386,5.386,0,0,0-3.325,3.324,4.571,4.571,0,0,0,1.363,4.987l.416-.748-.582-.183a7.247,7.247,0,0,0-8.411,4.222,4.555,4.555,0,0,0,.432,4.388,3.025,3.025,0,0,0,3.674,1,2.493,2.493,0,0,0,1.213-2.909,1.662,1.662,0,0,0-.981-.981,2.061,2.061,0,0,0-1.13-.083,1.662,1.662,0,0,0-1.213.881C169.532,169,169.649,169.183,169.649,169.183Z" transform="translate(916.096 3389.138)" fill="#263238"/>
    <path id="Trazado_218226" data-name="Trazado 218226" d="M164,185.432a1.845,1.845,0,0,0-.914,0,3.74,3.74,0,0,0-2.626,3.325,2.992,2.992,0,0,0,.765,2.161,3.973,3.973,0,0,0,2.344,1.23,3.507,3.507,0,0,0,2.859-.8,6.067,6.067,0,0,0,1.064-6.233,8.943,8.943,0,0,0-5.153-5.452c-1.28-.5-2.626-.7-3.89-1.08a4.771,4.771,0,0,1-3.009-2.244,6.649,6.649,0,0,1-.465-3.973,22.9,22.9,0,0,1,1.164-4.222,14.761,14.761,0,0,0,.9-4.5,6.45,6.45,0,0,0-1.662-4.239,8.078,8.078,0,0,0-3.69-2.327,10.356,10.356,0,0,0-4.139-.3c-2.726.283-4.987,1.662-7.148,1.978a4.754,4.754,0,0,1-3.058-.416,8.726,8.726,0,0,1-2.294-1.895,13.132,13.132,0,0,0-4.056-3.541,7.7,7.7,0,0,0-4.023-.665,6.933,6.933,0,0,0-2.477.715,6.426,6.426,0,0,0-.582.332l-.166.15a9.874,9.874,0,0,1,3.241-.864,7.43,7.43,0,0,1,3.79.765,12.883,12.883,0,0,1,3.823,3.524,9.69,9.69,0,0,0,2.427,2.078,5.519,5.519,0,0,0,3.474.532c2.427-.366,4.6-1.662,7.131-1.895a7.962,7.962,0,0,1,7.1,2.394,5.569,5.569,0,0,1,1.38,3.69,13.3,13.3,0,0,1-.848,4.222,22.974,22.974,0,0,0-1.2,4.372,7.464,7.464,0,0,0,.565,4.488,5.519,5.519,0,0,0,3.507,2.626c1.363.416,2.693.6,3.856,1.031a8.311,8.311,0,0,1,4.754,4.987,5.5,5.5,0,0,1-.715,5.718,3.325,3.325,0,0,1-4.438-.316,2.859,2.859,0,0,1-.249-3.474,3.441,3.441,0,0,1,1.812-1.662C163.685,185.465,164,185.465,164,185.432Z" transform="translate(1013.002 3387.699)" fill="#263238"/>
    <path id="Trazado_218227" data-name="Trazado 218227" d="M157.861,177.776a.4.4,0,0,0,.549-.183.416.416,0,0,0-.266-.5.432.432,0,0,0-.549.183A.416.416,0,0,0,157.861,177.776Z" transform="translate(966.248 3404.165)" fill="#263238"/>
    <path id="Trazado_218228" data-name="Trazado 218228" d="M159.909,177.714a.449.449,0,0,0,.5-.416.465.465,0,0,0-.366-.549.5.5,0,0,0-.133.964Z" transform="translate(960.926 3403.961)" fill="#263238"/>
    <path id="Trazado_218229" data-name="Trazado 218229" d="M161.963,178.178a.515.515,0,0,0,.366-.6.478.478,0,0,0-.5-.5.515.515,0,0,0-.366.6.532.532,0,0,0,.5.5Z" transform="translate(955.897 3404.178)" fill="#263238"/>
    <ellipse id="Elipse_7182" data-name="Elipse 7182" cx="0.432" cy="0.416" rx="0.432" ry="0.416" transform="translate(1120.951 3583.57)" fill="#263238"/>
    <path id="Trazado_218230" data-name="Trazado 218230" d="M172.016,178.379a.482.482,0,1,0-.366-.549.482.482,0,0,0,.366.549Z" transform="translate(928.689 3404.409)" fill="#263238"/>
    <path id="Trazado_218231" data-name="Trazado 218231" d="M173.846,178.555c.233,0,.316-.416.2-.748s-.382-.549-.615-.482-.316.416-.2.765S173.613,178.638,173.846,178.555Z" transform="translate(924.648 3404.333)" fill="#263238"/>
    <path id="Trazado_218232" data-name="Trazado 218232" d="M172.964,180.249a.481.481,0,0,0-.15-.947.432.432,0,0,0-.349.532A.465.465,0,0,0,172.964,180.249Z" transform="translate(926.627 3405.648)" fill="#263238"/>
    <path id="Trazado_218233" data-name="Trazado 218233" d="M82.84,571.283l37.5-271.711h0l1.047-17.537,93.834-4.455,3.923,14.777c13.165,46.41,79.688,270.83,79.688,270.83l-32.5,10.256-96.743-257.15-45.03,254.54Z" transform="translate(950.078 3470.735)" fill="#263238"/>
    <path id="Trazado_218234" data-name="Trazado 218234" d="M186.682,279.667c.249,0,.482-.515.549-1.2s0-1.263-.3-1.28-.482.515-.549,1.2S186.449,279.65,186.682,279.667Z" transform="translate(889.571 3470.477)" fill="#455a64"/>
    <path id="Trazado_218235" data-name="Trazado 218235" d="M187.1,286.6c.233,0,.549-1.064.682-2.427s0-2.493-.183-2.51-.549,1.064-.682,2.427S186.871,286.58,187.1,286.6Z" transform="translate(888.169 3473.438)" fill="#455a64"/>
    <path id="Trazado_218236" data-name="Trazado 218236" d="M187.7,292.554c.249,0,.549-1.064.7-2.427a4.617,4.617,0,0,0-.166-2.527,4.558,4.558,0,0,0-.7,2.427C187.388,291.39,187.472,292.521,187.7,292.554Z" transform="translate(886.538 3477.371)" fill="#455a64"/>
    <path id="Trazado_218237" data-name="Trazado 218237" d="M188.325,298.487c.249,0,.549-1.064.7-2.427a4.791,4.791,0,0,0-.15-2.51,4.627,4.627,0,0,0-.7,2.427C188.042,297.34,188.092,298.454,188.325,298.487Z" transform="translate(884.853 3481.312)" fill="#455a64"/>
    <path id="Trazado_218238" data-name="Trazado 218238" d="M188.979,304.427c.233,0,.549-1.064.7-2.427s.1-2.477-.15-2.51-.549,1.064-.7,2.427S188.746,304.394,188.979,304.427Z" transform="translate(883.102 3485.245)" fill="#455a64"/>
    <path id="Trazado_218239" data-name="Trazado 218239" d="M189.636,310.367c.249,0,.565-1.064.731-2.427s.083-2.477-.15-2.51-.565,1.047-.715,2.41S189.4,310.334,189.636,310.367Z" transform="translate(881.298 3489.179)" fill="#455a64"/>
    <path id="Trazado_218240" data-name="Trazado 218240" d="M190.34,316.307c.233,0,.565-1.064.731-2.427s.1-2.493-.133-2.51-.565,1.047-.731,2.41S190.107,316.274,190.34,316.307Z" transform="translate(879.431 3493.112)" fill="#455a64"/>
    <path id="Trazado_218241" data-name="Trazado 218241" d="M191.057,322.237c.233,0,.565-1.047.731-2.41s.116-2.493-.133-2.527-.565,1.047-.731,2.41S190.824,322.2,191.057,322.237Z" transform="translate(877.517 3497.04)" fill="#455a64"/>
    <path id="Trazado_218242" data-name="Trazado 218242" d="M191.776,328.16c.249,0,.582-1.047.748-2.41s.116-2.493-.133-2.51-.565,1.047-.731,2.41S191.543,328.127,191.776,328.16Z" transform="translate(875.568 3500.974)" fill="#455a64"/>
    <path id="Trazado_218243" data-name="Trazado 218243" d="M192.553,334.091c.249,0,.582-1.047.748-2.41s.116-2.477-.116-2.51-.565,1.047-.748,2.41S192.254,334.057,192.553,334.091Z" transform="translate(873.544 3504.9)" fill="#455a64"/>
    <path id="Trazado_218244" data-name="Trazado 218244" d="M193.285,340.021c.233,0,.565-1.047.748-2.41s.133-2.477-.116-2.51-.565,1.047-.748,2.41S193.053,339.921,193.285,340.021Z" transform="translate(871.548 3508.828)" fill="#455a64"/>
    <path id="Trazado_218245" data-name="Trazado 218245" d="M194.06,345.96c.233,0,.565-1.047.748-2.41s.133-2.493-.116-2.51-.565,1.031-.748,2.394S193.811,345.96,194.06,345.96Z" transform="translate(869.493 3512.762)" fill="#455a64"/>
    <path id="Trazado_218246" data-name="Trazado 218246" d="M194.824,351.887c.249,0,.582-1.047.765-2.41s.133-2.493-.1-2.527-.582,1.047-.765,2.41S194.591,351.854,194.824,351.887Z" transform="translate(867.417 3516.675)" fill="#455a64"/>
    <path id="Trazado_218247" data-name="Trazado 218247" d="M195.614,357.8c.249,0,.582-1.047.765-2.41s.133-2.477-.1-2.51-.582,1.047-.765,2.41S195.381,357.767,195.614,357.8Z" transform="translate(865.313 3520.603)" fill="#455a64"/>
    <path id="Trazado_218248" data-name="Trazado 218248" d="M196.4,363.737c.233,0,.565-1.047.765-2.41s.133-2.493-.1-2.527-.582,1.047-.765,2.41S196.167,363.7,196.4,363.737Z" transform="translate(863.214 3524.523)" fill="#455a64"/>
    <path id="Trazado_218249" data-name="Trazado 218249" d="M197.209,369.651c.233,0,.582-1.047.765-2.41s.133-2.477-.1-2.51-.582,1.047-.765,2.394S196.96,369.617,197.209,369.651Z" transform="translate(861.075 3528.45)" fill="#455a64"/>
    <path id="Trazado_218250" data-name="Trazado 218250" d="M197.951,375.571c.249,0,.582-1.031.765-2.394a5.487,5.487,0,0,0,0-2.527,4.7,4.7,0,0,0-.765,2.41C197.768,374.424,197.718,375.554,197.951,375.571Z" transform="translate(858.987 3532.37)" fill="#455a64"/>
    <path id="Trazado_218251" data-name="Trazado 218251" d="M198.746,381.491c.233,0,.582-1.047.781-2.394a5.028,5.028,0,0,0,0-2.527,4.5,4.5,0,0,0-.765,2.394C198.58,380.31,198.514,381.457,198.746,381.491Z" transform="translate(856.828 3536.291)" fill="#455a64"/>
    <path id="Trazado_218252" data-name="Trazado 218252" d="M199.627,387.4c.233,0,.582-1.047.781-2.394a4.837,4.837,0,0,0,0-2.527c-.183-.05-.6,1.047-.8,2.394S199.361,387.368,199.627,387.4Z" transform="translate(854.535 3540.205)" fill="#455a64"/>
    <path id="Trazado_218253" data-name="Trazado 218253" d="M200.512,393.294c.233,0,.6-1.031.8-2.394s.183-2.477,0-2.51-.582,1.031-.8,2.394S200.279,393.261,200.512,393.294Z" transform="translate(852.137 3544.119)" fill="#455a64"/>
    <path id="Trazado_218254" data-name="Trazado 218254" d="M201.438,399.2c.233,0,.582-1.031.8-2.394s.183-2.477,0-2.51-.582,1.031-.8,2.394S201.105,399.171,201.438,399.2Z" transform="translate(849.732 3548.033)" fill="#455a64"/>
    <path id="Trazado_218255" data-name="Trazado 218255" d="M202.3,405.1c.233,0,.6-1.031.8-2.377s.183-2.493,0-2.527-.6,1.031-.8,2.394S202.063,405.071,202.3,405.1Z" transform="translate(847.378 3551.94)" fill="#455a64"/>
    <path id="Trazado_218256" data-name="Trazado 218256" d="M203.178,411.021c.249,0,.6-1.047.815-2.394a4.837,4.837,0,0,0,0-2.526c-.166-.05-.6,1.047-.8,2.394S202.945,410.921,203.178,411.021Z" transform="translate(845 3555.847)" fill="#455a64"/>
    <path id="Trazado_218257" data-name="Trazado 218257" d="M204.08,416.954c.249,0,.6-1.031.815-2.394s.183-2.477,0-2.51-.582,1.031-.8,2.394S203.848,416.854,204.08,416.954Z" transform="translate(842.602 3559.788)" fill="#455a64"/>
    <path id="Trazado_218258" data-name="Trazado 218258" d="M205,422.841c.233,0,.582-1.047.8-2.394s.183-2.493,0-2.527-.6,1.031-.814,2.394S204.753,422.791,205,422.841Z" transform="translate(840.2 3563.675)" fill="#455a64"/>
    <path id="Trazado_218259" data-name="Trazado 218259" d="M205.9,428.751c.233,0,.582-1.047.8-2.394s.183-2.493,0-2.527-.6,1.031-.815,2.394S205.653,428.7,205.9,428.751Z" transform="translate(837.804 3567.589)" fill="#455a64"/>
    <path id="Trazado_218260" data-name="Trazado 218260" d="M206.786,434.661c.233,0,.6-1.047.8-2.394s.183-2.493,0-2.527-.6,1.031-.8,2.394S206.553,434.627,206.786,434.661Z" transform="translate(835.424 3571.503)" fill="#455a64"/>
    <path id="Trazado_218261" data-name="Trazado 218261" d="M207.668,440.571c.249,0,.6-1.031.814-2.394a4.794,4.794,0,0,0,0-2.526,4.539,4.539,0,0,0-.8,2.394C207.485,439.39,207.435,440.537,207.668,440.571Z" transform="translate(833.046 3575.417)" fill="#455a64"/>
    <path id="Trazado_218262" data-name="Trazado 218262" d="M208.583,446.474c.249,0,.6-1.031.8-2.394s.183-2.477,0-2.51-.6,1.031-.8,2.394S208.384,446.441,208.583,446.474Z" transform="translate(830.618 3579.337)" fill="#455a64"/>
    <path id="Trazado_218263" data-name="Trazado 218263" d="M209.466,452.4c.233,0,.6-1.031.8-2.394a5.006,5.006,0,0,0,0-2.527,4.629,4.629,0,0,0-.8,2.394C209.25,451.237,209.233,452.367,209.466,452.4Z" transform="translate(828.307 3583.251)" fill="#455a64"/>
    <path id="Trazado_218264" data-name="Trazado 218264" d="M210.416,455.907c.233,0,.5-.5.6-1.18s0-1.263-.249-1.3-.515.5-.615,1.18S210.184,455.874,210.416,455.907Z" transform="translate(826.292 3587.191)" fill="#455a64"/>
    <path id="Trazado_218265" data-name="Trazado 218265" d="M100.6,451.3c-.233,0-.249.665,0,1.313s.549,1.13.781,1.064.249-.665,0-1.313S100.818,451.236,100.6,451.3Z" transform="translate(1118.123 3585.779)" fill="#455a64"/>
    <path id="Trazado_218266" data-name="Trazado 218266" d="M101.96,445.511c-.216.083,0,1.213.366,2.543s.948,2.344,1.18,2.277,0-1.213-.366-2.543S102.193,445.445,101.96,445.511Z" transform="translate(1113.673 3581.945)" fill="#455a64"/>
    <path id="Trazado_218267" data-name="Trazado 218267" d="M103.827,439.742c-.233,0,0,1.2.366,2.527s.964,2.344,1.2,2.261,0-1.2-.382-2.527S104.043,439.659,103.827,439.742Z" transform="translate(1108.697 3578.124)" fill="#455a64"/>
    <path id="Trazado_218268" data-name="Trazado 218268" d="M105.731,434c-.233,0,0,1.2.382,2.527s.981,2.327,1.2,2.261,0-1.213-.382-2.527S105.947,433.871,105.731,434Z" transform="translate(1103.618 3574.32)" fill="#455a64"/>
    <path id="Trazado_218269" data-name="Trazado 218269" d="M107.651,428.212c-.233,0,0,1.2.4,2.527s1,2.327,1.213,2.244,0-1.2-.4-2.527S107.884,428.129,107.651,428.212Z" transform="translate(1098.474 3570.488)" fill="#455a64"/>
    <path id="Trazado_218270" data-name="Trazado 218270" d="M109.6,422.451c-.233.083,0,1.214.4,2.543s1.014,2.327,1.23,2.244,0-1.213-.4-2.527S109.817,422.385,109.6,422.451Z" transform="translate(1093.266 3566.674)" fill="#455a64"/>
    <path id="Trazado_218271" data-name="Trazado 218271" d="M111.567,416.712c-.233.083,0,1.213.416,2.527s1.014,2.327,1.247,2.244,0-1.213-.432-2.527S111.783,416.629,111.567,416.712Z" transform="translate(1087.992 3562.872)" fill="#455a64"/>
    <path id="Trazado_218272" data-name="Trazado 218272" d="M113.574,411c-.216,0,0,1.213.432,2.527s1.031,2.327,1.247,2.244,0-1.213-.432-2.527S113.806,410.887,113.574,411Z" transform="translate(1082.627 3559.089)" fill="#455a64"/>
    <path id="Trazado_218273" data-name="Trazado 218273" d="M115.6,405.241c-.233.083,0,1.213.432,2.527s1.031,2.327,1.263,2.244,0-1.213-.449-2.527S115.813,405.175,115.6,405.241Z" transform="translate(1077.23 3555.277)" fill="#455a64"/>
    <path id="Trazado_218274" data-name="Trazado 218274" d="M117.646,399.522c-.233.083,0,1.213.449,2.527s1.031,2.31,1.263,2.227,0-1.213-.449-2.527S117.863,399.439,117.646,399.522Z" transform="translate(1071.756 3551.488)" fill="#455a64"/>
    <path id="Trazado_218275" data-name="Trazado 218275" d="M119.72,393.812c-.233.083,0,1.2.465,2.51s1.047,2.311,1.263,2.227,0-1.213-.449-2.51S119.937,393.729,119.72,393.812Z" transform="translate(1066.224 3547.707)" fill="#455a64"/>
    <path id="Trazado_218276" data-name="Trazado 218276" d="M121.8,388.1c-.216,0,0,1.213.465,2.51s1.064,2.311,1.28,2.227,0-1.213-.465-2.527S122.036,388.019,121.8,388.1Z" transform="translate(1060.651 3543.925)" fill="#455a64"/>
    <path id="Trazado_218277" data-name="Trazado 218277" d="M123.907,382.392c-.233.083,0,1.213.465,2.527s1.064,2.294,1.3,2.211,0-1.2-.482-2.51S124.123,382.309,123.907,382.392Z" transform="translate(1055.04 3540.144)" fill="#455a64"/>
    <path id="Trazado_218278" data-name="Trazado 218278" d="M126.041,376.7c-.233.083,0,1.2.482,2.51s1.064,2.294,1.28,2.211,0-1.213-.482-2.51S126.257,376.619,126.041,376.7Z" transform="translate(1049.366 3536.375)" fill="#455a64"/>
    <path id="Trazado_218279" data-name="Trazado 218279" d="M128.159,371c-.216.083,0,1.213.482,2.527s1.08,2.294,1.313,2.211,0-1.213-.5-2.527S128.392,371,128.159,371Z" transform="translate(1043.673 3532.603)" fill="#455a64"/>
    <path id="Trazado_218280" data-name="Trazado 218280" d="M130.323,365.323c-.216.083,0,1.2.5,2.51s1.08,2.294,1.3,2.211,0-1.213-.482-2.527S130.556,365.223,130.323,365.323Z" transform="translate(1037.919 3528.838)" fill="#455a64"/>
    <path id="Trazado_218281" data-name="Trazado 218281" d="M132.479,359.632c-.216.083,0,1.213.5,2.527s1.08,2.277,1.313,2.194,0-1.213-.5-2.51S132.712,359.549,132.479,359.632Z" transform="translate(1032.156 3525.071)" fill="#455a64"/>
    <path id="Trazado_218282" data-name="Trazado 218282" d="M134.663,354.007c-.216.083,0,1.213.5,2.527s1.1,2.277,1.313,2.194,0-1.213-.5-2.51S134.879,353.841,134.663,354.007Z" transform="translate(1026.348 3521.338)" fill="#455a64"/>
    <path id="Trazado_218283" data-name="Trazado 218283" d="M136.839,348.282c-.216.083,0,1.213.5,2.51s1.1,2.294,1.33,2.194,0-1.2-.515-2.51S137.055,348.2,136.839,348.282Z" transform="translate(1020.532 3517.555)" fill="#455a64"/>
    <path id="Trazado_218284" data-name="Trazado 218284" d="M139.043,342.6c-.216.1,0,1.213.515,2.527s1.1,2.277,1.313,2.194,0-1.213-.515-2.51S139.226,342.519,139.043,342.6Z" transform="translate(1014.671 3513.793)" fill="#455a64"/>
    <path id="Trazado_218285" data-name="Trazado 218285" d="M141.25,336.943c-.233.083,0,1.2.515,2.51s1.1,2.277,1.313,2.194,0-1.213-.515-2.51S141.466,336.843,141.25,336.943Z" transform="translate(1008.807 3510.044)" fill="#455a64"/>
    <path id="Trazado_218286" data-name="Trazado 218286" d="M143.46,331.272c-.233.083,0,1.213.515,2.51s1.1,2.277,1.313,2.194,0-1.213-.515-2.51S143.676,331.189,143.46,331.272Z" transform="translate(1002.923 3506.29)" fill="#455a64"/>
    <path id="Trazado_218287" data-name="Trazado 218287" d="M145.663,325.6c-.216.1,0,1.213.515,2.527s1.114,2.277,1.33,2.194,0-1.213-.515-2.51S145.9,325.519,145.663,325.6Z" transform="translate(997.03 3502.535)" fill="#455a64"/>
    <path id="Trazado_218288" data-name="Trazado 218288" d="M147.926,319.942c-.233.1,0,1.213.515,2.51s1.1,2.294,1.33,2.194,0-1.213-.532-2.51S148.225,319.859,147.926,319.942Z" transform="translate(991.01 3498.786)" fill="#455a64"/>
    <path id="Trazado_218289" data-name="Trazado 218289" d="M150.123,314.322c-.216.1,0,1.213.582,2.493s1.164,2.261,1.38,2.161,0-1.2-.582-2.493S150.339,314.239,150.123,314.322Z" transform="translate(985.041 3495.064)" fill="#455a64"/>
    <path id="Trazado_218290" data-name="Trazado 218290" d="M152.555,308.834c-.216.116.116,1.213.731,2.46s1.3,2.161,1.513,2.061-.1-1.2-.731-2.444S152.771,308.718,152.555,308.834Z" transform="translate(978.27 3491.427)" fill="#455a64"/>
    <path id="Trazado_218291" data-name="Trazado 218291" d="M155.4,303.7c-.183.15.3,1.18,1.08,2.327s1.662,1.945,1.8,1.828-.283-1.164-1.08-2.327S155.587,303.547,155.4,303.7Z" transform="translate(970.052 3488.02)" fill="#455a64"/>
    <path id="Trazado_218292" data-name="Trazado 218292" d="M159.24,300.937c0,.233.382.565.947.864s1.114.465,1.263.283-.216-.7-.864-1.047S159.306,300.7,159.24,300.937Z" transform="translate(960.431 3486.092)" fill="#455a64"/>
    <g id="Grupo_149363" data-name="Grupo 149363" transform="translate(0 -336)">
      <path id="Trazado_218293" data-name="Trazado 218293" d="M84.947,215.862l59.459-1.662h60.622a14.694,14.694,0,0,1,14.4,14.96v41.224a174.021,174.021,0,0,1-19.781,81.833c-11.2,21.027-28.541,42.67-55.237,56.417-24.551-9.209-42.869-33.794-54.073-54.854a174.02,174.02,0,0,1-19.781-81.833V230.806a14.678,14.678,0,0,1,14.4-14.944Z" transform="translate(1049.917 3764.762)" fill="#f67409"/>
      <path id="Trazado_218294" data-name="Trazado 218294" d="M130.349,289.461l22.008-18.2-7.414-8.976-13.265,10.971L109.987,248.37,101.21,256Z" transform="translate(1066.018 3787.391)" fill="#fff"/>
      <path id="Trazado_218295" data-name="Trazado 218295" d="M84.947,215.862l59.459-1.662h60.622a14.694,14.694,0,0,1,14.4,14.96v41.224a174.021,174.021,0,0,1-19.781,81.833c-11.2,21.027-28.541,42.67-55.237,56.417-24.551-9.209-42.869-33.794-54.073-54.854a174.02,174.02,0,0,1-19.781-81.833V230.806a14.678,14.678,0,0,1,14.4-14.944Zm1.961,59.11A137.568,137.568,0,0,0,102.567,339.7c8.86,16.623,21.892,33.76,43.019,44.648,21.111-10.888,33.661-28.009,42.52-44.648a137.75,137.75,0,0,0,15.609-64.728v-32.53a11.636,11.636,0,0,0-11.37-11.835H98.261a11.636,11.636,0,0,0-11.386,11.835Z" transform="translate(1049.917 3764.762)" opacity="0.39"/>
    </g>
  </g>
</svg>
