<svg id="iconos-de-dinero" xmlns="http://www.w3.org/2000/svg" width="122.498" height="122.498" viewBox="0 0 122.498 122.498">
  <rect id="Rectángulo_45304" data-name="Rectángulo 45304" width="118.38" height="29.337" transform="translate(2.059 2.059)" fill="#54aa13"/>
  <path id="Trazado_218699" data-name="Trazado 218699" d="M104.907,12.541H22.556A10.294,10.294,0,0,1,12.262,22.835v11.1H115.2v-11.1A10.294,10.294,0,0,1,104.907,12.541Z" transform="translate(-2.483 -2.539)" fill="#fff"/>
  <rect id="Rectángulo_45305" data-name="Rectángulo 45305" width="118.38" height="6.176" transform="translate(2.059 25.22)" fill="#5eac24"/>
  <path id="Trazado_218700" data-name="Trazado 218700" d="M73.206,22.222c-7.817,0-14.154,5.857-14.154,13.675H87.36C87.36,28.079,81.023,22.222,73.206,22.222Z" transform="translate(-11.957 -4.5)" fill="#54aa13"/>
  <rect id="Rectángulo_45306" data-name="Rectángulo 45306" width="102.939" height="6.176" transform="translate(9.779 25.22)" fill="#e0e0e2"/>
  <path id="Trazado_218701" data-name="Trazado 218701" d="M60.518,31.624A13.506,13.506,0,0,0,59.052,37.8H87.36a13.506,13.506,0,0,0-1.466-6.176Z" transform="translate(-11.957 -6.403)" fill="#5eac24"/>
  <rect id="Rectángulo_45307" data-name="Rectángulo 45307" width="118.38" height="29.337" transform="translate(2.059 31.397)" fill="#54aa13"/>
  <path id="Trazado_218702" data-name="Trazado 218702" d="M104.907,49.327H22.556A10.294,10.294,0,0,1,12.262,59.621v11.1H115.2v-11.1A10.294,10.294,0,0,1,104.907,49.327Z" transform="translate(-2.483 -9.988)" fill="#fff"/>
  <rect id="Rectángulo_45308" data-name="Rectángulo 45308" width="118.38" height="6.176" transform="translate(2.059 54.557)" fill="#5eac24"/>
  <path id="Trazado_218703" data-name="Trazado 218703" d="M73.206,59.008c-7.817,0-14.154,5.857-14.154,13.675H87.36C87.36,64.865,81.023,59.008,73.206,59.008Z" transform="translate(-11.957 -11.949)" fill="#54aa13"/>
  <rect id="Rectángulo_45309" data-name="Rectángulo 45309" width="102.939" height="6.176" transform="translate(9.779 54.557)" fill="#e0e0e2"/>
  <path id="Trazado_218704" data-name="Trazado 218704" d="M60.518,68.41a13.506,13.506,0,0,0-1.466,6.176H87.36a13.506,13.506,0,0,0-1.466-6.176Z" transform="translate(-11.957 -13.852)" fill="#5eac24"/>
  <rect id="Rectángulo_45310" data-name="Rectángulo 45310" width="118.38" height="59.706" transform="translate(2.059 60.734)" fill="#54aa13"/>
  <path id="Trazado_218705" data-name="Trazado 218705" d="M104.907,86.443H22.556a10.3,10.3,0,0,1-10.294,10.3v23.175a10.3,10.3,0,0,1,10.294,10.3h82.351a10.3,10.3,0,0,1,10.294-10.3V96.743A10.3,10.3,0,0,1,104.907,86.443Z" transform="translate(-2.483 -17.504)" fill="#fff"/>
  <ellipse id="Elipse_7211" data-name="Elipse 7211" cx="14.154" cy="14.161" rx="14.154" ry="14.161" transform="translate(47.095 76.664)" fill="#54aa13"/>
  <path id="Trazado_218706" data-name="Trazado 218706" d="M0,0V25.22H4.118V4.118H118.38v21.1H122.5V0Z"/>
  <path id="Trazado_218707" data-name="Trazado 218707" d="M19.975,9.959v2.059a8.244,8.244,0,0,1-8.235,8.235H9.681v6.984H13.8V24.2A12.385,12.385,0,0,0,23.921,14.077H102.5A12.385,12.385,0,0,0,112.62,24.2v3.038h4.118V20.253h-2.059a8.244,8.244,0,0,1-8.235-8.235V9.959Z" transform="translate(-1.96 -2.017)"/>
  <path id="Trazado_218708" data-name="Trazado 218708" d="M19.975,129.695v2.059h86.469v-2.059a8.248,8.248,0,0,1,8.235-8.241h2.059V94.161h-2.059a8.248,8.248,0,0,1-8.235-8.241V83.861H19.975V85.92a8.247,8.247,0,0,1-8.235,8.241H9.681v27.293h2.059A8.248,8.248,0,0,1,19.975,129.695ZM13.8,98.107A12.388,12.388,0,0,0,23.921,87.979H102.5A12.388,12.388,0,0,0,112.62,98.107v19.4A12.388,12.388,0,0,0,102.5,127.636H23.921A12.389,12.389,0,0,0,13.8,117.508Z" transform="translate(-1.96 -16.981)"/>
  <rect id="Rectángulo_45311" data-name="Rectángulo 45311" width="3.859" height="4.118" transform="translate(35.515 87.48)"/>
  <rect id="Rectángulo_45312" data-name="Rectángulo 45312" width="3.859" height="4.118" transform="translate(83.124 87.48)"/>
  <path id="Trazado_218709" data-name="Trazado 218709" d="M72.683,125.99A16.221,16.221,0,1,0,56.47,109.769,16.236,16.236,0,0,0,72.683,125.99Zm0-28.325a12.1,12.1,0,1,1-12.1,12.1A12.113,12.113,0,0,1,72.683,97.665Z" transform="translate(-11.435 -18.942)"/>
  <path id="Trazado_218710" data-name="Trazado 218710" d="M73.891,115.513q-.324-.172-.6-.338t-.5-.283a1.01,1.01,0,0,0-.454-.116.81.81,0,0,0-.4.106.9.9,0,0,0-.3.264l-.889,1.289a6.051,6.051,0,0,0,1.635,1.062,8.048,8.048,0,0,0,2.034.616l-.185,1.909h1.056a.7.7,0,0,0,.528-.209.778.778,0,0,0,.232-.468l.111-1.159a5.686,5.686,0,0,0,1.909-.459,4.517,4.517,0,0,0,1.408-.969,4.006,4.006,0,0,0,.871-1.367,4.587,4.587,0,0,0,.3-1.655,3.387,3.387,0,0,0-.148-1.043,2.748,2.748,0,0,0-.412-.811,2.922,2.922,0,0,0-.621-.612,5.023,5.023,0,0,0-.769-.459,7.8,7.8,0,0,0-.857-.352q-.445-.153-.889-.283l.324-3.291a4.451,4.451,0,0,1,.542.195l.477.209q.223.1.408.162a1.014,1.014,0,0,0,.334.065.684.684,0,0,0,.384-.106,1.212,1.212,0,0,0,.32-.338l.7-1.029a6.36,6.36,0,0,0-1.223-.885,5.471,5.471,0,0,0-1.723-.6l.185-1.826H76.616a.7.7,0,0,0-.528.212.8.8,0,0,0-.232.476l-.1,1.046a4.8,4.8,0,0,0-1.909.358,4.539,4.539,0,0,0-1.4.916A3.864,3.864,0,0,0,71.576,107a3.632,3.632,0,0,0-.3,1.433,3.7,3.7,0,0,0,.329,1.656,3.231,3.231,0,0,0,.857,1.089,4.315,4.315,0,0,0,1.186.679q.658.251,1.325.437l-.343,3.5A3.524,3.524,0,0,1,73.891,115.513Zm2.788-2.721a2.74,2.74,0,0,1,.894.528,1.1,1.1,0,0,1,.338.844,1.6,1.6,0,0,1-1.529,1.687Zm-2.349-3.74a1.18,1.18,0,0,1-.347-.885,1.27,1.27,0,0,1,.084-.459,1.094,1.094,0,0,1,.264-.394,1.54,1.54,0,0,1,.473-.3,2.972,2.972,0,0,1,.718-.19l-.278,2.8A2.823,2.823,0,0,1,74.331,109.051Z" transform="translate(-14.325 -20.803)"/>
  <path id="Trazado_218711" data-name="Trazado 218711" d="M61.249,19.64A15.856,15.856,0,0,0,45.172,33.315H0v25.22H4.118v-21.1H118.38v21.1H122.5V33.315H77.325A15.856,15.856,0,0,0,61.249,19.64Zm0,4.118a11.817,11.817,0,0,1,11.91,9.557H49.339A11.817,11.817,0,0,1,61.249,23.757Z" transform="translate(0 -3.977)"/>
  <path id="Trazado_218712" data-name="Trazado 218712" d="M19.975,46.746V48.8a8.244,8.244,0,0,1-8.235,8.235H9.681v6.984H13.8V60.986A12.385,12.385,0,0,0,23.921,50.863H102.5A12.385,12.385,0,0,0,112.62,60.986v3.038h4.118V57.04h-2.059a8.244,8.244,0,0,1-8.235-8.235V46.746Z" transform="translate(-1.96 -9.466)"/>
  <path id="Trazado_218713" data-name="Trazado 218713" d="M61.249,56.426A15.856,15.856,0,0,0,45.172,70.1H0v63.822H122.5V70.1H77.325A15.856,15.856,0,0,0,61.249,56.426Zm0,4.118A11.817,11.817,0,0,1,73.159,70.1H49.339A11.817,11.817,0,0,1,61.249,60.544Zm57.131,69.262H4.118V74.219H118.38v55.587Z" transform="translate(0 -11.426)"/>
</svg>
