<svg xmlns="http://www.w3.org/2000/svg" width="387.78" height="335.538" viewBox="0 0 387.78 335.538">
  <g id="Book_lover-rafiki" data-name="Book lover-rafiki" transform="translate(-56.11 -92.021)">
    <g id="freepik--background-simple--inject-2">
      <path id="Trazado_217913" data-name="Trazado 217913" d="M422.69,188.37a93.314,93.314,0,0,1-1,10.8C416.9,230,396.24,262,366.21,273c-17.89,6.53-37.67.42-56.7,1.08-23.93.84-46.76,13-67.89,23.09-28.53,13.65-56.66,24.1-87.73,13.49-25.83-8.83-47.85-30.1-52.27-57.63-4.21-26.19-.67-54.33,7.23-79.51,6.79-21.66,19.44-37,43.25-39.29,15.55-1.51,31,2.42,46.32,5.67,17.28,3.67,39.09,8,55.73-.12C270,132.06,280,114.69,294.3,104.6c23.57-16.65,57-16.28,81.94-1.79C405.88,120,424,154.47,422.69,188.37Z" fill="#e8e8e8"/>
    </g>
    <g id="freepik--Shadow--inject-2">
      <ellipse id="freepik--path--inject-2" cx="193.89" cy="11.32" rx="193.89" ry="11.32" transform="translate(56.11 404.92)" fill="#f5f5f5"/>
    </g>
    <g id="freepik--Character--inject-2">
      <path id="Trazado_217915" data-name="Trazado 217915" d="M196.06,128.43c-6.25,7.63-5.14,14.58-3.37,21-7.73-4.66-14.38,5.81-12.25,10-9.85,6.74-1.33,19.16,9.19,16.15,5,11.53,29.57,12.51,29.45,5.85,20.2,4.53,11.5-17.74,5.38-19.78,8.43-1.6,7.19-11.9,1.42-15.36,6.74-8,3.4-17.66-5.18-18.9C212.88,118.43,201.15,122.22,196.06,128.43Z" fill="#263238"/>
      <path id="Trazado_217916" data-name="Trazado 217916" d="M235.16,187.6c0,4,.16,8.14.46,12.16a75.189,75.189,0,0,0,1.62,11.73c.09.47.22.91.35,1.35l.33,1.15a2,2,0,0,0,.31.7c.22.38,1.61.8,3.29.7a39.911,39.911,0,0,0,11.14-2.79l2.44,4.13c-1,.74-1.85,1.34-2.82,2a23.817,23.817,0,0,1-3,1.69,27.381,27.381,0,0,1-6.75,2.46,15.711,15.711,0,0,1-4.15.33,10.5,10.5,0,0,1-4.86-1.52,9.69,9.69,0,0,1-3.63-4.18l-.25-.57-.16-.42-.32-.85c-.21-.56-.42-1.13-.58-1.69A68.5,68.5,0,0,1,226,200.62c-.22-2.2-.41-4.39-.48-6.59s-.13-4.34-.05-6.65Z" fill="#7f3e3b"/>
      <path id="Trazado_217917" data-name="Trazado 217917" d="M230.67,176.69c8.18,7.17,7,19.57,7,19.57L222,198.93s-3.9-12.8-1.68-17.25C222.66,177,226.06,172.66,230.67,176.69Z" fill="#f67409"/>
      <path id="Trazado_217918" data-name="Trazado 217918" d="M230.67,176.69c8.18,7.17,7,19.57,7,19.57L222,198.93s-3.9-12.8-1.68-17.25C222.66,177,226.06,172.66,230.67,176.69Z" fill="#fff" opacity="0.3"/>
      <path id="Trazado_217919" data-name="Trazado 217919" d="M226.29,188.16l-5.88,4.07c.69,3.64,1.62,6.7,1.62,6.7l5.36-.91a48.44,48.44,0,0,0-1.1-9.86Z" fill="#f67409" opacity="0.4"/>
      <path id="Trazado_217920" data-name="Trazado 217920" d="M251.75,213.46l6-5.3,2.48,9.07s-5,2.26-9.37-.47Z" fill="#7f3e3b"/>
      <path id="Trazado_217921" data-name="Trazado 217921" d="M265.69,207.8l.58,7.08-6,2.35-2.48-9.07Z" fill="#7f3e3b"/>
      <path id="Trazado_217922" data-name="Trazado 217922" d="M167.57,408.57l8.8.85,6.05-20.67-8.81-.85Z" fill="#7f3e3b"/>
      <path id="Trazado_217923" data-name="Trazado 217923" d="M111.52,373.74l6.1,6.54,15.07-14.52-6.11-6.54Z" fill="#7f3e3b"/>
      <path id="Trazado_217924" data-name="Trazado 217924" d="M119.07,380.25l-4.31-9.13a.73.73,0,0,0-.86-.39l-7.72,2.37a1.45,1.45,0,0,0-.83,2c1.56,3.16,2.47,4.6,4.37,8.62,1.16,2.47,3.38,8.11,5,11.52s5.07,2,4.71.44c-1.64-7-1-10.82-.21-13.82A2.32,2.32,0,0,0,119.07,380.25Z" fill="#263238"/>
      <path id="Trazado_217925" data-name="Trazado 217925" d="M177.3,406.74H166.63a.88.88,0,0,0-.84.65l-2.32,8.43a1.33,1.33,0,0,0,1.3,1.69h24.57c3.9,0,4.71-3.94,3.1-4.3-7.23-1.6-11.4-3.8-13.63-5.91a2.18,2.18,0,0,0-1.51-.56Z" fill="#263238"/>
      <path id="Trazado_217926" data-name="Trazado 217926" d="M182.42,388.75l-3.12,10.66h-9.06l3.36-11.5Z" opacity="0.2"/>
      <path id="Trazado_217927" data-name="Trazado 217927" d="M126.58,359.22l6.11,6.54-7.77,7.48-6.11-6.54Z" opacity="0.2"/>
      <path id="Trazado_217928" data-name="Trazado 217928" d="M228.15,175.25s3.78,2-12.68,52.82l-36.1-5.53c2.86-14.6,4.26-23.65,1.85-54.87a108,108,0,0,1,15.64.32,117.116,117.116,0,0,1,16.39,2.51A153.541,153.541,0,0,1,228.15,175.25Z" fill="#f67409"/>
      <path id="Trazado_217929" data-name="Trazado 217929" d="M228.15,175.25s3.78,2-12.68,52.82l-36.1-5.53c2.86-14.6,4.26-23.65,1.85-54.87a108,108,0,0,1,15.64.32,117.116,117.116,0,0,1,16.39,2.51A153.541,153.541,0,0,1,228.15,175.25Z" fill="#fff" opacity="0.3"/>
      <path id="Trazado_217930" data-name="Trazado 217930" d="M201.31,149.79c.23,5.43-.22,15.25-4.45,18.2,0,0,8.43,10.75,12.33,21.49,4.92-6.15,4.06-19,4.06-19-5.67-2.3-4.85-6.64-3.19-10.58Z" fill="#7f3e3b"/>
      <path id="Trazado_217931" data-name="Trazado 217931" d="M204.87,153.92l5.18,6a18.1,18.1,0,0,0-1,2.83c-2.2-.67-5.27-3.2-5.15-5.59a9.66,9.66,0,0,1,.97-3.24Z" opacity="0.2"/>
      <path id="Trazado_217932" data-name="Trazado 217932" d="M197.12,141.05c1.68,8.76,2.21,12.5,7.25,16.46,7.6,6,18,2,19-7.12.87-8.18-2-21.14-11.13-23.53a12.16,12.16,0,0,0-15.12,14.19Z" fill="#7f3e3b"/>
      <path id="Trazado_217933" data-name="Trazado 217933" d="M195.23,132.51c-3.45,5.67,22.2-1.18,23.85-3.55-2.9-3.88-7.93-4.73-13-3.61S196.71,130.08,195.23,132.51Z" fill="#263238"/>
      <path id="Trazado_217934" data-name="Trazado 217934" d="M201.86,130.68c2.7,3.4,4.77,12.75-3.33,17.29-5.07-5.05-4.95-7.83-5.07-10.55S198.9,127,201.86,130.68Z" fill="#263238"/>
      <path id="Trazado_217935" data-name="Trazado 217935" d="M195.93,148.31a6.53,6.53,0,0,0,3.61,3.42c2.14.8,3.41-1.07,3-3.19-.39-1.91-2-4.63-4.2-4.52a2.93,2.93,0,0,0-2.41,4.29Z" fill="#7f3e3b"/>
      <path id="Trazado_217936" data-name="Trazado 217936" d="M215.47,228.07s8.71,55.13-2,92.9c-7.18,25.29-30.38,75.82-30.38,75.82l-15.46-1.42s18.56-53.4,23.06-74.58C198.4,284.55,189,224,189,224Z" fill="#263238"/>
      <path id="Trazado_217937" data-name="Trazado 217937" d="M200.59,238.11,192,249.81a374.38,374.38,0,0,1,1.56,44C205.77,275.06,202.33,248.59,200.59,238.11Z" opacity="0.2"/>
      <path id="Trazado_217938" data-name="Trazado 217938" d="M185.3,397.13l-19.17-.49,1.11-5.89,19.56.92Z" fill="#f67409"/>
      <path id="Trazado_217939" data-name="Trazado 217939" d="M207.57,227s-13.15,55-28.52,86.7c-12.42,25.57-50.48,59.38-50.48,59.38l-8-9.43s26.4-36.23,35.65-53.23c22.67-41.68,9.15-73.54,23.17-87.88Z" fill="#263238"/>
      <path id="Trazado_217940" data-name="Trazado 217940" d="M129.37,374.33l-10.4-11.56,4.02-4.77,11,12.53Z" fill="#f67409"/>
      <path id="Trazado_217941" data-name="Trazado 217941" d="M179.16,220.34l-2.12,3c-.17.23.09.54.51.6l37.85,5.79c.33,0,.62-.07.67-.27l.82-3.18c.06-.22-.2-.45-.55-.51l-36.55-5.59a.66.66,0,0,0-.63.16Z" fill="#f67409"/>
      <path id="Trazado_217942" data-name="Trazado 217942" d="M183.44,225.18l-1-.15c-.19,0-.33-.15-.29-.27l1.1-4.13c0-.12.22-.2.41-.17l1,.15c.2,0,.33.16.3.28L183.85,225C183.82,225.14,183.64,225.21,183.44,225.18Z" fill="#263238"/>
      <path id="Trazado_217943" data-name="Trazado 217943" d="M212.6,229.64l-1-.15c-.2,0-.33-.15-.3-.27l1.1-4.13c0-.12.22-.19.42-.16l1,.14c.2,0,.33.16.3.28l-1.1,4.13C213,229.6,212.79,229.67,212.6,229.64Z" fill="#263238"/>
      <path id="Trazado_217944" data-name="Trazado 217944" d="M198,227.41l-1-.15c-.2,0-.33-.15-.3-.27l1.11-4.13c0-.12.21-.2.41-.17l1,.15c.19,0,.33.16.29.28l-1.1,4.13C198.4,227.37,198.21,227.44,198,227.41Z" fill="#263238"/>
      <path id="Trazado_217945" data-name="Trazado 217945" d="M211.72,141.71c.09.72.55,1.25,1,1.19s.78-.69.68-1.41-.55-1.25-1-1.19S211.63,141,211.72,141.71Z" fill="#263238"/>
      <path id="Trazado_217946" data-name="Trazado 217946" d="M219.85,140.66c.09.72.55,1.25,1,1.19s.78-.69.68-1.41-.55-1.25-1-1.19S219.76,139.94,219.85,140.66Z" fill="#263238"/>
      <path id="Trazado_217947" data-name="Trazado 217947" d="M220.33,139.31l1.66-.72S221.28,140.06,220.33,139.31Z" fill="#263238"/>
      <path id="Trazado_217948" data-name="Trazado 217948" d="M217,142.25a19.65,19.65,0,0,0,3.16,4.26,3.1,3.1,0,0,1-2.5.81Z" fill="#630f0f"/>
      <path id="Trazado_217949" data-name="Trazado 217949" d="M214.12,150.49a5.91,5.91,0,0,1-3.94-1.81.18.18,0,1,1,.27-.23,5.8,5.8,0,0,0,5,1.64.177.177,0,1,1,.05.35,7.719,7.719,0,0,1-1.38.05Z" fill="#263238"/>
      <path id="Trazado_217950" data-name="Trazado 217950" d="M207.65,138.05a.36.36,0,0,1-.18-.07.35.35,0,0,1-.09-.49,4.15,4.15,0,0,1,3.33-1.86.355.355,0,1,1-.02.71A3.45,3.45,0,0,0,208,137.9a.36.36,0,0,1-.35.15Z" fill="#263238"/>
      <path id="Trazado_217951" data-name="Trazado 217951" d="M222.87,135.63a.34.34,0,0,1-.17,0,3.49,3.49,0,0,0-3.12-.42.36.36,0,0,1-.47-.18.35.35,0,0,1,.18-.46,4.12,4.12,0,0,1,3.79.46.32.32,0,0,1-.21.6Z" fill="#263238"/>
      <path id="Trazado_217952" data-name="Trazado 217952" d="M185.53,181.6c-1.5,2.17-3.09,4.39-4.58,6.62s-3,4.43-4.49,6.68-2.86,4.48-4.13,6.73c-.64,1.12-1.25,2.24-1.78,3.33l-.38.81-.1.2v.1h0a1.309,1.309,0,0,0,.06-.27,1.421,1.421,0,0,0,0-.36,2.55,2.55,0,0,0-.34-1.46c-.21-.32-.3-.37-.31-.37a2.41,2.41,0,0,0,.69.47,13.487,13.487,0,0,0,1.44.62,33.429,33.429,0,0,0,3.52,1c2.48.64,5.1,1.1,7.74,1.54,5.28.84,10.71,1.55,16.08,2.17l-.08,4.8a141.929,141.929,0,0,1-16.76.14,84.473,84.473,0,0,1-8.54-.84,39.207,39.207,0,0,1-4.46-1,18.58,18.58,0,0,1-2.41-.82,10.81,10.81,0,0,1-2.82-1.64,7,7,0,0,1-1.65-1.93,6.09,6.09,0,0,1-.79-3.42,6.419,6.419,0,0,1,.12-.88c.06-.25.13-.51.21-.76l.08-.23.06-.14.1-.27.41-1.09c.58-1.41,1.18-2.76,1.83-4.06,1.3-2.59,2.66-5.09,4.12-7.5s2.95-4.78,4.48-7.11,3.13-4.6,4.85-6.87Z" fill="#7f3e3b"/>
      <path id="Trazado_217953" data-name="Trazado 217953" d="M196.24,210.39l7.32-3.29-.25,7.91s-5.07,1.47-7.85-1Z" fill="#7f3e3b"/>
      <path id="Trazado_217954" data-name="Trazado 217954" d="M207.84,207.95l-1.52,6.93-3.01.13.25-7.91Z" fill="#7f3e3b"/>
      <path id="Trazado_217955" data-name="Trazado 217955" d="M186.38,184.42l-4,3.31c.09,3,.11,5.68.08,8.16C184.88,194.25,186.75,187.63,186.38,184.42Z" fill="#f67409" opacity="0.4"/>
      <path id="Trazado_217956" data-name="Trazado 217956" d="M181.22,167.67c-4.5.49-11.57,12.85-11.57,12.85l12.51,12.85s7.6-11.12,7.51-17C189.59,171.47,187,167,181.22,167.67Z" fill="#f67409"/>
      <path id="Trazado_217957" data-name="Trazado 217957" d="M181.22,167.67c-4.5.49-11.57,12.85-11.57,12.85l12.51,12.85s7.6-11.12,7.51-17C189.59,171.47,187,167,181.22,167.67Z" fill="#fff" opacity="0.3"/>
      <path id="Trazado_217958" data-name="Trazado 217958" d="M120.48,385.1a.81.81,0,0,1-.34-.08c-1-.43-1.61-2.44-1.86-3.61a.16.16,0,0,1,.07-.18.17.17,0,0,1,.19,0c.32.19,3.06,1.89,3.08,3a.69.69,0,0,1-.34.61,1.28,1.28,0,0,1-.8.26Zm-1.76-3.34c.39,1.61,1,2.69,1.55,2.93a.82.82,0,0,0,.81-.12.36.36,0,0,0,.19-.31C121.25,383.57,119.66,382.37,118.72,381.76Z" fill="#f67409"/>
      <path id="Trazado_217959" data-name="Trazado 217959" d="M121.1,382.36a6.43,6.43,0,0,1-2.75-.84.16.16,0,0,1-.07-.16.15.15,0,0,1,.1-.14c.1-.05,2.43-1.14,3.61-.63a1.06,1.06,0,0,1,.62.67.7.7,0,0,1-.21.86,2,2,0,0,1-1.3.24Zm-2.26-1c.94.48,2.79.85,3.35.44.09-.07.18-.18.09-.47a.71.71,0,0,0-.43-.45c-.8-.31-2.35.25-3.01.52Z" fill="#f67409"/>
      <path id="Trazado_217960" data-name="Trazado 217960" d="M182,408.46a14.32,14.32,0,0,1-2.91-.37.18.18,0,0,1-.14-.15.17.17,0,0,1,.1-.18c.44-.21,4.31-2,5.28-1.33a.57.57,0,0,1,.26.54,1.3,1.3,0,0,1-.53,1A3.47,3.47,0,0,1,182,408.46Zm-2.3-.6c1.15.21,3.27.49,4.15-.17a.94.94,0,0,0,.38-.74c0-.14,0-.2-.09-.23-.52-.37-2.81.43-4.41,1.14Z" fill="#f67409"/>
      <path id="Trazado_217961" data-name="Trazado 217961" d="M179.16,408.1a.28.28,0,0,1-.12,0,.18.18,0,0,1,0-.18c0-.16.91-4,3-3.73.53.06.67.32.7.53.13,1-2.31,2.93-3.48,3.4Zm2.65-3.61c-1.34,0-2.12,2.22-2.38,3.11,1.26-.66,3-2.25,2.92-2.88,0,0,0-.18-.39-.22Z" fill="#f67409"/>
      <path id="Trazado_217962" data-name="Trazado 217962" d="M212.2,140.36l1.66-.72S213.15,141.11,212.2,140.36Z" fill="#263238"/>
    </g>
    <g id="freepik--Book--inject-2">
      <path id="Trazado_217963" data-name="Trazado 217963" d="M270.17,125.06l108.53,15.6a4,4,0,0,1,3.39,4.53L343,417a4,4,0,0,1-4.53,3.39L230,404.84a4,4,0,0,1-3.39-4.53l39.07-271.86a4,4,0,0,1,4.49-3.39Z" fill="#f67409"/>
      <path id="Trazado_217964" data-name="Trazado 217964" d="M270.17,125.06l108.53,15.6a4,4,0,0,1,3.39,4.53L343,417a4,4,0,0,1-4.53,3.39L230,404.84a4,4,0,0,1-3.39-4.53l39.07-271.86a4,4,0,0,1,4.49-3.39Z" opacity="0.2"/>
      <path id="Trazado_217965" data-name="Trazado 217965" d="M378.19,140.59l.51.07a4,4,0,0,1,3.39,4.53L343,417a4,4,0,0,1-4.53,3.39l-.51-.07a4,4,0,0,1-3.39-4.53L373.66,144a4,4,0,0,1,4.53-3.41Z" opacity="0.3"/>
      <rect id="Rectángulo_45254" data-name="Rectángulo 45254" width="104.87" height="270.78" transform="translate(274.148 131.033) rotate(8.049)" fill="#fff"/>
      <path id="Trazado_217966" data-name="Trazado 217966" d="M273.79,131.58l101,14.51-38.3,266.48L235.27,399.61Z" fill="#f67409" opacity="0.2"/>
      <path id="Trazado_217967" data-name="Trazado 217967" d="M273.79,131.58l98.97,10.94L334.24,410.55l-98.97-10.94Z" fill="#fff"/>
      <path id="Trazado_217968" data-name="Trazado 217968" d="M273.79,131.58l96.23,10.55L330.84,408.82l-95.57-9.21Z" fill="#f67409" opacity="0.2"/>
      <path id="Trazado_217969" data-name="Trazado 217969" d="M273.79,131.58l95.26,9.13L329.55,407.4l-94.28-7.79Z" fill="#fff"/>
      <path id="Trazado_217970" data-name="Trazado 217970" d="M273.79,131.58l91.39,8.76L326.4,405.71l-91.13-6.1Z" fill="#f67409" opacity="0.2"/>
      <path id="Trazado_217971" data-name="Trazado 217971" d="M273.79,131.58l88.43,7.66L323,404.64l-87.73-5.03Z" fill="#fff"/>
      <path id="Trazado_217972" data-name="Trazado 217972" d="M273.79,131.58l82.08,7.11L316.64,404.27l-81.37-4.66Z" fill="#f67409" opacity="0.2"/>
      <rect id="Rectángulo_45255" data-name="Rectángulo 45255" width="1.06" height="6.58" transform="translate(294.246 123.011) rotate(-86.1)" fill="#f67409"/>
      <rect id="Rectángulo_45256" data-name="Rectángulo 45256" width="1.06" height="19.44" transform="translate(307.088 123.887) rotate(-86.1)" fill="#f67409"/>
      <path id="Trazado_217973" data-name="Trazado 217973" d="M348.47,129.36l-86.7-5.9a5.69,5.69,0,0,0-6,4.86l-38.6,268.49a5.69,5.69,0,0,0,5.24,6.48l86.7,5.91a5.69,5.69,0,0,0,6-4.87L353.7,135.85a5.7,5.7,0,0,0-5.23-6.49Z" fill="#f67409"/>
      <path id="Trazado_217974" data-name="Trazado 217974" d="M302.94,400.91h-.24l-77.09-5.25a3.58,3.58,0,0,1-3.29-4.07l37.22-258.95a3.56,3.56,0,0,1,3.77-3l77.09,5.25a3.56,3.56,0,0,1,3.29,4.07L306.48,397.84a3.59,3.59,0,0,1-3.54,3.07ZM263.07,130.63a2.52,2.52,0,0,0-2.48,2.15l-37.22,259a2.53,2.53,0,0,0,2.32,2.86l77.08,5.25a2.54,2.54,0,0,0,2.66-2.15L342.64,138.8a2.48,2.48,0,0,0-.53-1.93,2.51,2.51,0,0,0-1.78-.93l-77.09-5.25Z" fill="#fff" opacity="0.2"/>
    </g>
  </g>
</svg>
