<svg xmlns="http://www.w3.org/2000/svg" width="320.495" height="336.264" viewBox="0 0 320.495 336.264">
  <g id="Back_to_back-pana" data-name="Back to back-pana" transform="translate(-47.5 -40.487)">
    <g id="freepik--background-simple--inject-2" transform="translate(47.5 40.487)">
      <path id="Trazado_217845" data-name="Trazado 217845" d="M354.4,84.718l-1.922-3.164C336.25,54.808,306.909,38.686,275.97,40.648A82.114,82.114,0,0,0,264.1,42.23c-28.131,6.02-52.606,27.292-62.748,54.537-5.965,16.019-7.634,34.467-18.986,47.188-14.682,16.581-39.7,17.1-61.7,16.391s-47.029-.1-61.7,16.518c-9.184,10.4-12.1,25.2-11.36,39.134,1.954,36.9,27.688,69.891,60.367,86.29s71.236,17.855,106.993,10.68c50.13-10.11,97.8-37.861,126.453-80.689S377.338,130.98,354.4,84.718Z" transform="translate(-47.5 -40.487)" fill="#f5f5f5"/>
      <circle id="Elipse_7179" data-name="Elipse 7179" cx="23.163" cy="23.163" r="23.163" transform="matrix(0.233, -0.973, 0.973, 0.233, 28.638, 52.535)" fill="#f5f5f5"/>
    </g>
    <g id="freepik--Table--inject-2" transform="translate(51.052 376.308)">
      <path id="Trazado_217846" data-name="Trazado 217846" d="M365.31,465.237c0,.119-70.152.206-156.632.206s-156.688-.087-156.688-.206,70.1-.237,156.64-.237S365.31,465.127,365.31,465.237Z" transform="translate(-51.99 -465)" fill="#263238"/>
    </g>
    <g id="freepik--character-2--inject-2" transform="translate(202.062 67.322)">
      <path id="Trazado_217847" data-name="Trazado 217847" d="M263.091,89.583c.34-5.941,3.995-9.6,9.121-12.657a18.543,18.543,0,0,1,17.135-.791c3.6,1.709,6.748,4.636,10.7,5.142,6.5.839,12.657-5.189,19.041-3.678a8.457,8.457,0,0,1-.617,16.613c4.256.625,6.669,6,5.095,10.015s-6.044,6.329-10.347,6.424-8.441-1.669-12.159-3.829-7.2-4.746-11.075-6.613-8.346-2.943-12.507-1.835c-5.625,1.5-9.619,6.811-11.075,12.451s-.839,11.6.04,17.356,1.986,11.565,1.432,17.4a2.152,2.152,0,0,1-.791,1.8c-.862.475-1.851-.34-2.492-1.1a85.594,85.594,0,0,1-16.122-29.143c-1.962-6.178-3.046-12.183-.688-18.195s10.284-11.787,15.307-9.335" transform="translate(-243.624 -74.41)" fill="#263238"/>
      <path id="Trazado_217848" data-name="Trazado 217848" d="M260.366,120.435l9.493,58.729c1.78,10.964,8.908,21.557,26.105,17.957h0c14.69-4.248,13.6-14.817,11.684-27.854h0s16.17-4.209,14.722-20.647c-.7-7.911-3.473-24.191-6.155-38.857A30.733,30.733,0,0,0,282.9,84.718l-1.582.158C264.361,87.59,257.186,103.53,260.366,120.435Z" transform="translate(-246.381 -76.531)" fill="#ffbf9d"/>
      <path id="Trazado_217849" data-name="Trazado 217849" d="M314.566,190.539a39.907,39.907,0,0,1-22.016-4.169s6.447,12.214,22.688,9.082Z" transform="translate(-253.259 -97.801)" fill="#ff9a6c"/>
      <path id="Trazado_217850" data-name="Trazado 217850" d="M322.938,136.705a2.373,2.373,0,0,1-2.025,2.587,2.247,2.247,0,0,1-2.626-1.867,2.373,2.373,0,0,1,2.017-2.595,2.255,2.255,0,0,1,2.634,1.875Z" transform="translate(-258.633 -87.026)" fill="#263238"/>
      <path id="Trazado_217851" data-name="Trazado 217851" d="M325.327,126.51c-.261.332-2.175-.791-4.7-.538s-4.24,1.709-4.549,1.424c-.142-.119.095-.7.839-1.369a6.527,6.527,0,0,1,3.607-1.527,6.273,6.273,0,0,1,3.773.791C325.137,125.83,325.454,126.36,325.327,126.51Z" transform="translate(-258.167 -84.868)" fill="#263238"/>
      <path id="Trazado_217852" data-name="Trazado 217852" d="M293.048,138.609a2.373,2.373,0,0,1-2.017,2.595,2.255,2.255,0,0,1-2.634-1.9,2.373,2.373,0,0,1,2.025-2.595,2.255,2.255,0,0,1,2.626,1.9Z" transform="translate(-252.389 -87.419)" fill="#263238"/>
      <path id="Trazado_217853" data-name="Trazado 217853" d="M294.028,130.26c-.261.332-2.168-.791-4.691-.538s-4.248,1.709-4.549,1.424c-.15-.127.087-.7.839-1.376a6.463,6.463,0,0,1,3.607-1.519,6.234,6.234,0,0,1,3.773.791C293.839,129.579,294.155,130.109,294.028,130.26Z" transform="translate(-251.629 -85.651)" fill="#263238"/>
      <path id="Trazado_217854" data-name="Trazado 217854" d="M309.576,147.755c0-.142,1.511-.57,4.019-1.147.641-.134,1.234-.324,1.3-.791a3.243,3.243,0,0,0-.617-1.867q-1.147-2.239-2.373-4.746c-3.354-6.716-5.846-12.27-5.577-12.4s3.212,5.205,6.558,11.929c.791,1.653,1.582,3.235,2.326,4.746a3.789,3.789,0,0,1,.585,2.5,1.582,1.582,0,0,1-.965,1.044,4.351,4.351,0,0,1-1.076.269C311.182,147.723,309.6,147.9,309.576,147.755Z" transform="translate(-256.133 -85.355)" fill="#263238"/>
      <path id="Trazado_217855" data-name="Trazado 217855" d="M293.037,117.835c-.182.7-2.737.633-5.656,1.289s-5.237,1.7-5.7,1.131c-.206-.277.15-.965,1.044-1.732a9.627,9.627,0,0,1,4.114-1.914,9.738,9.738,0,0,1,4.533.071C292.507,117.012,293.108,117.494,293.037,117.835Z" transform="translate(-250.977 -83.178)" fill="#263238"/>
      <path id="Trazado_217856" data-name="Trazado 217856" d="M323.389,117.357c-.38.617-2.183.2-4.272.38s-3.821.791-4.288.214c-.214-.277,0-.878.728-1.5a6.226,6.226,0,0,1,6.906-.483C323.254,116.487,323.563,117.057,323.389,117.357Z" transform="translate(-257.897 -82.922)" fill="#263238"/>
      <path id="Trazado_217857" data-name="Trazado 217857" d="M261.09,145.052c-.293-.095-11.613-2.207-10.126,8.987s12.412,7.389,12.388,7.064S261.09,145.052,261.09,145.052Z" transform="translate(-244.543 -89.124)" fill="#ffbf9d"/>
      <path id="Trazado_217858" data-name="Trazado 217858" d="M260.149,158.354c-.055,0-.182.158-.49.356a1.946,1.946,0,0,1-1.448.221c-1.242-.277-2.492-2.025-2.808-4.034a6.479,6.479,0,0,1,.174-2.864,2.239,2.239,0,0,1,1.266-1.685.981.981,0,0,1,1.226.4c.2.293.15.522.214.538s.214-.221.063-.672a1.234,1.234,0,0,0-.53-.641,1.479,1.479,0,0,0-1.115-.142,2.777,2.777,0,0,0-1.812,2,6.748,6.748,0,0,0-.261,3.212c.372,2.247,1.812,4.2,3.489,4.454a2.12,2.12,0,0,0,1.748-.53C260.165,158.655,260.188,158.362,260.149,158.354Z" transform="translate(-245.318 -90.156)" fill="#ff9a6c"/>
      <path id="Trazado_217859" data-name="Trazado 217859" d="M314.447,93.681a21.555,21.555,0,0,0-7.7-7.246,36.785,36.785,0,0,0-21.984-5.458,29.958,29.958,0,0,0-20.093,10,31.643,31.643,0,0,0-7.048,16.739,46.42,46.42,0,0,0,1.725,18.195c.736,2.595,1.732,5.261,3.781,7.017,1.282,1.092,3.346,1.693,4.572.538a4.5,4.5,0,0,0,1.044-2.721c1.289-8.884,2.484-18.408-1.527-26.438a26.019,26.019,0,0,1,7.017-7.911A13.448,13.448,0,0,1,284.3,93.974c5.158,1.044,8.7,5.6,13.069,8.583a23.8,23.8,0,0,0,21.541,2.626Z" transform="translate(-245.91 -75.763)" fill="#263238"/>
      <path id="Trazado_217860" data-name="Trazado 217860" d="M311.185,161.5a10.948,10.948,0,0,1-.839,3.085,3.742,3.742,0,0,1-2.31,2.073,3.362,3.362,0,0,1-3.125-.941,5.4,5.4,0,0,1-1.456-3.03c-.166-1.02.047-2.318,1.02-2.642a2.571,2.571,0,0,1,1.274,0l5.712,1.028" transform="translate(-255.527 -92.285)" fill="#ff9a6c"/>
      <path id="Trazado_217861" data-name="Trazado 217861" d="M309.817,166.154a7.824,7.824,0,0,1-2.88.237,4.09,4.09,0,0,1-2.524-1.479,4.375,4.375,0,0,1-.791-3.433,3.6,3.6,0,0,1,.3-.878c.158-.261.127-.245.356-.261a4.895,4.895,0,0,1,.91.158l.941.166c1.218.221,2.326.4,3.251.546a10,10,0,0,0,3.046.269,9.971,9.971,0,0,0-2.911-.933c-.91-.221-2-.483-3.212-.744l-.933-.206a9.951,9.951,0,0,0-1.044-.2,1.25,1.25,0,0,0-.791.19,1.448,1.448,0,0,0-.483.577,4.7,4.7,0,0,0-.38,1.123,5.015,5.015,0,0,0,1.036,4.177,4.6,4.6,0,0,0,3.164,1.582,4.264,4.264,0,0,0,2.294-.388C309.643,166.431,309.849,166.2,309.817,166.154Z" transform="translate(-255.353 -92.165)" fill="#263238"/>
      <path id="Trazado_217862" data-name="Trazado 217862" d="M327.562,81.37a3,3,0,0,1,.221.744,7.175,7.175,0,0,1,.071,2.2,10.284,10.284,0,0,1-4.058,6.874c-2.753,2.191-7.12,3.069-11.589,2.373s-9.089-2.808-13.836-4.746-9.572-3.283-13.978-2.476a17.641,17.641,0,0,0-9.975,5.7,23.543,23.543,0,0,0-4.264,6.677c-.72,1.748-.965,2.769-1.044,2.753a3.535,3.535,0,0,1,.142-.791,20,20,0,0,1,.633-2.1,22.514,22.514,0,0,1,4.145-6.922,17.989,17.989,0,0,1,10.244-6.02c4.564-.878,9.612.483,14.382,2.46s9.256,4.129,13.654,4.746,8.528-.1,11.186-2.128a10.284,10.284,0,0,0,4.066-6.439A11.453,11.453,0,0,0,327.562,81.37Z" transform="translate(-248.362 -75.864)" fill="#455a64"/>
      <path id="Trazado_217863" data-name="Trazado 217863" d="M250.126,120.641a7.91,7.91,0,0,1,.435-3.093,19.365,19.365,0,0,1,6.329-9.738,7.056,7.056,0,0,1,3.069-1.582,3.742,3.742,0,0,1,2.373.269c.5.253.688.514.657.546a4.335,4.335,0,0,0-2.887-.309c-1.756.451-3.734,2.373-5.538,4.557a22.435,22.435,0,0,0-3.481,6.439C250.427,119.478,250.245,120.657,250.126,120.641Z" transform="translate(-244.393 -81.04)" fill="#455a64"/>
      <path id="Trazado_217864" data-name="Trazado 217864" d="M253.88,132.559a8.639,8.639,0,0,1,.633-3.077,20.916,20.916,0,0,1,9.588-11.471,8.7,8.7,0,0,1,2.919-1.171,30.7,30.7,0,0,1-2.65,1.582A23.985,23.985,0,0,0,255,129.632,30.066,30.066,0,0,1,253.88,132.559Z" transform="translate(-245.18 -83.275)" fill="#455a64"/>
      <path id="Trazado_217865" data-name="Trazado 217865" d="M330.08,216.82s12,15.481,14.888,21.3,23.582,70.057,23.582,70.057l-8.979,3.773Z" transform="translate(-261.1 -104.163)" fill="#455a64"/>
      <path id="Trazado_217866" data-name="Trazado 217866" d="M269.05,196.45v-7.76l43.6,14.184,11.676,18.693,9,26.113L308.1,209.748Z" transform="translate(-248.349 -98.286)" fill="#ebebeb"/>
      <path id="Trazado_217867" data-name="Trazado 217867" d="M260.988,205.252s-18.5,22.15-18.1,36.516c.4,14.168,19.611,100.261,19.611,100.261l-4.651,15.386-5.039,51.277H357.626l-7.294-105.055c-1.163-.063-22.941-60.209-22.941-60.209l-24.42-33.85L262.823,195.11Z" transform="translate(-242.882 -99.627)" fill="#455a64"/>
      <path id="Trazado_217868" data-name="Trazado 217868" d="M366.74,300.665s7.333-.285,11.162,1.424,7.064.854,9.77,6.147,5.87,7.689,6.534,15.719-8.006,26.635-13.733,29.27S366.74,300.665,366.74,300.665Z" transform="translate(-268.759 -121.677)" fill="#455a64"/>
      <g id="Grupo_149341" data-name="Grupo 149341" transform="translate(15.986 174.606)" opacity="0.3">
        <path id="Trazado_217869" data-name="Trazado 217869" d="M263.09,298.785s42.852,40.226,48.3,44.071,6.257,28.17,12.974,28.637,28.479-15.632,28.479-15.632L288.381,295.13Z" transform="translate(-263.09 -295.13)"/>
      </g>
      <path id="Trazado_217870" data-name="Trazado 217870" d="M336.241,345.28s-9.319,11.922-10.387,14.912-2.1,4.976-.965,5.973a2.919,2.919,0,0,0,3.267.688c1.519-.585,9.01-10.466,9.01-10.466S327.231,370.555,326.78,373s1.5,3.631,3.773,3.2,6.613-6.827,6.613-6.827-6.147,7.12-4.849,8.322a3.661,3.661,0,0,0,4.5.5c1.709-.854,6.044-6.471,6.044-6.471s-2.99,3.164-1.353,3.955,1.78.87,3.2-.309S358.7,361.924,358.7,361.924l-7.911-5.427Z" transform="translate(-259.912 -131.002)" fill="#ffbf9d"/>
      <path id="Trazado_217871" data-name="Trazado 217871" d="M341.407,354.49a16.774,16.774,0,0,1-1.456,1.993l-3.639,4.746c-1.424,1.843-2.761,3.481-3.773,4.636a12.569,12.569,0,0,1-1.709,1.788,16.43,16.43,0,0,1,1.487-1.978l3.671-4.7c1.424-1.843,2.745-3.5,3.734-4.667a12.98,12.98,0,0,1,1.685-1.819Z" transform="translate(-261.257 -132.926)" fill="#ff9a6c"/>
      <path id="Trazado_217872" data-name="Trazado 217872" d="M349.842,361.71a151.55,151.55,0,0,1-10.252,12.1,75.6,75.6,0,0,1,4.968-6.186,77.832,77.832,0,0,1,5.284-5.917Z" transform="translate(-263.087 -134.435)" fill="#ff9a6c"/>
      <path id="Trazado_217873" data-name="Trazado 217873" d="M356.4,366.24a76.71,76.71,0,0,1-5.205,5.988,75.584,75.584,0,0,1-5.538,5.712,78.072,78.072,0,0,1,5.205-5.988A73.791,73.791,0,0,1,356.4,366.24Z" transform="translate(-264.355 -135.381)" fill="#ff9a6c"/>
      <path id="Trazado_217874" data-name="Trazado 217874" d="M268.008,225.079c6.02-1.274,13.662-1.8,19.484,1.5l31.793,28.684s44.814,50.273,46.57,53.073,4.121,19.35-2.666,27.783-14.445,5.189-23.147,3.2c-6.89-1.582-55.074-36.983-74.883-51.689a37.813,37.813,0,0,1-14.081-20.568,45.637,45.637,0,0,1-1.582-16.344" transform="translate(-244.23 -105.683)" fill="#455a64"/>
      <path id="Trazado_217875" data-name="Trazado 217875" d="M249.47,250.736s0,.285-.055.831-.079,1.353-.095,2.421a46.412,46.412,0,0,0,.934,9.266,48.662,48.662,0,0,0,1.74,6.492,36.612,36.612,0,0,0,3.473,7.2,37.971,37.971,0,0,0,5.751,7.12,73.012,73.012,0,0,0,8.069,6.424c11.676,8.6,25.591,18.812,41.262,29.847,3.955,2.753,7.958,5.538,12.111,8.354s8.425,5.648,12.926,8.259a34.985,34.985,0,0,0,3.473,1.756,9.949,9.949,0,0,0,1.859.562l1.93.467a53.465,53.465,0,0,0,7.824,1.582,13.179,13.179,0,0,0,7.76-1.416,15.948,15.948,0,0,0,5.743-5.64,27.72,27.72,0,0,0,3.275-13,41.629,41.629,0,0,0-.269-6.669c-.134-1.092-.316-2.183-.546-3.251a10.443,10.443,0,0,0-1.068-3.03c-1.3-1.709-2.769-3.354-4.153-5l-4.209-4.857-8.267-9.43L319.132,255.34h0l-31.754-28.732h0a20.22,20.22,0,0,0-8.14-2.373,34.7,34.7,0,0,0-6.234.055c-1.669.166-2.935.38-3.781.522l-.949.174c-.214.04-.324.047-.324.047s.427-.1,1.266-.277,2.1-.388,3.781-.57a34.372,34.372,0,0,1,6.257-.1,20.41,20.41,0,0,1,8.227,2.373h0l31.841,28.629h0c8.923,9.991,18.986,21.319,29.863,33.636l8.275,9.43,4.208,4.857c1.408,1.653,2.84,3.259,4.193,5.039a4.963,4.963,0,0,1,.4.791c.111.261.19.522.285.791.182.53.3,1.068.435,1.582.237,1.084.419,2.183.554,3.291a42.376,42.376,0,0,1,.277,6.732,28.167,28.167,0,0,1-3.338,13.2,16.28,16.28,0,0,1-5.894,5.791,13.631,13.631,0,0,1-7.99,1.456,53.1,53.1,0,0,1-7.911-1.582l-1.93-.467a10.619,10.619,0,0,1-1.914-.577,34.222,34.222,0,0,1-3.52-1.8c-4.525-2.626-8.781-5.482-12.942-8.275s-8.2-5.617-12.111-8.377c-15.671-11.075-29.57-21.288-41.223-29.918a74.486,74.486,0,0,1-8.077-6.471A38.162,38.162,0,0,1,255.2,277a37.037,37.037,0,0,1-3.457-7.246,48.25,48.25,0,0,1-1.717-6.534,44.926,44.926,0,0,1-.854-9.3A26.105,26.105,0,0,1,249.47,250.736Z" transform="translate(-244.195 -105.661)" fill="#263238"/>
      <path id="Trazado_217876" data-name="Trazado 217876" d="M333.672,249.591l-.182-.111-.506-.38c-.427-.34-1.107-.791-1.9-1.5-1.638-1.329-3.876-3.394-6.558-6.028s-5.783-5.87-9.311-9.366c-1.772-1.732-3.631-3.56-5.664-5.332a58.872,58.872,0,0,0-6.566-5.134c-.965-.7-2.009-1.226-2.982-1.819l-.142-.087V219.7c.166-.72.332-1.432.49-2.128l.134.237-24.318-7.65-7.207-2.31-1.93-.641-.506-.174-.166-.071h.182l.506.142,1.962.57,7.246,2.2,24.389,7.531.174.055-.04.182c-.158.7-.316,1.408-.483,2.128l-.1-.222c.989.6,2.049,1.139,3.014,1.835a57.7,57.7,0,0,1,6.605,5.174c2.041,1.788,3.9,3.623,5.672,5.371,3.512,3.52,6.59,6.764,9.248,9.422s4.857,4.746,6.455,6.115c.791.712,1.432,1.195,1.851,1.582l.483.4A1,1,0,0,1,333.672,249.591Z" transform="translate(-247.787 -102.103)" fill="#263238"/>
      <path id="Trazado_217877" data-name="Trazado 217877" d="M365.868,290.51a13.539,13.539,0,0,1-.894-1.622l-2.286-4.541c-1.914-3.853-4.525-9.176-7.389-15.078s-5.427-11.257-7.262-15.141c-.886-1.914-1.622-3.473-2.152-4.612-.229-.514-.419-.933-.562-1.266a1.956,1.956,0,0,1-.174-.451,1.882,1.882,0,0,1,.245.419c.166.316.38.728.633,1.226.562,1.123,1.337,2.666,2.27,4.557,1.914,3.9,4.509,9.216,7.373,15.086l7.278,15.133,2.175,4.6A18.213,18.213,0,0,1,365.868,290.51Z" transform="translate(-264.249 -110.636)" fill="#263238"/>
      <path id="Trazado_217878" data-name="Trazado 217878" d="M277.709,407.506h.285l.791.055,3.164.253,11.565,1,39.008,3.5-.221.245-2.539-10.189c-.4-1.582-.791-3.164-1.171-4.746l.182.158-43.667-5.071.135-.071c-2.563,4.549-4.541,8.211-5.83,10.767-.641,1.274-1.108,2.27-1.392,2.959a5.856,5.856,0,0,0-.269.791.9.9,0,0,0-.039.277,2.009,2.009,0,0,1,.237-1.1c.261-.7.712-1.717,1.337-3.006,1.25-2.571,3.164-6.257,5.719-10.83l.047-.079h.087l43.683,4.928h.142v.142l1.171,4.746c.854,3.481,1.7,6.89,2.508,10.157l.071.277h-.285l-39.087-3.655L281.814,407.9l-3.085-.316-.791-.087A.793.793,0,0,1,277.709,407.506Z" transform="translate(-250.157 -140.851)" fill="#263238"/>
      <g id="Grupo_149342" data-name="Grupo 149342" transform="translate(28.967 266.789)" opacity="0.3">
        <path id="Trazado_217879" data-name="Trazado 217879" d="M279.5,411.66l1.875,4.873L332.85,419.6v-3.069Z" transform="translate(-279.5 -411.66)"/>
      </g>
    </g>
    <g id="freepik--character-1--inject-2" transform="translate(97.549 82.465)">
      <path id="Trazado_217880" data-name="Trazado 217880" d="M177.529,99.887c-.158-2.753-2.444-5.055-5.071-5.886a13.3,13.3,0,0,0-8.124.459c-5.7,1.891-10.5,5.767-15.149,9.572-7.223,5.893-14.239,13.994-16.992,22.941-2.081,6.708-2.682,11.075-.546,18.195,1.883,6.329,3.378,12.428,3.006,17.712-.593,8.346-1.582,10.284-3.75,18.5-1.337,5.118,3.228,18.511,3.228,18.511L163,188.811c10.284-4.841,32.481-13.875,32.481-13.875Z" transform="translate(-114.85 -93.552)" fill="#263238"/>
      <path id="Trazado_217881" data-name="Trazado 217881" d="M165.166,201.4c.047-7.025.119-11.914.111-11.866s-12.6-2.911-15.141-20.884a177.994,177.994,0,0,1-.965-35.092c.862-10.743,8.219-23.819,18.915-22.506l33.32,9.034c3.251.4,4.335,3.164,4.216,6.447l.245,1.535L203.422,179.4l1.052,21.826c-.427,9.754-10.07,18.622-19.824,19.065h0A18.606,18.606,0,0,1,165.166,201.4Z" transform="translate(-118.696 -97.19)" fill="#b56760"/>
      <path id="Trazado_217882" data-name="Trazado 217882" d="M158.83,157.091a2.3,2.3,0,0,0,2.175,2.373,2.2,2.2,0,0,0,2.373-2.033,2.3,2.3,0,0,0-2.175-2.373,2.2,2.2,0,0,0-2.373,2.033Z" transform="translate(-120.808 -106.401)" fill="#263238"/>
      <path id="Trazado_217883" data-name="Trazado 217883" d="M154.991,149.141c.277.3,2.041-.957,4.517-.91s4.264,1.321,4.541,1.02c.134-.134-.15-.68-.933-1.266a6.265,6.265,0,0,0-3.623-1.187,6.036,6.036,0,0,0-3.607,1.092C155.126,148.461,154.857,149,154.991,149.141Z" transform="translate(-120 -104.676)" fill="#263238"/>
      <path id="Trazado_217884" data-name="Trazado 217884" d="M188.1,156.751a2.3,2.3,0,0,0,2.175,2.373,2.2,2.2,0,0,0,2.373-2.033,2.286,2.286,0,0,0-2.168-2.373,2.191,2.191,0,0,0-2.381,2.033Z" transform="translate(-126.923 -106.329)" fill="#263238"/>
      <path id="Trazado_217885" data-name="Trazado 217885" d="M184.991,149.051c.285.3,2.049-.957,4.525-.91s4.264,1.321,4.541,1.02c.134-.134-.15-.68-.933-1.266a6.265,6.265,0,0,0-3.623-1.187,6.083,6.083,0,0,0-3.607,1.092C185.126,148.371,184.857,148.909,184.991,149.051Z" transform="translate(-126.267 -104.658)" fill="#263238"/>
      <path id="Trazado_217886" data-name="Trazado 217886" d="M170.8,167.881a17.219,17.219,0,0,0-4.011-.791c-.625-.079-1.226-.214-1.321-.649a3.164,3.164,0,0,1,.451-1.859l1.954-4.786c2.713-6.8,4.683-12.4,4.406-12.507s-2.69,5.324-5.4,12.127c-.657,1.677-1.282,3.275-1.875,4.81a3.623,3.623,0,0,0-.372,2.468,1.582,1.582,0,0,0,1.02.949,4.469,4.469,0,0,0,1.076.166C169.235,167.984,170.785,168.024,170.8,167.881Z" transform="translate(-122.005 -104.779)" fill="#263238"/>
      <path id="Trazado_217887" data-name="Trazado 217887" d="M169.631,208.716a45.637,45.637,0,0,0,24.12-6s-6.273,12.554-24.191,10.569Z" transform="translate(-123.05 -116.36)" fill="#8a4a43"/>
      <path id="Trazado_217888" data-name="Trazado 217888" d="M183.995,138.029c.293.657,2.729.166,5.656.316s5.316.791,5.656.15c.15-.3-.3-.9-1.289-1.487a9.849,9.849,0,0,0-8.615-.356C184.367,137.151,183.868,137.713,183.995,138.029Z" transform="translate(-126.062 -102.385)" fill="#263238"/>
      <path id="Trazado_217889" data-name="Trazado 217889" d="M154.111,139.335c.506.57,2.531,0,4.952,0s4.477.451,4.96-.127c.214-.285-.1-.854-.989-1.4a7.816,7.816,0,0,0-4.019-.989,7.7,7.7,0,0,0-3.955,1.06C154.182,138.473,153.89,139.05,154.111,139.335Z" transform="translate(-119.808 -102.591)" fill="#263238"/>
      <path id="Trazado_217890" data-name="Trazado 217890" d="M173.133,180.413a5.15,5.15,0,0,1,4.794-2.191h.174a2.579,2.579,0,0,1,1.9,4.327A4.549,4.549,0,0,1,177.627,184a4.3,4.3,0,0,1-3.52-.4A2.563,2.563,0,0,1,173.133,180.413Z" transform="translate(-123.752 -111.236)" fill="#8a4a43"/>
      <path id="Trazado_217891" data-name="Trazado 217891" d="M179.656,176.29c-.119,0-.269.625-.728,1.582a7.658,7.658,0,0,1-6.218,4.319c-1.02.111-1.677,0-1.7.15s.609.38,1.725.419a6.954,6.954,0,0,0,6.716-4.675C179.807,177,179.751,176.3,179.656,176.29Z" transform="translate(-123.353 -110.838)" fill="#263238"/>
      <path id="Trazado_217892" data-name="Trazado 217892" d="M147.311,152.6l-3.71-15.03c-3.338-4.6-.736-12.119,1.63-17.285s6.874-9.129,11.866-11.8,10.561-4.185,16.083-5.538a30.741,30.741,0,0,1-13.25,16.715s-9.121,6.273-10.806,13.63C147.35,141.347,147.311,152.6,147.311,152.6Z" transform="translate(-117.295 -95.513)" fill="#263238"/>
      <path id="Trazado_217893" data-name="Trazado 217893" d="M174.606,111.8l26.161,15.719a85.023,85.023,0,0,0,5.577,23.527c4.826-4.129,7.808,3.829,9.256-2.286.079-.324-1.329,12.823-6.384,13.235l-.791,14.295,24.95-6.139s-1.345-17.324-5.6-27.838c-2.65-6.534-4.05-12.016-6.661-18.566-1.986-4.96-5.5-12.372-8.14-15.9-5.664-7.571-26.651-7.911-26.651-7.911-9.248,2.183-3.022,1.147-10.814,6.6l-2.658,7.12" transform="translate(-123.738 -94.885)" fill="#263238"/>
      <path id="Trazado_217894" data-name="Trazado 217894" d="M215.18,163a5.28,5.28,0,0,1,7.46-4.818c1.883.941,3.4,2.943,3.457,6.954.142,10.7-10.822,8.646-10.846,8.338S215.2,167.424,215.18,163Z" transform="translate(-132.581 -106.948)" fill="#b56760"/>
      <path id="Trazado_217895" data-name="Trazado 217895" d="M219.4,170.226c.047,0,.2.127.514.269a1.97,1.97,0,0,0,1.424,0c1.147-.435,2.088-2.239,2.112-4.169a6.1,6.1,0,0,0-.562-2.658,2.2,2.2,0,0,0-1.448-1.408.973.973,0,0,0-1.115.53c-.142.3-.071.506-.127.53s-.237-.174-.158-.617a1.234,1.234,0,0,1,.419-.68,1.44,1.44,0,0,1,1.044-.285,2.65,2.65,0,0,1,2.009,1.63,6.225,6.225,0,0,1,.7,2.967c0,2.16-1.131,4.193-2.705,4.659a2.057,2.057,0,0,1-1.74-.261C219.422,170.487,219.366,170.249,219.4,170.226Z" transform="translate(-133.461 -107.796)" fill="#8a4a43"/>
      <path id="Trazado_217896" data-name="Trazado 217896" d="M187.071,99.9a2.974,2.974,0,0,1-.451.641c-.324.388-.791.926-1.456,1.582-1.266,1.274-3.093,2.959-5.118,4.8s-3.845,3.52-5.142,4.746a28.968,28.968,0,0,1-2.1,1.993,2.761,2.761,0,0,1,.467-.625c.324-.388.791-.926,1.432-1.582,1.25-1.305,3.046-3.022,5.071-4.865l5.2-4.746C186.3,100.691,187.023,99.86,187.071,99.9Z" transform="translate(-123.727 -94.878)" fill="#455a64"/>
      <path id="Trazado_217897" data-name="Trazado 217897" d="M154.05,109.356a5.183,5.183,0,0,1,.7-.791,20.674,20.674,0,0,1,2.175-1.986,23.993,23.993,0,0,1,8.646-4.351,9.493,9.493,0,0,1,5.356-.071,5.316,5.316,0,0,1,3.33,2.808,4.1,4.1,0,0,1,.15,2.943,2.777,2.777,0,0,1-.364.728q-.166.222-.19.214a8.7,8.7,0,0,0,.4-.989,4.137,4.137,0,0,0-.269-2.777,5.039,5.039,0,0,0-3.164-2.563,9.35,9.35,0,0,0-5.142.1,25.409,25.409,0,0,0-8.567,4.185C155.134,108.288,154.105,109.411,154.05,109.356Z" transform="translate(-119.81 -95.277)" fill="#455a64"/>
      <path id="Trazado_217898" data-name="Trazado 217898" d="M146.49,122.264a4.366,4.366,0,0,1,.68-.791c.459-.475,1.139-1.155,1.993-1.97a37.655,37.655,0,0,1,7.341-5.632,15.552,15.552,0,0,1,4.746-1.843,6.123,6.123,0,0,1,4.137.617,4.517,4.517,0,0,1,1.9,2.088,3.433,3.433,0,0,1,.2.791,1.013,1.013,0,0,1,0,.269c-.047,0-.079-.364-.356-.957a4.557,4.557,0,0,0-1.891-1.9,5.933,5.933,0,0,0-3.955-.5,15.711,15.711,0,0,0-4.644,1.835,42.386,42.386,0,0,0-7.341,5.482l-2.081,1.867A5.442,5.442,0,0,1,146.49,122.264Z" transform="translate(-118.23 -97.386)" fill="#455a64"/>
      <path id="Trazado_217899" data-name="Trazado 217899" d="M223.678,178.047a3.734,3.734,0,1,1-1.183-2.6,3.734,3.734,0,0,1,1.183,2.6Z" transform="translate(-132.797 -110.451)" fill="#455a64"/>
      <path id="Trazado_217900" data-name="Trazado 217900" d="M133.1,314.05c-.894.593-10.759,2.982-13.148,9.263s-15.078,19.033-5.893,31.485L133.1,344.237Z" transform="translate(-110.767 -139.62)" fill="#f67409"/>
      <path id="Trazado_217901" data-name="Trazado 217901" d="M114.069,354.819h0a16.4,16.4,0,0,1-3.117-7.223,17.269,17.269,0,0,1,.411-6.993c1.131-4.517,3.7-8.7,5.767-12.119a36.806,36.806,0,0,0,2.832-5.174c1.954-5.134,8.9-7.673,11.866-8.757A9.951,9.951,0,0,0,133.1,314h0v30.235h0ZM133.1,314.071a12.037,12.037,0,0,1-1.266.506c-2.959,1.076-9.9,3.615-11.866,8.7a36.034,36.034,0,0,1-2.832,5.182c-2.065,3.386-4.636,7.594-5.759,12.111a17.15,17.15,0,0,0-.411,6.969,16.414,16.414,0,0,0,3.093,7.191l18.986-10.553Z" transform="translate(-110.767 -139.61)" fill="#263238"/>
      <path id="Trazado_217902" data-name="Trazado 217902" d="M166.8,238.27l1.558-21.541,39.206-16.359,1.392,8.037L182.25,222Z" transform="translate(-122.474 -115.869)" fill="#e0e0e0"/>
      <path id="Trazado_217903" data-name="Trazado 217903" d="M197.894,204.54s-24.017,9.714-34.673,19.207c-10.015,8.923-30.852,44.11-33.083,53.706s-1.8,36.136-1.8,36.136-.055,27.387-.055,28.059-17.174,44.846-14.057,68.934h97.959s2.9-33.921-3.789-47.085-6.922-10.49-6.922-10.49,4.019-4.462,3.576-8.48a17.4,17.4,0,0,0-2.9-7.357l17.182-53.556s1.78-27-2.9-45.091c-4.367-16.913-6.028-15.956-11.486-21.375-.119-.111.071.15,0,0l-4.992-4.09Z" transform="translate(-111.411 -116.74)" fill="#f67409"/>
      <path id="Trazado_217904" data-name="Trazado 217904" d="M139,407.564c-.3-1.155,7.42-14.864,7.42-14.864l44.3,7.436,3.077,12.436Z" transform="translate(-116.663 -156.052)" fill="#f67409"/>
      <path id="Trazado_217905" data-name="Trazado 217905" d="M139,407.522h.293l.791.055,3.164.253,11.573,1.013,38.976,3.489-.221.245c-.744-3.014-1.527-6.178-2.326-9.39-.253-1.028-.506-2.057-.791-3.046l.166.15-44.261-7.5.142-.071c-2.563,4.541-4.533,8.211-5.822,10.759-.649,1.274-1.115,2.278-1.4,2.967a5.757,5.757,0,0,0-.277.791.432.432,0,0,0,0,.277,2.223,2.223,0,0,1,.245-1.108c.261-.7.712-1.709,1.337-3,1.25-2.579,3.164-6.265,5.719-10.83l.047-.079h.095l44.3,7.365h.134v.127l.751,3.046c.791,3.22,1.582,6.384,2.326,9.4l.071.277h-.285l-39.079-3.655-11.526-1.115-3.093-.316-.791-.087a1,1,0,0,1-.261-.016Z" transform="translate(-116.662 -156.01)" fill="#263238"/>
      <g id="Grupo_149343" data-name="Grupo 149343" transform="translate(12.842 151.805)" opacity="0.3">
        <path id="Trazado_217906" data-name="Trazado 217906" d="M127,363.885l.989,8.021c7.056,5,17.04,4.05,24.594-.174s13.156-11.162,18.329-18.092c15.7-21,29.38-43.683,38.707-68.19C185.294,314.664,151.579,334.868,127,363.885Z" transform="translate(-127 -285.45)"/>
      </g>
      <path id="Trazado_217907" data-name="Trazado 217907" d="M203.421,232.849c8.219,6.542,15.386,27.015,2.658,44.711,0,0-55.612,75.453-64.821,81.481s-21.6,2.476-25.148-6.376-2.128-17.356,2.832-23.376,37.552-63.412,37.552-63.412,7.428-26.6,20.093-34.317" transform="translate(-111.472 -122.386)" fill="#f67409"/>
      <path id="Trazado_217908" data-name="Trazado 217908" d="M176.512,231.55l-.57.4a19.733,19.733,0,0,0-1.645,1.226,33.091,33.091,0,0,0-5.363,5.854c-4.1,5.585-8.7,14.73-12.388,26.9h0c-7.12,12.586-16.075,28.257-26.469,45.882-2.618,4.383-5.3,8.908-8.2,13.448-.791,1.123-1.44,2.286-2.278,3.386-.4.562-.791,1.107-1.226,1.638a19.23,19.23,0,0,0-1.131,1.7A21.572,21.572,0,0,0,115.5,335.7a21.84,21.84,0,0,0-.981,4.042,23.685,23.685,0,0,0,.356,8.4c.158.7.324,1.392.546,2.073s.451,1.361.7,2.033.593,1.3.894,1.946l.585.9a6.1,6.1,0,0,0,.633.87,15.458,15.458,0,0,0,7.12,4.881,18.242,18.242,0,0,0,8.7.752,17.957,17.957,0,0,0,7.491-3.061,52.344,52.344,0,0,0,5.735-5.735c3.591-4.034,6.985-8.14,10.284-12.2,6.582-8.132,12.776-16.1,18.646-23.732s11.384-14.9,16.526-21.731l7.42-9.9,3.481-4.675c1.123-1.535,2.294-2.99,3.228-4.541a35.6,35.6,0,0,0,4.414-9.311c.214-.791.427-1.582.633-2.326s.293-1.543.435-2.3a34.918,34.918,0,0,0-1.994-18.9,27.948,27.948,0,0,0-4.691-8.021,13.909,13.909,0,0,0-.933-1.052l-.752-.7c-.4-.372-.6-.577-.6-.577s.222.182.633.546l.791.68c.309.269.593.649.957,1.044a27.545,27.545,0,0,1,4.746,8.021,36.6,36.6,0,0,1,2.547,14.524,37.087,37.087,0,0,1-.459,4.47c-.142.791-.221,1.582-.427,2.318s-.419,1.582-.641,2.373a35.6,35.6,0,0,1-4.446,9.39c-.941,1.582-2.112,3.022-3.228,4.564l-3.473,4.683q-3.56,4.746-7.4,9.92c-5.126,6.835-10.64,14.129-16.494,21.755s-12.048,15.6-18.63,23.732c-3.3,4.066-6.685,8.18-10.284,12.214-.894,1.013-1.827,2.009-2.769,2.99a29.21,29.21,0,0,1-3.03,2.808,18.3,18.3,0,0,1-7.673,3.164,18.559,18.559,0,0,1-8.931-.791,15.821,15.821,0,0,1-7.262-5.015,5.647,5.647,0,0,1-.657-.894l-.6-.926c-.309-.672-.672-1.321-.926-2.009s-.514-1.361-.7-2.057-.388-1.4-.546-2.1a21.85,21.85,0,0,1,2.429-16.446c.364-.593.736-1.179,1.155-1.732s.839-1.092,1.226-1.638c.791-1.076,1.519-2.247,2.27-3.362,2.887-4.533,5.577-9.05,8.2-13.448,10.4-17.57,19.365-33.225,26.556-45.787h0c3.686-12.175,8.385-21.3,12.531-26.9a31.7,31.7,0,0,1,5.435-5.822,18.657,18.657,0,0,1,1.669-1.2C176.306,231.669,176.512,231.55,176.512,231.55Z" transform="translate(-111.412 -122.383)" fill="#263238"/>
      <path id="Trazado_217909" data-name="Trazado 217909" d="M153.184,304.2s-1.432-3.742-4.3-4.24a44.141,44.141,0,0,0-8.393,0s-2.437,1.835-2.413,4.351a18.115,18.115,0,0,0,.514,4.272,2.913,2.913,0,0,0-4.636-.142c-2.634,2.555-4.944,7.737-4.944,7.737s-3.5,1.123-4.841,2.824a15.513,15.513,0,0,0-2.128,4.454,5.712,5.712,0,0,0-2.421,5.474,7.12,7.12,0,0,0,3.718,5.292s10.45,7.7,11.724,6.7,3.892-2.563.134-5.893l-6.115-5.419,1.772-2.737s10.229,7.033,11.866,6.692,4.43-.4,3.283-2.919-10.7-9.881-10.7-9.881l1.131-3.955s11.075,7.484,12.871,6.289,3.425-1.756,1.582-4.224-9.825-8.362-9.825-8.362l3.267-3.054S152.06,308.814,153.184,304.2Z" transform="translate(-112.607 -136.63)" fill="#b56760"/>
      <path id="Trazado_217910" data-name="Trazado 217910" d="M204.1,215.31l-.277.079-.791.221c-.712.182-1.764.459-3.117.846a111.543,111.543,0,0,0-11.241,3.765c-1.163.467-2.373.981-3.6,1.582-.617.293-1.242.593-1.867.933-.309.174-.633.332-.941.514a8.337,8.337,0,0,0-.894.593,49.782,49.782,0,0,0-6.629,6.613c-4.335,5.007-8.757,10.814-13.282,16.969s-8.7,12.151-12.459,17.617c-1.875,2.737-3.631,5.348-5.261,7.808a64.559,64.559,0,0,0-4.2,7.017,79.547,79.547,0,0,0-4.4,11c-.435,1.337-.744,2.373-.949,3.085l-.229.791a1.584,1.584,0,0,1-.095.277,1.094,1.094,0,0,1,.055-.285l.19-.791c.182-.712.467-1.764.87-3.109a75.824,75.824,0,0,1,4.3-11.075,63.671,63.671,0,0,1,4.177-7.072c1.582-2.476,3.37-5.095,5.229-7.84,3.734-5.482,7.911-11.463,12.444-17.641s8.963-11.969,13.33-16.984a48.58,48.58,0,0,1,6.716-6.629c.293-.229.617-.411.926-.617s.641-.34.957-.514c.625-.34,1.258-.641,1.883-.926,1.242-.585,2.452-1.1,3.623-1.582a103.11,103.11,0,0,1,11.312-3.655c1.361-.364,2.421-.609,3.164-.791l.791-.174a1.424,1.424,0,0,1,.269-.032Z" transform="translate(-115.594 -118.991)" fill="#263238"/>
      <path id="Trazado_217911" data-name="Trazado 217911" d="M208.159,379.65a8.7,8.7,0,0,1-1.226-.7c-.791-.459-1.875-1.179-3.2-2.1a74.733,74.733,0,0,1-17.855-17.76c-.933-1.321-1.661-2.413-2.128-3.164a9.909,9.909,0,0,1-.7-1.226,8.373,8.373,0,0,1,.791,1.131c.506.752,1.266,1.812,2.231,3.109a83.735,83.735,0,0,0,17.791,17.7c1.3.957,2.373,1.709,3.117,2.207a9.986,9.986,0,0,1,1.179.807Z" transform="translate(-125.869 -148.113)" fill="#263238"/>
      <g id="Grupo_149344" data-name="Grupo 149344" transform="translate(23.774 251.647)" opacity="0.3">
        <path id="Trazado_217912" data-name="Trazado 217912" d="M140.82,411.66l1.337,4.873,50.138-.166Z" transform="translate(-140.82 -411.66)"/>
      </g>
    </g>
  </g>
</svg>
