<svg xmlns="http://www.w3.org/2000/svg" width="431.607" height="420.741" viewBox="0 0 431.607 420.741">
  <g id="Instruction_manual-pana" data-name="Instruction manual-pana" transform="translate(-26.78 -38.53)">
    <g id="freepik--background-simple--inject-2" transform="translate(48.167 38.53)">
      <path id="Trazado_217975" data-name="Trazado 217975" d="M53.5,109.134l1.431-4.1C66.969,70.482,96.6,44.872,132.468,39.555a94.588,94.588,0,0,1,13.941-1.025c33.644,0,66.833,18.369,85.076,47.063,10.741,16.87,17.151,37.559,33.209,49.306,20.892,15.333,49.634,9.822,74.625,3.664s53.772-11.6,74.606,3.867c13.042,9.668,19.993,25.881,22.545,42,6.767,42.683-14.589,86.7-47.981,113.441s-77.071,37.82-119.764,38.3c-59.8.677-121.118-19.423-164.352-61.458S38.575,167.652,53.5,109.134Z" transform="translate(-48.902 -38.53)" fill="#ebebeb"/>
    </g>
    <g id="freepik--Floor--inject-2" transform="translate(26.78 444.179)">
      <path id="Trazado_217976" data-name="Trazado 217976" d="M458.387,458.371c0,.145-96.677.251-215.794.251s-215.813-.106-215.813-.251,96.6-.251,215.813-.251S458.387,458.236,458.387,458.371Z" transform="translate(-26.78 -458.12)" fill="#263238"/>
    </g>
    <g id="freepik--Manual--inject-2" transform="translate(114.176 60.708)">
      <path id="Trazado_217977" data-name="Trazado 217977" d="M118.41,64.57H393.2a10.4,10.4,0,0,1,10.4,10.393V434.216a10.4,10.4,0,0,1-10.4,10.4H118.41Z" transform="translate(-117.221 -61.573)" fill="#f67409"/>
      <g id="Grupo_149345" data-name="Grupo 149345" transform="translate(1.189 2.997)" opacity="0.3">
        <path id="Trazado_217978" data-name="Trazado 217978" d="M118.41,64.57H393.2a10.4,10.4,0,0,1,10.4,10.393V434.216a10.4,10.4,0,0,1-10.4,10.4H118.41Z" transform="translate(-118.41 -64.57)"/>
      </g>
      <rect id="Rectángulo_45257" data-name="Rectángulo 45257" width="152.46" height="368.273" transform="translate(126.019 14.763)" fill="#e0e0e0"/>
      <path id="Trazado_217979" data-name="Trazado 217979" d="M117.18,61.47H372.563a10.4,10.4,0,0,1,10.4,10.4V434.113a10.4,10.4,0,0,1-10.4,10.4H117.18Z" transform="translate(-117.18 -61.47)" fill="#f67409"/>
      <path id="Trazado_217980" data-name="Trazado 217980" d="M145.431,445.2c-.145,0-.251-85.908-.251-191.856s.106-191.876.251-191.876.251,85.888.251,191.876S145.567,445.2,145.431,445.2Z" transform="translate(-118.11 -61.47)" fill="#263238"/>
      <path id="Trazado_217981" data-name="Trazado 217981" d="M152.851,445.2c-.135,0-.251-85.908-.251-191.856s.116-191.876.251-191.876.251,85.888.251,191.876S152.987,445.2,152.851,445.2Z" transform="translate(-118.357 -61.47)" fill="#263238"/>
      <g id="Grupo_149346" data-name="Grupo 149346" transform="translate(27.321)" opacity="0.3">
        <rect id="Rectángulo_45258" data-name="Rectángulo 45258" width="7.183" height="383.732"/>
      </g>
      <path id="Trazado_218000" data-name="Trazado 218000" d="M395.991,76.74c.135,0,.251,81.557.251,182.14s-.116,182.16-.251,182.16-.251-81.538-.251-182.16S395.875,76.74,395.991,76.74Z" transform="translate(-126.435 -61.977)" fill="#263238"/>
      <path id="Trazado_218001" data-name="Trazado 218001" d="M400.491,76.74c.135,0,.251,81.557.251,182.14s-.116,182.16-.251,182.16-.251-81.538-.251-182.16S400.346,76.74,400.491,76.74Z" transform="translate(-126.585 -61.977)" fill="#263238"/>
      <path id="Trazado_218002" data-name="Trazado 218002" d="M396.03,131.55h10.577l9.668,7.328L407.6,147.54H396.03Z" transform="translate(-126.445 -63.798)" fill="#455a64"/>
      <rect id="Rectángulo_45259" data-name="Rectángulo 45259" width="19.974" height="13.303" transform="translate(273.907 99.152)" fill="#f67409"/>
      <path id="Trazado_218017" data-name="Trazado 218017" d="M353.239,413.841c0,.145-36.293.251-81.045.251s-81.054-.106-81.054-.251,36.283-.251,81.054-.251S353.239,413.706,353.239,413.841Z" transform="translate(-119.637 -73.169)" fill="#fff"/>
      <path id="Trazado_218018" data-name="Trazado 218018" d="M327.176,421.831c0,.135-23.87.251-53.3.251s-53.308-.116-53.308-.251,23.87-.251,53.308-.251S327.176,421.686,327.176,421.831Z" transform="translate(-120.615 -73.435)" fill="#fff"/>
      <rect id="Rectángulo_45260" data-name="Rectángulo 45260" width="12.771" height="12.771" transform="translate(146.167 355.812)" fill="#e0e0e0"/>
    </g>
    <g id="freepik--Character--inject-2" transform="translate(61.397 114.237)">
      <path id="Trazado_218019" data-name="Trazado 218019" d="M129.136,440.052,126.448,459.6s18.958,9.291,18.813,12.945l-38.072-3.867,2.9-30.618Z" transform="translate(-64.068 -127.511)" fill="#455a64"/>
      <path id="Trazado_218020" data-name="Trazado 218020" d="M115.057,457.4a1.557,1.557,0,0,0-1.247,1.663,1.5,1.5,0,0,0,1.634,1.257,1.653,1.653,0,0,0,1.324-1.769,1.566,1.566,0,0,0-1.856-1.121" transform="translate(-64.288 -128.154)" fill="#e0e0e0"/>
      <g id="Grupo_149350" data-name="Grupo 149350" transform="translate(43.122 338.121)" opacity="0.6">
        <path id="Trazado_218021" data-name="Trazado 218021" d="M107.19,469.654l.416-3.074,36.351,4.834s1.624.909,1.305,2.079Z" transform="translate(-107.19 -466.58)" fill="#fff"/>
      </g>
      <path id="Trazado_218022" data-name="Trazado 218022" d="M127.644,460.191c0,.184-.967.174-1.934.686s-1.537,1.237-1.7,1.141.222-1.131,1.411-1.731S127.7,460,127.644,460.191Z" transform="translate(-64.626 -128.238)" fill="#263238"/>
      <path id="Trazado_218023" data-name="Trazado 218023" d="M131.634,462.327c0,.184-.812.416-1.527,1.141s-.967,1.537-1.16,1.508-.193-1.092.706-1.934S131.644,462.143,131.634,462.327Z" transform="translate(-64.788 -128.315)" fill="#263238"/>
      <path id="Trazado_218024" data-name="Trazado 218024" d="M133.564,467.4c-.174,0-.338-.967.242-1.934s1.5-1.286,1.557-1.121-.532.648-.967,1.45S133.758,467.4,133.564,467.4Z" transform="translate(-64.939 -128.383)" fill="#263238"/>
      <path id="Trazado_218025" data-name="Trazado 218025" d="M127.755,455.49c-.1.164-.967-.174-1.934-.213s-1.934.213-1.992.048.773-.754,2.021-.7S127.861,455.355,127.755,455.49Z" transform="translate(-64.621 -128.062)" fill="#263238"/>
      <path id="Trazado_218026" data-name="Trazado 218026" d="M76.207,303.23s-6.99,49.615-3.471,57.726c2.717,6.274,7.531,9,13.69,10.586,8.885,2.282,23.135,3.915,23.135,3.915l4.834-28.588L103.537,344.5l10-35.568L95.813,296.82Z" transform="translate(-62.891 -122.819)" fill="#263238"/>
      <path id="Trazado_218027" data-name="Trazado 218027" d="M114.629,308.867l-8.759,137.06,24.169,1.228,10.76-67.993s11.485-56.073,12.268-62.927,0-21.414,0-21.414Z" transform="translate(-64.024 -122.752)" fill="#263238"/>
      <path id="Trazado_218028" data-name="Trazado 218028" d="M113.973,320.42a1.189,1.189,0,0,1,0,.271v.793c0,.725-.058,1.74-.106,3.026-.126,2.63-.319,6.439-.6,11.137-.551,9.4-1.469,22.381-2.417,36.737-.435,7.173-.851,14-1.228,20.225s-1.054,11.785-1.518,16.435-.822,8.479-1.025,11.1c-.1,1.286-.174,2.291-.232,3.026a2.646,2.646,0,0,1-.068.783.812.812,0,0,1,0,.261v-1.054c0-.7.068-1.711.145-3.026.145-2.63.425-6.439.86-11.128s.967-10.267,1.411-16.435.7-13.051,1.189-20.215c.967-14.318,1.934-27.273,2.562-36.737.319-4.669.58-8.459.754-11.128.1-1.286.164-2.291.213-3.026a2.646,2.646,0,0,1,.068-.783,1.286,1.286,0,0,1-.01-.261Z" transform="translate(-64.055 -123.603)" fill="#455a64"/>
      <path id="Trazado_218029" data-name="Trazado 218029" d="M108.085,332.74a4.186,4.186,0,0,1-.145,1.073c-.135.686-.348,1.682-.638,2.9-.57,2.427-1.489,5.8-2.717,9.378s-2.533,6.816-3.558,9.1c-.512,1.141-.967,2.059-1.266,2.678a4.216,4.216,0,0,1-.541.967,5.037,5.037,0,0,1,.367-1.025c.3-.754.677-1.663,1.112-2.736.967-2.311,2.185-5.52,3.413-9.126s2.185-6.9,2.9-9.31l.783-2.842a4.583,4.583,0,0,1,.29-1.054Z" transform="translate(-63.803 -124.012)" fill="#455a64"/>
      <path id="Trazado_218030" data-name="Trazado 218030" d="M98.632,178.453l-5.8,4.631s-18.465,3.3-20.041,6.178l6,37.047,4.66,31.788s-6.98,18.746-7.173,26.654,0,14.5,0,14.5h3.461a31.242,31.242,0,0,1,21.621,8.7l.005.005,6.371-5.8,1.247,11s25,1.537,31.362-3.287,14.995-15.053,14.995-15.053,1.489-25.658-6.12-38.613-9.523-15.642-9.523-15.642,2.707-22.352,2.707-23.125,2.311-31.265,2.311-31.265l-19.181-4.834-5.549-4.244Z" transform="translate(-62.925 -118.84)" fill="#455a64"/>
      <g id="Grupo_149351" data-name="Grupo 149351" transform="translate(19.749 130.106)" opacity="0.3">
        <path id="Trazado_218031" data-name="Trazado 218031" d="M83.116,262.354A10.741,10.741,0,0,0,92,265.08c2.137-.29,4.2-1.208,6.361-1.179,3.152.048,5.868,2.059,8.614,3.6a31.691,31.691,0,0,0,19.635,3.693c7.734-1.073,14.821-4.989,21.395-9.233a4.737,4.737,0,0,0,1.305-1.092,2.987,2.987,0,0,0-.174-3.461,5.008,5.008,0,0,0-3.161-1.779c-2.2-.416-4.457.126-6.661.483a41.514,41.514,0,0,1-14.212-.126c-5.955-1.083-11.6-3.461-17.634-4.263a34.524,34.524,0,0,0-19.742,3.21,10.8,10.8,0,0,0-3.548,2.485,6.69,6.69,0,0,0-1.063,4.94" transform="translate(-83.014 -251.416)"/>
      </g>
      <path id="Trazado_218032" data-name="Trazado 218032" d="M104.7,199.34a.967.967,0,0,1,0,.29,5.122,5.122,0,0,0,.058.87l.232,3.345c.155,2.9.387,7.125.667,12.278.512,10.4,1.228,24.72,2.011,40.527.184,3.954.367,7.821.541,11.553s.358,7.328.348,10.77c0,1.721,0,3.4-.155,5.027a44.39,44.39,0,0,0-.29,4.708c0,3.036.251,5.9.2,8.488a52.976,52.976,0,0,0,.6,6.961c.213,2.05.435,3.8.609,5.25s.28,2.533.367,3.326a8.039,8.039,0,0,0,.077.87,1.769,1.769,0,0,1,0,.3,1.712,1.712,0,0,1-.068-.3,6.808,6.808,0,0,0-.126-.86l-.454-3.306-.7-5.25c-.242-2.05-.551-4.37-.677-6.98,0-2.61-.232-5.424-.261-8.5,0-1.537.164-3.123.261-4.737s.145-3.287.135-5c0-3.422-.193-7.019-.377-10.751s-.367-7.6-.551-11.553c-.735-15.807-1.392-30.125-1.866-40.527-.213-5.163-.387-9.349-.5-12.288,0-1.421-.087-2.543-.116-3.335v-.87A1.115,1.115,0,0,1,104.7,199.34Z" transform="translate(-63.984 -119.58)" fill="#263238"/>
      <path id="Trazado_218033" data-name="Trazado 218033" d="M79.6,196.622l-.561,38.806,2.9,6.767-2.407,18.485-9.774-5.491a13.854,13.854,0,0,1-7.1-13.535v-.126c.9-7.521,2.388-19.509,3.635-27.118,1.934-11.775,3.287-21.037,6.178-24.7Z" transform="translate(-62.586 -119.26)" fill="#455a64"/>
      <path id="Trazado_218034" data-name="Trazado 218034" d="M147.047,186.479s5.6-1.15,8.5,12.355,5.211,37.047,5.211,37.047a1.934,1.934,0,0,1,1.15,2.9s-.387,12.713-1.934,14.25l-16.116-9.513-1.837-2.678Z" transform="translate(-65.225 -119.152)" fill="#455a64"/>
      <path id="Trazado_218035" data-name="Trazado 218035" d="M80.11,262.227l21.646-2.407,1.663-10.528-21.23-1.7Z" transform="translate(-63.168 -121.183)" fill="#9d6054"/>
      <path id="Trazado_218036" data-name="Trazado 218036" d="M108.07,194.049a7.628,7.628,0,0,1-.725,1.112c-.561.764-1.276,1.73-2.117,2.9l-3.19,4.283a.657.657,0,0,1-.474.28.8.8,0,0,1-.5-.164,4.834,4.834,0,0,1-.609-.541,12.946,12.946,0,0,1-1.141-1.16,21.182,21.182,0,0,1-2.059-2.726A20.96,20.96,0,0,1,94.1,186.653a17.459,17.459,0,0,1,.416-3.587,6.961,6.961,0,0,1,.377-1.266,32.783,32.783,0,0,0-.435,4.834,20.728,20.728,0,0,0,5.221,13.777,15.405,15.405,0,0,0,1.1,1.141,6.188,6.188,0,0,0,.541.5c.193.106.232.116.358,0,1.2-1.6,2.33-3.016,3.258-4.205l2.253-2.8A6,6,0,0,1,108.07,194.049Z" transform="translate(-63.633 -118.997)" fill="#263238"/>
      <path id="Trazado_218037" data-name="Trazado 218037" d="M126.756,181.49a1.092,1.092,0,0,1,.058.4,11.086,11.086,0,0,1,0,1.121,15.6,15.6,0,0,1-.619,4.109,42.365,42.365,0,0,1-2.243,5.723,56.293,56.293,0,0,1-3.577,6.622c-.706,1.141-1.412,2.233-2.1,3.287-.174.261-.338.522-.512.773a4.68,4.68,0,0,1-.58.793.783.783,0,0,1-.609.184.967.967,0,0,1-.512-.261,5.056,5.056,0,0,1-.58-.706l-3.6-4.9-2.446-3.326a8.3,8.3,0,0,1-.841-1.266,10.288,10.288,0,0,1,.967,1.141c.657.841,1.528,1.934,2.572,3.239l3.77,4.834c.338.454.744.967.967.7a5.106,5.106,0,0,0,.493-.686l.5-.783c.686-1.054,1.382-2.146,2.079-3.277a60.575,60.575,0,0,0,3.587-6.545,49.383,49.383,0,0,0,2.33-5.636,22.594,22.594,0,0,0,.889-5.53Z" transform="translate(-64.115 -118.987)" fill="#263238"/>
      <path id="Trazado_218038" data-name="Trazado 218038" d="M95.4,197.049c0,.087-1.025.261-2.581.967a13.138,13.138,0,0,0-5.153,4.292l-.145.2-.213-.155a13.041,13.041,0,0,0-1.692-1.063,13.583,13.583,0,0,0-7.87-1.518,31.032,31.032,0,0,0-3.316.725,2.843,2.843,0,0,1,.822-.416,11.863,11.863,0,0,1,2.446-.657,13.158,13.158,0,0,1,8.179,1.441A13.809,13.809,0,0,1,87.617,202h-.358a12.626,12.626,0,0,1,5.433-4.3,11.2,11.2,0,0,1,1.934-.6,2.166,2.166,0,0,1,.773-.048Z" transform="translate(-62.98 -119.503)" fill="#263238"/>
      <path id="Trazado_218039" data-name="Trazado 218039" d="M145.692,199.45a8.111,8.111,0,0,0-3.6-.967,9.967,9.967,0,0,0-3.964.744,27.368,27.368,0,0,0-4.418,2.388l-.464.29-.193.126-.135-.184a11.07,11.07,0,0,0-7.415-4.06,17.189,17.189,0,0,0-3.606.106,3.471,3.471,0,0,1,.967-.29,9.744,9.744,0,0,1,2.688-.164,11.128,11.128,0,0,1,3.867,1.025,10.751,10.751,0,0,1,3.867,3.084l-.338-.058.464-.3a24.751,24.751,0,0,1,4.525-2.4,9.977,9.977,0,0,1,4.147-.667,6.767,6.767,0,0,1,2.736.735A2.436,2.436,0,0,1,145.692,199.45Z" transform="translate(-64.557 -119.516)" fill="#263238"/>
      <path id="Trazado_218040" data-name="Trazado 218040" d="M139.548,286.62a4.235,4.235,0,0,1-.377.319l-1.131.822-.831.58c-.309.2-.667.4-1.034.619a26.708,26.708,0,0,1-2.581,1.421l-1.537.744c-.541.251-1.121.454-1.721.706a40.283,40.283,0,0,1-3.867,1.324,43.2,43.2,0,0,1-18.6,1.1c-1.421-.271-2.775-.493-4.012-.86-.619-.164-1.218-.3-1.789-.493l-1.615-.561a25.64,25.64,0,0,1-2.726-1.1c-.4-.174-.764-.329-1.1-.493l-.889-.483-1.228-.677c-.271-.164-.416-.251-.406-.271a2.108,2.108,0,0,1,.454.184l1.266.59.909.445c.329.145.706.29,1.112.454.793.309,1.682.715,2.726,1.025l1.615.522c.561.174,1.16.3,1.779.454,1.228.348,2.572.551,3.973.812a49.365,49.365,0,0,0,9.262.416,47.737,47.737,0,0,0,9.155-1.518c1.363-.416,2.668-.773,3.867-1.266.59-.232,1.17-.425,1.711-.667l1.537-.706c.967-.425,1.837-.967,2.591-1.344.377-.213.735-.387,1.054-.58l.841-.541,1.189-.744a2.049,2.049,0,0,1,.406-.232Z" transform="translate(-63.633 -122.48)" fill="#263238"/>
      <path id="Trazado_218041" data-name="Trazado 218041" d="M133.726,272.52a9.94,9.94,0,0,1-1.121,1.112c-.367.348-.831.773-1.4,1.218s-1.189.967-1.934,1.5-1.557,1.112-2.485,1.663-1.934,1.121-2.968,1.692a44.935,44.935,0,0,1-14.917,4.67c-1.2.126-2.34.271-3.413.3s-2.069.068-2.978.048-1.74-.077-2.456-.126a15.783,15.783,0,0,1-1.847-.2,10.707,10.707,0,0,1-1.557-.271,8.39,8.39,0,0,1,1.576.077c.5,0,1.121.106,1.837.116a20.573,20.573,0,0,0,2.446,0c.909-.087,1.934,0,2.958-.106s2.185-.2,3.374-.348a46.88,46.88,0,0,0,14.763-4.612c1.054-.561,2.069-1.073,2.968-1.644s1.74-1.083,2.494-1.6A21.93,21.93,0,0,0,131,274.579c.541-.464,1.063-.812,1.45-1.141a9.509,9.509,0,0,1,1.276-.918Z" transform="translate(-63.718 -122.011)" fill="#263238"/>
      <path id="Trazado_218042" data-name="Trazado 218042" d="M75.22,200.38a6.283,6.283,0,0,1,.242,1.286c.126.967.28,2.108.474,3.529.406,3.074.967,7.135,1.537,11.6s1.228,8.546,1.673,11.6c.2,1.411.367,2.591.5,3.529a7.956,7.956,0,0,1,.126,1.3,6.1,6.1,0,0,1-.319-1.266c-.174-.822-.4-2.021-.667-3.5-.522-2.958-1.189-7.057-1.818-11.6s-1.1-8.7-1.392-11.659c-.145-1.5-.251-2.707-.309-3.548a7.812,7.812,0,0,1-.048-1.266Z" transform="translate(-63.006 -119.614)" fill="#263238"/>
      <path id="Trazado_218043" data-name="Trazado 218043" d="M146.993,192.28a1.769,1.769,0,0,1,0,.493,9.7,9.7,0,0,1-.077,1.4c-.077,1.218-.213,2.987-.4,5.163-.367,4.35-.967,10.354-1.75,16.977s-1.624,12.568-2.282,16.919c-.329,2.156-.609,3.867-.822,5.1-.106.551-.193,1.015-.261,1.382a2.3,2.3,0,0,1-.116.483,1.749,1.749,0,0,1,0-.493c0-.377.1-.841.164-1.4.164-1.286.387-3.016.667-5.124.57-4.331,1.344-10.315,2.137-16.928s1.431-12.616,1.934-16.957c.232-2.108.416-3.867.561-5.134.068-.561.126-1.025.164-1.4A1.828,1.828,0,0,1,146.993,192.28Z" transform="translate(-65.201 -119.345)" fill="#263238"/>
      <path id="Trazado_218044" data-name="Trazado 218044" d="M148.194,224.48l-27.659,16.667-7.144-2.011L80.6,232.814,73.82,254.324l25.8,2.436L111,262.213l5.5-2.378,24-16.483Z" transform="translate(-62.959 -120.415)" fill="#f67409"/>
      <path id="Trazado_218045" data-name="Trazado 218045" d="M112.27,262.708a24.371,24.371,0,0,1,1.3-3.094c.851-1.934,2.021-4.5,3.268-7.386s2.349-5.54,3.132-7.454a24.835,24.835,0,0,1,1.363-3.065,3.249,3.249,0,0,1-.222.88c-.174.551-.454,1.344-.8,2.32-.706,1.934-1.75,4.612-3.007,7.512s-2.475,5.491-3.4,7.347c-.464.967-.86,1.663-1.141,2.175a3.459,3.459,0,0,1-.483.764Z" transform="translate(-64.237 -120.987)" fill="#263238"/>
      <path id="Trazado_218046" data-name="Trazado 218046" d="M111.47,246.9a13.883,13.883,0,0,1,1.131-3.6,14.434,14.434,0,0,1,1.6-3.4,13.989,13.989,0,0,1-1.131,3.587,14.888,14.888,0,0,1-1.6,3.413Z" transform="translate(-64.21 -120.927)" fill="#263238"/>
      <path id="Trazado_218047" data-name="Trazado 218047" d="M118.19,240.037s.831-3.306,3.335-4.592S144.8,223.36,144.8,223.36l2.465,2.533L122.009,241.11Z" transform="translate(-64.434 -120.378)" fill="#e0e0e0"/>
      <path id="Trazado_218048" data-name="Trazado 218048" d="M83.78,233.578l4.205-2.108s11.911-1.286,18.794,0,10.489,5.134,10.267,8.817Z" transform="translate(-63.29 -120.628)" fill="#e0e0e0"/>
      <path id="Trazado_218049" data-name="Trazado 218049" d="M133.073,242.856a9.088,9.088,0,0,0-4.766,4.757c-1.653,3.664-2.746,5.5-4.766,6.767s-3.113,2.195-5.491,1.092-6.245-4.7-8.073-4.989c-1.083-.174-1.46,1.508-1.46,1.508s-4.757-3.171-6.41-2.591-.184,1.856.967,3.142a18.368,18.368,0,0,1,1.827,2.562c.358-.145-3.306-3.6-5.569-2.9a1.325,1.325,0,0,0-1.034,1.711l2.755,2.03s-1.46,2.62-.184,3.171,10.451,6.961,12.462,6.961,11.176,1.653,15.024.735,8.14-2.233,8.14-2.233,15.13-4.911,19.7-10.77l-13.738-8.43s-9.155,11.911-9.668,10.635a12.568,12.568,0,0,1-.551-6.767C132.705,246.52,134.658,241.967,133.073,242.856Z" transform="translate(-63.771 -121.022)" fill="#9d6054"/>
      <path id="Trazado_218050" data-name="Trazado 218050" d="M120.732,261.07a5.54,5.54,0,0,1-2.127-.619,36.034,36.034,0,0,1-4.534-2.775,19.46,19.46,0,0,1-4.128-3.4,3.867,3.867,0,0,1-1.073-1.934,18.807,18.807,0,0,0,1.334,1.711,24.934,24.934,0,0,0,4.138,3.21c1.76,1.131,3.219,2.282,4.418,2.9S120.761,260.993,120.732,261.07Z" transform="translate(-64.124 -121.341)" fill="#724a44"/>
      <path id="Trazado_218051" data-name="Trazado 218051" d="M117.494,265.047a8.875,8.875,0,0,1-1.934-1.141c-1.16-.764-2.726-1.876-4.408-3.171s-3.142-2.543-4.176-3.471a9.671,9.671,0,0,1-1.586-1.6,11.155,11.155,0,0,1,1.818,1.324l4.254,3.355,4.312,3.277A11.2,11.2,0,0,1,117.494,265.047Z" transform="translate(-64.008 -121.451)" fill="#724a44"/>
      <path id="Trazado_218052" data-name="Trazado 218052" d="M109.7,263.853c-.116.1-1.76-1.934-4.176-3.964s-4.641-3.393-4.563-3.519a16.126,16.126,0,0,1,4.892,3.142,16.435,16.435,0,0,1,3.848,4.341Z" transform="translate(-63.861 -121.475)" fill="#724a44"/>
      <path id="Trazado_218053" data-name="Trazado 218053" d="M112.684,208.3a6.338,6.338,0,0,1-.174-.648,2.765,2.765,0,0,0-.967-1.392,2.525,2.525,0,1,0-2.4,4.389,2.6,2.6,0,0,0,2.407-.319,2.765,2.765,0,0,0,.967-1.392,4.971,4.971,0,0,1,.174-.638,1.405,1.405,0,0,1,0,.686,2.678,2.678,0,0,1-.967,1.624,2.9,2.9,0,0,1-2.775.474,2.958,2.958,0,0,1,0-5.578,2.9,2.9,0,0,1,2.775.474,2.707,2.707,0,0,1,.967,1.624C112.8,208.047,112.713,208.3,112.684,208.3Z" transform="translate(-64.061 -119.779)" fill="#263238"/>
      <path id="Trazado_218054" data-name="Trazado 218054" d="M113.693,227.379s-.058-.242-.184-.648a2.784,2.784,0,0,0-.967-1.382,2.523,2.523,0,1,0-2.407,4.379,2.572,2.572,0,0,0,2.407-.319,2.784,2.784,0,0,0,.967-1.382c.126-.406.135-.648.184-.648a1.315,1.315,0,0,1,0,.686,2.726,2.726,0,0,1-.967,1.624,2.9,2.9,0,0,1-2.775.474,2.949,2.949,0,0,1,0-5.569,2.9,2.9,0,0,1,2.775.464,2.774,2.774,0,0,1,.967,1.624,1.344,1.344,0,0,1,0,.7Z" transform="translate(-64.094 -120.413)" fill="#263238"/>
      <path id="Trazado_218055" data-name="Trazado 218055" d="M115.564,272.589a5.9,5.9,0,0,1-.184-.638,2.707,2.707,0,0,0-.967-1.392,2.581,2.581,0,0,0-2.4-.319,2.514,2.514,0,0,0,0,4.708,2.581,2.581,0,0,0,2.4-.319,2.745,2.745,0,0,0,.967-1.392c.135-.4.145-.648.184-.648s.087.251,0,.7a2.726,2.726,0,0,1-.967,1.624,2.9,2.9,0,0,1-2.775.474,2.958,2.958,0,0,1,0-5.578,2.9,2.9,0,0,1,2.775.474,2.7,2.7,0,0,1,.967,1.624C115.651,272.347,115.593,272.6,115.564,272.589Z" transform="translate(-64.157 -121.915)" fill="#263238"/>
      <path id="Trazado_218056" data-name="Trazado 218056" d="M115.134,290.4s-.058-.251-.184-.648a2.8,2.8,0,0,0-.967-1.392,2.6,2.6,0,0,0-2.407-.319,2.514,2.514,0,0,0,0,4.708,2.6,2.6,0,0,0,2.407-.319,2.765,2.765,0,0,0,.967-1.392c.126-.4.135-.648.184-.638a1.3,1.3,0,0,1,0,.686,2.746,2.746,0,0,1-.967,1.624,2.9,2.9,0,0,1-2.775.474,2.958,2.958,0,0,1,0-5.578,2.9,2.9,0,0,1,2.775.474,2.774,2.774,0,0,1,.967,1.624,1.363,1.363,0,0,1,0,.7Z" transform="translate(-64.142 -122.507)" fill="#263238"/>
      <path id="Trazado_218057" data-name="Trazado 218057" d="M90.05,129.209a13.767,13.767,0,0,1,6.6-8.353,17.4,17.4,0,0,1,11.717-1.411,36.882,36.882,0,0,1,11.06,4.573,18.03,18.03,0,0,1,5.279,4.118c2.552,3.21,2.9,7.589,3.152,11.679.193,3.316.367,6.767-1.034,9.793a10.219,10.219,0,0,1-6.854,5.549" transform="translate(-63.499 -116.91)" fill="#263238"/>
      <path id="Trazado_218058" data-name="Trazado 218058" d="M126.818,145.737a21.955,21.955,0,0,0,5.269-16.271c-.184-1.934-.725-4.041-2.233-5.308-.773-.648-1.731-1.034-2.523-1.663-1.431-1.141-2.137-3-3.49-4.225a5.569,5.569,0,0,0-9.078,2.591c-.715,2.485.358,5.095,1.4,7.463L121,139.288a14.424,14.424,0,0,0,2.233,3.867,4.892,4.892,0,0,0,3.944,1.808" transform="translate(-64.312 -116.839)" fill="#263238"/>
      <path id="Trazado_218059" data-name="Trazado 218059" d="M91.6,126.9a18.842,18.842,0,0,0-1.663,23.483,158.454,158.454,0,0,1,8.43-26.277" transform="translate(-63.384 -117.08)" fill="#263238"/>
      <path id="Trazado_218060" data-name="Trazado 218060" d="M88.145,139.184c.425-6.516,4.766-14.5,11.263-13.806l15.024,3.867a11.157,11.157,0,0,1,8.363,10.267v.135l-.967,36.786-13.98,15.778h0l-9.59-14.753v-5.685c0,.019-8.334-1.441-10.025-12.307C87.39,154.063,87.681,146.425,88.145,139.184Z" transform="translate(-63.42 -117.121)" fill="#9d6054"/>
      <path id="Trazado_218061" data-name="Trazado 218061" d="M103.391,136.14a11.254,11.254,0,0,1-3.152.648,11.447,11.447,0,0,1-3.219,0c0-.077,1.44-.077,3.19-.261S103.372,136.062,103.391,136.14Z" transform="translate(-63.73 -117.479)" fill="#724a44"/>
      <path id="Trazado_218062" data-name="Trazado 218062" d="M100.964,135.74a7.6,7.6,0,0,1-3.964.251,13.219,13.219,0,0,1,1.934-.116,13.08,13.08,0,0,1,2.03-.135Z" transform="translate(-63.73 -117.466)" fill="#724a44"/>
      <path id="Trazado_218063" data-name="Trazado 218063" d="M105.728,157.961c-.077,0-.174-.435-.609-.715s-.87-.213-.889-.28.087-.106.29-.135a1.092,1.092,0,0,1,.744.193,1.189,1.189,0,0,1,.474.619C105.786,157.826,105.757,157.961,105.728,157.961Z" transform="translate(-63.97 -118.167)" fill="#724a44"/>
      <path id="Trazado_218064" data-name="Trazado 218064" d="M92.32,148.347a1.392,1.392,0,0,0,1.334,1.411,1.334,1.334,0,0,0,1.44-1.257,1.382,1.382,0,0,0-1.334-1.4,1.325,1.325,0,0,0-1.44,1.247Z" transform="translate(-63.574 -117.844)" fill="#263238"/>
      <path id="Trazado_218065" data-name="Trazado 218065" d="M90.139,144.38c.174.184,1.228-.6,2.726-.59s2.6.754,2.765.58-.1-.416-.57-.764a3.867,3.867,0,0,0-2.214-.686,3.7,3.7,0,0,0-2.175.7C90.217,143.964,90.052,144.293,90.139,144.38Z" transform="translate(-63.501 -117.705)" fill="#263238"/>
      <path id="Trazado_218066" data-name="Trazado 218066" d="M106.78,148.347a1.392,1.392,0,0,0,1.334,1.411,1.344,1.344,0,0,0,1.44-1.257,1.382,1.382,0,0,0-1.334-1.4,1.315,1.315,0,0,0-1.44,1.247Z" transform="translate(-64.055 -117.844)" fill="#263238"/>
      <path id="Trazado_218067" data-name="Trazado 218067" d="M105.379,144.7c.174.184,1.237-.59,2.736-.59s2.591.764,2.755.58-.087-.406-.57-.764a3.867,3.867,0,0,0-2.214-.686,3.732,3.732,0,0,0-2.166.7C105.457,144.294,105.3,144.622,105.379,144.7Z" transform="translate(-64.007 -117.716)" fill="#263238"/>
      <path id="Trazado_218068" data-name="Trazado 218068" d="M99.6,155.811a9.542,9.542,0,0,0-2.436-.445c-.377,0-.744-.116-.8-.377a1.934,1.934,0,0,1,.251-1.131c.367-.967.744-1.934,1.141-2.9,1.586-4.147,2.726-7.551,2.562-7.618s-1.586,3.248-3.171,7.4c-.377,1.025-.744,2-1.083,2.9a2.185,2.185,0,0,0-.2,1.508.967.967,0,0,0,.628.561,2.784,2.784,0,0,0,.648.087A9.533,9.533,0,0,0,99.6,155.811Z" transform="translate(-63.69 -117.719)" fill="#263238"/>
      <path id="Trazado_218069" data-name="Trazado 218069" d="M113.025,169.33s-3.529,7.463-14.4,6.419V173.2A27.312,27.312,0,0,0,113.025,169.33Z" transform="translate(-63.783 -118.583)" fill="#724a44"/>
      <path id="Trazado_218070" data-name="Trazado 218070" d="M100.375,159.966A2.688,2.688,0,0,1,102.8,159a2.456,2.456,0,0,1,1.7.967,1.547,1.547,0,0,1,.106,1.779,1.789,1.789,0,0,1-1.934.493,5.8,5.8,0,0,1-1.934-1.141,1.682,1.682,0,0,1-.425-.445.512.512,0,0,1,0-.561" transform="translate(-63.837 -118.239)" fill="#724a44"/>
      <path id="Trazado_218071" data-name="Trazado 218071" d="M104.126,157.32c-.242,0-.251,1.615-1.644,2.765s-3.123.967-3.142,1.2.387.319,1.121.338a4.032,4.032,0,0,0,2.62-.909,3.519,3.519,0,0,0,1.276-2.311C104.425,157.716,104.242,157.31,104.126,157.32Z" transform="translate(-63.807 -118.184)" fill="#263238"/>
      <path id="Trazado_218072" data-name="Trazado 218072" d="M105,140.171c.145.406,1.644.222,3.4.435s3.181.7,3.413.329c.106-.174-.135-.551-.715-.967a5.917,5.917,0,0,0-5.192-.59C105.271,139.658,105,139.968,105,140.171Z" transform="translate(-63.995 -117.576)" fill="#263238"/>
      <path id="Trazado_218073" data-name="Trazado 218073" d="M90.719,139.887c.261.338,1.3,0,2.543,0s2.291.232,2.533-.126c.106-.174-.058-.512-.512-.831a3.645,3.645,0,0,0-4.089.116C90.748,139.375,90.6,139.723,90.719,139.887Z" transform="translate(-63.52 -117.554)" fill="#263238"/>
      <path id="Trazado_218074" data-name="Trazado 218074" d="M91.215,129.111a4.757,4.757,0,0,1,4.215-2.7,9.165,9.165,0,0,1,5.018,1.46c6.468,3.741,10.1,11.166,16.493,15.033a25.939,25.939,0,0,1,4.65,2.949c1.334,1.257,2.2,3.277,1.46,4.96a15.362,15.362,0,0,0,2.224-3.751,5.124,5.124,0,0,0-.184-4.234c-.551-.967-1.527-1.692-1.8-2.765s.135-1.934.1-2.9a6.216,6.216,0,0,0-.967-2.765,28.172,28.172,0,0,0-10.383-10.934A18.494,18.494,0,0,0,102.507,121a14.076,14.076,0,0,0-9.078,3.606c-1.421,1.334-2.9,2.707-2.185,4.515" transform="translate(-63.532 -116.977)" fill="#263238"/>
      <path id="Trazado_218075" data-name="Trazado 218075" d="M122.966,150.875s.126-.145.338-.445a4.738,4.738,0,0,0,.7-1.411,8.073,8.073,0,0,0-.6-5.694,33.52,33.52,0,0,0-1.934-3.587,41.321,41.321,0,0,1-1.992-4.244,30.357,30.357,0,0,0-2.282-4.6,17.885,17.885,0,0,0-3.6-4.138,19.045,19.045,0,0,0-9.532-4.389,14.057,14.057,0,0,0-8.459,1.141,9.165,9.165,0,0,0-4.07,4.06,8.226,8.226,0,0,0-.541,1.489,2.658,2.658,0,0,1-.145.541.7.7,0,0,1,0-.135,3.935,3.935,0,0,1,.068-.416,7.057,7.057,0,0,1,.522-1.518,9.2,9.2,0,0,1,4.08-4.186,14.076,14.076,0,0,1,8.585-1.218,19.21,19.21,0,0,1,9.668,4.428,17.992,17.992,0,0,1,3.645,4.205,29.485,29.485,0,0,1,2.282,4.65,42.054,42.054,0,0,0,1.934,4.225c.7,1.286,1.382,2.465,1.866,3.625a8.034,8.034,0,0,1,.522,5.8,4.583,4.583,0,0,1-.754,1.421,3.741,3.741,0,0,1-.3.4Z" transform="translate(-63.525 -117.007)" fill="#455a64"/>
      <path id="Trazado_218076" data-name="Trazado 218076" d="M128.75,145.172a1.257,1.257,0,0,1,0-.309v-.889c0-.764.058-1.876,0-3.248a27.149,27.149,0,0,0-.532-4.776,12.646,12.646,0,0,0-2.32-5.327,29.564,29.564,0,0,0-4.167-4.147c-1.382-1.189-2.659-2.2-3.77-3.007s-2.059-1.4-2.717-1.789l-.773-.445a1.3,1.3,0,0,1-.261-.164.967.967,0,0,1,.29.116c.184.087.454.222.793.406a26.77,26.77,0,0,1,2.775,1.721c1.131.783,2.436,1.789,3.819,2.968a29.08,29.08,0,0,1,4.225,4.176,12.771,12.771,0,0,1,2.349,5.433,25.628,25.628,0,0,1,.474,4.834,27.738,27.738,0,0,1-.106,3.268,7.188,7.188,0,0,1-.077.88,1.383,1.383,0,0,1,0,.3Z" transform="translate(-64.301 -116.979)" fill="#455a64"/>
      <path id="Trazado_218077" data-name="Trazado 218077" d="M124.3,118.83a4.573,4.573,0,0,1,.3,1.228,14.608,14.608,0,0,1,.145,3.065,14.134,14.134,0,0,1-.512,3.016,4.456,4.456,0,0,1-.445,1.189,32.26,32.26,0,0,0,.686-4.225A31.083,31.083,0,0,0,124.3,118.83Z" transform="translate(-64.62 -116.905)" fill="#455a64"/>
      <path id="Trazado_218078" data-name="Trazado 218078" d="M132.046,127.15a2.156,2.156,0,0,1-.367.909,5.694,5.694,0,0,1-1.576,1.75,5.8,5.8,0,0,1-2.146.967,2.3,2.3,0,0,1-.967.087,6.882,6.882,0,0,1,.967-.271,6.767,6.767,0,0,0,3.616-2.649A8.891,8.891,0,0,1,132.046,127.15Z" transform="translate(-64.726 -117.181)" fill="#455a64"/>
      <path id="Trazado_218079" data-name="Trazado 218079" d="M132.632,134.705a4.563,4.563,0,0,1-2.166.387,4.476,4.476,0,0,1-2.137-.512c0-.087.967.2,2.146.251S132.613,134.618,132.632,134.705Z" transform="translate(-64.771 -117.427)" fill="#455a64"/>
      <path id="Trazado_218080" data-name="Trazado 218080" d="M126.768,153.41c-.251-.135-.126-.851-.1-2.021a5.511,5.511,0,0,0-.222-1.934,3,3,0,0,0-.2-.435,1.323,1.323,0,0,0-.126-.193l-.174-.251a9.157,9.157,0,0,0-.9-1.044,2.649,2.649,0,0,0-.967-.657h-.1l-.377.077-.406.1a7.134,7.134,0,0,0-1.547.58c-.261.135-.512.28-.783.445l-.193.135-.338.193a6.368,6.368,0,0,1-.686.329,7.018,7.018,0,0,1-3.055.512,5.114,5.114,0,0,1-1.837-.454l-.232-.126-.184-.106a3.4,3.4,0,0,1-.367-.232,6.384,6.384,0,0,1-.677-.541,8.807,8.807,0,0,1-1.866-2.543c-.435-.86-.764-1.7-1.083-2.465a28.683,28.683,0,0,0-4.67-7.666,31.343,31.343,0,0,0-5.443-5.047,17.247,17.247,0,0,0-4.283-2.456c-1.083-.406-1.789-.512-1.837-.8s.648-.706,2.069-.744a12.075,12.075,0,0,1,5.52,1.576,25.59,25.59,0,0,1,6.709,4.989,27.176,27.176,0,0,1,5.636,8.624c.338.822.628,1.566.967,2.195a5.684,5.684,0,0,0,.967,1.469,2.81,2.81,0,0,0,.261.232.647.647,0,0,0,.135.087h.068a1.209,1.209,0,0,0,.445.135,3.539,3.539,0,0,0,1.431-.155l.319-.126.145-.068.271-.145a11.176,11.176,0,0,1,1.141-.532,10.286,10.286,0,0,1,2.359-.628l.561-.068h.58a3.152,3.152,0,0,1,1.721.416,5.452,5.452,0,0,1,1.74,1.6,9.917,9.917,0,0,1,.967,1.6c.058.135.116.242.174.406a2.747,2.747,0,0,1,.164.474,3.867,3.867,0,0,1,.164.889,5.8,5.8,0,0,1-.454,2.649C127.628,153.072,127,153.526,126.768,153.41Z" transform="translate(-63.634 -117.145)" fill="#263238"/>
      <path id="Trazado_218081" data-name="Trazado 218081" d="M122.48,148.08c.106-.309,5.8-2.359,5.8,3.664.077,5.859-5.8,4.708-5.8,4.534S122.48,148.08,122.48,148.08Z" transform="translate(-64.576 -117.857)" fill="#9d6054"/>
      <path id="Trazado_218082" data-name="Trazado 218082" d="M124.34,154.11a1.765,1.765,0,0,0,.271.145,1.025,1.025,0,0,0,.764,0,2.514,2.514,0,0,0,1.15-2.272,3.548,3.548,0,0,0-.3-1.46,1.2,1.2,0,0,0-.773-.773.512.512,0,0,0-.6.29c-.077.164,0,.28-.077.29s-.126-.1-.077-.338a.609.609,0,0,1,.222-.367.754.754,0,0,1,.57-.155,1.431,1.431,0,0,1,1.073.889,3.567,3.567,0,0,1,.367,1.634,2.649,2.649,0,0,1-1.469,2.543,1.1,1.1,0,0,1-.967-.145C124.349,154.255,124.32,154.12,124.34,154.11Z" transform="translate(-64.638 -117.922)" fill="#724a44"/>
      <path id="Trazado_218083" data-name="Trazado 218083" d="M125.98,147.264a3.071,3.071,0,0,0-.242-.4,2.282,2.282,0,0,0-1.054-.773,4.225,4.225,0,0,0-2.069-.184,9.57,9.57,0,0,0-2.63.967,6.942,6.942,0,0,1-3.326.841,5.356,5.356,0,0,1-3.461-1.847A10.9,10.9,0,0,1,111.13,142c-.493-1.431-.967-2.9-1.518-4.4A22.593,22.593,0,0,0,105,130a12.955,12.955,0,0,0-6.187-3.654,11.089,11.089,0,0,0-2.775-.358,10.122,10.122,0,0,0-2.1.251c-1.131.28-1.7.6-1.721.561l.106-.058.319-.145a6.651,6.651,0,0,1,1.266-.454,8.914,8.914,0,0,1,2.127-.3,10.818,10.818,0,0,1,2.813.319,13.013,13.013,0,0,1,6.332,3.664,22.632,22.632,0,0,1,4.679,7.734c.59,1.479,1.034,2.987,1.508,4.408a10.886,10.886,0,0,0,2.011,3.761,5.153,5.153,0,0,0,3.3,1.789,6.835,6.835,0,0,0,3.239-.793,9.581,9.581,0,0,1,2.678-.918,4.186,4.186,0,0,1,2.127.232,2.185,2.185,0,0,1,1.054.841,1.228,1.228,0,0,1,.164.309C125.98,147.264,125.989,147.264,125.98,147.264Z" transform="translate(-63.571 -117.138)" fill="#455a64"/>
      <path id="Trazado_218084" data-name="Trazado 218084" d="M123.8,144.321a2.116,2.116,0,0,1-.348-.193c-.222-.145-.57-.338-.967-.628a20.062,20.062,0,0,1-3.152-2.9,58,58,0,0,1-3.867-5.018,46.28,46.28,0,0,0-4.834-6.013,18.127,18.127,0,0,0-3.123-2.465,15.092,15.092,0,0,0-3.364-1.528,16.6,16.6,0,0,0-6.2-.764,16.338,16.338,0,0,0-4.157.812c-.474.145-.831.309-1.083.406a2.206,2.206,0,0,1-.377.135,1.412,1.412,0,0,1,.358-.184,8.894,8.894,0,0,1,1.073-.454,14.888,14.888,0,0,1,4.167-.9,16.435,16.435,0,0,1,6.294.715,14.685,14.685,0,0,1,3.422,1.537,18.253,18.253,0,0,1,3.171,2.494,44.907,44.907,0,0,1,4.834,6.062,61.114,61.114,0,0,0,3.8,5.037,21.337,21.337,0,0,0,3.084,2.9c.4.309.735.512.967.667A2.156,2.156,0,0,1,123.8,144.321Z" transform="translate(-63.574 -117.096)" fill="#455a64"/>
      <path id="Trazado_218085" data-name="Trazado 218085" d="M124.968,155.339a1.15,1.15,0,1,1-.271.087" transform="translate(-64.628 -118.117)" fill="#fff"/>
      <path id="Trazado_218086" data-name="Trazado 218086" d="M124.714,155.425a1.653,1.653,0,0,0-.522.783.967.967,0,0,0,.222.918,1.1,1.1,0,0,0,1.092.319,1.121,1.121,0,0,0,.715-.889,1.015,1.015,0,0,0-.348-.88,1.547,1.547,0,0,0-.889-.338.512.512,0,0,1,.28-.068,1.228,1.228,0,0,1,.725.261,1.179,1.179,0,0,1,.474,1.054,1.257,1.257,0,0,1-2.233.706,1.179,1.179,0,0,1-.222-1.131,1.228,1.228,0,0,1,.445-.628C124.607,155.425,124.714,155.415,124.714,155.425Z" transform="translate(-64.625 -118.115)" fill="#263238"/>
    </g>
  </g>
</svg>
