<svg xmlns="http://www.w3.org/2000/svg" width="314.642" height="281.781" viewBox="0 0 314.642 281.781">
  <g id="Company-rafiki" transform="translate(-41.417 -54.981)">
    <g id="freepik--background-simple--inject-2" transform="translate(54.904 88.916)">
      <path id="Trazado_217671" data-name="Trazado 217671" d="M115.861,139.189c-15.5,8.059-27.547,21.579-37.023,36.25C65.364,196.291,56.259,221.278,60.115,245.8s23.4,47.536,48.172,49.49c31.706,2.515,57.511-27.479,89.141-30.781,12.051-1.257,24.116,1.515,36.2,2.272,35.765,2.272,72.2-13.838,94.564-41.84C342.844,206.607,351.585,182.415,347,159.4c-4.757-23.919-23.662-43.665-46.286-52.784s-48.361-8.483-71.811-1.765c-21.715,6.226-39.037,18.178-58.5,28.873-7.854,4.325-16.762-1.515-25.533-1.6a61.638,61.638,0,0,0-29.017,7.067Z" transform="translate(-59.224 -99.784)" fill="#f67409"/>
      <path id="Trazado_217672" data-name="Trazado 217672" d="M115.861,139.189c-15.5,8.059-27.547,21.579-37.023,36.25C65.364,196.291,56.259,221.278,60.115,245.8s23.4,47.536,48.172,49.49c31.706,2.515,57.511-27.479,89.141-30.781,12.051-1.257,24.116,1.515,36.2,2.272,35.765,2.272,72.2-13.838,94.564-41.84C342.844,206.607,351.585,182.415,347,159.4c-4.757-23.919-23.662-43.665-46.286-52.784s-48.361-8.483-71.811-1.765c-21.715,6.226-39.037,18.178-58.5,28.873-7.854,4.325-16.762-1.515-25.533-1.6a61.638,61.638,0,0,0-29.017,7.067Z" transform="translate(-59.224 -99.784)" fill="#fff" opacity="0.9"/>
    </g>
    <g id="freepik--Shadow--inject-2" transform="translate(52.546 319.615)">
      <ellipse id="freepik--path--inject-2" cx="146.856" cy="8.574" rx="146.856" ry="8.574" fill="#f5f5f5"/>
    </g>
    <g id="freepik--Company--inject-2" transform="translate(131.832 54.981)">
      <path id="Trazado_217673" data-name="Trazado 217673" d="M160.83,84.62l2.825,3.651H293.068l2.848-3.651Z" transform="translate(-160.8 -62.171)" fill="#f67409"/>
      <g id="Grupo_149324" data-name="Grupo 149324" transform="translate(0.03 22.449)" opacity="0.4">
        <path id="Trazado_217674" data-name="Trazado 217674" d="M160.83,84.62l2.825,3.651H293.068l2.848-3.651Z" transform="translate(-160.83 -84.62)"/>
      </g>
      <rect id="Rectángulo_45227" data-name="Rectángulo 45227" width="129.708" height="229.937" transform="translate(2.59 17.745)" fill="#f67409"/>
      <g id="Grupo_149325" data-name="Grupo 149325" transform="translate(2.59 17.745)" opacity="0.4">
        <rect id="Rectángulo_45228" data-name="Rectángulo 45228" width="129.708" height="229.937" fill="#fff"/>
      </g>
      <g id="Grupo_149326" data-name="Grupo 149326" transform="translate(2.608 20.677)" opacity="0.8">
        <path id="Trazado_217675" data-name="Trazado 217675" d="M169.472,85.007a2.356,2.356,0,0,1-2.318,2.7,3.03,3.03,0,0,1-2.893-2.7,2.363,2.363,0,0,1,2.325-2.727A3.03,3.03,0,0,1,169.472,85.007Z" transform="translate(-164.233 -82.28)" fill="#f0f0f0"/>
        <path id="Trazado_217676" data-name="Trazado 217676" d="M175.783,85.007a2.378,2.378,0,0,1-2.348,2.7,3.03,3.03,0,0,1-2.863-2.7,2.378,2.378,0,0,1,2.34-2.727,3.03,3.03,0,0,1,2.871,2.727Z" transform="translate(-165.764 -82.28)" fill="#f0f0f0"/>
        <path id="Trazado_217677" data-name="Trazado 217677" d="M182.084,85.007a2.393,2.393,0,0,1-2.363,2.7,2.969,2.969,0,0,1-2.848-2.7,2.4,2.4,0,0,1,2.363-2.727,2.969,2.969,0,0,1,2.848,2.727Z" transform="translate(-167.294 -82.28)" fill="#f0f0f0"/>
        <path id="Trazado_217678" data-name="Trazado 217678" d="M188.385,85.007a2.424,2.424,0,0,1-2.386,2.7,2.946,2.946,0,0,1-2.825-2.7,2.431,2.431,0,0,1,2.393-2.727,2.939,2.939,0,0,1,2.818,2.727Z" transform="translate(-168.823 -82.28)" fill="#f0f0f0"/>
        <path id="Trazado_217679" data-name="Trazado 217679" d="M194.7,85.007a2.446,2.446,0,0,1-2.409,2.7,2.916,2.916,0,0,1-2.8-2.7,2.447,2.447,0,0,1,2.409-2.727A2.909,2.909,0,0,1,194.7,85.007Z" transform="translate(-170.355 -82.28)" fill="#f0f0f0"/>
        <path id="Trazado_217680" data-name="Trazado 217680" d="M201,85.007a2.469,2.469,0,0,1-2.431,2.7,2.886,2.886,0,0,1-2.78-2.7,2.469,2.469,0,0,1,2.431-2.727A2.878,2.878,0,0,1,201,85.007Z" transform="translate(-171.884 -82.28)" fill="#f0f0f0"/>
        <path id="Trazado_217681" data-name="Trazado 217681" d="M207.327,85.007a2.492,2.492,0,0,1-2.454,2.7,2.855,2.855,0,0,1-2.757-2.7,2.484,2.484,0,0,1,2.446-2.727A2.863,2.863,0,0,1,207.327,85.007Z" transform="translate(-173.42 -82.28)" fill="#f0f0f0"/>
        <path id="Trazado_217682" data-name="Trazado 217682" d="M213.606,85.007a2.515,2.515,0,0,1-2.484,2.7,2.825,2.825,0,0,1-2.734-2.7,2.515,2.515,0,0,1,2.469-2.727,2.833,2.833,0,0,1,2.749,2.727Z" transform="translate(-174.942 -82.28)" fill="#f0f0f0"/>
        <path id="Trazado_217683" data-name="Trazado 217683" d="M219.909,85.007a2.537,2.537,0,0,1-2.492,2.7,2.8,2.8,0,0,1-2.719-2.7,2.537,2.537,0,0,1,2.5-2.727A2.8,2.8,0,0,1,219.909,85.007Z" transform="translate(-176.473 -82.28)" fill="#f0f0f0"/>
        <path id="Trazado_217684" data-name="Trazado 217684" d="M226.217,85.007a2.568,2.568,0,0,1-2.522,2.7,2.765,2.765,0,0,1-2.7-2.7,2.56,2.56,0,0,1,2.515-2.727A2.772,2.772,0,0,1,226.217,85.007Z" transform="translate(-178.002 -82.28)" fill="#f0f0f0"/>
        <path id="Trazado_217685" data-name="Trazado 217685" d="M232.52,85.007a2.59,2.59,0,0,1-2.537,2.7,2.749,2.749,0,0,1-2.674-2.7,2.583,2.583,0,0,1,2.537-2.727,2.742,2.742,0,0,1,2.674,2.727Z" transform="translate(-179.533 -82.28)" fill="#f0f0f0"/>
        <path id="Trazado_217686" data-name="Trazado 217686" d="M238.82,85.007a2.613,2.613,0,0,1-2.56,2.7,2.727,2.727,0,0,1-2.651-2.7,2.613,2.613,0,0,1,2.56-2.727,2.712,2.712,0,0,1,2.651,2.727Z" transform="translate(-181.062 -82.28)" fill="#f0f0f0"/>
        <path id="Trazado_217687" data-name="Trazado 217687" d="M245.131,85.007a2.636,2.636,0,0,1-2.583,2.7,2.689,2.689,0,0,1-2.628-2.7A2.636,2.636,0,0,1,242.5,82.28,2.7,2.7,0,0,1,245.131,85.007Z" transform="translate(-182.593 -82.28)" fill="#f0f0f0"/>
        <path id="Trazado_217688" data-name="Trazado 217688" d="M251.432,85.007a2.606,2.606,0,1,1-2.605-2.727,2.659,2.659,0,0,1,2.605,2.727Z" transform="translate(-184.122 -82.28)" fill="#f0f0f0"/>
        <path id="Trazado_217689" data-name="Trazado 217689" d="M257.733,85.007a2.681,2.681,0,0,1-2.621,2.7,2.636,2.636,0,0,1-2.583-2.7,2.681,2.681,0,0,1,2.621-2.727,2.636,2.636,0,0,1,2.583,2.727Z" transform="translate(-185.652 -82.28)" fill="#f0f0f0"/>
        <path id="Trazado_217690" data-name="Trazado 217690" d="M264.04,85.007a2.712,2.712,0,0,1-2.651,2.7,2.613,2.613,0,0,1-2.56-2.7,2.712,2.712,0,0,1,2.643-2.727,2.621,2.621,0,0,1,2.568,2.727Z" transform="translate(-187.18 -82.28)" fill="#f0f0f0"/>
        <path id="Trazado_217691" data-name="Trazado 217691" d="M270.33,85.007a2.742,2.742,0,0,1-2.666,2.7,2.6,2.6,0,0,1-2.545-2.7,2.742,2.742,0,0,1,2.674-2.727,2.59,2.59,0,0,1,2.537,2.727Z" transform="translate(-188.705 -82.28)" fill="#f0f0f0"/>
        <path id="Trazado_217692" data-name="Trazado 217692" d="M276.65,85.007a2.772,2.772,0,0,1-2.7,2.7,2.56,2.56,0,0,1-2.515-2.7,2.765,2.765,0,0,1,2.689-2.727,2.568,2.568,0,0,1,2.522,2.727Z" transform="translate(-190.238 -82.28)" fill="#f0f0f0"/>
        <path id="Trazado_217693" data-name="Trazado 217693" d="M282.94,85.007a2.8,2.8,0,0,1-2.742,2.7,2.545,2.545,0,0,1-2.5-2.7,2.8,2.8,0,0,1,2.712-2.727,2.537,2.537,0,0,1,2.53,2.727Z" transform="translate(-191.756 -82.28)" fill="#f0f0f0"/>
        <path id="Trazado_217694" data-name="Trazado 217694" d="M289.239,85.007a2.818,2.818,0,0,1-2.727,2.7,2.522,2.522,0,0,1-2.515-2.7,2.825,2.825,0,0,1,2.734-2.727,2.515,2.515,0,0,1,2.507,2.727Z" transform="translate(-193.284 -82.28)" fill="#f0f0f0"/>
        <path id="Trazado_217695" data-name="Trazado 217695" d="M295.558,85.007a2.856,2.856,0,0,1-2.757,2.7,2.492,2.492,0,0,1-2.454-2.7A2.848,2.848,0,0,1,293.1,82.28a2.5,2.5,0,0,1,2.454,2.727Z" transform="translate(-194.824 -82.28)" fill="#f0f0f0"/>
        <path id="Trazado_217696" data-name="Trazado 217696" d="M301.858,85.007a2.878,2.878,0,0,1-2.772,2.7,2.477,2.477,0,0,1-2.439-2.7,2.878,2.878,0,0,1,2.78-2.727,2.469,2.469,0,0,1,2.431,2.727Z" transform="translate(-196.351 -82.28)" fill="#f0f0f0"/>
        <path id="Trazado_217697" data-name="Trazado 217697" d="M308.169,85.007a2.9,2.9,0,0,1-2.795,2.7,2.454,2.454,0,0,1-2.378-2.7,2.909,2.909,0,0,1,2.8-2.727,2.446,2.446,0,0,1,2.371,2.727Z" transform="translate(-197.891 -82.28)" fill="#f0f0f0"/>
        <path id="Trazado_217698" data-name="Trazado 217698" d="M314.466,85.007a2.939,2.939,0,0,1-2.818,2.7,2.424,2.424,0,0,1-2.393-2.7,2.931,2.931,0,0,1,2.818-2.727,2.431,2.431,0,0,1,2.393,2.727Z" transform="translate(-199.409 -82.28)" fill="#f0f0f0"/>
        <path id="Trazado_217699" data-name="Trazado 217699" d="M320.765,85.007a2.969,2.969,0,0,1-2.84,2.7,2.409,2.409,0,0,1-2.371-2.7,2.969,2.969,0,0,1,2.84-2.727,2.409,2.409,0,0,1,2.371,2.727Z" transform="translate(-200.936 -82.28)" fill="#f0f0f0"/>
        <path id="Trazado_217700" data-name="Trazado 217700" d="M327.081,85.007a3.03,3.03,0,0,1-2.84,2.7,2.378,2.378,0,0,1-2.348-2.7,3.03,3.03,0,0,1,2.863-2.727,2.386,2.386,0,0,1,2.325,2.727Z" transform="translate(-202.473 -82.28)" fill="#f0f0f0"/>
        <path id="Trazado_217701" data-name="Trazado 217701" d="M333.373,85.007a3.03,3.03,0,0,1-2.886,2.7,2.363,2.363,0,0,1-2.325-2.7,3.03,3.03,0,0,1,2.886-2.727,2.363,2.363,0,0,1,2.325,2.727Z" transform="translate(-203.993 -82.28)" fill="#f0f0f0"/>
      </g>
      <path id="Trazado_217702" data-name="Trazado 217702" d="M160.82,79.74h135.1l-.008,3.7H160.828Z" transform="translate(-160.797 -60.987)" fill="#f67409"/>
      <path id="Trazado_217703" data-name="Trazado 217703" d="M160.81,74.86l2.818,3.7h129.45l2.848-3.7Z" transform="translate(-160.795 -59.803)" fill="#f67409"/>
      <g id="Grupo_149327" data-name="Grupo 149327" transform="translate(0.015 15.057)" opacity="0.4">
        <path id="Trazado_217704" data-name="Trazado 217704" d="M160.81,74.86l2.818,3.7h129.45l2.848-3.7Z" transform="translate(-160.81 -74.86)"/>
      </g>
      <path id="Trazado_217705" data-name="Trazado 217705" d="M160.79,69.96H295.929l-.008,3.711H160.805Z" transform="translate(-160.79 -58.615)" fill="#f67409"/>
      <g id="Grupo_149328" data-name="Grupo 149328" transform="translate(2.825 15.057)" opacity="0.8">
        <path id="Trazado_217706" data-name="Trazado 217706" d="M164.52,74.86H293.986l-.008,3.7H164.528Z" transform="translate(-164.52 -74.86)" fill="#fff"/>
      </g>
      <g id="Grupo_149329" data-name="Grupo 149329" transform="translate(2.628 91.518)" opacity="0.7">
        <rect id="Rectángulo_45229" data-name="Rectángulo 45229" width="129.7" height="1.628" fill="#fff"/>
      </g>
      <g id="Grupo_149330" data-name="Grupo 149330" transform="translate(2.893 172.342)" opacity="0.8">
        <rect id="Rectángulo_45230" data-name="Rectángulo 45230" width="129.428" height="1.621" fill="#fff"/>
      </g>
      <rect id="Rectángulo_45231" data-name="Rectángulo 45231" width="16.035" height="17.322" transform="translate(29.509 33.182)" fill="#f67409"/>
      <rect id="Rectángulo_45232" data-name="Rectángulo 45232" width="16.035" height="17.322" transform="translate(60.306 33.182)" fill="#f67409"/>
      <rect id="Rectángulo_45233" data-name="Rectángulo 45233" width="16.035" height="17.322" transform="translate(91.102 33.182)" fill="#f67409"/>
      <rect id="Rectángulo_45234" data-name="Rectángulo 45234" width="16.035" height="17.322" transform="translate(29.509 59.116)" fill="#f67409"/>
      <rect id="Rectángulo_45235" data-name="Rectángulo 45235" width="16.035" height="17.322" transform="translate(60.306 59.116)" fill="#f67409"/>
      <rect id="Rectángulo_45236" data-name="Rectángulo 45236" width="16.035" height="17.322" transform="translate(91.102 59.116)" fill="#f67409"/>
      <rect id="Rectángulo_45237" data-name="Rectángulo 45237" width="16.035" height="17.322" transform="translate(29.509 184.817)" fill="#f67409"/>
      <rect id="Rectángulo_45238" data-name="Rectángulo 45238" width="16.035" height="17.322" transform="translate(60.306 184.817)" fill="#f67409"/>
      <rect id="Rectángulo_45239" data-name="Rectángulo 45239" width="16.035" height="17.322" transform="translate(91.102 184.817)" fill="#f67409"/>
      <rect id="Rectángulo_45240" data-name="Rectángulo 45240" width="16.035" height="17.322" transform="translate(12.331 221.286)" fill="#f67409"/>
      <rect id="Rectángulo_45241" data-name="Rectángulo 45241" width="16.035" height="17.322" transform="translate(106.538 221.286)" fill="#f67409"/>
      <rect id="Rectángulo_45242" data-name="Rectángulo 45242" width="16.035" height="17.322" transform="translate(29.509 106.795)" fill="#f67409"/>
      <rect id="Rectángulo_45243" data-name="Rectángulo 45243" width="16.035" height="17.322" transform="translate(60.306 106.795)" fill="#f67409"/>
      <rect id="Rectángulo_45244" data-name="Rectángulo 45244" width="16.035" height="17.322" transform="translate(91.102 106.795)" fill="#f67409"/>
      <rect id="Rectángulo_45245" data-name="Rectángulo 45245" width="16.035" height="17.322" transform="translate(29.509 132.729)" fill="#f67409"/>
      <rect id="Rectángulo_45246" data-name="Rectángulo 45246" width="16.035" height="17.322" transform="translate(60.306 132.729)" fill="#f67409"/>
      <rect id="Rectángulo_45247" data-name="Rectángulo 45247" width="16.035" height="17.322" transform="translate(91.102 132.729)" fill="#f67409"/>
      <g id="Grupo_149331" data-name="Grupo 149331" transform="translate(48.785 223.316)" opacity="0.8">
        <path id="Trazado_217707" data-name="Trazado 217707" d="M225.314,349.82h16.6l-.068,17.231H225.2Z" transform="translate(-225.2 -349.82)" fill="#fff"/>
      </g>
      <g id="Grupo_149332" data-name="Grupo 149332" transform="translate(68.516 223.316)" opacity="0.8">
        <path id="Trazado_217708" data-name="Trazado 217708" d="M251.432,349.82h17.277l-.818,17.231H251.25Z" transform="translate(-251.25 -349.82)" fill="#fff"/>
      </g>
      <path id="Trazado_217709" data-name="Trazado 217709" d="M263.711,376.039H219.924l-.174-3.469h44.127Z" transform="translate(-175.093 -132.022)" fill="#f67409"/>
      <g id="Grupo_149333" data-name="Grupo 149333" transform="translate(44.657 240.548)" opacity="0.1">
        <path id="Trazado_217710" data-name="Trazado 217710" d="M263.711,376.039H219.924l-.174-3.469h44.127Z" transform="translate(-219.75 -372.57)" fill="#fff"/>
      </g>
      <path id="Trazado_217711" data-name="Trazado 217711" d="M264.976,380.9h-47.1l-.189-3.416h47.46Z" transform="translate(-174.593 -133.213)" fill="#f67409"/>
      <g id="Grupo_149334" data-name="Grupo 149334" transform="translate(41.385 213.311)" opacity="0.4">
        <path id="Trazado_217712" data-name="Trazado 217712" d="M265.988,340.511H215.65l-.22-3.9h50.755Z" transform="translate(-215.43 -336.61)" fill="#fff"/>
      </g>
      <path id="Trazado_217713" data-name="Trazado 217713" d="M215.72,341.76l7.294,6.1H260.09l5.968-6.1Z" transform="translate(-174.115 -124.548)" fill="#263238"/>
      <path id="Trazado_217714" data-name="Trazado 217714" d="M220.22,345.383l2.575,20.45h2.045l-.826-20.45h0a4.143,4.143,0,0,0-3.787,0Z" transform="translate(-175.207 -125.316)" fill="#f67409"/>
      <path id="Trazado_217715" data-name="Trazado 217715" d="M277.157,345.349l-2.522,20.45H272.59l.757-20.45h0a3.454,3.454,0,0,1,3.787,0Z" transform="translate(-187.911 -125.282)" fill="#f67409"/>
      <path id="Trazado_217716" data-name="Trazado 217716" d="M193.44,60.706c0-3.348,2.568-5.719,6.059-5.719a5.809,5.809,0,0,1,4.734,2.075l-1.977,1.787a3.287,3.287,0,0,0-2.6-1.288,3.143,3.143,0,1,0,0,6.287,3.265,3.265,0,0,0,2.6-1.288l1.977,1.8a5.832,5.832,0,0,1-4.734,2.075C196.008,66.432,193.44,64.084,193.44,60.706Z" transform="translate(-168.71 -54.981)" fill="#263238"/>
      <path id="Trazado_217717" data-name="Trazado 217717" d="M208.44,60.709c0-3.295,2.6-5.719,6.12-5.719s6.112,2.424,6.112,5.719-2.59,5.726-6.112,5.726S208.44,64.011,208.44,60.709Zm9.089,0a2.977,2.977,0,1,0-2.969,3.143,2.946,2.946,0,0,0,2.969-3.143Z" transform="translate(-172.349 -54.983)" fill="#263238"/>
      <path id="Trazado_217718" data-name="Trazado 217718" d="M236.687,66.285V60.453L233.854,65.2h-1.379l-2.818-4.59v5.673H226.78V55.28h2.568l3.863,6.347L237,55.28h2.56V66.285Z" transform="translate(-176.798 -55.054)" fill="#263238"/>
      <path id="Trazado_217719" data-name="Trazado 217719" d="M256.455,59.355c0,2.492-1.886,4.052-4.885,4.052h-1.924v2.878H246.54V55.28h5.029C254.569,55.28,256.455,56.833,256.455,59.355Zm-3.143,0c0-1.023-.644-1.621-1.931-1.621h-1.734v3.219h1.734c1.288,0,1.931-.583,1.931-1.6Z" transform="translate(-181.591 -55.054)" fill="#263238"/>
      <path id="Trazado_217720" data-name="Trazado 217720" d="M267.845,64.162h-4.658l-.863,2.144H259.15L264.005,55.3h3.068l4.84,10.99h-3.234Zm-.916-2.272-1.416-3.514L264.1,61.89Z" transform="translate(-184.65 -55.059)" fill="#263238"/>
      <path id="Trazado_217721" data-name="Trazado 217721" d="M287.655,55.28V66.285h-2.56l-4.855-5.862v5.862h-3.03V55.28h2.56l4.855,5.847V55.28Z" transform="translate(-189.031 -55.054)" fill="#263238"/>
      <path id="Trazado_217722" data-name="Trazado 217722" d="M299.359,62.339v3.946h-3.113V62.294l-4.2-7.014h3.287l2.613,4.37,2.606-4.37h3.03Z" transform="translate(-192.631 -55.054)" fill="#263238"/>
      <path id="Trazado_217723" data-name="Trazado 217723" d="M164.52,74.86H293.986l-.008,3.7H164.528Z" transform="translate(-161.695 -59.803)" fill="#f67409"/>
    </g>
    <g id="freepik--character-2--inject-2" transform="translate(245.786 146.344)">
      <path id="Trazado_217724" data-name="Trazado 217724" d="M352.749,230.024c-4.067,5.484-5.643,8.006-7.218,9.559-1.719,1.7-19.276.4-21.4-.485-1.621-.682-.5-2.787.265-2.681,2.893.4,13.755-1.515,16.974-2.908.56-.25,6.059-6.938,6.059-6.938Z" transform="translate(-314.167 -187.968)" fill="#ffb573"/>
      <path id="Trazado_217725" data-name="Trazado 217725" d="M353.36,222.717c3.439-6.309,10.218-10.937,12.27-11.2,2.954-.386,3.946.2,3.083,2.575-1.469,4.037-4.173,8.279-7.983,13.414Z" transform="translate(-321.458 -184.289)" fill="#f67409"/>
      <g id="Grupo_149335" data-name="Grupo 149335" transform="translate(31.902 27.117)" opacity="0.1">
        <path id="Trazado_217726" data-name="Trazado 217726" d="M353.36,222.717c3.439-6.309,10.218-10.937,12.27-11.2,2.954-.386,3.946.2,3.083,2.575-1.469,4.037-4.173,8.279-7.983,13.414Z" transform="translate(-353.36 -211.406)"/>
      </g>
      <path id="Trazado_217727" data-name="Trazado 217727" d="M367.4,210.461a45.243,45.243,0,0,1,5.075-1.515,66.8,66.8,0,0,1,9.551-1.575,54.13,54.13,0,0,1,5.635-.311,2.417,2.417,0,0,1,.568.061,2.825,2.825,0,0,1,2.083,3.317c-3.158,16.7-3.31,24.109-2.855,32.713l-19.223.682a1.022,1.022,0,0,1-1.015-.863c-.856-4.332-3.514-13.959-3.514-13.959a10.872,10.872,0,0,1-3.03-6.817c-.136-.9,1.878-1.878,4.067-6.65C364.707,215.543,366.419,210.8,367.4,210.461Z" transform="translate(-323.231 -183.235)" fill="#f67409"/>
      <path id="Trazado_217728" data-name="Trazado 217728" d="M383.107,247.465l-7.006.258c-1.045-8.332-.848-15.686-.485-23.972a238.875,238.875,0,0,0,7.491,23.715Z" transform="translate(-326.786 -187.284)" fill="#263238"/>
      <path id="Trazado_217729" data-name="Trazado 217729" d="M383.846,319.608c-.174-.386-.348-.757-.515-1.2C375.772,300.347,370,263.817,370,263.817L383.474,257s3.833,32.1,9.089,52.981c.8,3.181,1.628,6.059,2.484,8.581l-9.2,4.226Z" transform="translate(-325.494 -195.35)" fill="#ffb573"/>
      <g id="Grupo_149336" data-name="Grupo 149336" transform="translate(44.506 61.65)" opacity="0.8">
        <path id="Trazado_217730" data-name="Trazado 217730" d="M383.846,319.608c-.174-.386-.348-.757-.515-1.2C375.772,300.347,370,263.817,370,263.817L383.474,257s3.833,32.1,9.089,52.981c.8,3.181,1.628,6.059,2.484,8.581l-9.2,4.226Z" transform="translate(-370 -257)" fill="#263238"/>
      </g>
      <path id="Trazado_217731" data-name="Trazado 217731" d="M369.73,259.78s-6.165,43.173-4.711,60.828c1.515,18.61,7.044,50.474,7.044,50.474l4.545-.311a217.126,217.126,0,0,0-1.129-49.9c10.415-26.805,11.581-60.412,11.581-60.412Z" transform="translate(-324.232 -196.024)" fill="#ffb573"/>
      <path id="Trazado_217732" data-name="Trazado 217732" d="M369.73,259.78s-6.165,43.173-4.711,60.828c1.515,18.61,7.044,50.474,7.044,50.474l4.545-.311a217.126,217.126,0,0,0-1.129-49.9c10.415-26.805,11.581-60.412,11.581-60.412Z" transform="translate(-324.232 -196.024)" fill="#263238" opacity="0.8"/>
      <path id="Trazado_217733" data-name="Trazado 217733" d="M376.772,407.019a4.461,4.461,0,0,1,.508,1.954c.121,2.492.3,9.134.3,9.134l-.545.038s-.333-3.257-.712-4.885-.629-.227-1.462,1.553-3.174,3.605-6.733,3.939c-4.173.386-5.878.311-4.734-.863a11.968,11.968,0,0,1,3.878-2.053s3.636-6.218,3.424-10.414c-.227-4.476,4.946-.273,5.946-.9C376.992,404.595,376.568,406.655,376.772,407.019Z" transform="translate(-323.806 -230.847)" fill="#263238"/>
      <path id="Trazado_217734" data-name="Trazado 217734" d="M391.292,311.362c-2.643.568-4.991,2.515-11.937,3.211h-.417c-.3,0-.6.053-.916.068-1.863.1-12.535-.4-14.512-1.56,1.719-17.761,5.105-55.5,5.105-55.5l8.142-.97,10.505-.318s11.588,11.967,8.922,22.829C392.209,295.365,394.178,297.887,391.292,311.362Z" transform="translate(-323.92 -195.177)" fill="#263238"/>
      <path id="Trazado_217735" data-name="Trazado 217735" d="M395.644,235.069a2.651,2.651,0,0,1-.757-2.151s0-1.2-.038-3.03c-.061-5.3-.106-15.906.447-17.315,1.212-3.03,3.287-4.688,4.37-2.916,1.272,2.075,1.363,17.822,1.363,17.822C400.7,237.9,396.886,236.523,395.644,235.069Z" transform="translate(-331.514 -183.689)" fill="#ffb573"/>
      <path id="Trazado_217736" data-name="Trazado 217736" d="M387.017,206.65l-.636,1.144c-2.454,4.423-8.135,10.187-10.354,10.748a8.217,8.217,0,0,0-2.325-3.09,4.847,4.847,0,0,0-2.484,2.916,12.6,12.6,0,0,1-1.257-8.93h0c1.121-.341,2.318-.689,3.454-.97a68.927,68.927,0,0,1,9.551-1.515A32.252,32.252,0,0,1,387.017,206.65Z" transform="translate(-325.408 -183.136)" fill="#f67409"/>
      <path id="Trazado_217737" data-name="Trazado 217737" d="M387.082,206.65l-.636,1.144c-2.454,4.423-8.135,10.187-10.354,10.748a28.007,28.007,0,0,1-1.053-3.287,6.151,6.151,0,0,0-2.462,3.545c-1.909-3.09-3.03-7.43-2.552-9.362h0c1.121-.341,2.318-.689,3.454-.97a68.93,68.93,0,0,1,9.551-1.515A32.252,32.252,0,0,1,387.082,206.65Z" transform="translate(-325.474 -183.136)" fill="#fff" opacity="0.8"/>
      <path id="Trazado_217738" data-name="Trazado 217738" d="M371.681,234.115l-2.636-3.575-2.356,4.666s2.409,1.348,4.408.894Z" transform="translate(-324.691 -188.931)" fill="#ffb573"/>
      <path id="Trazado_217739" data-name="Trazado 217739" d="M363.931,229.09l-1.121,3.772,2.939,1.969,2.356-4.643Z" transform="translate(-323.75 -188.579)" fill="#ffb573"/>
      <path id="Trazado_217740" data-name="Trazado 217740" d="M389.676,256.806l-9.733.265h-.818l-2.106.061h-.8l-5.718.151c-.174,0-.333-.091-.341-.2l-.227-1.833c0-.121.144-.235.341-.242l5.65-.227h.674l2.795-.106h.659l9.377-.371a.379.379,0,0,1,.341.144l.227,2.083C390.085,256.647,389.918,256.8,389.676,256.806Z" transform="translate(-325.477 -194.694)" fill="#f67409"/>
      <path id="Trazado_217741" data-name="Trazado 217741" d="M389.676,256.806l-9.733.265h-.818l-2.106.061h-.8l-5.718.151c-.174,0-.333-.091-.341-.2l-.227-1.833c0-.121.144-.235.341-.242l5.65-.227h.674l2.795-.106h.659l9.377-.371a.379.379,0,0,1,.341.144l.227,2.083C390.085,256.647,389.918,256.8,389.676,256.806Z" transform="translate(-325.477 -194.694)" fill="#fff" opacity="0.2"/>
      <path id="Trazado_217742" data-name="Trazado 217742" d="M374.068,257.581h.621a.174.174,0,0,0,.212-.159l-.348-2.6c0-.076-.121-.144-.25-.144h-.621c-.129,0-.22.076-.212.151l.348,2.606A.242.242,0,0,0,374.068,257.581Z" transform="translate(-326.336 -194.787)" fill="#263238"/>
      <path id="Trazado_217743" data-name="Trazado 217743" d="M388.393,257.378h.591a.167.167,0,0,0,.2-.136l-.356-2.613c0-.068-.121-.136-.235-.129h-.591c-.121,0-.2.061-.2.144l.348,2.59C388.166,257.325,388.272,257.378,388.393,257.378Z" transform="translate(-329.814 -194.743)" fill="#263238"/>
      <path id="Trazado_217744" data-name="Trazado 217744" d="M388.311,263.494l-1.515-.538,6.741-20.17c1.076-3.2.667-6.264-3.31-7.665a5.693,5.693,0,0,0-7.726,3.787l-6.817,20.109-1.515-.538,6.817-20.094c1.257-3.719,3.681-6.241,9.528-4.173s5.734,5.4,4.484,9.134Z" transform="translate(-326.506 -189.641)" fill="#f67409"/>
      <path id="Trazado_217745" data-name="Trazado 217745" d="M388.409,279.089l-29.539-10.6,6.7-19.557a3.59,3.59,0,0,1,4.59-2.272l21.526,7.65a4.84,4.84,0,0,1,2.916,6.059Z" transform="translate(-322.794 -192.792)" fill="#f67409"/>
      <path id="Trazado_217746" data-name="Trazado 217746" d="M385.441,277.923l-23.018-8.271a3.552,3.552,0,0,1-2.1-4.507l5.552-16.216a3.59,3.59,0,0,1,4.59-2.272l21.526,7.65a4.84,4.84,0,0,1,2.916,6.059l-5.082,15.353a3.416,3.416,0,0,1-4.385,2.2Z" transform="translate(-323.098 -192.792)" fill="#fff" opacity="0.4"/>
      <g id="Grupo_149337" data-name="Grupo 149337" transform="translate(47.702 43.827)" opacity="0.3">
        <path id="Trazado_217747" data-name="Trazado 217747" d="M388.323,263.494l-1.189,1.038-.311-1.575,6.741-20.17c1.076-3.2.667-6.264-3.31-7.665a5.693,5.693,0,0,0-7.726,3.787l-6.817,20.109-1.227,1.023-.265-1.56,6.817-20.094c1.257-3.719,3.681-6.241,9.528-4.173s5.734,5.4,4.484,9.134Z" transform="translate(-374.22 -233.469)" fill="#fff"/>
      </g>
      <path id="Trazado_217748" data-name="Trazado 217748" d="M379.452,256.5l-2.462-.879.311-.932,2.462.879Z" transform="translate(-327.19 -194.789)" fill="#f67409"/>
      <path id="Trazado_217749" data-name="Trazado 217749" d="M376.749,264.48l-2.469-.879.318-.932,2.462.879Z" transform="translate(-326.532 -196.725)" fill="#f67409"/>
      <path id="Trazado_217750" data-name="Trazado 217750" d="M396.159,262.458l-2.469-.879.311-.939,2.469.879Z" transform="translate(-331.241 -196.233)" fill="#f67409"/>
      <path id="Trazado_217751" data-name="Trazado 217751" d="M393.487,270.465l-2.477-.886.311-.939,2.477.886Z" transform="translate(-330.591 -198.173)" fill="#f67409"/>
      <path id="Trazado_217752" data-name="Trazado 217752" d="M388.807,260.286,383.52,258.4l.667-2,5.287,1.886Z" transform="translate(-328.774 -195.204)" fill="#fff"/>
      <path id="Trazado_217753" data-name="Trazado 217753" d="M392.166,242.434c-2.371,1.363-11.96-.174-20.072-5.052a4.514,4.514,0,0,0-.9-.3c-.508-.371.757-1.227,1.515-1.621.417-.212,18.314,2.053,19.549,2.219C393.658,241.336,392.393,241.29,392.166,242.434Z" transform="translate(-325.755 -190.122)" fill="#ffb573"/>
      <path id="Trazado_217754" data-name="Trazado 217754" d="M388.544,331.654c1.3,3.719,5.673,5.355,8.733,3.03a4.42,4.42,0,0,0,.356-.3c13.255-12.27,30.115-30.153,30.115-30.153l-2.84-3.6a187.421,187.421,0,0,0-28.024,19.882c-3.03,2.6-6.173,5.438-9.233,8.468h0Z" transform="translate(-329.776 -205.934)" fill="#ffb573"/>
      <path id="Trazado_217755" data-name="Trazado 217755" d="M388.544,331.654c1.3,3.719,5.673,5.355,8.733,3.03a4.42,4.42,0,0,0,.356-.3c13.255-12.27,30.115-30.153,30.115-30.153l-2.84-3.6a187.421,187.421,0,0,0-28.024,19.882c-3.03,2.6-6.173,5.438-9.233,8.468h0Z" transform="translate(-329.776 -205.934)" fill="#263238" opacity="0.8"/>
      <path id="Trazado_217756" data-name="Trazado 217756" d="M434.064,298.814a3.908,3.908,0,0,1,.969-1.613c1.591-1.659,5.893-5.931,5.893-5.931l.386.386s-1.939,2.272-2.772,3.575.265.606,2,.114,4.507.106,7.1,2.545c3.03,2.871,4.135,4.2,2.6,4.067a12.477,12.477,0,0,1-3.954-1.6s-6.567,1.2-9.233,4.014c-2.863,3.03-3.484-3.537-4.544-3.893C432.276,300.155,433.95,299.193,434.064,298.814Z" transform="translate(-340.651 -203.663)" fill="#263238"/>
      <path id="Trazado_217757" data-name="Trazado 217757" d="M374.51,203.4c1.424,1.7,2.53,3.787.636,6.249a2.886,2.886,0,0,0-.621,1.848c.045,1.068.757,2.068,4.029-.22,4.772-3.3,4.12-6.612,4.12-6.612-2.666-.621-4.605-6.059-5.423-9.142Z" transform="translate(-326.588 -180.436)" fill="#ffb573"/>
      <path id="Trazado_217758" data-name="Trazado 217758" d="M377.3,201.3c.47,1.318-.8,3.56-1.81,4.484a9,9,0,0,0-.97-1.356l1.621-4.666A4.817,4.817,0,0,1,377.3,201.3Z" transform="translate(-326.591 -181.464)" opacity="0.2"/>
      <path id="Trazado_217759" data-name="Trazado 217759" d="M359.353,184.107c-1.272,4.946.621,10.369,4.113,14.1,3.53-3.87,10.2-3.03,13.914-6.726a8.632,8.632,0,0,0,1.4-9.71c-1.651-3.378-6.529-6.635-10.377-6.1A11.5,11.5,0,0,0,359.353,184.107Z" transform="translate(-322.815 -175.605)" fill="#263238"/>
      <path id="Trazado_217760" data-name="Trazado 217760" d="M374.755,183.638a6.938,6.938,0,0,0-9.649-1.825c-4.476,3.03-3.643,10.6-1.644,14.883,2.2,4.787,8.612,4.984,11.6.288,2.007-3.128,1.583-5.264.841-10.346A7.02,7.02,0,0,0,374.755,183.638Z" transform="translate(-323.516 -176.817)" fill="#ffb573"/>
      <path id="Trazado_217761" data-name="Trazado 217761" d="M366.835,197.676a1.78,1.78,0,0,1-1.515,0,10.976,10.976,0,0,0,.917-2.916Z" transform="translate(-324.359 -180.251)" fill="#ed893e"/>
      <path id="Trazado_217762" data-name="Trazado 217762" d="M371.591,197.947a.114.114,0,0,0-.068-.159.129.129,0,0,0-.159.068A3.242,3.242,0,0,1,369,199.674a.136.136,0,0,0-.091.151h0a.114.114,0,0,0,.136.091,3.79,3.79,0,0,0,.576-.159,3.431,3.431,0,0,0,1.969-1.81Z" transform="translate(-325.229 -180.984)" fill="#263238"/>
      <path id="Trazado_217763" data-name="Trazado 217763" d="M367.457,178.337a5.3,5.3,0,0,0-.757,2.121c5.915,1.363,10.278,7.574,11.96,13.459,1.6-2.106,4.734-4.681,5.953-7.211,1.356-2.84-.454-6.059-3.181-7.65a49,49,0,0,0-7.5-2.961A5.59,5.59,0,0,0,367.457,178.337Z" transform="translate(-324.694 -175.652)" fill="#263238"/>
      <path id="Trazado_217764" data-name="Trazado 217764" d="M382.193,192.179a1.674,1.674,0,0,0-1.977-1.31c-1.25.273-1.7,2.022-1.628,3.143.106,1.235,1.068,2.09,2.128,1.318a3.787,3.787,0,0,0,1.515-2.454A1.8,1.8,0,0,0,382.193,192.179Z" transform="translate(-327.575 -179.299)" fill="#ffb573"/>
      <path id="Trazado_217765" data-name="Trazado 217765" d="M370.091,191.755c.136.492,0,.969-.348,1.06s-.689-.242-.818-.757,0-.969.341-1.053S369.954,191.218,370.091,191.755Z" transform="translate(-325.221 -179.337)" fill="#263238"/>
      <path id="Trazado_217766" data-name="Trazado 217766" d="M364.127,193.84c.136.492,0,.969-.348,1.053s-.689-.242-.826-.757,0-.969.348-1.06S364,193.333,364.127,193.84Z" transform="translate(-323.772 -179.839)" fill="#263238"/>
      <path id="Trazado_217767" data-name="Trazado 217767" d="M363.22,193.09h-1.28S362.8,193.832,363.22,193.09Z" transform="translate(-323.539 -179.846)" fill="#263238"/>
      <path id="Trazado_217768" data-name="Trazado 217768" d="M370.844,188.7a.265.265,0,0,0,.023-.439h0a2.893,2.893,0,0,0-2.674-.318.265.265,0,0,0-.129.333.257.257,0,0,0,.326.129,2.416,2.416,0,0,1,2.212.28A.265.265,0,0,0,370.844,188.7Z" transform="translate(-325.02 -178.55)" fill="#263238"/>
      <path id="Trazado_217769" data-name="Trazado 217769" d="M361.556,191.9a.537.537,0,0,0,.076-.106,2.454,2.454,0,0,1,1.636-1.515.25.25,0,0,0,.2-.288h0a.25.25,0,0,0-.3-.189,2.961,2.961,0,0,0-2.007,1.81.25.25,0,0,0,.121.333.273.273,0,0,0,.273-.038Z" transform="translate(-323.344 -179.046)" fill="#263238"/>
      <path id="Trazado_217770" data-name="Trazado 217770" d="M369.18,191H367.9S368.733,191.7,369.18,191Z" transform="translate(-324.985 -179.339)" fill="#263238"/>
      <path id="Trazado_217771" data-name="Trazado 217771" d="M359.273,191.848c.583,3.113,3.105,7.408,5.794,9.089-1.81,1.371-5.052-.182-6.961-1.4a8.021,8.021,0,0,1-3.416-5.643,13.633,13.633,0,0,1,.894-6.673,20.17,20.17,0,0,1,6.658-8.6c.576-.47,1.56-.841,1.939-.2.265.439-.038.992-.326,1.409C361.06,183.865,358.864,186.713,359.273,191.848Z" transform="translate(-321.758 -176.203)" fill="#263238"/>
      <path id="Trazado_217772" data-name="Trazado 217772" d="M376.209,198.419h-.045a.189.189,0,0,1-.136-.227c2.022-8.173-6.741-14.391-9.475-16.133a.189.189,0,0,1-.061-.258.182.182,0,0,1,.257-.061c2.795,1.75,11.732,8.12,9.65,16.542A.189.189,0,0,1,376.209,198.419Z" transform="translate(-324.636 -177.086)" fill="#263238"/>
      <path id="Trazado_217773" data-name="Trazado 217773" d="M381.307,195.95l-.167,2.886.773.636.379-.886Z" transform="translate(-328.196 -180.54)" fill="#f67409"/>
      <path id="Trazado_217774" data-name="Trazado 217774" d="M396.532,207.365a3.567,3.567,0,0,0-3.424.954,6.885,6.885,0,0,0-1.742,3.825,16.734,16.734,0,0,0,.863,6.521,22.124,22.124,0,0,1,1.2,6.514c2.318-1.265,5.688-3.787,8.93-4.12-.447-5.158-1.045-8.6-2.045-10.3a9.5,9.5,0,0,0-2.053-2.7A4.688,4.688,0,0,0,396.532,207.365Z" transform="translate(-330.659 -183.282)" fill="#f67409"/>
      <g id="Grupo_149338" data-name="Grupo 149338" transform="translate(60.632 23.972)" opacity="0.1">
        <path id="Trazado_217775" data-name="Trazado 217775" d="M396.532,207.365a3.567,3.567,0,0,0-3.424.954,6.885,6.885,0,0,0-1.742,3.825,16.734,16.734,0,0,0,.863,6.521,22.124,22.124,0,0,1,1.2,6.514c2.318-1.265,5.688-3.787,8.93-4.12-.447-5.158-1.045-8.6-2.045-10.3a9.5,9.5,0,0,0-2.053-2.7A4.688,4.688,0,0,0,396.532,207.365Z" transform="translate(-391.291 -207.254)" fill="#fff"/>
      </g>
      <path id="Trazado_217776" data-name="Trazado 217776" d="M323.458,239.5s-5.719.947-5.794,1.2-.045,3.477-.045,3.477l5.135-1.947Z" transform="translate(-312.786 -191.105)" fill="#ffb573"/>
      <path id="Trazado_217777" data-name="Trazado 217777" d="M316.072,244.021l-4.832-4.552,2.159-.629,3.583,1.947Z" transform="translate(-311.24 -190.944)" fill="#ffb573"/>
    </g>
    <g id="freepik--character-1--inject-2" transform="translate(41.417 121.33)">
      <path id="Trazado_217778" data-name="Trazado 217778" d="M125.01,398.085l5.4-.3.477,12.793-5.4.288Z" transform="translate(-61.695 -204.489)" fill="#f7978d"/>
      <path id="Trazado_217779" data-name="Trazado 217779" d="M132.137,413.064c1.681,1.038,4.113,1.947,8.544,2.393.985.1,1.3,2.348-.977,2.6s-6.256.606-7.907.757c-2.689.288-3.689.53-5.809.8a.969.969,0,0,1-1.06-.863l-.227-4.863a.386.386,0,0,1,.364-.417l6.1-.667A1.561,1.561,0,0,1,132.137,413.064Z" transform="translate(-61.62 -208.129)" fill="#263238"/>
      <path id="Trazado_217780" data-name="Trazado 217780" d="M125.252,404.685l5.408-.3-.25-6.59-5.4.3Z" transform="translate(-61.695 -204.491)" opacity="0.2"/>
      <path id="Trazado_217781" data-name="Trazado 217781" d="M137.185,413.416a.7.7,0,0,0,.083-.7.492.492,0,0,0-.341-.326c-.689-.189-2.113,1.03-2.272,1.174a.136.136,0,0,0,0,.129.167.167,0,0,0,.114.1,6.746,6.746,0,0,0,1.462,0A1.515,1.515,0,0,0,137.185,413.416Zm-2.121.151c.576-.432,1.439-1.023,1.81-.916a.242.242,0,0,1,.159.159.439.439,0,0,1,0,.462c-.227.3-.939.4-1.939.311Z" transform="translate(-64.031 -208.026)" fill="#f67409"/>
      <path id="Trazado_217782" data-name="Trazado 217782" d="M134.788,413.4a2.873,2.873,0,0,0,1.007-2.189.5.5,0,0,0-.5-.333.629.629,0,0,0-.523.235c-.492.591-.167,2.143-.182,2.2a.121.121,0,0,0,.068.1h.068Zm.477-2.272c.189,0,.273.091.258.159a2.5,2.5,0,0,1-.757,1.75,2.931,2.931,0,0,1,.167-1.765.356.356,0,0,1,.265-.136Z" transform="translate(-63.997 -207.664)" fill="#f67409"/>
      <path id="Trazado_217783" data-name="Trazado 217783" d="M67.413,390.69l5.355,1.129-3.9,12.119L63.52,402.8Z" transform="translate(-46.779 -202.766)" fill="#f7978d"/>
      <path id="Trazado_217784" data-name="Trazado 217784" d="M69.715,407.609c1.25,1.515,3.84,3.348,7.915,5.15.909.409.507,2.636-1.734,2.166s-6.688-1.6-8.332-1.939c-2.643-.56-3.666-.651-5.764-1.053h0a.962.962,0,0,1-.757-1.151l1.3-4.7a.394.394,0,0,1,.47-.28l6.014,1.272A1.568,1.568,0,0,1,69.715,407.609Z" transform="translate(-46.173 -206.431)" fill="#263238"/>
      <path id="Trazado_217785" data-name="Trazado 217785" d="M66.01,396.941l5.347,1.129,2.015-6.241L68.017,390.7Z" transform="translate(-47.383 -202.769)" opacity="0.2"/>
      <path id="Trazado_217786" data-name="Trazado 217786" d="M113.55,241s5.7,49.285,6.128,67.713c.4,16.974.121,54.534.121,54.534l9.846-.462s4.1-34.894,5.3-52c1.076-15.656-2.272-65.752-2.272-65.752Z" transform="translate(-58.915 -166.454)" fill="#f67409"/>
      <path id="Trazado_217787" data-name="Trazado 217787" d="M116.64,266c.879,10.195,2.075,23.313,3.166,34.288,2.272-6.347,3.636-22.329.939-32.122C119.117,262.205,117.67,263.516,116.64,266Z" transform="translate(-59.665 -172.011)" opacity="0.2"/>
      <path id="Trazado_217788" data-name="Trazado 217788" d="M119.67,399.49l12.7-.97-.583,4.173-10.687.886Z" transform="translate(-60.4 -204.666)" fill="#263238"/>
      <path id="Trazado_217789" data-name="Trazado 217789" d="M90.26,243.51s-9.2,45.362-12.369,63.517C74.96,323.751,63.5,359.213,63.5,359.213l9.771,2.068S89.51,325.4,94.009,308.837c4.113-15.148,14.391-61.495,14.391-61.495Z" transform="translate(-46.774 -167.063)" fill="#f67409"/>
      <path id="Trazado_217790" data-name="Trazado 217790" d="M63.1,391.88l13.164,2.181-1.371,3.59-11.952-2.53Z" transform="translate(-46.638 -203.055)" fill="#263238"/>
      <path id="Trazado_217791" data-name="Trazado 217791" d="M74.192,408.81a.689.689,0,0,0,.3-.651.462.462,0,0,0-.212-.417c-.591-.394-2.333.318-2.53.4a.174.174,0,0,0-.076.121.136.136,0,0,0,.076.114,7.029,7.029,0,0,0,1.386.492A1.515,1.515,0,0,0,74.192,408.81Zm-2.022-.553c.7-.265,1.681-.53,1.969-.3a.227.227,0,0,1,.1.2.454.454,0,0,1-.182.432c-.3.189-1.015.068-1.931-.318Z" transform="translate(-48.756 -206.874)" fill="#f67409"/>
      <path id="Trazado_217792" data-name="Trazado 217792" d="M71.836,407.9c.591-.212,1.636-1.151,1.636-1.765a.492.492,0,0,0-.371-.477.629.629,0,0,0-.568.068c-.651.409-.848,1.969-.863,2.037a.114.114,0,0,0,.045.106h.061Zm1.182-1.992c.182.068.22.159.2.235,0,.4-.712,1.136-1.257,1.432a2.833,2.833,0,0,1,.712-1.666.371.371,0,0,1,.3-.045Z" transform="translate(-48.756 -206.388)" fill="#f67409"/>
      <path id="Trazado_217793" data-name="Trazado 217793" d="M74.6,254.675c1.272-1.272,1.462-2.666,2.272-4.143.538-1.007-.7-.614.538-.485a6.06,6.06,0,0,1,1.333.462c1.076.417,2.113.932,3.2,1.318.932.333,2.606.182,3.4.644,1.288.757.053,4.09-.22,5.166-.318,1.3,1.674,1.984,1.992.667.47-1.878,1.666-5.226.22-6.991-.9-1.1-2.272-.879-3.53-1.121-2.356-.454-4.764-2.606-7.233-2.348a1.856,1.856,0,0,0-1.674,1.219c-.394.863-.167,1.825-.682,2.734a6.285,6.285,0,0,1-.985,1.3c-.954.954.424,2.537,1.386,1.583Z" transform="translate(-49.058 -168.109)" fill="#f67409"/>
      <g id="Grupo_149339" data-name="Grupo 149339" transform="translate(23.857 79.713)" opacity="0.3">
        <path id="Trazado_217794" data-name="Trazado 217794" d="M74.6,254.675c1.272-1.272,1.462-2.666,2.272-4.143.538-1.007-.7-.614.538-.485a6.06,6.06,0,0,1,1.333.462c1.076.417,2.113.932,3.2,1.318.932.333,2.606.182,3.4.644,1.288.757.053,4.09-.22,5.166-.318,1.3,1.674,1.984,1.992.667.47-1.878,1.666-5.226.22-6.991-.9-1.1-2.272-.879-3.53-1.121-2.356-.454-4.764-2.606-7.233-2.348a1.856,1.856,0,0,0-1.674,1.219c-.394.863-.167,1.825-.682,2.734a6.285,6.285,0,0,1-.985,1.3c-.954.954.424,2.537,1.386,1.583Z" transform="translate(-72.915 -247.822)"/>
      </g>
      <path id="Trazado_217795" data-name="Trazado 217795" d="M2.431,0H42.37a2.454,2.454,0,0,1,2.454,2.454V23.828a4.234,4.234,0,0,1-4.234,4.234H4.234A4.234,4.234,0,0,1,0,23.828V2.454A2.454,2.454,0,0,1,2.431,0Z" transform="matrix(0.948, 0.318, -0.318, 0.948, 8.918, 80.437)" fill="#f67409"/>
      <path id="Trazado_217796" data-name="Trazado 217796" d="M2.431,0H42.37a2.454,2.454,0,0,1,2.454,2.454V23.828a4.234,4.234,0,0,1-4.234,4.234H4.234A4.234,4.234,0,0,1,0,23.828V2.454A2.454,2.454,0,0,1,2.431,0Z" transform="matrix(0.948, 0.318, -0.318, 0.948, 8.918, 80.437)" fill="#fff" opacity="0.3"/>
      <rect id="Rectángulo_45248" data-name="Rectángulo 45248" width="18.042" height="0.757" transform="translate(22.048 113.888) rotate(-70.71)" fill="#f67409"/>
      <g id="Grupo_149340" data-name="Grupo 149340" transform="translate(22.048 96.859)" opacity="0.3">
        <rect id="Rectángulo_45249" data-name="Rectángulo 45249" width="18.042" height="0.757" transform="translate(0 17.029) rotate(-70.71)"/>
      </g>
      <path id="Trazado_217797" data-name="Trazado 217797" d="M92.019,265.681,53.8,252.873a2.272,2.272,0,0,0-2.871,1.432l-.265.757a6.4,6.4,0,0,0,4.029,8.1l30.4,10.233a6.393,6.393,0,0,0,8.089-4.037l.265-.757a2.272,2.272,0,0,0-1.432-2.916Z" transform="translate(-43.58 -169.306)" opacity="0.2"/>
      <path id="Trazado_217798" data-name="Trazado 217798" d="M93.121,262.5,54.887,249.692a2.272,2.272,0,0,0-2.878,1.432l-.265.757a6.4,6.4,0,0,0,4.029,8.1L86.2,270.2a6.393,6.393,0,0,0,8.074-4.037l.265-.757a2.272,2.272,0,0,0-1.416-2.9Z" transform="translate(-43.842 -168.534)" fill="#f67409"/>
      <path id="Trazado_217799" data-name="Trazado 217799" d="M93.121,262.5,54.887,249.692a2.272,2.272,0,0,0-2.878,1.432l-.265.757a6.4,6.4,0,0,0,4.029,8.1L86.2,270.2a6.393,6.393,0,0,0,8.074-4.037l.265-.757a2.272,2.272,0,0,0-1.416-2.9Z" transform="translate(-43.842 -168.534)" fill="#f67409"/>
      <path id="Trazado_217800" data-name="Trazado 217800" d="M93.121,262.5,54.887,249.692a2.272,2.272,0,0,0-2.878,1.432l-.265.757a6.4,6.4,0,0,0,4.029,8.1L86.2,270.2a6.393,6.393,0,0,0,8.074-4.037l.265-.757a2.272,2.272,0,0,0-1.416-2.9Z" transform="translate(-43.842 -168.534)" fill="#fff" opacity="0.5"/>
      <rect id="Rectángulo_45250" data-name="Rectángulo 45250" width="4.287" height="9.013" rx="1.95" transform="translate(16.089 88.816) rotate(18.52)" fill="#f67409"/>
      <rect id="Rectángulo_45251" data-name="Rectángulo 45251" width="4.287" height="9.013" rx="1.95" transform="translate(36.677 95.711) rotate(18.51)" fill="#f67409"/>
      <rect id="Rectángulo_45252" data-name="Rectángulo 45252" width="4.287" height="9.013" rx="1.95" transform="translate(16.089 88.816) rotate(18.52)" fill="#fff"/>
      <rect id="Rectángulo_45253" data-name="Rectángulo 45253" width="4.287" height="9.013" rx="1.95" transform="translate(36.677 95.711) rotate(18.51)" fill="#fff"/>
      <path id="Trazado_217801" data-name="Trazado 217801" d="M145.092,191.467c.341.674.757,1.477,1.166,2.212s.833,1.515,1.265,2.272c.871,1.477,1.757,2.931,2.7,4.31a44.2,44.2,0,0,0,2.939,3.855,13.134,13.134,0,0,0,2.977,2.666l.151.091h.258a3.03,3.03,0,0,0,1.219-.28,14.868,14.868,0,0,0,3.567-2.393,36.9,36.9,0,0,0,3.575-3.477c.576-.636,1.151-1.265,1.7-1.924s1.121-1.356,1.613-1.962l.091-.121a2.946,2.946,0,0,1,4.893,3.28,47.715,47.715,0,0,1-6.817,9.483,22.064,22.064,0,0,1-5.135,4.075,11.089,11.089,0,0,1-3.946,1.31,8.287,8.287,0,0,1-2.522-.076,7.578,7.578,0,0,1-1.28-.341,3.084,3.084,0,0,1-.6-.242l-.454-.2a20.814,20.814,0,0,1-5.476-4.12,41.009,41.009,0,0,1-3.916-4.545c-1.166-1.568-2.272-3.158-3.257-4.794-.53-.81-1-1.606-1.469-2.462s-.917-1.636-1.394-2.583a4.564,4.564,0,0,1,8.142-4.128h0Z" transform="translate(-64.47 -153.808)" fill="#263238"/>
      <path id="Trazado_217802" data-name="Trazado 217802" d="M181.39,201.146l4.295,1.56-.3-5.014s-4.469-1.583-5.06.757v1.1A1.659,1.659,0,0,0,181.39,201.146Z" transform="translate(-75.115 -155.822)" fill="#f7978d"/>
      <path id="Trazado_217803" data-name="Trazado 217803" d="M191.721,201.537l.909-4.287-5.62.454.3,5.022Z" transform="translate(-76.735 -155.841)" fill="#f7978d"/>
      <g id="freepik--Character--inject-2--inject-2" transform="translate(27.825 0)">
        <path id="Trazado_217804" data-name="Trazado 217804" d="M146.695,210.563c-.5-.583-.985-1.159-1.454-1.742a47.855,47.855,0,0,1-3.954-5.938,61.239,61.239,0,0,1-3.105-6.234c-.129-.3-.25-.606-.371-.909,2.272-1.371,7.18-.7,8.763,5.673A23.692,23.692,0,0,1,146.695,210.563Z" transform="translate(-92.626 -155.332)" opacity="0.3"/>
        <path id="Trazado_217805" data-name="Trazado 217805" d="M127.4,234.476l-28.57-6.059c.333-2.6,2.666-10.786,4.484-21.458a171.013,171.013,0,0,0,1.962-22.238v-.068a3.492,3.492,0,0,1,3.689-3.295h.061c1.78.106,4,.311,6.143.651a110.781,110.781,0,0,1,12.157,2.575,32.568,32.568,0,0,1,3.863,1.515,5.3,5.3,0,0,1,3.189,4.408C134.883,196.809,134.641,209.027,127.4,234.476Z" transform="translate(-83.17 -151.985)" fill="#fff"/>
        <path id="Trazado_217806" data-name="Trazado 217806" d="M130.543,190.537l-.818,1.636a.689.689,0,0,1-.629.454l-1.424-.121c-.2,0-.371-.182-.447-.447l-.576-1.962,2.121-1.318Z" transform="translate(-89.918 -153.787)" fill="#f67409"/>
        <path id="Trazado_217807" data-name="Trazado 217807" d="M114.229,181.369c-2.272-.364-4.6-.568-6.476-.689h-.167a3.681,3.681,0,0,0-3.787,3.552,182.219,182.219,0,0,1-2.06,23.48c-2.78,19.913-5.529,23.874-5.529,23.874l12.717,2.356c3.855-18.087,6.817-42.794,6.514-52.406Z" transform="translate(-82.534 -151.821)" fill="#263238"/>
        <path id="Trazado_217808" data-name="Trazado 217808" d="M104.07,206.779a179.2,179.2,0,0,0,1.515-17.913,1.466,1.466,0,0,1,.2-.174c1.6-1.363,5.59,1.9,4.5,8.013C109.273,202.484,106.448,206,104.07,206.779Z" transform="translate(-84.441 -153.691)" opacity="0.3"/>
        <path id="Trazado_217809" data-name="Trazado 217809" d="M136.925,239.558l-7.7-2.06c4.832-33.894,5.961-42.9,4.87-52.4a55.919,55.919,0,0,1,5.628,1.8,6.2,6.2,0,0,1,3.469,5.029C143.848,197.219,139.819,210.777,136.925,239.558Z" transform="translate(-90.544 -152.894)" fill="#263238"/>
        <path id="Trazado_217810" data-name="Trazado 217810" d="M127.388,238.457a1.628,1.628,0,0,1,2.181.757h0a1.636,1.636,0,1,1-2.189-.72Z" transform="translate(-89.876 -165.798)" fill="#263238"/>
        <path id="Trazado_217811" data-name="Trazado 217811" d="M126.343,240.713a1.9,1.9,0,0,1,.826-2.56h0a1.871,1.871,0,0,1,1.454-.114,1.9,1.9,0,1,1-2.272,2.674Z" transform="translate(-89.793 -165.713)" fill="#fff"/>
        <path id="Trazado_217812" data-name="Trazado 217812" d="M127.3,182.887c-6.1-.947-7.521-5.014-7.521-5.014,3.2-2.083,3.7-9.437,3.628-13.543l2.674,3.386,3.651,4.613a17.743,17.743,0,0,0-.659,1.734c-.757,2.348-.583,4.673,2.772,6.256C131.846,180.319,132.5,183.674,127.3,182.887Z" transform="translate(-88.252 -147.856)" fill="#f7978d"/>
        <path id="Trazado_217813" data-name="Trazado 217813" d="M118.261,181.168l2-.288a18.769,18.769,0,0,0,6.256,5.938,7.2,7.2,0,0,0-3.28,2.643C117.292,185.932,118.261,181.168,118.261,181.168Z" transform="translate(-87.869 -151.87)" fill="#fff"/>
        <path id="Trazado_217814" data-name="Trazado 217814" d="M134.169,184.757,132.518,184s-1.462,3.454-3.348,3.583c2.855,1.863,3.03,3.507,3.03,3.507C136.987,190.6,134.169,184.757,134.169,184.757Z" transform="translate(-90.53 -152.627)" fill="#fff"/>
        <path id="Trazado_217815" data-name="Trazado 217815" d="M131.1,175.043l-3.5-4.393a8.028,8.028,0,0,0-.288,1.7c-.114,1.742,1.7,3.946,3.272,4.643Z" transform="translate(-90.077 -149.389)" opacity="0.2"/>
        <path id="Trazado_217816" data-name="Trazado 217816" d="M137.118,162.552s.189,2.727,3.03,1.681c.121-2.9,1.076-2.681,2.06-4.385a6.294,6.294,0,0,0,.379-6.446l-1.81-.916C133.717,150.3,137.118,162.552,137.118,162.552Z" transform="translate(-92.259 -144.919)" fill="#263238"/>
        <path id="Trazado_217817" data-name="Trazado 217817" d="M137.118,162.552s.189,2.727,3.03,1.681c.121-2.9,1.076-2.681,2.06-4.385a6.294,6.294,0,0,0,.379-6.446l-1.81-.916C133.717,150.3,137.118,162.552,137.118,162.552Z" transform="translate(-92.259 -144.919)" fill="#fff" opacity="0.6"/>
        <path id="Trazado_217818" data-name="Trazado 217818" d="M126.666,150.534a7.158,7.158,0,0,1,10.1-.576c4.4,3.734,2.855,11.687.379,16a7.074,7.074,0,0,1-12.513-.258c-1.825-3.53-.856-6.567.364-11.869a7.18,7.18,0,0,1,1.666-3.295Z" transform="translate(-89.184 -143.929)" fill="#f7978d"/>
        <path id="Trazado_217819" data-name="Trazado 217819" d="M123.354,159.014s.712,2.356,3.287,1.1c-.447-2.545.523-2.477,1.159-4.09a5.181,5.181,0,0,0-.871-5.711l-1.947-.568C115.727,148.872,123.354,159.014,123.354,159.014Z" transform="translate(-88.402 -144.304)" fill="#263238"/>
        <path id="Trazado_217820" data-name="Trazado 217820" d="M123.354,159.014s.712,2.356,3.287,1.1c-.447-2.545.523-2.477,1.159-4.09a5.181,5.181,0,0,0-.871-5.711l-1.947-.568C115.727,148.872,123.354,159.014,123.354,159.014Z" transform="translate(-88.402 -144.304)" fill="#fff" opacity="0.6"/>
        <path id="Trazado_217821" data-name="Trazado 217821" d="M131.947,142.754a2.878,2.878,0,0,0-2.848.507c-.507.439-1,1.113-1.659.985a2.424,2.424,0,0,1-.863-.538,3.152,3.152,0,0,0-3.636.371,10.929,10.929,0,0,0-2.363,3.09,7.1,7.1,0,0,1-2.628,2.84,8.271,8.271,0,0,0,6.756.167,4.461,4.461,0,0,1-2.363,1.515,9.18,9.18,0,0,0,6.438-.523,13.145,13.145,0,0,1,3.408-1.515c1.235-.2,2.749.454,2.863,1.7a1.219,1.219,0,0,1,1.681-.583,3.355,3.355,0,0,1,1.318,1.515,3.871,3.871,0,0,0,1.25,1.568,1.28,1.28,0,0,0,1.772-.333,1.9,1.9,0,0,1-1.742-1.75,3.249,3.249,0,0,0,2.189.356c-.985-.061-2.916-3.583-3.211-4.545a4.6,4.6,0,0,0-1.568-2.454c-.924-.636-1.856.47-2.727,0S132.932,143.125,131.947,142.754Z" transform="translate(-87.808 -142.579)" fill="#263238"/>
        <path id="Trazado_217822" data-name="Trazado 217822" d="M134.415,167.316a3.477,3.477,0,0,1-1.235-2.356l1.515.606c.644.25,2.492,1.03,2.083,2.045S134.907,167.717,134.415,167.316Z" transform="translate(-91.503 -148.008)" fill="#263238"/>
        <path id="Trazado_217823" data-name="Trazado 217823" d="M139.88,169.666a3.477,3.477,0,0,0,2.439-1.076l-1.583-.485c-.659-.2-2.59-.757-2.908.311S139.236,169.673,139.88,169.666Z" transform="translate(-92.621 -148.692)" fill="#263238"/>
        <path id="Trazado_217824" data-name="Trazado 217824" d="M137.78,166.717a2.507,2.507,0,0,0,2.09.273,16.269,16.269,0,0,1-.939-4.279Z" transform="translate(-92.618 -147.463)" fill="#ff5652"/>
        <path id="Trazado_217825" data-name="Trazado 217825" d="M124.049,157.153c1.288.432,1.8,2.59,1.734,3.939-.068,1.515-1.06,2.446-2.174,1.515a5.06,5.06,0,0,1-1.568-3.03C121.845,158.062,122.761,156.714,124.049,157.153Z" transform="translate(-88.794 -146.094)" fill="#f7978d"/>
        <path id="Trazado_217826" data-name="Trazado 217826" d="M135.759,160.334c.273.1.379.553.265.939s-.439.651-.712.561-.364-.492-.273-.924S135.478,160.243,135.759,160.334Z" transform="translate(-91.945 -146.882)" fill="#263238"/>
        <path id="Trazado_217827" data-name="Trazado 217827" d="M142.064,162.077c.28.091.394.5.273.924s-.447.7-.72.606-.394-.507-.273-.932S141.83,162.016,142.064,162.077Z" transform="translate(-93.472 -147.307)" fill="#263238"/>
        <path id="Trazado_217828" data-name="Trazado 217828" d="M136.234,170.41a.144.144,0,0,0,.151-.106.136.136,0,0,0-.106-.151,3.628,3.628,0,0,1-2.659-1.8.13.13,0,0,0-.235.114,3.787,3.787,0,0,0,2.348,1.833A3.1,3.1,0,0,1,136.234,170.41Z" transform="translate(-91.55 -148.815)" fill="#263238"/>
        <path id="Trazado_217829" data-name="Trazado 217829" d="M142.084,159.569a.265.265,0,0,0,.159.189,2.181,2.181,0,0,1,1.4,1.3.242.242,0,0,0,.3.182h0a.265.265,0,0,0,.174-.318h0a2.674,2.674,0,0,0-1.727-1.659.265.265,0,0,0-.326.167A.212.212,0,0,0,142.084,159.569Z" transform="translate(-93.657 -146.625)" fill="#263238"/>
        <path id="Trazado_217830" data-name="Trazado 217830" d="M134.766,157.7a.28.28,0,0,0,.242.045,2.2,2.2,0,0,1,1.909.174.25.25,0,0,0,.348-.045h0a.258.258,0,0,0-.053-.356h0a2.643,2.643,0,0,0-2.378-.242.25.25,0,0,0-.159.326.318.318,0,0,0,.091.1Z" transform="translate(-91.861 -146.101)" fill="#263238"/>
        <path id="Trazado_217831" data-name="Trazado 217831" d="M80.12,244.866l-.985-.106c-2.318,1.113.2,5.4.2,5.4l6.817-.833-1.977-2.272a6.309,6.309,0,0,0-4.052-2.189Z" transform="translate(-78.154 -167.366)" fill="#f7978d"/>
        <path id="Trazado_217832" data-name="Trazado 217832" d="M86.744,253.726l-.227-2.946-6.817.833.379,3.492a1.077,1.077,0,0,0,0,.151,1.038,1.038,0,0,0,1.265.757l4.643-1.219a1.038,1.038,0,0,0,.757-1.068Z" transform="translate(-78.529 -168.827)" fill="#f7978d"/>
        <path id="Trazado_217833" data-name="Trazado 217833" d="M130.977,220.126s-2.371,5.7-3.416,4.916-3.454-5.15-3.461-5.241,2.954-26.1,2.954-26.1l1.416.121C127.895,196.737,130.977,220.126,130.977,220.126Z" transform="translate(-89.3 -154.98)" fill="#f67409"/>
      </g>
      <path id="Trazado_217834" data-name="Trazado 217834" d="M80.665,203.07C77.832,207.1,77.151,226.111,77.908,231a3.719,3.719,0,0,1,4.855-.606c.068-3.348,2.78-15.307,3.946-20.3a6.059,6.059,0,0,1,2.325-3.492c5-3.62,14.05-10.786,15.05-13.634,1.613-4.545.227-13.861-3.787-11C96.5,184.7,82.915,199.821,80.665,203.07Z" transform="translate(-50.2 -152.004)" fill="#263238"/>
    </g>
    <g id="freepik--Birds--inject-2" transform="translate(97.468 65.801)">
      <path id="Trazado_217835" data-name="Trazado 217835" d="M377.64,82.066a9.845,9.845,0,0,1-1.583-.515c-.954-.371-2.174-1-3.454-1.613a10.49,10.49,0,0,0-3.378-1.015c-.9-.1-1.515,0-1.6-.235s.447-.674,1.515-.879a6.961,6.961,0,0,1,4.113.7,12.7,12.7,0,0,1,3.2,2.378C377.2,81.6,377.64,82.066,377.64,82.066Z" transform="translate(-176.599 -71.324)" fill="#f67409"/>
      <path id="Trazado_217836" data-name="Trazado 217836" d="M385.8,77.418l-1.144.447c-.682.28-1.515.674-2.5,1.091-1.916.848-3.552,1.727-3.787,1.341-.121-.174.129-.606.682-1.136a8.536,8.536,0,0,1,2.515-1.651,5.741,5.741,0,0,1,3.03-.424,4.545,4.545,0,0,1,.916.22Z" transform="translate(-179.2 -71.151)" fill="#f67409"/>
      <path id="Trazado_217837" data-name="Trazado 217837" d="M364.591,86.76l-.311-.189c-.2-.129-.492-.3-.848-.485a18.179,18.179,0,0,0-2.8-1.219c-2.227-.8-4.219-.621-4.279-.962,0-.151.454-.409,1.318-.53a7.506,7.506,0,0,1,3.348.371,6.673,6.673,0,0,1,2.787,1.878,5.124,5.124,0,0,1,.606.818Z" transform="translate(-173.865 -72.676)" fill="#f67409"/>
      <path id="Trazado_217838" data-name="Trazado 217838" d="M368.435,81.731l-.8.462-1.78.992c-1.341.757-2.378,1.6-2.636,1.371-.114-.114,0-.47.341-.932a5.492,5.492,0,0,1,1.727-1.515,4.545,4.545,0,0,1,2.212-.53,3.786,3.786,0,0,1,.939.151Z" transform="translate(-175.52 -72.253)" fill="#f67409"/>
      <path id="Trazado_217839" data-name="Trazado 217839" d="M360.689,76.883s-.757-.265-1.909-.757-2.7-1.174-4.408-1.734a12.118,12.118,0,0,0-4.461-.621c-1.166.068-1.909.3-2.015.083s.508-.757,1.81-1.174a8.9,8.9,0,0,1,5.158.212,12.959,12.959,0,0,1,4.332,2.568A18.17,18.17,0,0,1,360.689,76.883Z" transform="translate(-171.812 -70.025)" fill="#f67409"/>
      <path id="Trazado_217840" data-name="Trazado 217840" d="M368.466,69.618l-.424.121c-.28.068-.667.189-1.129.333a32.033,32.033,0,0,0-3.408,1.348c-2.59,1.159-4.257,2.878-4.613,2.606-.167-.129.045-.757.7-1.575a9.187,9.187,0,0,1,3.249-2.462,8.157,8.157,0,0,1,4-.7,6.369,6.369,0,0,1,1.212.2Z" transform="translate(-174.469 -69.266)" fill="#f67409"/>
      <path id="Trazado_217841" data-name="Trazado 217841" d="M136.718,107.326a10.875,10.875,0,0,1-1.583-.515c-.954-.371-2.181-1-3.454-1.621a10.717,10.717,0,0,0-3.386-1.015c-.9-.1-1.515,0-1.6-.235s.447-.674,1.515-.871a6.892,6.892,0,0,1,4.113.7,12.384,12.384,0,0,1,3.2,2.371C136.279,106.849,136.718,107.326,136.718,107.326Z" transform="translate(-118.154 -77.45)" fill="#f67409"/>
      <path id="Trazado_217842" data-name="Trazado 217842" d="M144.877,102.676l-1.151.447c-.682.273-1.515.667-2.5,1.091-1.916.841-3.545,1.719-3.787,1.341-.129-.182.129-.606.674-1.144a8.642,8.642,0,0,1,2.515-1.651,5.855,5.855,0,0,1,3.03-.424,4.833,4.833,0,0,1,.909.22A3.07,3.07,0,0,1,144.877,102.676Z" transform="translate(-120.754 -77.277)" fill="#f67409"/>
      <path id="Trazado_217843" data-name="Trazado 217843" d="M123.668,112.01l-.318-.189c-.2-.129-.485-.3-.841-.485a18.857,18.857,0,0,0-2.8-1.219c-2.227-.757-4.226-.621-4.287-.962,0-.151.462-.409,1.318-.53a7.453,7.453,0,0,1,3.355.379,6.642,6.642,0,0,1,2.787,1.871,4.989,4.989,0,0,1,.6.818Z" transform="translate(-115.42 -78.802)" fill="#f67409"/>
      <path id="Trazado_217844" data-name="Trazado 217844" d="M127.506,106.978l-.8.462-1.78,1.053c-1.348.757-2.378,1.6-2.636,1.363-.121-.106,0-.462.341-.932a5.392,5.392,0,0,1,1.727-1.469,4.5,4.5,0,0,1,2.2-.538A3.788,3.788,0,0,1,127.506,106.978Z" transform="translate(-117.077 -78.398)" fill="#f67409"/>
    </g>
  </g>
</svg>
