<svg xmlns="http://www.w3.org/2000/svg" xmlns:xlink="http://www.w3.org/1999/xlink" width="1222.435" height="376.156" viewBox="0 0 1222.435 376.156">
  <defs>
    <filter id="Trazado_218527" x="6.015" y="88.205" width="180.856" height="180.867" filterUnits="userSpaceOnUse">
      <feOffset dy="3" input="SourceAlpha"/>
      <feGaussianBlur stdDeviation="3" result="blur"/>
      <feFlood flood-opacity="0.161"/>
      <feComposite operator="in" in2="blur"/>
      <feComposite in="SourceGraphic"/>
    </filter>
    <filter id="Trazado_218531" x="211.187" y="88.298" width="180.856" height="180.867" filterUnits="userSpaceOnUse">
      <feOffset dy="3" input="SourceAlpha"/>
      <feGaussianBlur stdDeviation="3" result="blur-2"/>
      <feFlood flood-opacity="0.161"/>
      <feComposite operator="in" in2="blur-2"/>
      <feComposite in="SourceGraphic"/>
    </filter>
    <filter id="Trazado_218535" x="417.54" y="88.197" width="180.996" height="181.006" filterUnits="userSpaceOnUse">
      <feOffset dy="3" input="SourceAlpha"/>
      <feGaussianBlur stdDeviation="3" result="blur-3"/>
      <feFlood flood-opacity="0.161"/>
      <feComposite operator="in" in2="blur-3"/>
      <feComposite in="SourceGraphic"/>
    </filter>
    <filter id="Trazado_218539" x="622.955" y="88.284" width="180.857" height="180.867" filterUnits="userSpaceOnUse">
      <feOffset dy="3" input="SourceAlpha"/>
      <feGaussianBlur stdDeviation="3" result="blur-4"/>
      <feFlood flood-opacity="0.161"/>
      <feComposite operator="in" in2="blur-4"/>
      <feComposite in="SourceGraphic"/>
    </filter>
    <filter id="Trazado_218567" x="1035.667" y="88.284" width="180.856" height="180.867" filterUnits="userSpaceOnUse">
      <feOffset dy="3" input="SourceAlpha"/>
      <feGaussianBlur stdDeviation="3" result="blur-5"/>
      <feFlood flood-opacity="0.161"/>
      <feComposite operator="in" in2="blur-5"/>
      <feComposite in="SourceGraphic"/>
    </filter>
    <filter id="Trazado_218543" x="829.414" y="88.205" width="180.856" height="180.867" filterUnits="userSpaceOnUse">
      <feOffset dy="3" input="SourceAlpha"/>
      <feGaussianBlur stdDeviation="3" result="blur-6"/>
      <feFlood flood-opacity="0.161"/>
      <feComposite operator="in" in2="blur-6"/>
      <feComposite in="SourceGraphic"/>
    </filter>
    <clipPath id="clip-path">
      <path id="path3012" d="M0-204.8H94.085v94.085H0Z" transform="translate(0 204.799)" fill="#f67409" stroke="#707070" stroke-width="3.5"/>
    </clipPath>
  </defs>
  <g id="Grupo_149503" data-name="Grupo 149503" transform="translate(-189 -2029.5)">
    <g id="Grupo_149405" data-name="Grupo 149405">
      <path id="Trazado_218526" data-name="Trazado 218526" d="M110.085,127.213l68.135,68.1a96.217,96.217,0,1,0-136.236,0Z" transform="translate(175.115 2077.885)" fill="#f67409"/>
      <g transform="matrix(1, 0, 0, 1, 189, 2029.5)" filter="url(#Trazado_218527)">
        <path id="Trazado_218527-2" data-name="Trazado 218527" d="M181.056,116.892A81.428,81.428,0,1,1,130.6,41.484a81.428,81.428,0,0,1,50.458,75.408Z" transform="translate(-3.18 58.84)" fill="#fff"/>
      </g>
      <path id="Trazado_218528" data-name="Trazado 218528" d="M88.373,103.893v-1.148h2.958v1.148Zm-4.35,0-2.993-.174v-1.114h2.958Zm11.692-.383v-1.148l2.923-.313v1.114Zm-19.035-.174-2.958-.383V101.84l2.923.383Zm26.273-.835v-1.114l2.888-.592-.07,1.183Zm-33.546-.278-2.923-.626.278-1.114,2.888.626Zm40.714-1.322-.278-1.114,2.819-.8.348,1.079c-1.148.278-2.088.557-3.062.8Zm-47.848-.418-2.853-.87.348-1.079,2.819.87Zm54.877-1.775-.383-1.079c.9-.313,1.844-.661,2.749-1.044l.418,1.079ZM55.14,98.151l-2.784-1.114.418-1.044,2.749,1.079Zm68.622-2.227-.592-.9,2.645-1.253.522,1.009Zm-75.408-.661L45.71,93.94l.522-1.009,2.61,1.322Zm81.985-2.645-.557-1.079,2.54-1.462.592.974Zm-88.457-.766-2.575-1.531.592-.974,2.54,1.531ZM136.6,88.79l-.661-.974c.835-.522,1.636-1.079,2.436-1.67l.661.94ZM35.688,87.92l-2.4-1.775.661-.9,2.4,1.74Zm106.866-3.48-.7-.9,2.262-1.844.731.87ZM29.842,83.466,27.58,81.552l.766-.87L30.573,82.6Zm118.314-3.828-.8-.835c.731-.661,1.427-1.357,2.123-2.053l.8.8q-1.148,1.1-2.192,2.088ZM24.344,78.559,23.3,77.62l.8-.8,1.044,1.009Z" transform="translate(198.463 2190.985)" fill="gray"/>
      <path id="Trazado_218529" data-name="Trazado 218529" d="M51.9,88.731a6.055,6.055,0,1,0-6.612,6.02V141.8a3.306,3.306,0,1,0,1.148,0V94.752a6.09,6.09,0,0,0,5.463-6.02Z" transform="translate(239.355 2205.659)" fill="#ff5d2e"/>
      <path id="Trazado_218530" data-name="Trazado 218530" d="M169.229,107.33l-68.2-68.1a96.217,96.217,0,1,0,136.236,0Z" transform="translate(321.524 2097.941)" fill="#fece10"/>
      <g transform="matrix(1, 0, 0, 1, 189, 2029.5)" filter="url(#Trazado_218531)">
        <path id="Trazado_218531-2" data-name="Trazado 218531" d="M77.16,116.722a81.428,81.428,0,1,1,50.458,75.408A81.428,81.428,0,0,1,77.16,116.722Z" transform="translate(143.03 58.91)" fill="#f9fcf7"/>
      </g>
      <path id="Trazado_218532" data-name="Trazado 218532" d="M144.3,33v1.148h-2.958V33Zm4.385,0,2.958.174v1.114h-2.923Zm-11.692.383v1.148l-2.923.313V33.731Zm19,.174,2.958.383v1.114l-2.923-.383Zm-26.238.87.174,1.114-2.853.592-.244-1.114Zm33.546.278,2.923.626-.278,1.114-2.888-.626Zm-40.714,1.322.278,1.114-2.819.8-.348-1.079a20.578,20.578,0,0,1,2.853-.835Zm47.848.418,2.853.87-.348,1.079-2.819-.87ZM115.553,38.22l.383,1.079c-.9.313-1.844.661-2.749,1.044l-.418-1.079Zm61.837.522,2.784,1.114-.418,1.044-2.749-1.079Zm-68.518,2.227.452,1.044-2.645,1.253-.522-1.009Zm75.408.661,2.679,1.322-.522,1.009-2.645-1.322Zm-81.985,2.645.557,1.009-2.68,1.636-.592-.974Zm88.492.766,2.54,1.531-.592.974-2.54-1.531ZM96.031,48.1l.661.974c-.835.522-1.636,1.079-2.436,1.67l-.661-.94Zm100.915.87,2.4,1.775-.661.9-2.4-1.74ZM90.08,52.452l.731.87-2.3,1.879-.731-.87Zm112.712.974,2.262,1.914-.766.87L202.062,54.3ZM84.513,57.359l.8.835c-.731.661-1.427,1.357-2.123,2.053l-.8-.835Zm123.743,1.079,1.044,1.009-.8.8-1.044-1.009Z" transform="translate(344.996 2082.492)" fill="gray"/>
      <path id="Trazado_218533" data-name="Trazado 218533" d="M98.86,75.633a6.055,6.055,0,1,0,6.612-6.02V22.566a3.306,3.306,0,1,0-1.148,0V69.613A6.09,6.09,0,0,0,98.86,75.633Z" transform="translate(385.839 2040.346)" fill="#fbb03b"/>
      <path id="Trazado_218534" data-name="Trazado 218534" d="M228.415,127.213l68.135,68.1a96.217,96.217,0,1,0-136.236,0Z" transform="translate(468.554 2077.885)" fill="#54aa13"/>
      <g transform="matrix(1, 0, 0, 1, 189, 2029.5)" filter="url(#Trazado_218535)">
        <path id="Trazado_218535-2" data-name="Trazado 218535" d="M299.456,116.9a81.5,81.5,0,1,1-50.492-75.408A81.5,81.5,0,0,1,299.456,116.9Z" transform="translate(290.08 58.84)" fill="#fff"/>
      </g>
      <path id="Trazado_218536" data-name="Trazado 218536" d="M206.38,103.893v-1.148h2.958v1.148Zm-4.385,0-2.958-.174v-1.114h2.923Zm11.692-.383v-1.148l2.923-.313v1.114Zm-19-.174-2.958-.383V101.84l2.923.383Zm26.273-.835-.209-1.114,2.888-.592.244,1.114Zm-33.546-.278-2.923-.626.278-1.114,2.854.626Zm40.714-1.322-.278-1.114,2.819-.8.313,1.079c-.94.278-1.914.557-2.853.8Zm-47.848-.418-2.854-.87.348-1.079,2.819.87Zm54.842-1.775-.383-1.079c.94-.313,1.844-.661,2.784-1.044l.418,1.079Zm-61.837-.522-2.749-1.114.418-1.044,2.749,1.079Zm68.657-2.227-.487-1.044,2.68-1.253.487,1.009ZM166.536,95.3l-2.68-1.322.522-1.009,2.645,1.322Zm81.95-2.645-.557-1.009c.87-.452,1.74-.974,2.575-1.462l.592.974Zm-88.318-.8-2.54-1.531.592-.974,2.54,1.531Zm94.721-3.062-.626-.974c.8-.522,1.635-1.079,2.436-1.67l.661.94Zm-100.915-.87-2.4-1.775.661-.9,2.4,1.74ZM260.84,84.44l-.731-.9,2.3-1.844.731.87Zm-112.712-.974-2.262-1.914.731-.87,2.262,1.914Zm118.314-3.828-.766-.835L267.8,76.75l.8.8c-.9.731-1.635,1.427-2.366,2.088ZM142.734,78.56,141.69,77.55l.8-.8,1.044,1.009Z" transform="translate(492.05 2190.985)" fill="gray"/>
      <path id="Trazado_218537" data-name="Trazado 218537" d="M170.23,88.731a6.055,6.055,0,1,0-6.612,6.02V141.8a3.48,3.48,0,1,0,1.114,0V94.752A6.09,6.09,0,0,0,170.23,88.731Z" transform="translate(532.794 2205.659)" fill="#8ac900"/>
      <path id="Trazado_218538" data-name="Trazado 218538" d="M287.51,107.33l-68.135-68.1a96.217,96.217,0,1,0,136.235,0Z" transform="translate(615.013 2097.941)" fill="#f67409"/>
      <path id="Trazado_218566" data-name="Trazado 218566" d="M287.51,107.33l-68.135-68.1a96.217,96.217,0,1,0,136.235,0Z" transform="translate(1027.725 2097.941)" fill="#54aa13"/>
      <g transform="matrix(1, 0, 0, 1, 189, 2029.5)" filter="url(#Trazado_218539)">
        <path id="Trazado_218539-2" data-name="Trazado 218539" d="M195.49,116.732a81.428,81.428,0,1,1,50.492,75.408,81.428,81.428,0,0,1-50.492-75.408Z" transform="translate(436.47 58.9)" fill="#fff"/>
      </g>
      <g transform="matrix(1, 0, 0, 1, 189, 2029.5)" filter="url(#Trazado_218567)">
        <path id="Trazado_218567-2" data-name="Trazado 218567" d="M195.49,116.732a81.428,81.428,0,1,1,50.492,75.408,81.428,81.428,0,0,1-50.492-75.408Z" transform="translate(849.18 58.9)" fill="#fff"/>
      </g>
      <path id="Trazado_218540" data-name="Trazado 218540" d="M262.75,33v1.148h-2.923V33Zm4.35,0,2.993.174v1.114h-2.958Zm-11.692.383v1.148l-2.923.313V33.731Zm19.035.174,2.958.383-.174,1.114L274.3,34.67Zm-26.308.835.209,1.114-2.888.592-.244-1.114Zm33.546.278,2.923.626-.244,1.114-2.888-.626ZM241,35.993l.278,1.114-2.819.8-.348-1.079c.94-.348,1.984-.557,2.888-.8Zm47.813.487,2.854.87-.348,1.079-2.819-.87Zm-54.877,1.775.383,1.079c-.9.313-1.844.661-2.749,1.044l-.418-1.079c.94-.383,1.983-.766,2.819-1.079Zm61.837.522,2.784,1.114-.452,1.044-2.68-.974ZM227.152,41l.452,1.044L224.959,43.3l-.522-1.009Zm75.373.661,2.679,1.322L304.682,44l-2.645-1.322Zm-81.95,2.645.557,1.009-2.54,1.462L218,45.806c.87-.557,1.74-1.044,2.61-1.531Zm88.457.766,2.575,1.531-.626.974-2.505-1.531Zm-94.721,3.062.626.974q-1.183.8-2.4,1.67l-.661-.94Zm100.915.87c.835.592,1.635,1.148,2.436,1.775l-.7.9-2.366-1.74ZM208.4,52.487l.7.87-2.262,1.879-.731-.87Zm112.712.974,2.262,1.914-.766.87-2.227-1.914ZM202.793,57.289l.8.835c-.731.661-1.427,1.357-2.123,2.053l-.8-.835a27.558,27.558,0,0,1,2.192-1.983Zm123.743,1.079,1.044,1.009-.8.8-1.044-1.009Z" transform="translate(638.311 2082.492)" fill="gray"/>
      <path id="Trazado_218568" data-name="Trazado 218568" d="M262.75,33v1.148h-2.923V33Zm4.35,0,2.993.174v1.114h-2.958Zm-11.692.383v1.148l-2.923.313V33.731Zm19.035.174,2.958.383-.174,1.114L274.3,34.67Zm-26.308.835.209,1.114-2.888.592-.244-1.114Zm33.546.278,2.923.626-.244,1.114-2.888-.626ZM241,35.993l.278,1.114-2.819.8-.348-1.079c.94-.348,1.984-.557,2.888-.8Zm47.813.487,2.854.87-.348,1.079-2.819-.87Zm-54.877,1.775.383,1.079c-.9.313-1.844.661-2.749,1.044l-.418-1.079c.94-.383,1.983-.766,2.819-1.079Zm61.837.522,2.784,1.114-.452,1.044-2.68-.974ZM227.152,41l.452,1.044L224.959,43.3l-.522-1.009Zm75.373.661,2.679,1.322L304.682,44l-2.645-1.322Zm-81.95,2.645.557,1.009-2.54,1.462L218,45.806c.87-.557,1.74-1.044,2.61-1.531Zm88.457.766,2.575,1.531-.626.974-2.505-1.531Zm-94.721,3.062.626.974q-1.183.8-2.4,1.67l-.661-.94Zm100.915.87c.835.592,1.635,1.148,2.436,1.775l-.7.9-2.366-1.74ZM208.4,52.487l.7.87-2.262,1.879-.731-.87Zm112.712.974,2.262,1.914-.766.87-2.227-1.914ZM202.793,57.289l.8.835c-.731.661-1.427,1.357-2.123,2.053l-.8-.835a27.558,27.558,0,0,1,2.192-1.983Zm123.743,1.079,1.044,1.009-.8.8-1.044-1.009Z" transform="translate(1051.023 2082.492)" fill="gray"/>
      <path id="Trazado_218541" data-name="Trazado 218541" d="M217.19,75.883a6.055,6.055,0,1,0,6.612-6.02V22.816a3.48,3.48,0,1,0-1.148,0V69.863A6.09,6.09,0,0,0,217.19,75.883Z" transform="translate(679.278 2040.097)" fill="#f67409"/>
      <path id="Trazado_218565" data-name="Trazado 218565" d="M217.19,75.883a6.055,6.055,0,1,0,6.612-6.02V22.816a3.48,3.48,0,1,0-1.148,0V69.863A6.09,6.09,0,0,0,217.19,75.883Z" transform="translate(1091.99 2040.097)" fill="#54aa13"/>
      <path id="Trazado_218542" data-name="Trazado 218542" d="M346.757,127.226l68.1,68.1a96.217,96.217,0,1,0-136.2,0Z" transform="translate(761.98 2077.873)" fill="#fece10"/>
      <g transform="matrix(1, 0, 0, 1, 189, 2029.5)" filter="url(#Trazado_218543)">
        <path id="Trazado_218543-2" data-name="Trazado 218543" d="M417.676,116.892a81.428,81.428,0,1,1-50.458-75.408,81.428,81.428,0,0,1,50.458,75.408Z" transform="translate(583.59 58.84)" fill="#fff"/>
      </g>
      <path id="Trazado_218544" data-name="Trazado 218544" d="M324.725,103.893v-1.148h2.923v1.148Zm-4.35,0-2.993-.174v-1.114h2.958Zm11.692-.383v-1.148l2.923-.313v1.114Zm-19.035-.174-2.958-.383.174-1.114,2.923.383Zm26.308-.835-.209-1.114,2.888-.592.244,1.114Zm-33.546-.278-2.923-.626.244-1.114,2.888.626Zm40.714-1.322-.313-1.114,2.853-.8.313,1.079c-.94.278-1.914.557-2.853.8Zm-47.848-.418-2.888-.87.348-1.079,2.853.87ZM353.5,98.708l-.383-1.079c.9-.313,1.844-.661,2.749-1.044l.418,1.079Zm-61.837-.557-2.784-1.114.452-1.044,2.749,1.079Zm68.657-2.227-.487-1.044,2.679-1.253L363,94.636Zm-75.408-.661-2.679-1.322.522-1.009,2.645,1.322Zm81.95-2.645-.557-1.009c.87-.452,1.705-.974,2.54-1.462l.592.974C368.606,91.539,367.875,92.131,366.866,92.618Zm-88.457-.766c-.87-.487-1.705-1.009-2.54-1.531l.592-.974,2.505,1.531Zm94.721-3.062-.626-.974c.8-.522,1.636-1.079,2.4-1.67l.7.94Zm-100.915-.87-2.436-1.775.7-.9c.766.592,1.6,1.183,2.4,1.74Zm106.831-3.48-.7-.9,2.262-1.844.766.87Zm-112.677-.974-2.3-1.914.766-.87L267.1,82.6Zm118.314-3.828-.766-.835c.7-.661,1.427-1.357,2.088-2.053l.835.8c-.766.731-1.566,1.427-2.227,2.088ZM260.94,78.559l-.94-.94.835-.8c.313.348.661.661,1.009,1.009Z" transform="translate(785.439 2190.985)" fill="gray"/>
      <path id="Trazado_218545" data-name="Trazado 218545" d="M288.55,88.731a6.055,6.055,0,1,0-6.612,6.02V141.8a3.48,3.48,0,1,0,1.148,0V94.752a6.09,6.09,0,0,0,5.464-6.02Z" transform="translate(826.208 2205.659)" fill="#fece10"/>
      <g id="seguro-de-vida" transform="translate(243.735 2164.848)">
        <g id="Layer_35" transform="translate(2.04 1.5)">
          <g id="Grupo_149404" data-name="Grupo 149404">
            <g id="Grupo_149403" data-name="Grupo 149403">
              <path id="Trazado_218737" data-name="Trazado 218737" d="M55.5,24.677,41.745,29.694a5.793,5.793,0,0,0-4.931-6.315l-3.2-.606A9.526,9.526,0,0,1,29.635,21.3a12.352,12.352,0,0,0-13.235.433l-1.125.779v-1.3a1.33,1.33,0,0,0-1.3-1.3H3.338a1.33,1.33,0,0,0-1.3,1.3V43.794a1.33,1.33,0,0,0,1.3,1.3h10.64a1.33,1.33,0,0,0,1.3-1.3v-.779l11.678,1.817a42.831,42.831,0,0,0,4.412.346c5.19,0,9-1.471,13.581-4.152l16.868-7.872a4.19,4.19,0,0,0,1.9-5.623c-1.038-2.422-4.066-4.412-8.218-2.855ZM12.68,42.67H4.635V22.687H12.68ZM60.69,30.819,43.822,38.777a.085.085,0,0,0-.087.087C37.507,42.41,33.7,43.275,27.3,42.41L15.275,40.594V25.888l2.6-1.9a9.89,9.89,0,0,1,10.467-.26,14.152,14.152,0,0,0,4.844,1.73l3.2.606a3.176,3.176,0,0,1,2.768,3.547,3.938,3.938,0,0,1-.692,1.644,2.929,2.929,0,0,1-2.768,1.125l-7.353-1.125a1.309,1.309,0,1,0-.346,2.6l7.353,1.125a2.943,2.943,0,0,0,.865.087,5.394,5.394,0,0,0,4.066-1.817L56.451,27.1c2.768-1.038,4.325.173,4.931,1.471.173.606.346,1.817-.692,2.249Z" transform="translate(-2.04 32.588)" fill="#f67409" stroke="#f67409" stroke-width="1"/>
              <path id="Trazado_218738" data-name="Trazado 218738" d="M66,31l-3.806-1.9a15.849,15.849,0,0,0,3.2-14.879A17.971,17.971,0,0,0,52.943,1.932C47.752.635,42.562,2.278,38.41,6.6L36.766,8.247,35.123,6.6C30.971,2.278,25.78.635,20.5,1.932A17.971,17.971,0,0,0,8.047,14.216a16.123,16.123,0,0,0,4.239,16.09L33.739,52.537a4.181,4.181,0,0,0,6.055,0l5.536-5.8c2.509,3.893,5.969,6.661,8.823,7.439a.955.955,0,0,0,.692,0C59.69,52.8,66.7,45.357,66.7,36.793V32.036A1.124,1.124,0,0,0,66,31ZM37.891,50.721a1.573,1.573,0,0,1-2.336,0L14.189,28.489c-3.72-3.893-5.017-8.737-3.633-13.495A15.41,15.41,0,0,1,21.109,4.441C25.434,3.4,29.76,4.787,33.22,8.42L35.728,11.1a1.358,1.358,0,0,0,1.9,0L40.14,8.42C43.6,4.787,47.925,3.4,52.251,4.441a15.57,15.57,0,0,1,10.64,10.467A13.242,13.242,0,0,1,59.777,27.8l-4.844-2.422a1.474,1.474,0,0,0-1.211,0L42.735,30.911a1.35,1.35,0,0,0-.692,1.125v4.758a17.233,17.233,0,0,0,1.817,7.526ZM64.1,36.88c0,7.266-6.055,13.495-9.688,14.792-3.547-1.3-9.6-7.526-9.6-14.792V32.987L54.5,28.143l9.688,4.844Z" transform="translate(8.043 -1.5)" fill="#f67409" stroke="#f67409" stroke-width="1"/>
              <path id="Trazado_218739" data-name="Trazado 218739" d="M24.126,17.111a1.29,1.29,0,0,0-1.644,1.99l2.6,2.163a1.537,1.537,0,0,0,.865.346h.087a1.065,1.065,0,0,0,.865-.433l4.844-5.709a1.29,1.29,0,1,0-1.99-1.644L25.77,18.582Z" transform="translate(35.562 20.864)" fill="#f67409" stroke="#f67409" stroke-width="1"/>
            </g>
          </g>
        </g>
      </g>
      <g id="seguro-de-coche" transform="translate(449.91 2164.301)">
        <g id="Page-1" transform="translate(0 0)">
          <g id="_007---Car-Insurance" data-name="007---Car-Insurance">
            <path id="Shape" d="M13.75,31.549l10.658,7.587a1.364,1.364,0,0,0,1.583,0l10.658-7.587a8.432,8.432,0,0,0,3.558-6.841V8.565a1.364,1.364,0,0,0-.819-1.252L25.745,1.419a1.364,1.364,0,0,0-1.081,0L11.021,7.313A1.364,1.364,0,0,0,10.2,8.565V24.708A8.433,8.433,0,0,0,13.75,31.549ZM12.92,9.462,25.2,4.158l12.279,5.3V24.708a5.7,5.7,0,0,1-2.414,4.627L25.2,36.351l-9.866-7.024a5.7,5.7,0,0,1-2.414-4.618Z" transform="translate(36.197 4.637)" fill="#fece2f"/>
            <path id="Shape-2" data-name="Shape" d="M17.4,19.7a1.364,1.364,0,0,0,1.884-.239L30.2,5.817a1.365,1.365,0,1,0-2.131-1.705l-10.1,12.612-4.392-3.3a1.364,1.364,0,0,0-1.637,2.183Z" transform="translate(40.446 12.772)" fill="#fece2f"/>
            <path id="Shape-3" data-name="Shape" d="M2.729,72.311H4.093v5.457a4.093,4.093,0,0,0,4.093,4.093h8.186a4.093,4.093,0,0,0,4.093-4.093V72.311H53.21v5.457A4.093,4.093,0,0,0,57.3,81.862H65.49a4.093,4.093,0,0,0,4.093-4.093V72.311h1.364a2.729,2.729,0,0,0,2.729-2.729V49.117a6.75,6.75,0,0,0-2.359-5.144l4.693-3.34a13.9,13.9,0,0,0,5.852-11.287V9.616a1.364,1.364,0,0,0-.819-1.252L61.942.112a1.364,1.364,0,0,0-1.081,0L41.75,8.363a1.364,1.364,0,0,0-.819,1.252v5.392H20.288a6.822,6.822,0,0,0-6.432,4.554L5.82,42.4A6.812,6.812,0,0,0,0,49.117V69.582A2.729,2.729,0,0,0,2.729,72.311Zm15.008,5.457a1.364,1.364,0,0,1-1.364,1.364H8.186a1.364,1.364,0,0,1-1.364-1.364V72.311H17.737Zm-5.457-8.186H9.551V66.854h2.729Zm54.575,8.186a1.364,1.364,0,0,1-1.364,1.364H57.3a1.364,1.364,0,0,1-1.364-1.364V72.311H66.854Zm-2.729-8.186H61.4V66.854h2.729ZM43.66,10.512,61.4,2.85l17.737,7.662V29.34a11.165,11.165,0,0,1-4.706,9.065L61.4,47.687,48.365,38.409a11.164,11.164,0,0,1-4.706-9.063ZM64.125,50.481a1.364,1.364,0,0,1,1.364,1.364v2.729a1.364,1.364,0,0,1-1.364,1.364H55.939a1.364,1.364,0,0,1-1.364-1.364,4.093,4.093,0,0,1,4.093-4.093ZM40.931,23.194v2.729H31.38V23.194Zm0-2.729H38.2V17.736h2.729Zm-24.5,0a4.093,4.093,0,0,1,3.857-2.729H35.473v2.729H31.38a2.729,2.729,0,0,0-2.729,2.729v2.729a2.729,2.729,0,0,0,2.729,2.729h9.551v.694a13.9,13.9,0,0,0,5.852,11.287L49.117,42.3H8.748ZM2.729,49.117a4.093,4.093,0,0,1,4.093-4.093H52.951l4.123,2.936a6.822,6.822,0,0,0-5.228,6.614,4.093,4.093,0,0,0,4.093,4.093h8.186a4.093,4.093,0,0,0,4.093-4.093V51.846a4.093,4.093,0,0,0-2.613-3.805l3.378-2.405a4.036,4.036,0,0,1,1.963,3.482V69.582H66.854V66.854a2.729,2.729,0,0,0-2.729-2.729H61.4a2.729,2.729,0,0,0-2.729,2.729v2.729H15.008V66.854a2.729,2.729,0,0,0-2.729-2.729H9.551a2.729,2.729,0,0,0-2.729,2.729v2.729H2.729Z" transform="translate(0 0)" fill="#fece2f"/>
            <path id="Shape-4" data-name="Shape" d="M14.29,4.5H11.955A4.1,4.1,0,0,0,8.094,7.229L2.972,21.784a1.365,1.365,0,0,0,2.575.906L10.669,8.14a1.364,1.364,0,0,1,1.287-.911H14.29a1.364,1.364,0,1,0,0-2.729Z" transform="translate(10.269 15.965)" fill="#fece2f"/>
            <path id="Shape-5" data-name="Shape" d="M5.293,21.415h8.186a4.093,4.093,0,0,0,4.093-4.093A6.83,6.83,0,0,0,10.751,10.5H5.293A4.093,4.093,0,0,0,1.2,14.593v2.729A4.093,4.093,0,0,0,5.293,21.415ZM3.929,14.593a1.364,1.364,0,0,1,1.364-1.364h5.457a4.093,4.093,0,0,1,4.093,4.093,1.364,1.364,0,0,1-1.364,1.364H5.293a1.364,1.364,0,0,1-1.364-1.364Z" transform="translate(4.257 37.252)" fill="#fece2f"/>
            <path id="Shape-6" data-name="Shape" d="M8.129,23.215h19.1a2.729,2.729,0,0,0,2.729-2.729V15.029A2.729,2.729,0,0,0,27.23,12.3H8.129A2.729,2.729,0,0,0,5.4,15.029v5.457A2.729,2.729,0,0,0,8.129,23.215Zm0-8.186h19.1v5.457H8.129Z" transform="translate(19.159 43.639)" fill="#fece2f"/>
          </g>
        </g>
      </g>
      <g id="seguro-de-hogar" transform="translate(667 2166.349)">
        <g id="Page-1-2" data-name="Page-1" transform="translate(0 0)">
          <g id="_041---Home-Insurance-Documents" data-name="041---Home-Insurance-Documents">
            <path id="Shape-7" data-name="Shape" d="M79.015,48.54l-13.3-5.747a1.33,1.33,0,0,0-1.054,0L61.19,44.3V18.623c0-.029-.015-.053-.016-.082a1.32,1.32,0,0,0-.072-.351,1.252,1.252,0,0,0-.044-.125,1.347,1.347,0,0,0-.254-.378L43.512.394a1.331,1.331,0,0,0-.388-.261.888.888,0,0,0-.117-.045,1.365,1.365,0,0,0-.364-.073c-.025,0-.048-.015-.074-.015H3.991A3.991,3.991,0,0,0,0,3.991V75.823a3.991,3.991,0,0,0,3.991,3.991H57.2a3.983,3.983,0,0,0,3.759-2.7l3.451,2.456a1.33,1.33,0,0,0,1.543,0l10.392-7.4a8.222,8.222,0,0,0,3.469-6.67V49.761A1.33,1.33,0,0,0,79.015,48.54ZM43.9,4.541,56.649,17.293H43.9ZM58.53,75.823a1.33,1.33,0,0,1-1.33,1.33H3.991a1.33,1.33,0,0,1-1.33-1.33V3.991a1.33,1.33,0,0,1,1.33-1.33H41.237V17.293a2.66,2.66,0,0,0,2.66,2.66H58.53V45.439l-7.183,3.1a1.33,1.33,0,0,0-.8,1.221V65.5a8.222,8.222,0,0,0,3.469,6.67l4.512,3.211ZM77.153,65.5A5.555,5.555,0,0,1,74.8,70L65.181,76.85,55.562,70a5.557,5.557,0,0,1-2.353-4.5V50.635L60.35,47.55l.055-.024,4.777-2.063,11.972,5.172Z" transform="translate(0 0)" fill="#54aa13"/>
            <path id="Shape-8" data-name="Shape" d="M14.728,21.5a1.33,1.33,0,1,0-1.6,2.128l5.321,3.991a1.33,1.33,0,0,0,1.837-.233l10.642-13.3a1.331,1.331,0,1,0-2.078-1.663l-9.836,12.3Z" transform="translate(43.269 40.931)" fill="#54aa13"/>
            <path id="Shape-9" data-name="Shape" d="M23.616,3.866,2.332,19.829A1.33,1.33,0,0,0,1.8,20.893v6.651a1.33,1.33,0,0,0,2.128,1.064l3.193-2.394V46.167a2.66,2.66,0,0,0,2.66,2.66H39.046a2.66,2.66,0,0,0,2.66-2.66V26.214L44.9,28.608a1.33,1.33,0,0,0,2.128-1.064V20.893a1.33,1.33,0,0,0-.532-1.064L25.212,3.866A1.33,1.33,0,0,0,23.616,3.866Zm-4.523,42.3V30.2H29.735v6.651H28.4a1.33,1.33,0,0,0,0,2.66h1.33v6.651Zm19.953,0H32.4V30.2a2.66,2.66,0,0,0-2.66-2.66H19.093a2.66,2.66,0,0,0-2.66,2.66V46.167H9.781V24.218L24.414,13.244,39.046,24.218Zm5.321-21.284L25.212,10.517a1.33,1.33,0,0,0-1.6,0L4.46,24.884V21.558L24.414,6.593,44.367,21.558Z" transform="translate(6.181 12.363)" fill="#54aa13"/>
            <path id="Shape-10" data-name="Shape" d="M2.83,4.16H26.774a1.33,1.33,0,1,0,0-2.66H2.83a1.33,1.33,0,1,0,0,2.66Z" transform="translate(5.151 5.151)" fill="#54aa13"/>
            <path id="Shape-11" data-name="Shape" d="M2.83,5.36H20.123a1.33,1.33,0,0,0,0-2.66H2.83a1.33,1.33,0,1,0,0,2.66Z" transform="translate(5.151 9.272)" fill="#54aa13"/>
            <path id="Shape-12" data-name="Shape" d="M2.83,6.56h9.312a1.33,1.33,0,1,0,0-2.66H2.83a1.33,1.33,0,1,0,0,2.66Z" transform="translate(5.151 13.393)" fill="#54aa13"/>
            <path id="Shape-13" data-name="Shape" d="M2.83,17.06H26.774a1.33,1.33,0,1,0,0-2.66H2.83a1.33,1.33,0,1,0,0,2.66Z" transform="translate(5.151 49.451)" fill="#54aa13"/>
            <path id="Shape-14" data-name="Shape" d="M9.43,14.4a1.33,1.33,0,1,0,0,2.66h9.312a1.33,1.33,0,1,0,0-2.66Z" transform="translate(27.816 49.451)" fill="#54aa13"/>
            <path id="Shape-15" data-name="Shape" d="M16.132,15.6H2.83a1.33,1.33,0,1,0,0,2.66h13.3a1.33,1.33,0,1,0,0-2.66Z" transform="translate(5.151 53.572)" fill="#54aa13"/>
            <path id="Shape-16" data-name="Shape" d="M28.314,15.6H7.03a1.33,1.33,0,0,0,0,2.66H28.314a1.33,1.33,0,1,0,0-2.66Z" transform="translate(19.574 53.572)" fill="#54aa13"/>
          </g>
        </g>
      </g>
      <g id="mano" transform="translate(851 2158.096)">
        <g id="g3006" transform="translate(0 0.001)">
          <g id="g3008">
            <g id="g3010" clip-path="url(#clip-path)">
              <g id="g3016" transform="translate(17.838 62.142)">
                <path id="path3018" d="M-56.368-11.121l17.089-8.774a5.288,5.288,0,0,1,7.048,1.662,5.267,5.267,0,0,1-1.662,7.053L-58.984,6.688c-6.8,4.534-9.669,2.749-16.823.81L-96.162,2.054a5.344,5.344,0,0,0-1.976-.368h-6.131" transform="translate(104.269 20.571)" fill="none" stroke="#f67409" stroke-linecap="round" stroke-linejoin="round" stroke-miterlimit="10" stroke-width="3.5"/>
              </g>
              <g id="g3020" transform="translate(3.471 60.837)">
                <path id="path3022" d="M-3.824,0H4.044a3.264,3.264,0,0,1,3.25,3.255V23.893a3.263,3.263,0,0,1-3.25,3.25H-3.824a3.263,3.263,0,0,1-3.25-3.25V3.255A3.264,3.264,0,0,1-3.824,0Z" transform="translate(7.074)" fill="none" stroke="#f67409" stroke-linecap="round" stroke-linejoin="round" stroke-miterlimit="10" stroke-width="3.5"/>
              </g>
              <g id="g3024" transform="translate(17.838 61.596)">
                <path id="path3026" d="M0-3.319H4.091a7.571,7.571,0,0,0,3.473-.73C15.449-7.155,21.889-7.522,29.773-.1a3.008,3.008,0,0,0,2.781,1.188h10.7a5.3,5.3,0,0,1,0,10.607H25.916" transform="translate(0 6.14)" fill="none" stroke="#f67409" stroke-linecap="round" stroke-linejoin="round" stroke-miterlimit="10" stroke-width="3.5"/>
              </g>
              <g id="g3028" transform="translate(48.612 15.641)">
                <path id="path3030" d="M0-9.34H7.943v-7.937H18.091V-9.34h7.937V.808H18.091V8.751H7.943V.808H0Z" transform="translate(0 17.278)" fill="none" stroke="#f67409" stroke-linecap="round" stroke-linejoin="round" stroke-miterlimit="10" stroke-width="3.5"/>
              </g>
              <g id="g3032" transform="translate(37.52 1.838)">
                <path id="path3034" d="M-5.1-46.277a31.87,31.87,0,0,1-4.022-7.73,7.584,7.584,0,0,1-.3-2.925v-14.7c.075-3.282-.368-2.541,2.5-4.145l21.6-9.823,21.6,9.823c2.871,1.6,2.424.863,2.5,4.145v14.7a7.584,7.584,0,0,1-.3,2.925C35.894-45.92,24.765-33.417,17.51-29.086a5.466,5.466,0,0,1-2.834.879,5.466,5.466,0,0,1-2.834-.879,38.779,38.779,0,0,1-5.887-4.507" transform="translate(9.431 85.603)" fill="none" stroke="#f67409" stroke-linecap="round" stroke-linejoin="round" stroke-miterlimit="10" stroke-width="3.5"/>
              </g>
              <g id="g3036" transform="translate(46.998 47.812)">
                <path id="path3038" d="M-.006-.006-.012-.012" transform="translate(0.012 0.012)" fill="none" stroke="#f67409" stroke-linecap="round" stroke-linejoin="round" stroke-miterlimit="10" stroke-width="3.5"/>
              </g>
            </g>
          </g>
        </g>
      </g>
      <g id="accidente-de-auto" transform="translate(1057.525 2148.225)">
        <g id="Crash_Car_Insurance" data-name="Crash Car Insurance" transform="translate(0 0.3)">
          <path id="Trazado_218740" data-name="Trazado 218740" d="M18.926,15.9a4.826,4.826,0,1,0,4.826,4.826A4.826,4.826,0,0,0,18.926,15.9Zm0,6.434a1.609,1.609,0,1,1,1.609-1.609,1.609,1.609,0,0,1-1.609,1.609Z" transform="translate(61.504 67.747)" fill="#fece2f"/>
          <path id="Trazado_218741" data-name="Trazado 218741" d="M39.47,12.517a1.609,1.609,0,0,0,0-3.217h-17a3.25,3.25,0,0,0-3,2.06L14.291,24.808a1.609,1.609,0,0,0,1.5,2.187H39.47a1.609,1.609,0,0,0,0-3.217H18.135l4.333-11.26Z" transform="translate(61.871 38.958)" fill="#fece2f"/>
          <path id="Trazado_218742" data-name="Trazado 218742" d="M8.986,15.392a4.826,4.826,0,1,0,3.87,5.2,4.825,4.825,0,0,0-3.87-5.2Zm-.038,6.07a1.608,1.608,0,1,1-.9-2.945,1.638,1.638,0,0,1,.314.031,1.608,1.608,0,0,1,.584,2.914Z" transform="translate(14.073 65.128)" fill="#fece2f"/>
          <path id="Trazado_218743" data-name="Trazado 218743" d="M2.226,22.61l19.633,3.869A1.608,1.608,0,0,0,23.7,24.42L20.142,13.074A3.242,3.242,0,0,0,17.7,10.9L5.025,8.406A1.608,1.608,0,1,0,4.4,11.562l12.676,2.5L19.824,22.8,2.848,19.454a1.608,1.608,0,1,0-.622,3.156Z" transform="translate(4.049 34.926)" fill="#fece2f"/>
          <path id="Trazado_218744" data-name="Trazado 218744" d="M49.833,37.4,41.6,33.528h0L34.738,30.3l-4.4-14a9.646,9.646,0,0,0-7.341-6.573l-12.676-2.5A1.608,1.608,0,1,0,9.7,10.385l12.676,2.5a6.431,6.431,0,0,1,4.893,4.382L31.88,31.938a1.608,1.608,0,0,0,.85.973L39.1,35.9l-1.546,7.843a1.607,1.607,0,0,0,1.267,1.889l9.47,1.866-.933,4.735L31.406,49.1a11.23,11.23,0,0,0-15.439-3.043l-12.8-2.523a1.608,1.608,0,0,0-.622,3.156l10.552,2.08a11.145,11.145,0,0,0-1.579,2.968l-9.6-1.891A1.608,1.608,0,1,0,1.3,53l9.6,1.891a11.236,11.236,0,0,0,21.828,4.3L43.91,61.4a4.817,4.817,0,0,0,5.668-3.8l2.936-14.9A4.819,4.819,0,0,0,49.833,37.4Zm-.923,6.948-7.891-1.555L42.1,37.316l6.365,2.993a1.609,1.609,0,0,1,.895,1.767ZM20.57,63.355a8.043,8.043,0,1,1,9.447-6.336,8.043,8.043,0,0,1-9.447,6.336ZM45.739,58a1.594,1.594,0,0,1-1.207.243l-11.172-2.2a11.13,11.13,0,0,0-.327-3.344l13.7,2.7-.311,1.579A1.594,1.594,0,0,1,45.739,58Z" transform="translate(0 29.791)" fill="#fece2f"/>
          <path id="Trazado_218745" data-name="Trazado 218745" d="M3.825,11.882A1.608,1.608,0,1,0,3.2,15.038l2.986.588a1.579,1.579,0,0,0,.313.031,1.608,1.608,0,0,0,.309-3.187Z" transform="translate(8.312 50.088)" fill="#fece2f"/>
          <path id="Trazado_218746" data-name="Trazado 218746" d="M56.849,49.923a1.609,1.609,0,0,0,0-3.217H43.8a11.223,11.223,0,0,0-15.731,0H13.417V35.128L26.635,32.19a1.61,1.61,0,0,0,1.153-.993l6.06-15.756a6.471,6.471,0,0,1,6.006-4.124h17a1.609,1.609,0,0,0,0-3.217h-17a9.71,9.71,0,0,0-9.009,6.187l-5.749,14.95L12.72,31.988a3.2,3.2,0,0,0-2.52,3.14V53.141a3.22,3.22,0,0,0,3.217,3.217H24.806a11.245,11.245,0,0,0,22.263,0h9.78a1.609,1.609,0,0,0,0-3.217h-9.78a11.151,11.151,0,0,0-.973-3.217Zm-43.432,0H25.779a11.151,11.151,0,0,0-.973,3.217H13.417Zm22.52,12.869a8.043,8.043,0,1,1,8.043-8.043,8.043,8.043,0,0,1-8.043,8.043Z" transform="translate(44.492 33.723)" fill="#fece2f"/>
          <path id="Trazado_218747" data-name="Trazado 218747" d="M12.817,10.309a1.609,1.609,0,0,0-3.217,0v11.26a1.609,1.609,0,0,0,3.217,0Z" transform="translate(41.875 36.341)" fill="#fece2f"/>
          <path id="Trazado_218748" data-name="Trazado 218748" d="M13.988,10.616,10.77,15.442a1.609,1.609,0,1,0,2.677,1.785L16.664,12.4a1.609,1.609,0,1,0-2.677-1.785Z" transform="translate(45.801 41.575)" fill="#fece2f"/>
          <path id="Trazado_218749" data-name="Trazado 218749" d="M8.816,10.171A1.609,1.609,0,0,0,8.37,12.4l3.217,4.826a1.609,1.609,0,1,0,2.677-1.785l-3.217-4.826a1.607,1.607,0,0,0-2.231-.446Z" transform="translate(35.332 41.574)" fill="#fece2f"/>
          <path id="Trazado_218750" data-name="Trazado 218750" d="M12.388,12.18a1.608,1.608,0,0,0,2.275,0L21.1,5.746a1.608,1.608,0,1,0-2.275-2.275l-5.3,5.3-2.08-2.08A1.608,1.608,0,1,0,9.171,8.963Z" transform="translate(37.949 11.477)" fill="#fece2f"/>
          <path id="Trazado_218751" data-name="Trazado 218751" d="M22.478,40.432a1.612,1.612,0,0,0,1.018,0A22.753,22.753,0,0,0,39.071,18.821V8.343a1.612,1.612,0,0,0-1.6-1.609A20.918,20.918,0,0,1,24.123.771a1.608,1.608,0,0,0-2.275,0A20.919,20.919,0,0,1,8.509,6.734,1.609,1.609,0,0,0,6.9,8.343V18.82A22.752,22.752,0,0,0,22.478,40.432ZM10.117,9.835A24.174,24.174,0,0,0,22.986,4.111,24.174,24.174,0,0,0,35.855,9.835v8.985A19.538,19.538,0,0,1,22.986,37.2,19.538,19.538,0,0,1,10.117,18.82Z" transform="translate(30.098 -0.3)" fill="#fece2f"/>
        </g>
      </g>
      <g id="seguro-de-viaje" transform="translate(1273.91 2168.036)">
        <g id="Page-1-3" data-name="Page-1">
          <g id="_040---Travel-Insurance" data-name="040---Travel-Insurance">
            <path id="Shape-17" data-name="Shape" d="M40.011,14.341,26.076,8.321a1.393,1.393,0,0,0-1.1,0l-13.934,6.02A1.393,1.393,0,0,0,10.2,15.62V32.107a8.611,8.611,0,0,0,3.634,6.985l10.885,7.749a1.393,1.393,0,0,0,1.616,0l10.885-7.747a8.613,8.613,0,0,0,3.623-6.987V15.62A1.393,1.393,0,0,0,40.011,14.341ZM38.06,32.107a5.819,5.819,0,0,1-2.465,4.717L25.519,44,15.443,36.824a5.817,5.817,0,0,1-2.465-4.717V16.535l12.541-5.418L38.06,16.535Z" transform="translate(37.185 29.913)" fill="#54aa13"/>
            <path id="Shape-18" data-name="Shape" d="M13.629,20.527a1.393,1.393,0,0,0-1.672,2.229l5.574,4.18a1.394,1.394,0,0,0,1.924-.244L30.6,12.758a1.393,1.393,0,0,0-2.177-1.74L18.115,23.9Z" transform="translate(41.55 38.276)" fill="#54aa13"/>
            <path id="Shape-19" data-name="Shape" d="M76.638,13.934H75.245a2.787,2.787,0,0,0-2.787-2.787H69.671a2.787,2.787,0,0,0-2.787,2.787H59.917V11.147A11.16,11.16,0,0,0,48.77,0H34.836A11.16,11.16,0,0,0,23.688,11.147v2.787H16.721a2.787,2.787,0,0,0-2.787-2.787H11.147a2.787,2.787,0,0,0-2.787,2.787H6.967A6.975,6.975,0,0,0,0,20.9V68.278a6.975,6.975,0,0,0,6.967,6.967H8.361a2.787,2.787,0,0,0,2.787,2.787h2.787a2.787,2.787,0,0,0,2.787-2.787H50.163l11.1,7.9a2.486,2.486,0,0,0,2.884,0l13.483-9.6a14.188,14.188,0,0,0,5.978-11.525V20.9A6.975,6.975,0,0,0,76.638,13.934Zm0,2.787a4.18,4.18,0,0,1,4.18,4.18V39.749l-5.574-2.405V16.721Zm-6.967-2.787h2.787v22.2l-2.787-1.2Zm-43.2-2.787a8.369,8.369,0,0,1,8.361-8.361H48.77a8.369,8.369,0,0,1,8.361,8.361v2.787H52.95V12.541a5.574,5.574,0,0,0-5.574-5.574H36.229a5.574,5.574,0,0,0-5.574,5.574v1.393h-4.18Zm6.967,2.787V12.541a2.787,2.787,0,0,1,2.787-2.787H47.376a2.787,2.787,0,0,1,2.787,2.787v1.393ZM6.967,72.458a4.18,4.18,0,0,1-4.18-4.18V20.9a4.18,4.18,0,0,1,4.18-4.18H8.361V72.458Zm4.18,2.787V13.934h2.787V75.245Zm5.574-58.524H66.884V33.729L63.324,32.2a9.057,9.057,0,1,0-15.9,1.254H39.445l-4.09-11.61a1.393,1.393,0,0,0-1.778-.851l-13.14,4.64a1.393,1.393,0,0,0-.85,1.778l5.56,15.76a1.393,1.393,0,0,0,1.314.931,1.363,1.363,0,0,0,.461-.081l5.126-1.809v9.348a1.393,1.393,0,0,0,1.393,1.393H41.8v9.07a14.171,14.171,0,0,0,4.63,10.438H16.721ZM42.639,40.589a1.393,1.393,0,0,0-.836,1.279v8.3H34.836V36.229H48.77v1.714Zm-9.2-7.147a1.393,1.393,0,0,0-1.393,1.393v4.42l-4.738,1.664L22.678,27.785,33.19,24.073l3.3,9.369Zm25.246.216-2.465,1.065a6.293,6.293,0,1,1,2.465-1.065ZM76.013,71.281,62.7,80.75,49.4,71.275A11.4,11.4,0,0,1,44.59,62.02V42.791l6.1-2.635.033-.025L62.7,34.96l5.016,2.167.033.014,5.529,2.388.057.025,7.479,3.231V62.014a11.4,11.4,0,0,1-4.806,9.262Z" fill="#54aa13"/>
            <path id="Shape-20" data-name="Shape" d="M11.467,11.7a6.967,6.967,0,1,0,6.967,6.967A6.967,6.967,0,0,0,11.467,11.7Zm0,11.147a4.18,4.18,0,1,1,4.18-4.18A4.18,4.18,0,0,1,11.467,22.847Z" transform="translate(16.401 42.644)" fill="#54aa13"/>
          </g>
        </g>
      </g>
    </g>
    <path id="Trazado_218761" data-name="Trazado 218761" d="M31.991,13.643a1.353,1.353,0,0,0-.527-1.147,6.917,6.917,0,0,0-1.9-.844,13.458,13.458,0,0,1-2.171-.875A3.547,3.547,0,0,1,25.214,7.6a3.09,3.09,0,0,1,.584-1.85,3.812,3.812,0,0,1,1.679-1.27,6.318,6.318,0,0,1,2.457-.457,5.751,5.751,0,0,1,2.443.5,3.891,3.891,0,0,1,1.666,1.4,3.668,3.668,0,0,1,.593,2.057H32a1.726,1.726,0,0,0-.554-1.367,2.276,2.276,0,0,0-1.556-.488,2.432,2.432,0,0,0-1.5.409,1.289,1.289,0,0,0-.536,1.077,1.235,1.235,0,0,0,.628,1.046,7.1,7.1,0,0,0,1.85.791,7.994,7.994,0,0,1,3.278,1.679,3.343,3.343,0,0,1,1.028,2.5,3.08,3.08,0,0,1-1.257,2.606A5.5,5.5,0,0,1,30,17.176a6.534,6.534,0,0,1-2.689-.541,4.256,4.256,0,0,1-1.85-1.481,3.793,3.793,0,0,1-.637-2.18h2.646q0,2.118,2.531,2.118a2.462,2.462,0,0,0,1.468-.382A1.244,1.244,0,0,0,31.991,13.643Zm8.64,3.533a4.668,4.668,0,0,1-3.406-1.283,4.561,4.561,0,0,1-1.314-3.419v-.246a5.745,5.745,0,0,1,.554-2.562,4.064,4.064,0,0,1,1.569-1.74,4.4,4.4,0,0,1,2.316-.611,3.947,3.947,0,0,1,3.072,1.23,5,5,0,0,1,1.121,3.489v1.037H38.486a2.36,2.36,0,0,0,.743,1.494,2.245,2.245,0,0,0,1.569.563,2.742,2.742,0,0,0,2.294-1.063l1.248,1.4a3.813,3.813,0,0,1-1.547,1.261A5.075,5.075,0,0,1,40.63,17.176Zm-.29-7.813a1.587,1.587,0,0,0-1.226.512,2.651,2.651,0,0,0-.6,1.466h3.533v-.2a1.891,1.891,0,0,0-.457-1.311A1.638,1.638,0,0,0,40.34,9.362Zm5.273,2.813A5.573,5.573,0,0,1,46.655,8.65a3.375,3.375,0,0,1,2.808-1.336A2.96,2.96,0,0,1,51.9,8.387L52,7.49h2.3v9.193a4.064,4.064,0,0,1-.567,2.171,3.641,3.641,0,0,1-1.6,1.406,5.608,5.608,0,0,1-2.408.483,5.215,5.215,0,0,1-2.039-.417,3.619,3.619,0,0,1-1.5-1.077L47.319,17.7a2.975,2.975,0,0,0,2.3,1.063,2.178,2.178,0,0,0,1.573-.541,2.027,2.027,0,0,0,.563-1.534v-.51a2.938,2.938,0,0,1-2.312.993,3.366,3.366,0,0,1-2.773-1.34,5.572,5.572,0,0,1-1.059-3.555Zm2.54.189a3.47,3.47,0,0,0,.519,2.029,1.65,1.65,0,0,0,1.424.735,1.764,1.764,0,0,0,1.661-.871V10.251a1.76,1.76,0,0,0-1.644-.871,1.66,1.66,0,0,0-1.437.748A3.911,3.911,0,0,0,48.154,12.364Zm13.8,3.669a3.185,3.185,0,0,1-2.6,1.143,3,3,0,0,1-2.333-.879,3.752,3.752,0,0,1-.822-2.575V7.49h2.54v6.151q0,1.487,1.354,1.487a1.834,1.834,0,0,0,1.775-.9V7.49h2.549V17H62.023Zm9.721-6.161a6.9,6.9,0,0,0-.914-.07,1.86,1.86,0,0,0-1.89.976V17H66.33V7.49h2.4l.07,1.134a2.354,2.354,0,0,1,2.118-1.31,2.662,2.662,0,0,1,.791.114Zm.51,2.285a5.64,5.64,0,0,1,.545-2.522A3.989,3.989,0,0,1,74.3,7.921a4.577,4.577,0,0,1,2.377-.606,4.33,4.33,0,0,1,3.142,1.178,4.727,4.727,0,0,1,1.358,3.2l.018.65a4.97,4.97,0,0,1-1.222,3.511,4.735,4.735,0,0,1-6.561,0,5.058,5.058,0,0,1-1.226-3.586Zm2.54.18a3.555,3.555,0,0,0,.51,2.073,1.831,1.831,0,0,0,2.9.009,3.89,3.89,0,0,0,.519-2.267,3.519,3.519,0,0,0-.519-2.06,1.686,1.686,0,0,0-1.459-.731,1.658,1.658,0,0,0-1.441.726A3.955,3.955,0,0,0,74.723,12.338Zm12.12-.163a5.731,5.731,0,0,1,1-3.542A3.237,3.237,0,0,1,90.57,7.314a2.913,2.913,0,0,1,2.294,1.037V3.5h2.549V17H93.119L93,15.989a2.989,2.989,0,0,1-2.443,1.187,3.228,3.228,0,0,1-2.694-1.323A5.916,5.916,0,0,1,86.843,12.175Zm2.54.189a3.754,3.754,0,0,0,.466,2.051,1.517,1.517,0,0,0,1.354.713,1.7,1.7,0,0,0,1.661-.995V10.375A1.675,1.675,0,0,0,91.22,9.38Q89.383,9.38,89.383,12.364Zm12.375,4.812a4.668,4.668,0,0,1-3.406-1.283,4.561,4.561,0,0,1-1.314-3.419v-.246a5.745,5.745,0,0,1,.554-2.562,4.064,4.064,0,0,1,1.569-1.74,4.4,4.4,0,0,1,2.316-.611,3.947,3.947,0,0,1,3.072,1.23,5,5,0,0,1,1.121,3.489v1.037H99.614a2.36,2.36,0,0,0,.743,1.494,2.245,2.245,0,0,0,1.569.563,2.742,2.742,0,0,0,2.294-1.063l1.248,1.4a3.813,3.813,0,0,1-1.547,1.261A5.075,5.075,0,0,1,101.758,17.176Zm-.29-7.813a1.587,1.587,0,0,0-1.226.512,2.651,2.651,0,0,0-.6,1.466h3.533v-.2a1.891,1.891,0,0,0-.457-1.311A1.638,1.638,0,0,0,101.468,9.362ZM115.153,13.9l1.767-6.407h2.654L116.366,17H113.94l-3.208-9.51h2.654Zm8.218,3.1h-2.549V7.49h2.549Zm-2.7-11.971a1.251,1.251,0,0,1,.382-.94,1.648,1.648,0,0,1,2.079,0,1.244,1.244,0,0,1,.387.94,1.247,1.247,0,0,1-.391.949,1.629,1.629,0,0,1-2.065,0A1.247,1.247,0,0,1,120.672,5.029Zm4.395,7.146a5.731,5.731,0,0,1,1-3.542,3.237,3.237,0,0,1,2.729-1.318,2.913,2.913,0,0,1,2.294,1.037V3.5h2.549V17h-2.294l-.123-1.011a2.989,2.989,0,0,1-2.443,1.187,3.228,3.228,0,0,1-2.694-1.323A5.916,5.916,0,0,1,125.067,12.175Zm2.54.189a3.754,3.754,0,0,0,.466,2.051,1.517,1.517,0,0,0,1.354.713,1.7,1.7,0,0,0,1.661-.995V10.375a1.675,1.675,0,0,0-1.644-.995Q127.607,9.38,127.607,12.364ZM141.116,17a2.821,2.821,0,0,1-.255-.853,3.073,3.073,0,0,1-2.4,1.028,3.376,3.376,0,0,1-2.316-.809,2.6,2.6,0,0,1-.918-2.039,2.687,2.687,0,0,1,1.121-2.32,5.529,5.529,0,0,1,3.239-.817h1.169v-.545a1.567,1.567,0,0,0-.338-1.055,1.331,1.331,0,0,0-1.068-.4,1.513,1.513,0,0,0-1.006.308,1.045,1.045,0,0,0-.365.844h-2.54a2.551,2.551,0,0,1,.51-1.529,3.37,3.37,0,0,1,1.441-1.1,5.253,5.253,0,0,1,2.092-.4,4.15,4.15,0,0,1,2.791.883,3.09,3.09,0,0,1,1.033,2.483V14.8a4.546,4.546,0,0,0,.378,2.048V17Zm-2.1-1.767a2.188,2.188,0,0,0,1.037-.25,1.645,1.645,0,0,0,.7-.672V12.676h-.949q-1.907,0-2.03,1.318l-.009.149a1.017,1.017,0,0,0,.334.782A1.3,1.3,0,0,0,139.015,15.233Z" transform="translate(200.508 2363)" fill="#12263f"/>
    <path id="Trazado_218760" data-name="Trazado 218760" d="M15.151,13.643a1.353,1.353,0,0,0-.527-1.147,6.917,6.917,0,0,0-1.9-.844,13.458,13.458,0,0,1-2.171-.875A3.547,3.547,0,0,1,8.375,7.6a3.09,3.09,0,0,1,.584-1.85,3.812,3.812,0,0,1,1.679-1.27,6.318,6.318,0,0,1,2.457-.457,5.751,5.751,0,0,1,2.443.5,3.891,3.891,0,0,1,1.666,1.4A3.668,3.668,0,0,1,17.8,7.982H15.16a1.726,1.726,0,0,0-.554-1.367,2.276,2.276,0,0,0-1.556-.488,2.432,2.432,0,0,0-1.5.409,1.289,1.289,0,0,0-.536,1.077,1.235,1.235,0,0,0,.628,1.046,7.1,7.1,0,0,0,1.85.791,7.994,7.994,0,0,1,3.278,1.679,3.343,3.343,0,0,1,1.028,2.5,3.08,3.08,0,0,1-1.257,2.606,5.5,5.5,0,0,1-3.384.945,6.534,6.534,0,0,1-2.689-.541,4.256,4.256,0,0,1-1.85-1.481,3.793,3.793,0,0,1-.637-2.18h2.646q0,2.118,2.531,2.118a2.462,2.462,0,0,0,1.468-.382A1.244,1.244,0,0,0,15.151,13.643Zm8.64,3.533a4.668,4.668,0,0,1-3.406-1.283,4.561,4.561,0,0,1-1.314-3.419v-.246a5.745,5.745,0,0,1,.554-2.562,4.064,4.064,0,0,1,1.569-1.74,4.4,4.4,0,0,1,2.316-.611,3.947,3.947,0,0,1,3.072,1.23A5,5,0,0,1,27.7,12.034v1.037H21.646a2.36,2.36,0,0,0,.743,1.494,2.245,2.245,0,0,0,1.569.563,2.742,2.742,0,0,0,2.294-1.063l1.248,1.4a3.813,3.813,0,0,1-1.547,1.261A5.075,5.075,0,0,1,23.791,17.176ZM23.5,9.362a1.587,1.587,0,0,0-1.226.512,2.651,2.651,0,0,0-.6,1.466h3.533v-.2a1.891,1.891,0,0,0-.457-1.311A1.638,1.638,0,0,0,23.5,9.362Zm5.273,2.813A5.573,5.573,0,0,1,29.815,8.65a3.375,3.375,0,0,1,2.808-1.336,2.96,2.96,0,0,1,2.435,1.072l.105-.9h2.3v9.193a4.064,4.064,0,0,1-.567,2.171,3.641,3.641,0,0,1-1.6,1.406,5.608,5.608,0,0,1-2.408.483,5.215,5.215,0,0,1-2.039-.417,3.619,3.619,0,0,1-1.5-1.077L30.479,17.7a2.975,2.975,0,0,0,2.3,1.063,2.178,2.178,0,0,0,1.573-.541,2.027,2.027,0,0,0,.563-1.534v-.51a2.938,2.938,0,0,1-2.312.993,3.366,3.366,0,0,1-2.773-1.34,5.572,5.572,0,0,1-1.059-3.555Zm2.54.189a3.47,3.47,0,0,0,.519,2.029,1.65,1.65,0,0,0,1.424.735,1.764,1.764,0,0,0,1.661-.871V10.251a1.76,1.76,0,0,0-1.644-.871,1.66,1.66,0,0,0-1.437.748A3.911,3.911,0,0,0,31.314,12.364Zm13.8,3.669a3.185,3.185,0,0,1-2.6,1.143,3,3,0,0,1-2.333-.879,3.752,3.752,0,0,1-.822-2.575V7.49H41.9v6.151q0,1.487,1.354,1.487a1.834,1.834,0,0,0,1.775-.9V7.49h2.549V17H45.183Zm9.721-6.161a6.9,6.9,0,0,0-.914-.07,1.86,1.86,0,0,0-1.89.976V17H49.49V7.49h2.4l.07,1.134a2.354,2.354,0,0,1,2.118-1.31,2.662,2.662,0,0,1,.791.114Zm.51,2.285a5.64,5.64,0,0,1,.545-2.522,3.989,3.989,0,0,1,1.569-1.714,4.577,4.577,0,0,1,2.377-.606,4.33,4.33,0,0,1,3.142,1.178,4.727,4.727,0,0,1,1.358,3.2l.018.65a4.97,4.97,0,0,1-1.222,3.511,4.735,4.735,0,0,1-6.561,0,5.058,5.058,0,0,1-1.226-3.586Zm2.54.18a3.555,3.555,0,0,0,.51,2.073,1.831,1.831,0,0,0,2.9.009,3.89,3.89,0,0,0,.519-2.267,3.519,3.519,0,0,0-.519-2.06,1.686,1.686,0,0,0-1.459-.731,1.658,1.658,0,0,0-1.441.726A3.955,3.955,0,0,0,57.883,12.338ZM70,12.175a5.731,5.731,0,0,1,1-3.542A3.237,3.237,0,0,1,73.73,7.314a2.913,2.913,0,0,1,2.294,1.037V3.5h2.549V17H76.279l-.123-1.011a2.989,2.989,0,0,1-2.443,1.187,3.228,3.228,0,0,1-2.694-1.323A5.916,5.916,0,0,1,70,12.175Zm2.54.189a3.754,3.754,0,0,0,.466,2.051,1.517,1.517,0,0,0,1.354.713,1.7,1.7,0,0,0,1.661-.995V10.375A1.675,1.675,0,0,0,74.38,9.38Q72.543,9.38,72.543,12.364Zm12.375,4.812a4.668,4.668,0,0,1-3.406-1.283A4.561,4.561,0,0,1,80.2,12.474v-.246a5.745,5.745,0,0,1,.554-2.562,4.064,4.064,0,0,1,1.569-1.74,4.4,4.4,0,0,1,2.316-.611,3.947,3.947,0,0,1,3.072,1.23,5,5,0,0,1,1.121,3.489v1.037H82.774a2.36,2.36,0,0,0,.743,1.494,2.245,2.245,0,0,0,1.569.563,2.742,2.742,0,0,0,2.294-1.063l1.248,1.4a3.813,3.813,0,0,1-1.547,1.261A5.075,5.075,0,0,1,84.918,17.176Zm-.29-7.813a1.587,1.587,0,0,0-1.226.512,2.651,2.651,0,0,0-.6,1.466h3.533v-.2a1.891,1.891,0,0,0-.457-1.311A1.638,1.638,0,0,0,84.628,9.362ZM98.313,13.9,100.08,7.49h2.654L99.526,17H97.1L93.892,7.49h2.654Zm8.218,3.1h-2.549V7.49h2.549Zm-2.7-11.971a1.251,1.251,0,0,1,.382-.94,1.648,1.648,0,0,1,2.079,0,1.244,1.244,0,0,1,.387.94,1.247,1.247,0,0,1-.391.949,1.629,1.629,0,0,1-2.065,0A1.247,1.247,0,0,1,103.833,5.029Zm8.35,8.868,1.767-6.407H116.6L113.4,17h-2.426l-3.208-9.51h2.654ZM120.4,17h-2.549V7.49H120.4ZM117.7,5.029a1.251,1.251,0,0,1,.382-.94,1.648,1.648,0,0,1,2.079,0,1.244,1.244,0,0,1,.387.94,1.247,1.247,0,0,1-.391.949,1.629,1.629,0,0,1-2.065,0A1.247,1.247,0,0,1,117.7,5.029Zm9.167,12.146a4.668,4.668,0,0,1-3.406-1.283,4.561,4.561,0,0,1-1.314-3.419v-.246a5.745,5.745,0,0,1,.554-2.562,4.064,4.064,0,0,1,1.569-1.74,4.4,4.4,0,0,1,2.316-.611,3.947,3.947,0,0,1,3.072,1.23,5,5,0,0,1,1.121,3.489v1.037h-6.056a2.36,2.36,0,0,0,.743,1.494,2.245,2.245,0,0,0,1.569.563,2.742,2.742,0,0,0,2.294-1.063l1.248,1.4a3.813,3.813,0,0,1-1.547,1.261A5.075,5.075,0,0,1,126.869,17.176Zm-.29-7.813a1.587,1.587,0,0,0-1.226.512,2.651,2.651,0,0,0-.6,1.466h3.533v-.2a1.891,1.891,0,0,0-.457-1.311A1.638,1.638,0,0,0,126.579,9.362Zm7.98-1.872.079,1.1a3.32,3.32,0,0,1,2.733-1.274,2.759,2.759,0,0,1,2.25.888,4.142,4.142,0,0,1,.756,2.654V17h-2.54V10.918a1.648,1.648,0,0,0-.352-1.173,1.574,1.574,0,0,0-1.169-.365,1.747,1.747,0,0,0-1.608.914V17h-2.54V7.49Zm7.348,4.685a5.731,5.731,0,0,1,1-3.542,3.237,3.237,0,0,1,2.729-1.318,2.913,2.913,0,0,1,2.294,1.037V3.5h2.549V17h-2.294l-.123-1.011a2.989,2.989,0,0,1-2.443,1.187,3.228,3.228,0,0,1-2.694-1.323A5.916,5.916,0,0,1,141.907,12.175Zm2.54.189a3.754,3.754,0,0,0,.466,2.051,1.517,1.517,0,0,0,1.354.713,1.7,1.7,0,0,0,1.661-.995V10.375a1.675,1.675,0,0,0-1.644-.995Q144.447,9.38,144.447,12.364ZM157.956,17a2.821,2.821,0,0,1-.255-.853,3.073,3.073,0,0,1-2.4,1.028,3.376,3.376,0,0,1-2.316-.809,2.6,2.6,0,0,1-.918-2.039,2.687,2.687,0,0,1,1.121-2.32,5.529,5.529,0,0,1,3.239-.817H157.6v-.545a1.567,1.567,0,0,0-.338-1.055,1.331,1.331,0,0,0-1.068-.4,1.513,1.513,0,0,0-1.006.308,1.045,1.045,0,0,0-.365.844h-2.54a2.551,2.551,0,0,1,.51-1.529,3.37,3.37,0,0,1,1.441-1.1,5.253,5.253,0,0,1,2.092-.4,4.15,4.15,0,0,1,2.791.883,3.09,3.09,0,0,1,1.033,2.483V14.8a4.546,4.546,0,0,0,.378,2.048V17Zm-2.1-1.767a2.188,2.188,0,0,0,1.037-.25,1.645,1.645,0,0,0,.7-.672V12.676h-.949q-1.907,0-2.03,1.318l-.009.149a1.017,1.017,0,0,0,.334.782A1.3,1.3,0,0,0,155.855,15.233Z" transform="translate(613 2363)" fill="#12263f"/>
    <path id="Trazado_218759" data-name="Trazado 218759" d="M29.468,13.643A1.353,1.353,0,0,0,28.94,12.5a6.917,6.917,0,0,0-1.9-.844,13.458,13.458,0,0,1-2.171-.875A3.547,3.547,0,0,1,22.691,7.6a3.09,3.09,0,0,1,.584-1.85,3.812,3.812,0,0,1,1.679-1.27,6.318,6.318,0,0,1,2.457-.457,5.751,5.751,0,0,1,2.443.5,3.891,3.891,0,0,1,1.666,1.4,3.668,3.668,0,0,1,.593,2.057H29.477a1.726,1.726,0,0,0-.554-1.367,2.276,2.276,0,0,0-1.556-.488,2.432,2.432,0,0,0-1.5.409,1.289,1.289,0,0,0-.536,1.077,1.235,1.235,0,0,0,.628,1.046,7.1,7.1,0,0,0,1.85.791,7.994,7.994,0,0,1,3.278,1.679,3.343,3.343,0,0,1,1.028,2.5,3.08,3.08,0,0,1-1.257,2.606,5.5,5.5,0,0,1-3.384.945,6.534,6.534,0,0,1-2.689-.541,4.256,4.256,0,0,1-1.85-1.481,3.793,3.793,0,0,1-.637-2.18h2.646q0,2.118,2.531,2.118a2.462,2.462,0,0,0,1.468-.382A1.244,1.244,0,0,0,29.468,13.643Zm8.64,3.533A4.668,4.668,0,0,1,34.7,15.893a4.561,4.561,0,0,1-1.314-3.419v-.246a5.745,5.745,0,0,1,.554-2.562,4.064,4.064,0,0,1,1.569-1.74,4.4,4.4,0,0,1,2.316-.611A3.947,3.947,0,0,1,40.9,8.545a5,5,0,0,1,1.121,3.489v1.037H35.963a2.36,2.36,0,0,0,.743,1.494,2.245,2.245,0,0,0,1.569.563,2.742,2.742,0,0,0,2.294-1.063l1.248,1.4a3.813,3.813,0,0,1-1.547,1.261A5.075,5.075,0,0,1,38.107,17.176Zm-.29-7.813a1.587,1.587,0,0,0-1.226.512,2.651,2.651,0,0,0-.6,1.466h3.533v-.2a1.891,1.891,0,0,0-.457-1.311A1.638,1.638,0,0,0,37.817,9.362Zm5.273,2.813A5.573,5.573,0,0,1,44.132,8.65,3.375,3.375,0,0,1,46.94,7.314a2.96,2.96,0,0,1,2.435,1.072l.105-.9h2.3v9.193a4.064,4.064,0,0,1-.567,2.171,3.641,3.641,0,0,1-1.6,1.406,5.608,5.608,0,0,1-2.408.483,5.215,5.215,0,0,1-2.039-.417,3.619,3.619,0,0,1-1.5-1.077L44.8,17.7a2.975,2.975,0,0,0,2.3,1.063,2.178,2.178,0,0,0,1.573-.541,2.027,2.027,0,0,0,.563-1.534v-.51a2.938,2.938,0,0,1-2.312.993,3.366,3.366,0,0,1-2.773-1.34,5.572,5.572,0,0,1-1.059-3.555Zm2.54.189a3.47,3.47,0,0,0,.519,2.029,1.65,1.65,0,0,0,1.424.735,1.764,1.764,0,0,0,1.661-.871V10.251a1.76,1.76,0,0,0-1.644-.871,1.66,1.66,0,0,0-1.437.748A3.911,3.911,0,0,0,45.631,12.364Zm13.8,3.669a3.185,3.185,0,0,1-2.6,1.143,3,3,0,0,1-2.333-.879,3.752,3.752,0,0,1-.822-2.575V7.49h2.54v6.151q0,1.487,1.354,1.487a1.834,1.834,0,0,0,1.775-.9V7.49h2.549V17H59.5ZM69.15,9.872a6.9,6.9,0,0,0-.914-.07,1.86,1.86,0,0,0-1.89.976V17h-2.54V7.49h2.4l.07,1.134a2.354,2.354,0,0,1,2.118-1.31,2.662,2.662,0,0,1,.791.114Zm.51,2.285a5.64,5.64,0,0,1,.545-2.522,3.989,3.989,0,0,1,1.569-1.714,4.577,4.577,0,0,1,2.377-.606,4.33,4.33,0,0,1,3.142,1.178,4.727,4.727,0,0,1,1.358,3.2l.018.65a4.97,4.97,0,0,1-1.222,3.511,4.735,4.735,0,0,1-6.561,0,5.058,5.058,0,0,1-1.226-3.586Zm2.54.18a3.555,3.555,0,0,0,.51,2.073,1.831,1.831,0,0,0,2.9.009,3.89,3.89,0,0,0,.519-2.267,3.519,3.519,0,0,0-.519-2.06,1.686,1.686,0,0,0-1.459-.731,1.658,1.658,0,0,0-1.441.726A3.955,3.955,0,0,0,72.2,12.338Zm12.12-.163a5.731,5.731,0,0,1,1-3.542,3.237,3.237,0,0,1,2.729-1.318,2.913,2.913,0,0,1,2.294,1.037V3.5H92.89V17H90.6l-.123-1.011a2.989,2.989,0,0,1-2.443,1.187,3.228,3.228,0,0,1-2.694-1.323A5.916,5.916,0,0,1,84.32,12.175Zm2.54.189a3.754,3.754,0,0,0,.466,2.051,1.517,1.517,0,0,0,1.354.713,1.7,1.7,0,0,0,1.661-.995V10.375A1.675,1.675,0,0,0,88.7,9.38Q86.86,9.38,86.86,12.364Zm12.375,4.812a4.668,4.668,0,0,1-3.406-1.283,4.561,4.561,0,0,1-1.314-3.419v-.246a5.745,5.745,0,0,1,.554-2.562,4.064,4.064,0,0,1,1.569-1.74,4.4,4.4,0,0,1,2.316-.611,3.947,3.947,0,0,1,3.072,1.23,5,5,0,0,1,1.121,3.489v1.037H97.091a2.36,2.36,0,0,0,.743,1.494,2.245,2.245,0,0,0,1.569.563,2.742,2.742,0,0,0,2.294-1.063l1.248,1.4a3.813,3.813,0,0,1-1.547,1.261A5.075,5.075,0,0,1,99.235,17.176Zm-.29-7.813a1.587,1.587,0,0,0-1.226.512,2.651,2.651,0,0,0-.6,1.466h3.533v-.2a1.891,1.891,0,0,0-.457-1.311A1.638,1.638,0,0,0,98.945,9.362ZM114.581,17a2.821,2.821,0,0,1-.255-.853,3.073,3.073,0,0,1-2.4,1.028,3.376,3.376,0,0,1-2.316-.809,2.6,2.6,0,0,1-.918-2.039,2.687,2.687,0,0,1,1.121-2.32,5.529,5.529,0,0,1,3.239-.817h1.169v-.545a1.567,1.567,0,0,0-.338-1.055,1.331,1.331,0,0,0-1.068-.4,1.513,1.513,0,0,0-1.006.308,1.045,1.045,0,0,0-.365.844H108.9a2.551,2.551,0,0,1,.51-1.529,3.37,3.37,0,0,1,1.441-1.1,5.253,5.253,0,0,1,2.092-.4,4.15,4.15,0,0,1,2.791.883,3.09,3.09,0,0,1,1.033,2.483V14.8a4.546,4.546,0,0,0,.378,2.048V17Zm-2.1-1.767a2.188,2.188,0,0,0,1.037-.25,1.645,1.645,0,0,0,.7-.672V12.676h-.949q-1.907,0-2.03,1.318l-.009.149a1.017,1.017,0,0,0,.334.782A1.3,1.3,0,0,0,112.48,15.233Zm10.2-.105a1.666,1.666,0,0,0,1.143-.387,1.355,1.355,0,0,0,.457-1.028h2.382a3.258,3.258,0,0,1-.527,1.771,3.48,3.48,0,0,1-1.419,1.248,4.442,4.442,0,0,1-1.991.444,4.129,4.129,0,0,1-3.217-1.3,5.13,5.13,0,0,1-1.178-3.582v-.167a5.071,5.071,0,0,1,1.169-3.507,4.08,4.08,0,0,1,3.208-1.31,4,4,0,0,1,2.861,1.015,3.594,3.594,0,0,1,1.094,2.7h-2.382a1.745,1.745,0,0,0-.457-1.206,1.7,1.7,0,0,0-2.5.183,3.749,3.749,0,0,0-.453,2.1v.264a3.8,3.8,0,0,0,.448,2.113A1.549,1.549,0,0,0,122.676,15.128Zm9.387,0a1.666,1.666,0,0,0,1.143-.387,1.355,1.355,0,0,0,.457-1.028h2.382a3.258,3.258,0,0,1-.527,1.771,3.48,3.48,0,0,1-1.419,1.248,4.442,4.442,0,0,1-1.991.444,4.129,4.129,0,0,1-3.217-1.3,5.13,5.13,0,0,1-1.178-3.582v-.167a5.071,5.071,0,0,1,1.169-3.507,4.08,4.08,0,0,1,3.208-1.31A4,4,0,0,1,134.95,8.33a3.594,3.594,0,0,1,1.094,2.7h-2.382a1.745,1.745,0,0,0-.457-1.206,1.7,1.7,0,0,0-2.5.183,3.749,3.749,0,0,0-.453,2.1v.264a3.8,3.8,0,0,0,.448,2.113A1.549,1.549,0,0,0,132.063,15.128ZM140.175,17h-2.549V7.49h2.549Zm-2.7-11.971a1.251,1.251,0,0,1,.382-.94,1.648,1.648,0,0,1,2.079,0,1.244,1.244,0,0,1,.387.94,1.247,1.247,0,0,1-.391.949,1.629,1.629,0,0,1-2.065,0A1.247,1.247,0,0,1,137.477,5.029Zm4.395,7.146a5.731,5.731,0,0,1,1-3.542A3.237,3.237,0,0,1,145.6,7.314a2.913,2.913,0,0,1,2.294,1.037V3.5h2.549V17h-2.294l-.123-1.011a2.989,2.989,0,0,1-2.443,1.187,3.228,3.228,0,0,1-2.694-1.323A5.916,5.916,0,0,1,141.871,12.175Zm2.54.189a3.754,3.754,0,0,0,.466,2.051,1.517,1.517,0,0,0,1.354.713,1.7,1.7,0,0,0,1.661-.995V10.375a1.675,1.675,0,0,0-1.644-.995Q144.411,9.38,144.411,12.364Zm12.375,4.812a4.668,4.668,0,0,1-3.406-1.283,4.561,4.561,0,0,1-1.314-3.419v-.246a5.745,5.745,0,0,1,.554-2.562,4.064,4.064,0,0,1,1.569-1.74,4.4,4.4,0,0,1,2.316-.611,3.947,3.947,0,0,1,3.072,1.23,5,5,0,0,1,1.121,3.489v1.037h-6.056a2.36,2.36,0,0,0,.743,1.494,2.245,2.245,0,0,0,1.569.563,2.742,2.742,0,0,0,2.294-1.063l1.248,1.4a3.813,3.813,0,0,1-1.547,1.261A5.075,5.075,0,0,1,156.786,17.176Zm-.29-7.813a1.587,1.587,0,0,0-1.226.512,2.651,2.651,0,0,0-.6,1.466H158.2v-.2a1.891,1.891,0,0,0-.457-1.311A1.638,1.638,0,0,0,156.5,9.362Zm7.98-1.872.079,1.1a3.32,3.32,0,0,1,2.733-1.274,2.759,2.759,0,0,1,2.25.888,4.142,4.142,0,0,1,.756,2.654V17h-2.54V10.918a1.648,1.648,0,0,0-.352-1.173,1.574,1.574,0,0,0-1.169-.365,1.747,1.747,0,0,0-1.608.914V17h-2.54V7.49Zm10.784-2.338V7.49h1.626V9.354h-1.626V14.1a1.133,1.133,0,0,0,.2.756,1.015,1.015,0,0,0,.773.229,4.051,4.051,0,0,0,.747-.062v1.925a5.229,5.229,0,0,1-1.538.229,2.425,2.425,0,0,1-2.725-2.7V9.354h-1.389V7.49h1.389V5.152Zm7.418,12.023a4.668,4.668,0,0,1-3.406-1.283,4.561,4.561,0,0,1-1.314-3.419v-.246a5.745,5.745,0,0,1,.554-2.562,4.064,4.064,0,0,1,1.569-1.74,4.4,4.4,0,0,1,2.316-.611,3.947,3.947,0,0,1,3.072,1.23,5,5,0,0,1,1.121,3.489v1.037h-6.056a2.36,2.36,0,0,0,.743,1.494,2.245,2.245,0,0,0,1.569.563,2.742,2.742,0,0,0,2.294-1.063l1.248,1.4a3.813,3.813,0,0,1-1.547,1.261A5.075,5.075,0,0,1,182.679,17.176Zm-.29-7.813a1.587,1.587,0,0,0-1.226.512,2.651,2.651,0,0,0-.6,1.466h3.533v-.2a1.891,1.891,0,0,0-.457-1.311A1.638,1.638,0,0,0,182.389,9.362Zm10.793,5.01a.818.818,0,0,0-.461-.734,5.241,5.241,0,0,0-1.481-.479q-3.393-.712-3.393-2.883a2.613,2.613,0,0,1,1.05-2.114,4.237,4.237,0,0,1,2.747-.848,4.56,4.56,0,0,1,2.9.853,2.687,2.687,0,0,1,1.085,2.215h-2.54a1.229,1.229,0,0,0-.352-.9,1.488,1.488,0,0,0-1.1-.356,1.52,1.52,0,0,0-.993.29.916.916,0,0,0-.352.738.783.783,0,0,0,.4.681,4.114,4.114,0,0,0,1.349.448,11.019,11.019,0,0,1,1.6.426,2.628,2.628,0,0,1,2.013,2.558,2.481,2.481,0,0,1-1.116,2.1,4.815,4.815,0,0,1-2.883.8,5.029,5.029,0,0,1-2.123-.426,3.561,3.561,0,0,1-1.455-1.169,2.716,2.716,0,0,1-.527-1.6h2.408a1.326,1.326,0,0,0,.5,1.037,1.987,1.987,0,0,0,1.248.36,1.839,1.839,0,0,0,1.1-.277A.861.861,0,0,0,193.182,14.372ZM73.861,34.333a5.7,5.7,0,0,1-1,3.52,3.2,3.2,0,0,1-2.694,1.323,2.963,2.963,0,0,1-2.329-1v4.482H65.3V29.49h2.355l.088.932a2.985,2.985,0,0,1,2.408-1.107,3.22,3.22,0,0,1,2.733,1.3,5.858,5.858,0,0,1,.976,3.586Zm-2.54-.185a3.743,3.743,0,0,0-.47-2.048,1.532,1.532,0,0,0-1.367-.721,1.663,1.663,0,0,0-1.644.914v3.894a1.692,1.692,0,0,0,1.661.94Q71.321,37.128,71.321,34.148Zm8.49,5.027a4.668,4.668,0,0,1-3.406-1.283,4.561,4.561,0,0,1-1.314-3.419v-.246a5.745,5.745,0,0,1,.554-2.562,4.064,4.064,0,0,1,1.569-1.74,4.4,4.4,0,0,1,2.316-.611,3.947,3.947,0,0,1,3.072,1.23,5,5,0,0,1,1.121,3.489v1.037H77.667a2.36,2.36,0,0,0,.743,1.494,2.245,2.245,0,0,0,1.569.563,2.742,2.742,0,0,0,2.294-1.063l1.248,1.4a3.813,3.813,0,0,1-1.547,1.261A5.075,5.075,0,0,1,79.812,39.176Zm-.29-7.813a1.587,1.587,0,0,0-1.226.512,2.651,2.651,0,0,0-.6,1.466h3.533v-.2a1.891,1.891,0,0,0-.457-1.311A1.638,1.638,0,0,0,79.521,31.362Zm10.986.51a6.9,6.9,0,0,0-.914-.07,1.86,1.86,0,0,0-1.89.976V39h-2.54V29.49h2.4l.07,1.134a2.354,2.354,0,0,1,2.118-1.31,2.662,2.662,0,0,1,.791.114Zm6.372,4.5a.818.818,0,0,0-.461-.734,5.241,5.241,0,0,0-1.481-.479q-3.393-.712-3.393-2.883a2.613,2.613,0,0,1,1.05-2.114,4.237,4.237,0,0,1,2.747-.848,4.56,4.56,0,0,1,2.9.853,2.687,2.687,0,0,1,1.085,2.215h-2.54a1.229,1.229,0,0,0-.352-.9,1.488,1.488,0,0,0-1.1-.356,1.52,1.52,0,0,0-.993.29.916.916,0,0,0-.352.738.783.783,0,0,0,.4.681,4.114,4.114,0,0,0,1.349.448,11.019,11.019,0,0,1,1.6.426,2.628,2.628,0,0,1,2.013,2.558,2.481,2.481,0,0,1-1.116,2.1,4.815,4.815,0,0,1-2.883.8,5.029,5.029,0,0,1-2.123-.426,3.561,3.561,0,0,1-1.455-1.169,2.716,2.716,0,0,1-.527-1.6h2.408a1.326,1.326,0,0,0,.5,1.037,1.987,1.987,0,0,0,1.248.36,1.839,1.839,0,0,0,1.1-.277A.861.861,0,0,0,96.88,36.372Zm3.709-2.215a5.64,5.64,0,0,1,.545-2.522,3.989,3.989,0,0,1,1.569-1.714,4.577,4.577,0,0,1,2.377-.606,4.33,4.33,0,0,1,3.142,1.178,4.727,4.727,0,0,1,1.358,3.2l.018.65a4.97,4.97,0,0,1-1.222,3.511,4.735,4.735,0,0,1-6.561,0,5.058,5.058,0,0,1-1.226-3.586Zm2.54.18a3.555,3.555,0,0,0,.51,2.073,1.831,1.831,0,0,0,2.9.009,3.89,3.89,0,0,0,.519-2.267,3.519,3.519,0,0,0-.519-2.06,1.686,1.686,0,0,0-1.459-.731,1.658,1.658,0,0,0-1.441.726A3.955,3.955,0,0,0,103.129,34.338ZM113.5,29.49l.079,1.1a3.32,3.32,0,0,1,2.733-1.274,2.759,2.759,0,0,1,2.25.888,4.142,4.142,0,0,1,.756,2.654V39h-2.54V32.918a1.648,1.648,0,0,0-.352-1.173,1.574,1.574,0,0,0-1.169-.365,1.747,1.747,0,0,0-1.608.914V39h-2.54V29.49ZM126.754,39a2.821,2.821,0,0,1-.255-.853,3.073,3.073,0,0,1-2.4,1.028,3.376,3.376,0,0,1-2.316-.809,2.6,2.6,0,0,1-.918-2.039,2.687,2.687,0,0,1,1.121-2.32,5.529,5.529,0,0,1,3.239-.817h1.169v-.545a1.567,1.567,0,0,0-.338-1.055,1.331,1.331,0,0,0-1.068-.4,1.513,1.513,0,0,0-1.006.308,1.045,1.045,0,0,0-.365.844h-2.54a2.551,2.551,0,0,1,.51-1.529,3.37,3.37,0,0,1,1.441-1.1,5.253,5.253,0,0,1,2.092-.4,4.15,4.15,0,0,1,2.791.883,3.09,3.09,0,0,1,1.033,2.483V36.8a4.546,4.546,0,0,0,.378,2.048V39Zm-2.1-1.767a2.188,2.188,0,0,0,1.037-.25,1.645,1.645,0,0,0,.7-.672V34.676h-.949q-1.907,0-2.03,1.318l-.009.149a1.017,1.017,0,0,0,.334.782A1.3,1.3,0,0,0,124.653,37.233ZM133.574,39h-2.549V25.5h2.549Zm6.469.176a4.668,4.668,0,0,1-3.406-1.283,4.561,4.561,0,0,1-1.314-3.419v-.246a5.745,5.745,0,0,1,.554-2.562,4.064,4.064,0,0,1,1.569-1.74,4.4,4.4,0,0,1,2.316-.611,3.947,3.947,0,0,1,3.072,1.23,5,5,0,0,1,1.121,3.489v1.037H137.9a2.36,2.36,0,0,0,.743,1.494,2.245,2.245,0,0,0,1.569.563,2.742,2.742,0,0,0,2.294-1.063l1.248,1.4a3.813,3.813,0,0,1-1.547,1.261A5.075,5.075,0,0,1,140.043,39.176Zm-.29-7.813a1.587,1.587,0,0,0-1.226.512,2.651,2.651,0,0,0-.6,1.466h3.533v-.2A1.891,1.891,0,0,0,141,31.826,1.638,1.638,0,0,0,139.753,31.362Zm10.793,5.01a.818.818,0,0,0-.461-.734,5.241,5.241,0,0,0-1.481-.479q-3.393-.712-3.393-2.883a2.613,2.613,0,0,1,1.05-2.114,4.237,4.237,0,0,1,2.747-.848,4.56,4.56,0,0,1,2.9.853,2.687,2.687,0,0,1,1.085,2.215h-2.54a1.229,1.229,0,0,0-.352-.9,1.488,1.488,0,0,0-1.1-.356,1.52,1.52,0,0,0-.993.29.916.916,0,0,0-.352.738.783.783,0,0,0,.4.681,4.114,4.114,0,0,0,1.349.448,11.019,11.019,0,0,1,1.6.426,2.628,2.628,0,0,1,2.013,2.558,2.481,2.481,0,0,1-1.116,2.1,4.815,4.815,0,0,1-2.883.8,5.029,5.029,0,0,1-2.123-.426,3.561,3.561,0,0,1-1.455-1.169,2.716,2.716,0,0,1-.527-1.6h2.408a1.326,1.326,0,0,0,.5,1.037,1.987,1.987,0,0,0,1.248.36,1.839,1.839,0,0,0,1.1-.277A.861.861,0,0,0,150.546,36.372Z" transform="translate(1000 2363)" fill="#12263f"/>
    <path id="Trazado_218762" data-name="Trazado 218762" d="M18.327,13.643A1.353,1.353,0,0,0,17.8,12.5a6.917,6.917,0,0,0-1.9-.844,13.458,13.458,0,0,1-2.171-.875A3.547,3.547,0,0,1,11.55,7.6a3.09,3.09,0,0,1,.584-1.85,3.812,3.812,0,0,1,1.679-1.27,6.318,6.318,0,0,1,2.457-.457,5.751,5.751,0,0,1,2.443.5,3.891,3.891,0,0,1,1.666,1.4,3.668,3.668,0,0,1,.593,2.057H18.335a1.726,1.726,0,0,0-.554-1.367,2.276,2.276,0,0,0-1.556-.488,2.432,2.432,0,0,0-1.5.409,1.289,1.289,0,0,0-.536,1.077,1.235,1.235,0,0,0,.628,1.046,7.1,7.1,0,0,0,1.85.791,7.994,7.994,0,0,1,3.278,1.679,3.343,3.343,0,0,1,1.028,2.5,3.08,3.08,0,0,1-1.257,2.606,5.5,5.5,0,0,1-3.384.945,6.534,6.534,0,0,1-2.689-.541,4.256,4.256,0,0,1-1.85-1.481,3.793,3.793,0,0,1-.637-2.18H13.8q0,2.118,2.531,2.118A2.462,2.462,0,0,0,17.8,14.71,1.244,1.244,0,0,0,18.327,13.643Zm8.64,3.533a4.668,4.668,0,0,1-3.406-1.283,4.561,4.561,0,0,1-1.314-3.419v-.246A5.745,5.745,0,0,1,22.8,9.666a4.064,4.064,0,0,1,1.569-1.74,4.4,4.4,0,0,1,2.316-.611,3.947,3.947,0,0,1,3.072,1.23,5,5,0,0,1,1.121,3.489v1.037H24.822a2.36,2.36,0,0,0,.743,1.494,2.245,2.245,0,0,0,1.569.563,2.742,2.742,0,0,0,2.294-1.063l1.248,1.4a3.813,3.813,0,0,1-1.547,1.261A5.075,5.075,0,0,1,26.966,17.176Zm-.29-7.813a1.587,1.587,0,0,0-1.226.512,2.651,2.651,0,0,0-.6,1.466h3.533v-.2a1.891,1.891,0,0,0-.457-1.311A1.638,1.638,0,0,0,26.676,9.362Zm5.273,2.813A5.573,5.573,0,0,1,32.991,8.65,3.375,3.375,0,0,1,35.8,7.314a2.96,2.96,0,0,1,2.435,1.072l.105-.9h2.3v9.193a4.064,4.064,0,0,1-.567,2.171,3.641,3.641,0,0,1-1.6,1.406,5.608,5.608,0,0,1-2.408.483,5.215,5.215,0,0,1-2.039-.417,3.619,3.619,0,0,1-1.5-1.077L33.655,17.7a2.975,2.975,0,0,0,2.3,1.063,2.178,2.178,0,0,0,1.573-.541,2.027,2.027,0,0,0,.563-1.534v-.51a2.938,2.938,0,0,1-2.312.993,3.366,3.366,0,0,1-2.773-1.34A5.572,5.572,0,0,1,31.95,12.28Zm2.54.189a3.47,3.47,0,0,0,.519,2.029,1.65,1.65,0,0,0,1.424.735,1.764,1.764,0,0,0,1.661-.871V10.251A1.76,1.76,0,0,0,36.45,9.38a1.66,1.66,0,0,0-1.437.748A3.911,3.911,0,0,0,34.49,12.364Zm13.8,3.669a3.185,3.185,0,0,1-2.6,1.143,3,3,0,0,1-2.333-.879,3.752,3.752,0,0,1-.822-2.575V7.49h2.54v6.151q0,1.487,1.354,1.487a1.834,1.834,0,0,0,1.775-.9V7.49H50.75V17H48.359Zm9.721-6.161A6.9,6.9,0,0,0,57.1,9.8a1.86,1.86,0,0,0-1.89.976V17h-2.54V7.49h2.4l.07,1.134a2.354,2.354,0,0,1,2.118-1.31,2.662,2.662,0,0,1,.791.114Zm.51,2.285a5.64,5.64,0,0,1,.545-2.522,3.989,3.989,0,0,1,1.569-1.714,4.577,4.577,0,0,1,2.377-.606,4.33,4.33,0,0,1,3.142,1.178,4.727,4.727,0,0,1,1.358,3.2l.018.65a4.97,4.97,0,0,1-1.222,3.511,4.735,4.735,0,0,1-6.561,0,5.058,5.058,0,0,1-1.226-3.586Zm2.54.18a3.555,3.555,0,0,0,.51,2.073,1.831,1.831,0,0,0,2.9.009,3.89,3.89,0,0,0,.519-2.267,3.519,3.519,0,0,0-.519-2.06,1.686,1.686,0,0,0-1.459-.731,1.658,1.658,0,0,0-1.441.726A3.955,3.955,0,0,0,61.059,12.338Zm12.12-.163a5.731,5.731,0,0,1,1-3.542,3.237,3.237,0,0,1,2.729-1.318A2.913,2.913,0,0,1,79.2,8.352V3.5h2.549V17H79.455l-.123-1.011a2.989,2.989,0,0,1-2.443,1.187,3.228,3.228,0,0,1-2.694-1.323A5.916,5.916,0,0,1,73.179,12.175Zm2.54.189a3.754,3.754,0,0,0,.466,2.051,1.517,1.517,0,0,0,1.354.713,1.7,1.7,0,0,0,1.661-.995V10.375a1.675,1.675,0,0,0-1.644-.995Q75.719,9.38,75.719,12.364Zm12.375,4.812a4.668,4.668,0,0,1-3.406-1.283,4.561,4.561,0,0,1-1.314-3.419v-.246a5.745,5.745,0,0,1,.554-2.562A4.064,4.064,0,0,1,85.5,7.925a4.4,4.4,0,0,1,2.316-.611,3.947,3.947,0,0,1,3.072,1.23,5,5,0,0,1,1.121,3.489v1.037H85.95a2.36,2.36,0,0,0,.743,1.494,2.245,2.245,0,0,0,1.569.563,2.742,2.742,0,0,0,2.294-1.063l1.248,1.4a3.813,3.813,0,0,1-1.547,1.261A5.075,5.075,0,0,1,88.094,17.176ZM87.8,9.362a1.587,1.587,0,0,0-1.226.512,2.651,2.651,0,0,0-.6,1.466h3.533v-.2a1.891,1.891,0,0,0-.457-1.311A1.638,1.638,0,0,0,87.8,9.362Zm13.166-4.21V7.49H102.6V9.354H100.97V14.1a1.133,1.133,0,0,0,.2.756,1.015,1.015,0,0,0,.773.229,4.051,4.051,0,0,0,.747-.062v1.925a5.229,5.229,0,0,1-1.538.229,2.425,2.425,0,0,1-2.725-2.7V9.354H97.042V7.49H98.43V5.152Zm8.385,4.72a6.9,6.9,0,0,0-.914-.07,1.86,1.86,0,0,0-1.89.976V17h-2.54V7.49h2.4l.07,1.134a2.354,2.354,0,0,1,2.118-1.31,2.662,2.662,0,0,1,.791.114ZM115.824,17a2.821,2.821,0,0,1-.255-.853,3.073,3.073,0,0,1-2.4,1.028,3.376,3.376,0,0,1-2.316-.809,2.6,2.6,0,0,1-.918-2.039,2.687,2.687,0,0,1,1.121-2.32,5.529,5.529,0,0,1,3.239-.817h1.169v-.545a1.567,1.567,0,0,0-.338-1.055,1.331,1.331,0,0,0-1.068-.4,1.513,1.513,0,0,0-1.006.308,1.045,1.045,0,0,0-.365.844h-2.54a2.551,2.551,0,0,1,.51-1.529,3.37,3.37,0,0,1,1.441-1.1,5.253,5.253,0,0,1,2.092-.4,4.15,4.15,0,0,1,2.791.883,3.09,3.09,0,0,1,1.033,2.483V14.8a4.546,4.546,0,0,0,.378,2.048V17Zm-2.1-1.767a2.188,2.188,0,0,0,1.037-.25,1.645,1.645,0,0,0,.7-.672V12.676h-.949q-1.907,0-2.03,1.318l-.009.149a1.017,1.017,0,0,0,.334.782A1.3,1.3,0,0,0,113.723,15.233ZM122.3,7.49l.079,1.1a3.32,3.32,0,0,1,2.733-1.274,2.759,2.759,0,0,1,2.25.888,4.142,4.142,0,0,1,.756,2.654V17h-2.54V10.918a1.648,1.648,0,0,0-.352-1.173,1.574,1.574,0,0,0-1.169-.365,1.747,1.747,0,0,0-1.608.914V17h-2.54V7.49Zm12.894,6.882a.818.818,0,0,0-.461-.734,5.241,5.241,0,0,0-1.481-.479q-3.393-.712-3.393-2.883a2.613,2.613,0,0,1,1.05-2.114,4.237,4.237,0,0,1,2.747-.848,4.56,4.56,0,0,1,2.9.853,2.687,2.687,0,0,1,1.085,2.215H135.1a1.229,1.229,0,0,0-.352-.9,1.488,1.488,0,0,0-1.1-.356,1.52,1.52,0,0,0-.993.29.916.916,0,0,0-.352.738.783.783,0,0,0,.4.681,4.114,4.114,0,0,0,1.349.448,11.019,11.019,0,0,1,1.6.426,2.628,2.628,0,0,1,2.013,2.558,2.481,2.481,0,0,1-1.116,2.1,4.815,4.815,0,0,1-2.883.8,5.029,5.029,0,0,1-2.123-.426,3.561,3.561,0,0,1-1.455-1.169,2.716,2.716,0,0,1-.527-1.6h2.408a1.326,1.326,0,0,0,.5,1.037,1.987,1.987,0,0,0,1.248.36,1.839,1.839,0,0,0,1.1-.277A.861.861,0,0,0,135.195,14.372Zm12.665-2.039a5.7,5.7,0,0,1-1,3.52,3.2,3.2,0,0,1-2.694,1.323,2.963,2.963,0,0,1-2.329-1v4.482H139.3V7.49h2.355l.088.932a2.985,2.985,0,0,1,2.408-1.107,3.22,3.22,0,0,1,2.733,1.3,5.858,5.858,0,0,1,.976,3.586Zm-2.54-.185a3.743,3.743,0,0,0-.47-2.048,1.532,1.532,0,0,0-1.367-.721,1.663,1.663,0,0,0-1.644.914v3.894a1.692,1.692,0,0,0,1.661.94Q145.32,15.128,145.32,12.148Zm3.718.009a5.64,5.64,0,0,1,.545-2.522,3.989,3.989,0,0,1,1.569-1.714,4.577,4.577,0,0,1,2.377-.606,4.33,4.33,0,0,1,3.142,1.178,4.727,4.727,0,0,1,1.358,3.2l.018.65a4.97,4.97,0,0,1-1.222,3.511,4.735,4.735,0,0,1-6.561,0,5.058,5.058,0,0,1-1.226-3.586Zm2.54.18a3.555,3.555,0,0,0,.51,2.073,1.831,1.831,0,0,0,2.9.009,3.89,3.89,0,0,0,.519-2.267,3.519,3.519,0,0,0-.519-2.06,1.686,1.686,0,0,0-1.459-.731,1.658,1.658,0,0,0-1.441.726A3.955,3.955,0,0,0,151.578,12.338Zm13.377-2.465a6.9,6.9,0,0,0-.914-.07,1.86,1.86,0,0,0-1.89.976V17h-2.54V7.49h2.4l.07,1.134a2.354,2.354,0,0,1,2.118-1.31,2.662,2.662,0,0,1,.791.114Zm4.7-4.72V7.49h1.626V9.354h-1.626V14.1a1.133,1.133,0,0,0,.2.756,1.015,1.015,0,0,0,.773.229,4.051,4.051,0,0,0,.747-.062v1.925a5.229,5.229,0,0,1-1.538.229,2.425,2.425,0,0,1-2.725-2.7V9.354h-1.389V7.49h1.389V5.152Zm7.418,12.023a4.668,4.668,0,0,1-3.406-1.283,4.561,4.561,0,0,1-1.314-3.419v-.246a5.745,5.745,0,0,1,.554-2.562,4.064,4.064,0,0,1,1.569-1.74,4.4,4.4,0,0,1,2.316-.611,3.947,3.947,0,0,1,3.072,1.23,5,5,0,0,1,1.121,3.489v1.037H174.93a2.36,2.36,0,0,0,.743,1.494,2.245,2.245,0,0,0,1.569.563,2.742,2.742,0,0,0,2.294-1.063l1.248,1.4a3.813,3.813,0,0,1-1.547,1.261A5.075,5.075,0,0,1,177.075,17.176Zm-.29-7.813a1.587,1.587,0,0,0-1.226.512,2.651,2.651,0,0,0-.6,1.466h3.533v-.2a1.891,1.891,0,0,0-.457-1.311A1.638,1.638,0,0,0,176.785,9.362Z" transform="translate(394 2026)" fill="#12263f"/>
    <path id="Trazado_218763" data-name="Trazado 218763" d="M26.875,13.643a1.353,1.353,0,0,0-.527-1.147,6.917,6.917,0,0,0-1.9-.844,13.458,13.458,0,0,1-2.171-.875A3.547,3.547,0,0,1,20.1,7.6a3.09,3.09,0,0,1,.584-1.85,3.812,3.812,0,0,1,1.679-1.27,6.318,6.318,0,0,1,2.457-.457,5.751,5.751,0,0,1,2.443.5,3.891,3.891,0,0,1,1.666,1.4,3.668,3.668,0,0,1,.593,2.057H26.884a1.726,1.726,0,0,0-.554-1.367,2.276,2.276,0,0,0-1.556-.488,2.432,2.432,0,0,0-1.5.409,1.289,1.289,0,0,0-.536,1.077,1.235,1.235,0,0,0,.628,1.046,7.1,7.1,0,0,0,1.85.791,7.994,7.994,0,0,1,3.278,1.679,3.343,3.343,0,0,1,1.028,2.5,3.08,3.08,0,0,1-1.257,2.606,5.5,5.5,0,0,1-3.384.945,6.534,6.534,0,0,1-2.689-.541,4.256,4.256,0,0,1-1.85-1.481,3.793,3.793,0,0,1-.637-2.18h2.646q0,2.118,2.531,2.118a2.462,2.462,0,0,0,1.468-.382A1.244,1.244,0,0,0,26.875,13.643Zm8.64,3.533a4.668,4.668,0,0,1-3.406-1.283A4.561,4.561,0,0,1,30.8,12.474v-.246a5.745,5.745,0,0,1,.554-2.562,4.064,4.064,0,0,1,1.569-1.74,4.4,4.4,0,0,1,2.316-.611,3.947,3.947,0,0,1,3.072,1.23,5,5,0,0,1,1.121,3.489v1.037H33.371a2.36,2.36,0,0,0,.743,1.494,2.245,2.245,0,0,0,1.569.563,2.742,2.742,0,0,0,2.294-1.063l1.248,1.4a3.813,3.813,0,0,1-1.547,1.261A5.075,5.075,0,0,1,35.515,17.176Zm-.29-7.813A1.587,1.587,0,0,0,34,9.874a2.651,2.651,0,0,0-.6,1.466H36.93v-.2a1.891,1.891,0,0,0-.457-1.311A1.638,1.638,0,0,0,35.225,9.362ZM40.5,12.175A5.573,5.573,0,0,1,41.54,8.65a3.375,3.375,0,0,1,2.808-1.336,2.96,2.96,0,0,1,2.435,1.072l.105-.9h2.3v9.193a4.064,4.064,0,0,1-.567,2.171,3.641,3.641,0,0,1-1.6,1.406,5.608,5.608,0,0,1-2.408.483,5.215,5.215,0,0,1-2.039-.417,3.619,3.619,0,0,1-1.5-1.077L42.2,17.7a2.975,2.975,0,0,0,2.3,1.063,2.178,2.178,0,0,0,1.573-.541,2.027,2.027,0,0,0,.563-1.534v-.51a2.938,2.938,0,0,1-2.312.993,3.366,3.366,0,0,1-2.773-1.34A5.572,5.572,0,0,1,40.5,12.28Zm2.54.189a3.47,3.47,0,0,0,.519,2.029,1.65,1.65,0,0,0,1.424.735,1.764,1.764,0,0,0,1.661-.871V10.251A1.76,1.76,0,0,0,45,9.38a1.66,1.66,0,0,0-1.437.748A3.911,3.911,0,0,0,43.039,12.364Zm13.8,3.669a3.185,3.185,0,0,1-2.6,1.143A3,3,0,0,1,51.9,16.3a3.752,3.752,0,0,1-.822-2.575V7.49h2.54v6.151q0,1.487,1.354,1.487a1.834,1.834,0,0,0,1.775-.9V7.49H59.3V17H56.908Zm9.721-6.161a6.9,6.9,0,0,0-.914-.07,1.86,1.86,0,0,0-1.89.976V17h-2.54V7.49h2.4l.07,1.134A2.354,2.354,0,0,1,65.8,7.314a2.662,2.662,0,0,1,.791.114Zm.51,2.285a5.64,5.64,0,0,1,.545-2.522,3.989,3.989,0,0,1,1.569-1.714,4.577,4.577,0,0,1,2.377-.606A4.33,4.33,0,0,1,74.7,8.492a4.727,4.727,0,0,1,1.358,3.2l.018.65a4.97,4.97,0,0,1-1.222,3.511,4.735,4.735,0,0,1-6.561,0,5.058,5.058,0,0,1-1.226-3.586Zm2.54.18a3.555,3.555,0,0,0,.51,2.073,1.831,1.831,0,0,0,2.9.009,3.89,3.89,0,0,0,.519-2.267,3.519,3.519,0,0,0-.519-2.06,1.686,1.686,0,0,0-1.459-.731,1.658,1.658,0,0,0-1.441.726A3.955,3.955,0,0,0,69.608,12.338Zm12.12-.163a5.731,5.731,0,0,1,1-3.542,3.237,3.237,0,0,1,2.729-1.318,2.913,2.913,0,0,1,2.294,1.037V3.5H90.3V17H88l-.123-1.011a2.989,2.989,0,0,1-2.443,1.187,3.228,3.228,0,0,1-2.694-1.323A5.916,5.916,0,0,1,81.728,12.175Zm2.54.189a3.754,3.754,0,0,0,.466,2.051,1.517,1.517,0,0,0,1.354.713,1.7,1.7,0,0,0,1.661-.995V10.375A1.675,1.675,0,0,0,86.1,9.38Q84.268,9.38,84.268,12.364Zm12.375,4.812a4.668,4.668,0,0,1-3.406-1.283,4.561,4.561,0,0,1-1.314-3.419v-.246a5.745,5.745,0,0,1,.554-2.562,4.064,4.064,0,0,1,1.569-1.74,4.4,4.4,0,0,1,2.316-.611,3.947,3.947,0,0,1,3.072,1.23,5,5,0,0,1,1.121,3.489v1.037H94.5a2.36,2.36,0,0,0,.743,1.494,2.245,2.245,0,0,0,1.569.563A2.742,2.742,0,0,0,99.1,14.064l1.248,1.4a3.813,3.813,0,0,1-1.547,1.261A5.075,5.075,0,0,1,96.643,17.176Zm-.29-7.813a1.587,1.587,0,0,0-1.226.512,2.651,2.651,0,0,0-.6,1.466h3.533v-.2A1.891,1.891,0,0,0,97.6,9.826,1.638,1.638,0,0,0,96.353,9.362Zm15.275,5.01a.818.818,0,0,0-.461-.734,5.241,5.241,0,0,0-1.481-.479q-3.393-.712-3.393-2.883a2.613,2.613,0,0,1,1.05-2.114,4.237,4.237,0,0,1,2.747-.848,4.56,4.56,0,0,1,2.9.853,2.687,2.687,0,0,1,1.085,2.215h-2.54a1.229,1.229,0,0,0-.352-.9,1.488,1.488,0,0,0-1.1-.356,1.52,1.52,0,0,0-.993.29.916.916,0,0,0-.352.738.783.783,0,0,0,.4.681,4.114,4.114,0,0,0,1.349.448,11.019,11.019,0,0,1,1.6.426,2.628,2.628,0,0,1,2.013,2.558,2.481,2.481,0,0,1-1.116,2.1,4.815,4.815,0,0,1-2.883.8,5.029,5.029,0,0,1-2.123-.426,3.561,3.561,0,0,1-1.455-1.169,2.716,2.716,0,0,1-.527-1.6H108.4a1.326,1.326,0,0,0,.5,1.037,1.987,1.987,0,0,0,1.248.36,1.839,1.839,0,0,0,1.1-.277A.861.861,0,0,0,111.628,14.372ZM121.244,17a2.821,2.821,0,0,1-.255-.853,3.073,3.073,0,0,1-2.4,1.028,3.376,3.376,0,0,1-2.316-.809,2.6,2.6,0,0,1-.918-2.039,2.687,2.687,0,0,1,1.121-2.32,5.529,5.529,0,0,1,3.239-.817h1.169v-.545a1.567,1.567,0,0,0-.338-1.055,1.331,1.331,0,0,0-1.068-.4,1.513,1.513,0,0,0-1.006.308,1.045,1.045,0,0,0-.365.844h-2.54a2.551,2.551,0,0,1,.51-1.529,3.37,3.37,0,0,1,1.441-1.1,5.253,5.253,0,0,1,2.092-.4A4.15,4.15,0,0,1,122.4,8.2a3.09,3.09,0,0,1,1.033,2.483V14.8a4.546,4.546,0,0,0,.378,2.048V17Zm-2.1-1.767a2.188,2.188,0,0,0,1.037-.25,1.645,1.645,0,0,0,.7-.672V12.676h-.949q-1.907,0-2.03,1.318l-.009.149a1.017,1.017,0,0,0,.334.782A1.3,1.3,0,0,0,119.143,15.233ZM128.064,17h-2.549V3.5h2.549Zm7.787-.967a3.185,3.185,0,0,1-2.6,1.143,3,3,0,0,1-2.333-.879,3.752,3.752,0,0,1-.822-2.575V7.49h2.54v6.151q0,1.487,1.354,1.487a1.834,1.834,0,0,0,1.775-.9V7.49h2.549V17h-2.391Zm3.981-3.858a5.731,5.731,0,0,1,1-3.542,3.237,3.237,0,0,1,2.729-1.318,2.913,2.913,0,0,1,2.294,1.037V3.5H148.4V17h-2.294l-.123-1.011a2.989,2.989,0,0,1-2.443,1.187,3.228,3.228,0,0,1-2.694-1.323A5.916,5.916,0,0,1,139.833,12.175Zm2.54.189a3.754,3.754,0,0,0,.466,2.051,1.517,1.517,0,0,0,1.354.713,1.7,1.7,0,0,0,1.661-.995V10.375a1.675,1.675,0,0,0-1.644-.995Q142.373,9.38,142.373,12.364Z" transform="translate(819 2026)" fill="#12263f"/>
    <path id="Trazado_218764" data-name="Trazado 218764" d="M25.232,13.643A1.353,1.353,0,0,0,24.7,12.5a6.917,6.917,0,0,0-1.9-.844,13.458,13.458,0,0,1-2.171-.875A3.547,3.547,0,0,1,18.456,7.6a3.09,3.09,0,0,1,.584-1.85,3.812,3.812,0,0,1,1.679-1.27,6.318,6.318,0,0,1,2.457-.457,5.751,5.751,0,0,1,2.443.5,3.891,3.891,0,0,1,1.666,1.4,3.668,3.668,0,0,1,.593,2.057H25.241a1.726,1.726,0,0,0-.554-1.367,2.276,2.276,0,0,0-1.556-.488,2.432,2.432,0,0,0-1.5.409,1.289,1.289,0,0,0-.536,1.077,1.235,1.235,0,0,0,.628,1.046,7.1,7.1,0,0,0,1.85.791,7.994,7.994,0,0,1,3.278,1.679,3.343,3.343,0,0,1,1.028,2.5,3.08,3.08,0,0,1-1.257,2.606,5.5,5.5,0,0,1-3.384.945,6.534,6.534,0,0,1-2.689-.541,4.256,4.256,0,0,1-1.85-1.481,3.793,3.793,0,0,1-.637-2.18h2.646q0,2.118,2.531,2.118A2.462,2.462,0,0,0,24.7,14.71,1.244,1.244,0,0,0,25.232,13.643Zm8.64,3.533a4.668,4.668,0,0,1-3.406-1.283,4.561,4.561,0,0,1-1.314-3.419v-.246a5.745,5.745,0,0,1,.554-2.562,4.064,4.064,0,0,1,1.569-1.74,4.4,4.4,0,0,1,2.316-.611,3.947,3.947,0,0,1,3.072,1.23,5,5,0,0,1,1.121,3.489v1.037H31.727a2.36,2.36,0,0,0,.743,1.494,2.245,2.245,0,0,0,1.569.563,2.742,2.742,0,0,0,2.294-1.063l1.248,1.4a3.813,3.813,0,0,1-1.547,1.261A5.075,5.075,0,0,1,33.872,17.176Zm-.29-7.813a1.587,1.587,0,0,0-1.226.512,2.651,2.651,0,0,0-.6,1.466h3.533v-.2a1.891,1.891,0,0,0-.457-1.311A1.638,1.638,0,0,0,33.582,9.362Zm5.273,2.813A5.573,5.573,0,0,1,39.9,8.65,3.375,3.375,0,0,1,42.7,7.314a2.96,2.96,0,0,1,2.435,1.072l.105-.9h2.3v9.193a4.064,4.064,0,0,1-.567,2.171,3.641,3.641,0,0,1-1.6,1.406,5.608,5.608,0,0,1-2.408.483,5.215,5.215,0,0,1-2.039-.417,3.619,3.619,0,0,1-1.5-1.077L40.56,17.7a2.975,2.975,0,0,0,2.3,1.063,2.178,2.178,0,0,0,1.573-.541A2.027,2.027,0,0,0,45,16.692v-.51a2.938,2.938,0,0,1-2.312.993,3.366,3.366,0,0,1-2.773-1.34,5.572,5.572,0,0,1-1.059-3.555Zm2.54.189a3.47,3.47,0,0,0,.519,2.029,1.65,1.65,0,0,0,1.424.735A1.764,1.764,0,0,0,45,14.256V10.251a1.76,1.76,0,0,0-1.644-.871,1.66,1.66,0,0,0-1.437.748A3.911,3.911,0,0,0,41.4,12.364Zm13.8,3.669a3.185,3.185,0,0,1-2.6,1.143,3,3,0,0,1-2.333-.879,3.752,3.752,0,0,1-.822-2.575V7.49h2.54v6.151q0,1.487,1.354,1.487a1.834,1.834,0,0,0,1.775-.9V7.49h2.549V17H55.264Zm9.721-6.161A6.9,6.9,0,0,0,64,9.8a1.86,1.86,0,0,0-1.89.976V17h-2.54V7.49h2.4l.07,1.134a2.354,2.354,0,0,1,2.118-1.31,2.662,2.662,0,0,1,.791.114Zm.51,2.285a5.64,5.64,0,0,1,.545-2.522,3.989,3.989,0,0,1,1.569-1.714,4.577,4.577,0,0,1,2.377-.606,4.33,4.33,0,0,1,3.142,1.178,4.727,4.727,0,0,1,1.358,3.2l.018.65a4.97,4.97,0,0,1-1.222,3.511,4.735,4.735,0,0,1-6.561,0,5.058,5.058,0,0,1-1.226-3.586Zm2.54.18a3.555,3.555,0,0,0,.51,2.073,1.831,1.831,0,0,0,2.9.009,3.89,3.89,0,0,0,.519-2.267,3.519,3.519,0,0,0-.519-2.06,1.686,1.686,0,0,0-1.459-.731,1.658,1.658,0,0,0-1.441.726A3.955,3.955,0,0,0,67.964,12.338Zm12.12-.163a5.731,5.731,0,0,1,1-3.542,3.237,3.237,0,0,1,2.729-1.318A2.913,2.913,0,0,1,86.1,8.352V3.5h2.549V17H86.36l-.123-1.011a2.989,2.989,0,0,1-2.443,1.187A3.228,3.228,0,0,1,81.1,15.853,5.916,5.916,0,0,1,80.084,12.175Zm2.54.189a3.754,3.754,0,0,0,.466,2.051,1.517,1.517,0,0,0,1.354.713,1.7,1.7,0,0,0,1.661-.995V10.375a1.675,1.675,0,0,0-1.644-.995Q82.625,9.38,82.625,12.364ZM95,17.176a4.668,4.668,0,0,1-3.406-1.283,4.561,4.561,0,0,1-1.314-3.419v-.246a5.745,5.745,0,0,1,.554-2.562A4.064,4.064,0,0,1,92.4,7.925a4.4,4.4,0,0,1,2.316-.611,3.947,3.947,0,0,1,3.072,1.23,5,5,0,0,1,1.121,3.489v1.037H92.855a2.36,2.36,0,0,0,.743,1.494,2.245,2.245,0,0,0,1.569.563,2.742,2.742,0,0,0,2.294-1.063l1.248,1.4a3.813,3.813,0,0,1-1.547,1.261A5.075,5.075,0,0,1,95,17.176Zm-.29-7.813a1.587,1.587,0,0,0-1.226.512,2.651,2.651,0,0,0-.6,1.466h3.533v-.2a1.891,1.891,0,0,0-.457-1.311A1.638,1.638,0,0,0,94.709,9.362ZM108.394,13.9l1.767-6.407h2.654L109.607,17h-2.426l-3.208-9.51h2.654Zm8.218,3.1h-2.549V7.49h2.549Zm-2.7-11.971a1.251,1.251,0,0,1,.382-.94,1.648,1.648,0,0,1,2.079,0,1.244,1.244,0,0,1,.387.94,1.247,1.247,0,0,1-.391.949,1.629,1.629,0,0,1-2.065,0A1.247,1.247,0,0,1,113.914,5.029ZM124.214,17a2.821,2.821,0,0,1-.255-.853,3.073,3.073,0,0,1-2.4,1.028,3.376,3.376,0,0,1-2.316-.809,2.6,2.6,0,0,1-.918-2.039,2.687,2.687,0,0,1,1.121-2.32,5.529,5.529,0,0,1,3.239-.817h1.169v-.545a1.567,1.567,0,0,0-.338-1.055,1.331,1.331,0,0,0-1.068-.4,1.513,1.513,0,0,0-1.006.308,1.045,1.045,0,0,0-.365.844h-2.54a2.551,2.551,0,0,1,.51-1.529,3.37,3.37,0,0,1,1.441-1.1,5.253,5.253,0,0,1,2.092-.4,4.15,4.15,0,0,1,2.791.883,3.09,3.09,0,0,1,1.033,2.483V14.8a4.546,4.546,0,0,0,.378,2.048V17Zm-2.1-1.767a2.188,2.188,0,0,0,1.037-.25,1.645,1.645,0,0,0,.7-.672V12.676H122.9q-1.907,0-2.03,1.318l-.009.149a1.017,1.017,0,0,0,.334.782A1.3,1.3,0,0,0,122.114,15.233Zm8.93-7.743V17.519a3.4,3.4,0,0,1-.835,2.448,3.174,3.174,0,0,1-2.408.875,5.165,5.165,0,0,1-1.257-.149V18.679a4.768,4.768,0,0,0,.8.079q1.151,0,1.151-1.222V7.49Zm-2.751-2.461a1.251,1.251,0,0,1,.382-.94,1.654,1.654,0,0,1,2.083,0,1.251,1.251,0,0,1,.382.94,1.247,1.247,0,0,1-.391.949,1.629,1.629,0,0,1-2.065,0A1.247,1.247,0,0,1,128.292,5.029Zm9.114,12.146A4.668,4.668,0,0,1,134,15.893a4.561,4.561,0,0,1-1.314-3.419v-.246a5.745,5.745,0,0,1,.554-2.562,4.064,4.064,0,0,1,1.569-1.74,4.4,4.4,0,0,1,2.316-.611,3.947,3.947,0,0,1,3.072,1.23,5,5,0,0,1,1.121,3.489v1.037h-6.056A2.36,2.36,0,0,0,136,14.565a2.245,2.245,0,0,0,1.569.563,2.742,2.742,0,0,0,2.294-1.063l1.248,1.4a3.813,3.813,0,0,1-1.547,1.261A5.075,5.075,0,0,1,137.407,17.176Zm-.29-7.813a1.587,1.587,0,0,0-1.226.512,2.651,2.651,0,0,0-.6,1.466h3.533v-.2a1.891,1.891,0,0,0-.457-1.311A1.638,1.638,0,0,0,137.117,9.362Zm10.793,5.01a.818.818,0,0,0-.461-.734,5.241,5.241,0,0,0-1.481-.479q-3.393-.712-3.393-2.883a2.613,2.613,0,0,1,1.05-2.114,4.237,4.237,0,0,1,2.747-.848,4.56,4.56,0,0,1,2.9.853,2.687,2.687,0,0,1,1.085,2.215h-2.54a1.229,1.229,0,0,0-.352-.9,1.488,1.488,0,0,0-1.1-.356,1.52,1.52,0,0,0-.993.29.916.916,0,0,0-.352.738.783.783,0,0,0,.4.681,4.114,4.114,0,0,0,1.349.448,11.019,11.019,0,0,1,1.6.426,2.628,2.628,0,0,1,2.013,2.558,2.481,2.481,0,0,1-1.116,2.1,4.815,4.815,0,0,1-2.883.8,5.029,5.029,0,0,1-2.123-.426,3.561,3.561,0,0,1-1.455-1.169,2.716,2.716,0,0,1-.527-1.6h2.408a1.326,1.326,0,0,0,.5,1.037,1.987,1.987,0,0,0,1.248.36,1.839,1.839,0,0,0,1.1-.277A.861.861,0,0,0,147.91,14.372Z" transform="translate(1231.712 2026)" fill="#12263f"/>
  </g>
</svg>
