<svg id="Fill_out-pana" data-name="Fill out-pana" xmlns="http://www.w3.org/2000/svg" width="348.26" height="329.582" viewBox="0 0 348.26 329.582">
  <g id="freepik--background-simple--inject-2" transform="translate(10.86)">
    <path id="Trazado_218087" data-name="Trazado 218087" d="M355.577,84.191l-2-3.289c-16.815-27.713-47.218-44.42-79.28-42.391A84.905,84.905,0,0,0,262,40.193c-29.142,6.24-54.5,28.281-65.016,56.509-6.148,16.6-7.908,35.721-19.643,48.893-15.27,17.153-41.192,17.676-63.979,16.977s-48.732-.1-63.925,17.115c-9.514,10.759-12.542,26.13-11.774,40.555,2.052,38.249,28.666,72.433,62.573,89.424s73.777,18.514,110.851,11.044c51.982-10.475,101.344-39.233,131.039-83.645S379.332,132.138,355.577,84.191Z" transform="translate(-37.552 -38.344)" fill="#f5f5f5"/>
    <circle id="Elipse_7180" data-name="Elipse 7180" cx="14.325" cy="14.325" r="14.325" transform="translate(66.047 21.325) rotate(-45)" fill="#f5f5f5"/>
    <circle id="Elipse_7181" data-name="Elipse 7181" cx="14.325" cy="14.325" r="14.325" transform="translate(207.176 299.666) rotate(-42.65)" fill="#f5f5f5"/>
  </g>
  <g id="freepik--Table--inject-2" transform="translate(0 329.267)">
    <path id="Trazado_218088" data-name="Trazado 218088" d="M367.238,466.882h4.442v.069c-17.292.085-87.711.154-171.9.154l-124.715-.061-37.788-.092H27l10.275-.038,37.788-.061,124.715-.061c84.191,0,154.61.069,171.9.154v.008h-3.343C367.6,466.9,367.238,466.882,367.238,466.882Z" transform="translate(-23.42 -466.79)" fill="#263238"/>
  </g>
  <g id="freepik--Form--inject-2" transform="translate(142.621 30.553)">
    <rect id="Rectángulo_45261" data-name="Rectángulo 45261" width="172.247" height="243.043" transform="translate(0.2 0.208)" fill="#fff"/>
    <path id="Trazado_218089" data-name="Trazado 218089" d="M381.447,321.35c0-1.622-.077-99.469-.184-243.043l.184.177H209.215l.2-.2c0,91.077,0,175.3-.038,243.043l-.161-.161,172.247.161-172.247.161H209V78.1H381.632v.184C381.524,221.881,381.447,319.729,381.447,321.35Z" transform="translate(-209 -78.1)" fill="#263238"/>
    <rect id="Rectángulo_45262" data-name="Rectángulo 45262" width="73.532" height="16.861" rx="6.69" transform="translate(11.797 161.573)" fill="#f5f5f5"/>
    <rect id="Rectángulo_45263" data-name="Rectángulo 45263" width="71.902" height="16.861" rx="6.69" transform="translate(90.155 161.573)" fill="#f5f5f5"/>
    <rect id="Rectángulo_45264" data-name="Rectángulo 45264" width="151.62" height="16.861" rx="6.69" transform="translate(11.451 196.125)" fill="#f5f5f5"/>
    <path id="Trazado_218090" data-name="Trazado 218090" d="M258.72,279.45c0,.108-7.1.2-15.87.2s-15.87-.092-15.87-.2,7.1-.2,15.87-.2S258.72,279.342,258.72,279.45Z" transform="translate(-213.162 -124.663)" fill="#263238"/>
    <path id="Trazado_218091" data-name="Trazado 218091" d="M358.47,279.45c0,.108-5.595.2-12.5.2s-12.5-.092-12.5-.2,5.595-.2,12.5-.2S358.47,279.342,358.47,279.45Z" transform="translate(-237.813 -124.663)" fill="#263238"/>
    <path id="Trazado_218092" data-name="Trazado 218092" d="M278.99,324.19c0,.108-11.528.2-25.745.2s-25.745-.092-25.745-.2,11.528-.2,25.745-.2S278.99,324.082,278.99,324.19Z" transform="translate(-213.282 -135.02)" fill="#263238"/>
    <rect id="Rectángulo_45265" data-name="Rectángulo 45265" width="154.326" height="18.429" rx="6.51" transform="translate(8.746 123.293)" fill="#e0e0e0"/>
    <path id="Trazado_218093" data-name="Trazado 218093" d="M345.136,250.46c0,.115-13.695.2-30.579.2s-30.587-.085-30.587-.2,13.695-.2,30.587-.2S345.136,250.352,345.136,250.46Z" transform="translate(-226.354 -117.952)" fill="#263238"/>
    <rect id="Rectángulo_45266" data-name="Rectángulo 45266" width="154.326" height="18.429" rx="6.51" transform="translate(8.746 11.243)" fill="#e0e0e0"/>
    <path id="Trazado_218094" data-name="Trazado 218094" d="M345.136,104.66c0,.108-13.695.2-30.579.2s-30.587-.092-30.587-.2,13.695-.2,30.587-.2S345.136,104.545,345.136,104.66Z" transform="translate(-226.354 -84.202)" fill="#263238"/>
    <path id="Trazado_218095" data-name="Trazado 218095" d="M381.459,122.45c0,.115-38.595.208-86.2.208s-86.212-.092-86.212-.208,38.595-.2,86.212-.2S381.459,122.342,381.459,122.45Z" transform="translate(-209.012 -88.32)" fill="#ebebeb"/>
    <path id="Trazado_218096" data-name="Trazado 218096" d="M381.459,228.54c0,.115-38.595.2-86.2.2s-86.212-.085-86.212-.2,38.595-.2,86.212-.2S381.459,228.432,381.459,228.54Z" transform="translate(-209.012 -112.878)" fill="#ebebeb"/>
    <rect id="Rectángulo_45267" data-name="Rectángulo 45267" width="73.532" height="16.861" rx="6.69" transform="translate(11.797 52.613)" fill="#f5f5f5"/>
    <rect id="Rectángulo_45268" data-name="Rectángulo 45268" width="71.902" height="16.861" rx="6.69" transform="translate(90.155 52.613)" fill="#f5f5f5"/>
    <rect id="Rectángulo_45269" data-name="Rectángulo 45269" width="151.62" height="16.861" rx="6.69" transform="translate(11.451 87.165)" fill="#f5f5f5"/>
    <path id="Trazado_218097" data-name="Trazado 218097" d="M258.72,137.67c0,.108-7.1.2-15.87.2s-15.87-.092-15.87-.2,7.1-.2,15.87-.2S258.72,137.562,258.72,137.67Z" transform="translate(-213.162 -91.843)" fill="#263238"/>
    <path id="Trazado_218098" data-name="Trazado 218098" d="M358.47,137.67c0,.108-5.595.2-12.5.2s-12.5-.092-12.5-.2,5.595-.2,12.5-.2S358.47,137.562,358.47,137.67Z" transform="translate(-237.813 -91.843)" fill="#263238"/>
    <path id="Trazado_218099" data-name="Trazado 218099" d="M278.99,182.41c0,.108-11.528.2-25.745.2s-25.745-.092-25.745-.2,11.528-.2,25.745-.2S278.99,182.3,278.99,182.41Z" transform="translate(-213.282 -102.2)" fill="#263238"/>
    <path id="Trazado_218100" data-name="Trazado 218100" d="M399.142,368.51c0,.115-11.243.2-25.115.2s-25.107-.085-25.107-.2,11.236-.2,25.107-.2S399.142,368.4,399.142,368.51Z" transform="translate(-241.389 -145.279)" fill="#263238"/>
    <path id="Trazado_218101" data-name="Trazado 218101" d="M288.611,157.952a8.662,8.662,0,0,1-1.191.3,14.087,14.087,0,0,1-8.876-1.268,4.964,4.964,0,0,1-1.36-1.037,3.2,3.2,0,0,1-.822-1.637,2.413,2.413,0,0,1,.392-1.906,1.844,1.844,0,0,1,1.944-.615,1.383,1.383,0,0,1,.853.715,1.775,1.775,0,0,1,.146,1.122,4.042,4.042,0,0,1-1.061,1.975,9.737,9.737,0,0,1-3.843,2.636,9.306,9.306,0,0,1-4.98.446,5.5,5.5,0,0,1-2.436-1.068,2.9,2.9,0,0,1-1.184-2.459,2.675,2.675,0,0,1,.53-1.345,2.136,2.136,0,0,1,1.214-.845,1.537,1.537,0,0,1,1.437.476,2.16,2.16,0,0,1,.515,1.422,2.975,2.975,0,0,1-.353,1.46,3.328,3.328,0,0,1-1.045,1.1,9.338,9.338,0,0,1-2.751,1.1,12.057,12.057,0,0,1-5.979.638,5.6,5.6,0,0,1-2.751-1.491,3.958,3.958,0,0,1-1.2-2.943,2.636,2.636,0,0,1,.838-1.867,1.914,1.914,0,0,1,2.029-.215,1.537,1.537,0,0,1,.853,1.806,3,3,0,0,1-1.2,1.591,15.693,15.693,0,0,1-6.917,2.628,7.094,7.094,0,0,1-3.6-.315,3.635,3.635,0,0,1-2.213-2.721,2.467,2.467,0,0,1,1.829-2.759,1.721,1.721,0,0,1,1.645.584,2.659,2.659,0,0,1,.576,1.6,3.213,3.213,0,0,1-.354,1.622,3.781,3.781,0,0,1-1.091,1.191,8.453,8.453,0,0,1-2.82,1.184,9.409,9.409,0,0,1-5.626.2,4.811,4.811,0,0,1-2.136-1.537,3.52,3.52,0,0,1-.769-2.375,3.32,3.32,0,0,1,1.03-2.083,2.252,2.252,0,0,1,2.052-.615h.077v.077a5.956,5.956,0,0,1-1.537,4.089,6.2,6.2,0,0,1-2.7,1.837,5.018,5.018,0,0,1-2.014.261c-.461-.069-.692-.131-.692-.131a5.334,5.334,0,0,0,2.667-.246,6.148,6.148,0,0,0,2.605-1.829,5.818,5.818,0,0,0,1.414-3.966l.085.1a2.06,2.06,0,0,0-1.837.576,3.074,3.074,0,0,0-.93,1.929,3.853,3.853,0,0,0,2.736,3.627,9.611,9.611,0,0,0,5.441-.238,8.162,8.162,0,0,0,2.705-1.145,3.466,3.466,0,0,0,.984-1.076,2.82,2.82,0,0,0,.307-1.445,2.305,2.305,0,0,0-.492-1.376,1.36,1.36,0,0,0-1.306-.469,2.113,2.113,0,0,0-1.537,2.359,3.259,3.259,0,0,0,1.99,2.413,6.709,6.709,0,0,0,3.412.284,15.248,15.248,0,0,0,6.725-2.567,2.667,2.667,0,0,0,1.053-1.36,1.145,1.145,0,0,0-.646-1.353,1.537,1.537,0,0,0-1.591.161,2.229,2.229,0,0,0-.7,1.583,3.558,3.558,0,0,0,1.084,2.636,5.211,5.211,0,0,0,2.551,1.383,11.722,11.722,0,0,0,5.787-.622,9.177,9.177,0,0,0,2.636-1.045,2.921,2.921,0,0,0,.93-.961,2.62,2.62,0,0,0,.307-1.268,1.783,1.783,0,0,0-.415-1.176,1.137,1.137,0,0,0-1.076-.361,2.16,2.16,0,0,0-1.453,1.86,2.544,2.544,0,0,0,1.091,2.129,5.249,5.249,0,0,0,2.305,1.007,9.015,9.015,0,0,0,4.8-.423,9.3,9.3,0,0,0,3.743-2.528,3.773,3.773,0,0,0,1-1.814,1.26,1.26,0,0,0-.769-1.537,1.537,1.537,0,0,0-1.645.515,2.167,2.167,0,0,0-.361,1.691,3.673,3.673,0,0,0,2.044,2.521,14.025,14.025,0,0,0,5.264,1.537,15.108,15.108,0,0,0,3.489-.123l.9-.169A2.053,2.053,0,0,1,288.611,157.952Z" transform="translate(-214.572 -95.141)" fill="#f67409"/>
    <path id="Trazado_218102" data-name="Trazado 218102" d="M388.906,156.87a5.148,5.148,0,0,1-.968.476,8.63,8.63,0,0,1-3.028.638,9.314,9.314,0,0,1-4.749-1.107,5.9,5.9,0,0,1-2.306-2.037,2.682,2.682,0,0,1-.415-1.668,2.305,2.305,0,0,1,.892-1.583,1.46,1.46,0,0,1,.938-.307,1.414,1.414,0,0,1,.93.392,2.306,2.306,0,0,1,.622,1.9,3.359,3.359,0,0,1-.968,1.821,7.823,7.823,0,0,1-1.675,1.283,9.991,9.991,0,0,1-4.2,1.345,8,8,0,0,1-4.611-.853,4.565,4.565,0,0,1-1.783-1.721,3.466,3.466,0,0,1-.407-1.23,3.151,3.151,0,0,1,2.021-3.143,1.775,1.775,0,0,1,1.383.138,2.144,2.144,0,0,1,.922,1.03,3.189,3.189,0,0,1-.1,2.7,5.61,5.61,0,0,1-1.829,2.014,10.137,10.137,0,0,1-10.5.63,7.977,7.977,0,0,1-2.167-1.614,3.658,3.658,0,0,1-1.076-2.467,2.436,2.436,0,0,1,1.476-2.19,1.476,1.476,0,0,1,1.383.161,2,2,0,0,1,.769,1.122,2.913,2.913,0,0,1-.515,2.49,7.769,7.769,0,0,1-1.775,1.706,10.821,10.821,0,0,1-8.661,1.891,5.818,5.818,0,0,1-3.52-2.106,3.236,3.236,0,0,1-.653-1.867,3.52,3.52,0,0,1,.461-1.844,2.305,2.305,0,0,1,1.422-1.13,2.006,2.006,0,0,1,1.675.377,3.074,3.074,0,0,1,1.137,2.82,3.789,3.789,0,0,1-1.36,2.306,5.01,5.01,0,0,1-2.006,1.014,9.744,9.744,0,0,1-3.074.192l-.769-.069a1.082,1.082,0,0,1-.269,0,1.192,1.192,0,0,1,.269,0h.807a10.391,10.391,0,0,0,3.074-.261,4.965,4.965,0,0,0,1.921-1.014,3.589,3.589,0,0,0,1.191-2.259,2.867,2.867,0,0,0-1.061-2.582,1.783,1.783,0,0,0-1.468-.315,2.083,2.083,0,0,0-1.237,1.014,3.074,3.074,0,0,0,.192,3.381,5.564,5.564,0,0,0,3.343,1.967,10.483,10.483,0,0,0,8.392-1.829,7.494,7.494,0,0,0,1.675-1.637,2.521,2.521,0,0,0,.453-2.167,1.6,1.6,0,0,0-.607-.907,1.091,1.091,0,0,0-1.03-.123,2.052,2.052,0,0,0-1.222,1.837,3.3,3.3,0,0,0,.976,2.19,7.755,7.755,0,0,0,2.067,1.537,9.922,9.922,0,0,0,5.126,1.1,9.63,9.63,0,0,0,4.949-1.714,5.187,5.187,0,0,0,1.737-1.829,2.82,2.82,0,0,0,.1-2.359,1.537,1.537,0,0,0-1.844-.961,2.774,2.774,0,0,0-1.752,2.736,3.012,3.012,0,0,0,.361,1.084,4.157,4.157,0,0,0,1.637,1.583,7.639,7.639,0,0,0,4.373.83,9.691,9.691,0,0,0,4.042-1.3,7.525,7.525,0,0,0,1.614-1.214,3.074,3.074,0,0,0,.891-1.645,2,2,0,0,0-.523-1.645,1.137,1.137,0,0,0-1.5-.069,2.067,2.067,0,0,0-.768,1.383,2.544,2.544,0,0,0,.369,1.537,5.772,5.772,0,0,0,2.206,1.96,9.153,9.153,0,0,0,4.611,1.153,9.314,9.314,0,0,0,3-.553C388.575,157.039,388.891,156.847,388.906,156.87Z" transform="translate(-239.683 -94.974)" fill="#f67409"/>
    <path id="Trazado_218103" data-name="Trazado 218103" d="M291.908,201.6a1.536,1.536,0,0,1-.292.146l-.884.4c-.769.346-1.929.853-3.443,1.422a28.127,28.127,0,0,1-5.7,1.537,21.78,21.78,0,0,1-3.689.223,12.419,12.419,0,0,1-4.1-.615,4.9,4.9,0,0,1-3.12-3.251,3.2,3.2,0,0,1,.307-2.452,2.767,2.767,0,0,1,2.121-1.429A2.359,2.359,0,0,1,275.308,199a3.627,3.627,0,0,1,.192,2.736,5.379,5.379,0,0,1-1.606,2.306,10.527,10.527,0,0,1-2.413,1.537,8.277,8.277,0,0,1-5.833.684,5.925,5.925,0,0,1-4.058-4.473,4.788,4.788,0,0,1,0-1.622,3.074,3.074,0,0,1,.661-1.537,2.052,2.052,0,0,1,1.476-.853,1.476,1.476,0,0,1,1.422.991,3.958,3.958,0,0,1-.569,3.266,9.9,9.9,0,0,1-2.152,2.551,9.1,9.1,0,0,1-12.043-.184,5.126,5.126,0,0,1-1.537-2.751,3.143,3.143,0,0,1,.1-1.6,3.274,3.274,0,0,1,.9-1.314,2.628,2.628,0,0,1,1.437-.669,1.891,1.891,0,0,1,1.537.469,2.928,2.928,0,0,1,.684,2.882,5.379,5.379,0,0,1-1.591,2.413,12.818,12.818,0,0,1-2.236,1.668,12.949,12.949,0,0,1-5.018,1.706,11.366,11.366,0,0,1-4.934-.438,5.456,5.456,0,0,1-2.029-1.222,3.789,3.789,0,0,1-1.1-1.983,3.458,3.458,0,0,1,.2-2.16,2.121,2.121,0,0,1,1.614-1.253,2.39,2.39,0,0,1,1.875.515,1.752,1.752,0,0,1,.592,1.706,2.667,2.667,0,0,1-.884,1.452,5.856,5.856,0,0,1-1.3.861,14.4,14.4,0,0,1-2.528.968,14.149,14.149,0,0,1-3.689.546,8.454,8.454,0,0,1-1.3-.054h1.3a15.164,15.164,0,0,0,3.643-.615,15.369,15.369,0,0,0,2.49-.991,5.571,5.571,0,0,0,1.245-.845,2.482,2.482,0,0,0,.769-1.337,1.537,1.537,0,0,0-.53-1.491,2.2,2.2,0,0,0-1.683-.446,1.86,1.86,0,0,0-1.406,1.122,3.166,3.166,0,0,0-.169,1.983,4.188,4.188,0,0,0,2.951,2.974,10.92,10.92,0,0,0,4.788.4,12.6,12.6,0,0,0,7.047-3.3,4.988,4.988,0,0,0,1.491-2.252,2.559,2.559,0,0,0-.584-2.505,1.821,1.821,0,0,0-2.444.215,2.9,2.9,0,0,0-.769,1.145,2.8,2.8,0,0,0-.085,1.406,4.78,4.78,0,0,0,1.453,2.536,8.715,8.715,0,0,0,11.528.161,9.269,9.269,0,0,0,2.067-2.452,4.411,4.411,0,0,0,.592-1.437,2.69,2.69,0,0,0-.046-1.483,1.107,1.107,0,0,0-1.038-.769,1.7,1.7,0,0,0-1.184.707,3.558,3.558,0,0,0-.576,2.828,5.549,5.549,0,0,0,3.781,4.173,7.916,7.916,0,0,0,5.564-.646c1.675-.807,3.282-1.975,3.843-3.643a3.282,3.282,0,0,0-.169-2.475,2.013,2.013,0,0,0-1.875-1.245,2.452,2.452,0,0,0-1.867,1.26,2.867,2.867,0,0,0-.284,2.213,4.611,4.611,0,0,0,2.92,3.074,12.1,12.1,0,0,0,4.012.63,21.47,21.47,0,0,0,3.65-.192,28.542,28.542,0,0,0,5.679-1.437c1.537-.546,2.674-1.03,3.466-1.345l.9-.369Z" transform="translate(-214.134 -105.758)" fill="#f67409"/>
  </g>
  <g id="freepik--Plant--inject-2" transform="translate(264.631 216.809)">
    <path id="Trazado_218104" data-name="Trazado 218104" d="M396.38,405.11s-17.676-20.35-24.362-40.731-3.5-18.014-3.5-18.014,9.007,19.766,15.847,29.319,19.021,23.563,19.021,23.563Z" transform="translate(-367.761 -326.435)" fill="#455a64"/>
    <path id="Trazado_218105" data-name="Trazado 218105" d="M409.041,350.384a1.03,1.03,0,0,0-1.914.653c1.076,7.155,3.4,23.932,3.32,34.814-.123,14.133,0,19.6,0,19.6h7.339s-1.306-29.2-2.974-38.134A60.126,60.126,0,0,0,409.041,350.384Z" transform="translate(-376.871 -327.265)" fill="#455a64"/>
    <path id="Trazado_218106" data-name="Trazado 218106" d="M414.85,402.309a78.1,78.1,0,0,0,6.056-21.972c.607-5.211-.477-12.242-2.083-21.626a57.2,57.2,0,0,1-.93-10.4,1.752,1.752,0,0,1,3.3-.822c.884,1.583,3.458,6.993,4.112,10.39,1.783,9.268,3.8,13.9,2.259,22.687s-7.216,22.333-7.216,22.333Z" transform="translate(-378.661 -326.502)" fill="#455a64"/>
    <path id="Trazado_218107" data-name="Trazado 218107" d="M423.463,399.51s19.42-41.723,20.75-47.917,5.918-20.45,6.456-19.643,1.353,8.338-2.152,16.953-18.444,51.882-18.444,51.882H423.44" transform="translate(-380.65 -323.111)" fill="#455a64"/>
    <path id="Trazado_218108" data-name="Trazado 218108" d="M401.895,401.139a3.74,3.74,0,0,1-.546-.369c-.346-.261-.868-.63-1.537-1.153a69.358,69.358,0,0,1-5.218-4.611,87.925,87.925,0,0,1-14.087-18.083,118.77,118.77,0,0,1-9.614-20.827c-.976-2.774-1.683-5.041-2.152-6.617-.23-.769-.4-1.4-.515-1.821a3.965,3.965,0,0,1-.146-.638,3.567,3.567,0,0,1,.231.615l.584,1.8c.515,1.537,1.268,3.843,2.306,6.563a126.121,126.121,0,0,0,9.7,20.75,91.521,91.521,0,0,0,13.933,18.083c2.083,2.067,3.843,3.635,5.118,4.688.615.538,1.122.922,1.452,1.207A4.619,4.619,0,0,1,401.895,401.139Z" transform="translate(-367.835 -326.607)" fill="#263238"/>
    <path id="Trazado_218109" data-name="Trazado 218109" d="M413.342,382.071a8.452,8.452,0,0,1-.169-1.23l-.361-3.343c-.307-2.82-.768-6.717-1.476-10.99s-1.453-8.131-2.044-10.905l-.707-3.289a6.234,6.234,0,0,1-.215-1.214,8.334,8.334,0,0,1,.369,1.176c.223.769.507,1.883.838,3.266.669,2.767,1.483,6.609,2.175,10.9s1.122,8.2,1.353,11.028c.115,1.422.192,2.567.231,3.366a7,7,0,0,1,.008,1.237Z" transform="translate(-377.161 -327.551)" fill="#263238"/>
    <path id="Trazado_218110" data-name="Trazado 218110" d="M420.174,347.34a2.7,2.7,0,0,1,.231.53c.146.392.338.907.584,1.537s.553,1.5.83,2.482.661,2.083.945,3.343l.484,1.96c.161.684.277,1.406.423,2.144.315,1.483.515,3.074.769,4.78a71.472,71.472,0,0,1-.769,22.056c-.361,1.66-.669,3.251-1.091,4.7-.2.73-.369,1.445-.576,2.113s-.423,1.314-.622,1.921c-.369,1.237-.822,2.306-1.184,3.266s-.7,1.768-1.007,2.421l-.692,1.537a2.543,2.543,0,0,1-.269.507,4.148,4.148,0,0,1,.192-.546c.161-.384.361-.9.622-1.537s.607-1.476.938-2.436.769-2.044,1.122-3.274c.184-.615.384-1.26.592-1.921s.361-1.383.553-2.113c.407-1.453.7-3.036,1.045-4.688a73.687,73.687,0,0,0,.768-21.949c-.223-1.675-.407-3.274-.707-4.749-.138-.768-.246-1.46-.4-2.144s-.307-1.337-.453-1.96c-.261-1.26-.615-2.367-.884-3.343s-.53-1.821-.769-2.505l-.507-1.537A2.658,2.658,0,0,1,420.174,347.34Z" transform="translate(-379.444 -326.681)" fill="#263238"/>
    <path id="Trazado_218111" data-name="Trazado 218111" d="M451.441,333.05a1.706,1.706,0,0,1,0,.184,4.031,4.031,0,0,1-.092.546c-.085.469-.192,1.176-.384,2.075-.369,1.8-1,4.381-1.967,7.508s-2.306,6.817-3.843,10.851-3.389,8.454-5.111,13.126-3.074,9.222-4.365,13.388-2.452,7.862-3.6,10.936a71.153,71.153,0,0,1-3.074,7.139c-.4.822-.768,1.437-.991,1.867l-.269.477a.712.712,0,0,1-.108.154l.069-.177c.069-.131.146-.3.238-.5.207-.43.538-1.061.915-1.9.769-1.652,1.829-4.081,2.936-7.163s2.306-6.8,3.5-10.951,2.59-8.723,4.342-13.418,3.558-9.092,5.149-13.119,2.943-7.685,3.942-10.8,1.668-5.679,2.09-7.462c.215-.884.346-1.583.461-2.052.046-.215.092-.392.123-.538A.568.568,0,0,1,451.441,333.05Z" transform="translate(-381.622 -323.373)" fill="#263238"/>
    <path id="Trazado_218112" data-name="Trazado 218112" d="M379.85,320.913a1.675,1.675,0,0,0-2.751,1.706,47.268,47.268,0,0,0,2.436,6.279c2.667,5.672,10.513,26.022,14.179,37.2s8.846,32.032,8.846,32.032l7.839-1.276s-7.17-34.26-14.179-46.61C390.586,340.333,384.96,325.993,379.85,320.913Z" transform="translate(-369.906 -320.458)" fill="#455a64"/>
    <path id="Trazado_218113" data-name="Trazado 218113" d="M401.53,388.94a4.375,4.375,0,0,1,.407.945c.231.615.546,1.537.907,2.628.722,2.236,1.6,5.38,2.49,8.83s1.629,6.625,2.144,8.915c.238,1.084.43,1.991.592,2.713a4.611,4.611,0,0,1,.161,1.014,4.783,4.783,0,0,1-.323-.976c-.184-.715-.43-1.614-.715-2.682-.6-2.359-1.391-5.456-2.259-8.884s-1.729-6.594-2.375-8.846l-.768-2.667a5.377,5.377,0,0,1-.261-.991Z" transform="translate(-375.578 -336.31)" fill="#263238"/>
    <path id="Trazado_218114" data-name="Trazado 218114" d="M406.763,397.593a.768.768,0,0,1-.046-.207,5.068,5.068,0,0,0-.085-.622c-.085-.538-.154-1.345-.323-2.367a87.4,87.4,0,0,0-1.645-8.646A123.532,123.532,0,0,0,401,373.224c-1.606-4.611-3.627-9.66-5.91-14.848-4.611-10.375-9.222-19.574-12.242-26.383-1.537-3.389-2.713-6.148-3.5-8.092-.4-.961-.684-1.714-.884-2.229-.085-.238-.154-.43-.215-.584a.77.77,0,0,1-.061-.207.95.95,0,0,1,.1.192l.254.569c.231.53.553,1.268.953,2.2.83,1.914,2.052,4.657,3.612,8.039,3.074,6.763,7.739,15.939,12.358,26.329,2.306,5.2,4.3,10.229,5.894,14.894a118.887,118.887,0,0,1,3.581,12.581,87.806,87.806,0,0,1,1.537,8.692c.138,1.03.192,1.837.246,2.382a3.392,3.392,0,0,0,.046.622A.769.769,0,0,1,406.763,397.593Z" transform="translate(-370.175 -320.556)" fill="#263238"/>
    <path id="Trazado_218115" data-name="Trazado 218115" d="M417.864,409.949a7.687,7.687,0,0,1-.269-1.314c-.154-.922-.361-2.136-.607-3.6-.538-3.074-1.368-7.216-2.551-11.774s-2.5-8.607-3.512-11.528l-1.23-3.443a8.841,8.841,0,0,1-.415-1.276,7.565,7.565,0,0,1,.569,1.222c.338.768.807,1.952,1.353,3.4a113.127,113.127,0,0,1,3.635,11.528,119.6,119.6,0,0,1,2.444,11.827c.223,1.537.392,2.767.476,3.627a9.987,9.987,0,0,1,.108,1.337Z" transform="translate(-377.372 -333.549)" fill="#263238"/>
    <rect id="Rectángulo_45270" data-name="Rectángulo 45270" width="30.595" height="37.273" transform="translate(25.983 75.278)" fill="#f67409"/>
    <g id="Grupo_149352" data-name="Grupo 149352" transform="translate(25.983 75.278)" opacity="0.3">
      <rect id="Rectángulo_45271" data-name="Rectángulo 45271" width="30.595" height="37.273"/>
    </g>
    <rect id="Rectángulo_45272" data-name="Rectángulo 45272" width="27.144" height="37.273" transform="translate(19.673 75.278)" fill="#f67409"/>
  </g>
  <g id="freepik--Character--inject-2" transform="translate(4.889 50.07)">
    <path id="Trazado_218116" data-name="Trazado 218116" d="M104.916,151.115l-.868,70.027c-.146,11.9,2.067,29.426,20.9,28.8h0c16.308-1.775,20.635-17.207,20.75-28.32.061-5.272.123-9.668.161-10.206,0,0,17.845-1.46,19.351-19.09.73-8.515.769-26.183.684-42.168a32.946,32.946,0,0,0-30.564-32.593l-1.706-.131C115.2,117.178,104.678,132.679,104.916,151.115Z" transform="translate(-46.971 -106.722)" fill="#ffbe9d"/>
    <path id="Trazado_218117" data-name="Trazado 218117" d="M151.7,237.184a42.792,42.792,0,0,1-22.471-8.454s4.657,13.3,22.379,12.988Z" transform="translate(-52.802 -132.485)" fill="#eb996e"/>
    <path id="Trazado_218118" data-name="Trazado 218118" d="M142.055,168.481c-.346.361-2.382-1.283-5.341-1.36s-5.157,1.368-5.464.991c-.154-.169.207-.822,1.176-1.5a7.378,7.378,0,0,1,4.388-1.245,7.1,7.1,0,0,1,4.235,1.537C141.94,167.651,142.232,168.327,142.055,168.481Z" transform="translate(-53.262 -117.817)" fill="#263238"/>
    <path id="Trazado_218119" data-name="Trazado 218119" d="M143.77,176.675a2.4,2.4,0,0,1-2.475,2.236,2.306,2.306,0,0,1-2.306-2.306,2.39,2.39,0,0,1,2.467-2.236,2.306,2.306,0,0,1,2.313,2.306Z" transform="translate(-55.061 -119.901)" fill="#263238"/>
    <path id="Trazado_218120" data-name="Trazado 218120" d="M155,189.314c0-.154,1.706-.323,4.457-.469.7,0,1.368-.115,1.537-.576a3.52,3.52,0,0,0-.307-2.083l-1.729-5.441c-2.306-7.685-3.9-14.033-3.589-14.125s2.429,6.094,4.719,13.833c.553,1.906,1.076,3.712,1.537,5.449a3.994,3.994,0,0,1,.161,2.744,1.729,1.729,0,0,1-1.214.93,4.689,4.689,0,0,1-1.184.077C156.668,189.583,155,189.475,155,189.314Z" transform="translate(-58.767 -118.107)" fill="#263238"/>
    <path id="Trazado_218121" data-name="Trazado 218121" d="M140.378,154.332c-.284.661-2.651.161-5.48.307s-5.164.769-5.487.146c-.146-.307.292-.907,1.253-1.491a8.923,8.923,0,0,1,4.15-1.168,8.738,8.738,0,0,1,4.2.83C140.017,153.433,140.5,154,140.378,154.332Z" transform="translate(-52.838 -114.75)" fill="#263238"/>
    <path id="Trazado_218122" data-name="Trazado 218122" d="M176.933,161.4c-.307.538-2.613-.054-5.38-.138s-5.111.269-5.38-.292c-.123-.261.338-.769,1.306-1.168a9.868,9.868,0,0,1,4.135-.684,10.075,10.075,0,0,1,4.1,1.014C176.626,160.63,177.072,161.145,176.933,161.4Z" transform="translate(-61.349 -116.368)" fill="#263238"/>
    <path id="Trazado_218123" data-name="Trazado 218123" d="M102.093,178.137c-.292-.154-11.866-4.473-12.358,7.616s11.728,10.1,11.781,9.752S102.093,178.137,102.093,178.137Z" transform="translate(-43.656 -120.571)" fill="#ffbe9d"/>
    <path id="Trazado_218124" data-name="Trazado 218124" d="M98.941,191.945c-.054-.038-.223.138-.584.284a2.1,2.1,0,0,1-1.537,0c-1.26-.523-2.252-2.59-2.221-4.772a6.971,6.971,0,0,1,.715-2.99,2.413,2.413,0,0,1,1.652-1.537,1.061,1.061,0,0,1,1.214.622c.154.346.061.584.131.607s.269-.192.184-.692a1.322,1.322,0,0,0-.438-.769,1.614,1.614,0,0,0-1.153-.361,2.982,2.982,0,0,0-2.306,1.791,7.27,7.27,0,0,0-.868,3.335c0,2.444,1.137,4.772,2.859,5.38a2.306,2.306,0,0,0,1.944-.238C98.9,192.237,98.979,191.968,98.941,191.945Z" transform="translate(-44.584 -121.745)" fill="#eb996e"/>
    <path id="Trazado_218125" data-name="Trazado 218125" d="M149.3,204.7c.131-.307-2.236-1.014-3.9-3.243a13.679,13.679,0,0,1-1.675-3.151c-.354-.884-.623-1.429-.769-1.391s-.1.63.1,1.591a9,9,0,0,0,1.537,3.535,7.193,7.193,0,0,0,3.074,2.359C148.641,204.781,149.264,204.8,149.3,204.7Z" transform="translate(-55.959 -125.121)" fill="#263238"/>
    <path id="Trazado_218126" data-name="Trazado 218126" d="M177.081,169.931c-.354.354-2.39-1.283-5.38-1.36s-5.157,1.368-5.472.991c-.154-.169.215-.822,1.176-1.5a7.378,7.378,0,0,1,4.388-1.245,7.124,7.124,0,0,1,4.242,1.537C176.958,169.1,177.25,169.77,177.081,169.931Z" transform="translate(-61.359 -118.152)" fill="#263238"/>
    <path id="Trazado_218127" data-name="Trazado 218127" d="M178.29,177.8a2.4,2.4,0,0,1-2.475,2.236,2.306,2.306,0,0,1-2.306-2.306,2.4,2.4,0,0,1,2.475-2.236A2.306,2.306,0,0,1,178.29,177.8Z" transform="translate(-63.052 -120.16)" fill="#263238"/>
    <path id="Trazado_218128" data-name="Trazado 218128" d="M175.183,123.526a9.545,9.545,0,0,0-11.9-3.766,13.065,13.065,0,0,0-22.494-11.266,5.318,5.318,0,0,0-2.605-3.574,10.49,10.49,0,0,0-4.334-1.3,20.75,20.75,0,0,0-18.959,8.269,22.587,22.587,0,0,0-19.144,6.986c-5.679,6.294-6.755,20.873-.53,33.469l1.46,7.893c1.952,0,3.735.138,4.942,1.214,1.637,1.468,2.367,4.235,5.08,3.189,1.383-.538,2.644-3.435,3.074-4.842a68.905,68.905,0,0,0,2.982-29.127,22.079,22.079,0,0,1,6.824-4.926l-.207.192c4.926-1.714,10.5-3.4,15.17-1.084,3.627,1.791,5.764,5.556,8.454,8.554a27.667,27.667,0,0,0,19.728,9.115c.261,4.965-.154,11.981.108,16.907l4.25-7.9h0a18.924,18.924,0,0,0,.9-1.752l.092-.184h0c.769-.622,1.337-1.76,2.628-3.235a10.406,10.406,0,0,0,1.714-10.659,9.537,9.537,0,0,0,2.767-12.173Z" transform="translate(-43.952 -103.495)" fill="#263238"/>
    <path id="Trazado_218129" data-name="Trazado 218129" d="M193.13,159.86Z" transform="translate(-67.594 -116.543)" fill="#263238"/>
    <path id="Trazado_218130" data-name="Trazado 218130" d="M184.917,129.8a1.267,1.267,0,0,1,.092.261,3.741,3.741,0,0,1,.108.769,5.234,5.234,0,0,1-.7,2.828,5.541,5.541,0,0,1-1.353,1.537,4.819,4.819,0,0,1-2.206.938,5.456,5.456,0,0,1-5.041-1.9l.3-.254a3.274,3.274,0,0,1,.853,2.367,4.327,4.327,0,0,1-1.353,3.074,4.9,4.9,0,0,1-2.859,1.222,7.685,7.685,0,0,1-4.965-1.368,16.194,16.194,0,0,1-2.659-2.259,7.689,7.689,0,0,1-.845-.953,8.578,8.578,0,0,1,.953.845,19.06,19.06,0,0,0,2.705,2.129,7.485,7.485,0,0,0,4.772,1.237,4.611,4.611,0,0,0,2.636-1.137,3.989,3.989,0,0,0,1.214-2.767,2.936,2.936,0,0,0-.768-2.09l.3-.261a5.126,5.126,0,0,0,4.673,1.8,4.719,4.719,0,0,0,3.381-2.306,5.379,5.379,0,0,0,.769-2.7A7.506,7.506,0,0,0,184.917,129.8Z" transform="translate(-60.918 -109.584)" fill="#455a64"/>
    <path id="Trazado_218131" data-name="Trazado 218131" d="M167.9,112.56a.539.539,0,0,1,.261.115,5.741,5.741,0,0,1,.669.453,5.91,5.91,0,0,1,1.829,2.367,4.657,4.657,0,0,1-.415,4.357,3.6,3.6,0,0,1-2.206,1.537,3.65,3.65,0,0,1-2.82-.546,3.442,3.442,0,0,1-.669-.669l.346-.2a3.374,3.374,0,0,1-.092,2.721,3.666,3.666,0,0,1-1.752,1.8,4.888,4.888,0,0,1-4.119,0,6.617,6.617,0,0,1-2.221-1.668,3.282,3.282,0,0,1-.592-.83s.246.269.7.722a7.062,7.062,0,0,0,2.221,1.537,4.68,4.68,0,0,0,3.843-.069,3.389,3.389,0,0,0,1.537-1.637,3.02,3.02,0,0,0,.077-2.4l-.646-1.483.991,1.291a2.7,2.7,0,0,0,.576.569,3.243,3.243,0,0,0,2.505.492,3.2,3.2,0,0,0,1.975-1.337,4.38,4.38,0,0,0,.453-4.042,6.1,6.1,0,0,0-1.66-2.352C168.216,112.783,167.878,112.591,167.9,112.56Z" transform="translate(-59.027 -105.593)" fill="#455a64"/>
    <path id="Trazado_218132" data-name="Trazado 218132" d="M296.159,226.7l-27.936,21.319a3.62,3.62,0,0,0-.53,5.241h0a3.6,3.6,0,0,0,4.942.484L300.3,232.225l3.743-7.385Z" transform="translate(-84.649 -131.585)" fill="#f67409"/>
    <path id="Trazado_218133" data-name="Trazado 218133" d="M309.216,225.93l1.975,2.306-2.136,4.242a1.7,1.7,0,0,1-1.86-1.929,1.537,1.537,0,0,1-1.691-1.937s-1.452-.131-.63-1.66Z" transform="translate(-93.403 -131.837)" fill="#fff" opacity="0.5"/>
    <path id="Trazado_218134" data-name="Trazado 218134" d="M268.65,254.574l4.58,5.595,1.537-1.191-4.388-5.718Z" transform="translate(-85.076 -138.163)" fill="#263238"/>
    <path id="Trazado_218135" data-name="Trazado 218135" d="M265.7,302.487l-1.007-.184,20.55-35.92-3.258-10.36s-3.766-14.748-.63-18.514c0,0,6.863-8.085,9.092-7.969s4,.553,4.45,2.229c0,0,3.789-.446,4.788.769a19.16,19.16,0,0,1,1.783,2.674s4.119-.338,5.234,3.228c0,0,3.9,2.006,4.234,4.9s-.769,16.369-2.006,19.82-5.795,10.69-7.124,21.38-6.048,17.63-10.237,33.246l-11.366,4.5Z" transform="translate(-84.159 -132.672)" fill="#ffbe9d"/>
    <path id="Trazado_218136" data-name="Trazado 218136" d="M302.576,232.14a20.91,20.91,0,0,0-2.4,2.782,26.006,26.006,0,0,0-1.468,3.366,6.963,6.963,0,0,1,3.843-6.148Z" transform="translate(-92.034 -133.274)" fill="#eb996e"/>
    <path id="Trazado_218137" data-name="Trazado 218137" d="M311.069,236.92a22.453,22.453,0,0,0-2.344,2.49,23.077,23.077,0,0,0-1.537,3.074,5.182,5.182,0,0,1,1.16-3.32A5.38,5.38,0,0,1,311.069,236.92Z" transform="translate(-93.987 -134.381)" fill="#eb996e"/>
    <path id="Trazado_218138" data-name="Trazado 218138" d="M318.031,241c.085.108-.938,1.007-1.875,2.359s-1.445,2.621-1.575,2.575a5.456,5.456,0,0,1,1.191-2.836,5.38,5.38,0,0,1,2.259-2.1Z" transform="translate(-95.708 -135.325)" fill="#eb996e"/>
    <path id="Trazado_218139" data-name="Trazado 218139" d="M292.637,242.261a8.007,8.007,0,0,0-2.306-.392,7.684,7.684,0,0,0-2.213.7c-.038,0,.108-.292.484-.569a3.366,3.366,0,0,1,3.451-.231A1.352,1.352,0,0,1,292.637,242.261Z" transform="translate(-89.581 -135.418)" fill="#eb996e"/>
    <path id="Trazado_218140" data-name="Trazado 218140" d="M303.384,248.214a9.222,9.222,0,0,0-1.7-2.029,9.416,9.416,0,0,0-2.405-1.1c.015-.138.315-.131.83-.069a4.088,4.088,0,0,1,3.112,2.375C303.422,247.876,303.438,248.2,303.384,248.214Z" transform="translate(-92.166 -136.246)" fill="#eb996e"/>
    <path id="Trazado_218141" data-name="Trazado 218141" d="M313.592,250.872a10.635,10.635,0,0,0-2.528-1.314,10.1,10.1,0,0,0-2.844-.138c0-.054.269-.238.815-.369a4.611,4.611,0,0,1,4.042,1.091C313.477,250.526,313.63,250.841,313.592,250.872Z" transform="translate(-94.235 -137.166)" fill="#eb996e"/>
    <path id="Trazado_218142" data-name="Trazado 218142" d="M41.792,302.44S29.181,373.973,29.8,380.667,33.761,398,41.331,399.819a33.469,33.469,0,0,0,14.6,0l-9.076-87.864Z" transform="translate(-29.781 -149.548)" fill="#f67409"/>
    <path id="Trazado_218143" data-name="Trazado 218143" d="M82.242,250.209S67.164,260.968,63.8,264.08c-13.941,13.18-16.854,18.575-18.444,23.055s9.683,108,9.683,108l2.306,18.1h0l105.8.269h0V321.058l-15.885-65.07-9.783-2.782-1.975-7.754s-12.15-8.976-32.193-9.222c-6.148-.085-14.894,2.344-19.766,6.148h0Z" transform="translate(-33.35 -134.22)" fill="#f67409"/>
    <path id="Trazado_218144" data-name="Trazado 218144" d="M159.916,262.192s10.874-.484,11.835-.269c3.351.768,12.55,9.222,23.055,19.612,9.991,9.914,29.68,30.548,29.68,30.548s3.535-3.566,7.57,1.2l15.532-22.594s23.332,2.859,26.96,20.466c0,0-7.147,13.649-13,23.4,0,0-21.664,35.959-38.779,29.442-15.632-5.964-35.236-21.857-38-25.253l-23.055-16.423s-15.77-30.064-8.8-45.1Z" transform="translate(-57.873 -140.156)" fill="#f67409"/>
    <path id="Trazado_218145" data-name="Trazado 218145" d="M148.614,256.811a2.453,2.453,0,0,1-.553-.115l-1.537-.415c-1.36-.346-3.343-.822-5.818-1.291a163.351,163.351,0,0,0-19.528-2.405,132.951,132.951,0,0,0-19.666.061c-2.513.215-4.527.53-5.91.769l-1.591.315a1.953,1.953,0,0,1-.561.077,2.658,2.658,0,0,1,.538-.169l1.575-.4a52.846,52.846,0,0,1,5.918-.93,120.949,120.949,0,0,1,19.728-.192,144.654,144.654,0,0,1,19.543,2.552c2.475.515,4.45,1.037,5.81,1.445l1.537.5A2.4,2.4,0,0,1,148.614,256.811Z" transform="translate(-44.519 -137.826)" fill="#263238"/>
    <path id="Trazado_218146" data-name="Trazado 218146" d="M111.267,248.917a17.3,17.3,0,0,1-.769-3.958,18.331,18.331,0,0,1-.323-4.019,18.053,18.053,0,0,1,.769,3.958A17.342,17.342,0,0,1,111.267,248.917Z" transform="translate(-48.381 -135.311)" fill="#263238"/>
    <path id="Trazado_218147" data-name="Trazado 218147" d="M116.461,248.468a12.627,12.627,0,0,1-.553-8.008c.138,0-.069,1.814.085,4.019S116.591,248.429,116.461,248.468Z" transform="translate(-49.624 -135.2)" fill="#263238"/>
    <g id="Grupo_149353" data-name="Grupo 149353" transform="translate(49.238 114.295)" opacity="0.3">
      <path id="Trazado_218148" data-name="Trazado 218148" d="M93.85,253.825c16.554,2.928,33.338,0,50.86,2.1-16.907-3.5-34.537-5.164-50.86-2.1" transform="translate(-93.85 -252.217)"/>
    </g>
    <g id="Grupo_149354" data-name="Grupo 149354" transform="translate(12.382 180.259)" opacity="0.3">
      <path id="Trazado_218149" data-name="Trazado 218149" d="M53.66,408.2c-9.314-21.818-8.208-46.472-6.917-70.15Z" transform="translate(-45.893 -338.05)"/>
    </g>
    <path id="Trazado_218150" data-name="Trazado 218150" d="M45.41,322.73a1.315,1.315,0,0,1,.046.277c0,.208.061.476.1.807.077.769.192,1.791.33,3.128.269,2.744.661,6.663,1.137,11.528.945,9.7,2.236,23.109,3.781,37.9s3.074,28.174,4.319,37.842c.607,4.834,1.13,8.746,1.537,11.443.177,1.33.315,2.375.407,3.112.046.338.077.607.1.815a1.537,1.537,0,0,1,0,.277,1.152,1.152,0,0,1-.061-.269l-.146-.807c-.115-.769-.284-1.775-.492-3.074-.423-2.7-1-6.6-1.652-11.428-1.314-9.66-2.913-23.055-4.457-37.842s-2.782-28.212-3.643-37.919c-.415-4.834-.769-8.761-.991-11.528-.1-1.337-.184-2.382-.238-3.128a3.637,3.637,0,0,0-.054-.822,1.284,1.284,0,0,1-.023-.315Z" transform="translate(-33.398 -154.245)" fill="#263238"/>
    <path id="Trazado_218151" data-name="Trazado 218151" d="M118.621,307.451a3.527,3.527,0,0,1-.676.038h-1.96c-1.691,0-4.15,0-7.178.085-6.064.138-14.433.584-23.616,1.668s-17.43,2.651-23.355,3.973c-2.966.638-5.38,1.191-7,1.6l-1.906.446a4.044,4.044,0,0,1-.669.123,3.779,3.779,0,0,1,.646-.215l1.883-.53c1.637-.461,4.019-1.061,6.978-1.745a221,221,0,0,1,47.033-5.6c3.074,0,5.495,0,7.193.061l1.952.077a4.215,4.215,0,0,1,.676.023Z" transform="translate(-34.985 -150.67)" fill="#263238"/>
    <path id="Trazado_218152" data-name="Trazado 218152" d="M85.739,324.318c-.131,0,.115-9.906.538-22.118s.884-22.118,1.014-22.11-.115,9.906-.546,22.126S85.862,324.326,85.739,324.318Z" transform="translate(-42.726 -144.374)" fill="#263238"/>
    <path id="Trazado_218153" data-name="Trazado 218153" d="M152.522,318.481a5.775,5.775,0,0,1-.392-.622q-.407-.684-1.061-1.821l-3.9-6.709a57.755,57.755,0,0,1-4.9-10.429,33.961,33.961,0,0,1-1.46-6.671,40.232,40.232,0,0,1,0-7.332,39.025,39.025,0,0,1,3.489-13.656,22.771,22.771,0,0,1,3.451-5.141,19.6,19.6,0,0,1,4.135-3.451,15.762,15.762,0,0,1,7.339-2.459,10.206,10.206,0,0,1,2.843.161,26.54,26.54,0,0,0-2.828,0,15.954,15.954,0,0,0-7.178,2.551,19.519,19.519,0,0,0-4.027,3.435,22.5,22.5,0,0,0-3.343,5.072,39.063,39.063,0,0,0-3.42,13.51,40.547,40.547,0,0,0,0,7.232,34.346,34.346,0,0,0,1.414,6.586,60.089,60.089,0,0,0,4.772,10.406l3.773,6.778.991,1.867a4.181,4.181,0,0,1,.3.692Z" transform="translate(-55.444 -139.759)" fill="#263238"/>
    <g id="Grupo_149355" data-name="Grupo 149355" transform="translate(18.613 156.999)" opacity="0.3">
      <path id="Trazado_218154" data-name="Trazado 218154" d="M54.377,315.412a126.549,126.549,0,0,0,19.881-2.621,30.456,30.456,0,0,0-1.114,8.892,20.443,20.443,0,0,0,4.419-8.139,12.3,12.3,0,0,0,5.018,8.238,26.99,26.99,0,0,0,.446-9.061q14.84-1.783,29.48-4.88A199.94,199.94,0,0,0,54,315.12" transform="translate(-54 -307.784)"/>
    </g>
    <path id="Trazado_218155" data-name="Trazado 218155" d="M207.416,372.483a2.1,2.1,0,0,1-.453-.269l-1.268-.845c-1.091-.769-2.659-1.821-4.611-3.182-3.843-2.705-9.153-6.509-14.925-10.813s-10.928-8.3-14.6-11.228c-1.844-1.46-3.335-2.659-4.357-3.5l-1.168-.968a2.471,2.471,0,0,1-.392-.361,3.075,3.075,0,0,1,.446.3l1.214.907,4.434,3.4c3.743,2.874,8.922,6.824,14.694,11.128s11,8.139,14.84,10.921l4.519,3.289,1.222.9a3.208,3.208,0,0,1,.407.323Z" transform="translate(-61.23 -158.548)" fill="#263238"/>
    <path id="Trazado_218156" data-name="Trazado 218156" d="M251.777,345.357c-.069,0,0-1.168-.161-3.02a31.694,31.694,0,0,0-4.273-13.764c-.945-1.606-1.637-2.536-1.583-2.582a3.129,3.129,0,0,1,.546.615,21.386,21.386,0,0,1,1.276,1.821,28.112,28.112,0,0,1,4.319,13.895,19.869,19.869,0,0,1,0,2.221,3.12,3.12,0,0,1-.123.815Z" transform="translate(-79.776 -154.999)" fill="#263238"/>
    <path id="Trazado_218157" data-name="Trazado 218157" d="M259.238,344.135a22.272,22.272,0,0,1,.192-2.367,30.186,30.186,0,0,0-.108-5.687,29.741,29.741,0,0,0-1.191-5.564c-.438-1.4-.769-2.236-.722-2.267a2.145,2.145,0,0,1,.315.561,16.425,16.425,0,0,1,.676,1.614,24.684,24.684,0,0,1,1.306,11.374c-.092.73-.192,1.322-.284,1.721A2.3,2.3,0,0,1,259.238,344.135Z" transform="translate(-82.472 -155.522)" fill="#263238"/>
    <path id="Trazado_218158" data-name="Trazado 218158" d="M298.738,329.33a.42.42,0,0,0-.177-.292.907.907,0,0,1-.315-.338c-.085-.161-.146-.353-.254-.538-.207-.392-.722-.684-1.091-1.253a8.124,8.124,0,0,1-.922-2.029,13.642,13.642,0,0,0-2.644-4.98,22.286,22.286,0,0,0-2.375-2.367,25.36,25.36,0,0,0-2.867-2.19,23.522,23.522,0,0,0-3.074-1.9l-3.074-1.491c-.968-.461-1.875-.938-2.759-1.314l-2.459-1.053a9.757,9.757,0,0,1-1.068-.484c-.33-.192-.6-.407-.876-.561l-.769-.423c-.246-.131-.453-.307-.638-.423-.377-.238-.707-.369-.922-.484s-.323-.177-.315-.192a1.537,1.537,0,0,1,.346.123,7.26,7.26,0,0,1,.976.423,10.681,10.681,0,0,0,1.46.769c.3.146.584.361.891.53s.692.292,1.061.453l2.475,1c.884.361,1.806.838,2.79,1.291l3.074,1.468A23.293,23.293,0,0,1,288.325,315a23.759,23.759,0,0,1,2.9,2.229,21.512,21.512,0,0,1,2.4,2.421,13.533,13.533,0,0,1,2.628,5.126,8.492,8.492,0,0,0,.838,2c.323.538.822.853,1.037,1.3.115.215.161.415.231.561a1.015,1.015,0,0,0,.261.338C298.815,329.169,298.746,329.345,298.738,329.33Z" transform="translate(-85.883 -150.608)" fill="#263238"/>
    <path id="Trazado_218159" data-name="Trazado 218159" d="M178.4,438.418c-.108,0-.2-19.443-.2-43.429s.092-43.429.2-43.429.2,19.443.2,43.429S178.515,438.418,178.4,438.418Z" transform="translate(-64.138 -160.918)" fill="#263238"/>
  </g>
</svg>
