<svg xmlns="http://www.w3.org/2000/svg" width="155.688" height="150.664" viewBox="0 0 155.688 150.664">
  <g id="articulo" transform="translate(0 -0.001)">
    <path id="Trazado_218580" data-name="Trazado 218580" d="M123.943,16.854v-.278a6.64,6.64,0,0,1,.1-1.068c.781-7.136,6.225-13.265,13.532-12.874C137.883,2.483,23.84,2.4,23.84,2.4a8.2,8.2,0,0,0-8.168,8.2L15.4,121.36l72-.28c-1.107,22.791,6.368,26.684,16.615,26.684h1.384a18.588,18.588,0,0,0,18.551-18.622V16.854Zm0,0" transform="translate(0.712 0.111)" fill="#fff"/>
    <path id="Trazado_218581" data-name="Trazado 218581" d="M105.5,150.386h-1.384c-4.258,0-9.659-.538-13.653-4.732s-5.792-11.214-5.564-21.941l-69.385.269H15.5a2.51,2.51,0,0,1-2.511-2.516L13.27,10.705A10.71,10.71,0,0,1,23.951,0s28.427.02,56.856.06c14.214.02,28.432.045,39.1.072,5.336.016,9.781.031,12.895.048,1.574.007,2.787.016,3.729.045.422-.012.853-.007,1.289.012l0,.058c1.869.172,2.024.623,2.316,1.883a2.511,2.511,0,0,1-2.582,3.071c-6.3-.348-10.308,5.228-10.9,10.64a5.332,5.332,0,0,0-.083.793V129.249A21.121,21.121,0,0,1,105.5,150.386Zm-18-31.706a2.513,2.513,0,0,1,2.509,2.632c-.517,10.619.82,17.446,4.088,20.877,2.092,2.195,5.18,3.174,10.016,3.174H105.5a16.1,16.1,0,0,0,16.042-16.111V16.687a8.953,8.953,0,0,1,.131-1.471,17.74,17.74,0,0,1,4.4-10.042C103.615,5.1,53.459,5.045,23.949,5.023a5.679,5.679,0,0,0-5.655,5.688L18.023,118.95l69.468-.27Zm0,0" transform="translate(0.601 0)" fill="#12263f"/>
    <path id="Trazado_218582" data-name="Trazado 218582" d="M119.142,36.58V16.846c.208-7.943,6.243-15.119,14.4-14.175a14.208,14.208,0,0,1,14.122,14.175V36.58Zm0,0" transform="translate(5.513 0.12)" fill="#feeeab"/>
    <path id="Trazado_218583" data-name="Trazado 218583" d="M147.775,39.2H119.253a2.512,2.512,0,0,1-2.511-2.511V16.957a18.215,18.215,0,0,1,5.99-13.181A14.406,14.406,0,0,1,133.8.271a16.679,16.679,0,0,1,16.489,16.686V36.691a2.512,2.512,0,0,1-2.511,2.511Zm-26.011-2.511h.026Zm0-2.511h23.5V16.957A11.651,11.651,0,0,0,133.653,5.293a2.264,2.264,0,0,1-.289-.017,9.371,9.371,0,0,0-7.342,2.3,13.089,13.089,0,0,0-4.259,9.451Zm0,0" transform="translate(5.402 0.009)" fill="#12263f"/>
    <path id="Trazado_218584" data-name="Trazado 218584" d="M87.992,115.832l-68.951.28H2.427S.764,142.238,24.58,142.793h83.073a38.853,38.853,0,0,1-4.154-.278c-9.692-.277-16.615-4.724-15.508-26.684Zm0,0" transform="translate(0.111 5.36)" fill="#feeeab"/>
    <g id="Grupo_149385" data-name="Grupo 149385" transform="translate(0 53.49)">
      <path id="Trazado_218585" data-name="Trazado 218585" d="M107.764,145.416H24.691c-7.408-.17-13.291-2.614-17.548-7.257C-.728,129.571,0,116.609.032,116.062a2.514,2.514,0,0,1,2.506-2.353H19.154l68.941-.28h.01a2.513,2.513,0,0,1,2.506,2.64c-.53,10.519.77,17.319,3.975,20.789,1.968,2.13,4.773,3.134,9.1,3.258a38.806,38.806,0,0,0,4.08.278,2.511,2.511,0,0,1,0,5.022ZM5.064,118.733c.181,3.711,1.159,11.008,5.8,16.056,3.3,3.58,7.968,5.468,13.887,5.607H91.017l-.118-.126c-3.912-4.233-5.647-11.2-5.4-21.8Zm0,0" transform="translate(0 -48.242)" fill="#12263f"/>
      <path id="Trazado_218586" data-name="Trazado 218586" d="M32.22,66.405a2.513,2.513,0,0,1-1.593-.569l-3.678-3.019a2.51,2.51,0,1,1,3.184-3.882l1.728,1.416,6.742-8.3a2.512,2.512,0,1,1,3.9,3.167L34.168,65.477a2.51,2.51,0,0,1-1.7.916c-.085.007-.168.012-.25.012Zm0,0" transform="translate(1.204 -51.125)" fill="#12263f"/>
      <path id="Trazado_218587" data-name="Trazado 218587" d="M109.724,61.048H53.866a2.511,2.511,0,1,1,0-5.022h55.855a2.511,2.511,0,0,1,0,5.022Zm0,0" transform="translate(2.376 -50.898)" fill="#12263f"/>
      <path id="Trazado_218588" data-name="Trazado 218588" d="M111.49,80.935H29.657a2.511,2.511,0,0,1,0-5.022H111.49a2.511,2.511,0,0,1,0,5.022Zm0,0" transform="translate(1.256 -49.978)" fill="#12263f"/>
      <path id="Trazado_218589" data-name="Trazado 218589" d="M111.49,100.822H29.657a2.511,2.511,0,1,1,0-5.022H111.49a2.511,2.511,0,1,1,0,5.022Zm0,0" transform="translate(1.256 -49.058)" fill="#12263f"/>
    </g>
    <path id="Trazado_218590" data-name="Trazado 218590" d="M28.43,18.292h82.355V39.653H28.43Zm0,0" transform="translate(1.316 0.846)" fill="#f67409"/>
  </g>
</svg>
