<svg xmlns="http://www.w3.org/2000/svg" width="76.043" height="76.043" viewBox="0 0 76.043 76.043">
  <g id="articulo_1_" data-name="articulo (1)" transform="translate(6 -62)">
    <g id="_x38_38_x2C__Article_x2C__Blog_x2C__News_x2C__Court_Hammer" transform="translate(-5.5 62.5)">
      <g id="Grupo_149386" data-name="Grupo 149386">
        <path id="Trazado_218591" data-name="Trazado 218591" d="M77.694,13.887H73.3v-1.2A5.2,5.2,0,0,0,68.114,7.5H32.189A5.2,5.2,0,0,0,27,12.689V67.774a5.2,5.2,0,0,0,5.189,5.189h1.2v2.794a5.2,5.2,0,0,0,5.189,5.189c35.609-.006,33.96.03,34.182-.045a.442.442,0,0,0,.154-.07c.012-.007.025-.012.037-.02a.823.823,0,0,0,.121-.1c10.208-10.216,9.6-9.577,9.7-9.736a.445.445,0,0,0,.07-.154.665.665,0,0,0,.045-.253V19.076a5.2,5.2,0,0,0-5.189-5.189Zm-45.5,57.48A3.6,3.6,0,0,1,28.6,67.774V12.689A3.6,3.6,0,0,1,32.189,9.1H68.114a3.6,3.6,0,0,1,3.592,3.592v1.2H38.576a5.2,5.2,0,0,0-5.189,5.189V71.366Zm24.349-.8H34.983V68.173H55.5a1.039,1.039,0,0,1,1.038,1.038Zm-3.193-3.992H34.983V64.181H52.307a1.039,1.039,0,0,1,1.038,1.038ZM34.983,75.757V72.165H61.328a.8.8,0,1,0,0-1.6H58.135V69.211A2.637,2.637,0,0,0,55.5,66.576h-.559V65.219a2.637,2.637,0,0,0-2.634-2.634H34.983V19.076a3.6,3.6,0,0,1,3.592-3.592H77.694a3.6,3.6,0,0,1,3.592,3.592V69.77H72.5a.8.8,0,0,0-.8.8V79.35H38.576A3.6,3.6,0,0,1,34.983,75.757Zm45.174-4.391L73.3,78.221V71.366Z" transform="translate(-16.622 -7.5)" fill="#30610c" stroke="#30610c" stroke-width="1"/>
        <path id="Trazado_218592" data-name="Trazado 218592" d="M86.691,74.376a3.2,3.2,0,0,0,0-4.516L74.652,57.821l2.258-2.258h0a3.193,3.193,0,1,0,4.516-4.516l-8.371-8.37H86.925a.8.8,0,0,0,.8-.8V32.3a.8.8,0,0,0-.8-.8H51.8a.8.8,0,0,0-.8.8v9.58a.8.8,0,0,0,.8.8H67.373a3.186,3.186,0,0,0,.505,3.855l-9.032,9.032A3.193,3.193,0,0,0,54.33,60.08l9.032,9.032A3.193,3.193,0,1,0,67.878,64.6h0l2.258-2.258L82.175,74.376a3.191,3.191,0,0,0,4.516,0ZM52.6,33.1h33.53V41.08H52.6ZM71.265,43.144,80.3,52.176a1.6,1.6,0,1,1-2.258,2.258l-8.468-8.468-.564-.564a1.6,1.6,0,1,1,2.258-2.258ZM69.007,47.66l6.774,6.774-9.032,9.032-6.774-6.774ZM65.62,68.45a1.586,1.586,0,0,1-1.129-.468l-9.032-9.032a1.6,1.6,0,0,1,2.258-2.258l9.032,9.032A1.6,1.6,0,0,1,65.62,68.45Zm7.9-9.5L85.562,70.989A1.6,1.6,0,1,1,83.3,73.247L71.265,61.209Z" transform="translate(-27.848 -18.727)" fill="#30610c" stroke="#30610c" stroke-width="1"/>
        <circle id="Elipse_7198" data-name="Elipse 7198" cx="1.197" cy="1.197" r="1.197" transform="translate(67.858 54.286)" fill="#30610c" stroke="#30610c" stroke-width="1"/>
        <circle id="Elipse_7199" data-name="Elipse 7199" cx="1.197" cy="1.197" r="1.197" transform="translate(69.455 17.164)" fill="#30610c" stroke="#30610c" stroke-width="1"/>
        <circle id="Elipse_7200" data-name="Elipse 7200" cx="1.197" cy="1.197" r="1.197" transform="translate(0.798 7.983)" fill="#30610c" stroke="#30610c" stroke-width="1"/>
        <circle id="Elipse_7201" data-name="Elipse 7201" cx="1.197" cy="1.197" r="1.197" transform="translate(5.588 36.723)" fill="#30610c" stroke="#30610c" stroke-width="1"/>
        <circle id="Elipse_7202" data-name="Elipse 7202" cx="1.197" cy="1.197" r="1.197" transform="translate(1.597 56.681)" fill="#30610c" stroke="#30610c" stroke-width="1"/>
        <path id="Trazado_218593" data-name="Trazado 218593" d="M137.492,10.5a3.992,3.992,0,1,0,3.992,3.992A4,4,0,0,0,137.492,10.5Zm0,6.387a2.395,2.395,0,1,1,2.395-2.395A2.4,2.4,0,0,1,137.492,16.887Z" transform="translate(-66.44 -8.903)" fill="#30610c" stroke="#30610c" stroke-width="1"/>
        <path id="Trazado_218594" data-name="Trazado 218594" d="M13.088,127.5a5.588,5.588,0,1,0,5.588,5.588A5.595,5.595,0,0,0,13.088,127.5Zm0,9.58a3.992,3.992,0,1,1,3.992-3.992A4,4,0,0,1,13.088,137.08Z" transform="translate(-7.5 -63.634)" fill="#30610c" stroke="#30610c" stroke-width="1"/>
      </g>
    </g>
  </g>
</svg>
