<svg xmlns="http://www.w3.org/2000/svg" xmlns:xlink="http://www.w3.org/1999/xlink" width="1251.361" height="431.16" viewBox="0 0 1251.361 431.16">
  <defs>
    <filter id="Trazado_218527" x="34.941" y="88.705" width="180.856" height="180.867" filterUnits="userSpaceOnUse">
      <feOffset dy="3" input="SourceAlpha"/>
      <feGaussianBlur stdDeviation="3" result="blur"/>
      <feFlood flood-opacity="0.161"/>
      <feComposite operator="in" in2="blur"/>
      <feComposite in="SourceGraphic"/>
    </filter>
    <filter id="Trazado_218531" x="240.112" y="88.798" width="180.857" height="180.867" filterUnits="userSpaceOnUse">
      <feOffset dy="3" input="SourceAlpha"/>
      <feGaussianBlur stdDeviation="3" result="blur-2"/>
      <feFlood flood-opacity="0.161"/>
      <feComposite operator="in" in2="blur-2"/>
      <feComposite in="SourceGraphic"/>
    </filter>
    <filter id="Trazado_218535" x="446.466" y="88.696" width="180.996" height="181.007" filterUnits="userSpaceOnUse">
      <feOffset dy="3" input="SourceAlpha"/>
      <feGaussianBlur stdDeviation="3" result="blur-3"/>
      <feFlood flood-opacity="0.161"/>
      <feComposite operator="in" in2="blur-3"/>
      <feComposite in="SourceGraphic"/>
    </filter>
    <filter id="Trazado_218539" x="651.881" y="88.784" width="180.857" height="180.867" filterUnits="userSpaceOnUse">
      <feOffset dy="3" input="SourceAlpha"/>
      <feGaussianBlur stdDeviation="3" result="blur-4"/>
      <feFlood flood-opacity="0.161"/>
      <feComposite operator="in" in2="blur-4"/>
      <feComposite in="SourceGraphic"/>
    </filter>
    <filter id="Trazado_218567" x="1064.593" y="88.784" width="180.856" height="180.867" filterUnits="userSpaceOnUse">
      <feOffset dy="3" input="SourceAlpha"/>
      <feGaussianBlur stdDeviation="3" result="blur-5"/>
      <feFlood flood-opacity="0.161"/>
      <feComposite operator="in" in2="blur-5"/>
      <feComposite in="SourceGraphic"/>
    </filter>
    <filter id="Trazado_218543" x="858.339" y="88.705" width="180.856" height="180.867" filterUnits="userSpaceOnUse">
      <feOffset dy="3" input="SourceAlpha"/>
      <feGaussianBlur stdDeviation="3" result="blur-6"/>
      <feFlood flood-opacity="0.161"/>
      <feComposite operator="in" in2="blur-6"/>
      <feComposite in="SourceGraphic"/>
    </filter>
    <clipPath id="clip-path">
      <path id="path3012" d="M0-204.8H94.085v94.085H0Z" transform="translate(0 204.799)" fill="#f67409" stroke="#707070" stroke-width="3.5"/>
    </clipPath>
  </defs>
  <g id="Grupo_149429" data-name="Grupo 149429" transform="translate(-659.074 11088)">
    <path id="Trazado_218779" data-name="Trazado 218779" d="M6.357,13.971H4.5V19H1.074V4.781h5.6A6.246,6.246,0,0,1,10.625,5.9a3.8,3.8,0,0,1,1.426,3.17,4.616,4.616,0,0,1-.6,2.458,4.263,4.263,0,0,1-1.88,1.58l2.969,5.741V19H8.867ZM4.5,11.334H6.67a1.946,1.946,0,0,0,1.47-.514,1.987,1.987,0,0,0,.493-1.434,2.01,2.01,0,0,0-.5-1.444A1.928,1.928,0,0,0,6.67,7.418H4.5ZM19.082,19.2a5.432,5.432,0,0,1-3.936-1.45,5.008,5.008,0,0,1-1.5-3.774V13.7a6.489,6.489,0,0,1,.6-2.861A4.395,4.395,0,0,1,16,8.917a5.292,5.292,0,0,1,2.734-.679A4.574,4.574,0,0,1,22.246,9.62a5.43,5.43,0,0,1,1.289,3.853v1.279H16.992a2.372,2.372,0,0,0,.771,1.4,2.3,2.3,0,0,0,1.543.508,2.958,2.958,0,0,0,2.441-1.094l1.5,1.777a4.2,4.2,0,0,1-1.743,1.353A5.891,5.891,0,0,1,19.082,19.2Zm-.371-8.418q-1.445,0-1.719,1.914h3.32v-.254a1.63,1.63,0,0,0-.4-1.226A1.593,1.593,0,0,0,18.711,10.777ZM30.811,19a3.716,3.716,0,0,1-.312-.947A3.06,3.06,0,0,1,27.959,19.2a3.749,3.749,0,0,1-2.539-.9,2.875,2.875,0,0,1-1.045-2.271,2.955,2.955,0,0,1,1.27-2.6,6.468,6.468,0,0,1,3.691-.879h1.016v-.559q0-1.462-1.26-1.462a1.03,1.03,0,0,0-1.172,1.158H24.629a2.95,2.95,0,0,1,1.3-2.487,5.479,5.479,0,0,1,3.325-.956,4.8,4.8,0,0,1,3.193.986,3.429,3.429,0,0,1,1.2,2.705v4.678a4.79,4.79,0,0,0,.449,2.227V19ZM28.75,16.852a1.836,1.836,0,0,0,1.021-.264,1.653,1.653,0,0,0,.581-.6V14.3h-.957q-1.719,0-1.719,1.543a.942.942,0,0,0,.3.728A1.1,1.1,0,0,0,28.75,16.852Zm12.256-.82a.76.76,0,0,0-.439-.674,6.685,6.685,0,0,0-1.67-.527,7.615,7.615,0,0,1-2.031-.718,3.4,3.4,0,0,1-1.221-1.079,2.577,2.577,0,0,1-.42-1.455,2.92,2.92,0,0,1,1.2-2.4,4.948,4.948,0,0,1,3.145-.942,5.482,5.482,0,0,1,3.359.947,2.962,2.962,0,0,1,1.27,2.49H40.9q0-1.27-1.338-1.27a1.326,1.326,0,0,0-.869.288.892.892,0,0,0-.352.718.819.819,0,0,0,.43.713,4.06,4.06,0,0,0,1.372.449,11.857,11.857,0,0,1,1.655.42,3.007,3.007,0,0,1,2.383,2.939A2.767,2.767,0,0,1,42.9,18.287a5.632,5.632,0,0,1-3.325.908,5.747,5.747,0,0,1-2.422-.488,4.05,4.05,0,0,1-1.66-1.328,3.007,3.007,0,0,1-.6-1.768h3.076a1.272,1.272,0,0,0,.488,1.069,2.009,2.009,0,0,0,1.2.337,1.58,1.58,0,0,0,1.011-.273A.875.875,0,0,0,41.006,16.031ZM50.83,19.2a5.432,5.432,0,0,1-3.936-1.45,5.008,5.008,0,0,1-1.5-3.774V13.7a6.489,6.489,0,0,1,.6-2.861,4.395,4.395,0,0,1,1.753-1.919,5.292,5.292,0,0,1,2.734-.679A4.574,4.574,0,0,1,53.994,9.62a5.43,5.43,0,0,1,1.289,3.853v1.279H48.74a2.372,2.372,0,0,0,.771,1.4,2.3,2.3,0,0,0,1.543.508A2.958,2.958,0,0,0,53.5,15.563L55,17.34a4.2,4.2,0,0,1-1.743,1.353A5.891,5.891,0,0,1,50.83,19.2Zm-.371-8.418q-1.445,0-1.719,1.914h3.32v-.254a1.63,1.63,0,0,0-.4-1.226A1.593,1.593,0,0,0,50.459,10.777Zm5.762,2.861a7.134,7.134,0,0,1,.527-2.832,4.245,4.245,0,0,1,1.514-1.9,3.99,3.99,0,0,1,2.295-.669,3.173,3.173,0,0,1,2.578,1.113l.117-.918H66.24V18.6a4.455,4.455,0,0,1-.649,2.427,4.167,4.167,0,0,1-1.88,1.582,6.91,6.91,0,0,1-2.852.552,5.961,5.961,0,0,1-2.251-.439,4.063,4.063,0,0,1-1.665-1.143l1.377-1.934a3.018,3.018,0,0,0,2.422,1.084,1.96,1.96,0,0,0,2.188-2.246V18.15A3.09,3.09,0,0,1,60.537,19.2a3.819,3.819,0,0,1-3.125-1.479,6.13,6.13,0,0,1-1.191-3.96Zm3.3.205A3.759,3.759,0,0,0,60.01,15.9a1.541,1.541,0,0,0,1.367.757,1.748,1.748,0,0,0,1.553-.713V11.5a1.7,1.7,0,0,0-1.533-.723,1.551,1.551,0,0,0-1.377.786A4.287,4.287,0,0,0,59.521,13.844ZM74.4,17.857A3.393,3.393,0,0,1,71.582,19.2a3.328,3.328,0,0,1-2.632-1.011,4.251,4.251,0,0,1-.894-2.905V8.434h3.291V15.3a1.183,1.183,0,0,0,1.318,1.357,1.72,1.72,0,0,0,1.611-.811V8.434h3.311V19H74.5Zm11.377-6.445L84.7,11.334a1.947,1.947,0,0,0-1.992.977V19H79.414V8.434H82.5l.107,1.357a2.548,2.548,0,0,1,2.314-1.553,3.209,3.209,0,0,1,.918.117Zm.42,2.207a6.236,6.236,0,0,1,.615-2.817,4.4,4.4,0,0,1,1.768-1.9,5.323,5.323,0,0,1,2.705-.664,4.858,4.858,0,0,1,3.74,1.47,5.64,5.64,0,0,1,1.367,4v.117a5.472,5.472,0,0,1-1.372,3.921,4.871,4.871,0,0,1-3.716,1.45,4.927,4.927,0,0,1-3.623-1.353,5.29,5.29,0,0,1-1.475-3.667Zm3.291.205a3.932,3.932,0,0,0,.459,2.148,1.529,1.529,0,0,0,1.357.684q1.758,0,1.8-2.705v-.332q0-2.842-1.816-2.842-1.65,0-1.787,2.451Zm13.887,2.207a.76.76,0,0,0-.439-.674,6.685,6.685,0,0,0-1.67-.527,7.615,7.615,0,0,1-2.031-.718,3.4,3.4,0,0,1-1.221-1.079,2.577,2.577,0,0,1-.42-1.455,2.92,2.92,0,0,1,1.2-2.4,4.948,4.948,0,0,1,3.145-.942,5.482,5.482,0,0,1,3.359.947,2.962,2.962,0,0,1,1.27,2.49h-3.3q0-1.27-1.338-1.27a1.326,1.326,0,0,0-.869.288.892.892,0,0,0-.352.718.819.819,0,0,0,.43.713,4.06,4.06,0,0,0,1.372.449,11.857,11.857,0,0,1,1.655.42,3.007,3.007,0,0,1,2.383,2.939,2.767,2.767,0,0,1-1.284,2.354,5.631,5.631,0,0,1-3.325.908,5.747,5.747,0,0,1-2.422-.488,4.05,4.05,0,0,1-1.66-1.328,3.007,3.007,0,0,1-.6-1.768h3.076a1.272,1.272,0,0,0,.488,1.069,2.009,2.009,0,0,0,1.2.337,1.58,1.58,0,0,0,1.011-.273A.875.875,0,0,0,103.379,16.031Z" transform="translate(658 -10680)" fill="#12263f"/>
    <path id="Trazado_218526" data-name="Trazado 218526" d="M110.085,127.213l68.135,68.1a96.217,96.217,0,1,0-136.236,0Z" transform="translate(674.115 -11039.115)" fill="#f67409"/>
    <g transform="matrix(1, 0, 0, 1, 659.07, -11088)" filter="url(#Trazado_218527)">
      <path id="Trazado_218527-2" data-name="Trazado 218527" d="M181.056,116.892A81.428,81.428,0,1,1,130.6,41.484a81.428,81.428,0,0,1,50.458,75.408Z" transform="translate(25.74 59.34)" fill="#fff"/>
    </g>
    <path id="Trazado_218528" data-name="Trazado 218528" d="M88.373,103.893v-1.148h2.958v1.148Zm-4.35,0-2.993-.174v-1.114h2.958Zm11.692-.383v-1.148l2.923-.313v1.114Zm-19.035-.174-2.958-.383V101.84l2.923.383Zm26.273-.835v-1.114l2.888-.592-.07,1.183Zm-33.546-.278-2.923-.626.278-1.114,2.888.626Zm40.714-1.322-.278-1.114,2.819-.8.348,1.079c-1.148.278-2.088.557-3.062.8Zm-47.848-.418-2.853-.87.348-1.079,2.819.87Zm54.877-1.775-.383-1.079c.9-.313,1.844-.661,2.749-1.044l.418,1.079ZM55.14,98.151l-2.784-1.114.418-1.044,2.749,1.079Zm68.622-2.227-.592-.9,2.645-1.253.522,1.009Zm-75.408-.661L45.71,93.94l.522-1.009,2.61,1.322Zm81.985-2.645-.557-1.079,2.54-1.462.592.974Zm-88.457-.766-2.575-1.531.592-.974,2.54,1.531ZM136.6,88.79l-.661-.974c.835-.522,1.636-1.079,2.436-1.67l.661.94ZM35.688,87.92l-2.4-1.775.661-.9,2.4,1.74Zm106.866-3.48-.7-.9,2.262-1.844.731.87ZM29.842,83.466,27.58,81.552l.766-.87L30.573,82.6Zm118.314-3.828-.8-.835c.731-.661,1.427-1.357,2.123-2.053l.8.8q-1.148,1.1-2.192,2.088ZM24.344,78.559,23.3,77.62l.8-.8,1.044,1.009Z" transform="translate(697.463 -10926.015)" fill="gray"/>
    <path id="Trazado_218529" data-name="Trazado 218529" d="M51.9,88.731a6.055,6.055,0,1,0-6.612,6.02V141.8a3.306,3.306,0,1,0,1.148,0V94.752a6.09,6.09,0,0,0,5.463-6.02Z" transform="translate(738.355 -10911.341)" fill="#ff5d2e"/>
    <path id="Trazado_218530" data-name="Trazado 218530" d="M169.229,107.33l-68.2-68.1a96.217,96.217,0,1,0,136.236,0Z" transform="translate(820.524 -11019.059)" fill="#fece10"/>
    <g transform="matrix(1, 0, 0, 1, 659.07, -11088)" filter="url(#Trazado_218531)">
      <path id="Trazado_218531-2" data-name="Trazado 218531" d="M77.16,116.722a81.428,81.428,0,1,1,50.458,75.408A81.428,81.428,0,0,1,77.16,116.722Z" transform="translate(171.95 59.41)" fill="#f9fcf7"/>
    </g>
    <path id="Trazado_218532" data-name="Trazado 218532" d="M144.3,33v1.148h-2.958V33Zm4.385,0,2.958.174v1.114h-2.923Zm-11.692.383v1.148l-2.923.313V33.731Zm19,.174,2.958.383v1.114l-2.923-.383Zm-26.238.87.174,1.114-2.853.592-.244-1.114Zm33.546.278,2.923.626-.278,1.114-2.888-.626Zm-40.714,1.322.278,1.114-2.819.8-.348-1.079a20.578,20.578,0,0,1,2.853-.835Zm47.848.418,2.853.87-.348,1.079-2.819-.87ZM115.553,38.22l.383,1.079c-.9.313-1.844.661-2.749,1.044l-.418-1.079Zm61.837.522,2.784,1.114-.418,1.044-2.749-1.079Zm-68.518,2.227.452,1.044-2.645,1.253-.522-1.009Zm75.408.661,2.679,1.322-.522,1.009-2.645-1.322Zm-81.985,2.645.557,1.009-2.68,1.636-.592-.974Zm88.492.766,2.54,1.531-.592.974-2.54-1.531ZM96.031,48.1l.661.974c-.835.522-1.636,1.079-2.436,1.67l-.661-.94Zm100.915.87,2.4,1.775-.661.9-2.4-1.74ZM90.08,52.452l.731.87-2.3,1.879-.731-.87Zm112.712.974,2.262,1.914-.766.87L202.062,54.3ZM84.513,57.359l.8.835c-.731.661-1.427,1.357-2.123,2.053l-.8-.835Zm123.743,1.079,1.044,1.009-.8.8-1.044-1.009Z" transform="translate(843.996 -11034.508)" fill="gray"/>
    <path id="Trazado_218533" data-name="Trazado 218533" d="M98.86,75.633a6.055,6.055,0,1,0,6.612-6.02V22.566a3.306,3.306,0,1,0-1.148,0V69.613A6.09,6.09,0,0,0,98.86,75.633Z" transform="translate(884.839 -11076.654)" fill="#fbb03b"/>
    <path id="Trazado_218534" data-name="Trazado 218534" d="M228.415,127.213l68.135,68.1a96.217,96.217,0,1,0-136.236,0Z" transform="translate(967.554 -11039.115)" fill="#54aa13"/>
    <g transform="matrix(1, 0, 0, 1, 659.07, -11088)" filter="url(#Trazado_218535)">
      <path id="Trazado_218535-2" data-name="Trazado 218535" d="M299.456,116.9a81.5,81.5,0,1,1-50.492-75.408A81.5,81.5,0,0,1,299.456,116.9Z" transform="translate(319.01 59.34)" fill="#fff"/>
    </g>
    <path id="Trazado_218536" data-name="Trazado 218536" d="M206.38,103.893v-1.148h2.958v1.148Zm-4.385,0-2.958-.174v-1.114h2.923Zm11.692-.383v-1.148l2.923-.313v1.114Zm-19-.174-2.958-.383V101.84l2.923.383Zm26.273-.835-.209-1.114,2.888-.592.244,1.114Zm-33.546-.278-2.923-.626.278-1.114,2.854.626Zm40.714-1.322-.278-1.114,2.819-.8.313,1.079c-.94.278-1.914.557-2.853.8Zm-47.848-.418-2.854-.87.348-1.079,2.819.87Zm54.842-1.775-.383-1.079c.94-.313,1.844-.661,2.784-1.044l.418,1.079Zm-61.837-.522-2.749-1.114.418-1.044,2.749,1.079Zm68.657-2.227-.487-1.044,2.68-1.253.487,1.009ZM166.536,95.3l-2.68-1.322.522-1.009,2.645,1.322Zm81.95-2.645-.557-1.009c.87-.452,1.74-.974,2.575-1.462l.592.974Zm-88.318-.8-2.54-1.531.592-.974,2.54,1.531Zm94.721-3.062-.626-.974c.8-.522,1.635-1.079,2.436-1.67l.661.94Zm-100.915-.87-2.4-1.775.661-.9,2.4,1.74ZM260.84,84.44l-.731-.9,2.3-1.844.731.87Zm-112.712-.974-2.262-1.914.731-.87,2.262,1.914Zm118.314-3.828-.766-.835L267.8,76.75l.8.8c-.9.731-1.635,1.427-2.366,2.088ZM142.734,78.56,141.69,77.55l.8-.8,1.044,1.009Z" transform="translate(991.05 -10926.015)" fill="gray"/>
    <path id="Trazado_218537" data-name="Trazado 218537" d="M170.23,88.731a6.055,6.055,0,1,0-6.612,6.02V141.8a3.48,3.48,0,1,0,1.114,0V94.752A6.09,6.09,0,0,0,170.23,88.731Z" transform="translate(1031.794 -10911.341)" fill="#8ac900"/>
    <path id="Trazado_218538" data-name="Trazado 218538" d="M287.51,107.33l-68.135-68.1a96.217,96.217,0,1,0,136.235,0Z" transform="translate(1114.013 -11019.059)" fill="#f67409"/>
    <path id="Trazado_218566" data-name="Trazado 218566" d="M287.51,107.33l-68.135-68.1a96.217,96.217,0,1,0,136.235,0Z" transform="translate(1526.725 -11019.059)" fill="#54aa13"/>
    <g transform="matrix(1, 0, 0, 1, 659.07, -11088)" filter="url(#Trazado_218539)">
      <path id="Trazado_218539-2" data-name="Trazado 218539" d="M195.49,116.732a81.428,81.428,0,1,1,50.492,75.408,81.428,81.428,0,0,1-50.492-75.408Z" transform="translate(465.39 59.4)" fill="#fff"/>
    </g>
    <g transform="matrix(1, 0, 0, 1, 659.07, -11088)" filter="url(#Trazado_218567)">
      <path id="Trazado_218567-2" data-name="Trazado 218567" d="M195.49,116.732a81.428,81.428,0,1,1,50.492,75.408,81.428,81.428,0,0,1-50.492-75.408Z" transform="translate(878.1 59.4)" fill="#fff"/>
    </g>
    <path id="Trazado_218540" data-name="Trazado 218540" d="M262.75,33v1.148h-2.923V33Zm4.35,0,2.993.174v1.114h-2.958Zm-11.692.383v1.148l-2.923.313V33.731Zm19.035.174,2.958.383-.174,1.114L274.3,34.67Zm-26.308.835.209,1.114-2.888.592-.244-1.114Zm33.546.278,2.923.626-.244,1.114-2.888-.626ZM241,35.993l.278,1.114-2.819.8-.348-1.079c.94-.348,1.984-.557,2.888-.8Zm47.813.487,2.854.87-.348,1.079-2.819-.87Zm-54.877,1.775.383,1.079c-.9.313-1.844.661-2.749,1.044l-.418-1.079c.94-.383,1.983-.766,2.819-1.079Zm61.837.522,2.784,1.114-.452,1.044-2.68-.974ZM227.152,41l.452,1.044L224.959,43.3l-.522-1.009Zm75.373.661,2.679,1.322L304.682,44l-2.645-1.322Zm-81.95,2.645.557,1.009-2.54,1.462L218,45.806c.87-.557,1.74-1.044,2.61-1.531Zm88.457.766,2.575,1.531-.626.974-2.505-1.531Zm-94.721,3.062.626.974q-1.183.8-2.4,1.67l-.661-.94Zm100.915.87c.835.592,1.635,1.148,2.436,1.775l-.7.9-2.366-1.74ZM208.4,52.487l.7.87-2.262,1.879-.731-.87Zm112.712.974,2.262,1.914-.766.87-2.227-1.914ZM202.793,57.289l.8.835c-.731.661-1.427,1.357-2.123,2.053l-.8-.835a27.558,27.558,0,0,1,2.192-1.983Zm123.743,1.079,1.044,1.009-.8.8-1.044-1.009Z" transform="translate(1137.311 -11034.508)" fill="gray"/>
    <path id="Trazado_218568" data-name="Trazado 218568" d="M262.75,33v1.148h-2.923V33Zm4.35,0,2.993.174v1.114h-2.958Zm-11.692.383v1.148l-2.923.313V33.731Zm19.035.174,2.958.383-.174,1.114L274.3,34.67Zm-26.308.835.209,1.114-2.888.592-.244-1.114Zm33.546.278,2.923.626-.244,1.114-2.888-.626ZM241,35.993l.278,1.114-2.819.8-.348-1.079c.94-.348,1.984-.557,2.888-.8Zm47.813.487,2.854.87-.348,1.079-2.819-.87Zm-54.877,1.775.383,1.079c-.9.313-1.844.661-2.749,1.044l-.418-1.079c.94-.383,1.983-.766,2.819-1.079Zm61.837.522,2.784,1.114-.452,1.044-2.68-.974ZM227.152,41l.452,1.044L224.959,43.3l-.522-1.009Zm75.373.661,2.679,1.322L304.682,44l-2.645-1.322Zm-81.95,2.645.557,1.009-2.54,1.462L218,45.806c.87-.557,1.74-1.044,2.61-1.531Zm88.457.766,2.575,1.531-.626.974-2.505-1.531Zm-94.721,3.062.626.974q-1.183.8-2.4,1.67l-.661-.94Zm100.915.87c.835.592,1.635,1.148,2.436,1.775l-.7.9-2.366-1.74ZM208.4,52.487l.7.87-2.262,1.879-.731-.87Zm112.712.974,2.262,1.914-.766.87-2.227-1.914ZM202.793,57.289l.8.835c-.731.661-1.427,1.357-2.123,2.053l-.8-.835a27.558,27.558,0,0,1,2.192-1.983Zm123.743,1.079,1.044,1.009-.8.8-1.044-1.009Z" transform="translate(1550.023 -11034.508)" fill="gray"/>
    <path id="Trazado_218541" data-name="Trazado 218541" d="M217.19,75.883a6.055,6.055,0,1,0,6.612-6.02V22.816a3.48,3.48,0,1,0-1.148,0V69.863A6.09,6.09,0,0,0,217.19,75.883Z" transform="translate(1178.278 -11076.903)" fill="#f67409"/>
    <path id="Trazado_218565" data-name="Trazado 218565" d="M217.19,75.883a6.055,6.055,0,1,0,6.612-6.02V22.816a3.48,3.48,0,1,0-1.148,0V69.863A6.09,6.09,0,0,0,217.19,75.883Z" transform="translate(1590.99 -11076.903)" fill="#54aa13"/>
    <path id="Trazado_218542" data-name="Trazado 218542" d="M346.757,127.226l68.1,68.1a96.217,96.217,0,1,0-136.2,0Z" transform="translate(1260.98 -11039.127)" fill="#fece10"/>
    <g transform="matrix(1, 0, 0, 1, 659.07, -11088)" filter="url(#Trazado_218543)">
      <path id="Trazado_218543-2" data-name="Trazado 218543" d="M417.676,116.892a81.428,81.428,0,1,1-50.458-75.408,81.428,81.428,0,0,1,50.458,75.408Z" transform="translate(612.52 59.34)" fill="#fff"/>
    </g>
    <path id="Trazado_218544" data-name="Trazado 218544" d="M324.725,103.893v-1.148h2.923v1.148Zm-4.35,0-2.993-.174v-1.114h2.958Zm11.692-.383v-1.148l2.923-.313v1.114Zm-19.035-.174-2.958-.383.174-1.114,2.923.383Zm26.308-.835-.209-1.114,2.888-.592.244,1.114Zm-33.546-.278-2.923-.626.244-1.114,2.888.626Zm40.714-1.322-.313-1.114,2.853-.8.313,1.079c-.94.278-1.914.557-2.853.8Zm-47.848-.418-2.888-.87.348-1.079,2.853.87ZM353.5,98.708l-.383-1.079c.9-.313,1.844-.661,2.749-1.044l.418,1.079Zm-61.837-.557-2.784-1.114.452-1.044,2.749,1.079Zm68.657-2.227-.487-1.044,2.679-1.253L363,94.636Zm-75.408-.661-2.679-1.322.522-1.009,2.645,1.322Zm81.95-2.645-.557-1.009c.87-.452,1.705-.974,2.54-1.462l.592.974C368.606,91.539,367.875,92.131,366.866,92.618Zm-88.457-.766c-.87-.487-1.705-1.009-2.54-1.531l.592-.974,2.505,1.531Zm94.721-3.062-.626-.974c.8-.522,1.636-1.079,2.4-1.67l.7.94Zm-100.915-.87-2.436-1.775.7-.9c.766.592,1.6,1.183,2.4,1.74Zm106.831-3.48-.7-.9,2.262-1.844.766.87Zm-112.677-.974-2.3-1.914.766-.87L267.1,82.6Zm118.314-3.828-.766-.835c.7-.661,1.427-1.357,2.088-2.053l.835.8c-.766.731-1.566,1.427-2.227,2.088ZM260.94,78.559l-.94-.94.835-.8c.313.348.661.661,1.009,1.009Z" transform="translate(1284.439 -10926.015)" fill="gray"/>
    <path id="Trazado_218545" data-name="Trazado 218545" d="M288.55,88.731a6.055,6.055,0,1,0-6.612,6.02V141.8a3.48,3.48,0,1,0,1.148,0V94.752a6.09,6.09,0,0,0,5.464-6.02Z" transform="translate(1325.208 -10911.341)" fill="#fece10"/>
    <g id="seguro-de-vida" transform="translate(742.735 -10952.152)">
      <g id="Layer_35" transform="translate(2.04 1.5)">
        <g id="Grupo_149404" data-name="Grupo 149404">
          <g id="Grupo_149403" data-name="Grupo 149403">
            <path id="Trazado_218737" data-name="Trazado 218737" d="M55.5,24.677,41.745,29.694a5.793,5.793,0,0,0-4.931-6.315l-3.2-.606A9.526,9.526,0,0,1,29.635,21.3a12.352,12.352,0,0,0-13.235.433l-1.125.779v-1.3a1.33,1.33,0,0,0-1.3-1.3H3.338a1.33,1.33,0,0,0-1.3,1.3V43.794a1.33,1.33,0,0,0,1.3,1.3h10.64a1.33,1.33,0,0,0,1.3-1.3v-.779l11.678,1.817a42.831,42.831,0,0,0,4.412.346c5.19,0,9-1.471,13.581-4.152l16.868-7.872a4.19,4.19,0,0,0,1.9-5.623c-1.038-2.422-4.066-4.412-8.218-2.855ZM12.68,42.67H4.635V22.687H12.68ZM60.69,30.819,43.822,38.777a.085.085,0,0,0-.087.087C37.507,42.41,33.7,43.275,27.3,42.41L15.275,40.594V25.888l2.6-1.9a9.89,9.89,0,0,1,10.467-.26,14.152,14.152,0,0,0,4.844,1.73l3.2.606a3.176,3.176,0,0,1,2.768,3.547,3.938,3.938,0,0,1-.692,1.644,2.929,2.929,0,0,1-2.768,1.125l-7.353-1.125a1.309,1.309,0,1,0-.346,2.6l7.353,1.125a2.943,2.943,0,0,0,.865.087,5.394,5.394,0,0,0,4.066-1.817L56.451,27.1c2.768-1.038,4.325.173,4.931,1.471.173.606.346,1.817-.692,2.249Z" transform="translate(-2.04 32.588)" fill="#f67409" stroke="#f67409" stroke-width="1"/>
            <path id="Trazado_218738" data-name="Trazado 218738" d="M66,31l-3.806-1.9a15.849,15.849,0,0,0,3.2-14.879A17.971,17.971,0,0,0,52.943,1.932C47.752.635,42.562,2.278,38.41,6.6L36.766,8.247,35.123,6.6C30.971,2.278,25.78.635,20.5,1.932A17.971,17.971,0,0,0,8.047,14.216a16.123,16.123,0,0,0,4.239,16.09L33.739,52.537a4.181,4.181,0,0,0,6.055,0l5.536-5.8c2.509,3.893,5.969,6.661,8.823,7.439a.955.955,0,0,0,.692,0C59.69,52.8,66.7,45.357,66.7,36.793V32.036A1.124,1.124,0,0,0,66,31ZM37.891,50.721a1.573,1.573,0,0,1-2.336,0L14.189,28.489c-3.72-3.893-5.017-8.737-3.633-13.495A15.41,15.41,0,0,1,21.109,4.441C25.434,3.4,29.76,4.787,33.22,8.42L35.728,11.1a1.358,1.358,0,0,0,1.9,0L40.14,8.42C43.6,4.787,47.925,3.4,52.251,4.441a15.57,15.57,0,0,1,10.64,10.467A13.242,13.242,0,0,1,59.777,27.8l-4.844-2.422a1.474,1.474,0,0,0-1.211,0L42.735,30.911a1.35,1.35,0,0,0-.692,1.125v4.758a17.233,17.233,0,0,0,1.817,7.526ZM64.1,36.88c0,7.266-6.055,13.495-9.688,14.792-3.547-1.3-9.6-7.526-9.6-14.792V32.987L54.5,28.143l9.688,4.844Z" transform="translate(8.043 -1.5)" fill="#f67409" stroke="#f67409" stroke-width="1"/>
            <path id="Trazado_218739" data-name="Trazado 218739" d="M24.126,17.111a1.29,1.29,0,0,0-1.644,1.99l2.6,2.163a1.537,1.537,0,0,0,.865.346h.087a1.065,1.065,0,0,0,.865-.433l4.844-5.709a1.29,1.29,0,1,0-1.99-1.644L25.77,18.582Z" transform="translate(35.562 20.864)" fill="#f67409" stroke="#f67409" stroke-width="1"/>
          </g>
        </g>
      </g>
    </g>
    <g id="seguro-de-coche" transform="translate(948.91 -10952.699)">
      <g id="Page-1" transform="translate(0 0)">
        <g id="_007---Car-Insurance" data-name="007---Car-Insurance">
          <path id="Shape" d="M13.75,31.549l10.658,7.587a1.364,1.364,0,0,0,1.583,0l10.658-7.587a8.432,8.432,0,0,0,3.558-6.841V8.565a1.364,1.364,0,0,0-.819-1.252L25.745,1.419a1.364,1.364,0,0,0-1.081,0L11.021,7.313A1.364,1.364,0,0,0,10.2,8.565V24.708A8.433,8.433,0,0,0,13.75,31.549ZM12.92,9.462,25.2,4.158l12.279,5.3V24.708a5.7,5.7,0,0,1-2.414,4.627L25.2,36.351l-9.866-7.024a5.7,5.7,0,0,1-2.414-4.618Z" transform="translate(36.197 4.637)" fill="#fece2f"/>
          <path id="Shape-2" data-name="Shape" d="M17.4,19.7a1.364,1.364,0,0,0,1.884-.239L30.2,5.817a1.365,1.365,0,1,0-2.131-1.705l-10.1,12.612-4.392-3.3a1.364,1.364,0,0,0-1.637,2.183Z" transform="translate(40.446 12.772)" fill="#fece2f"/>
          <path id="Shape-3" data-name="Shape" d="M2.729,72.311H4.093v5.457a4.093,4.093,0,0,0,4.093,4.093h8.186a4.093,4.093,0,0,0,4.093-4.093V72.311H53.21v5.457A4.093,4.093,0,0,0,57.3,81.862H65.49a4.093,4.093,0,0,0,4.093-4.093V72.311h1.364a2.729,2.729,0,0,0,2.729-2.729V49.117a6.75,6.75,0,0,0-2.359-5.144l4.693-3.34a13.9,13.9,0,0,0,5.852-11.287V9.616a1.364,1.364,0,0,0-.819-1.252L61.942.112a1.364,1.364,0,0,0-1.081,0L41.75,8.363a1.364,1.364,0,0,0-.819,1.252v5.392H20.288a6.822,6.822,0,0,0-6.432,4.554L5.82,42.4A6.812,6.812,0,0,0,0,49.117V69.582A2.729,2.729,0,0,0,2.729,72.311Zm15.008,5.457a1.364,1.364,0,0,1-1.364,1.364H8.186a1.364,1.364,0,0,1-1.364-1.364V72.311H17.737Zm-5.457-8.186H9.551V66.854h2.729Zm54.575,8.186a1.364,1.364,0,0,1-1.364,1.364H57.3a1.364,1.364,0,0,1-1.364-1.364V72.311H66.854Zm-2.729-8.186H61.4V66.854h2.729ZM43.66,10.512,61.4,2.85l17.737,7.662V29.34a11.165,11.165,0,0,1-4.706,9.065L61.4,47.687,48.365,38.409a11.164,11.164,0,0,1-4.706-9.063ZM64.125,50.481a1.364,1.364,0,0,1,1.364,1.364v2.729a1.364,1.364,0,0,1-1.364,1.364H55.939a1.364,1.364,0,0,1-1.364-1.364,4.093,4.093,0,0,1,4.093-4.093ZM40.931,23.194v2.729H31.38V23.194Zm0-2.729H38.2V17.736h2.729Zm-24.5,0a4.093,4.093,0,0,1,3.857-2.729H35.473v2.729H31.38a2.729,2.729,0,0,0-2.729,2.729v2.729a2.729,2.729,0,0,0,2.729,2.729h9.551v.694a13.9,13.9,0,0,0,5.852,11.287L49.117,42.3H8.748ZM2.729,49.117a4.093,4.093,0,0,1,4.093-4.093H52.951l4.123,2.936a6.822,6.822,0,0,0-5.228,6.614,4.093,4.093,0,0,0,4.093,4.093h8.186a4.093,4.093,0,0,0,4.093-4.093V51.846a4.093,4.093,0,0,0-2.613-3.805l3.378-2.405a4.036,4.036,0,0,1,1.963,3.482V69.582H66.854V66.854a2.729,2.729,0,0,0-2.729-2.729H61.4a2.729,2.729,0,0,0-2.729,2.729v2.729H15.008V66.854a2.729,2.729,0,0,0-2.729-2.729H9.551a2.729,2.729,0,0,0-2.729,2.729v2.729H2.729Z" transform="translate(0 0)" fill="#fece2f"/>
          <path id="Shape-4" data-name="Shape" d="M14.29,4.5H11.955A4.1,4.1,0,0,0,8.094,7.229L2.972,21.784a1.365,1.365,0,0,0,2.575.906L10.669,8.14a1.364,1.364,0,0,1,1.287-.911H14.29a1.364,1.364,0,1,0,0-2.729Z" transform="translate(10.269 15.965)" fill="#fece2f"/>
          <path id="Shape-5" data-name="Shape" d="M5.293,21.415h8.186a4.093,4.093,0,0,0,4.093-4.093A6.83,6.83,0,0,0,10.751,10.5H5.293A4.093,4.093,0,0,0,1.2,14.593v2.729A4.093,4.093,0,0,0,5.293,21.415ZM3.929,14.593a1.364,1.364,0,0,1,1.364-1.364h5.457a4.093,4.093,0,0,1,4.093,4.093,1.364,1.364,0,0,1-1.364,1.364H5.293a1.364,1.364,0,0,1-1.364-1.364Z" transform="translate(4.257 37.252)" fill="#fece2f"/>
          <path id="Shape-6" data-name="Shape" d="M8.129,23.215h19.1a2.729,2.729,0,0,0,2.729-2.729V15.029A2.729,2.729,0,0,0,27.23,12.3H8.129A2.729,2.729,0,0,0,5.4,15.029v5.457A2.729,2.729,0,0,0,8.129,23.215Zm0-8.186h19.1v5.457H8.129Z" transform="translate(19.159 43.639)" fill="#fece2f"/>
        </g>
      </g>
    </g>
    <g id="seguro-de-hogar" transform="translate(1166 -10950.651)">
      <g id="Page-1-2" data-name="Page-1" transform="translate(0 0)">
        <g id="_041---Home-Insurance-Documents" data-name="041---Home-Insurance-Documents">
          <path id="Shape-7" data-name="Shape" d="M79.015,48.54l-13.3-5.747a1.33,1.33,0,0,0-1.054,0L61.19,44.3V18.623c0-.029-.015-.053-.016-.082a1.32,1.32,0,0,0-.072-.351,1.252,1.252,0,0,0-.044-.125,1.347,1.347,0,0,0-.254-.378L43.512.394a1.331,1.331,0,0,0-.388-.261.888.888,0,0,0-.117-.045,1.365,1.365,0,0,0-.364-.073c-.025,0-.048-.015-.074-.015H3.991A3.991,3.991,0,0,0,0,3.991V75.823a3.991,3.991,0,0,0,3.991,3.991H57.2a3.983,3.983,0,0,0,3.759-2.7l3.451,2.456a1.33,1.33,0,0,0,1.543,0l10.392-7.4a8.222,8.222,0,0,0,3.469-6.67V49.761A1.33,1.33,0,0,0,79.015,48.54ZM43.9,4.541,56.649,17.293H43.9ZM58.53,75.823a1.33,1.33,0,0,1-1.33,1.33H3.991a1.33,1.33,0,0,1-1.33-1.33V3.991a1.33,1.33,0,0,1,1.33-1.33H41.237V17.293a2.66,2.66,0,0,0,2.66,2.66H58.53V45.439l-7.183,3.1a1.33,1.33,0,0,0-.8,1.221V65.5a8.222,8.222,0,0,0,3.469,6.67l4.512,3.211ZM77.153,65.5A5.555,5.555,0,0,1,74.8,70L65.181,76.85,55.562,70a5.557,5.557,0,0,1-2.353-4.5V50.635L60.35,47.55l.055-.024,4.777-2.063,11.972,5.172Z" transform="translate(0 0)" fill="#54aa13"/>
          <path id="Shape-8" data-name="Shape" d="M14.728,21.5a1.33,1.33,0,1,0-1.6,2.128l5.321,3.991a1.33,1.33,0,0,0,1.837-.233l10.642-13.3a1.331,1.331,0,1,0-2.078-1.663l-9.836,12.3Z" transform="translate(43.269 40.931)" fill="#54aa13"/>
          <path id="Shape-9" data-name="Shape" d="M23.616,3.866,2.332,19.829A1.33,1.33,0,0,0,1.8,20.893v6.651a1.33,1.33,0,0,0,2.128,1.064l3.193-2.394V46.167a2.66,2.66,0,0,0,2.66,2.66H39.046a2.66,2.66,0,0,0,2.66-2.66V26.214L44.9,28.608a1.33,1.33,0,0,0,2.128-1.064V20.893a1.33,1.33,0,0,0-.532-1.064L25.212,3.866A1.33,1.33,0,0,0,23.616,3.866Zm-4.523,42.3V30.2H29.735v6.651H28.4a1.33,1.33,0,0,0,0,2.66h1.33v6.651Zm19.953,0H32.4V30.2a2.66,2.66,0,0,0-2.66-2.66H19.093a2.66,2.66,0,0,0-2.66,2.66V46.167H9.781V24.218L24.414,13.244,39.046,24.218Zm5.321-21.284L25.212,10.517a1.33,1.33,0,0,0-1.6,0L4.46,24.884V21.558L24.414,6.593,44.367,21.558Z" transform="translate(6.181 12.363)" fill="#54aa13"/>
          <path id="Shape-10" data-name="Shape" d="M2.83,4.16H26.774a1.33,1.33,0,1,0,0-2.66H2.83a1.33,1.33,0,1,0,0,2.66Z" transform="translate(5.151 5.151)" fill="#54aa13"/>
          <path id="Shape-11" data-name="Shape" d="M2.83,5.36H20.123a1.33,1.33,0,0,0,0-2.66H2.83a1.33,1.33,0,1,0,0,2.66Z" transform="translate(5.151 9.272)" fill="#54aa13"/>
          <path id="Shape-12" data-name="Shape" d="M2.83,6.56h9.312a1.33,1.33,0,1,0,0-2.66H2.83a1.33,1.33,0,1,0,0,2.66Z" transform="translate(5.151 13.393)" fill="#54aa13"/>
          <path id="Shape-13" data-name="Shape" d="M2.83,17.06H26.774a1.33,1.33,0,1,0,0-2.66H2.83a1.33,1.33,0,1,0,0,2.66Z" transform="translate(5.151 49.451)" fill="#54aa13"/>
          <path id="Shape-14" data-name="Shape" d="M9.43,14.4a1.33,1.33,0,1,0,0,2.66h9.312a1.33,1.33,0,1,0,0-2.66Z" transform="translate(27.816 49.451)" fill="#54aa13"/>
          <path id="Shape-15" data-name="Shape" d="M16.132,15.6H2.83a1.33,1.33,0,1,0,0,2.66h13.3a1.33,1.33,0,1,0,0-2.66Z" transform="translate(5.151 53.572)" fill="#54aa13"/>
          <path id="Shape-16" data-name="Shape" d="M28.314,15.6H7.03a1.33,1.33,0,0,0,0,2.66H28.314a1.33,1.33,0,1,0,0-2.66Z" transform="translate(19.574 53.572)" fill="#54aa13"/>
        </g>
      </g>
    </g>
    <g id="mano" transform="translate(1350 -10958.904)">
      <g id="g3006" transform="translate(0 0.001)">
        <g id="g3008">
          <g id="g3010" clip-path="url(#clip-path)">
            <g id="g3016" transform="translate(17.838 62.142)">
              <path id="path3018" d="M-56.368-11.121l17.089-8.774a5.288,5.288,0,0,1,7.048,1.662,5.267,5.267,0,0,1-1.662,7.053L-58.984,6.688c-6.8,4.534-9.669,2.749-16.823.81L-96.162,2.054a5.344,5.344,0,0,0-1.976-.368h-6.131" transform="translate(104.269 20.571)" fill="none" stroke="#f67409" stroke-linecap="round" stroke-linejoin="round" stroke-miterlimit="10" stroke-width="3.5"/>
            </g>
            <g id="g3020" transform="translate(3.471 60.837)">
              <path id="path3022" d="M-3.824,0H4.044a3.264,3.264,0,0,1,3.25,3.255V23.893a3.263,3.263,0,0,1-3.25,3.25H-3.824a3.263,3.263,0,0,1-3.25-3.25V3.255A3.264,3.264,0,0,1-3.824,0Z" transform="translate(7.074)" fill="none" stroke="#f67409" stroke-linecap="round" stroke-linejoin="round" stroke-miterlimit="10" stroke-width="3.5"/>
            </g>
            <g id="g3024" transform="translate(17.838 61.596)">
              <path id="path3026" d="M0-3.319H4.091a7.571,7.571,0,0,0,3.473-.73C15.449-7.155,21.889-7.522,29.773-.1a3.008,3.008,0,0,0,2.781,1.188h10.7a5.3,5.3,0,0,1,0,10.607H25.916" transform="translate(0 6.14)" fill="none" stroke="#f67409" stroke-linecap="round" stroke-linejoin="round" stroke-miterlimit="10" stroke-width="3.5"/>
            </g>
            <g id="g3028" transform="translate(48.612 15.641)">
              <path id="path3030" d="M0-9.34H7.943v-7.937H18.091V-9.34h7.937V.808H18.091V8.751H7.943V.808H0Z" transform="translate(0 17.278)" fill="none" stroke="#f67409" stroke-linecap="round" stroke-linejoin="round" stroke-miterlimit="10" stroke-width="3.5"/>
            </g>
            <g id="g3032" transform="translate(37.52 1.838)">
              <path id="path3034" d="M-5.1-46.277a31.87,31.87,0,0,1-4.022-7.73,7.584,7.584,0,0,1-.3-2.925v-14.7c.075-3.282-.368-2.541,2.5-4.145l21.6-9.823,21.6,9.823c2.871,1.6,2.424.863,2.5,4.145v14.7a7.584,7.584,0,0,1-.3,2.925C35.894-45.92,24.765-33.417,17.51-29.086a5.466,5.466,0,0,1-2.834.879,5.466,5.466,0,0,1-2.834-.879,38.779,38.779,0,0,1-5.887-4.507" transform="translate(9.431 85.603)" fill="none" stroke="#f67409" stroke-linecap="round" stroke-linejoin="round" stroke-miterlimit="10" stroke-width="3.5"/>
            </g>
            <g id="g3036" transform="translate(46.998 47.812)">
              <path id="path3038" d="M-.006-.006-.012-.012" transform="translate(0.012 0.012)" fill="none" stroke="#f67409" stroke-linecap="round" stroke-linejoin="round" stroke-miterlimit="10" stroke-width="3.5"/>
            </g>
          </g>
        </g>
      </g>
    </g>
    <g id="accidente-de-auto" transform="translate(1556.525 -10968.775)">
      <g id="Crash_Car_Insurance" data-name="Crash Car Insurance" transform="translate(0 0.3)">
        <path id="Trazado_218740" data-name="Trazado 218740" d="M18.926,15.9a4.826,4.826,0,1,0,4.826,4.826A4.826,4.826,0,0,0,18.926,15.9Zm0,6.434a1.609,1.609,0,1,1,1.609-1.609,1.609,1.609,0,0,1-1.609,1.609Z" transform="translate(61.504 67.747)" fill="#fece2f"/>
        <path id="Trazado_218741" data-name="Trazado 218741" d="M39.47,12.517a1.609,1.609,0,0,0,0-3.217h-17a3.25,3.25,0,0,0-3,2.06L14.291,24.808a1.609,1.609,0,0,0,1.5,2.187H39.47a1.609,1.609,0,0,0,0-3.217H18.135l4.333-11.26Z" transform="translate(61.871 38.958)" fill="#fece2f"/>
        <path id="Trazado_218742" data-name="Trazado 218742" d="M8.986,15.392a4.826,4.826,0,1,0,3.87,5.2,4.825,4.825,0,0,0-3.87-5.2Zm-.038,6.07a1.608,1.608,0,1,1-.9-2.945,1.638,1.638,0,0,1,.314.031,1.608,1.608,0,0,1,.584,2.914Z" transform="translate(14.073 65.128)" fill="#fece2f"/>
        <path id="Trazado_218743" data-name="Trazado 218743" d="M2.226,22.61l19.633,3.869A1.608,1.608,0,0,0,23.7,24.42L20.142,13.074A3.242,3.242,0,0,0,17.7,10.9L5.025,8.406A1.608,1.608,0,1,0,4.4,11.562l12.676,2.5L19.824,22.8,2.848,19.454a1.608,1.608,0,1,0-.622,3.156Z" transform="translate(4.049 34.926)" fill="#fece2f"/>
        <path id="Trazado_218744" data-name="Trazado 218744" d="M49.833,37.4,41.6,33.528h0L34.738,30.3l-4.4-14a9.646,9.646,0,0,0-7.341-6.573l-12.676-2.5A1.608,1.608,0,1,0,9.7,10.385l12.676,2.5a6.431,6.431,0,0,1,4.893,4.382L31.88,31.938a1.608,1.608,0,0,0,.85.973L39.1,35.9l-1.546,7.843a1.607,1.607,0,0,0,1.267,1.889l9.47,1.866-.933,4.735L31.406,49.1a11.23,11.23,0,0,0-15.439-3.043l-12.8-2.523a1.608,1.608,0,0,0-.622,3.156l10.552,2.08a11.145,11.145,0,0,0-1.579,2.968l-9.6-1.891A1.608,1.608,0,1,0,1.3,53l9.6,1.891a11.236,11.236,0,0,0,21.828,4.3L43.91,61.4a4.817,4.817,0,0,0,5.668-3.8l2.936-14.9A4.819,4.819,0,0,0,49.833,37.4Zm-.923,6.948-7.891-1.555L42.1,37.316l6.365,2.993a1.609,1.609,0,0,1,.895,1.767ZM20.57,63.355a8.043,8.043,0,1,1,9.447-6.336,8.043,8.043,0,0,1-9.447,6.336ZM45.739,58a1.594,1.594,0,0,1-1.207.243l-11.172-2.2a11.13,11.13,0,0,0-.327-3.344l13.7,2.7-.311,1.579A1.594,1.594,0,0,1,45.739,58Z" transform="translate(0 29.791)" fill="#fece2f"/>
        <path id="Trazado_218745" data-name="Trazado 218745" d="M3.825,11.882A1.608,1.608,0,1,0,3.2,15.038l2.986.588a1.579,1.579,0,0,0,.313.031,1.608,1.608,0,0,0,.309-3.187Z" transform="translate(8.312 50.088)" fill="#fece2f"/>
        <path id="Trazado_218746" data-name="Trazado 218746" d="M56.849,49.923a1.609,1.609,0,0,0,0-3.217H43.8a11.223,11.223,0,0,0-15.731,0H13.417V35.128L26.635,32.19a1.61,1.61,0,0,0,1.153-.993l6.06-15.756a6.471,6.471,0,0,1,6.006-4.124h17a1.609,1.609,0,0,0,0-3.217h-17a9.71,9.71,0,0,0-9.009,6.187l-5.749,14.95L12.72,31.988a3.2,3.2,0,0,0-2.52,3.14V53.141a3.22,3.22,0,0,0,3.217,3.217H24.806a11.245,11.245,0,0,0,22.263,0h9.78a1.609,1.609,0,0,0,0-3.217h-9.78a11.151,11.151,0,0,0-.973-3.217Zm-43.432,0H25.779a11.151,11.151,0,0,0-.973,3.217H13.417Zm22.52,12.869a8.043,8.043,0,1,1,8.043-8.043,8.043,8.043,0,0,1-8.043,8.043Z" transform="translate(44.492 33.723)" fill="#fece2f"/>
        <path id="Trazado_218747" data-name="Trazado 218747" d="M12.817,10.309a1.609,1.609,0,0,0-3.217,0v11.26a1.609,1.609,0,0,0,3.217,0Z" transform="translate(41.875 36.341)" fill="#fece2f"/>
        <path id="Trazado_218748" data-name="Trazado 218748" d="M13.988,10.616,10.77,15.442a1.609,1.609,0,1,0,2.677,1.785L16.664,12.4a1.609,1.609,0,1,0-2.677-1.785Z" transform="translate(45.801 41.575)" fill="#fece2f"/>
        <path id="Trazado_218749" data-name="Trazado 218749" d="M8.816,10.171A1.609,1.609,0,0,0,8.37,12.4l3.217,4.826a1.609,1.609,0,1,0,2.677-1.785l-3.217-4.826a1.607,1.607,0,0,0-2.231-.446Z" transform="translate(35.332 41.574)" fill="#fece2f"/>
        <path id="Trazado_218750" data-name="Trazado 218750" d="M12.388,12.18a1.608,1.608,0,0,0,2.275,0L21.1,5.746a1.608,1.608,0,1,0-2.275-2.275l-5.3,5.3-2.08-2.08A1.608,1.608,0,1,0,9.171,8.963Z" transform="translate(37.949 11.477)" fill="#fece2f"/>
        <path id="Trazado_218751" data-name="Trazado 218751" d="M22.478,40.432a1.612,1.612,0,0,0,1.018,0A22.753,22.753,0,0,0,39.071,18.821V8.343a1.612,1.612,0,0,0-1.6-1.609A20.918,20.918,0,0,1,24.123.771a1.608,1.608,0,0,0-2.275,0A20.919,20.919,0,0,1,8.509,6.734,1.609,1.609,0,0,0,6.9,8.343V18.82A22.752,22.752,0,0,0,22.478,40.432ZM10.117,9.835A24.174,24.174,0,0,0,22.986,4.111,24.174,24.174,0,0,0,35.855,9.835v8.985A19.538,19.538,0,0,1,22.986,37.2,19.538,19.538,0,0,1,10.117,18.82Z" transform="translate(30.098 -0.3)" fill="#fece2f"/>
      </g>
    </g>
    <g id="seguro-de-viaje" transform="translate(1772.91 -10948.964)">
      <g id="Page-1-3" data-name="Page-1">
        <g id="_040---Travel-Insurance" data-name="040---Travel-Insurance">
          <path id="Shape-17" data-name="Shape" d="M40.011,14.341,26.076,8.321a1.393,1.393,0,0,0-1.1,0l-13.934,6.02A1.393,1.393,0,0,0,10.2,15.62V32.107a8.611,8.611,0,0,0,3.634,6.985l10.885,7.749a1.393,1.393,0,0,0,1.616,0l10.885-7.747a8.613,8.613,0,0,0,3.623-6.987V15.62A1.393,1.393,0,0,0,40.011,14.341ZM38.06,32.107a5.819,5.819,0,0,1-2.465,4.717L25.519,44,15.443,36.824a5.817,5.817,0,0,1-2.465-4.717V16.535l12.541-5.418L38.06,16.535Z" transform="translate(37.185 29.913)" fill="#54aa13"/>
          <path id="Shape-18" data-name="Shape" d="M13.629,20.527a1.393,1.393,0,0,0-1.672,2.229l5.574,4.18a1.394,1.394,0,0,0,1.924-.244L30.6,12.758a1.393,1.393,0,0,0-2.177-1.74L18.115,23.9Z" transform="translate(41.55 38.276)" fill="#54aa13"/>
          <path id="Shape-19" data-name="Shape" d="M76.638,13.934H75.245a2.787,2.787,0,0,0-2.787-2.787H69.671a2.787,2.787,0,0,0-2.787,2.787H59.917V11.147A11.16,11.16,0,0,0,48.77,0H34.836A11.16,11.16,0,0,0,23.688,11.147v2.787H16.721a2.787,2.787,0,0,0-2.787-2.787H11.147a2.787,2.787,0,0,0-2.787,2.787H6.967A6.975,6.975,0,0,0,0,20.9V68.278a6.975,6.975,0,0,0,6.967,6.967H8.361a2.787,2.787,0,0,0,2.787,2.787h2.787a2.787,2.787,0,0,0,2.787-2.787H50.163l11.1,7.9a2.486,2.486,0,0,0,2.884,0l13.483-9.6a14.188,14.188,0,0,0,5.978-11.525V20.9A6.975,6.975,0,0,0,76.638,13.934Zm0,2.787a4.18,4.18,0,0,1,4.18,4.18V39.749l-5.574-2.405V16.721Zm-6.967-2.787h2.787v22.2l-2.787-1.2Zm-43.2-2.787a8.369,8.369,0,0,1,8.361-8.361H48.77a8.369,8.369,0,0,1,8.361,8.361v2.787H52.95V12.541a5.574,5.574,0,0,0-5.574-5.574H36.229a5.574,5.574,0,0,0-5.574,5.574v1.393h-4.18Zm6.967,2.787V12.541a2.787,2.787,0,0,1,2.787-2.787H47.376a2.787,2.787,0,0,1,2.787,2.787v1.393ZM6.967,72.458a4.18,4.18,0,0,1-4.18-4.18V20.9a4.18,4.18,0,0,1,4.18-4.18H8.361V72.458Zm4.18,2.787V13.934h2.787V75.245Zm5.574-58.524H66.884V33.729L63.324,32.2a9.057,9.057,0,1,0-15.9,1.254H39.445l-4.09-11.61a1.393,1.393,0,0,0-1.778-.851l-13.14,4.64a1.393,1.393,0,0,0-.85,1.778l5.56,15.76a1.393,1.393,0,0,0,1.314.931,1.363,1.363,0,0,0,.461-.081l5.126-1.809v9.348a1.393,1.393,0,0,0,1.393,1.393H41.8v9.07a14.171,14.171,0,0,0,4.63,10.438H16.721ZM42.639,40.589a1.393,1.393,0,0,0-.836,1.279v8.3H34.836V36.229H48.77v1.714Zm-9.2-7.147a1.393,1.393,0,0,0-1.393,1.393v4.42l-4.738,1.664L22.678,27.785,33.19,24.073l3.3,9.369Zm25.246.216-2.465,1.065a6.293,6.293,0,1,1,2.465-1.065ZM76.013,71.281,62.7,80.75,49.4,71.275A11.4,11.4,0,0,1,44.59,62.02V42.791l6.1-2.635.033-.025L62.7,34.96l5.016,2.167.033.014,5.529,2.388.057.025,7.479,3.231V62.014a11.4,11.4,0,0,1-4.806,9.262Z" fill="#54aa13"/>
          <path id="Shape-20" data-name="Shape" d="M11.467,11.7a6.967,6.967,0,1,0,6.967,6.967A6.967,6.967,0,0,0,11.467,11.7Zm0,11.147a4.18,4.18,0,1,1,4.18-4.18A4.18,4.18,0,0,1,11.467,22.847Z" transform="translate(16.401 42.644)" fill="#54aa13"/>
        </g>
      </g>
    </g>
    <path id="Trazado_218778" data-name="Trazado 218778" d="M37.8,12.016A1.2,1.2,0,0,0,37.328,11a6.148,6.148,0,0,0-1.687-.75,11.963,11.963,0,0,1-1.93-.777,3.153,3.153,0,0,1-1.937-2.82A2.747,2.747,0,0,1,32.293,5a3.389,3.389,0,0,1,1.492-1.129,5.616,5.616,0,0,1,2.184-.406,5.112,5.112,0,0,1,2.172.441,3.458,3.458,0,0,1,1.48,1.246,3.261,3.261,0,0,1,.527,1.828H37.8a1.534,1.534,0,0,0-.492-1.215,2.023,2.023,0,0,0-1.383-.434,2.162,2.162,0,0,0-1.336.363,1.146,1.146,0,0,0-.477.957,1.1,1.1,0,0,0,.559.93,6.311,6.311,0,0,0,1.645.7,7.106,7.106,0,0,1,2.914,1.492A2.972,2.972,0,0,1,40.148,12a2.737,2.737,0,0,1-1.117,2.316,4.891,4.891,0,0,1-3.008.84,5.808,5.808,0,0,1-2.391-.48,3.783,3.783,0,0,1-1.645-1.316,3.371,3.371,0,0,1-.566-1.937h2.352q0,1.883,2.25,1.883a2.189,2.189,0,0,0,1.3-.34A1.106,1.106,0,0,0,37.8,12.016Zm7.68,3.141a4.15,4.15,0,0,1-3.027-1.141,4.054,4.054,0,0,1-1.168-3.039v-.219a5.106,5.106,0,0,1,.492-2.277,3.612,3.612,0,0,1,1.395-1.547,3.914,3.914,0,0,1,2.059-.543,3.508,3.508,0,0,1,2.73,1.094,4.444,4.444,0,0,1,1,3.1v.922H43.57a2.1,2.1,0,0,0,.66,1.328,2,2,0,0,0,1.395.5,2.437,2.437,0,0,0,2.039-.945l1.109,1.242A3.389,3.389,0,0,1,47.4,14.754,4.511,4.511,0,0,1,45.477,15.156Zm-.258-6.945a1.411,1.411,0,0,0-1.09.455,2.357,2.357,0,0,0-.535,1.3h3.141V9.788a1.681,1.681,0,0,0-.406-1.165A1.456,1.456,0,0,0,45.219,8.211Zm4.688,2.5a4.954,4.954,0,0,1,.926-3.133,3,3,0,0,1,2.5-1.187,2.631,2.631,0,0,1,2.164.953l.094-.8h2.047v8.172a3.613,3.613,0,0,1-.5,1.93,3.236,3.236,0,0,1-1.418,1.25,4.985,4.985,0,0,1-2.141.43,4.635,4.635,0,0,1-1.812-.371A3.217,3.217,0,0,1,50.422,17l1-1.375a2.645,2.645,0,0,0,2.047.945,1.936,1.936,0,0,0,1.4-.48,1.8,1.8,0,0,0,.5-1.363v-.453a2.612,2.612,0,0,1-2.055.883,2.992,2.992,0,0,1-2.465-1.191,4.953,4.953,0,0,1-.941-3.16Zm2.258.161a3.1,3.1,0,0,0,.461,1.809,1.465,1.465,0,0,0,1.266.655,1.567,1.567,0,0,0,1.477-.777V8.988a1.563,1.563,0,0,0-1.461-.777,1.474,1.474,0,0,0-1.277.667A3.5,3.5,0,0,0,52.164,10.872ZM64.43,14.141a2.831,2.831,0,0,1-2.312,1.016,2.67,2.67,0,0,1-2.074-.781,3.335,3.335,0,0,1-.73-2.289V6.547H61.57v5.467q0,1.322,1.2,1.322a1.63,1.63,0,0,0,1.578-.8V6.547h2.266V15H64.492ZM73.07,8.664a6.134,6.134,0,0,0-.812-.062,1.654,1.654,0,0,0-1.68.867V15H68.32V6.547h2.133l.063,1.008A2.092,2.092,0,0,1,72.4,6.391a2.366,2.366,0,0,1,.7.1Zm.453,2.031a5.013,5.013,0,0,1,.484-2.242A3.546,3.546,0,0,1,75.4,6.93a4.069,4.069,0,0,1,2.113-.539,3.849,3.849,0,0,1,2.793,1.047,4.2,4.2,0,0,1,1.207,2.844l.016.578a4.418,4.418,0,0,1-1.086,3.121,4.209,4.209,0,0,1-5.832,0,4.5,4.5,0,0,1-1.09-3.187Zm2.258.16a3.16,3.16,0,0,0,.453,1.843,1.628,1.628,0,0,0,2.578.008,3.457,3.457,0,0,0,.461-2.015,3.128,3.128,0,0,0-.461-1.831,1.5,1.5,0,0,0-1.3-.649,1.474,1.474,0,0,0-1.281.646A3.516,3.516,0,0,0,75.781,10.856Zm10.773-.145a5.094,5.094,0,0,1,.887-3.148,2.877,2.877,0,0,1,2.426-1.172,2.589,2.589,0,0,1,2.039.922V3h2.266V15H92.133l-.109-.9a2.657,2.657,0,0,1-2.172,1.055,2.869,2.869,0,0,1-2.395-1.176A5.258,5.258,0,0,1,86.555,10.711Zm2.258.161a3.355,3.355,0,0,0,.414,1.829,1.348,1.348,0,0,0,1.2.636,1.51,1.51,0,0,0,1.477-.887V9.1a1.489,1.489,0,0,0-1.461-.887Q88.813,8.211,88.813,10.872Zm11,4.285a4.15,4.15,0,0,1-3.027-1.141,4.054,4.054,0,0,1-1.168-3.039v-.219a5.106,5.106,0,0,1,.492-2.277A3.612,3.612,0,0,1,97.5,6.934a3.914,3.914,0,0,1,2.059-.543,3.508,3.508,0,0,1,2.73,1.094,4.444,4.444,0,0,1,1,3.1v.922H97.906a2.1,2.1,0,0,0,.66,1.328,2,2,0,0,0,1.395.5A2.437,2.437,0,0,0,102,12.391l1.109,1.242a3.389,3.389,0,0,1-1.375,1.121A4.511,4.511,0,0,1,99.813,15.156Zm-.258-6.945a1.411,1.411,0,0,0-1.09.455,2.357,2.357,0,0,0-.535,1.3h3.141V9.788a1.681,1.681,0,0,0-.406-1.165A1.456,1.456,0,0,0,99.555,8.211Zm12.164,4.031,1.57-5.7h2.359L112.8,15h-2.156l-2.852-8.453h2.359Zm7.3,2.758h-2.266V6.547h2.266Zm-2.4-10.641a1.112,1.112,0,0,1,.34-.836,1.465,1.465,0,0,1,1.848,0,1.105,1.105,0,0,1,.344.836,1.108,1.108,0,0,1-.348.844,1.448,1.448,0,0,1-1.836,0A1.108,1.108,0,0,1,116.625,4.359Zm3.906,6.352a5.094,5.094,0,0,1,.887-3.148,2.877,2.877,0,0,1,2.426-1.172,2.589,2.589,0,0,1,2.039.922V3h2.266V15h-2.039L126,14.1a2.657,2.657,0,0,1-2.172,1.055,2.869,2.869,0,0,1-2.395-1.176A5.258,5.258,0,0,1,120.531,10.711Zm2.258.161A3.355,3.355,0,0,0,123.2,12.7a1.348,1.348,0,0,0,1.2.636,1.51,1.51,0,0,0,1.477-.887V9.1a1.489,1.489,0,0,0-1.461-.887Q122.789,8.211,122.789,10.872ZM134.8,15a2.507,2.507,0,0,1-.227-.758,2.732,2.732,0,0,1-2.133.914,3,3,0,0,1-2.059-.719,2.312,2.312,0,0,1-.816-1.812,2.389,2.389,0,0,1,1-2.062,4.915,4.915,0,0,1,2.879-.727h1.039V9.352a1.393,1.393,0,0,0-.3-.937,1.183,1.183,0,0,0-.949-.352,1.345,1.345,0,0,0-.895.273.929.929,0,0,0-.324.75H129.75a2.268,2.268,0,0,1,.453-1.359,3,3,0,0,1,1.281-.98,4.669,4.669,0,0,1,1.859-.355,3.689,3.689,0,0,1,2.48.785,2.747,2.747,0,0,1,.918,2.207v3.664a4.041,4.041,0,0,0,.336,1.82V15Zm-1.867-1.57a1.945,1.945,0,0,0,.922-.223,1.462,1.462,0,0,0,.625-.6V11.156h-.844q-1.7,0-1.8,1.172l-.008.133a.9.9,0,0,0,.3.7A1.153,1.153,0,0,0,132.93,13.43Z" transform="translate(699.508 -10754)" fill="#12263f"/>
    <path id="Trazado_218781" data-name="Trazado 218781" d="M22.828,12.016A1.2,1.2,0,0,0,22.359,11a6.148,6.148,0,0,0-1.687-.75,11.963,11.963,0,0,1-1.93-.777A3.153,3.153,0,0,1,16.8,6.648,2.747,2.747,0,0,1,17.324,5a3.389,3.389,0,0,1,1.492-1.129A5.616,5.616,0,0,1,21,3.469a5.112,5.112,0,0,1,2.172.441,3.458,3.458,0,0,1,1.48,1.246,3.261,3.261,0,0,1,.527,1.828H22.836a1.534,1.534,0,0,0-.492-1.215,2.023,2.023,0,0,0-1.383-.434,2.162,2.162,0,0,0-1.336.363,1.146,1.146,0,0,0-.477.957,1.1,1.1,0,0,0,.559.93,6.311,6.311,0,0,0,1.645.7,7.106,7.106,0,0,1,2.914,1.492A2.972,2.972,0,0,1,25.18,12a2.737,2.737,0,0,1-1.117,2.316,4.891,4.891,0,0,1-3.008.84,5.808,5.808,0,0,1-2.391-.48,3.783,3.783,0,0,1-1.645-1.316,3.371,3.371,0,0,1-.566-1.937H18.8q0,1.883,2.25,1.883a2.189,2.189,0,0,0,1.3-.34A1.106,1.106,0,0,0,22.828,12.016Zm7.68,3.141a4.15,4.15,0,0,1-3.027-1.141,4.054,4.054,0,0,1-1.168-3.039v-.219A5.106,5.106,0,0,1,26.8,8.48,3.612,3.612,0,0,1,28.2,6.934a3.914,3.914,0,0,1,2.059-.543,3.508,3.508,0,0,1,2.73,1.094,4.444,4.444,0,0,1,1,3.1v.922H28.6a2.1,2.1,0,0,0,.66,1.328,2,2,0,0,0,1.395.5,2.437,2.437,0,0,0,2.039-.945L33.8,13.633a3.389,3.389,0,0,1-1.375,1.121A4.511,4.511,0,0,1,30.508,15.156ZM30.25,8.211a1.411,1.411,0,0,0-1.09.455,2.357,2.357,0,0,0-.535,1.3h3.141V9.788a1.681,1.681,0,0,0-.406-1.165A1.456,1.456,0,0,0,30.25,8.211Zm4.688,2.5a4.954,4.954,0,0,1,.926-3.133,3,3,0,0,1,2.5-1.187,2.631,2.631,0,0,1,2.164.953l.094-.8h2.047v8.172a3.613,3.613,0,0,1-.5,1.93,3.236,3.236,0,0,1-1.418,1.25,4.985,4.985,0,0,1-2.141.43,4.635,4.635,0,0,1-1.812-.371A3.217,3.217,0,0,1,35.453,17l1-1.375a2.645,2.645,0,0,0,2.047.945,1.936,1.936,0,0,0,1.4-.48,1.8,1.8,0,0,0,.5-1.363v-.453a2.612,2.612,0,0,1-2.055.883,2.992,2.992,0,0,1-2.465-1.191,4.953,4.953,0,0,1-.941-3.16Zm2.258.161a3.1,3.1,0,0,0,.461,1.809,1.465,1.465,0,0,0,1.266.655,1.567,1.567,0,0,0,1.477-.777V8.988a1.563,1.563,0,0,0-1.461-.777,1.474,1.474,0,0,0-1.277.667A3.5,3.5,0,0,0,37.2,10.872Zm12.266,3.269a2.831,2.831,0,0,1-2.312,1.016,2.67,2.67,0,0,1-2.074-.781,3.335,3.335,0,0,1-.73-2.289V6.547H46.6v5.467q0,1.322,1.2,1.322a1.63,1.63,0,0,0,1.578-.8V6.547h2.266V15H49.523ZM58.1,8.664a6.134,6.134,0,0,0-.812-.062,1.654,1.654,0,0,0-1.68.867V15H53.352V6.547h2.133l.063,1.008A2.092,2.092,0,0,1,57.43,6.391a2.366,2.366,0,0,1,.7.1Zm.453,2.031a5.013,5.013,0,0,1,.484-2.242A3.546,3.546,0,0,1,60.434,6.93a4.069,4.069,0,0,1,2.113-.539A3.849,3.849,0,0,1,65.34,7.438a4.2,4.2,0,0,1,1.207,2.844l.016.578a4.418,4.418,0,0,1-1.086,3.121,4.209,4.209,0,0,1-5.832,0,4.5,4.5,0,0,1-1.09-3.187Zm2.258.16a3.16,3.16,0,0,0,.453,1.843,1.628,1.628,0,0,0,2.578.008,3.457,3.457,0,0,0,.461-2.015,3.128,3.128,0,0,0-.461-1.831,1.5,1.5,0,0,0-1.3-.649,1.474,1.474,0,0,0-1.281.646A3.516,3.516,0,0,0,60.813,10.856Zm10.773-.145a5.094,5.094,0,0,1,.887-3.148A2.877,2.877,0,0,1,74.9,6.391a2.589,2.589,0,0,1,2.039.922V3H79.2V15H77.164l-.109-.9a2.657,2.657,0,0,1-2.172,1.055,2.869,2.869,0,0,1-2.395-1.176A5.258,5.258,0,0,1,71.586,10.711Zm2.258.161a3.355,3.355,0,0,0,.414,1.829,1.348,1.348,0,0,0,1.2.636,1.51,1.51,0,0,0,1.477-.887V9.1a1.489,1.489,0,0,0-1.461-.887Q73.844,8.211,73.844,10.872Zm11,4.285a4.15,4.15,0,0,1-3.027-1.141,4.054,4.054,0,0,1-1.168-3.039v-.219a5.106,5.106,0,0,1,.492-2.277,3.612,3.612,0,0,1,1.395-1.547,3.914,3.914,0,0,1,2.059-.543,3.508,3.508,0,0,1,2.73,1.094,4.444,4.444,0,0,1,1,3.1v.922H82.938a2.1,2.1,0,0,0,.66,1.328,2,2,0,0,0,1.395.5,2.437,2.437,0,0,0,2.039-.945l1.109,1.242a3.389,3.389,0,0,1-1.375,1.121A4.511,4.511,0,0,1,84.844,15.156Zm-.258-6.945a1.411,1.411,0,0,0-1.09.455,2.357,2.357,0,0,0-.535,1.3H86.1V9.788A1.681,1.681,0,0,0,85.7,8.623,1.456,1.456,0,0,0,84.586,8.211ZM96.75,12.242l1.57-5.7h2.359L97.828,15H95.672L92.82,6.547H95.18Zm7.3,2.758h-2.266V6.547h2.266Zm-2.4-10.641a1.112,1.112,0,0,1,.34-.836,1.465,1.465,0,0,1,1.848,0,1.105,1.105,0,0,1,.344.836,1.108,1.108,0,0,1-.348.844A1.448,1.448,0,0,1,102,5.2,1.108,1.108,0,0,1,101.656,4.359Zm7.422,7.883,1.57-5.7h2.359L110.156,15H108l-2.852-8.453h2.359Zm7.3,2.758h-2.266V6.547h2.266Zm-2.4-10.641a1.112,1.112,0,0,1,.34-.836,1.465,1.465,0,0,1,1.848,0,1.105,1.105,0,0,1,.344.836,1.108,1.108,0,0,1-.348.844,1.448,1.448,0,0,1-1.836,0A1.108,1.108,0,0,1,113.984,4.359Zm8.148,10.8a4.15,4.15,0,0,1-3.027-1.141,4.054,4.054,0,0,1-1.168-3.039v-.219a5.106,5.106,0,0,1,.492-2.277,3.612,3.612,0,0,1,1.395-1.547,3.914,3.914,0,0,1,2.059-.543,3.508,3.508,0,0,1,2.73,1.094,4.444,4.444,0,0,1,1,3.1v.922h-5.383a2.1,2.1,0,0,0,.66,1.328,2,2,0,0,0,1.395.5,2.437,2.437,0,0,0,2.039-.945l1.109,1.242a3.389,3.389,0,0,1-1.375,1.121A4.511,4.511,0,0,1,122.133,15.156Zm-.258-6.945a1.411,1.411,0,0,0-1.09.455,2.357,2.357,0,0,0-.535,1.3h3.141V9.788a1.681,1.681,0,0,0-.406-1.165A1.456,1.456,0,0,0,121.875,8.211Zm7.094-1.664.07.977a2.951,2.951,0,0,1,2.43-1.133,2.453,2.453,0,0,1,2,.789,3.682,3.682,0,0,1,.672,2.359V15h-2.258V9.581a1.47,1.47,0,0,0-.312-1.045,1.4,1.4,0,0,0-1.039-.325,1.553,1.553,0,0,0-1.43.814V15h-2.258V6.547Zm6.531,4.164a5.094,5.094,0,0,1,.887-3.148,2.877,2.877,0,0,1,2.426-1.172,2.589,2.589,0,0,1,2.039.922V3h2.266V15h-2.039l-.109-.9a2.657,2.657,0,0,1-2.172,1.055A2.869,2.869,0,0,1,136.4,13.98,5.258,5.258,0,0,1,135.5,10.711Zm2.258.161a3.355,3.355,0,0,0,.414,1.829,1.348,1.348,0,0,0,1.2.636,1.51,1.51,0,0,0,1.477-.887V9.1a1.489,1.489,0,0,0-1.461-.887Q137.758,8.211,137.758,10.872ZM149.766,15a2.507,2.507,0,0,1-.227-.758,2.732,2.732,0,0,1-2.133.914,3,3,0,0,1-2.059-.719,2.312,2.312,0,0,1-.816-1.812,2.389,2.389,0,0,1,1-2.062,4.915,4.915,0,0,1,2.879-.727h1.039V9.352a1.393,1.393,0,0,0-.3-.937,1.183,1.183,0,0,0-.949-.352,1.345,1.345,0,0,0-.895.273.929.929,0,0,0-.324.75h-2.258a2.268,2.268,0,0,1,.453-1.359,3,3,0,0,1,1.281-.98,4.669,4.669,0,0,1,1.859-.355,3.689,3.689,0,0,1,2.48.785,2.747,2.747,0,0,1,.918,2.207v3.664a4.041,4.041,0,0,0,.336,1.82V15ZM147.9,13.43a1.945,1.945,0,0,0,.922-.223,1.462,1.462,0,0,0,.625-.6V11.156H148.6q-1.7,0-1.8,1.172l-.008.133a.9.9,0,0,0,.3.7A1.153,1.153,0,0,0,147.9,13.43Z" transform="translate(1112 -10754)" fill="#12263f"/>
    <path id="Trazado_218783" data-name="Trazado 218783" d="M13.551,12.016A1.2,1.2,0,0,0,13.082,11a6.148,6.148,0,0,0-1.687-.75,11.963,11.963,0,0,1-1.93-.777,3.153,3.153,0,0,1-1.937-2.82A2.747,2.747,0,0,1,8.047,5,3.389,3.389,0,0,1,9.539,3.875a5.616,5.616,0,0,1,2.184-.406,5.112,5.112,0,0,1,2.172.441,3.458,3.458,0,0,1,1.48,1.246A3.261,3.261,0,0,1,15.9,6.984H13.559a1.534,1.534,0,0,0-.492-1.215,2.023,2.023,0,0,0-1.383-.434,2.162,2.162,0,0,0-1.336.363,1.146,1.146,0,0,0-.477.957,1.1,1.1,0,0,0,.559.93,6.311,6.311,0,0,0,1.645.7,7.106,7.106,0,0,1,2.914,1.492A2.972,2.972,0,0,1,15.9,12a2.737,2.737,0,0,1-1.117,2.316,4.891,4.891,0,0,1-3.008.84,5.808,5.808,0,0,1-2.391-.48,3.783,3.783,0,0,1-1.645-1.316,3.371,3.371,0,0,1-.566-1.937H9.527q0,1.883,2.25,1.883a2.189,2.189,0,0,0,1.3-.34A1.106,1.106,0,0,0,13.551,12.016Zm7.68,3.141A4.15,4.15,0,0,1,18.2,14.016a4.054,4.054,0,0,1-1.168-3.039v-.219a5.106,5.106,0,0,1,.492-2.277,3.612,3.612,0,0,1,1.395-1.547,3.914,3.914,0,0,1,2.059-.543,3.508,3.508,0,0,1,2.73,1.094,4.444,4.444,0,0,1,1,3.1v.922H19.324a2.1,2.1,0,0,0,.66,1.328,2,2,0,0,0,1.395.5,2.437,2.437,0,0,0,2.039-.945l1.109,1.242a3.389,3.389,0,0,1-1.375,1.121A4.511,4.511,0,0,1,21.23,15.156Zm-.258-6.945a1.411,1.411,0,0,0-1.09.455,2.357,2.357,0,0,0-.535,1.3h3.141V9.788a1.681,1.681,0,0,0-.406-1.165A1.456,1.456,0,0,0,20.973,8.211Zm4.688,2.5a4.954,4.954,0,0,1,.926-3.133,3,3,0,0,1,2.5-1.187,2.631,2.631,0,0,1,2.164.953l.094-.8h2.047v8.172a3.613,3.613,0,0,1-.5,1.93,3.236,3.236,0,0,1-1.418,1.25,4.985,4.985,0,0,1-2.141.43,4.635,4.635,0,0,1-1.812-.371A3.217,3.217,0,0,1,26.176,17l1-1.375a2.645,2.645,0,0,0,2.047.945,1.936,1.936,0,0,0,1.4-.48,1.8,1.8,0,0,0,.5-1.363v-.453a2.612,2.612,0,0,1-2.055.883A2.992,2.992,0,0,1,26.6,13.965a4.953,4.953,0,0,1-.941-3.16Zm2.258.161a3.1,3.1,0,0,0,.461,1.809,1.465,1.465,0,0,0,1.266.655,1.567,1.567,0,0,0,1.477-.777V8.988a1.563,1.563,0,0,0-1.461-.777,1.474,1.474,0,0,0-1.277.667A3.5,3.5,0,0,0,27.918,10.872Zm12.266,3.269a2.831,2.831,0,0,1-2.312,1.016,2.67,2.67,0,0,1-2.074-.781,3.335,3.335,0,0,1-.73-2.289V6.547h2.258v5.467q0,1.322,1.2,1.322a1.63,1.63,0,0,0,1.578-.8V6.547h2.266V15H40.246Zm8.641-5.477a6.134,6.134,0,0,0-.812-.062,1.654,1.654,0,0,0-1.68.867V15H44.074V6.547h2.133l.063,1.008a2.092,2.092,0,0,1,1.883-1.164,2.366,2.366,0,0,1,.7.1Zm.453,2.031a5.013,5.013,0,0,1,.484-2.242A3.546,3.546,0,0,1,51.156,6.93a4.069,4.069,0,0,1,2.113-.539,3.849,3.849,0,0,1,2.793,1.047,4.2,4.2,0,0,1,1.207,2.844l.016.578A4.418,4.418,0,0,1,56.2,13.98a4.209,4.209,0,0,1-5.832,0,4.5,4.5,0,0,1-1.09-3.187Zm2.258.16a3.16,3.16,0,0,0,.453,1.843,1.628,1.628,0,0,0,2.578.008,3.457,3.457,0,0,0,.461-2.015,3.128,3.128,0,0,0-.461-1.831,1.5,1.5,0,0,0-1.3-.649,1.474,1.474,0,0,0-1.281.646A3.516,3.516,0,0,0,51.535,10.856Zm10.773-.145A5.094,5.094,0,0,1,63.2,7.563a2.877,2.877,0,0,1,2.426-1.172,2.589,2.589,0,0,1,2.039.922V3h2.266V15H67.887l-.109-.9a2.657,2.657,0,0,1-2.172,1.055,2.869,2.869,0,0,1-2.395-1.176A5.258,5.258,0,0,1,62.309,10.711Zm2.258.161A3.355,3.355,0,0,0,64.98,12.7a1.348,1.348,0,0,0,1.2.636,1.51,1.51,0,0,0,1.477-.887V9.1A1.489,1.489,0,0,0,66.2,8.211Q64.566,8.211,64.566,10.872Zm11,4.285a4.15,4.15,0,0,1-3.027-1.141,4.054,4.054,0,0,1-1.168-3.039v-.219a5.106,5.106,0,0,1,.492-2.277,3.612,3.612,0,0,1,1.395-1.547,3.914,3.914,0,0,1,2.059-.543,3.508,3.508,0,0,1,2.73,1.094,4.444,4.444,0,0,1,1,3.1v.922H73.66a2.1,2.1,0,0,0,.66,1.328,2,2,0,0,0,1.395.5,2.437,2.437,0,0,0,2.039-.945l1.109,1.242a3.389,3.389,0,0,1-1.375,1.121A4.511,4.511,0,0,1,75.566,15.156Zm-.258-6.945a1.411,1.411,0,0,0-1.09.455,2.357,2.357,0,0,0-.535,1.3h3.141V9.788a1.681,1.681,0,0,0-.406-1.165A1.456,1.456,0,0,0,75.309,8.211ZM89.207,15a2.507,2.507,0,0,1-.227-.758,2.732,2.732,0,0,1-2.133.914,3,3,0,0,1-2.059-.719,2.312,2.312,0,0,1-.816-1.812,2.389,2.389,0,0,1,1-2.062,4.915,4.915,0,0,1,2.879-.727h1.039V9.352a1.393,1.393,0,0,0-.3-.937,1.183,1.183,0,0,0-.949-.352,1.345,1.345,0,0,0-.895.273.929.929,0,0,0-.324.75H84.16a2.268,2.268,0,0,1,.453-1.359,3,3,0,0,1,1.281-.98,4.669,4.669,0,0,1,1.859-.355,3.689,3.689,0,0,1,2.48.785,2.747,2.747,0,0,1,.918,2.207v3.664a4.041,4.041,0,0,0,.336,1.82V15ZM87.34,13.43a1.945,1.945,0,0,0,.922-.223,1.462,1.462,0,0,0,.625-.6V11.156h-.844q-1.7,0-1.8,1.172l-.008.133a.9.9,0,0,0,.3.7A1.153,1.153,0,0,0,87.34,13.43Zm9.063-.094a1.481,1.481,0,0,0,1.016-.344,1.2,1.2,0,0,0,.406-.914h2.117a2.9,2.9,0,0,1-.469,1.574,3.093,3.093,0,0,1-1.262,1.109,3.949,3.949,0,0,1-1.77.395A3.67,3.67,0,0,1,93.582,14a4.56,4.56,0,0,1-1.047-3.184v-.148a4.508,4.508,0,0,1,1.039-3.117,3.627,3.627,0,0,1,2.852-1.164,3.555,3.555,0,0,1,2.543.9,3.2,3.2,0,0,1,.973,2.4H97.824a1.551,1.551,0,0,0-.406-1.072,1.51,1.51,0,0,0-2.223.163,3.333,3.333,0,0,0-.4,1.866v.235a3.375,3.375,0,0,0,.4,1.878A1.377,1.377,0,0,0,96.4,13.336Zm8.344,0a1.481,1.481,0,0,0,1.016-.344,1.2,1.2,0,0,0,.406-.914h2.117a2.9,2.9,0,0,1-.469,1.574,3.093,3.093,0,0,1-1.262,1.109,3.949,3.949,0,0,1-1.77.395A3.67,3.67,0,0,1,101.926,14a4.56,4.56,0,0,1-1.047-3.184v-.148a4.508,4.508,0,0,1,1.039-3.117,3.627,3.627,0,0,1,2.852-1.164,3.555,3.555,0,0,1,2.543.9,3.2,3.2,0,0,1,.973,2.4h-2.117a1.551,1.551,0,0,0-.406-1.072,1.51,1.51,0,0,0-2.223.163,3.333,3.333,0,0,0-.4,1.866v.235a3.375,3.375,0,0,0,.4,1.878A1.377,1.377,0,0,0,104.746,13.336ZM111.957,15h-2.266V6.547h2.266Zm-2.4-10.641a1.112,1.112,0,0,1,.34-.836,1.465,1.465,0,0,1,1.848,0,1.105,1.105,0,0,1,.344.836,1.108,1.108,0,0,1-.348.844,1.448,1.448,0,0,1-1.836,0A1.108,1.108,0,0,1,109.559,4.359Zm3.906,6.352a5.094,5.094,0,0,1,.887-3.148,2.877,2.877,0,0,1,2.426-1.172,2.589,2.589,0,0,1,2.039.922V3h2.266V15h-2.039l-.109-.9a2.657,2.657,0,0,1-2.172,1.055,2.869,2.869,0,0,1-2.395-1.176A5.258,5.258,0,0,1,113.465,10.711Zm2.258.161a3.355,3.355,0,0,0,.414,1.829,1.348,1.348,0,0,0,1.2.636,1.51,1.51,0,0,0,1.477-.887V9.1a1.489,1.489,0,0,0-1.461-.887Q115.723,8.211,115.723,10.872Zm11,4.285a4.15,4.15,0,0,1-3.027-1.141,4.054,4.054,0,0,1-1.168-3.039v-.219a5.106,5.106,0,0,1,.492-2.277,3.612,3.612,0,0,1,1.395-1.547,3.914,3.914,0,0,1,2.059-.543,3.508,3.508,0,0,1,2.73,1.094,4.444,4.444,0,0,1,1,3.1v.922h-5.383a2.1,2.1,0,0,0,.66,1.328,2,2,0,0,0,1.395.5,2.437,2.437,0,0,0,2.039-.945l1.109,1.242a3.389,3.389,0,0,1-1.375,1.121A4.511,4.511,0,0,1,126.723,15.156Zm-.258-6.945a1.411,1.411,0,0,0-1.09.455,2.357,2.357,0,0,0-.535,1.3h3.141V9.788a1.681,1.681,0,0,0-.406-1.165A1.456,1.456,0,0,0,126.465,8.211Zm7.094-1.664.07.977a2.951,2.951,0,0,1,2.43-1.133,2.453,2.453,0,0,1,2,.789,3.682,3.682,0,0,1,.672,2.359V15h-2.258V9.581a1.47,1.47,0,0,0-.312-1.045,1.4,1.4,0,0,0-1.039-.325,1.553,1.553,0,0,0-1.43.814V15h-2.258V6.547Zm9.586-2.078V6.547h1.445V8.2h-1.445v4.219a1.007,1.007,0,0,0,.18.672.9.9,0,0,0,.688.2,3.6,3.6,0,0,0,.664-.055v1.711a4.648,4.648,0,0,1-1.367.2,2.156,2.156,0,0,1-2.422-2.4V8.2h-1.234V6.547h1.234V4.469Zm6.594,10.688a4.15,4.15,0,0,1-3.027-1.141,4.054,4.054,0,0,1-1.168-3.039v-.219a5.106,5.106,0,0,1,.492-2.277,3.612,3.612,0,0,1,1.395-1.547,3.914,3.914,0,0,1,2.059-.543,3.508,3.508,0,0,1,2.73,1.094,4.444,4.444,0,0,1,1,3.1v.922h-5.383a2.1,2.1,0,0,0,.66,1.328,2,2,0,0,0,1.395.5,2.437,2.437,0,0,0,2.039-.945l1.109,1.242a3.389,3.389,0,0,1-1.375,1.121A4.511,4.511,0,0,1,149.738,15.156Zm-.258-6.945a1.411,1.411,0,0,0-1.09.455,2.357,2.357,0,0,0-.535,1.3H151V9.788a1.681,1.681,0,0,0-.406-1.165A1.456,1.456,0,0,0,149.48,8.211Zm9.594,4.453a.727.727,0,0,0-.41-.652,4.659,4.659,0,0,0-1.316-.426q-3.016-.633-3.016-2.562a2.323,2.323,0,0,1,.934-1.879,3.766,3.766,0,0,1,2.441-.754,4.053,4.053,0,0,1,2.574.758,2.388,2.388,0,0,1,.965,1.969h-2.258a1.092,1.092,0,0,0-.312-.8A1.322,1.322,0,0,0,157.7,8a1.351,1.351,0,0,0-.883.258.814.814,0,0,0-.312.656.7.7,0,0,0,.355.605,3.657,3.657,0,0,0,1.2.4,9.8,9.8,0,0,1,1.422.379,2.336,2.336,0,0,1,1.789,2.273,2.205,2.205,0,0,1-.992,1.871,4.28,4.28,0,0,1-2.562.715,4.47,4.47,0,0,1-1.887-.379,3.166,3.166,0,0,1-1.293-1.039,2.414,2.414,0,0,1-.469-1.426h2.141a1.179,1.179,0,0,0,.445.922,1.766,1.766,0,0,0,1.109.32,1.635,1.635,0,0,0,.98-.246A.766.766,0,0,0,159.074,12.664ZM53.012,29.852a5.07,5.07,0,0,1-.887,3.129,2.843,2.843,0,0,1-2.395,1.176,2.633,2.633,0,0,1-2.07-.891V37.25H45.4v-11.7H47.5l.078.828a2.654,2.654,0,0,1,2.141-.984,2.862,2.862,0,0,1,2.43,1.156,5.207,5.207,0,0,1,.867,3.188Zm-2.258-.172a3.345,3.345,0,0,0-.418-1.826,1.36,1.36,0,0,0-1.215-.643,1.478,1.478,0,0,0-1.461.815V31.5a1.5,1.5,0,0,0,1.477.839Q50.754,32.336,50.754,29.679ZM58.3,34.156a4.15,4.15,0,0,1-3.027-1.141,4.054,4.054,0,0,1-1.168-3.039v-.219A5.106,5.106,0,0,1,54.6,27.48a3.612,3.612,0,0,1,1.395-1.547,3.914,3.914,0,0,1,2.059-.543,3.508,3.508,0,0,1,2.73,1.094,4.444,4.444,0,0,1,1,3.1v.922H56.395a2.1,2.1,0,0,0,.66,1.328,2,2,0,0,0,1.395.5,2.437,2.437,0,0,0,2.039-.945L61.6,32.633a3.389,3.389,0,0,1-1.375,1.121A4.511,4.511,0,0,1,58.3,34.156Zm-.258-6.945a1.411,1.411,0,0,0-1.09.455,2.357,2.357,0,0,0-.535,1.3h3.141v-.181a1.681,1.681,0,0,0-.406-1.165A1.456,1.456,0,0,0,58.043,27.211Zm9.766.453A6.134,6.134,0,0,0,67,27.6a1.654,1.654,0,0,0-1.68.867V34H63.059V25.547h2.133l.063,1.008a2.092,2.092,0,0,1,1.883-1.164,2.366,2.366,0,0,1,.7.1Zm5.664,4a.727.727,0,0,0-.41-.652,4.659,4.659,0,0,0-1.316-.426q-3.016-.633-3.016-2.562a2.323,2.323,0,0,1,.934-1.879,3.766,3.766,0,0,1,2.441-.754,4.053,4.053,0,0,1,2.574.758,2.388,2.388,0,0,1,.965,1.969H73.387a1.092,1.092,0,0,0-.312-.8A1.322,1.322,0,0,0,72.1,27a1.351,1.351,0,0,0-.883.258.814.814,0,0,0-.312.656.7.7,0,0,0,.355.605,3.657,3.657,0,0,0,1.2.4,9.8,9.8,0,0,1,1.422.379,2.336,2.336,0,0,1,1.789,2.273,2.2,2.2,0,0,1-.992,1.871,4.28,4.28,0,0,1-2.562.715,4.47,4.47,0,0,1-1.887-.379,3.166,3.166,0,0,1-1.293-1.039,2.414,2.414,0,0,1-.469-1.426h2.141a1.179,1.179,0,0,0,.445.922,1.766,1.766,0,0,0,1.109.32,1.635,1.635,0,0,0,.98-.246A.766.766,0,0,0,73.473,31.664Zm3.3-1.969a5.013,5.013,0,0,1,.484-2.242,3.546,3.546,0,0,1,1.395-1.523,4.069,4.069,0,0,1,2.113-.539,3.849,3.849,0,0,1,2.793,1.047,4.2,4.2,0,0,1,1.207,2.844l.016.578a4.418,4.418,0,0,1-1.086,3.121,4.209,4.209,0,0,1-5.832,0A4.5,4.5,0,0,1,76.77,29.8Zm2.258.16A3.16,3.16,0,0,0,79.48,31.7a1.628,1.628,0,0,0,2.578.008,3.457,3.457,0,0,0,.461-2.015,3.128,3.128,0,0,0-.461-1.831,1.5,1.5,0,0,0-1.3-.649,1.474,1.474,0,0,0-1.281.646A3.516,3.516,0,0,0,79.027,29.856Zm9.219-4.309.07.977a2.951,2.951,0,0,1,2.43-1.133,2.453,2.453,0,0,1,2,.789,3.682,3.682,0,0,1,.672,2.359V34H91.16V28.581a1.47,1.47,0,0,0-.312-1.045,1.4,1.4,0,0,0-1.039-.325,1.553,1.553,0,0,0-1.43.814V34H86.121V25.547ZM100.027,34a2.507,2.507,0,0,1-.227-.758,2.732,2.732,0,0,1-2.133.914,3,3,0,0,1-2.059-.719,2.312,2.312,0,0,1-.816-1.812,2.389,2.389,0,0,1,1-2.062,4.915,4.915,0,0,1,2.879-.727h1.039v-.484a1.393,1.393,0,0,0-.3-.937,1.183,1.183,0,0,0-.949-.352,1.345,1.345,0,0,0-.895.273.929.929,0,0,0-.324.75H94.98a2.268,2.268,0,0,1,.453-1.359,3,3,0,0,1,1.281-.98,4.669,4.669,0,0,1,1.859-.355,3.689,3.689,0,0,1,2.48.785,2.747,2.747,0,0,1,.918,2.207v3.664a4.041,4.041,0,0,0,.336,1.82V34ZM98.16,32.43a1.945,1.945,0,0,0,.922-.223,1.462,1.462,0,0,0,.625-.6V30.156h-.844q-1.7,0-1.8,1.172l-.008.133a.9.9,0,0,0,.3.7A1.153,1.153,0,0,0,98.16,32.43ZM106.09,34h-2.266V22h2.266Zm5.75.156a4.15,4.15,0,0,1-3.027-1.141,4.054,4.054,0,0,1-1.168-3.039v-.219a5.106,5.106,0,0,1,.492-2.277,3.612,3.612,0,0,1,1.395-1.547,3.914,3.914,0,0,1,2.059-.543,3.508,3.508,0,0,1,2.73,1.094,4.444,4.444,0,0,1,1,3.1v.922h-5.383a2.1,2.1,0,0,0,.66,1.328,2,2,0,0,0,1.395.5,2.437,2.437,0,0,0,2.039-.945l1.109,1.242a3.389,3.389,0,0,1-1.375,1.121A4.511,4.511,0,0,1,111.84,34.156Zm-.258-6.945a1.411,1.411,0,0,0-1.09.455,2.357,2.357,0,0,0-.535,1.3H113.1v-.181a1.681,1.681,0,0,0-.406-1.165A1.456,1.456,0,0,0,111.582,27.211Zm9.594,4.453a.727.727,0,0,0-.41-.652,4.659,4.659,0,0,0-1.316-.426q-3.016-.633-3.016-2.562a2.323,2.323,0,0,1,.934-1.879,3.766,3.766,0,0,1,2.441-.754,4.053,4.053,0,0,1,2.574.758,2.388,2.388,0,0,1,.965,1.969H121.09a1.092,1.092,0,0,0-.312-.8A1.322,1.322,0,0,0,119.8,27a1.351,1.351,0,0,0-.883.258.814.814,0,0,0-.312.656.7.7,0,0,0,.355.605,3.657,3.657,0,0,0,1.2.4,9.8,9.8,0,0,1,1.422.379,2.336,2.336,0,0,1,1.789,2.273,2.2,2.2,0,0,1-.992,1.871,4.28,4.28,0,0,1-2.562.715,4.47,4.47,0,0,1-1.887-.379,3.166,3.166,0,0,1-1.293-1.039,2.414,2.414,0,0,1-.469-1.426h2.141a1.179,1.179,0,0,0,.445.922,1.766,1.766,0,0,0,1.109.32,1.635,1.635,0,0,0,.98-.246A.766.766,0,0,0,121.176,31.664Z" transform="translate(1524 -10754)" fill="#12263f"/>
    <path id="Trazado_218780" data-name="Trazado 218780" d="M15.2,12.016A1.2,1.2,0,0,0,14.734,11a6.148,6.148,0,0,0-1.687-.75,11.963,11.963,0,0,1-1.93-.777A3.153,3.153,0,0,1,9.18,6.648,2.747,2.747,0,0,1,9.7,5a3.389,3.389,0,0,1,1.492-1.129,5.616,5.616,0,0,1,2.184-.406,5.112,5.112,0,0,1,2.172.441,3.458,3.458,0,0,1,1.48,1.246,3.261,3.261,0,0,1,.527,1.828H15.211a1.534,1.534,0,0,0-.492-1.215,2.023,2.023,0,0,0-1.383-.434A2.162,2.162,0,0,0,12,5.7a1.146,1.146,0,0,0-.477.957,1.1,1.1,0,0,0,.559.93,6.311,6.311,0,0,0,1.645.7,7.106,7.106,0,0,1,2.914,1.492A2.972,2.972,0,0,1,17.555,12a2.737,2.737,0,0,1-1.117,2.316,4.891,4.891,0,0,1-3.008.84,5.808,5.808,0,0,1-2.391-.48,3.783,3.783,0,0,1-1.645-1.316,3.371,3.371,0,0,1-.566-1.937H11.18q0,1.883,2.25,1.883a2.189,2.189,0,0,0,1.3-.34A1.106,1.106,0,0,0,15.2,12.016Zm7.68,3.141a4.15,4.15,0,0,1-3.027-1.141,4.054,4.054,0,0,1-1.168-3.039v-.219A5.106,5.106,0,0,1,19.18,8.48a3.612,3.612,0,0,1,1.395-1.547,3.914,3.914,0,0,1,2.059-.543,3.508,3.508,0,0,1,2.73,1.094,4.444,4.444,0,0,1,1,3.1v.922H20.977a2.1,2.1,0,0,0,.66,1.328,2,2,0,0,0,1.395.5,2.437,2.437,0,0,0,2.039-.945l1.109,1.242A3.389,3.389,0,0,1,24.8,14.754,4.511,4.511,0,0,1,22.883,15.156Zm-.258-6.945a1.411,1.411,0,0,0-1.09.455A2.357,2.357,0,0,0,21,9.969h3.141V9.788a1.681,1.681,0,0,0-.406-1.165A1.456,1.456,0,0,0,22.625,8.211Zm4.688,2.5a4.954,4.954,0,0,1,.926-3.133,3,3,0,0,1,2.5-1.187,2.631,2.631,0,0,1,2.164.953l.094-.8h2.047v8.172a3.613,3.613,0,0,1-.5,1.93,3.236,3.236,0,0,1-1.418,1.25,4.985,4.985,0,0,1-2.141.43,4.635,4.635,0,0,1-1.812-.371A3.217,3.217,0,0,1,27.828,17l1-1.375a2.645,2.645,0,0,0,2.047.945,1.936,1.936,0,0,0,1.4-.48,1.8,1.8,0,0,0,.5-1.363v-.453a2.612,2.612,0,0,1-2.055.883,2.992,2.992,0,0,1-2.465-1.191,4.953,4.953,0,0,1-.941-3.16Zm2.258.161a3.1,3.1,0,0,0,.461,1.809,1.465,1.465,0,0,0,1.266.655,1.567,1.567,0,0,0,1.477-.777V8.988a1.563,1.563,0,0,0-1.461-.777,1.474,1.474,0,0,0-1.277.667A3.5,3.5,0,0,0,29.57,10.872Zm12.266,3.269a2.831,2.831,0,0,1-2.312,1.016,2.67,2.67,0,0,1-2.074-.781,3.335,3.335,0,0,1-.73-2.289V6.547h2.258v5.467q0,1.322,1.2,1.322a1.63,1.63,0,0,0,1.578-.8V6.547h2.266V15H41.9Zm8.641-5.477a6.134,6.134,0,0,0-.812-.062,1.654,1.654,0,0,0-1.68.867V15H45.727V6.547h2.133l.063,1.008A2.092,2.092,0,0,1,49.8,6.391a2.366,2.366,0,0,1,.7.1ZM50.93,10.7a5.013,5.013,0,0,1,.484-2.242A3.546,3.546,0,0,1,52.809,6.93a4.069,4.069,0,0,1,2.113-.539,3.849,3.849,0,0,1,2.793,1.047,4.2,4.2,0,0,1,1.207,2.844l.016.578a4.418,4.418,0,0,1-1.086,3.121,4.209,4.209,0,0,1-5.832,0A4.5,4.5,0,0,1,50.93,10.8Zm2.258.16a3.16,3.16,0,0,0,.453,1.843,1.628,1.628,0,0,0,2.578.008,3.457,3.457,0,0,0,.461-2.015,3.128,3.128,0,0,0-.461-1.831,1.5,1.5,0,0,0-1.3-.649,1.474,1.474,0,0,0-1.281.646A3.516,3.516,0,0,0,53.188,10.856Zm10.773-.145a5.094,5.094,0,0,1,.887-3.148,2.877,2.877,0,0,1,2.426-1.172,2.589,2.589,0,0,1,2.039.922V3h2.266V15H69.539l-.109-.9a2.657,2.657,0,0,1-2.172,1.055,2.869,2.869,0,0,1-2.395-1.176A5.258,5.258,0,0,1,63.961,10.711Zm2.258.161a3.355,3.355,0,0,0,.414,1.829,1.348,1.348,0,0,0,1.2.636,1.51,1.51,0,0,0,1.477-.887V9.1a1.489,1.489,0,0,0-1.461-.887Q66.219,8.211,66.219,10.872Zm11,4.285a4.15,4.15,0,0,1-3.027-1.141,4.054,4.054,0,0,1-1.168-3.039v-.219a5.106,5.106,0,0,1,.492-2.277A3.612,3.612,0,0,1,74.91,6.934a3.914,3.914,0,0,1,2.059-.543A3.508,3.508,0,0,1,79.7,7.484a4.444,4.444,0,0,1,1,3.1v.922H75.313a2.1,2.1,0,0,0,.66,1.328,2,2,0,0,0,1.395.5,2.437,2.437,0,0,0,2.039-.945l1.109,1.242a3.389,3.389,0,0,1-1.375,1.121A4.511,4.511,0,0,1,77.219,15.156Zm-.258-6.945a1.411,1.411,0,0,0-1.09.455,2.357,2.357,0,0,0-.535,1.3h3.141V9.788a1.681,1.681,0,0,0-.406-1.165A1.456,1.456,0,0,0,76.961,8.211Zm11.7-3.742V6.547h1.445V8.2H88.664v4.219a1.007,1.007,0,0,0,.18.672.9.9,0,0,0,.688.2,3.6,3.6,0,0,0,.664-.055v1.711a4.648,4.648,0,0,1-1.367.2,2.156,2.156,0,0,1-2.422-2.4V8.2H85.172V6.547h1.234V4.469Zm7.453,4.2A6.134,6.134,0,0,0,95.3,8.6a1.654,1.654,0,0,0-1.68.867V15H91.367V6.547H93.5l.063,1.008a2.092,2.092,0,0,1,1.883-1.164,2.366,2.366,0,0,1,.7.1ZM101.867,15a2.507,2.507,0,0,1-.227-.758,2.732,2.732,0,0,1-2.133.914,3,3,0,0,1-2.059-.719,2.312,2.312,0,0,1-.816-1.812,2.389,2.389,0,0,1,1-2.062,4.915,4.915,0,0,1,2.879-.727h1.039V9.352a1.393,1.393,0,0,0-.3-.937,1.183,1.183,0,0,0-.949-.352,1.345,1.345,0,0,0-.895.273.929.929,0,0,0-.324.75H96.82a2.268,2.268,0,0,1,.453-1.359,3,3,0,0,1,1.281-.98,4.669,4.669,0,0,1,1.859-.355,3.689,3.689,0,0,1,2.48.785,2.747,2.747,0,0,1,.918,2.207v3.664a4.041,4.041,0,0,0,.336,1.82V15ZM100,13.43a1.945,1.945,0,0,0,.922-.223,1.462,1.462,0,0,0,.625-.6V11.156H100.7q-1.7,0-1.8,1.172l-.008.133a.9.9,0,0,0,.3.7A1.153,1.153,0,0,0,100,13.43Zm7.625-6.883.07.977a2.951,2.951,0,0,1,2.43-1.133,2.453,2.453,0,0,1,2,.789,3.682,3.682,0,0,1,.672,2.359V15h-2.258V9.581a1.47,1.47,0,0,0-.312-1.045,1.4,1.4,0,0,0-1.039-.325,1.553,1.553,0,0,0-1.43.814V15H105.5V6.547Zm11.461,6.117a.727.727,0,0,0-.41-.652,4.659,4.659,0,0,0-1.316-.426q-3.016-.633-3.016-2.562a2.323,2.323,0,0,1,.934-1.879,3.766,3.766,0,0,1,2.441-.754,4.053,4.053,0,0,1,2.574.758,2.388,2.388,0,0,1,.965,1.969H119a1.092,1.092,0,0,0-.312-.8A1.322,1.322,0,0,0,117.711,8a1.351,1.351,0,0,0-.883.258.814.814,0,0,0-.312.656.7.7,0,0,0,.355.605,3.657,3.657,0,0,0,1.2.4,9.8,9.8,0,0,1,1.422.379,2.336,2.336,0,0,1,1.789,2.273,2.2,2.2,0,0,1-.992,1.871,4.28,4.28,0,0,1-2.562.715,4.47,4.47,0,0,1-1.887-.379,3.166,3.166,0,0,1-1.293-1.039,2.414,2.414,0,0,1-.469-1.426h2.141a1.179,1.179,0,0,0,.445.922,1.766,1.766,0,0,0,1.109.32,1.635,1.635,0,0,0,.98-.246A.766.766,0,0,0,119.086,12.664Zm11.258-1.812a5.07,5.07,0,0,1-.887,3.129,2.843,2.843,0,0,1-2.395,1.176,2.633,2.633,0,0,1-2.07-.891V18.25h-2.258V6.547h2.094l.078.828a2.654,2.654,0,0,1,2.141-.984,2.862,2.862,0,0,1,2.43,1.156,5.207,5.207,0,0,1,.867,3.188Zm-2.258-.172a3.345,3.345,0,0,0-.418-1.826,1.36,1.36,0,0,0-1.215-.643,1.478,1.478,0,0,0-1.461.815V12.5a1.5,1.5,0,0,0,1.477.839Q128.086,13.336,128.086,10.679Zm3.3.016a5.013,5.013,0,0,1,.484-2.242A3.546,3.546,0,0,1,133.27,6.93a4.069,4.069,0,0,1,2.113-.539,3.849,3.849,0,0,1,2.793,1.047,4.2,4.2,0,0,1,1.207,2.844l.016.578a4.418,4.418,0,0,1-1.086,3.121,4.209,4.209,0,0,1-5.832,0,4.5,4.5,0,0,1-1.09-3.187Zm2.258.16A3.16,3.16,0,0,0,134.1,12.7a1.628,1.628,0,0,0,2.578.008,3.457,3.457,0,0,0,.461-2.015,3.128,3.128,0,0,0-.461-1.831,1.5,1.5,0,0,0-1.3-.649,1.474,1.474,0,0,0-1.281.646A3.516,3.516,0,0,0,133.648,10.856Zm11.891-2.192a6.134,6.134,0,0,0-.812-.062,1.654,1.654,0,0,0-1.68.867V15h-2.258V6.547h2.133l.063,1.008a2.092,2.092,0,0,1,1.883-1.164,2.366,2.366,0,0,1,.7.1Zm4.18-4.2V6.547h1.445V8.2h-1.445v4.219a1.007,1.007,0,0,0,.18.672.9.9,0,0,0,.688.2,3.6,3.6,0,0,0,.664-.055v1.711a4.648,4.648,0,0,1-1.367.2,2.156,2.156,0,0,1-2.422-2.4V8.2h-1.234V6.547h1.234V4.469Zm6.594,10.688a4.15,4.15,0,0,1-3.027-1.141,4.054,4.054,0,0,1-1.168-3.039v-.219a5.106,5.106,0,0,1,.492-2.277A3.612,3.612,0,0,1,154,6.934a3.914,3.914,0,0,1,2.059-.543,3.508,3.508,0,0,1,2.73,1.094,4.444,4.444,0,0,1,1,3.1v.922h-5.383a2.1,2.1,0,0,0,.66,1.328,2,2,0,0,0,1.395.5,2.437,2.437,0,0,0,2.039-.945l1.109,1.242a3.389,3.389,0,0,1-1.375,1.121A4.511,4.511,0,0,1,156.313,15.156Zm-.258-6.945a1.411,1.411,0,0,0-1.09.455,2.357,2.357,0,0,0-.535,1.3h3.141V9.788a1.681,1.681,0,0,0-.406-1.165A1.456,1.456,0,0,0,156.055,8.211Z" transform="translate(905 -11091)" fill="#12263f"/>
    <path id="Trazado_218782" data-name="Trazado 218782" d="M33.25,12.016A1.2,1.2,0,0,0,32.781,11a6.148,6.148,0,0,0-1.687-.75,11.963,11.963,0,0,1-1.93-.777,3.153,3.153,0,0,1-1.937-2.82A2.747,2.747,0,0,1,27.746,5a3.389,3.389,0,0,1,1.492-1.129,5.616,5.616,0,0,1,2.184-.406,5.112,5.112,0,0,1,2.172.441,3.458,3.458,0,0,1,1.48,1.246A3.261,3.261,0,0,1,35.6,6.984H33.258a1.534,1.534,0,0,0-.492-1.215,2.023,2.023,0,0,0-1.383-.434,2.162,2.162,0,0,0-1.336.363,1.146,1.146,0,0,0-.477.957,1.1,1.1,0,0,0,.559.93,6.311,6.311,0,0,0,1.645.7,7.106,7.106,0,0,1,2.914,1.492A2.972,2.972,0,0,1,35.6,12a2.737,2.737,0,0,1-1.117,2.316,4.891,4.891,0,0,1-3.008.84,5.808,5.808,0,0,1-2.391-.48,3.783,3.783,0,0,1-1.645-1.316,3.371,3.371,0,0,1-.566-1.937h2.352q0,1.883,2.25,1.883a2.189,2.189,0,0,0,1.3-.34A1.106,1.106,0,0,0,33.25,12.016Zm7.68,3.141A4.15,4.15,0,0,1,37.9,14.016a4.054,4.054,0,0,1-1.168-3.039v-.219a5.106,5.106,0,0,1,.492-2.277,3.612,3.612,0,0,1,1.395-1.547,3.914,3.914,0,0,1,2.059-.543,3.508,3.508,0,0,1,2.73,1.094,4.444,4.444,0,0,1,1,3.1v.922H39.023a2.1,2.1,0,0,0,.66,1.328,2,2,0,0,0,1.395.5,2.437,2.437,0,0,0,2.039-.945l1.109,1.242a3.389,3.389,0,0,1-1.375,1.121A4.511,4.511,0,0,1,40.93,15.156Zm-.258-6.945a1.411,1.411,0,0,0-1.09.455,2.357,2.357,0,0,0-.535,1.3h3.141V9.788a1.681,1.681,0,0,0-.406-1.165A1.456,1.456,0,0,0,40.672,8.211Zm4.688,2.5a4.954,4.954,0,0,1,.926-3.133,3,3,0,0,1,2.5-1.187,2.631,2.631,0,0,1,2.164.953l.094-.8h2.047v8.172a3.613,3.613,0,0,1-.5,1.93,3.236,3.236,0,0,1-1.418,1.25,4.985,4.985,0,0,1-2.141.43,4.635,4.635,0,0,1-1.812-.371A3.217,3.217,0,0,1,45.875,17l1-1.375a2.645,2.645,0,0,0,2.047.945,1.936,1.936,0,0,0,1.4-.48,1.8,1.8,0,0,0,.5-1.363v-.453a2.612,2.612,0,0,1-2.055.883A2.992,2.992,0,0,1,46.3,13.965a4.953,4.953,0,0,1-.941-3.16Zm2.258.161a3.1,3.1,0,0,0,.461,1.809,1.465,1.465,0,0,0,1.266.655,1.567,1.567,0,0,0,1.477-.777V8.988a1.563,1.563,0,0,0-1.461-.777,1.474,1.474,0,0,0-1.277.667A3.5,3.5,0,0,0,47.617,10.872Zm12.266,3.269a2.831,2.831,0,0,1-2.312,1.016,2.67,2.67,0,0,1-2.074-.781,3.335,3.335,0,0,1-.73-2.289V6.547h2.258v5.467q0,1.322,1.2,1.322a1.63,1.63,0,0,0,1.578-.8V6.547H62.07V15H59.945Zm8.641-5.477a6.134,6.134,0,0,0-.812-.062,1.654,1.654,0,0,0-1.68.867V15H63.773V6.547h2.133l.063,1.008a2.092,2.092,0,0,1,1.883-1.164,2.366,2.366,0,0,1,.7.1Zm.453,2.031a5.013,5.013,0,0,1,.484-2.242A3.546,3.546,0,0,1,70.855,6.93a4.069,4.069,0,0,1,2.113-.539,3.849,3.849,0,0,1,2.793,1.047,4.2,4.2,0,0,1,1.207,2.844l.016.578A4.418,4.418,0,0,1,75.9,13.98a4.209,4.209,0,0,1-5.832,0,4.5,4.5,0,0,1-1.09-3.187Zm2.258.16a3.16,3.16,0,0,0,.453,1.843,1.628,1.628,0,0,0,2.578.008,3.457,3.457,0,0,0,.461-2.015,3.128,3.128,0,0,0-.461-1.831,1.5,1.5,0,0,0-1.3-.649,1.474,1.474,0,0,0-1.281.646A3.516,3.516,0,0,0,71.234,10.856Zm10.773-.145a5.094,5.094,0,0,1,.887-3.148A2.877,2.877,0,0,1,85.32,6.391a2.589,2.589,0,0,1,2.039.922V3h2.266V15H87.586l-.109-.9A2.657,2.657,0,0,1,85.3,15.156,2.869,2.869,0,0,1,82.91,13.98,5.258,5.258,0,0,1,82.008,10.711Zm2.258.161A3.355,3.355,0,0,0,84.68,12.7a1.348,1.348,0,0,0,1.2.636,1.51,1.51,0,0,0,1.477-.887V9.1A1.489,1.489,0,0,0,85.9,8.211Q84.266,8.211,84.266,10.872Zm11,4.285a4.15,4.15,0,0,1-3.027-1.141,4.054,4.054,0,0,1-1.168-3.039v-.219a5.106,5.106,0,0,1,.492-2.277,3.612,3.612,0,0,1,1.395-1.547,3.914,3.914,0,0,1,2.059-.543,3.508,3.508,0,0,1,2.73,1.094,4.444,4.444,0,0,1,1,3.1v.922H93.359a2.1,2.1,0,0,0,.66,1.328,2,2,0,0,0,1.395.5,2.437,2.437,0,0,0,2.039-.945l1.109,1.242a3.389,3.389,0,0,1-1.375,1.121A4.511,4.511,0,0,1,95.266,15.156Zm-.258-6.945a1.411,1.411,0,0,0-1.09.455,2.357,2.357,0,0,0-.535,1.3h3.141V9.788a1.681,1.681,0,0,0-.406-1.165A1.456,1.456,0,0,0,95.008,8.211Zm13.578,4.453a.727.727,0,0,0-.41-.652,4.659,4.659,0,0,0-1.316-.426q-3.016-.633-3.016-2.562a2.323,2.323,0,0,1,.934-1.879,3.766,3.766,0,0,1,2.441-.754,4.053,4.053,0,0,1,2.574.758,2.388,2.388,0,0,1,.965,1.969H108.5a1.092,1.092,0,0,0-.312-.8A1.322,1.322,0,0,0,107.211,8a1.351,1.351,0,0,0-.883.258.814.814,0,0,0-.312.656.7.7,0,0,0,.355.605,3.657,3.657,0,0,0,1.2.4,9.8,9.8,0,0,1,1.422.379,2.336,2.336,0,0,1,1.789,2.273,2.2,2.2,0,0,1-.992,1.871,4.28,4.28,0,0,1-2.562.715,4.47,4.47,0,0,1-1.887-.379,3.166,3.166,0,0,1-1.293-1.039,2.414,2.414,0,0,1-.469-1.426h2.141a1.179,1.179,0,0,0,.445.922,1.766,1.766,0,0,0,1.109.32,1.635,1.635,0,0,0,.98-.246A.766.766,0,0,0,108.586,12.664ZM117.133,15a2.507,2.507,0,0,1-.227-.758,2.732,2.732,0,0,1-2.133.914,3,3,0,0,1-2.059-.719,2.312,2.312,0,0,1-.816-1.812,2.389,2.389,0,0,1,1-2.062,4.915,4.915,0,0,1,2.879-.727h1.039V9.352a1.393,1.393,0,0,0-.3-.937,1.183,1.183,0,0,0-.949-.352,1.345,1.345,0,0,0-.895.273.929.929,0,0,0-.324.75h-2.258a2.268,2.268,0,0,1,.453-1.359,3,3,0,0,1,1.281-.98,4.669,4.669,0,0,1,1.859-.355,3.689,3.689,0,0,1,2.48.785,2.747,2.747,0,0,1,.918,2.207v3.664a4.041,4.041,0,0,0,.336,1.82V15Zm-1.867-1.57a1.945,1.945,0,0,0,.922-.223,1.462,1.462,0,0,0,.625-.6V11.156h-.844q-1.7,0-1.8,1.172l-.008.133a.9.9,0,0,0,.3.7A1.153,1.153,0,0,0,115.266,13.43ZM123.2,15H120.93V3H123.2Zm6.922-.859a2.831,2.831,0,0,1-2.312,1.016,2.67,2.67,0,0,1-2.074-.781,3.335,3.335,0,0,1-.73-2.289V6.547h2.258v5.467q0,1.322,1.2,1.322a1.63,1.63,0,0,0,1.578-.8V6.547H132.3V15H130.18Zm3.539-3.43a5.094,5.094,0,0,1,.887-3.148,2.877,2.877,0,0,1,2.426-1.172,2.589,2.589,0,0,1,2.039.922V3h2.266V15h-2.039l-.109-.9a2.657,2.657,0,0,1-2.172,1.055,2.869,2.869,0,0,1-2.395-1.176A5.258,5.258,0,0,1,133.656,10.711Zm2.258.161a3.355,3.355,0,0,0,.414,1.829,1.348,1.348,0,0,0,1.2.636,1.51,1.51,0,0,0,1.477-.887V9.1a1.489,1.489,0,0,0-1.461-.887Q135.914,8.211,135.914,10.872Z" transform="translate(1318 -11091)" fill="#12263f"/>
    <path id="Trazado_218784" data-name="Trazado 218784" d="M31.789,12.016A1.2,1.2,0,0,0,31.32,11a6.148,6.148,0,0,0-1.687-.75,11.963,11.963,0,0,1-1.93-.777,3.153,3.153,0,0,1-1.937-2.82A2.747,2.747,0,0,1,26.285,5a3.389,3.389,0,0,1,1.492-1.129,5.616,5.616,0,0,1,2.184-.406,5.112,5.112,0,0,1,2.172.441,3.458,3.458,0,0,1,1.48,1.246,3.261,3.261,0,0,1,.527,1.828H31.8A1.534,1.534,0,0,0,31.3,5.77a2.023,2.023,0,0,0-1.383-.434,2.162,2.162,0,0,0-1.336.363,1.146,1.146,0,0,0-.477.957,1.1,1.1,0,0,0,.559.93,6.311,6.311,0,0,0,1.645.7,7.106,7.106,0,0,1,2.914,1.492A2.972,2.972,0,0,1,34.141,12a2.737,2.737,0,0,1-1.117,2.316,4.891,4.891,0,0,1-3.008.84,5.808,5.808,0,0,1-2.391-.48,3.783,3.783,0,0,1-1.645-1.316,3.371,3.371,0,0,1-.566-1.937h2.352q0,1.883,2.25,1.883a2.189,2.189,0,0,0,1.3-.34A1.106,1.106,0,0,0,31.789,12.016Zm7.68,3.141a4.15,4.15,0,0,1-3.027-1.141,4.054,4.054,0,0,1-1.168-3.039v-.219a5.106,5.106,0,0,1,.492-2.277A3.612,3.612,0,0,1,37.16,6.934a3.914,3.914,0,0,1,2.059-.543,3.508,3.508,0,0,1,2.73,1.094,4.444,4.444,0,0,1,1,3.1v.922H37.563a2.1,2.1,0,0,0,.66,1.328,2,2,0,0,0,1.395.5,2.437,2.437,0,0,0,2.039-.945l1.109,1.242a3.389,3.389,0,0,1-1.375,1.121A4.511,4.511,0,0,1,39.469,15.156Zm-.258-6.945a1.411,1.411,0,0,0-1.09.455,2.357,2.357,0,0,0-.535,1.3h3.141V9.788a1.681,1.681,0,0,0-.406-1.165A1.456,1.456,0,0,0,39.211,8.211Zm4.688,2.5a4.954,4.954,0,0,1,.926-3.133,3,3,0,0,1,2.5-1.187,2.631,2.631,0,0,1,2.164.953l.094-.8h2.047v8.172a3.613,3.613,0,0,1-.5,1.93A3.236,3.236,0,0,1,49.7,17.9a4.985,4.985,0,0,1-2.141.43,4.635,4.635,0,0,1-1.812-.371A3.217,3.217,0,0,1,44.414,17l1-1.375a2.645,2.645,0,0,0,2.047.945,1.936,1.936,0,0,0,1.4-.48,1.8,1.8,0,0,0,.5-1.363v-.453a2.612,2.612,0,0,1-2.055.883,2.992,2.992,0,0,1-2.465-1.191A4.953,4.953,0,0,1,43.9,10.8Zm2.258.161a3.1,3.1,0,0,0,.461,1.809,1.465,1.465,0,0,0,1.266.655,1.567,1.567,0,0,0,1.477-.777V8.988A1.563,1.563,0,0,0,47.9,8.211a1.474,1.474,0,0,0-1.277.667A3.5,3.5,0,0,0,46.156,10.872Zm12.266,3.269a2.831,2.831,0,0,1-2.312,1.016,2.67,2.67,0,0,1-2.074-.781,3.335,3.335,0,0,1-.73-2.289V6.547h2.258v5.467q0,1.322,1.2,1.322a1.63,1.63,0,0,0,1.578-.8V6.547h2.266V15H58.484Zm8.641-5.477A6.134,6.134,0,0,0,66.25,8.6a1.654,1.654,0,0,0-1.68.867V15H62.313V6.547h2.133l.063,1.008a2.092,2.092,0,0,1,1.883-1.164,2.366,2.366,0,0,1,.7.1Zm.453,2.031A5.013,5.013,0,0,1,68,8.453,3.546,3.546,0,0,1,69.395,6.93a4.069,4.069,0,0,1,2.113-.539A3.849,3.849,0,0,1,74.3,7.438a4.2,4.2,0,0,1,1.207,2.844l.016.578a4.418,4.418,0,0,1-1.086,3.121,4.209,4.209,0,0,1-5.832,0,4.5,4.5,0,0,1-1.09-3.187Zm2.258.16a3.16,3.16,0,0,0,.453,1.843,1.628,1.628,0,0,0,2.578.008,3.457,3.457,0,0,0,.461-2.015A3.128,3.128,0,0,0,72.8,8.86a1.5,1.5,0,0,0-1.3-.649,1.474,1.474,0,0,0-1.281.646A3.516,3.516,0,0,0,69.773,10.856Zm10.773-.145a5.094,5.094,0,0,1,.887-3.148,2.877,2.877,0,0,1,2.426-1.172,2.589,2.589,0,0,1,2.039.922V3h2.266V15H86.125l-.109-.9a2.657,2.657,0,0,1-2.172,1.055,2.869,2.869,0,0,1-2.395-1.176A5.258,5.258,0,0,1,80.547,10.711Zm2.258.161a3.355,3.355,0,0,0,.414,1.829,1.348,1.348,0,0,0,1.2.636,1.51,1.51,0,0,0,1.477-.887V9.1a1.489,1.489,0,0,0-1.461-.887Q82.8,8.211,82.8,10.872Zm11,4.285a4.15,4.15,0,0,1-3.027-1.141,4.054,4.054,0,0,1-1.168-3.039v-.219A5.106,5.106,0,0,1,90.1,8.48,3.612,3.612,0,0,1,91.5,6.934a3.914,3.914,0,0,1,2.059-.543,3.508,3.508,0,0,1,2.73,1.094,4.444,4.444,0,0,1,1,3.1v.922H91.9a2.1,2.1,0,0,0,.66,1.328,2,2,0,0,0,1.395.5,2.437,2.437,0,0,0,2.039-.945L97.1,13.633a3.389,3.389,0,0,1-1.375,1.121A4.511,4.511,0,0,1,93.8,15.156Zm-.258-6.945a1.411,1.411,0,0,0-1.09.455,2.357,2.357,0,0,0-.535,1.3h3.141V9.788a1.681,1.681,0,0,0-.406-1.165A1.456,1.456,0,0,0,93.547,8.211Zm12.164,4.031,1.57-5.7h2.359L106.789,15h-2.156l-2.852-8.453h2.359Zm7.3,2.758H110.75V6.547h2.266Zm-2.4-10.641a1.112,1.112,0,0,1,.34-.836,1.465,1.465,0,0,1,1.848,0,1.105,1.105,0,0,1,.344.836,1.108,1.108,0,0,1-.348.844,1.448,1.448,0,0,1-1.836,0A1.108,1.108,0,0,1,110.617,4.359ZM119.773,15a2.507,2.507,0,0,1-.227-.758,2.732,2.732,0,0,1-2.133.914,3,3,0,0,1-2.059-.719,2.312,2.312,0,0,1-.816-1.812,2.389,2.389,0,0,1,1-2.062,4.915,4.915,0,0,1,2.879-.727h1.039V9.352a1.393,1.393,0,0,0-.3-.937,1.183,1.183,0,0,0-.949-.352,1.345,1.345,0,0,0-.895.273.929.929,0,0,0-.324.75h-2.258a2.268,2.268,0,0,1,.453-1.359,3,3,0,0,1,1.281-.98,4.669,4.669,0,0,1,1.859-.355,3.689,3.689,0,0,1,2.48.785,2.747,2.747,0,0,1,.918,2.207v3.664a4.041,4.041,0,0,0,.336,1.82V15Zm-1.867-1.57a1.945,1.945,0,0,0,.922-.223,1.462,1.462,0,0,0,.625-.6V11.156h-.844q-1.7,0-1.8,1.172l-.008.133a.9.9,0,0,0,.3.7A1.153,1.153,0,0,0,117.906,13.43Zm7.938-6.883v8.914a3.024,3.024,0,0,1-.742,2.176,2.821,2.821,0,0,1-2.141.777,4.591,4.591,0,0,1-1.117-.133V16.492a4.238,4.238,0,0,0,.711.07q1.023,0,1.023-1.086V6.547ZM123.4,4.359a1.112,1.112,0,0,1,.34-.836,1.47,1.47,0,0,1,1.852,0,1.112,1.112,0,0,1,.34.836,1.108,1.108,0,0,1-.348.844,1.448,1.448,0,0,1-1.836,0A1.108,1.108,0,0,1,123.4,4.359Zm8.1,10.8a4.15,4.15,0,0,1-3.027-1.141,4.054,4.054,0,0,1-1.168-3.039v-.219A5.106,5.106,0,0,1,127.8,8.48a3.612,3.612,0,0,1,1.395-1.547,3.914,3.914,0,0,1,2.059-.543,3.508,3.508,0,0,1,2.73,1.094,4.444,4.444,0,0,1,1,3.1v.922h-5.383a2.1,2.1,0,0,0,.66,1.328,2,2,0,0,0,1.395.5,2.437,2.437,0,0,0,2.039-.945l1.109,1.242a3.389,3.389,0,0,1-1.375,1.121A4.511,4.511,0,0,1,131.5,15.156Zm-.258-6.945a1.411,1.411,0,0,0-1.09.455,2.357,2.357,0,0,0-.535,1.3h3.141V9.788a1.681,1.681,0,0,0-.406-1.165A1.456,1.456,0,0,0,131.242,8.211Zm9.594,4.453a.727.727,0,0,0-.41-.652,4.659,4.659,0,0,0-1.316-.426q-3.016-.633-3.016-2.562a2.323,2.323,0,0,1,.934-1.879,3.766,3.766,0,0,1,2.441-.754,4.053,4.053,0,0,1,2.574.758,2.388,2.388,0,0,1,.965,1.969H140.75a1.092,1.092,0,0,0-.312-.8A1.322,1.322,0,0,0,139.461,8a1.351,1.351,0,0,0-.883.258.814.814,0,0,0-.312.656.7.7,0,0,0,.355.605,3.657,3.657,0,0,0,1.2.4,9.8,9.8,0,0,1,1.422.379,2.336,2.336,0,0,1,1.789,2.273,2.205,2.205,0,0,1-.992,1.871,4.28,4.28,0,0,1-2.562.715,4.47,4.47,0,0,1-1.887-.379,3.166,3.166,0,0,1-1.293-1.039,2.414,2.414,0,0,1-.469-1.426h2.141a1.179,1.179,0,0,0,.445.922,1.766,1.766,0,0,0,1.109.32,1.635,1.635,0,0,0,.98-.246A.766.766,0,0,0,140.836,12.664Z" transform="translate(1730.712 -11091)" fill="#12263f"/>
  </g>
</svg>
