<svg id="poliza-de-seguros" xmlns="http://www.w3.org/2000/svg" width="116.174" height="116.161" viewBox="0 0 116.174 116.161">
  <path id="Trazado_218595" data-name="Trazado 218595" d="M75.54,62.259V6.109A5.809,5.809,0,0,0,69.732.3H3.9L9.709,62.259Z" transform="translate(21.271 1.636)" fill="#fff"/>
  <path id="Trazado_218596" data-name="Trazado 218596" d="M3,62.259V6.109a5.809,5.809,0,0,1,11.617,0V62.259Z" transform="translate(16.362 1.636)" fill="#54aa13"/>
  <path id="Trazado_218597" data-name="Trazado 218597" d="M10.589,42.761A29.382,29.382,0,0,1,6.6,27.929V9.361A3.28,3.28,0,0,1,9.446,6.108,83.031,83.031,0,0,0,26.7,2.332a3.218,3.218,0,0,1,2.4,0A83.031,83.031,0,0,0,46.351,6.108,3.28,3.28,0,0,1,49.2,9.361V27.929a29.624,29.624,0,0,1-7.59,19.788Z" transform="translate(35.997 11.454)" fill="#e4f1ff"/>
  <path id="Trazado_218598" data-name="Trazado 218598" d="M13.686,35.973A21.748,21.748,0,0,1,7.8,21.045V7.995A1.936,1.936,0,0,1,9.426,6.078,82.462,82.462,0,0,0,20.773,3.464a1.71,1.71,0,0,1,1.162,0A82.464,82.464,0,0,0,33.281,6.078a1.952,1.952,0,0,1,1.626,1.917v13.05a21.666,21.666,0,0,1-7.125,16.129Z" transform="translate(42.542 18.338)" fill="#fece2f"/>
  <path id="Trazado_218599" data-name="Trazado 218599" d="M82.783,38.278a4.928,4.928,0,0,1-.194,7.958,4.994,4.994,0,0,1-5.693-.271l1.723,1.259A4.951,4.951,0,0,1,79.665,54a4.841,4.841,0,0,1-6.757,1.046L71.34,53.9a4.813,4.813,0,0,1,1.046,6.757,4.91,4.91,0,0,1-6.757,1.046l-.755-.542A3.872,3.872,0,0,1,60.284,67.4L52.907,62,20.436,44.571c-4.9-4.628-17-3.253-17-3.253L1.5,16.147H18a7.809,7.809,0,0,0,4.821-1.685A26.273,26.273,0,0,1,38.288,8.4a51.666,51.666,0,0,1,9.1.716Z" transform="translate(8.181 45.812)" fill="#91674b"/>
  <path id="Trazado_218600" data-name="Trazado 218600" d="M70.45,15.807,68.514,40.978a66.8,66.8,0,0,0-12.043.833,4.819,4.819,0,0,0-1.549-1.936L27.195,20.57a1.936,1.936,0,0,0-2.42.174l-9.8,9.1a4.926,4.926,0,0,1-6.448.465,5.077,5.077,0,0,1-.716-7.261L19.469,10.773l.058-.058A8.907,8.907,0,0,1,29.693,8.991L42.433,15.4a3.764,3.764,0,0,0,1.723.407Z" transform="translate(36.042 44.216)" fill="#dab09b"/>
  <rect id="Rect치ngulo_45302" data-name="Rect치ngulo 45302" width="9.681" height="32.916" rx="0.3" transform="translate(1.936 58.087)" fill="#fece2f"/>
  <path id="Trazado_218601" data-name="Trazado 218601" d="M39.948,33.236a3.762,3.762,0,0,1-.525,2.012l-3.64,6.022a3.875,3.875,0,0,1-6.622-4.027l.5-.833A4.856,4.856,0,0,1,23,38.055a5.034,5.034,0,0,1-1.626-6.661,4.827,4.827,0,0,1-6.641,1.626,4.953,4.953,0,0,1-1.665-6.564,4.976,4.976,0,0,1-6.6,1.568,4.872,4.872,0,0,1-1.646-6.661l3.64-6.022a4.92,4.92,0,0,1,6.661-1.626,4.823,4.823,0,0,1,1.626,6.641l1.007-1.665A4.841,4.841,0,0,1,24.4,17.067a4.976,4.976,0,0,1,1.626,6.661l-.949,1.549a4.858,4.858,0,0,1,6.6-1.53,4.951,4.951,0,0,1,1.626,6.641l-.5.833a3.886,3.886,0,0,1,5.325-1.3,3.946,3.946,0,0,1,1.822,3.313Z" transform="translate(22.536 71.109)" fill="#dab09b"/>
  <rect id="Rect치ngulo_45303" data-name="Rect치ngulo 45303" width="9.681" height="32.916" rx="0.3" transform="translate(104.556 56.151)" fill="#fece2f"/>
  <path id="Trazado_218602" data-name="Trazado 218602" d="M112.3,54.214h-5.809a3.872,3.872,0,0,0-3.872,3.872H80.973a31.5,31.5,0,0,0,6.157-18.7V20.814A5.228,5.228,0,0,0,82.6,15.643a83.228,83.228,0,0,1-16.785-3.656,5.168,5.168,0,0,0-3.849,0,83.331,83.331,0,0,1-16.772,3.65,5.228,5.228,0,0,0-4.533,5.177V39.383A31.473,31.473,0,0,0,43.536,52.5a27.8,27.8,0,0,0-10.62,4.074V7.745a7.666,7.666,0,0,0-1.077-3.872H91a3.872,3.872,0,0,1,3.872,3.872V52.278a1.936,1.936,0,1,0,3.872,0V7.745A7.745,7.745,0,0,0,91,0H25.171a7.745,7.745,0,0,0-7.745,7.745V60.023H13.554a3.872,3.872,0,0,0-3.872-3.872H3.872A3.872,3.872,0,0,0,0,60.023V89.066a3.872,3.872,0,0,0,3.872,3.872H9.681a3.872,3.872,0,0,0,3.872-3.872v-.145c3.429-.176,9.153.021,12.5,1.977l-.352.581A6.87,6.87,0,0,0,28,100.784a6.97,6.97,0,0,0,5.187.775c0,.019,0,.039,0,.06a6.788,6.788,0,0,0,6.57,5.166,6.939,6.939,0,0,0,1.624-.194c.025,0,.046-.019.072-.025a.159.159,0,0,0,.012.074,6.725,6.725,0,0,0,3.071,4.173,6.806,6.806,0,0,0,4.81.827,5.809,5.809,0,0,0,10.62,1.743l1.673-2.763,5.689,4.167a5.857,5.857,0,0,0,8.1-1.28,5.77,5.77,0,0,0,1.111-3.141,6.777,6.777,0,0,0,6.914-6.657,6.829,6.829,0,0,0,1.533-.066,6.7,6.7,0,0,0,4.43-2.689,6.87,6.87,0,0,0,.8-6.5,6.207,6.207,0,0,0,1.648-.8A6.835,6.835,0,0,0,94.875,88c0-.13-.039-.252-.045-.387a70.232,70.232,0,0,1,7.789-.469A3.872,3.872,0,0,0,106.492,91H112.3a3.872,3.872,0,0,0,3.872-3.872V58.087A3.872,3.872,0,0,0,112.3,54.214ZM9.681,89.066H3.872V60.023H9.681ZM44.533,20.814a1.342,1.342,0,0,1,1.162-1.332,84.45,84.45,0,0,0,17.718-3.9,1.259,1.259,0,0,1,.953,0,84.357,84.357,0,0,0,17.73,3.9,1.342,1.342,0,0,1,1.162,1.332V39.383a27.6,27.6,0,0,1-6.173,17.368L73.55,54.971a23.709,23.709,0,0,0,5.836-15.589V26.333a3.872,3.872,0,0,0-3.245-3.826A79.747,79.747,0,0,1,65.1,19.97a3.667,3.667,0,0,0-2.391-.01A79.967,79.967,0,0,1,51.651,22.5a3.872,3.872,0,0,0-3.245,3.828v13.05a23.674,23.674,0,0,0,3.987,13.176q-2.194-.213-4.647-.258a27.548,27.548,0,0,1-3.212-12.919ZM56.6,51.767a19.773,19.773,0,0,1-4.32-12.384V26.333A84.357,84.357,0,0,0,63.87,23.649a86.728,86.728,0,0,0,11.643,2.684v13.05a19.8,19.8,0,0,1-5.571,13.774l-3.319-1.669a10.9,10.9,0,0,0-10.026.279ZM21.3,7.745a3.872,3.872,0,1,1,7.745,0V59.258a5.768,5.768,0,0,1-2.871.765H21.3Zm8.713,89.727a2.955,2.955,0,0,1-.984-3.991L32.67,87.45a2.905,2.905,0,1,1,5.021,2.926s-3.7,6.107-3.719,6.155a2.9,2.9,0,0,1-3.96.941Zm8.27,5.007a2.922,2.922,0,0,1-.968-3.975l4.647-7.693a2.9,2.9,0,1,1,4.966,3.013L42.279,101.5a2.949,2.949,0,0,1-4.008.976Zm8.275,5.023a2.933,2.933,0,0,1-.968-3.991l3.65-6.024a2.941,2.941,0,0,1,3.985-.968,2.9,2.9,0,0,1,.968,3.993l-3.656,6.014a2.933,2.933,0,0,1-3.989.976Zm10.109,3.872a1.936,1.936,0,0,1-3.309-2.012L57,103.34a1.961,1.961,0,0,1,2.658-.651,1.936,1.936,0,0,1,.651,2.66ZM89.688,90.462a3.067,3.067,0,0,1-3.458-.234l-5.692-4.165a1.937,1.937,0,1,0-2.285,3.129l7.414,5.421a3.034,3.034,0,0,1,.627,4.066,2.947,2.947,0,0,1-4.054.622l-8.167-5.979a1.937,1.937,0,1,0-2.289,3.125l6.632,4.86A2.947,2.947,0,0,1,79,105.331a3,3,0,0,1-4.078.631c-.194-.153-4.089-2.978-4.089-2.978a1.938,1.938,0,0,0-2.265,3.144s3.292,2.345,3.332,2.4a1.936,1.936,0,0,1,.387,2.691,1.967,1.967,0,0,1-2.689.424l-5.962-4.364a5.809,5.809,0,0,0-5.2-8.748,6.719,6.719,0,0,0-7.265-6.283A6.756,6.756,0,0,0,42.8,85.734a6.827,6.827,0,0,0-1.45.556,6.777,6.777,0,0,0-12.018-.844l-1.293,2.143c-4.451-2.633-11.044-2.724-14.485-2.548V63.9H26.172A9.786,9.786,0,0,0,32.194,61.8a24.46,24.46,0,0,1,14.276-5.65c1.8,0,3.485.076,5.067.213l-9.122,9.606a7.085,7.085,0,0,0,1,10.109,6.864,6.864,0,0,0,8.92-.6l9.8-9.1L89.82,85.655a2.96,2.96,0,0,1-.141,4.794Zm2.393-7.939L64.358,63.208a3.872,3.872,0,0,0-4.86.333L49.643,72.7a3,3,0,0,1-3.913.275,3.125,3.125,0,0,1-.469-4.376L56.917,56.323a7.011,7.011,0,0,1,7.939-1.384l12.719,6.39a5.693,5.693,0,0,0,2.624.631H102.62V83.271a70.333,70.333,0,0,0-9.166.629,6.812,6.812,0,0,0-1.382-1.4ZM112.3,87.13h-5.809V58.087H112.3Z" fill="#373737"/>
  <path id="Trazado_218603" data-name="Trazado 218603" d="M13.01,16.717a1.936,1.936,0,0,0,1.412-.774L20.23,8.2a1.936,1.936,0,1,0-3.1-2.323l-4.469,5.96-.358-.358a1.936,1.936,0,1,0-2.738,2.738L11.5,16.15a1.936,1.936,0,0,0,1.369.567Z" transform="translate(49.087 27.816)" fill="#373737"/>
</svg>
