<svg xmlns="http://www.w3.org/2000/svg" width="315" height="250.95" viewBox="0 0 315 250.95">
  <g id="Judge-pana_1_" data-name="Judge-pana (1)" transform="translate(-23.92 -41.272)">
    <g id="freepik--background-simple--inject-5" transform="translate(38.408 41.272)">
      <path id="Trazado_216976" data-name="Trazado 216976" d="M321.478,77.468h0A75.3,75.3,0,0,0,266.9,41.888a76.949,76.949,0,0,0-25.4,1A79.837,79.837,0,0,0,184.4,91.9c-5.433,14.4-6.95,30.978-17.255,42.41-13.411,14.893-36.169,15.34-56.2,14.723s-42.808-.092-56.155,14.844c-8.354,9.354-11.014,22.652-10.34,35.177,1.78,33.162,25.184,62.814,54.97,77.551s64.793,16.056,97.367,9.574c45.623-9.085,89.012-34.042,115.1-72.544,24.943-36.843,32.063-86.445,14.4-127.075A73.525,73.525,0,0,0,321.478,77.468Z" transform="translate(-44.349 -41.272)" fill="#ebebeb"/>
    </g>
    <g id="freepik--Character--inject-5" transform="translate(53.472 88.266)">
      <path id="Trazado_216977" data-name="Trazado 216977" d="M255.226,112.829c-5.674-1.73-11.588,3.347-17.411,2.206-3.546-.709-6.2-3.546-9.347-5.276-4.7-2.624-11.347-3.05-16.156-.61s-7.893,5.042-8.546,10.39c-4.376-2.511-11.666,2.993-14.149,8.3s-1.865,10.794-.454,16.482a77.231,77.231,0,0,0,12.766,27.226c.532.709,1.376,1.518,2.184,1.142a1.972,1.972,0,0,0,.844-1.574c.83-5.2.17-10.51-.277-15.759s-.709-10.638.986-15.666,5.574-9.567,10.744-10.588c3.816-.752,7.8.489,11.177,2.4s6.383,4.454,9.61,6.624,6.865,3.993,10.752,4.163,8.064-1.667,9.716-5.184-.2-8.51-4.007-9.34a7.652,7.652,0,0,0,1.567-14.936Z" transform="translate(-101.166 -107.535)" fill="#263238"/>
      <path id="Trazado_216978" data-name="Trazado 216978" d="M241.481,207.116l-.553-11.262s14.844-2.837,14.5-17.766c-.163-7.206-1.709-21.985-3.262-35.411a27.815,27.815,0,0,0-28.609-24.6l-1.418.05c-15.489,1.418-22.907,15.418-21.028,30.857l3.546,60.119a18.439,18.439,0,0,0,19.383,17.319h0A18.439,18.439,0,0,0,241.481,207.116Z" transform="translate(-104.916 -110.597)" fill="#ffbe9d"/>
      <path id="Trazado_216979" data-name="Trazado 216979" d="M249.345,225.754A34.706,34.706,0,0,1,229.7,220.91s4.964,10.574,19.815,8.709Z" transform="translate(-113.312 -140.504)" fill="#eb996e"/>
      <path id="Trazado_216980" data-name="Trazado 216980" d="M262.657,168.609a2.128,2.128,0,0,1-1.986,2.22,2.043,2.043,0,0,1-2.262-1.844,2.128,2.128,0,0,1,1.979-2.22,2.05,2.05,0,0,1,2.269,1.844Z" transform="translate(-121.66 -124.755)" fill="#263238"/>
      <path id="Trazado_216981" data-name="Trazado 216981" d="M264.224,162.38c-.255.291-1.915-.851-4.206-.766s-3.929,1.3-4.191,1.021c-.128-.121.128-.631.837-1.191a5.886,5.886,0,0,1,3.347-1.156,5.581,5.581,0,0,1,3.355.957C264.089,161.756,264.345,162.253,264.224,162.38Z" transform="translate(-120.901 -122.874)" fill="#263238"/>
      <path id="Trazado_216982" data-name="Trazado 216982" d="M231.817,170.568a2.128,2.128,0,0,1-1.979,2.22,2.05,2.05,0,0,1-2.269-1.844,2.128,2.128,0,0,1,1.979-2.22,2.042,2.042,0,0,1,2.269,1.844Z" transform="translate(-112.692 -125.324)" fill="#263238"/>
      <path id="Trazado_216983" data-name="Trazado 216983" d="M233.847,164.071c-.255.284-1.908-.851-4.2-.766s-3.936,1.291-4.191,1.021c-.128-.121.121-.631.837-1.191a5.858,5.858,0,0,1,3.34-1.156,5.674,5.674,0,0,1,3.362.95C233.719,163.446,233.974,163.943,233.847,164.071Z" transform="translate(-112.069 -123.365)" fill="#263238"/>
      <path id="Trazado_216984" data-name="Trazado 216984" d="M249.165,180.673a15.874,15.874,0,0,1,3.695-.8c.589-.078,1.135-.22,1.22-.617a2.965,2.965,0,0,0-.454-1.723q-.894-2.128-1.887-4.4c-2.624-6.262-4.546-11.418-4.3-11.525s2.589,4.886,5.22,11.149q.943,2.319,1.816,4.425a3.418,3.418,0,0,1,.383,2.291,1.468,1.468,0,0,1-.936.887,3.979,3.979,0,0,1-.986.177A15,15,0,0,1,249.165,180.673Z" transform="translate(-118.465 -123.259)" fill="#263238"/>
      <path id="Trazado_216985" data-name="Trazado 216985" d="M233.283,157.515c-.22.624-2.511.355-5.2.709s-4.858,1.113-5.22.56c-.163-.269.213-.858,1.078-1.475a9.142,9.142,0,0,1,7.943-.965C232.879,156.735,233.382,157.217,233.283,157.515Z" transform="translate(-111.314 -121.583)" fill="#263238"/>
      <path id="Trazado_216986" data-name="Trazado 216986" d="M265.1,157.225c-.461.468-1.964-.255-3.851-.511s-3.546-.064-3.83-.652c-.128-.284.184-.766.943-1.177a5.674,5.674,0,0,1,6.184.936C265.149,156.431,265.3,156.991,265.1,157.225Z" transform="translate(-121.365 -121.151)" fill="#263238"/>
      <path id="Trazado_216987" data-name="Trazado 216987" d="M199.48,177.042c-.255-.1-10.354-2.674-9.674,7.518s10.773,7.4,10.773,7.092S199.48,177.042,199.48,177.042Z" transform="translate(-101.702 -127.642)" fill="#ffbe9d"/>
      <path id="Trazado_216988" data-name="Trazado 216988" d="M198.276,189.416c-.043,0-.17.135-.461.291a1.752,1.752,0,0,1-1.319.121c-1.106-.326-2.128-1.972-2.3-3.808a5.865,5.865,0,0,1,.326-2.574,2.043,2.043,0,0,1,1.241-1.418.915.915,0,0,1,1.085.411c.156.277.1.482.156.5s.206-.184.1-.6a1.163,1.163,0,0,0-.447-.617,1.376,1.376,0,0,0-1-.191,2.5,2.5,0,0,0-1.745,1.7,6.093,6.093,0,0,0-.426,2.886c.206,2.05,1.383,3.894,2.886,4.255a1.915,1.915,0,0,0,1.6-.383C198.276,189.657,198.318,189.43,198.276,189.416Z" transform="translate(-102.774 -129.045)" fill="#eb996e"/>
      <path id="Trazado_216989" data-name="Trazado 216989" d="M254.53,138.417a21.538,21.538,0,0,1-19.3-3.638c-3.737-2.95-6.688-7.276-11.29-8.51a12.156,12.156,0,0,0-9.22,1.6,23.347,23.347,0,0,0-6.794,6.7c3.142,7.482,1.5,16.014-.184,23.95a4.071,4.071,0,0,1-1.1,2.4c-1.177.972-3.007.3-4.1-.759-1.745-1.7-2.482-4.163-3-6.553a41.95,41.95,0,0,1-.482-16.546,28.609,28.609,0,0,1,7.347-14.695,27.084,27.084,0,0,1,18.73-7.8,33.262,33.262,0,0,1,19.51,6.22,19.421,19.421,0,0,1,6.518,6.993" transform="translate(-104.229 -109.577)" fill="#263238"/>
      <path id="Trazado_216990" data-name="Trazado 216990" d="M266.754,118.526a2.227,2.227,0,0,1-.057.887,4.17,4.17,0,0,1-1.355,2.128,6.5,6.5,0,0,1-3.766,1.418,10.638,10.638,0,0,1-2.539-.071,5.355,5.355,0,0,1-2.638-1.113,3.6,3.6,0,0,1-1.376-2.837,3.163,3.163,0,0,1,2.078-2.681,3.851,3.851,0,0,1,1.823-.3,3.284,3.284,0,0,1,1.78.709,4.666,4.666,0,0,1,1.645,3.511,5.383,5.383,0,0,1-1.475,3.8,8.2,8.2,0,0,1-3.624,2.227,13.428,13.428,0,0,1-8.752-.645,38.439,38.439,0,0,1-7.7-4.255,48.938,48.938,0,0,0-6.993-4.128,15.17,15.17,0,0,0-7.092-1.461,14.461,14.461,0,0,0-6.042,1.78,18.106,18.106,0,0,0-6.553,6.383,23.884,23.884,0,0,0-1.22,2.213,8.045,8.045,0,0,1-.4.787.6.6,0,0,1,.064-.213c.064-.142.121-.348.241-.617a19.15,19.15,0,0,1,1.142-2.269,17.879,17.879,0,0,1,6.546-6.6,14.837,14.837,0,0,1,6.2-1.886,15.51,15.51,0,0,1,7.284,1.418,48.835,48.835,0,0,1,7.092,4.142,38.564,38.564,0,0,0,7.61,4.22,12.977,12.977,0,0,0,8.418.638,7.688,7.688,0,0,0,3.411-2.078,4.915,4.915,0,0,0,1.369-3.461,4.2,4.2,0,0,0-1.454-3.177,3.064,3.064,0,0,0-3.17-.383,2.745,2.745,0,0,0-1.844,2.3,3.255,3.255,0,0,0,1.22,2.546,5.127,5.127,0,0,0,2.461,1.071,10.786,10.786,0,0,0,2.461.1,6.319,6.319,0,0,0,3.66-1.269,4.255,4.255,0,0,0,1.383-2.028A7.189,7.189,0,0,0,266.754,118.526Z" transform="translate(-108.311 -109.785)" fill="#455a64"/>
      <path id="Trazado_216991" data-name="Trazado 216991" d="M188.18,144.063a16.377,16.377,0,0,0,3.142.709,8.787,8.787,0,0,0,3.4-.475,14.894,14.894,0,0,0,3.759-1.972,11.936,11.936,0,0,0,4.333-6.241,24.938,24.938,0,0,0,.567-3.184,2.7,2.7,0,0,1,.085.887,10.267,10.267,0,0,1-.3,2.39,11.659,11.659,0,0,1-4.383,6.553,13.964,13.964,0,0,1-3.915,2.007,8.574,8.574,0,0,1-3.546.39,7.986,7.986,0,0,1-2.34-.624,2.418,2.418,0,0,1-.8-.44Z" transform="translate(-101.238 -114.911)" fill="#455a64"/>
      <path id="Trazado_216992" data-name="Trazado 216992" d="M189.17,154.385c0-.092,1.213.128,3.135-.05a14,14,0,0,0,11.638-8.262c.794-1.759.972-2.964,1.064-2.943a2.659,2.659,0,0,1-.078.851,11.684,11.684,0,0,1-.66,2.234,13.475,13.475,0,0,1-11.929,8.51,11.4,11.4,0,0,1-2.326-.113A2.624,2.624,0,0,1,189.17,154.385Z" transform="translate(-101.526 -117.886)" fill="#455a64"/>
      <path id="Trazado_216993" data-name="Trazado 216993" d="M226.913,178.816a.27.27,0,0,1-.312-.213.255.255,0,1,1,.489-.113.262.262,0,0,1-.177.326Z" transform="translate(-112.405 -128.098)" fill="#eb996e"/>
      <path id="Trazado_216994" data-name="Trazado 216994" d="M232.979,177.175a.326.326,0,1,1,.177-.369A.3.3,0,0,1,232.979,177.175Z" transform="translate(-114.13 -127.605)" fill="#eb996e"/>
      <path id="Trazado_216995" data-name="Trazado 216995" d="M237.2,176.845c-.142,0-.284-.142-.319-.369s.05-.426.184-.447.277.142.319.369S237.331,176.824,237.2,176.845Z" transform="translate(-115.397 -127.452)" fill="#eb996e"/>
      <path id="Trazado_216996" data-name="Trazado 216996" d="M230.112,182.686c-.142,0-.255-.064-.262-.156s.106-.163.248-.17.255.064.262.156S230.247,182.679,230.112,182.686Z" transform="translate(-113.356 -129.293)" fill="#eb996e"/>
      <path id="Trazado_216997" data-name="Trazado 216997" d="M235.69,181.076a.291.291,0,1,1,.213-.319A.277.277,0,0,1,235.69,181.076Z" transform="translate(-114.948 -128.754)" fill="#eb996e"/>
      <path id="Trazado_216998" data-name="Trazado 216998" d="M265.075,176.529a.808.808,0,1,1-.007.021Z" transform="translate(-123.517 -127.441)" fill="#eb996e"/>
      <path id="Trazado_216999" data-name="Trazado 216999" d="M269.265,175.961a.311.311,0,0,1-.3-.284.3.3,0,0,1,.213-.348.3.3,0,0,1,.291.284A.3.3,0,0,1,269.265,175.961Z" transform="translate(-124.729 -127.249)" fill="#eb996e"/>
      <path id="Trazado_217000" data-name="Trazado 217000" d="M261.358,176.823a.241.241,0,0,1-.3-.156.255.255,0,0,1,.489-.121A.241.241,0,0,1,261.358,176.823Z" transform="translate(-122.431 -127.558)" fill="#eb996e"/>
      <path id="Trazado_217001" data-name="Trazado 217001" d="M264.58,180.866a.277.277,0,0,1-.355-.156.27.27,0,0,1,.106-.369.291.291,0,0,1,.248.525Z" transform="translate(-123.342 -128.7)" fill="#eb996e"/>
      <path id="Trazado_217002" data-name="Trazado 217002" d="M268.234,180.066a.213.213,0,1,1,.22-.048A.213.213,0,0,1,268.234,180.066Z" transform="translate(-124.464 -128.503)" fill="#eb996e"/>
      <path id="Trazado_217003" data-name="Trazado 217003" d="M247.309,199.115a10.42,10.42,0,0,1-.809,2.872,3.546,3.546,0,0,1-2.17,1.922,3.142,3.142,0,0,1-2.915-.9,5.043,5.043,0,0,1-1.333-2.837c-.149-.95.057-2.128.972-2.454a2.312,2.312,0,0,1,1.184,0l5.326,1.007" transform="translate(-116.318 -133.737)" fill="#eb996e"/>
      <path id="Trazado_217004" data-name="Trazado 217004" d="M245.919,203.4a7.31,7.31,0,0,1-2.695.2,3.78,3.78,0,0,1-2.347-1.418,4.035,4.035,0,0,1-.709-3.206,3.688,3.688,0,0,1,.284-.816c.149-.248.121-.227.34-.241a4.718,4.718,0,0,1,.844.149l.879.17c1.135.213,2.128.39,3.028.532a9.246,9.246,0,0,0,2.837.27,9.439,9.439,0,0,0-2.709-.886c-.851-.22-1.865-.468-3-.709l-.865-.2c-.312-.057-.553-.142-.972-.191a1.22,1.22,0,0,0-.709.17,1.418,1.418,0,0,0-.454.539,4.128,4.128,0,0,0-.362,1.043,4.7,4.7,0,0,0,.936,3.908,4.3,4.3,0,0,0,2.908,1.518,4.106,4.106,0,0,0,2.128-.348C245.749,203.644,245.947,203.432,245.919,203.4Z" transform="translate(-116.077 -133.564)" fill="#263238"/>
      <path id="Trazado_217005" data-name="Trazado 217005" d="M196.213,239.188l2.128-5.716,18.34,19.773,19.085-20.914,5.113,7.042s5.631,27.5,5.12,28.021-27.269,17.021-27.269,17.021l-22.212-.78L181.54,255.1Z" transform="translate(-99.308 -143.825)" fill="#ebebeb"/>
      <path id="Trazado_217006" data-name="Trazado 217006" d="M86.556,341.726l-.206-38.3s22.29-33.467,26.453-37.63c5.886-5.886,9.858-9.971,12.51-12.056a4.362,4.362,0,0,1,5.362,0h0l38.212-13.29s-5.844,9.61,2.986,21.567a200.272,200.272,0,0,1,15.191,24.375s9.035-14.78,12.532-17.73,15.553-22.744,12.766-28.623l31.687,13.751s1.525-2.291,3.44-1.34,16.241,6.893,21.787,17.4S302.608,320.8,302.608,320.8l-30.3,26.581Z" transform="translate(-71.627 -146.067)" fill="#f67409"/>
      <path id="Trazado_217007" data-name="Trazado 217007" d="M164.651,295.037a2.427,2.427,0,0,1-.277-.255l-.709-.78a15.134,15.134,0,0,1-1.1-1.269c-.39-.518-.908-1.071-1.383-1.745s-1.043-1.418-1.567-2.2-1.092-1.688-1.66-2.631a50.984,50.984,0,0,1-3.113-6.383,48.744,48.744,0,0,1-2.128-6.794c-.227-1.071-.447-2.085-.574-3.05s-.255-1.865-.34-2.688-.106-1.567-.149-2.22-.043-1.22-.035-1.681,0-.78,0-1.064a1.89,1.89,0,0,1,0-.369,1.283,1.283,0,0,1,.043.369c0,.284.035.631.057,1.057a15.9,15.9,0,0,0,.092,1.674c.092.652.085,1.418.206,2.213s.2,1.709.383,2.659.369,1.957.6,3.021a52.21,52.21,0,0,0,2.128,6.73,54.2,54.2,0,0,0,3.071,6.383c.553.936,1.071,1.83,1.617,2.631s1.043,1.546,1.518,2.213.943,1.248,1.34,1.773.752.957,1.05,1.3l.667.823A1.94,1.94,0,0,1,164.651,295.037Z" transform="translate(-90.603 -152.426)" fill="#263238"/>
      <path id="Trazado_217008" data-name="Trazado 217008" d="M146.656,289.806a7.013,7.013,0,0,1,.085-1.972,18.4,18.4,0,0,1,1.234-4.589,18.637,18.637,0,0,1,2.376-4.128,6.977,6.977,0,0,1,1.333-1.418c.043.043-.44.61-1.121,1.6a21.886,21.886,0,0,0-3.546,8.6,17.136,17.136,0,0,1-.362,1.9Z" transform="translate(-89.154 -157.018)" fill="#263238"/>
      <path id="Trazado_217009" data-name="Trazado 217009" d="M138.092,319.652a3.193,3.193,0,0,1-.191-.567c-.106-.376-.277-.936-.461-1.652-.376-1.418-.879-3.546-1.376-6.163a99.2,99.2,0,0,1-1.667-20.73,53.9,53.9,0,0,1,1.262-11.4,23.361,23.361,0,0,1,3.865-8.51,16.4,16.4,0,0,1,4.638-4.255,11.846,11.846,0,0,1,1.525-.787,4.6,4.6,0,0,1,.56-.213,3.5,3.5,0,0,1-.532.284,14.231,14.231,0,0,0-1.482.844,16.857,16.857,0,0,0-4.5,4.3,23.275,23.275,0,0,0-3.745,8.44,54.928,54.928,0,0,0-1.227,11.347,105.047,105.047,0,0,0,1.553,20.616c.461,2.617.929,4.716,1.262,6.17.163.709.3,1.255.39,1.667A4.472,4.472,0,0,1,138.092,319.652Z" transform="translate(-85.59 -153.433)" fill="#263238"/>
      <path id="Trazado_217010" data-name="Trazado 217010" d="M150.837,315.479a3.722,3.722,0,0,1-.177-.844,18.88,18.88,0,0,1-.206-2.34,24.435,24.435,0,0,1,.128-3.489,27.658,27.658,0,0,1,.809-4.206,27.963,27.963,0,0,1,1.511-4.007,23.514,23.514,0,0,1,1.716-3.035,17.734,17.734,0,0,1,1.418-1.886,3.759,3.759,0,0,1,.589-.631c.057.043-.709.986-1.773,2.652a28.019,28.019,0,0,0-1.631,3.05,29.45,29.45,0,0,0-1.454,3.957,29.985,29.985,0,0,0-.837,4.142,27.241,27.241,0,0,0-.2,3.447C150.7,314.259,150.886,315.472,150.837,315.479Z" transform="translate(-90.263 -162.06)" fill="#263238"/>
      <path id="Trazado_217011" data-name="Trazado 217011" d="M156.572,326.823a4.445,4.445,0,0,1-.121-.972c-.057-.624-.106-1.532-.142-2.652a72.475,72.475,0,0,1,1.652-17.425c.241-1.092.461-1.972.631-2.574a5.211,5.211,0,0,1,.3-.929,4.965,4.965,0,0,1-.156.957c-.142.709-.312,1.56-.518,2.6-.426,2.191-.922,5.248-1.241,8.645s-.4,6.482-.4,8.716v2.652a5.962,5.962,0,0,1,0,.979Z" transform="translate(-91.963 -164.163)" fill="#263238"/>
      <path id="Trazado_217012" data-name="Trazado 217012" d="M208.417,301.814c0,.1-9.723.184-21.723.184S165,301.892,165,301.814s9.723-.184,21.716-.184S208.417,301.715,208.417,301.814Z" transform="translate(-94.498 -163.977)" fill="#263238"/>
      <path id="Trazado_217013" data-name="Trazado 217013" d="M175.591,362.639c-.1,0-.092-12.822,0-28.645s.291-28.645.39-28.645.092,12.822,0,28.645S175.7,362.639,175.591,362.639Z" transform="translate(-97.557 -165.059)" fill="#263238"/>
      <path id="Trazado_217014" data-name="Trazado 217014" d="M194.24,363.193v-.61c0-.4.043-1.014.071-1.745.078-1.553.184-3.737.319-6.425.312-5.447.709-12.915,1.2-21.163s.972-15.723,1.312-21.17c.184-2.681.333-4.858.44-6.383.057-.709.1-1.312.135-1.745a3.693,3.693,0,0,1,.071-.6,3.342,3.342,0,0,1,0,.61q0,.645-.064,1.745c-.078,1.553-.191,3.737-.326,6.418-.3,5.447-.709,12.922-1.2,21.177s-.972,15.716-1.3,21.163c-.184,2.681-.333,4.858-.44,6.383-.057.709-.1,1.312-.135,1.745a3.142,3.142,0,0,1-.078.6Z" transform="translate(-103.001 -164.477)" fill="#263238"/>
      <path id="Trazado_217015" data-name="Trazado 217015" d="M220.457,360.205c-.1,0,.872-12.837,2.17-28.652s2.433-28.631,2.532-28.623-.872,12.837-2.17,28.652S220.556,360.212,220.457,360.205Z" transform="translate(-110.622 -164.355)" fill="#263238"/>
      <path id="Trazado_217016" data-name="Trazado 217016" d="M277.686,302.224c0,.1-10.333.184-23.085.184s-23.092-.085-23.092-.184,10.333-.184,23.092-.184S277.686,302.118,277.686,302.224Z" transform="translate(-113.839 -164.096)" fill="#263238"/>
      <path id="Trazado_217017" data-name="Trazado 217017" d="M247.075,361.772a3.746,3.746,0,0,1-.064-.567c0-.4-.064-.95-.113-1.631-.1-1.418-.2-3.482-.27-6.028-.149-5.085-.113-12.134.4-19.858s1.418-14.744,2.277-19.766c.418-2.511.787-4.539,1.078-5.936.135-.667.248-1.206.333-1.6a2.594,2.594,0,0,1,.142-.553,3.356,3.356,0,0,1-.071.567c-.064.4-.156.943-.262,1.617-.248,1.418-.582,3.433-.957,5.95-.766,5.028-1.645,12-2.17,19.744s-.6,14.773-.511,19.858c.035,2.546.092,4.6.149,6.028a15,15,0,0,0,.05,1.638A3.552,3.552,0,0,1,247.075,361.772Z" transform="translate(-118.213 -165.198)" fill="#263238"/>
      <path id="Trazado_217018" data-name="Trazado 217018" d="M271.5,369.213a.631.631,0,0,1,0-.163,2.484,2.484,0,0,0-.035-.482c0-.454-.057-1.064-.1-1.844-.078-1.6-.163-3.915-.227-6.787-.128-5.73-.128-13.652.241-22.4s1.057-16.638,1.638-22.312c.3-2.837.582-5.149.8-6.737q.163-1.156.255-1.83a2.453,2.453,0,0,1,.078-.475c.021-.128,0-.156.035-.156a.481.481,0,0,1,0,.163,2.052,2.052,0,0,1-.043.475c-.043.454-.106,1.064-.184,1.837-.17,1.6-.411,3.9-.709,6.752-.546,5.674-1.177,13.6-1.553,22.333s-.39,16.645-.326,22.319c.035,2.837.071,5.184.113,6.787v2.319A.782.782,0,0,1,271.5,369.213Z" transform="translate(-125.34 -165.256)" fill="#263238"/>
      <path id="Trazado_217019" data-name="Trazado 217019" d="M295.8,290.436a6.85,6.85,0,0,1,.418-1.142c.319-.78.709-1.809,1.241-3.057,1.035-2.589,2.4-6.2,3.794-10.213s2.638-7.61,3.546-10.3c.468-1.312.858-2.376,1.135-3.1a8.963,8.963,0,0,1,.468-1.121,6.773,6.773,0,0,1-.326,1.163l-1.028,3.142c-.872,2.652-2.064,6.319-3.468,10.34s-2.837,7.624-3.9,10.191c-.553,1.284-1.014,2.312-1.347,3.014A8.051,8.051,0,0,1,295.8,290.436Z" transform="translate(-132.534 -152.307)" fill="#263238"/>
      <path id="Trazado_217020" data-name="Trazado 217020" d="M296.9,325.938a3.825,3.825,0,0,1-.426-.858c-.248-.553-.582-1.383-.957-2.411a46.483,46.483,0,0,1-2.128-8.291,41,41,0,0,1-.454-8.553c.064-1.1.156-1.986.248-2.589a4.251,4.251,0,0,1,.17-.936,4.4,4.4,0,0,1,0,.95c-.05.61-.1,1.489-.128,2.582a46.549,46.549,0,0,0,.56,8.51,54.188,54.188,0,0,0,2.014,8.241c.34,1.035.638,1.872.844,2.447A5.44,5.44,0,0,1,296.9,325.938Z" transform="translate(-131.686 -164.172)" fill="#263238"/>
      <path id="Trazado_217021" data-name="Trazado 217021" d="M304.971,342.869a2.782,2.782,0,0,1-.156-.4c-.106-.3-.234-.674-.4-1.142-.319-1-.759-2.454-1.27-4.255-1.014-3.617-2.284-8.652-3.511-14.255s-2.128-10.716-2.61-14.446c-.234-1.865-.362-3.383-.411-4.432v-1.213a2.69,2.69,0,0,1,0-.418,1.509,1.509,0,0,1,.057.418c0,.312.05.709.085,1.206.092,1.043.255,2.553.525,4.4.532,3.716,1.5,8.808,2.716,14.4s2.454,10.638,3.4,14.262c.475,1.773.872,3.234,1.156,4.255.128.475.241.858.326,1.163A1.512,1.512,0,0,1,304.971,342.869Z" transform="translate(-132.769 -164.175)" fill="#263238"/>
      <path id="Trazado_217022" data-name="Trazado 217022" d="M313.926,281.09c-.064,0-.262-.511-.752-1.284a12.765,12.765,0,0,0-2.3-2.695,13.1,13.1,0,0,0-2.922-2.007,14.355,14.355,0,0,1-1.355-.624,3.993,3.993,0,0,1,1.461.383,10.781,10.781,0,0,1,3.078,1.972,10.568,10.568,0,0,1,2.277,2.837A3.582,3.582,0,0,1,313.926,281.09Z" transform="translate(-135.674 -156.082)" fill="#263238"/>
      <path id="Trazado_217023" data-name="Trazado 217023" d="M316.2,274.146c-.057,0-.3-.475-.851-1.177a11.743,11.743,0,0,0-2.539-2.355,17.554,17.554,0,0,0-4.461-2.085,3.8,3.8,0,0,1,1.461.227,11.268,11.268,0,0,1,3.206,1.553,9.93,9.93,0,0,1,2.546,2.5A3.5,3.5,0,0,1,316.2,274.146Z" transform="translate(-136.183 -154.35)" fill="#263238"/>
      <path id="Trazado_217024" data-name="Trazado 217024" d="M84.554,326.64a18.105,18.105,0,0,0-6.489,4.333c-3.8,4.291-10.964,16.936-10.964,16.936s-2.128,24.971-1.333,24.772,38.028,0,38.028,0h45.134s-9.752-21.758-26.531-25.765l-11.893-2.34s-1.014-5.142-2.362-5.34S84.554,326.64,84.554,326.64Z" transform="translate(-65.59 -171.25)" fill="#f67409"/>
      <path id="Trazado_217025" data-name="Trazado 217025" d="M313.532,350.182a4.965,4.965,0,0,1,3.95-2.028c2.6,0,12.212-.922,12.212-.922s7.092-5.567,10.6-6.681a6.808,6.808,0,0,1,3.9-5.56c2.915-1.319,10.943-2.4,14.227-2.8a3.333,3.333,0,0,1,2.553.759c3.206,2.7,12.553,10.886,17.73,18.546,5.44,8.071.709,21.312-3.546,22.8H311Z" transform="translate(-136.954 -172.856)" fill="#f67409"/>
      <g id="Grupo_149280" data-name="Grupo 149280" transform="translate(23.737 158.043)" opacity="0.3">
        <path id="Trazado_217026" data-name="Trazado 217026" d="M99.06,330.38c5.773.326,11,.865,15.794,4.092a30.93,30.93,0,0,0,4.581,3.071c1.688.738,3.546.879,5.312,1.482,3.085,1.071,5.461,3.546,7.709,5.879.709.709,5.674,4.851,5.269,5.17s-5.674-2.277-6.142-2.347l-7.184-1.092c-1.794-.27-3.787-.66-4.844-2.128-.56-.78-.773-1.773-1.291-2.582a7.587,7.587,0,0,0-3.241-2.447c-5.808-2.957-10.156-6.142-15.964-9.092" transform="translate(-99.06 -330.38)"/>
      </g>
      <g id="Grupo_149281" data-name="Grupo 149281" transform="translate(180.01 158.755)" opacity="0.3">
        <path id="Trazado_217027" data-name="Trazado 217027" d="M319.41,347.955c.922-1.589,4.518-2.957,6.383-3.057s3.766.064,5.425-.709c2.418-1.142,3.546-3.879,5.213-5.972a16.575,16.575,0,0,1,9.149-5.369c3.475-.858,10.205-2.908,15.269.177,0,0-6.745-.56-8.241-.4a30.492,30.492,0,0,0-4.454,1.113,9.116,9.116,0,0,0-6.227,7.276v.191a82.835,82.835,0,0,0-9.759,5.8c-.142.057-8.447.879-12.73.95" transform="translate(-319.41 -331.384)"/>
      </g>
      <g id="Grupo_149282" data-name="Grupo 149282" transform="translate(48.424 114.093)" opacity="0.3">
        <path id="Trazado_217028" data-name="Trazado 217028" d="M142.033,268.5a27.077,27.077,0,0,0-4.347,21.326c.624,2.837,1.709,5.546,2.291,8.39a12.579,12.579,0,0,1-.794,8.51,3.4,3.4,0,0,1-1.248,1.418,1.6,1.6,0,0,1-1.78-.078,2.475,2.475,0,0,1-.638-1.56c-1.05-6.681-2.128-13.475-1.418-20.17s3.255-13.524,8.39-17.922" transform="translate(-133.869 -268.41)"/>
      </g>
      <g id="Grupo_149283" data-name="Grupo 149283" transform="translate(171.096 118.448)" opacity="0.3">
        <path id="Trazado_217029" data-name="Trazado 217029" d="M306.84,274.55a18.372,18.372,0,0,1,4.5,8.227c.383,2.34.461,4.745,1.255,6.971.4,1.092,1.248,2.291,2.4,2.128s1.681-1.539,1.745-2.7a13.049,13.049,0,0,0-2.34-7.8,21.275,21.275,0,0,0-5.532-6.135" transform="translate(-306.84 -274.55)"/>
      </g>
      <g id="Grupo_149284" data-name="Grupo 149284" transform="translate(49.489 177.707)" opacity="0.3">
        <path id="Trazado_217030" data-name="Trazado 217030" d="M168.674,380.633a3.042,3.042,0,0,1,.326,1.206l-28.276-.071a6.551,6.551,0,0,1-3.78-1.078c-1.262-1.035-1.567-2.837-1.574-4.461a19.609,19.609,0,0,1,11.461-17.659s.95-1.418,3.546.709S168.674,380.633,168.674,380.633Z" transform="translate(-135.37 -358.107)"/>
      </g>
      <path id="Trazado_217031" data-name="Trazado 217031" d="M136.945,349.915a3.067,3.067,0,0,1-.418-.184l-1.17-.574a21.833,21.833,0,0,0-4.475-1.667c-1.965-.482-4.369-.652-7.042-1.028a16.175,16.175,0,0,1-2.014-.525,12.058,12.058,0,0,1-2.028-.808,4.362,4.362,0,0,1-1.355-1.865,10.225,10.225,0,0,0-1.05-1.972h0l.043.035-13.652-8.014-4.12-2.461-1.113-.709a1.958,1.958,0,0,1-.369-.262,1.99,1.99,0,0,1,.411.2l1.142.624,4.177,2.362,13.716,7.929h0a9.858,9.858,0,0,1,1.106,2.057,3.992,3.992,0,0,0,1.206,1.709,12.191,12.191,0,0,0,1.95.787,18.082,18.082,0,0,0,1.972.525c2.631.39,5.064.589,7.042,1.106a20.567,20.567,0,0,1,4.475,1.787c.5.269.887.489,1.142.645a1.809,1.809,0,0,1,.426.305Z" transform="translate(-75.067 -172.192)" fill="#263238"/>
      <path id="Trazado_217032" data-name="Trazado 217032" d="M126.308,314a6.272,6.272,0,0,1,0,1.057v2.879c0,2.425.128,5.78.468,9.461s.865,7,1.3,9.39c.22,1.142.4,2.128.532,2.837a4.837,4.837,0,0,1,.163,1.043,6.383,6.383,0,0,1-.3-1.014c-.177-.653-.4-1.61-.652-2.8a86.925,86.925,0,0,1-1.773-18.9c0-1.22.071-2.206.121-2.879A5.675,5.675,0,0,1,126.308,314Z" transform="translate(-83.167 -167.574)" fill="#263238"/>
      <g id="Grupo_149285" data-name="Grupo 149285" transform="translate(174.046 178.681)" opacity="0.3">
        <path id="Trazado_217033" data-name="Trazado 217033" d="M320.127,382.437a12.057,12.057,0,0,0,1.454-2.454,11.916,11.916,0,0,0,.319-6.418,22.177,22.177,0,0,0-8.553-14.085L311,382.238Z" transform="translate(-311 -359.48)"/>
      </g>
      <path id="Trazado_217034" data-name="Trazado 217034" d="M113.887,334.29a3.411,3.411,0,0,1-.177-.808c-.092-.6-.213-1.333-.355-2.213a28.006,28.006,0,0,0-2.064-7.042,15.184,15.184,0,0,0-4.411-5.752,18.1,18.1,0,0,0-2.61-1.574,3.022,3.022,0,0,1,.794.255,10.243,10.243,0,0,1,1.972,1.106,14.553,14.553,0,0,1,4.589,5.815,24.907,24.907,0,0,1,1.986,7.156c.128.943.2,1.7.248,2.234A3.808,3.808,0,0,1,113.887,334.29Z" transform="translate(-76.838 -168.417)" fill="#263238"/>
      <path id="Trazado_217035" data-name="Trazado 217035" d="M348.7,342.942h-1.624a22.149,22.149,0,0,0-4.369.6,20.716,20.716,0,0,0-6.007,2.489c-1.057.631-2.085,1.418-3.2,2.191a14.434,14.434,0,0,1-3.723,1.964,27.768,27.768,0,0,1-8.021.965,22.545,22.545,0,0,0-6.461.879,9.794,9.794,0,0,0-3.794,2.128c-.752.709-1.05,1.234-1.085,1.206a2.132,2.132,0,0,1,.213-.369,6.07,6.07,0,0,1,.773-.936,9.447,9.447,0,0,1,3.816-2.277,21.922,21.922,0,0,1,6.525-.972,28.518,28.518,0,0,0,7.922-.972c2.688-.894,4.709-2.837,6.858-4.1a20.694,20.694,0,0,1,6.128-2.454,20.2,20.2,0,0,1,4.425-.489,11.738,11.738,0,0,1,1.206.057A1.419,1.419,0,0,1,348.7,342.942Z" transform="translate(-136.785 -175.949)" fill="#263238"/>
      <path id="Trazado_217036" data-name="Trazado 217036" d="M370.545,333.479a4.963,4.963,0,0,1-.922-.064c-.589-.057-1.418-.149-2.489-.234a23.4,23.4,0,0,0-8.135.546,11.787,11.787,0,0,0-6.539,4.574,11.05,11.05,0,0,0-1.34,3.1v-.241a4.578,4.578,0,0,1,.121-.674,7.877,7.877,0,0,1,.993-2.326,11.674,11.674,0,0,1,6.659-4.787,21.773,21.773,0,0,1,8.262-.447c1.05.113,1.9.248,2.482.348a4.144,4.144,0,0,1,.908.206Z" transform="translate(-148.621 -173.018)" fill="#263238"/>
      <path id="Trazado_217037" data-name="Trazado 217037" d="M342.6,337.729a5.575,5.575,0,0,1-.39-.936l-.95-2.582c-.809-2.177-1.964-5.177-3.34-8.439s-2.723-6.184-3.723-8.284L333.007,315a5.466,5.466,0,0,1-.4-.929,5.589,5.589,0,0,1,.525.865c.319.567.766,1.418,1.291,2.44,1.064,2.071,2.447,4.964,3.83,8.248s2.5,6.3,3.241,8.51c.376,1.1.667,2,.844,2.624a5.238,5.238,0,0,1,.255.972Z" transform="translate(-143.238 -167.594)" fill="#263238"/>
      <path id="Trazado_217038" data-name="Trazado 217038" d="M205.24,233.93a2.358,2.358,0,0,1,.34.312l.922.929,3.34,3.482,10.929,11.581,2.645,2.837.291.312h-.426A14.673,14.673,0,0,0,211.8,258.8a15.6,15.6,0,0,0-2.05,3.312c-.376.83-.532,1.312-.56,1.3a1.834,1.834,0,0,1,.092-.362,9.012,9.012,0,0,1,.355-.993,14.234,14.234,0,0,1,1.972-3.411,14.574,14.574,0,0,1,4.518-3.837,14.787,14.787,0,0,1,7.156-1.83l-.128.3-2.652-2.837L209.651,238.8l-3.255-3.546-.872-.979A2.634,2.634,0,0,1,205.24,233.93Z" transform="translate(-106.199 -144.29)" fill="#263238"/>
      <path id="Trazado_217039" data-name="Trazado 217039" d="M215.66,265.718l4.886,9.574h9.028l5.213-7.092s-3.546-5.3-5.1-6.149l-6.539-.475C222.915,261.236,216.958,263.569,215.66,265.718Z" transform="translate(-109.229 -152.32)" fill="#f67409"/>
      <path id="Trazado_217040" data-name="Trazado 217040" d="M221.614,280.93l-2.284,5.723s6.255,12.255,6.589,11.7,7.8-12.17,7.8-12.17l-3.092-5.241Z" transform="translate(-110.297 -157.957)" fill="#f67409"/>
      <g id="Grupo_149286" data-name="Grupo 149286" transform="translate(106.431 109.223)" opacity="0.3">
        <path id="Trazado_217041" data-name="Trazado 217041" d="M215.66,265.718l4.886,9.574h9.028l5.213-7.092s-3.546-5.3-5.1-6.149l-6.539-.475C222.915,261.236,216.958,263.569,215.66,265.718Z" transform="translate(-215.66 -261.543)"/>
      </g>
      <g id="Grupo_149287" data-name="Grupo 149287" transform="translate(109.033 122.973)" opacity="0.3">
        <path id="Trazado_217042" data-name="Trazado 217042" d="M221.614,280.93l-2.284,5.723s6.255,12.255,6.589,11.7,7.8-12.17,7.8-12.17l-3.092-5.241Z" transform="translate(-219.33 -280.93)"/>
      </g>
      <path id="Trazado_217043" data-name="Trazado 217043" d="M231.273,281.181a43.437,43.437,0,0,0-4.369-.617,42.393,42.393,0,0,0-4.4.234,3.773,3.773,0,0,1,1.262-.376,14,14,0,0,1,3.163-.227,13.765,13.765,0,0,1,3.128.5,3.779,3.779,0,0,1,1.22.482Z" transform="translate(-111.219 -157.74)" fill="#263238"/>
      <path id="Trazado_217044" data-name="Trazado 217044" d="M232.867,265.088a3.682,3.682,0,0,1-.319.5,13.219,13.219,0,0,1-1.028,1.255,19.858,19.858,0,0,1-9,5.631,13.143,13.143,0,0,1-1.574.376,2.077,2.077,0,0,1-.6.064c0-.064.808-.248,2.092-.709a23.133,23.133,0,0,0,8.893-5.56C232.3,265.734,232.867,265.025,232.867,265.088Z" transform="translate(-110.593 -153.349)" fill="#263238"/>
      <path id="Trazado_217045" data-name="Trazado 217045" d="M229.37,288.112a22.232,22.232,0,0,1,0-7.752,34.985,34.985,0,0,1,0,3.872A35.407,35.407,0,0,1,229.37,288.112Z" transform="translate(-113.117 -157.792)" fill="#263238"/>
      <path id="Trazado_217046" data-name="Trazado 217046" d="M231.4,290.028c-.106,0-.184-2.028-.39-4.511s-.44-4.5-.34-4.518a19.247,19.247,0,0,1,.709,4.482A19.539,19.539,0,0,1,231.4,290.028Z" transform="translate(-113.588 -157.978)" fill="#263238"/>
      <path id="Trazado_217047" data-name="Trazado 217047" d="M249.933,232.33s0,.043-.078.113l-.27.312-1.043,1.184-3.95,4.4-13.6,15.028-.184-.291a4.256,4.256,0,0,1,2.383-.1,5.057,5.057,0,0,1,2,1.418,19.069,19.069,0,0,1,3.142,3.837,18.206,18.206,0,0,1,2.525,7.128l-.3-.106a58.008,58.008,0,0,0,7.957-9.049,40.908,40.908,0,0,0,2.7-4.39,35.461,35.461,0,0,0,1.808-4.057,34.794,34.794,0,0,0,1.681-6.135c.142-.709.191-1.3.262-1.688a2.106,2.106,0,0,1,.071-.44,1.25,1.25,0,0,1,0-.149v.149a2.3,2.3,0,0,1-.035.447c-.05.383-.078.965-.2,1.7a33.049,33.049,0,0,1-1.582,6.2,36.691,36.691,0,0,1-1.787,4.106,42.588,42.588,0,0,1-2.688,4.44,57.811,57.811,0,0,1-7.979,9.071l-.255.241-.05-.347a18.07,18.07,0,0,0-2.482-6.986,18.963,18.963,0,0,0-3.085-3.766,4.738,4.738,0,0,0-1.851-1.312,3.929,3.929,0,0,0-2.177.092l-.61.177.426-.468L244.423,238.2l4.021-4.326,1.092-1.149.284-.291C249.933,232.358,249.933,232.323,249.933,232.33Z" transform="translate(-113.475 -143.824)" fill="#263238"/>
      <path id="Trazado_217048" data-name="Trazado 217048" d="M239.779,260.306a.305.305,0,0,1-.071.149l-.248.418c-.22.362-.56.9-1.021,1.574a61.748,61.748,0,0,1-4.291,5.51c-.482.56-1,1.142-1.56,1.738a20.96,20.96,0,0,0-1.652,1.915c-1.078,1.418-2.128,2.943-3.3,4.589-2.262,3.3-4.716,7.007-7.291,10.993l-.17.255-.142-.27c-1.3-2.426-2.638-4.964-4.078-7.475s-2.837-4.922-4.383-7.17-3.135-4.312-4.6-6.347a54.6,54.6,0,0,1-3.858-5.971,23.61,23.61,0,0,1-2.277-5.766,20.958,20.958,0,0,1-.269-8.915,16.586,16.586,0,0,1,.887-3.163.837.837,0,0,1-.043.213l-.177.61a23.414,23.414,0,0,0-.525,2.362,21.432,21.432,0,0,0,.383,8.837,23.667,23.667,0,0,0,2.291,5.674,55.554,55.554,0,0,0,3.865,5.915c1.468,2.021,3.071,4.092,4.617,6.347s2.979,4.674,4.4,7.184,2.78,5.064,4.078,7.489h-.312c2.582-3.979,5.05-7.681,7.34-10.971,1.149-1.645,2.241-3.191,3.333-4.581a20.57,20.57,0,0,1,1.688-1.915c.56-.589,1.078-1.17,1.574-1.723,1.957-2.22,3.4-4.106,4.354-5.433.482-.66.837-1.177,1.078-1.532l.269-.4Z" transform="translate(-104.74 -146.744)" fill="#263238"/>
      <path id="Trazado_217049" data-name="Trazado 217049" d="M178.79,341.754l-.95-23.936.709-5.369s7.482,2.035,28.716,2.035a250.655,250.655,0,0,0,47.992-5.035l2.241,4.433h0l-7.482,56.325H181.8Z" transform="translate(-98.232 -166.251)" fill="#fff"/>
      <path id="Trazado_217050" data-name="Trazado 217050" d="M147.464,355.247l9.822,1.113,3.723-5.17,5.1-3.121.319,4.929a56.87,56.87,0,0,0,6.581,2.206c2.475.511,5.454.752,6.915,1.865,1.071.823,1.057,3.376-.411,3.83l-3.61.787s12.432.617,13.475.709c2.532.156,3.738,1.716,2.986,3.546-.454,1.135-2.241,1.511-2.837,1.738l-.567.227s2.631.5,2.709,2.128a2.245,2.245,0,0,1-2.128,2.582c-.709.149-1.028.156-3.624.5s-6.432.447-6.432.447a1.468,1.468,0,0,1,.142,2.128c-.922,1.113-7.915,1.511-7.915,1.511L165.8,378.41a22.793,22.793,0,0,1-10.688-.355h0l-4.837-2.333-14.95-1.071s-.092-5.057,1.511-8.645C140.613,357.588,147.464,355.247,147.464,355.247Z" transform="translate(-85.869 -177.481)" fill="#ffbe9d"/>
      <path id="Trazado_217051" data-name="Trazado 217051" d="M192.449,366.49a16.9,16.9,0,0,1-3.936.61,15.234,15.234,0,0,1-3.993,0,37.084,37.084,0,0,1,3.957-.369A30.345,30.345,0,0,1,192.449,366.49Z" transform="translate(-100.174 -182.838)" fill="#eb996e"/>
      <path id="Trazado_217052" data-name="Trazado 217052" d="M204.3,375.741a15.96,15.96,0,0,1-2.4.05c-1.475,0-3.546-.064-5.773-.142s-4.3-.163-5.78-.248a13.917,13.917,0,0,1-2.383-.22,15.5,15.5,0,0,1,2.4-.043c1.475,0,3.546.064,5.773.142s4.3.163,5.78.248a15.552,15.552,0,0,1,2.383.213Z" transform="translate(-101.177 -185.345)" fill="#eb996e"/>
      <path id="Trazado_217053" data-name="Trazado 217053" d="M195.01,383.617a8.921,8.921,0,0,1-1.964.092c-1.213,0-2.894-.057-4.737-.163l-4.73-.27a12.76,12.76,0,0,1-1.957-.163,9.222,9.222,0,0,1,1.964-.1c1.213,0,2.894.064,4.745.163l4.723.277A10.834,10.834,0,0,1,195.01,383.617Z" transform="translate(-99.331 -187.639)" fill="#eb996e"/>
      <path id="Trazado_217054" data-name="Trazado 217054" d="M263.787,361.635s-1.128-2.915,1.3-3.759L276.1,354l.163-2.22,5.05.525a14.551,14.551,0,0,1,3.638-1.61c1.574-.333,2.546-.213,4,1.851a48.943,48.943,0,0,0,4.964,5.333l4.716.482s5.184,4.6,6.347,10.567a42.776,42.776,0,0,1,.61,6.071c-.709,1.461-3.4,2.014-6.83,2.128l-4,.106a2.468,2.468,0,0,1-2.22,2.326c-1.61.241-6.042-.27-7.3.064a24.224,24.224,0,0,1-3.929,0c-3.312-.567-12.645-1.418-12.858-4.915l-10.078.206a3.376,3.376,0,0,1-3.12-1.816,1.6,1.6,0,0,1-.163-1.255,2.758,2.758,0,0,1,.433-.766,3.035,3.035,0,0,1,2.135-1.057l13.475-1.5h0a.766.766,0,0,0-.546-1.376c-4.745.617-13.6,1.7-14.482,1.376-1.213-.454-1.716-2.128-1.716-2.95,0-1.284,2.2-2.34,4.447-2.78C261.666,362.216,263.787,361.635,263.787,361.635Z" transform="translate(-120.492 -178.203)" fill="#ffbe9d"/>
      <path id="Trazado_217055" data-name="Trazado 217055" d="M280.47,361.62a16.032,16.032,0,0,1-2.369.66l-5.759,1.376-5.759,1.369a17.727,17.727,0,0,1-2.4.5,2.566,2.566,0,0,1,.617-.241c.4-.135.986-.312,1.716-.518,1.461-.411,3.489-.936,5.745-1.468s4.3-.979,5.787-1.277A15.994,15.994,0,0,1,280.47,361.62Z" transform="translate(-123.339 -181.422)" fill="#eb996e"/>
      <path id="Trazado_217056" data-name="Trazado 217056" d="M287.524,383.968a60.9,60.9,0,0,1-6.667.4,60.8,60.8,0,0,1-6.688.043,60.159,60.159,0,0,1,6.674-.411A59.513,59.513,0,0,1,287.524,383.968Z" transform="translate(-126.244 -187.898)" fill="#eb996e"/>
      <path id="Trazado_217057" data-name="Trazado 217057" d="M291.261,352.31a45.139,45.139,0,0,1-7.8,2.638A46.8,46.8,0,0,1,291.261,352.31Z" transform="translate(-128.945 -178.714)" fill="#eb996e"/>
      <path id="Trazado_217058" data-name="Trazado 217058" d="M321.087,382.443a5.746,5.746,0,0,1,.511-.9c.17-.284.383-.624.6-1.035a5.829,5.829,0,0,0,.482-1.489,17.483,17.483,0,0,0-.929-9.028,22.858,22.858,0,0,0-4.688-7.844c-1.589-1.745-2.8-2.589-2.759-2.645a5.1,5.1,0,0,1,.858.574,19.859,19.859,0,0,1,2.092,1.894,21.744,21.744,0,0,1,4.844,7.9,17.072,17.072,0,0,1,.837,9.22,5.9,5.9,0,0,1-.553,1.525c-.241.418-.475.752-.66,1.028A5.814,5.814,0,0,1,321.087,382.443Z" transform="translate(-137.913 -180.805)" fill="#263238"/>
      <path id="Trazado_217059" data-name="Trazado 217059" d="M253.8,343.816a4.68,4.68,0,0,1,.043-.518c.043-.34.1-.851.17-1.489.163-1.326.39-3.248.709-5.674.617-4.929,1.5-11.964,2.56-20.482l.184.163c-5.234,1.1-11.078,2.213-17.361,3.276-3.149.532-6.383,1.035-9.752,1.489s-6.8.851-10.333,1.042c-4.042.206-8,.114-11.83,0s-7.539-.319-11.1-.525c-7.092-.44-13.617-.943-19.248-1.418l.156-.149c.248,7.383.454,13.4.6,17.581.057,2.071.106,3.688.142,4.808V343.6a3.234,3.234,0,0,0-.043-.426c-.043-.284-.035-.709-.064-1.255-.05-1.121-.121-2.738-.22-4.8-.17-4.184-.411-10.2-.709-17.574v-.163h.163c5.624.482,12.127.972,19.241,1.418,3.546.206,7.262.39,11.092.511s7.8.206,11.794,0c3.546-.191,6.957-.589,10.3-1.035s6.6-.95,9.737-1.475c6.284-1.05,12.127-2.128,17.361-3.22l.213-.043v.206c-1.121,8.51-2.042,15.546-2.695,20.468-.326,2.44-.589,4.362-.766,5.674l-.213,1.489C253.847,343.646,253.8,343.816,253.8,343.816Z" transform="translate(-98.191 -168.022)" fill="#263238"/>
      <path id="Trazado_217060" data-name="Trazado 217060" d="M257.376,314.429l-.2.057-.589.135-2.269.489c-1.972.433-4.844.979-8.4,1.6-1.78.291-3.73.624-5.83.915s-4.347.589-6.716.872c-4.745.532-9.971.986-15.475,1.227s-10.752.234-15.524.106c-2.383-.085-4.652-.163-6.766-.312s-4.092-.284-5.886-.433-3.418-.333-4.844-.475-2.652-.3-3.652-.433l-2.3-.312-.6-.092a.711.711,0,0,1-.2-.043h.206l.6.057,2.3.241c1.007.106,2.227.248,3.66.369s3.042.3,4.844.426,3.766.291,5.879.383,4.383.2,6.766.277c4.759.106,10,.092,15.5-.135s10.716-.709,15.454-1.2c2.362-.269,4.61-.532,6.709-.837s4.05-.6,5.83-.872c3.546-.574,6.432-1.085,8.411-1.468l2.284-.426.6-.1A.751.751,0,0,1,257.376,314.429Z" transform="translate(-98.316 -167.698)" fill="#263238"/>
      <path id="Trazado_217061" data-name="Trazado 217061" d="M257.491,311.36a1.66,1.66,0,0,1-.184.092l-.553.234c-.489.213-1.22.489-2.177.823a52.137,52.137,0,0,1-8.291,2.035,117.731,117.731,0,0,1-12.6,1.269c-4.759.269-9.986.553-15.475.766a245.521,245.521,0,0,1-28.155-.333c-3.6-.262-6.489-.6-8.51-.844l-2.3-.319-.6-.092-.206-.043a.644.644,0,0,1,.206,0l.6.05,2.3.255c2,.2,4.9.5,8.51.709a264.176,264.176,0,0,0,28.12.227c5.489-.213,10.716-.482,15.468-.709a122.924,122.924,0,0,0,12.553-1.191,56.817,56.817,0,0,0,8.291-1.915c.957-.312,1.7-.567,2.191-.759l.567-.2a.553.553,0,0,1,.227-.057Z" transform="translate(-98.409 -166.806)" fill="#263238"/>
      <path id="Trazado_217062" data-name="Trazado 217062" d="M136.92,381.862a1.2,1.2,0,0,1-.191-.227,6.586,6.586,0,0,1-.461-.709,8.837,8.837,0,0,1-1.071-2.936,13.093,13.093,0,0,1,.057-4.631,23.674,23.674,0,0,1,1.745-5.39,19.325,19.325,0,0,1,6.645-7.745,20.462,20.462,0,0,1,2.681-1.589c.326-.17.6-.277.773-.355s.27-.106.277-.092a9.98,9.98,0,0,1-.979.574,27.563,27.563,0,0,0-2.6,1.674,19.914,19.914,0,0,0-6.461,7.681,24.347,24.347,0,0,0-1.738,5.3,13.376,13.376,0,0,0-.142,4.525,9.681,9.681,0,0,0,.936,2.908C136.721,381.5,136.948,381.841,136.92,381.862Z" transform="translate(-85.779 -180.423)" fill="#263238"/>
    </g>
    <g id="freepik--Gavel--inject-5" transform="translate(255.793 244.304)">
      <rect id="Rectángulo_45214" data-name="Rectángulo 45214" width="43.361" height="3.418" transform="translate(33.638 41.976)" fill="#263238"/>
      <path id="Trazado_217063" data-name="Trazado 217063" d="M440.78,385.2h-39.9a3.745,3.745,0,0,1,3.745-3.752h32.4a3.752,3.752,0,0,1,3.752,3.752Z" transform="translate(-365.412 -343.226)" fill="#455a64"/>
      <path id="Trazado_217064" data-name="Trazado 217064" d="M409.993,387.26a8.869,8.869,0,0,0-1.709.078,15.32,15.32,0,0,0-3.915,1.326,16.758,16.758,0,0,1-3.936,1.418,6.585,6.585,0,0,1-1.262.106h-.461a3.958,3.958,0,0,1,.461,0,7.208,7.208,0,0,0,1.248-.149,18.184,18.184,0,0,0,3.886-1.418,14.509,14.509,0,0,1,3.964-1.3,4.915,4.915,0,0,1,1.723-.064Z" transform="translate(-364.781 -344.902)" fill="#455a64"/>
      <path id="Trazado_217065" data-name="Trazado 217065" d="M408.57,390.433a7.043,7.043,0,0,1,.773-.631,11.009,11.009,0,0,1,2.383-1.319,11.915,11.915,0,0,1,3.943-.858,11.644,11.644,0,0,1,3.631.4,3.818,3.818,0,0,1,.624.213.759.759,0,0,1,.454.525.56.56,0,0,1-.411.553,4.481,4.481,0,0,1-.624.191q-.624.17-1.234.3a22.851,22.851,0,0,1-2.362.369,21.477,21.477,0,0,1-4.035,0,.766.766,0,0,1-.709-.4.4.4,0,0,1,.057-.4.986.986,0,0,1,.277-.241,3.546,3.546,0,0,1,1.1-.425,2.723,2.723,0,0,1,.993-.064h-.255a4.016,4.016,0,0,0-.709.1,3.9,3.9,0,0,0-1.064.447c-.184.106-.39.3-.291.532a.709.709,0,0,0,.645.333,23.545,23.545,0,0,0,4.014-.071,22.676,22.676,0,0,0,2.347-.376c.4-.085.809-.184,1.22-.3a5.536,5.536,0,0,0,.61-.184c.184-.071.347-.22.319-.4a.632.632,0,0,0-.376-.411,3.669,3.669,0,0,0-.6-.2,10.719,10.719,0,0,0-1.22-.269,11.229,11.229,0,0,0-2.362-.142,12.139,12.139,0,0,0-3.908.816,11.494,11.494,0,0,0-2.39,1.269c-.27.17-.461.34-.6.44Z" transform="translate(-367.648 -345.018)" fill="#455a64"/>
      <path id="Trazado_217066" data-name="Trazado 217066" d="M434.222,386.682c0,.035-.532,0-1.418.128a7.879,7.879,0,0,0-3.078,1.213,16.312,16.312,0,0,1-2.837,1.816,3.633,3.633,0,0,1-.993.262,1.417,1.417,0,0,1-.376,0,5.435,5.435,0,0,0,1.326-.376,18.51,18.51,0,0,0,2.8-1.837A7.475,7.475,0,0,1,432.8,386.7a6.516,6.516,0,0,1,1.028-.057,1.8,1.8,0,0,1,.4.043Z" transform="translate(-372.577 -344.735)" fill="#455a64"/>
      <path id="Trazado_217067" data-name="Trazado 217067" d="M452.1,388.232a1.822,1.822,0,0,1-.709.255,4.347,4.347,0,0,1-1.972-.156,14.894,14.894,0,0,0-2.837-.589c-1.092-.106-2.3-.113-3.546-.149a21.344,21.344,0,0,0-3.546.177,9.931,9.931,0,0,0-2.787.808,7.381,7.381,0,0,0-1.652,1.043c-.355.3-.525.5-.539.489a4.175,4.175,0,0,1,.5-.532,6.738,6.738,0,0,1,1.645-1.092,9.708,9.708,0,0,1,2.837-.851,20.688,20.688,0,0,1,3.589-.192c1.277.035,2.489.05,3.589.163a14.027,14.027,0,0,1,2.872.624,4.4,4.4,0,0,0,1.929.2,4.59,4.59,0,0,0,.624-.2Z" transform="translate(-375.191 -344.966)" fill="#455a64"/>
      <path id="Trazado_217068" data-name="Trazado 217068" d="M454.058,390.322a3.33,3.33,0,0,1-.5.121,6.674,6.674,0,0,1-1.418.071,26.1,26.1,0,0,1-4.553-.879,10.851,10.851,0,0,0-2.518-.312,6.226,6.226,0,0,0-2.021.34,4.964,4.964,0,0,0-1.624.979,2.4,2.4,0,0,1,.362-.369,4.335,4.335,0,0,1,1.227-.709,6.106,6.106,0,0,1,2.057-.383,11.342,11.342,0,0,1,2.546.3,29.584,29.584,0,0,0,4.532.929,8.3,8.3,0,0,0,1.418,0A4.27,4.27,0,0,1,454.058,390.322Z" transform="translate(-377.201 -345.474)" fill="#455a64"/>
      <path id="Trazado_217069" data-name="Trazado 217069" d="M351.082,378.954h0a3.248,3.248,0,0,0,4.156,1.887l54.729-20.269-2.745-5.411-54.212,19.581a3.248,3.248,0,0,0-1.929,4.213Z" transform="translate(-350.869 -335.581)" fill="#455a64"/>
      <path id="Trazado_217070" data-name="Trazado 217070" d="M424.249,338.253l2.064,6.723,21.035-7.177L445.5,331.04a3.957,3.957,0,0,0-2.347-2.631c-2.227-.894-5.567-1.418-10.638.135a13.61,13.61,0,0,0-7.979,6.6A3.894,3.894,0,0,0,424.249,338.253Z" transform="translate(-372.15 -327.553)" fill="#455a64"/>
      <path id="Trazado_217071" data-name="Trazado 217071" d="M448.211,340.889c.752,2.128-3.347,5.482-9.149,7.553s-11.113,2.05-11.858-.05,3.34-5.482,9.142-7.553S447.459,338.789,448.211,340.889Z" transform="translate(-373.041 -330.969)" fill="#263238"/>
      <path id="Trazado_217072" data-name="Trazado 217072" d="M449.536,344.882s-2.4-4.468-11.347-1.418c-7.276,2.5-7.936,6.206-7.929,7.489a2.548,2.548,0,0,0,.036.468l1.7,4.794a3.674,3.674,0,0,0,1.149,1.624l.34.277a3.7,3.7,0,0,0,3.787.532l11.95-5.1a3.7,3.7,0,0,0,2.241-3.39h0a3.7,3.7,0,0,0-.3-1.461Z" transform="translate(-373.955 -331.87)" fill="#455a64"/>
      <path id="Trazado_217073" data-name="Trazado 217073" d="M435.77,371.026l-2.574-7.376s-1.121-5.766,9.22-8.993,12.617,3.681,12.617,3.681l2.128,6.191Z" transform="translate(-374.799 -335.185)" fill="#455a64"/>
      <path id="Trazado_217074" data-name="Trazado 217074" d="M458.06,367.543c.837,2.638-3.241,6.284-9.113,8.156S437.6,376.94,436.8,374.281s3.241-6.284,9.113-8.149S457.224,364.912,458.06,367.543Z" transform="translate(-375.827 -338.461)" fill="#263238"/>
      <path id="Trazado_217075" data-name="Trazado 217075" d="M452.513,355.138a10.54,10.54,0,0,0-3.277-1.1A18.887,18.887,0,0,0,441,355.124a14.577,14.577,0,0,0-4.071,2.092,9.566,9.566,0,0,0-2.489,2.766,8.687,8.687,0,0,0-1.085,3.262s0-.085,0-.248a6.277,6.277,0,0,1,.05-.709,7.234,7.234,0,0,1,.837-2.454,9.42,9.42,0,0,1,2.511-2.9,14.184,14.184,0,0,1,4.163-2.17,17.828,17.828,0,0,1,8.4-.993,7.908,7.908,0,0,1,2.447.823,4.308,4.308,0,0,1,.6.376C452.456,355.074,452.52,355.124,452.513,355.138Z" transform="translate(-374.854 -335.127)" fill="#263238"/>
      <path id="Trazado_217076" data-name="Trazado 217076" d="M432.458,360.688a12.682,12.682,0,0,1-1.291-2.752,12.854,12.854,0,0,1-.957-2.886,12.678,12.678,0,0,1,1.269,2.73,12.055,12.055,0,0,1,.979,2.908Z" transform="translate(-373.941 -335.549)" fill="#263238"/>
      <path id="Trazado_217077" data-name="Trazado 217077" d="M366.029,376.52l-.589.312a10.536,10.536,0,0,0-1.532.972,39.832,39.832,0,0,0-4.312,4.149,13.766,13.766,0,0,1-4.879,3.468,6.628,6.628,0,0,1-1.78.4,4.812,4.812,0,0,1-.667,0,4.84,4.84,0,0,0,.66-.064,7.165,7.165,0,0,0,1.752-.44,14.184,14.184,0,0,0,4.815-3.468,34.9,34.9,0,0,1,4.355-4.135A8.432,8.432,0,0,1,366.029,376.52Z" transform="translate(-351.276 -341.793)" fill="#263238"/>
      <path id="Trazado_217078" data-name="Trazado 217078" d="M383.491,373.636s-.191.057-.553.142-.894.227-1.567.418a45.484,45.484,0,0,0-5.638,1.964,1.163,1.163,0,0,0-.638.645.575.575,0,0,0,.326.759,1.979,1.979,0,0,0,1.007-.071l1.064-.248c1.418-.355,2.964-.8,4.539-1.347a49.1,49.1,0,0,0,4.837-1.986q1.234-.589,2.468-1.255a4.141,4.141,0,0,0,1.106-.837,1.255,1.255,0,0,0,.355-1.241,1.418,1.418,0,0,0-.993-.858,2.98,2.98,0,0,0-1.369,0c-.908.213-1.808.454-2.681.709-1.759.468-3.44.965-5.014,1.518a29.745,29.745,0,0,0-7.872,3.986,19.532,19.532,0,0,0-4.255,4.163c-.418.567-.709,1.028-.9,1.347s-.291.489-.291.489a13.044,13.044,0,0,1,1.121-1.865,19.26,19.26,0,0,1,4.255-4.213,29.787,29.787,0,0,1,7.893-4.028c1.574-.56,3.262-1.057,5.014-1.532.879-.234,1.773-.475,2.688-.709a3.085,3.085,0,0,1,1.418,0,1.574,1.574,0,0,1,1.1.95,1.418,1.418,0,0,1-.383,1.418,4.333,4.333,0,0,1-1.149.865c-.83.447-1.652.865-2.475,1.255a47.711,47.711,0,0,1-4.858,1.986,46.426,46.426,0,0,1-4.553,1.333l-1.064.248a2.128,2.128,0,0,1-1.071.064.631.631,0,0,1-.4-.376.787.787,0,0,1,0-.525,1.241,1.241,0,0,1,.709-.709,43.621,43.621,0,0,1,5.674-1.929C382.725,373.778,383.491,373.636,383.491,373.636Z" transform="translate(-355.682 -339.752)" fill="#263238"/>
      <path id="Trazado_217079" data-name="Trazado 217079" d="M410.171,361.3a8.025,8.025,0,0,0-1.17,1.142,16.572,16.572,0,0,0-1.972,3.44,11.291,11.291,0,0,1-2.177,3.333,4.148,4.148,0,0,1-1.362.936,7.479,7.479,0,0,0,1.291-1.007,12.238,12.238,0,0,0,2.128-3.333,15.6,15.6,0,0,1,2.021-3.432,4.567,4.567,0,0,1,1.241-1.078Z" transform="translate(-366.171 -337.367)" fill="#263238"/>
      <path id="Trazado_217080" data-name="Trazado 217080" d="M411,367.809a11.8,11.8,0,0,0,1.177-.894,10.057,10.057,0,0,0,3.383-6.078c.135-.9.106-1.468.142-1.468a2.964,2.964,0,0,1,0,.4,6.531,6.531,0,0,1-.064,1.085,9.511,9.511,0,0,1-3.418,6.142,6.245,6.245,0,0,1-.887.624,2.047,2.047,0,0,1-.333.192Z" transform="translate(-368.355 -336.805)" fill="#263238"/>
      <path id="Trazado_217081" data-name="Trazado 217081" d="M426.6,359.68a2.677,2.677,0,0,1-.489.071,11.382,11.382,0,0,0-1.312.227,12.276,12.276,0,0,0-7.191,4.73,11.345,11.345,0,0,0-.709,1.121,4.716,4.716,0,0,1-.255.418,8.655,8.655,0,0,1,.9-1.6,11.794,11.794,0,0,1,7.234-4.745A9.021,9.021,0,0,1,426.6,359.68Z" transform="translate(-369.995 -336.896)" fill="#263238"/>
      <path id="Trazado_217082" data-name="Trazado 217082" d="M443.576,349.857s-.121.035-.348.078l-1.014.2-1.6.3-.993.184a5.717,5.717,0,0,0-1.1.255c-.355.121-.745.433-.638.851a.993.993,0,0,0,1.021.617,18.693,18.693,0,0,0,2.957-.333,20.881,20.881,0,0,0,3.184-.858c.518-.184,1.142-.369,1.362-.9a1.34,1.34,0,0,0-.546-1.489,2.837,2.837,0,0,0-1.674-.4c-.589,0-1.17.071-1.745.128a21.857,21.857,0,0,0-3.248.539,11.517,11.517,0,0,0-4.929,2.475,8.29,8.29,0,0,0-2.184,3.014,7.931,7.931,0,0,0-.312.979c-.05.227-.085.348-.085.348a5.581,5.581,0,0,1,.34-1.347,8.149,8.149,0,0,1,2.17-3.071,11.51,11.51,0,0,1,4.964-2.525,21.239,21.239,0,0,1,3.269-.56c.574-.05,1.156-.106,1.752-.121a2.936,2.936,0,0,1,1.773.426,1.489,1.489,0,0,1,.6,1.66,1.376,1.376,0,0,1-.645.652,6.08,6.08,0,0,1-.808.333,21.529,21.529,0,0,1-3.206.851,18.954,18.954,0,0,1-2.986.319,1.1,1.1,0,0,1-1.128-.709.709.709,0,0,1,.17-.645,1.418,1.418,0,0,1,.539-.333,5.77,5.77,0,0,1,1.113-.248l1-.177,1.6-.277,1.014-.17Z" transform="translate(-374.371 -333.562)" fill="#263238"/>
      <path id="Trazado_217083" data-name="Trazado 217083" d="M452.51,346.328a5.109,5.109,0,0,1-.468-.291,10.983,10.983,0,0,0-1.319-.709,13.63,13.63,0,0,0-4.773-1.064,29.121,29.121,0,0,0-4.922.255l-1.489.177-.4.05h0l.4-.078,1.482-.227a26.69,26.69,0,0,1,4.964-.3,12.935,12.935,0,0,1,4.808,1.121,7.426,7.426,0,0,1,1.716,1.064Z" transform="translate(-376.497 -332.373)" fill="#263238"/>
      <path id="Trazado_217084" data-name="Trazado 217084" d="M446.122,336.06a5.129,5.129,0,0,0-.674-.61,5.914,5.914,0,0,0-2.227-1.057,8.071,8.071,0,0,0-3.645,0,19.151,19.151,0,0,0-4.255,1.567,40.6,40.6,0,0,1-4.156,1.83,10.212,10.212,0,0,1-3.66.631,6.651,6.651,0,0,1-2.447-.489,4,4,0,0,1-.809-.426l.213.1a5.786,5.786,0,0,0,.617.277,6.922,6.922,0,0,0,2.433.433,10.279,10.279,0,0,0,3.6-.652,41.255,41.255,0,0,0,4.144-1.838,19.105,19.105,0,0,1,4.255-1.567,8.043,8.043,0,0,1,3.695.035,5.752,5.752,0,0,1,2.241,1.106A3.618,3.618,0,0,1,446.122,336.06Z" transform="translate(-372.208 -329.446)" fill="#263238"/>
      <path id="Trazado_217085" data-name="Trazado 217085" d="M439.877,328.28a12.129,12.129,0,0,1-1.511,1.56,16.44,16.44,0,0,1-9.5,4.035,12.455,12.455,0,0,1-2.17,0,.4.4,0,0,1,.156,0h.425a14.882,14.882,0,0,0,1.582-.085,17.177,17.177,0,0,0,9.439-4.007c.5-.433.9-.809,1.156-1.078l.3-.3C439.834,328.308,439.87,328.273,439.877,328.28Z" transform="translate(-372.92 -327.764)" fill="#263238"/>
      <path id="Trazado_217086" data-name="Trazado 217086" d="M445.9,338.273s-.262-.17-.759-.426a9.159,9.159,0,0,0-2.227-.78,11.886,11.886,0,0,0-3.489-.17,19.447,19.447,0,0,0-4.184.929c-1.454.475-2.8,1.021-4.042,1.489s-2.376.858-3.347,1.128a18.437,18.437,0,0,1-2.319.5,7.078,7.078,0,0,1-.872.078h.22l.638-.1a19.7,19.7,0,0,0,2.3-.546c.964-.277,2.085-.709,3.326-1.156s2.589-1.021,4.05-1.5a18.628,18.628,0,0,1,4.255-.922A11.516,11.516,0,0,1,443,337a8.347,8.347,0,0,1,2.234.83A4.776,4.776,0,0,1,445.9,338.273Z" transform="translate(-372.327 -330.226)" fill="#263238"/>
      <path id="Trazado_217087" data-name="Trazado 217087" d="M455.366,360.568l-.355-.262a7.463,7.463,0,0,0-1.085-.667,7.567,7.567,0,0,0-4.532-.61,14.085,14.085,0,0,0-6.206,2.886,39.937,39.937,0,0,0-3.092,2.674l-1.574,1.489a5.63,5.63,0,0,1-1.851,1.269,2.567,2.567,0,0,1-2.22-.135,2.128,2.128,0,0,1-.915-1.936,4.574,4.574,0,0,1,.574-2.021,7.7,7.7,0,0,1,4.255-3.659,1.986,1.986,0,0,1,1.681.085.943.943,0,0,1,.39.709,1.6,1.6,0,0,1-.177.759,6.454,6.454,0,0,1-3.624,2.837,1.227,1.227,0,0,1-.709.057.44.44,0,0,1-.312-.418.348.348,0,0,1,.128-.3.241.241,0,0,1,.106-.035.3.3,0,0,0-.206.34.4.4,0,0,0,.3.376,1.184,1.184,0,0,0,.709-.071,6.562,6.562,0,0,0,1.78-.9A5.93,5.93,0,0,0,440.2,361.1a1.376,1.376,0,0,0,.163-.709.787.787,0,0,0-.348-.624,1.872,1.872,0,0,0-1.567-.064,7.625,7.625,0,0,0-3.05,2,5.809,5.809,0,0,0-1.709,3.546,1.993,1.993,0,0,0,.851,1.8,2.383,2.383,0,0,0,2.085.12,5.545,5.545,0,0,0,1.808-1.234L440,364.448a37.656,37.656,0,0,1,3.113-2.674,14.183,14.183,0,0,1,6.262-2.886,7.588,7.588,0,0,1,4.581.667,7.509,7.509,0,0,1,1.071.709C455.253,360.462,455.366,360.568,455.366,360.568Z" transform="translate(-374.906 -336.635)" fill="#263238"/>
      <path id="Trazado_217088" data-name="Trazado 217088" d="M459.473,363.5h-.135l-.383-.128a9.566,9.566,0,0,0-1.418-.369,11.581,11.581,0,0,0-2.128-.213,13.418,13.418,0,0,0-2.617.277,13.044,13.044,0,0,0-2.5.858,11.792,11.792,0,0,0-1.858,1.1,10.566,10.566,0,0,0-1.121.929l-.291.277-.106.085a8.334,8.334,0,0,1,1.418-1.376,10.96,10.96,0,0,1,1.858-1.135,11.44,11.44,0,0,1,5.184-1.149,10.492,10.492,0,0,1,2.163.248,8.6,8.6,0,0,1,1.929.6Z" transform="translate(-378.8 -337.762)" fill="#263238"/>
      <path id="Trazado_217089" data-name="Trazado 217089" d="M443.67,355.891a2.752,2.752,0,0,1,.468.078c.291.057.709.135,1.255.22a24.113,24.113,0,0,0,8.4-.085c.532-.092.957-.177,1.255-.248a3.331,3.331,0,0,1,.461-.085,4.128,4.128,0,0,1-.447.142q-.436.128-1.255.3a22.132,22.132,0,0,1-4.234.433,22.56,22.56,0,0,1-4.22-.362c-.532-.1-.964-.191-1.255-.27A3.406,3.406,0,0,1,443.67,355.891Z" transform="translate(-377.855 -335.759)" fill="#263238"/>
    </g>
    <g id="freepik--Table--inject-5" transform="translate(23.92 289.52)">
      <path id="Trazado_217090" data-name="Trazado 217090" d="M338.92,391.494c0,.1-70.523.184-157.493.184s-157.507-.085-157.507-.184,70.509-.184,157.507-.184S338.92,391.388,338.92,391.494Z" transform="translate(-23.92 -391.31)" fill="#263238"/>
    </g>
  </g>
</svg>
