<svg xmlns="http://www.w3.org/2000/svg" width="106" height="106" viewBox="0 0 106 106">
  <g id="Grupo_149425" data-name="Grupo 149425" transform="translate(-353 -757.322)">
    <g id="Grupo_149409" data-name="Grupo 149409">
      <g id="Trazado_191625" data-name="Trazado 191625" transform="translate(360 764.322)" fill="#fff">
        <path d="M 46 95.5 C 39.319091796875 95.5 32.83615493774414 94.19073486328125 26.73129272460938 91.60859680175781 C 20.83644676208496 89.11529541015625 15.54307651519775 85.54664611816406 10.998215675354 81.00178527832031 C 6.453353881835938 76.45692443847656 2.884707689285278 71.16355133056641 0.391400009393692 65.26870727539062 C -2.190738439559937 59.16384506225586 -3.5 52.680908203125 -3.5 46 C -3.5 39.319091796875 -2.190738439559937 32.83615493774414 0.391400009393692 26.73129272460938 C 2.884707689285278 20.83644676208496 6.453353881835938 15.54307651519775 10.998215675354 10.998215675354 C 15.54307651519775 6.453353881835938 20.83644676208496 2.884707689285278 26.73129272460938 0.391400009393692 C 32.83615493774414 -2.190738439559937 39.319091796875 -3.5 46 -3.5 C 52.680908203125 -3.5 59.16384506225586 -2.190738439559937 65.26870727539062 0.391400009393692 C 71.16355133056641 2.884707689285278 76.45692443847656 6.453353881835938 81.00178527832031 10.998215675354 C 85.54664611816406 15.54307651519775 89.11529541015625 20.83644676208496 91.60859680175781 26.73129272460938 C 94.19073486328125 32.83615493774414 95.5 39.319091796875 95.5 46 C 95.5 52.680908203125 94.19073486328125 59.16384506225586 91.60859680175781 65.26870727539062 C 89.11529541015625 71.16355133056641 85.54664611816406 76.45692443847656 81.00178527832031 81.00178527832031 C 76.45692443847656 85.54664611816406 71.16355133056641 89.11529541015625 65.26870727539062 91.60859680175781 C 59.16384506225586 94.19073486328125 52.680908203125 95.5 46 95.5 Z" stroke="none"/>
        <path d="M 46 0 C 20.59490203857422 0 0 20.59490203857422 0 46 C 0 71.40509796142578 20.59490203857422 92 46 92 C 71.40509796142578 92 92 71.40509796142578 92 46 C 92 20.59490203857422 71.40509796142578 0 46 0 M 46 -7 C 75.22430419921875 -7 99 16.77570343017578 99 46 C 99 75.22430419921875 75.22430419921875 99 46 99 C 16.77570343017578 99 -7 75.22430419921875 -7 46 C -7 16.77570343017578 16.77570343017578 -7 46 -7 Z" stroke="none" fill="#54aa13"/>
      </g>
      <g id="peligro" transform="translate(372.2 778.321)">
        <path id="Trazado_218573" data-name="Trazado 218573" d="M35.158,67.891a8.951,8.951,0,0,1-6.349-2.625L5.051,41.507a8.989,8.989,0,0,1,0-12.7L28.809,5.051a8.989,8.989,0,0,1,12.7,0L65.265,28.809a8.989,8.989,0,0,1,0,12.7h0L41.507,65.265A8.951,8.951,0,0,1,35.158,67.891Z" transform="translate(-1.358 -1.358)" fill="#fff"/>
        <path id="Trazado_218574" data-name="Trazado 218574" d="M65.265,28.809,41.507,5.051a8.989,8.989,0,0,0-12.7,0L5.051,28.809a8.989,8.989,0,0,0,0,12.7L28.809,65.265a8.989,8.989,0,0,0,12.7,0L65.265,41.507A8.989,8.989,0,0,0,65.265,28.809ZM63.252,39.494,39.494,63.253a6.143,6.143,0,0,1-8.672,0L7.063,39.494a6.139,6.139,0,0,1,0-8.672L30.822,7.064a6.139,6.139,0,0,1,8.672,0L63.252,30.822A6.139,6.139,0,0,1,63.252,39.494Z" transform="translate(-1.358 -1.358)" fill="#444"/>
        <path id="Trazado_218575" data-name="Trazado 218575" d="M44.885,16.895,68.644,40.653a3,3,0,0,1,0,4.233L44.885,68.644a3,3,0,0,1-4.233,0L16.895,44.885a3,3,0,0,1,0-4.233L40.653,16.895a3,3,0,0,1,4.232,0Z" transform="translate(-8.969 -8.969)" fill="#fece2f"/>
        <path id="Trazado_218576" data-name="Trazado 218576" d="M110.814,51.446,91.337,70.923l13.494-18.666a5.333,5.333,0,0,0,0-5.855L91.337,27.737l19.477,19.477A3,3,0,0,1,110.814,51.446Z" transform="translate(-51.139 -15.529)" fill="#fece2f"/>
        <path id="Trazado_218577" data-name="Trazado 218577" d="M75.832,66.783a3.558,3.558,0,1,1-3.558-3.558A3.558,3.558,0,0,1,75.832,66.783ZM72.274,34.762a3.558,3.558,0,0,0-3.558,3.558V53.975a3.558,3.558,0,1,0,7.116,0V38.32A3.558,3.558,0,0,0,72.274,34.762Z" transform="translate(-38.474 -19.463)" fill="#fff"/>
        <path id="Trazado_218578" data-name="Trazado 218578" d="M78.095,38.32V53.975a3.557,3.557,0,0,1-5.337,3.081,3.556,3.556,0,0,0,1.779-3.081V38.32a3.556,3.556,0,0,0-1.779-3.081,3.557,3.557,0,0,1,5.337,3.081ZM74.537,63.225a3.54,3.54,0,0,0-1.779.477,3.557,3.557,0,0,1,0,6.161,3.558,3.558,0,1,0,1.779-6.639Z" transform="translate(-40.737 -19.463)" fill="#444"/>
        <path id="Trazado_218579" data-name="Trazado 218579" d="M29.175,22.415a1.067,1.067,0,1,1,2.135,0v12.1a2.491,2.491,0,1,0,4.981,0V32.377a1.067,1.067,0,1,1,2.135,0v2.135a4.625,4.625,0,1,1-9.251,0v-12.1Zm17.556,33.4-7.337,7.337a7.922,7.922,0,0,1-11.188,0L4.448,39.394a7.921,7.921,0,0,1,0-11.188L23.716,8.938a1.067,1.067,0,1,0-1.509-1.51L2.938,26.7a10.056,10.056,0,0,0,0,14.207L26.7,64.662a10.056,10.056,0,0,0,14.207,0l7.337-7.337a1.067,1.067,0,1,0-1.51-1.509ZM37.358,29.175a1.067,1.067,0,0,0,1.067-1.067V18.857a4.625,4.625,0,1,0-9.251,0,1.067,1.067,0,1,0,2.135,0,2.491,2.491,0,0,1,4.981,0v9.251A1.068,1.068,0,0,0,37.358,29.175Zm27.3-2.478L40.9,2.938a10.058,10.058,0,0,0-14.207,0L25.052,4.582a1.067,1.067,0,1,0,1.51,1.509l1.644-1.644a7.921,7.921,0,0,1,11.188,0L63.152,28.206a7.921,7.921,0,0,1,0,11.188L49.577,52.97a1.067,1.067,0,0,0,1.509,1.51L64.662,40.9a10.056,10.056,0,0,0,0-14.207ZM29.175,47.32A4.625,4.625,0,1,1,33.8,51.946,4.631,4.631,0,0,1,29.175,47.32Zm2.135,0A2.491,2.491,0,1,0,33.8,44.83,2.493,2.493,0,0,0,31.31,47.32ZM37.4,59.7,60.429,36.671a4.064,4.064,0,0,0,0-5.742L36.671,7.171a4.064,4.064,0,0,0-5.742,0L7.171,30.929a4.064,4.064,0,0,0,0,5.742L30.929,60.429A4.033,4.033,0,0,0,33.8,61.617h0a1.067,1.067,0,0,0,0-2.135,1.913,1.913,0,0,1-1.362-.563L8.68,35.162a1.928,1.928,0,0,1,0-2.723L32.439,8.68a1.929,1.929,0,0,1,2.723,0L58.92,32.439a1.928,1.928,0,0,1,0,2.723L35.892,58.19A1.067,1.067,0,0,0,37.4,59.7Z"/>
      </g>
    </g>
  </g>
</svg>
