<svg xmlns="http://www.w3.org/2000/svg" width="270" height="248.772" viewBox="0 0 270 248.772">
  <g id="Universal_declaration_of_human_rights-amico" data-name="Universal declaration of human rights-amico" transform="translate(-233.566 -40.042)">
    <g id="freepik--Scales--inject-5" transform="translate(233.566 40.042)">
      <g id="freepik--scales--inject-5-2" data-name="freepik--scales--inject-5">
        <path id="Trazado_217490" data-name="Trazado 217490" d="M233.57,254.3c-.25,17.6,14.739,26.877,32.912,26.877s32.886-9.28,32.886-26.877Z" transform="translate(-233.566 -69.846)" fill="#f67409"/>
        <path id="Trazado_217491" data-name="Trazado 217491" d="M243.212,264.668c-12.853-7.421-12.853-19.456,0-26.877s33.687-7.421,46.54,0,12.853,19.456,0,26.877S256.066,272.089,243.212,264.668Z" transform="translate(-233.567 -66.775)" fill="#f67409"/>
        <path id="Trazado_217492" data-name="Trazado 217492" d="M243.212,264.668c-12.853-7.421-12.853-19.456,0-26.877s33.687-7.421,46.54,0,12.853,19.456,0,26.877S256.066,272.089,243.212,264.668Z" transform="translate(-233.567 -66.775)" fill="#fff" opacity="0.4"/>
        <path id="Trazado_217493" data-name="Trazado 217493" d="M246.315,267.691c12.362,6.233,30.837,6.233,43.2,0,4.391-5.165,2.875-11.613-4.589-15.918-9.392-5.424-24.63-5.424-34.023,0C243.439,256.077,241.924,262.508,246.315,267.691Z" transform="translate(-235 -68.928)" fill="#f67409" opacity="0.5"/>
        <path id="Trazado_217494" data-name="Trazado 217494" d="M261.848,261.189H261.8a.568.568,0,0,1-.517-.62l8.488-92.323a.585.585,0,0,1,.62-.517.568.568,0,0,1,.517.62l-8.488,92.323A.568.568,0,0,1,261.848,261.189Z" transform="translate(-237.421 -57.803)" fill="#37474f"/>
        <path id="Trazado_217495" data-name="Trazado 217495" d="M303.484,237.893a.56.56,0,0,1-.517-.336l-31.776-69.018a.57.57,0,0,1,1.033-.482L304,237.084a.568.568,0,0,1-.276.758.577.577,0,0,1-.241.052Z" transform="translate(-238.793 -57.803)" fill="#37474f"/>
        <path id="Trazado_217496" data-name="Trazado 217496" d="M244.676,229.4a.594.594,0,0,1-.207-.043.568.568,0,0,1-.336-.74l23.244-60.521a.568.568,0,0,1,.74-.327.577.577,0,0,1,.327.74L245.2,229.025a.577.577,0,0,1-.525.37Z" transform="translate(-235.031 -57.803)" fill="#37474f"/>
        <path id="Trazado_217497" data-name="Trazado 217497" d="M387.09,165.48c-.25,17.6,14.739,26.877,32.912,26.877s32.912-9.28,32.912-26.877Z" transform="translate(-254.921 -57.491)" fill="#f67409"/>
        <path id="Trazado_217498" data-name="Trazado 217498" d="M396.732,175.848c-12.853-7.421-12.853-19.456,0-26.877s33.7-7.421,46.549,0,12.853,19.456,0,26.877S409.586,183.269,396.732,175.848Z" transform="translate(-254.922 -54.42)" fill="#f67409"/>
        <path id="Trazado_217499" data-name="Trazado 217499" d="M396.732,175.848c-12.853-7.421-12.853-19.456,0-26.877s33.7-7.421,46.549,0,12.853,19.456,0,26.877S409.586,183.269,396.732,175.848Z" transform="translate(-254.922 -54.42)" fill="#fff" opacity="0.4"/>
        <path id="Trazado_217500" data-name="Trazado 217500" d="M399.835,178.871c12.362,6.233,30.837,6.233,43.2,0,4.391-5.165,2.875-11.614-4.589-15.918-9.392-5.424-24.63-5.424-34.023,0C396.959,167.257,395.444,173.688,399.835,178.871Z" transform="translate(-256.355 -56.573)" fill="#f67409" opacity="0.5"/>
        <path id="Trazado_217501" data-name="Trazado 217501" d="M415.368,172.369h-.052a.568.568,0,0,1-.517-.62l8.488-92.323a.577.577,0,0,1,.62-.517.568.568,0,0,1,.517.62l-8.488,92.323a.56.56,0,0,1-.568.517Z" transform="translate(-258.776 -45.448)" fill="#37474f"/>
        <path id="Trazado_217502" data-name="Trazado 217502" d="M457.016,149.08a.577.577,0,0,1-.525-.336L424.715,79.726a.577.577,0,0,1,1.042-.482l31.776,69.027a.577.577,0,0,1-.276.758.612.612,0,0,1-.241.052Z" transform="translate(-260.151 -45.455)" fill="#37474f"/>
        <path id="Trazado_217503" data-name="Trazado 217503" d="M398.2,140.582a.594.594,0,0,1-.207,0,.577.577,0,0,1-.327-.74l23.244-60.521a.572.572,0,0,1,1.068.413l-23.244,60.521a.568.568,0,0,1-.534.327Z" transform="translate(-256.388 -45.455)" fill="#37474f"/>
        <path id="Trazado_217504" data-name="Trazado 217504" d="M428.408,68.71c-.06,2.858-1.816,6.224-3.909,7.43a1.842,1.842,0,0,1-1.782.232,3,3,0,0,1-.981-2.634,10.211,10.211,0,0,1,1.524-5.028h-2.583a12.052,12.052,0,0,0-1.2,5.028c0,2.161.775,3.84,2.126,4.623a3.444,3.444,0,0,0,1.722.456,4.718,4.718,0,0,0,2.359-.7c2.8-1.61,4.993-5.716,5.053-9.41Z" transform="translate(-259.428 -44.03)" fill="#455a64"/>
        <g id="freepik--Base--inject-5" transform="translate(68.124 180.876)">
          <path id="Trazado_217505" data-name="Trazado 217505" d="M367,261.471c-12.423-7.171-32.568-7.171-44.982,0-6.216,3.59-9.3,8.29-9.289,12.991v4.864c0,4.7,3.073,9.4,9.289,12.982,12.423,7.171,32.559,7.171,44.982,0,6.216-3.581,9.3-8.282,9.289-12.982v-4.864C376.3,269.787,373.225,265.061,367,261.471Z" transform="translate(-312.702 -250.971)" fill="#263238"/>
          <path id="Trazado_217506" data-name="Trazado 217506" d="M322.015,261.47c-12.423,7.18-12.423,18.8,0,25.973s32.559,7.171,44.982,0,12.423-18.793,0-25.973S334.48,254.29,322.015,261.47Z" transform="translate(-312.698 -250.97)" fill="#455a64"/>
          <path id="Trazado_217507" data-name="Trazado 217507" d="M363.991,254.612c-10.271-5.923-26.92-5.923-37.182,0-5.165,2.97-7.688,6.887-7.679,10.735V272.5c0,3.891,2.54,7.748,7.679,10.735,10.262,5.932,26.912,5.932,37.182,0,5.165-2.961,7.688-6.844,7.679-10.735v-7.154C371.679,261.465,369.122,257.582,363.991,254.612Z" transform="translate(-313.592 -250.147)" fill="#37474f"/>
          <path id="Trazado_217508" data-name="Trazado 217508" d="M326.805,254.609c-10.271,5.932-10.271,15.5,0,21.471s26.912,5.932,37.182,0,10.271-15.5,0-21.471S337.093,248.677,326.805,254.609Z" transform="translate(-313.588 -250.144)" fill="#455a64"/>
        </g>
        <path id="Trazado_217509" data-name="Trazado 217509" d="M276.486,157h-2.307a5.116,5.116,0,0,1,.052.749c0,2.884-1.791,6.353-3.917,7.585a1.885,1.885,0,0,1-1.791.232,3.024,3.024,0,0,1-.973-2.634,9.083,9.083,0,0,1,.611-3.134h-2.428a11.294,11.294,0,0,0-.473,3.134c0,2.152.766,3.84,2.118,4.623a3.444,3.444,0,0,0,1.722.456,4.718,4.718,0,0,0,2.359-.7c2.832-1.636,5.053-5.837,5.053-9.565A7.044,7.044,0,0,0,276.486,157Z" transform="translate(-237.975 -56.311)" fill="#455a64"/>
        <path id="Trazado_217510" data-name="Trazado 217510" d="M367.123,260.455c0-3.082-2.04-6.164-6.1-8.514-8.144-4.7-21.342-4.7-29.486,0-4.072,2.35-6.1,5.432-6.1,8.514v2.462c0,3.082,2.032,6.164,6.1,8.514,8.144,4.7,21.342,4.7,29.486,0,4.063-2.35,6.1-5.432,6.1-8.514Z" transform="translate(-246.345 -69.027)" fill="#37474f"/>
        <path id="Trazado_217511" data-name="Trazado 217511" d="M361.02,245.113c-1.429-.861-3.633-4.511-4.64-9.384-2.342-11.329-2.316-29.512-.413-36.4H336.579c1.911,6.887,1.937,25.069-.4,36.4-1.007,4.873-3.211,8.48-4.64,9.384h0c-4.072,2.35-6.1,5.432-6.1,8.514s2.032,6.164,6.1,8.514c8.144,4.7,21.342,4.7,29.486,0,4.063-2.35,6.1-5.432,6.1-8.514S365.083,247.463,361.02,245.113Z" transform="translate(-246.345 -62.199)" fill="#455a64"/>
        <g id="Grupo_149295" data-name="Grupo 149295" transform="translate(82.259 141.246)" opacity="0.15">
          <path id="Trazado_217512" data-name="Trazado 217512" d="M341.146,204.11c0,4.408-.25,36.02-3.1,40.032s-6.087,4.3-8.265,7.748,1.257,8.23,6.431,9.8a6.353,6.353,0,0,1-1.593-3.306s3.444,4.046,11.123,3.306c-6.784-1.154-9.47-6.285-8.032-8.79,1.532-2.643,4.012-3.5,5.415-8.153,1.085-3.59,1.068-40.066,1.068-40.066a18.562,18.562,0,0,1-3.048-.568Z" transform="translate(-329.117 -204.11)" fill="#fff"/>
        </g>
        <g id="Grupo_149296" data-name="Grupo 149296" transform="translate(101.047 141.005)" opacity="0.15">
          <path id="Trazado_217513" data-name="Trazado 217513" d="M353.144,204.562c.25,7.516.413,37.466,2.583,41.073,1.722,2.815,2.772,4.416,3.125,7.55s-2.454,5.837-4.528,6.526a10.331,10.331,0,0,0,5.165-1.92s-1.722,3.53-8.549,5.165c4.6.3,11.932-1,16.013-6.13,3.444-4.348-.146-6.405-3.056-8.092s-4.434-3.194-5.837-7.18c-3.073-8.721-1.722-37.725-1.722-37.725a19.2,19.2,0,0,1-3.194.732Z" transform="translate(-350.94 -203.83)"/>
        </g>
        <g id="Grupo_149297" data-name="Grupo 149297" transform="translate(90.234 137.131)" opacity="0.25">
          <path id="Trazado_217514" data-name="Trazado 217514" d="M356.932,203.523a29.556,29.556,0,0,1,.861-4.193H338.38a27.328,27.328,0,0,1,.861,4.193A20.428,20.428,0,0,0,356.932,203.523Z" transform="translate(-338.38 -199.33)"/>
        </g>
        <path id="Trazado_217515" data-name="Trazado 217515" d="M338.3,200.331c-2.583-1.472-3.822-3.4-3.822-5.329s1.274-3.857,3.822-5.329c5.1-2.944,13.361-2.944,18.458,0,2.583,1.472,3.822,3.4,3.822,5.329s-1.274,3.857-3.822,5.329C351.664,203.275,343.4,203.275,338.3,200.331Z" transform="translate(-247.604 -60.549)" fill="#37474f"/>
        <g id="Grupo_149298" data-name="Grupo 149298" transform="translate(87.763 126.942)" opacity="0.25">
          <path id="Trazado_217516" data-name="Trazado 217516" d="M359.848,192.286A8.7,8.7,0,0,0,356.9,189.7c-5.1-2.944-13.361-2.944-18.458,0a8.738,8.738,0,0,0-2.936,2.583A6.633,6.633,0,0,0,339,196.4c4.8,2.772,12.569,2.772,17.364,0A6.689,6.689,0,0,0,359.848,192.286Z" transform="translate(-335.51 -187.495)"/>
        </g>
        <path id="Trazado_217517" data-name="Trazado 217517" d="M338.979,193.865c-2.4-1.377-3.6-3.194-3.6-5.01s1.2-3.633,3.6-5.01c4.8-2.772,12.569-2.772,17.364,0,2.393,1.377,3.6,3.194,3.6,5.01s-1.205,3.633-3.6,5.01C351.548,196.6,343.774,196.6,338.979,193.865Z" transform="translate(-247.729 -59.756)" fill="#37474f"/>
        <g id="Grupo_149299" data-name="Grupo 149299" transform="translate(88.521 122.044)" opacity="0.25">
          <path id="Trazado_217518" data-name="Trazado 217518" d="M359.212,186.277a8.317,8.317,0,0,0-2.729-2.393c-4.8-2.772-12.569-2.772-17.364,0a8.23,8.23,0,0,0-2.729,2.393,6.25,6.25,0,0,0,3.271,3.891c4.494,2.583,11.777,2.583,16.271,0a6.242,6.242,0,0,0,3.28-3.891Z" transform="translate(-336.39 -181.805)"/>
        </g>
        <path id="Trazado_217519" data-name="Trazado 217519" d="M339.646,187.409c-2.247-1.3-3.366-3-3.366-4.7s1.119-3.4,3.366-4.692c4.494-2.583,11.777-2.583,16.271,0,2.247,1.291,3.375,3,3.375,4.692s-1.128,3.4-3.375,4.7C351.423,190,344.14,190,339.646,187.409Z" transform="translate(-247.854 -58.965)" fill="#37474f"/>
        <g id="Grupo_149300" data-name="Grupo 149300" transform="translate(89.356 117.115)" opacity="0.25">
          <path id="Trazado_217520" data-name="Trazado 217520" d="M358.512,180.1a7.749,7.749,0,0,0-2.445-2.083c-4.494-2.583-11.777-2.583-16.271,0a7.809,7.809,0,0,0-2.436,2.083,6.026,6.026,0,0,0,2.987,3.358,16.778,16.778,0,0,0,15.178,0A6.026,6.026,0,0,0,358.512,180.1Z" transform="translate(-337.36 -176.08)"/>
        </g>
        <g id="Grupo_149301" data-name="Grupo 149301" transform="translate(103.922 122.771)" opacity="0.15">
          <path id="Trazado_217521" data-name="Trazado 217521" d="M359.824,193.446c1.722-1.369.568-4.563-.8-5.493,1.5-1.722.68-4.124-1.145-5.3a13.31,13.31,0,0,1-3.6,1.377c1.825,1.171,2.72,3.805,1.223,5.518,1.369.938,2.54,4.244.783,5.622,1.231,1.042,2.583,3.952.525,5.691a13.835,13.835,0,0,0,3.512-1.722C362.347,197.414,361.064,194.487,359.824,193.446Z" transform="translate(-354.28 -182.65)"/>
        </g>
        <g id="Grupo_149302" data-name="Grupo 149302" transform="translate(88.836 122.771)" opacity="0.15">
          <path id="Trazado_217522" data-name="Trazado 217522" d="M338.309,193.446c-1.722-1.369-.568-4.563.8-5.493-1.489-1.722-.68-4.124,1.154-5.3a13.094,13.094,0,0,0,3.6,1.377c-1.834,1.171-2.72,3.805-1.222,5.518-1.369.938-2.583,4.244-.783,5.622-1.24,1.042-2.583,3.952-.534,5.691a13.636,13.636,0,0,1-3.5-1.722C335.787,197.414,337.078,194.487,338.309,193.446Z" transform="translate(-336.756 -182.65)" fill="#fff"/>
        </g>
        <path id="Trazado_217523" data-name="Trazado 217523" d="M356.824,162.648c-.5-.448-1.894-3.848-2.316-9.117-1.421-17.915-1.412-40.97-1.412-58.481H342.706c0,17.5,0,40.462-1.412,58.429-.422,5.295-1.825,8.73-2.324,9.177a4.58,4.58,0,0,0-1.8,3.444c0,1.593,1.05,3.177,3.151,4.382a16.725,16.725,0,0,0,15.178,0c2.092-1.205,3.142-2.789,3.142-4.382A4.614,4.614,0,0,0,356.824,162.648Z" transform="translate(-247.978 -47.693)" fill="#455a64"/>
        <g id="Grupo_149303" data-name="Grupo 149303" transform="translate(102.624 47.357)" opacity="0.15">
          <path id="Trazado_217524" data-name="Trazado 217524" d="M357.669,163.431c-1.5-2.419-2.583-4.029-3.073-9.961-.43-5.484-.069-56.725,0-58.421h-.766l-.938.293c0,8.247-.542,60.168.689,64.688s4.046,9.039.456,11.812a13.129,13.129,0,0,0,3.6-1.377C359.683,168.037,359.167,165.85,357.669,163.431Z" transform="translate(-352.772 -95.05)"/>
        </g>
        <g id="Grupo_149304" data-name="Grupo 149304" transform="translate(91.017 47.357)" opacity="0.15">
          <path id="Trazado_217525" data-name="Trazado 217525" d="M340.616,163.431c1.5-2.419,2.583-4.029,3.073-9.961.43-5.484.06-56.725,0-58.421h.723l.938.293c0,8.247.542,60.168-.7,64.688s-4.046,9.039-.448,11.812a13.025,13.025,0,0,1-3.6-1.377C338.6,168.037,339.118,165.85,340.616,163.431Z" transform="translate(-339.29 -95.05)" fill="#fff"/>
        </g>
        <g id="Grupo_149305" data-name="Grupo 149305" transform="translate(94.719 47.357)" opacity="0.25">
          <path id="Trazado_217526" data-name="Trazado 217526" d="M343.59,97.925a9,9,0,0,0,10.425,0V95.05H343.6C343.6,96.049,343.59,97,343.59,97.925Z" transform="translate(-343.59 -95.05)"/>
        </g>
        <path id="Trazado_217527" data-name="Trazado 217527" d="M357.248,85.724a9.074,9.074,0,1,1-9.074-9.074,9.074,9.074,0,0,1,9.074,9.074Z" transform="translate(-248.246 -45.134)" fill="#37474f"/>
        <g id="Grupo_149306" data-name="Grupo 149306" transform="translate(90.87 32.997)" opacity="0.15">
          <path id="Trazado_217528" data-name="Trazado 217528" d="M346.085,90.664a6.93,6.93,0,0,1-4.029-4.477,10.168,10.168,0,0,1-.2-4.2,9.472,9.472,0,0,1,.551-2.006,7.862,7.862,0,0,1,.422-.956,2.765,2.765,0,0,1,.4-.654,9.065,9.065,0,1,0,14.024,7.593C356.234,88.839,351.379,92.988,346.085,90.664Z" transform="translate(-339.119 -78.37)"/>
        </g>
        <g id="Grupo_149307" data-name="Grupo 149307" transform="translate(96.328 32.684)" opacity="0.15">
          <path id="Trazado_217529" data-name="Trazado 217529" d="M356.385,85.689c-.861,2.428-1.171-1.093-5.226-3.676-3.306-2.1-7.223-1.662-5.1-3.134,1.722-1.188,4.485-1.205,7.094.215S357.047,83.864,356.385,85.689Z" transform="translate(-345.458 -78.007)" fill="#fff"/>
        </g>
        <path id="Trazado_217530" data-name="Trazado 217530" d="M336.02,73.51h0q-1.791.973-3.512,2.023C320,82.618,306.621,89.858,302.024,97.916a30.132,30.132,0,0,0-3.581,9.763c-3.357,4.3-6.594,8.609-9.788,12.913-2.428,3.3-4.821,6.586-7.292,9.78l-.172.129c-.164.095-.25.172-.224.232s0,.172-.172.1a2.849,2.849,0,0,1-.93-1.722,9.71,9.71,0,0,1-.327-2.643,8.118,8.118,0,0,1,.422-2.755h0a.336.336,0,0,0-.069-.327.319.319,0,0,0-.448,0,7.7,7.7,0,0,0-1.834,2.686,11.536,11.536,0,0,0-.861,3.228,6.776,6.776,0,0,0,.646,3.934,4.357,4.357,0,0,0,.861,1.068c-1.679,2.049-3.444,4.029-5.226,5.863A39.747,39.747,0,0,1,267,145.335c-2.118,1.584-3.685,1.791-4.657,1.042a3.779,3.779,0,0,1-1.1-2.213,11.191,11.191,0,0,1-.086-3.5,16.882,16.882,0,0,1,.861-3.65,15.572,15.572,0,0,1,1.636-3.357,8.876,8.876,0,0,1,2.367-2.488,4.081,4.081,0,0,1,1.266-.56,1.584,1.584,0,0,1,.956.095,1.472,1.472,0,0,1,.68.775,4.373,4.373,0,0,1,.344,1.558,9.848,9.848,0,0,1-.517,3.642,8.961,8.961,0,0,1-1.782,3.263,4.08,4.08,0,0,1-1.317.99,1.291,1.291,0,0,1-1.171,0l-.077-.052a.9.9,0,0,0-1.154.215.861.861,0,0,0,.155,1.257,2.875,2.875,0,0,0,1.42.6,3.572,3.572,0,0,0,1.464-.121,6.069,6.069,0,0,0,2.213-1.3,11.3,11.3,0,0,0,2.7-3.9,12.138,12.138,0,0,0,1.068-4.649,7.653,7.653,0,0,0-.379-2.583,5.062,5.062,0,0,0-.689-1.36A4.244,4.244,0,0,0,270,127.9a4.856,4.856,0,0,0-3.134-.74,7.085,7.085,0,0,0-2.712.861,12.44,12.44,0,0,0-3.745,3.332,20.042,20.042,0,0,0-2.385,4.115,20.971,20.971,0,0,0-1.4,4.528,15.651,15.651,0,0,0-.2,4.976,10.434,10.434,0,0,0,.732,2.686,7.6,7.6,0,0,0,1.816,2.583,7.5,7.5,0,0,0,6.026,1.8,9.987,9.987,0,0,0,2.763-.775,11.19,11.19,0,0,0,1.205-.585l1.007-.594c5.32-3.237,9.47-7.541,13.318-11.846q2.075-2.359,4.063-4.752a6.62,6.62,0,0,0,1.4-1.446,10.237,10.237,0,0,0,.93-1.438c5.165-6.345,10.029-12.784,15.186-18.94,7.189-8.54,14.756-16.693,23.416-23.3a90.58,90.58,0,0,1,7.748-5.295V73.51h0Zm-34.729,30.553c.181-1.214.9-3.444,3.444-6.7,3.908-4.985,9.823-9,13.551-11.192a150.935,150.935,0,0,0-16.994,17.889Z" transform="translate(-236.73 -44.697)" fill="#455a64"/>
        <path id="Trazado_217531" data-name="Trazado 217531" d="M427.378,43.364A6.887,6.887,0,0,0,425.295,41a5.329,5.329,0,0,0-3.444-.947,6.99,6.99,0,0,0-2.91.93,10.812,10.812,0,0,0-2.144,1.6,15.367,15.367,0,0,0-2.858,3.969,14.55,14.55,0,0,0-1.5,4.64,9.014,9.014,0,0,0,.637,5.165,4.21,4.21,0,0,0,2.522,2.264,3.779,3.779,0,0,0,1.825.06,5.07,5.07,0,0,0,1.412-.62,5.975,5.975,0,0,0,1.834-1.86A7.224,7.224,0,0,0,421.619,54a.775.775,0,0,0-1.317-.715h0a8.7,8.7,0,0,1-2.875,2.221,1.644,1.644,0,0,1-.568.129.594.594,0,0,1-.275-.06,1.929,1.929,0,0,1-.439-.62,5.862,5.862,0,0,1-.086-3.142,10.761,10.761,0,0,1,1.326-3.349,11.192,11.192,0,0,1,2.264-2.781,4.063,4.063,0,0,1,2.419-1.188.792.792,0,0,1,.542.207,2.523,2.523,0,0,1,.62.861,7.111,7.111,0,0,1,.482,3.048,15.728,15.728,0,0,1-2.023,6.887,17.639,17.639,0,0,1-4.623,5.553,9.557,9.557,0,0,1-1.386.861,16.524,16.524,0,0,1-1.722.8A20.723,20.723,0,0,1,410.47,63.8a22.487,22.487,0,0,1-3.444.439,14.184,14.184,0,0,0,.577-1.722,13.164,13.164,0,0,0,.37-3.306A10.769,10.769,0,0,0,407.44,56a5.925,5.925,0,0,0-.74-1.5,2.1,2.1,0,0,0-1.507-1.016.284.284,0,0,0-.267.129.293.293,0,0,0,.069.422l.078.06a1.326,1.326,0,0,1,.422.947,4.59,4.59,0,0,1,0,1.24,9.055,9.055,0,0,1-.62,2.471,9.968,9.968,0,0,1-1.128,2.2,8.678,8.678,0,0,1-1.464,1.765,5.321,5.321,0,0,1-1.868,1.024,3.163,3.163,0,0,0-.3.129c-4.236-.56-8.7-1.558-13.37-2.161-.232-2.712-1.119-6.13-3.908-7.791-5.01-2.961-20.412,7.025-33.756,14.747l-.25.129v9.651a61.641,61.641,0,0,1,20.877-8.48,56.156,56.156,0,0,1,15.789-.534c5.406.482,10.985,1.627,17.14,1.808a31.543,31.543,0,0,0,9.461-1.1,27.791,27.791,0,0,0,4.511-1.722c.715-.353,1.42-.74,2.092-1.145a15.581,15.581,0,0,0,2.126-1.515,23.245,23.245,0,0,0,5.751-7.748,20.842,20.842,0,0,0,2.092-9.392,11.51,11.51,0,0,0-1.291-5.251Zm-43.742,17c-4.434-.663-14.437,0-20.085,2.54l-.215.06c1.429-.921,11.192-7.068,16.831-6.371C384.2,57.086,383.636,60.366,383.636,60.366Z" transform="translate(-249.6 -40.042)" fill="#455a64"/>
        <path id="Trazado_217532" data-name="Trazado 217532" d="M347.338,41.2C342,44.284,337.67,52.558,337.67,59.7s4.3,12.913,9.668,9.84,9.694-13.895,9.694-21.015S352.7,38.112,347.338,41.2Zm0,3.607c3.865-2.23,6.982.129,6.982,5.277a17.753,17.753,0,0,1-.379,3.521c-.448-4.072-3.246-5.751-6.6-3.814s-6.112,6.827-6.586,11.4a13.068,13.068,0,0,1-.379-3.048c0-5.148,3.125-11.114,6.965-13.335Z" transform="translate(-248.048 -40.042)" fill="#455a64"/>
        <path id="Trazado_217533" data-name="Trazado 217533" d="M348.433,56.57l3.048,3-3.082,6.9-3.039-3.409Z" transform="translate(-249.117 -42.341)" fill="#f67409"/>
        <path id="Trazado_217534" data-name="Trazado 217534" d="M350.192,62.43l-.973,2.023L349.09,58.9l1.128,1.179A2.264,2.264,0,0,1,350.192,62.43Z" transform="translate(-249.636 -42.665)" fill="#fff" opacity="0.6"/>
      </g>
    </g>
    <g id="freepik--Mullet--inject-5" transform="translate(375.614 170.719)">
      <g id="freepik--mullet--inject-5-2" data-name="freepik--mullet--inject-5">
        <g id="freepik--base--inject-5-2" data-name="freepik--base--inject-5" transform="translate(2.789 35.32)">
          <path id="Trazado_217535" data-name="Trazado 217535" d="M403.446,364.324c-19.37-11.192-50.793-11.192-70.146,0-9.685,5.587-14.5,12.913-14.48,20.248v7.585c0,7.326,4.8,14.635,14.48,20.248,19.37,11.192,50.793,11.192,70.146,0,9.694-5.6,14.5-12.913,14.48-20.248v-7.584C417.978,377.237,413.14,369.911,403.446,364.324Z" transform="translate(-318.768 -353.287)" fill="#37474f"/>
          <ellipse id="Elipse_7175" data-name="Elipse 7175" cx="49.605" cy="28.642" rx="49.605" ry="28.642" transform="translate(0 2.643)" fill="#455a64"/>
          <path id="Trazado_217536" data-name="Trazado 217536" d="M397.01,359.257c-14.764-8.523-38.7-8.523-53.453,0-7.386,4.261-11.054,9.849-11.037,15.427v5.028c0,5.587,3.65,11.192,11.037,15.436,14.756,8.523,38.689,8.523,53.453,0,7.378-4.3,11.045-9.849,11.037-15.436v-5.028C408.055,369.106,404.388,363.519,397.01,359.257Z" transform="translate(-320.674 -352.861)" fill="#37474f"/>
          <ellipse id="Elipse_7176" data-name="Elipse 7176" cx="37.802" cy="21.824" rx="37.802" ry="21.824" transform="translate(11.803)" fill="#455a64"/>
        </g>
        <g id="freepik--mullet--inject-5-3" data-name="freepik--mullet--inject-5">
          <g id="freepik--Mallet--inject-5">
            <path id="Trazado_217537" data-name="Trazado 217537" d="M399.529,314.508c-8.351-4.821-15.5-2.9-18.285,3.969-.542,1.317-2.583,6.328-3.108,7.559a15.617,15.617,0,0,0-1.016,5.845c0,10.047,7.059,22.263,15.754,27.282a15.651,15.651,0,0,0,5.587,2.049l8.041,1.076c7.378,1.024,12.621-4.193,12.621-13.852C419.123,335.944,410.35,320.758,399.529,314.508Z" transform="translate(-324.088 -311.834)" fill="#37474f"/>
            <path id="Trazado_217538" data-name="Trazado 217538" d="M392.874,324.2c-8.7-5.019-15.754-.947-15.754,9.1s7.059,22.263,15.754,27.282,15.754.947,15.754-9.091S401.578,329.23,392.874,324.2Z" transform="translate(-324.089 -313.255)" fill="#263238"/>
            <path id="Trazado_217539" data-name="Trazado 217539" d="M366.837,325.912c3.065-1.722,7.275-1.5,11.941,1.188,9.358,5.406,16.986,18.535,16.986,29.357,0,5.406-1.9,9.186-4.967,10.951l-29.469,17.166c-3.065,1.782-7.292,1.532-11.975-1.171-9.358-5.4-16.942-18.544-16.942-29.357,0-5.4,1.9-9.186,4.967-10.951C338.428,342.51,365.8,326.506,366.837,325.912Z" transform="translate(-317.869 -313.639)" fill="#f67409"/>
            <path id="Trazado_217540" data-name="Trazado 217540" d="M366.837,325.912c3.065-1.722,7.275-1.5,11.941,1.188,9.358,5.406,16.986,18.535,16.986,29.357,0,5.406-1.9,9.186-4.967,10.951l-29.469,17.166c-3.065,1.782-7.292,1.532-11.975-1.171-9.358-5.4-16.942-18.544-16.942-29.357,0-5.4,1.9-9.186,4.967-10.951C338.428,342.51,365.8,326.506,366.837,325.912Z" transform="translate(-317.869 -313.639)" fill="#fff" opacity="0.3"/>
            <path id="Trazado_217541" data-name="Trazado 217541" d="M342.43,379.384,394.945,348.9a30.941,30.941,0,0,1,2.213,10.908c0,5.406-1.9,9.186-4.967,10.951l-29.469,17.166c-3.065,1.782-7.292,1.532-11.975-1.171a30.828,30.828,0,0,1-8.316-7.369Z" transform="translate(-319.263 -316.99)" fill="#f67409" opacity="0.45"/>
            <path id="Trazado_217542" data-name="Trazado 217542" d="M349.382,347.026c-9.358-5.406-16.942-1.024-16.942,9.78s7.585,23.959,16.942,29.357,16.951,1.024,16.951-9.78S358.749,352.424,349.382,347.026Z" transform="translate(-317.874 -316.407)" fill="#263238"/>
            <path id="Trazado_217543" data-name="Trazado 217543" d="M357.756,379.7c0-10.038-7.051-22.254-15.754-27.282a15.221,15.221,0,0,0-5.957-2.092c-.069,0-6.7-.758-8.127-.93-7.257-.861-12.4,4.3-12.4,13.886,0,12.492,8.773,27.678,19.594,33.928,8.239,4.761,15.29,2.944,18.182-3.71.585-1.352,2.781-6.422,3.314-7.636a15.263,15.263,0,0,0,1.145-6.164Z" transform="translate(-315.52 -317.046)" fill="#37474f"/>
            <path id="Trazado_217544" data-name="Trazado 217544" d="M335.114,351.968c-10.821-6.25-19.594-1.179-19.594,11.312s8.773,27.678,19.594,33.928,19.56,1.179,19.56-11.312S345.927,358.209,335.114,351.968Z" transform="translate(-315.52 -317.044)" fill="#455a64"/>
            <path id="Trazado_217545" data-name="Trazado 217545" d="M315.52,365.54a38.043,38.043,0,0,0,4.115,16.882,44.474,44.474,0,0,0,10.546,13.947,28.651,28.651,0,0,0,7.438,4.709,13.715,13.715,0,0,0,2.092.74l1.076.293c.362.077.732.121,1.1.181a11.872,11.872,0,0,0,4.442-.138,10.408,10.408,0,0,0,3.995-1.971c.275-.241.534-.517.8-.775l.4-.4.327-.448.663-.861.517-.973a17.777,17.777,0,0,0,1.67-8.54l-.155,2.178-.344,2.144c-.207.7-.362,1.4-.6,2.083l-.413,1a4.982,4.982,0,0,1-.215.491l-.267.465-.525.938-.663.861-.327.422-.387.37c-.258.241-.508.5-.775.723a9.943,9.943,0,0,1-3.822,1.722,14.248,14.248,0,0,1-8.316-1.136,28.169,28.169,0,0,1-7.214-4.649,45.2,45.2,0,0,1-10.512-13.628,43.9,43.9,0,0,1-3.2-8.058,34.376,34.376,0,0,1-1.438-8.575Z" transform="translate(-315.52 -319.304)" fill="#37474f"/>
          </g>
          <path id="Trazado_217546" data-name="Trazado 217546" d="M382.975,375.856a8.5,8.5,0,0,1,5.294-5.579,2.72,2.72,0,0,1,2.695.362h0l15.453,14.635h0a2.7,2.7,0,0,1,.508,2.669,8.488,8.488,0,0,1-5.295,5.587,2.7,2.7,0,0,1-2.7-.379h0l-15.445-14.635h0A2.686,2.686,0,0,1,382.975,375.856Z" transform="translate(-324.882 -319.935)" fill="#37474f"/>
          <path id="Trazado_217547" data-name="Trazado 217547" d="M383.52,379.058a2.686,2.686,0,0,1-.525-2.695,7.4,7.4,0,0,1,1.317-2.643l19.913,18.888a7.282,7.282,0,0,1-2.583,1.446,2.7,2.7,0,0,1-2.7-.379L383.494,379.04Z" transform="translate(-324.884 -320.442)" fill="#263238"/>
          <path id="Trazado_217548" data-name="Trazado 217548" d="M452.259,424.265h0l-40.652-35.839h-.043a3.538,3.538,0,0,0-3.444-.448,11.071,11.071,0,0,0-6.887,7.266,3.513,3.513,0,0,0,.68,3.5l37.69,39.076h0a9.263,9.263,0,1,0,12.681-13.5Z" transform="translate(-327.421 -322.39)" fill="#f67409"/>
          <path id="Trazado_217549" data-name="Trazado 217549" d="M452.407,424.848A4.5,4.5,0,0,1,448,432.234a4.579,4.579,0,0,1-1.894-.981h0L404.051,390.92a10.434,10.434,0,0,0-2.867,4.735,3.513,3.513,0,0,0,.68,3.5l37.69,39.076h0a9.276,9.276,0,1,0,12.87-13.361Z" transform="translate(-327.414 -322.835)" opacity="0.2"/>
        </g>
      </g>
    </g>
  </g>
</svg>
