<svg xmlns="http://www.w3.org/2000/svg" width="114.631" height="112.763" viewBox="0 0 114.631 112.763">
  <g id="prima" transform="translate(-3.006 -4.799)">
    <g id="FILLED_OUTLINE" transform="translate(3.006 4.799)">
      <path id="Trazado_218604" data-name="Trazado 218604" d="M61.32,12,40.8,81.022l26.117,5.6L85.571,17.6Z" transform="translate(-11.424 -6.403)" fill="#8a92ff"/>
      <path id="Trazado_218605" data-name="Trazado 218605" d="M68.117,24.171,50.4,78.137,63.458,80,78.5,26.627Z" transform="translate(-13.562 -9.114)" fill="#8a92ff"/>
      <circle id="Elipse_7203" data-name="Elipse 7203" cx="5.596" cy="5.596" r="5.596" transform="translate(48.031 33.579)" fill="#8a92ff"/>
      <path id="Trazado_218606" data-name="Trazado 218606" d="M63,81.522,47.182,7.2,19.2,12.8,36.94,90.207Z" transform="translate(-6.613 -5.334)" fill="#8a92ff"/>
      <path id="Trazado_218607" data-name="Trazado 218607" d="M44.258,19.2,31.2,21.065l14.924,59.7,9.327-9.327Z" transform="translate(-9.285 -8.007)" fill="#8a92ff"/>
      <path id="Trazado_218608" data-name="Trazado 218608" d="M101.134,85.056l25.5-68.529L94.92,7.2,74.4,78.088Z" transform="translate(-18.907 -5.334)" fill="#8a92ff"/>
      <path id="Trazado_218609" data-name="Trazado 218609" d="M103.189,21.6,86.4,79.43l11.193,3.731,20.52-57.83Z" transform="translate(-21.58 -8.541)" fill="#8a92ff"/>
      <path id="Trazado_218610" data-name="Trazado 218610" d="M55,72.6h0a4.236,4.236,0,0,0-6.129.146L31.049,92.378,27.178,75.487l-4.849,4.849a7.462,7.462,0,0,0-2.186,5.276v18.323a7.462,7.462,0,0,1-1.885,4.957L5.22,123.562l18.655,7.462L31.336,116.1l2.819-1.057a18.655,18.655,0,0,0,12.1-17.467V91.849l9.267-13.9A4.236,4.236,0,0,0,55,72.6Z" transform="translate(-3.499 -19.625)" fill="#ffcbb1"/>
      <path id="Trazado_218611" data-name="Trazado 218611" d="M121.562,108.893a7.462,7.462,0,0,1-1.885-4.957V85.613a7.462,7.462,0,0,0-2.186-5.276l-5.276-5.276-5.6,14.924L90.953,72.75a4.236,4.236,0,0,0-6.129-.146h0a4.236,4.236,0,0,0-.529,5.345l9.267,13.9v5.727a18.655,18.655,0,0,0,12.1,17.467l2.819,1.057,7.462,14.924,18.655-7.462Z" transform="translate(-20.952 -19.625)" fill="#ffcbb1"/>
      <path id="Trazado_218612" data-name="Trazado 218612" d="M85.048,135.175H58.931a3.731,3.731,0,0,1-3.731-3.731V105.327a3.731,3.731,0,0,1,3.731-3.731h7.462l5.6-5.6,5.6,5.6h7.462a3.731,3.731,0,0,1,3.731,3.731v26.117A3.731,3.731,0,0,1,85.048,135.175Z" transform="translate(-14.631 -25.112)" fill="#54aa13"/>
      <path id="Trazado_218613" data-name="Trazado 218613" d="M128.294,121.366a7.478,7.478,0,0,1,5.072-5.072.308.308,0,0,0,0-.595,7.478,7.478,0,0,1-5.072-5.072.308.308,0,0,0-.595,0,7.478,7.478,0,0,1-5.072,5.072.308.308,0,0,0,0,.595,7.478,7.478,0,0,1,5.072,5.072.308.308,0,0,0,.595,0Z" transform="translate(-29.598 -28.319)" fill="#f67409"/>
      <circle id="Elipse_7204" data-name="Elipse 7204" cx="5.596" cy="5.596" r="5.596" transform="translate(27.511 29.848)" fill="#8a92ff"/>
      <circle id="Elipse_7205" data-name="Elipse 7205" cx="3.731" cy="3.731" r="3.731" transform="translate(103.995 39.175)" fill="#f67409"/>
      <path id="Trazado_218614" data-name="Trazado 218614" d="M64.8,115.2H83.455v16.789H64.8Z" transform="translate(-16.769 -29.388)" fill="#ffe8de"/>
      <path id="Trazado_218615" data-name="Trazado 218615" d="M64.8,115.2H83.455v7.462H64.8Z" transform="translate(-16.769 -29.388)" fill="#8bb276"/>
      <path id="Trazado_218616" data-name="Trazado 218616" d="M67.2,110.4h3.731v3.731H67.2Z" transform="translate(-17.303 -28.319)" fill="#ffe8de"/>
      <path id="Trazado_218617" data-name="Trazado 218617" d="M81.6,110.4h3.731v3.731H81.6Z" transform="translate(-20.511 -28.319)" fill="#ffe8de"/>
      <path id="Trazado_218618" data-name="Trazado 218618" d="M9.827,61.094A7.478,7.478,0,0,1,14.9,66.166a.308.308,0,0,0,.595,0,7.478,7.478,0,0,1,5.072-5.072.308.308,0,0,0,0-.595,7.478,7.478,0,0,1-5.072-5.072.308.308,0,0,0-.595,0A7.478,7.478,0,0,1,9.827,60.5a.308.308,0,0,0,0,.595Z" transform="translate(-4.475 -16.025)" fill="#f67409"/>
      <g id="Grupo_149387" data-name="Grupo 149387" transform="translate(74.864 19.896)">
        <circle id="Elipse_7206" data-name="Elipse 7206" cx="5.596" cy="5.596" r="5.596" transform="translate(1.149 11.818)" fill="#8a92ff"/>
        <path id="Trazado_218619" data-name="Trazado 218619" d="M0,0H4.824V3.732H0Z" transform="matrix(0.316, -0.949, 0.949, 0.316, 0, 31.712)" fill="#8a92ff"/>
        <path id="Trazado_218620" data-name="Trazado 218620" d="M0,0H8.127V3.732H0Z" transform="matrix(0.316, -0.949, 0.949, 0.316, 7.992, 7.711)" fill="#8a92ff"/>
      </g>
      <path id="Trazado_218621" data-name="Trazado 218621" d="M90.867,100.058,88.048,99a16.716,16.716,0,0,1-9.029-8.038V85.015a5.584,5.584,0,0,0-1.866-4.168V77.553a1.865,1.865,0,0,0-.313-1.035l-9.267-13.9A2.37,2.37,0,0,1,71.3,59.709L86.966,76.942a1.865,1.865,0,0,0,3.127-.6l4.579-12.211L97.9,67.359a5.56,5.56,0,0,1,1.639,3.957v8.1h3.731v-8.1a9.266,9.266,0,0,0-2.732-6.6l-4.427-4.427,16.368-43.647a1.865,1.865,0,0,0-1.22-2.445L79.546,4.876a1.865,1.865,0,0,0-2.318,1.271L75.07,13.6,53.322,8.578A1.866,1.866,0,0,0,51.116,9.86l-2.886,9.621L45.4,6.274a1.865,1.865,0,0,0-2.19-1.438l-27.982,5.6a1.865,1.865,0,0,0-1.452,2.249L21.89,47.843a1.858,1.858,0,0,0-.7-.137,5.6,5.6,0,0,1-5.6-5.6,1.865,1.865,0,0,0-3.731,0,5.6,5.6,0,0,1-5.6,5.6,1.865,1.865,0,1,0,0,3.731,5.6,5.6,0,0,1,5.6,5.6,1.865,1.865,0,0,0,3.731,0,5.6,5.6,0,0,1,5.6-5.6,1.859,1.859,0,0,0,1.387-.621l2.16,9.36-4.545,4.545a9.266,9.266,0,0,0-2.732,6.6V89.64a5.59,5.59,0,0,1-1.414,3.718L3.006,108.027l2.789,2.479L18.834,95.837a9.317,9.317,0,0,0,2.356-6.2V71.317a5.56,5.56,0,0,1,1.639-3.957l3.228-3.228,4.579,12.211a1.865,1.865,0,0,0,3.127.6L49.429,59.709a2.37,2.37,0,0,1,3.726,2.909l-9.267,13.9a1.865,1.865,0,0,0-.313,1.035v3.3a5.583,5.583,0,0,0-1.865,4.167v5.947A16.716,16.716,0,0,1,32.681,99l-2.819,1.057a1.865,1.865,0,0,0-1.013.912l-7.462,14.924,3.337,1.668,7.134-14.268,2.133-.8a20.457,20.457,0,0,0,7.719-5.129v13.767a5.6,5.6,0,0,0,5.6,5.6H73.423a5.6,5.6,0,0,0,5.6-5.6V97.365a20.457,20.457,0,0,0,7.719,5.129l2.133.8,7.134,14.268,3.337-1.668L91.881,100.97a1.865,1.865,0,0,0-1.013-.912ZM13.728,51.442a9.406,9.406,0,0,0-1.871-1.871A9.406,9.406,0,0,0,13.728,47.7,9.406,9.406,0,0,0,15.6,49.571a9.406,9.406,0,0,0-1.871,1.871Zm59.7,26.676v1.3H66.734l-5.05-5.05a1.872,1.872,0,0,0-.259-.214l2.839-9.807c.066.114.132.229.206.34ZM80.29,8.984l27.991,8.233L92.2,60.109,87.672,72.173l-3.028-3.331,4.9-13.721-3.514-1.255L81.8,65.713l-7.035-7.738L76.8,51.059l-3.58-1.052-1.63,5.545a6.121,6.121,0,0,0-1.9-.347,6.018,6.018,0,0,0-2.98.691ZM51.038,55.2a6.08,6.08,0,0,0-2.5.6L47.03,48.848l-3.646.792,1.96,9.015-6.511,7.162L35.172,51.171l-3.62.9,4.265,17.061-2.76,3.037L28.576,60.224,17.843,13.714,42.137,8.855l9.946,46.413a6.21,6.21,0,0,0-1.044-.065Zm2.139-12.631a3.735,3.735,0,1,1,.877,4.092ZM56.26,64.688a6.117,6.117,0,0,0,.329-6.2L55.04,51.263a7.462,7.462,0,1,0-2.845-13.278L49.852,27.056l4.335-14.448,19.845,4.579L57.694,73.624l-6.523-1.3Zm-8.953,13.43,1.627-2.441,7.336,1.467L54,79.419H47.306Zm27.982,33.014A1.868,1.868,0,0,1,73.423,113H47.306a1.868,1.868,0,0,1-1.865-1.865V85.015a1.868,1.868,0,0,1,1.865-1.865h7.462a1.865,1.865,0,0,0,1.319-.546l4.277-4.277L64.642,82.6a1.865,1.865,0,0,0,1.319.546h7.462a1.868,1.868,0,0,1,1.865,1.865Z" transform="translate(-3.006 -4.799)"/>
      <path id="Trazado_218622" data-name="Trazado 218622" d="M0,0H3.729V14.032H0Z" transform="matrix(0.747, -0.664, 0.664, 0.747, 102.521, 95.211)"/>
      <path id="Trazado_218623" data-name="Trazado 218623" d="M107.674,23.309l11.19,2.8L114.724,37.7l3.514,1.255,4.832-13.53a1.865,1.865,0,0,0-1.3-2.437l-14.924-3.731a1.866,1.866,0,0,0-2.242,1.284l-3.83,13.027,3.58,1.052Z" transform="translate(-24.78 -8.007)"/>
      <path id="Trazado_218624" data-name="Trazado 218624" d="M105.862,58.124A7.462,7.462,0,1,0,98.4,50.662,7.462,7.462,0,0,0,105.862,58.124Zm0-11.193a3.731,3.731,0,1,1-3.731,3.731A3.731,3.731,0,0,1,105.862,46.931Z" transform="translate(-24.252 -13.352)"/>
      <path id="Trazado_218625" data-name="Trazado 218625" d="M0,0H4.824V3.732H0Z" transform="matrix(0.316, -0.949, 0.949, 0.316, 74.864, 51.608)"/>
      <path id="Trazado_218626" data-name="Trazado 218626" d="M0,0H8.127V3.732H0Z" transform="matrix(0.316, -0.949, 0.949, 0.316, 82.856, 27.606)"/>
      <path id="Trazado_218627" data-name="Trazado 218627" d="M136.255,114.927a1.865,1.865,0,0,0-1.866-1.865,5.6,5.6,0,0,1-5.6-5.6,1.865,1.865,0,1,0-3.731,0,5.6,5.6,0,0,1-5.6,5.6,1.865,1.865,0,1,0,0,3.731,5.6,5.6,0,0,1,5.6,5.6,1.865,1.865,0,1,0,3.731,0,5.6,5.6,0,0,1,5.6-5.6,1.865,1.865,0,0,0,1.865-1.866Zm-9.327,1.871a9.406,9.406,0,0,0-1.871-1.871,9.406,9.406,0,0,0,1.871-1.871,9.407,9.407,0,0,0,1.871,1.871,9.406,9.406,0,0,0-1.871,1.871Z" transform="translate(-28.529 -27.25)"/>
      <path id="Trazado_218628" data-name="Trazado 218628" d="M84.149,26.6a1.866,1.866,0,0,0-1.367-2.318L72.4,21.821a1.866,1.866,0,0,0-2.208,1.252l-2.5,7.881,3.557,1.126,1.973-6.23,6.807,1.61L78.314,33.6,81.907,34.6Z" transform="translate(-17.414 -8.579)"/>
      <path id="Trazado_218629" data-name="Trazado 218629" d="M32.977,22.085l9.293-1.327,1.963,9.031L47.879,29,45.547,18.269a1.865,1.865,0,0,0-2.087-1.45L30.4,18.684a1.866,1.866,0,0,0-1.546,2.3L31.7,32.354l3.62-.9Z" transform="translate(-8.751 -7.472)"/>
      <path id="Trazado_218630" data-name="Trazado 218630" d="M43.462,40.8a7.462,7.462,0,1,0,7.462,7.462A7.462,7.462,0,0,0,43.462,40.8Zm0,11.193a3.731,3.731,0,1,1,3.731-3.731,3.731,3.731,0,0,1-3.731,3.731Z" transform="translate(-10.355 -12.817)"/>
      <path id="Trazado_218631" data-name="Trazado 218631" d="M134.4,58.4a5.6,5.6,0,1,0,5.6-5.6A5.6,5.6,0,0,0,134.4,58.4Zm7.462,0A1.865,1.865,0,1,1,140,56.531,1.865,1.865,0,0,1,141.862,58.4Z" transform="translate(-32.27 -15.49)"/>
      <path id="Trazado_218632" data-name="Trazado 218632" d="M82.92,112.265H81.055V110.4H77.324v1.865H69.862V110.4H66.131v1.865H64.265a1.865,1.865,0,0,0-1.865,1.866V130.92a1.865,1.865,0,0,0,1.866,1.865H82.92a1.865,1.865,0,0,0,1.865-1.866V114.131a1.865,1.865,0,0,0-1.866-1.865Zm-1.865,16.789H66.131v-5.6H81.055Zm0-9.327H66.131V116H81.055Z" transform="translate(-16.234 -28.319)"/>
    </g>
  </g>
</svg>
