<svg xmlns="http://www.w3.org/2000/svg" width="106.105" height="125.8" viewBox="0 0 106.105 125.8">
  <g id="avatar" transform="translate(-0.15 0)">
    <path id="Trazado_218633" data-name="Trazado 218633" d="M45.687,76.8H77.2v31.513H45.687Zm0,0" transform="translate(-8.242 -13.9)" fill="#ecbd83"/>
    <path id="Trazado_218634" data-name="Trazado 218634" d="M97.243,110.187l-18.029-6.933-25.6,5.908-25.6-5.908L9.976,110.187A11.819,11.819,0,0,0,2.4,121.217v21.428H104.819V121.217a11.819,11.819,0,0,0-7.576-11.03Zm0,0" transform="translate(-0.407 -18.688)" fill="#8a92ff"/>
    <path id="Trazado_218635" data-name="Trazado 218635" d="M45.687,88.292a31.245,31.245,0,0,0,31.514,0V76.8H45.687Zm0,0" transform="translate(-8.242 -13.9)" fill="#e2a975"/>
    <path id="Trazado_218636" data-name="Trazado 218636" d="M85.1,36.81a5.861,5.861,0,0,0-1.969.362V19.084H31.922V37.172a5.909,5.909,0,1,0,0,11.094V50.6a25.6,25.6,0,0,0,51.209,0V48.266A5.9,5.9,0,1,0,85.1,36.81Zm0,0" transform="translate(-4.324 -3.454)" fill="#f6d190"/>
    <path id="Trazado_218637" data-name="Trazado 218637" d="M83.131,19.084H31.922V37.172a5.46,5.46,0,0,0-5.166.683,5.844,5.844,0,0,0,5.167,10.411V50.6A25.438,25.438,0,0,0,61.466,75.868,25.589,25.589,0,0,1,39.8,50.6V41.523A7.706,7.706,0,0,1,41.23,37a22.373,22.373,0,0,0,2.455-4.4,1.958,1.958,0,0,1,2.542-1.086,42.267,42.267,0,0,0,15.933,3.27A37.24,37.24,0,0,0,80.024,30.2a5.875,5.875,0,0,0,2.783-3.321c.107-.053.324-7.791.324-7.791Zm0,0" transform="translate(-4.325 -3.454)" fill="#ecbd83"/>
    <path id="Trazado_218638" data-name="Trazado 218638" d="M95.547,34.634a5.892,5.892,0,0,0-1.587.217,6.094,6.094,0,0,1-6.694-2.816c-5.5-8.956-5.505-24.975-5.505-24.975h5.909a9.847,9.847,0,0,1,9.847,9.848V35a5.852,5.852,0,0,0-1.969-.362Zm0,0" transform="translate(-14.77 -1.278)" fill="#966a5b"/>
    <path id="Trazado_218639" data-name="Trazado 218639" d="M55.186,62.371a1.98,1.98,0,0,0-1.919,2.465,9.851,9.851,0,0,0,19.074,0,1.98,1.98,0,0,0-1.919-2.465Zm0,0" transform="translate(-9.602 -11.288)" fill="#fff"/>
    <path id="Trazado_218640" data-name="Trazado 218640" d="M49.42,148.738H35.633a1.97,1.97,0,0,1-1.969-1.969V138.89a1.97,1.97,0,0,1,1.969-1.969H49.42a1.97,1.97,0,0,1,1.969,1.969v7.879A1.97,1.97,0,0,1,49.42,148.738Zm0,0" transform="translate(-6.066 -24.781)" fill="#ffe09f"/>
    <path id="Trazado_218641" data-name="Trazado 218641" d="M30.823,34.634a5.892,5.892,0,0,1,1.587.217c2.558.717,4.694-1.211,6.085-3.474C44,22.421,44.61,7.059,44.61,7.059H38.7a9.847,9.847,0,0,0-9.847,9.848V35a5.852,5.852,0,0,1,1.969-.362Zm0,0" transform="translate(-5.195 -1.278)" fill="#785353"/>
    <path id="Trazado_218642" data-name="Trazado 218642" d="M73.5,2.25H49.327a5.978,5.978,0,0,0-6.045,5.908l.225,4.609A9.8,9.8,0,0,0,49.769,21.4c8.046,3.151,23.171,6.5,38.914-3.378a3.932,3.932,0,0,0,1.557-4.872A18.138,18.138,0,0,0,73.5,2.25Zm0,0" transform="translate(-7.806 -0.407)" fill="#966a5b"/>
    <path id="Trazado_218643" data-name="Trazado 218643" d="M4.4,117.177a11.79,11.79,0,0,0-2,6.56v21.428H20.126v-11.9a7.879,7.879,0,0,0-3.042-6.219Zm0,0" transform="translate(-0.407 -21.208)" fill="#fff"/>
    <path id="Trazado_218644" data-name="Trazado 218644" d="M121.534,117.177a11.79,11.79,0,0,1,2,6.56v21.428H105.809v-11.9a7.879,7.879,0,0,1,3.042-6.219Zm0,0" transform="translate(-19.123 -21.208)" fill="#fff"/>
    <path id="Trazado_218645" data-name="Trazado 218645" d="M49.42,150.044H35.633a1.97,1.97,0,0,1-1.969-1.969v-3.939H51.389v3.939a1.97,1.97,0,0,1-1.969,1.969Zm0,0" transform="translate(-6.066 -26.087)" fill="#f6d190"/>
    <path id="Trazado_218646" data-name="Trazado 218646" d="M38.428,95.322l-4.765,6.354,12.971,12.97a3.939,3.939,0,0,0,5.571,0l7.063-7.062L41.133,94.89a1.969,1.969,0,0,0-2.7.432Zm0,0" transform="translate(-6.066 -17.11)" fill="#fff"/>
    <path id="Trazado_218647" data-name="Trazado 218647" d="M85.765,95.322a1.969,1.969,0,0,0-2.7-.432L64.926,107.584l7.062,7.062a3.939,3.939,0,0,0,5.571,0l12.971-12.97Zm0,0" transform="translate(-11.724 -17.11)" fill="#fff"/>
    <path id="Trazado_218648" data-name="Trazado 218648" d="M50.09,51.348A1.843,1.843,0,0,0,51.933,49.5V47.535a1.843,1.843,0,0,0-3.686,0V49.5A1.843,1.843,0,0,0,50.09,51.348Zm0,0" transform="translate(-8.705 -8.27)"/>
    <path id="Trazado_218649" data-name="Trazado 218649" d="M78.948,51.348A1.843,1.843,0,0,0,80.79,49.5V47.535a1.843,1.843,0,0,0-3.686,0V49.5A1.843,1.843,0,0,0,78.948,51.348Zm0,0" transform="translate(-13.928 -8.27)"/>
    <path id="Trazado_218650" data-name="Trazado 218650" d="M50.652,61.963a11.691,11.691,0,1,0,23.381,0,1.843,1.843,0,0,0-1.843-1.843h-19.7a1.843,1.843,0,0,0-1.843,1.843Zm19.482,1.843a8.006,8.006,0,0,1-15.582,0Zm0,0" transform="translate(-9.14 -10.881)"/>
    <path id="Trazado_218651" data-name="Trazado 218651" d="M97.5,89.779,79.963,83.036l-4.447-5.93A3.792,3.792,0,0,0,70.8,75.967v-7.78a27.4,27.4,0,0,0,9.847-21.044v-.128h.127a7.749,7.749,0,0,0,3.812-14.5V19.569A19.591,19.591,0,0,0,65.019,0H41.385A7.755,7.755,0,0,0,34.64,3.939H33.506A11.7,11.7,0,0,0,21.816,15.63V32.52a7.749,7.749,0,0,0,3.812,14.5h.127v.128A27.4,27.4,0,0,0,35.6,68.187v7.78a3.793,3.793,0,0,0-4.714,1.139l-4.447,5.93L8.907,89.78A13.743,13.743,0,0,0,.15,102.529v21.428a1.843,1.843,0,0,0,3.686,0V102.529a9.874,9.874,0,0,1,.632-3.464l11,8.246a6.063,6.063,0,0,1,2.414,4.828v11.818a1.843,1.843,0,0,0,3.686,0V112.139a9.768,9.768,0,0,0-3.888-7.777L6.381,95.893a9.926,9.926,0,0,1,3.849-2.674l16.911-6.5L39.266,98.84a5.783,5.783,0,0,0,8.177,0l3.917-3.917v29.034a1.843,1.843,0,0,0,3.686,0V94.923l3.916,3.917a5.784,5.784,0,0,0,8.177,0l5.093-5.093a1.843,1.843,0,0,0-2.606-2.607l-5.093,5.094a2.1,2.1,0,0,1-2.965,0l-5.509-5.51L72.393,79.29a.125.125,0,0,1,.174.028l3.806,5.074-.84.84a1.843,1.843,0,0,0,2.607,2.606l1.122-1.123,16.912,6.5a9.933,9.933,0,0,1,3.849,2.674l-11.293,8.47a9.765,9.765,0,0,0-3.889,7.776v11.818a1.843,1.843,0,1,0,3.686,0V112.139a6.065,6.065,0,0,1,2.415-4.829l11-8.246a9.88,9.88,0,0,1,.632,3.465v21.428a1.843,1.843,0,0,0,3.686,0V102.529A13.743,13.743,0,0,0,97.5,89.779ZM44.836,96.234a2.1,2.1,0,0,1-2.965,0L30.031,84.392l3.806-5.074a.126.126,0,0,1,.174-.028L50.346,90.724ZM67.116,78.485,53.2,88.225l-13.915-9.74V70.793a27.393,27.393,0,0,0,27.828,0ZM52.968,70.9A23.958,23.958,0,0,1,29.441,46.84V44.862a1.908,1.908,0,0,0-.366-1.155,1.845,1.845,0,0,0-2.094-.632,4.013,4.013,0,0,1-1.352.255,4.066,4.066,0,1,1,0-8.132,3.992,3.992,0,0,1,1.352.256,1.866,1.866,0,0,0,1.44-.087A17.4,17.4,0,0,0,36.2,27.024a1.843,1.843,0,1,0-3.422-1.369,13.8,13.8,0,0,1-5.388,6.079,7.31,7.31,0,0,0-1.764-.221l-.127,0V15.63a8.005,8.005,0,0,1,8.006-8.006h.13c0,.042,0,.084,0,.127a1.843,1.843,0,0,0,2.017,1.835,1.886,1.886,0,0,0,1.668-1.879,4.07,4.07,0,0,1,4.066-4.021H65.019A15.883,15.883,0,0,1,80.9,19.569V31.516l-.127,0a7.317,7.317,0,0,0-1.894.253c-3.8-1.679-5.53-6.523-6.011-8.138q.416-.209.831-.431a1.892,1.892,0,0,0,.84-2.491,1.842,1.842,0,0,0-2.518-.791c-7.472,4.023-15.586,4.715-24.117,2.057A37.948,37.948,0,0,1,37.1,16.637a1.842,1.842,0,0,0-2.261,2.909,40.842,40.842,0,0,0,11.84,5.9A36.935,36.935,0,0,0,57.8,27.215,33.2,33.2,0,0,0,69.469,25.11c.779,2.434,3.023,7.891,7.962,10.046a3.612,3.612,0,0,0,1.42.293h0a4.1,4.1,0,0,0,1.034-.134,3.624,3.624,0,0,1,.89-.115,4.066,4.066,0,1,1,0,8.131,3.994,3.994,0,0,1-1.339-.251,1.841,1.841,0,0,0-2.473,1.731v2.331a23.788,23.788,0,0,1-24,23.761Zm0,0"/>
    <path id="Trazado_218652" data-name="Trazado 218652" d="M49.013,133.365H43.961V129.3a1.843,1.843,0,1,0-3.686,0v4.066h-5.05a3.817,3.817,0,0,0-3.812,3.812v7.879a3.817,3.817,0,0,0,3.812,3.812H49.013a3.817,3.817,0,0,0,3.812-3.812v-7.879A3.817,3.817,0,0,0,49.013,133.365Zm.127,11.691a.127.127,0,0,1-.127.127H35.226a.127.127,0,0,1-.127-.127v-7.878a.127.127,0,0,1,.127-.128H49.013a.127.127,0,0,1,.127.128Zm0,0" transform="translate(-5.658 -23.068)"/>
  </g>
</svg>
