<svg xmlns="http://www.w3.org/2000/svg" width="286.118" height="289.127" viewBox="0 0 286.118 289.127">
  <g id="Copyright-pana" transform="translate(-25.842 -26.766)">
    <g id="freepik--background-simple--inject-22" transform="translate(25.842 35.473)">
      <path id="Trazado_217550" data-name="Trazado 217550" d="M399.784,336.119l-.676-.767a23.136,23.136,0,0,0-22.743-7.487,22.236,22.236,0,0,0-3.138,1.005,24.315,24.315,0,0,0-14.458,17.776c-.857,4.639-.432,9.735-2.906,13.73-3.221,5.2-9.993,6.527-16.011,7.39s-12.789,2.2-15.985,7.422c-2,3.267-2.087,7.422-1.224,11.178,2.287,9.935,10.843,17.686,20.508,20.585s20.2,1.475,29.592-2.191c13.143-5.154,24.786-14.941,30.539-27.949S408.218,347.574,399.784,336.119Z" transform="translate(-131.234 -142.368)" fill="#f5f5f5"/>
      <path id="Trazado_217551" data-name="Trazado 217551" d="M34.642,149.665l.6-.5a17.357,17.357,0,0,1,20.3-1.578,18.53,18.53,0,0,1,8.633,15.225c.064,3.6-.9,7.377.457,10.7,1.772,4.323,6.7,6.179,11.114,7.583s9.349,3.273,11.095,7.6a11.449,11.449,0,0,1-.49,8.569c-2.97,7.19-10.386,11.939-18.04,12.886s-15.392-1.443-21.99-5.38c-9.246-5.522-16.751-14.368-19.457-24.889S26.846,157.255,34.642,149.665Z" transform="translate(-25.842 -77.544)" fill="#f5f5f5"/>
      <circle id="Elipse_7177" data-name="Elipse 7177" cx="12.403" cy="12.403" r="12.403" transform="translate(187.95 183.97)" fill="#f5f5f5"/>
      <circle id="Elipse_7178" data-name="Elipse 7178" cx="12.403" cy="12.403" r="12.403" transform="translate(107.33 0)" fill="#f5f5f5"/>
    </g>
    <g id="freepik--Floor--inject-22" transform="translate(28.843 308.148)">
      <path id="Trazado_217552" data-name="Trazado 217552" d="M312.054,463.667c0,.1-63.031.168-140.77.168S30.5,463.764,30.5,463.667s63.018-.167,140.783-.167S312.054,463.577,312.054,463.667Z" transform="translate(-30.5 -463.5)" fill="#263238"/>
    </g>
    <g id="freepik--Shield--inject-22" transform="translate(56.657 39.229)">
      <path id="Trazado_217553" data-name="Trazado 217553" d="M139.342,57.881,111.155,46.11,82.014,54.067c-3.743,1.417-7,2.2-7.2,5.451L73.8,75.721a59.571,59.571,0,0,0,7.377,32.859A58.018,58.018,0,0,0,106.033,132.5c11.887-2.886,21.2-12.016,27.06-19.973A59.4,59.4,0,0,0,144.5,80.882l.9-14.554C145.689,61.682,143.266,59.253,139.342,57.881Z" transform="translate(-73.67 -46.11)" fill="#455a64"/>
      <g id="Grupo_149308" data-name="Grupo 149308" transform="translate(5.084 4.297)" opacity="0.3">
        <path id="Trazado_217554" data-name="Trazado 217554" d="M109.162,128.677l-.1-.052a49.61,49.61,0,0,1-21.146-20.939,53.386,53.386,0,0,1-6.237-28.755l.883-14.1c.174-2.719,2.532-3.608,5.264-4.639.341-.129.7-.258,1.05-.4l24.818-7.01.11.045,23.839,10.2c3.821,1.366,5.554,3.866,5.322,7.661l-.8,12.68a53.25,53.25,0,0,1-9.767,27.7c-3.827,5.341-11.913,14.722-23.1,17.531Zm4.51-75.188L89.079,60.428l-1.031.393c-2.629.986-4.7,1.765-4.845,4.072L82.321,79A52.729,52.729,0,0,0,88.48,107.4a48.966,48.966,0,0,0,20.765,20.617c10.953-2.8,18.858-12,22.621-17.254a52.593,52.593,0,0,0,9.664-27.389l.792-12.68c.219-3.511-1.34-5.741-4.9-7.016h0Z" transform="translate(-81.562 -52.78)" fill="#fff"/>
      </g>
      <path id="Trazado_217555" data-name="Trazado 217555" d="M129.053,92.213l.213-1.991a7.045,7.045,0,0,0-14-1.25l-.213,2.023a3.769,3.769,0,0,0-3.666,3.325l-1.07,11.752a3.8,3.8,0,0,0,3.6,4l13.053,1.16a3.808,3.808,0,0,0,4.246-3.312l1.07-11.758A3.769,3.769,0,0,0,129.053,92.213Zm-6.23,12.016-3.415-.3.741-2.255a1.933,1.933,0,0,1-.831-1.74,2.094,2.094,0,0,1,4.162.367,1.933,1.933,0,0,1-1.07,1.533C122.571,102.747,122.823,104.229,122.823,104.229Zm4.723-12.164-10.953-.979.213-1.972a5.52,5.52,0,0,1,10.972.966Z" transform="translate(-86.704 -59.244)" fill="#fff"/>
      <g id="Grupo_149309" data-name="Grupo 149309" transform="translate(9.506 8.298)" opacity="0.1">
        <path id="Trazado_217556" data-name="Trazado 217556" d="M90.657,97.048c-1.933.11-3.44-26.416-.863-29.682s26.2-8.376,26.2-8.376-1.14,24.393-1.765,25.965S90.657,97.048,90.657,97.048Z" transform="translate(-88.425 -58.99)" fill="#fff"/>
      </g>
      <g id="Grupo_149310" data-name="Grupo 149310" transform="translate(13.42 40.848)" opacity="0.1">
        <path id="Trazado_217557" data-name="Trazado 217557" d="M94.5,119.026l21.133-9.516s-1.752,34.1-2.468,33.5A52.438,52.438,0,0,1,94.5,119.026Z" transform="translate(-94.5 -109.51)" fill="#fff"/>
      </g>
      <path id="Trazado_217558" data-name="Trazado 217558" d="M89.933,100.829a8.479,8.479,0,0,1-.251-1.127c-.148-.734-.322-1.8-.509-3.118A80.928,80.928,0,0,1,89,75.8c.168-1.327.329-2.39.464-3.125a6.667,6.667,0,0,1,.238-1.134,1.342,1.342,0,0,1,0,.3l-.1.85c-.1.734-.219,1.8-.354,3.131a98.071,98.071,0,0,0-.49,10.367,99.126,99.126,0,0,0,.644,10.36c.155,1.321.3,2.39.406,3.125.039.341.077.644.11.85a.979.979,0,0,1,.006.3Z" transform="translate(-78.916 -55.156)" fill="#fff"/>
    </g>
    <g id="freepik--Document--inject-22" transform="translate(199.315 26.766)">
      <path id="Trazado_217559" data-name="Trazado 217559" d="M408.4,141.017l-76.76,18.1a2.822,2.822,0,0,1-3.4-2.1L303.159,50.482a2.828,2.828,0,0,1,2.1-3.4l76.76-18.079a2.822,2.822,0,0,1,3.4,2.1L410.5,137.622a2.828,2.828,0,0,1-2.1,3.4Z" transform="translate(-297.933 -27.536)" fill="#ebebeb"/>
      <path id="Trazado_217560" data-name="Trazado 217560" d="M400.686,139.107l-76.754,18.04a2.816,2.816,0,0,1-3.4-2.1L295.448,48.552a2.822,2.822,0,0,1,2.1-3.4l76.76-18.079a2.816,2.816,0,0,1,3.389,2.1l25.089,106.514a2.816,2.816,0,0,1-2.1,3.415Z" transform="translate(-295.19 -26.85)" fill="#fff"/>
      <path id="Trazado_217561" data-name="Trazado 217561" d="M400.586,139.023a2.97,2.97,0,0,0,.921-.419,2.8,2.8,0,0,0,.838-.9,2.764,2.764,0,0,0,.374-1.649c-.541-2.577-1.495-6.32-2.629-11.172-2.3-9.716-5.631-23.761-9.742-41.118l-6.707-28.413q-1.8-7.654-3.737-15.824-.96-4.078-1.933-8.273c-.4-1.353-.374-3-1.643-3.75a2.693,2.693,0,0,0-1.984-.374l-2.145.5-74.705,17.6a2.654,2.654,0,0,0-2.049,2.616,5.564,5.564,0,0,0,.213,1.211q.586,2.468,1.16,4.922l2.3,9.748q2.274,9.664,4.51,19.058l8.472,36.029c2.7,11.481,5.264,22.389,7.667,32.6.3,1.289.586,2.577.9,3.782a2.674,2.674,0,0,0,2.848,1.8c2.435-.528,4.871-1.134,7.235-1.675l13.633-3.221,41.138-9.664,11.185-2.577,2.912-.644.992-.219s-.329.09-.986.251l-2.9.7-11.178,2.661L344.41,152.36l-13.627,3.221c-2.377.548-4.761,1.147-7.268,1.694a2.977,2.977,0,0,1-3.138-1.991c-.329-1.289-.6-2.519-.908-3.8-2.41-10.212-4.987-21.12-7.693-32.595s-5.554-23.529-8.5-36.029q-2.2-9.362-4.51-19.052-1.14-4.839-2.294-9.748l-1.16-4.922a5.443,5.443,0,0,1-.225-1.289,2.957,2.957,0,0,1,.284-1.289,3.009,3.009,0,0,1,2.023-1.643l74.712-17.589,2.152-.5a2.957,2.957,0,0,1,2.21.419,2.989,2.989,0,0,1,1.289,1.836c.168.7.329,1.4.5,2.107q.986,4.194,1.933,8.273,1.933,8.157,3.717,15.824c2.4,10.212,4.632,19.722,6.668,28.407,4.065,17.364,7.358,31.415,9.664,41.138,1.115,4.864,2.042,8.621,2.577,11.2a2.8,2.8,0,0,1-.393,1.682,2.841,2.841,0,0,1-.863.9,2.807,2.807,0,0,1-.689.335Z" transform="translate(-295.09 -26.766)" fill="#263238"/>
      <path id="Trazado_217562" data-name="Trazado 217562" d="M341.09,73.6a4.509,4.509,0,0,1-.838.264l-2.307.6c-1.933.49-4.665,1.147-7.654,1.849s-5.715,1.327-7.68,1.759l-2.339.5a4.014,4.014,0,0,1-.863.135,5.23,5.23,0,0,1,.838-.264l2.307-.6c1.933-.49,4.665-1.147,7.661-1.849s5.708-1.327,7.673-1.759l2.339-.5A4.013,4.013,0,0,1,341.09,73.6Z" transform="translate(-303.741 -43.425)" fill="#263238"/>
      <path id="Trazado_217563" data-name="Trazado 217563" d="M382.793,74.059c0,.09-13.388,3.325-29.953,7.222s-30,6.991-30.03,6.913,13.388-3.325,29.953-7.222S382.767,73.969,382.793,74.059Z" transform="translate(-304.95 -43.588)" fill="#263238"/>
      <path id="Trazado_217564" data-name="Trazado 217564" d="M386.387,89.319c0,.09-13.388,3.325-29.947,7.222s-30.011,7-30.03,6.907,13.382-3.331,29.953-7.229S386.367,89.229,386.387,89.319Z" transform="translate(-306.231 -49.016)" fill="#263238"/>
      <path id="Trazado_217565" data-name="Trazado 217565" d="M389.793,103.779c0,.09-13.388,3.325-29.953,7.222s-30,6.991-30.03,6.9,13.388-3.325,29.953-7.222S389.774,103.689,389.793,103.779Z" transform="translate(-307.44 -54.16)" fill="#263238"/>
      <path id="Trazado_217566" data-name="Trazado 217566" d="M393.387,119c0,.09-13.388,3.325-29.947,7.229s-30.011,7.016-30.03,6.945,13.388-3.325,29.953-7.229S393.367,118.935,393.387,119Z" transform="translate(-308.721 -59.574)" fill="#263238"/>
      <path id="Trazado_217567" data-name="Trazado 217567" d="M396.793,133.5c0,.09-13.388,3.325-29.953,7.229s-30,6.991-30.03,6.9S350.2,144.3,366.763,140.4,396.774,133.409,396.793,133.5Z" transform="translate(-309.93 -64.731)" fill="#263238"/>
      <path id="Trazado_217568" data-name="Trazado 217568" d="M400.387,148.759c0,.09-13.388,3.325-29.946,7.229s-30.011,6.991-30.03,6.9,13.388-3.325,29.953-7.229S400.367,148.669,400.387,148.759Z" transform="translate(-311.211 -70.16)" fill="#263238"/>
      <path id="Trazado_217569" data-name="Trazado 217569" d="M403.793,163.219c0,.09-13.388,3.325-29.953,7.229s-30,6.991-30.03,6.9,13.388-3.325,29.953-7.229S403.774,163.129,403.793,163.219Z" transform="translate(-312.42 -75.303)" fill="#263238"/>
      <path id="Trazado_217570" data-name="Trazado 217570" d="M407.1,177.279c0,.09-13.388,3.325-29.953,7.222s-30,6.991-30.03,6.9,13.388-3.35,29.953-7.216S407.084,177.189,407.1,177.279Z" transform="translate(-313.598 -80.305)" fill="#263238"/>
    </g>
    <g id="freepik--light-bulb--inject-22" transform="translate(103.609 62.945)">
      <path id="Trazado_217571" data-name="Trazado 217571" d="M289.431,154.539a71.439,71.439,0,1,0-102.042,64.377c0,8.466-.045,18.04-.045,18.04l62.612.168s.4-10.115.567-19.142A71.406,71.406,0,0,0,289.431,154.539Z" transform="translate(-146.544 -82.92)" fill="#f67409"/>
      <g id="Grupo_149311" data-name="Grupo 149311" transform="translate(53.95 29.689)" opacity="0.1">
        <path id="Trazado_217572" data-name="Trazado 217572" d="M319.243,170.879A71.123,71.123,0,0,0,305.8,129a85.375,85.375,0,0,1-8.563,73.217c-14.638,22.718-37.15,39.6-66.954,39.6,11.159,8.846,25.881,7.261,40.094,6.507,3.183-.168,6.443-.354,9.6-.747.122-3.7.271-8.633.354-13.285a71.413,71.413,0,0,0,38.915-63.411Z" transform="translate(-230.28 -129)"/>
      </g>
      <g id="Grupo_149312" data-name="Grupo 149312" transform="translate(11.717 16.79)" opacity="0.3">
        <path id="Trazado_217573" data-name="Trazado 217573" d="M203.452,113.941c-.844-2.055-3.112-3.556-5.8-4.368a15.373,15.373,0,0,0-11.6,1.289c-10.489,5.515-16.455,12.177-20.147,24.013-1.256,4.007-1.888,10.631.071,14.567a7.931,7.931,0,0,0,4.787,4.188c5.522,1.617,9.916-3.737,11.642-8.859C184.013,140,184.6,134.6,188,130.892c2.8-3.06,6.991-4.362,10.483-6.6S205.024,117.781,203.452,113.941Z" transform="translate(-164.73 -108.98)" fill="#fff"/>
      </g>
      <g id="Grupo_149313" data-name="Grupo 149313" transform="translate(55.675 8.496)" opacity="0.3">
        <path id="Trazado_217574" data-name="Trazado 217574" d="M248.448,100.361c-2.068-3.614-7.293-5.122-10.347-3.756a9.188,9.188,0,0,0-4.993,6.295,8.414,8.414,0,0,0,3.7,8.653,7.97,7.97,0,0,0,9.3-.863C248.563,108.415,250.1,103.267,248.448,100.361Z" transform="translate(-232.957 -96.107)" fill="#fff"/>
      </g>
      <g id="freepik--2ggvdetif--inject-22" transform="translate(58.164 194.8)">
        <path id="Trazado_217575" data-name="Trazado 217575" d="M236.82,385.27A19.475,19.475,0,0,1,240.9,388.9a4.22,4.22,0,0,0,3.325,1.591h12.6a4.246,4.246,0,0,0,3.537-1.856,7.853,7.853,0,0,1,4.31-3.337Z" transform="translate(-236.82 -385.27)" fill="#455a64"/>
      </g>
      <path id="Trazado_217576" data-name="Trazado 217576" d="M215.75,330.77c0,.258,2.886,19.973,3.988,27.466a9.291,9.291,0,0,0,5.193,7.145,8.717,8.717,0,0,0,3.582.792l27.556.052s7.2,0,8.846-5.7c1.733-6,5.025-29.637,5.025-29.637Z" transform="translate(-171.161 -171.083)" fill="#263238"/>
      <path id="Trazado_217577" data-name="Trazado 217577" d="M267.542,371.276l-48.006.077a1.366,1.366,0,0,1-1.366-1.366v-.148a1.359,1.359,0,0,1,1.359-1.366l48.012-.084a1.366,1.366,0,0,1,1.366,1.366v.148a1.372,1.372,0,0,1-1.366,1.372Z" transform="translate(-172.022 -184.465)" fill="#e0e0e0"/>
      <path id="Trazado_217578" data-name="Trazado 217578" d="M267.422,371.127a1.566,1.566,0,0,0,.928-.432,1.4,1.4,0,0,0,.367-1.147,1.289,1.289,0,0,0-1.005-1.179c-2.577-.039-6.482.045-11.217.058l-37.079.129a1.134,1.134,0,0,0-.947.515,1.076,1.076,0,0,0-.18.522,1.52,1.52,0,0,0,.045.573,1.121,1.121,0,0,0,.754.754,6.937,6.937,0,0,0,1.25.052h31.725l11.243.058,3.054.032h.792a.8.8,0,0,1,.271,0h-1.063l-3.054.052-11.243.09-16.668.077-9.845.032h-5.857a2.242,2.242,0,0,1-.722-.071,1.591,1.591,0,0,1-1.063-1.057,2.029,2.029,0,0,1-.064-.754,1.585,1.585,0,0,1,1.591-1.463h37.079c4.755.032,8.569,0,11.262.09a1.45,1.45,0,0,1,1.1,1.353,1.482,1.482,0,0,1-.432,1.218A1.224,1.224,0,0,1,267.422,371.127Z" transform="translate(-171.902 -184.316)" fill="#263238"/>
      <path id="Trazado_217579" data-name="Trazado 217579" d="M268.018,361.643l-50.042.084a1.359,1.359,0,0,1-1.366-1.359V360.2a1.359,1.359,0,0,1,1.359-1.366l50.042-.084a1.379,1.379,0,0,1,1.372,1.366v.148a1.366,1.366,0,0,1-1.366,1.379Z" transform="translate(-171.467 -181.036)" fill="#e0e0e0"/>
      <path id="Trazado_217580" data-name="Trazado 217580" d="M267.887,361.486a1.475,1.475,0,0,0,.954-.457,1.43,1.43,0,0,0,.329-1.2,1.289,1.289,0,0,0-1.14-1.115l-11.662.084-38.522.129a1.14,1.14,0,0,0-.973.554,1.089,1.089,0,0,0-.161.548,1.34,1.34,0,0,0,.077.593,1.115,1.115,0,0,0,.85.7c.374.039.9,0,1.334,0h32.955l11.681.052,3.17.039h1.108a.89.89,0,0,1-.283,0h-.825l-3.17.052-11.674.09-17.318.077H217.555a1.585,1.585,0,0,1-1.2-.986,1.862,1.862,0,0,1-.11-.78,1.591,1.591,0,0,1,1.6-1.553h38.516c4.935,0,8.91,0,11.687.064a1.443,1.443,0,0,1,1.289,1.289,1.553,1.553,0,0,1-.4,1.289A1.173,1.173,0,0,1,267.887,361.486Z" transform="translate(-171.336 -180.88)" fill="#263238"/>
      <path id="Trazado_217581" data-name="Trazado 217581" d="M268.323,352.03l-51.337.09a1.366,1.366,0,0,1-1.366-1.366v-.148a1.372,1.372,0,0,1,1.36-1.372l51.343-.084a1.366,1.366,0,0,1,1.366,1.366v.148a1.359,1.359,0,0,1-1.366,1.366Z" transform="translate(-171.115 -177.621)" fill="#e0e0e0"/>
      <path id="Trazado_217582" data-name="Trazado 217582" d="M268.193,351.856a1.4,1.4,0,0,0,1.289-1.72,1.289,1.289,0,0,0-1.231-1.063l-11.952.09-39.437.135a1.134,1.134,0,0,0-1.134,1.14,1.289,1.289,0,0,0,.1.606,1.14,1.14,0,0,0,.915.644h35.127l11.952.052,3.254.039h.844a1.522,1.522,0,0,1,.283,0,.889.889,0,0,1-.283,0h-.844l-3.254.045-11.952.1L234.136,352H216.689a1.6,1.6,0,0,1-1.289-.934,1.759,1.759,0,0,1-.142-.792,1.6,1.6,0,0,1,1.6-1.611h39.469l11.958.058a1.437,1.437,0,0,1,1.359,1.224,1.585,1.585,0,0,1-.432,1.514,1.218,1.218,0,0,1-1.018.4Z" transform="translate(-170.986 -177.447)" fill="#263238"/>
      <path id="Trazado_217583" data-name="Trazado 217583" d="M268.8,342.4l-53.424.09A1.366,1.366,0,0,1,214,341.114v-.148a1.366,1.366,0,0,1,1.366-1.366l53.418-.09a1.366,1.366,0,0,1,1.366,1.366v.148A1.359,1.359,0,0,1,268.8,342.4Z" transform="translate(-170.539 -174.192)" fill="#e0e0e0"/>
      <path id="Trazado_217584" data-name="Trazado 217584" d="M268.674,342.268a1.4,1.4,0,0,0,1.256-1.8,1.289,1.289,0,0,0-1.372-.986l-12.4.1-40.912.135a1.147,1.147,0,0,0-1.005.644,1.4,1.4,0,0,0,0,1.211,1.128,1.128,0,0,0,1.005.593h36.467l12.4.052,3.37.039h1.179a1.355,1.355,0,0,1-.3,0h-.883l-3.37.045-12.4.1-18.394.084H215.25a1.624,1.624,0,0,1-1.418-.831,1.707,1.707,0,0,1-.193-.824,1.649,1.649,0,0,1,.18-.825,1.6,1.6,0,0,1,1.417-.863h40.912l12.4.052a1.456,1.456,0,0,1,1.508,1.134,1.591,1.591,0,0,1-.322,1.392,1.34,1.34,0,0,1-.767.432A.773.773,0,0,1,268.674,342.268Z" transform="translate(-170.41 -174.057)" fill="#263238"/>
      <path id="Trazado_217585" data-name="Trazado 217585" d="M205,304.38c0,.509,1.115,12.564,1.688,18.755a7.448,7.448,0,0,0,3.363,5.56l2.809,1.823,53.283.1,2.777-1.791a7.454,7.454,0,0,0,3.389-5.625l1.617-18.684Z" transform="translate(-167.337 -161.696)" fill="#f67409"/>
      <g id="Grupo_149314" data-name="Grupo 149314" transform="translate(49.299 186.766)" opacity="0.3">
        <path id="Trazado_217586" data-name="Trazado 217586" d="M223.06,372.8c5.154,1.173,10.244,1.289,15.882,1.289,4.549,0,9.02.122,13.942.032,3.621-.071,6.952-.245,10.56-.393a9.939,9.939,0,0,0,4.194-.9Z" transform="translate(-223.06 -372.8)"/>
      </g>
      <g id="Grupo_149315" data-name="Grupo 149315" transform="translate(47.411 180.542)" opacity="0.3">
        <path id="Trazado_217587" data-name="Trazado 217587" d="M220.13,363.14c5.528,1.173,11.043,1.289,17.119,1.289,4.9,0,9.709.122,15.038,0,3.866-.064,7.487-.238,11.378-.387,1.965-.077,4.123-.535,4.51-.9Z" transform="translate(-220.13 -363.14)"/>
      </g>
      <g id="Grupo_149316" data-name="Grupo 149316" transform="translate(47.424 174.389)" opacity="0.3">
        <path id="Trazado_217588" data-name="Trazado 217588" d="M220.15,353.59c5.528,1.173,11.043,1.289,17.119,1.289,4.9,0,9.709.122,15.031,0,3.9-.064,7.493-.238,11.378-.387,1.972-.077,4.13-.535,4.51-.9Z" transform="translate(-220.15 -353.59)"/>
      </g>
      <g id="Grupo_149317" data-name="Grupo 149317" transform="translate(47.43 168.211)" opacity="0.3">
        <path id="Trazado_217589" data-name="Trazado 217589" d="M220.16,344c5.534,1.173,11.05,1.289,17.119,1.289,4.909,0,9.716.122,15.038,0,3.9-.064,7.493-.238,11.378-.387,1.971-.077,4.13-.535,4.51-.9Z" transform="translate(-220.16 -344)"/>
      </g>
      <g id="Grupo_149318" data-name="Grupo 149318" transform="translate(37.663 142.684)" opacity="0.3">
        <path id="Trazado_217590" data-name="Trazado 217590" d="M205,304.38c0,.509,1.115,12.564,1.688,18.755a7.448,7.448,0,0,0,3.363,5.56l2.809,1.823,53.283.1,2.777-1.791a7.454,7.454,0,0,0,3.389-5.625l1.617-18.684Z" transform="translate(-205 -304.38)"/>
      </g>
      <path id="Trazado_217591" data-name="Trazado 217591" d="M272.312,337.406c0,.129-14.252.213-31.828.174s-31.834-.161-31.834-.29,14.252-.206,31.834-.174S272.312,337.284,272.312,337.406Z" transform="translate(-168.636 -173.338)" fill="#263238"/>
      <path id="Trazado_217592" data-name="Trazado 217592" d="M273.235,303.892c0,.142-15.463.29-34.56.329s-34.579-.045-34.585-.187,15.463-.29,34.566-.329S273.235,303.77,273.235,303.892Z" transform="translate(-167.014 -161.453)" fill="#263238"/>
      <path id="Trazado_217593" data-name="Trazado 217593" d="M184.188,237.586s-.064,0-.18-.116l-.509-.367c-.438-.335-1.108-.8-1.933-1.469a64.146,64.146,0,0,1-6.507-6.024c-1.289-1.359-2.629-2.919-4.007-4.645a69.535,69.535,0,0,1-4.046-5.76,66.033,66.033,0,0,1-10.051-30.333c-.213-2.474-.226-4.832-.2-7.036a54.454,54.454,0,0,1,.445-6.121A63.659,63.659,0,0,1,158.842,167c.245-1.018.509-1.791.644-2.319l.187-.6c.045-.135.071-.206.071-.2a.844.844,0,0,1-.039.206l-.155.644c-.129.535-.374,1.289-.593,2.332a68.941,68.941,0,0,0-1.514,8.717c-.213,1.856-.335,3.866-.393,6.095a60.7,60.7,0,0,0,.219,7,66.781,66.781,0,0,0,10.012,30.2c1.289,2.1,2.68,4,4,5.753a55.03,55.03,0,0,0,3.962,4.645,68.943,68.943,0,0,0,6.443,6.089c.786.689,1.45,1.166,1.868,1.521l.49.393Z" transform="translate(-150.172 -111.718)" fill="#263238"/>
    </g>
    <g id="freepik--Padlock--inject-22" transform="translate(221.297 123.846)">
      <path id="Trazado_217594" data-name="Trazado 217594" d="M394.464,238.845l-6.784-.515,2.977-39.372c.142-1.817-1.933-6.894-3.183-8.228-12.441-13.356-27.53-4.658-28.516,8.3l-2.79,36.911-6.778-.509,2.745-36.306c.921-12.241,11.2-21.964,23.458-21.481a22.627,22.627,0,0,1,21.661,24.29Z" transform="translate(-336.387 -177.511)" fill="#e0e0e0"/>
      <path id="Trazado_217595" data-name="Trazado 217595" d="M394.347,238.778s0-.258.045-.741.084-1.2.148-2.145c.135-1.881.335-4.652.593-8.208s.58-7.918.947-12.97q.277-3.788.593-8.092c.161-2.861.644-5.889.258-9.059a22.015,22.015,0,0,0-3.305-9.31c-.238-.361-.464-.734-.709-1.1l-.812-1.044a23.574,23.574,0,0,0-1.791-1.991,10.517,10.517,0,0,0-1.005-.9,11.464,11.464,0,0,0-1.05-.876,20.819,20.819,0,0,0-2.307-1.54,22.923,22.923,0,0,0-5.206-2.255l-1.417-.322-.709-.168-.728-.1-1.463-.18c-.49-.045-.986-.032-1.482-.052a22.44,22.44,0,0,0-20.392,12.345,23.759,23.759,0,0,0-2.075,6.295c-.329,2.21-.425,4.51-.644,6.778-.689,9.162-1.4,18.646-2.139,28.349-.1,1.289-.2,2.577-.3,3.866l-.142-.174,6.778.515-.168.142c.554-7.338,1.1-14.522,1.63-21.5q.4-5.238.78-10.309.193-2.539.387-5.032a17.4,17.4,0,0,1,1.128-4.851,16.055,16.055,0,0,1,6.14-7.332,10.094,10.094,0,0,1,1.012-.644l1.05-.535a16.331,16.331,0,0,1,2.2-.8,17.272,17.272,0,0,1,2.261-.49c.38-.052.767-.064,1.14-.1l.554-.013h.567a15.9,15.9,0,0,1,4.426.644,16.8,16.8,0,0,1,3.969,1.81,16.229,16.229,0,0,1,6.984,9.87,16.616,16.616,0,0,1,.38,3.866v.947c0,.3-.045.644-.071.928-.045.644-.1,1.224-.142,1.83-.09,1.211-.18,2.4-.271,3.569-.361,4.652-.689,8.936-.986,12.8-.606,7.731-1.076,13.756-1.392,17.769l-.039-.052,5.109.412,1.25.1.419.045h-.4l-1.243-.077-5.154-.367H387.5v-.045c.3-4.02.734-10.057,1.289-17.776.284-3.866.606-8.144.947-12.8.09-1.166.174-2.352.264-3.563.045-.606.1-1.218.142-1.836,0-.309.045-.644.064-.928s0-.644,0-.934a16.546,16.546,0,0,0-.38-3.788,16.326,16.326,0,0,0-1.385-3.679,15.85,15.85,0,0,0-5.509-6.024,16.6,16.6,0,0,0-3.9-1.772,15.578,15.578,0,0,0-4.349-.644h-.561l-.561.045c-.374.032-.747.045-1.121.1a16.753,16.753,0,0,0-4.375,1.289l-1.037.528c-.348.168-.644.406-.992.606a15.76,15.76,0,0,0-5.992,7.235,17.267,17.267,0,0,0-1.108,4.761c-.122,1.662-.251,3.344-.38,5.032-.251,3.382-.515,6.823-.773,10.309-.528,6.978-1.07,14.174-1.624,21.5v.161H356l-6.778-.515h-.161v-.161q.145-1.933.3-3.866c.735-9.716,1.45-19.2,2.146-28.349.193-2.294.283-4.562.644-6.81a22.55,22.55,0,0,1,5.9-11.848,24.077,24.077,0,0,1,5.032-4,22.55,22.55,0,0,1,11.848-3.112,14.543,14.543,0,0,1,1.5.052l1.7.219.928.168,1.411.329.644.18a22.505,22.505,0,0,1,4.955,2.178,21.573,21.573,0,0,1,2.326,1.566,11.694,11.694,0,0,1,1.063.883c.341.309.709.593,1.018.921a22.065,22.065,0,0,1,1.8,2.017l.818,1.05c.251.367.477.747.715,1.115a22.189,22.189,0,0,1,3.318,9.413c.387,3.221-.11,6.256-.277,9.123s-.432,5.579-.644,8.112c-.4,5.058-.735,9.419-1.018,12.982s-.5,6.308-.644,8.189c-.077.928-.135,1.636-.174,2.12A4.96,4.96,0,0,0,394.347,238.778Z" transform="translate(-336.27 -177.444)" fill="#263238"/>
      <path id="Trazado_217596" data-name="Trazado 217596" d="M0,0H61.707a2.417,2.417,0,0,1,2.417,2.417V50.06a2.2,2.2,0,0,1-2.2,2.2H0Z" transform="translate(6.747 34.723) rotate(4.574)" fill="#455a64"/>
      <g id="Grupo_149319" data-name="Grupo 149319" transform="translate(2.94 33.332)" opacity="0.3">
        <path id="Trazado_217597" data-name="Trazado 217597" d="M0,0H61.265A2.654,2.654,0,0,1,63.92,2.654V49.687a2.435,2.435,0,0,1-2.435,2.435H0Z" transform="translate(3.926 0) rotate(4.32)"/>
      </g>
      <path id="Trazado_217598" data-name="Trazado 217598" d="M2.616,0H56.684A2.616,2.616,0,0,1,59.3,2.616v46.26A3.221,3.221,0,0,1,56.079,52.1H2.706A2.706,2.706,0,0,1,0,49.391V2.616A2.616,2.616,0,0,1,2.616,0Z" transform="translate(3.924 33.067) rotate(4.32)" fill="#455a64"/>
      <g id="Grupo_149320" data-name="Grupo 149320" transform="translate(24.832 49.513)" opacity="0.3">
        <path id="Trazado_217599" data-name="Trazado 217599" d="M382.994,262.113a7.274,7.274,0,0,0-6.926-7.815,7.364,7.364,0,0,0-7.577,6.656,7.261,7.261,0,0,0,4.748,7.409l-5.489,9.664,12.486,1.173L377.2,268.672a7.242,7.242,0,0,0,5.8-6.559Z" transform="translate(-367.75 -254.293)"/>
      </g>
      <path id="Trazado_217600" data-name="Trazado 217600" d="M421.586,286.487c-.084,0,.567-9.059,1.456-20.211s1.688-20.192,1.772-20.186-.561,9.059-1.45,20.211S421.676,286.493,421.586,286.487Z" transform="translate(-362.066 -201.862)" fill="#263238"/>
      <path id="Trazado_217601" data-name="Trazado 217601" d="M386.01,235.323c0,.084-7.976-.341-17.8-.954s-17.8-1.179-17.789-1.289,7.976.335,17.808.947S386.017,235.233,386.01,235.323Z" transform="translate(-336.754 -197.229)" fill="#fff"/>
      <path id="Trazado_217602" data-name="Trazado 217602" d="M367.571,264.524a1.725,1.725,0,0,1-.264-.47,6.7,6.7,0,0,1-.451-1.417,8.137,8.137,0,0,1,3.537-8.575,7.041,7.041,0,0,1,1.321-.683,1.573,1.573,0,0,1,.522-.148,19.235,19.235,0,0,0-1.714,1.018,8.376,8.376,0,0,0-3.447,8.376C367.281,263.809,367.629,264.505,367.571,264.524Z" transform="translate(-342.533 -204.402)" fill="#fff"/>
      <path id="Trazado_217603" data-name="Trazado 217603" d="M371.2,275.773c-.052.071-.464-.142-.928-.47s-.792-.644-.741-.722.47.135.928.464S371.247,275.7,371.2,275.773Z" transform="translate(-343.548 -211.991)" fill="#fff"/>
      <path id="Trazado_217604" data-name="Trazado 217604" d="M376.688,180.305s-.438,0-1.231.077a20.331,20.331,0,0,0-3.318.49,19.535,19.535,0,0,0-14.819,14.786,20.313,20.313,0,0,0-.5,3.312c-.052.792-.058,1.231-.084,1.231a.948.948,0,0,1-.032-.316v-.921a17.877,17.877,0,0,1,.406-3.357,19.264,19.264,0,0,1,14.993-14.954,17.66,17.66,0,0,1,3.357-.393h.921a.947.947,0,0,1,.3.045Z" transform="translate(-338.99 -178.446)" fill="#fff"/>
      <path id="Trazado_217605" data-name="Trazado 217605" d="M355.647,217.8a5.836,5.836,0,0,1,0-1.9,5.7,5.7,0,0,1,.322-1.875,5.631,5.631,0,0,1,0,1.9A5.7,5.7,0,0,1,355.647,217.8Z" transform="translate(-338.585 -190.455)" fill="#fff"/>
    </g>
    <g id="freepik--Character--inject-22" transform="translate(37.87 119.312)">
      <path id="Trazado_217606" data-name="Trazado 217606" d="M118.5,380.25h42.858a3.144,3.144,0,0,1,3.144,3.144v48.289a3.144,3.144,0,0,1-3.144,3.144H118.5a8.575,8.575,0,0,1-8.575-8.576V388.819A8.575,8.575,0,0,1,118.5,380.25Z" transform="translate(-67.777 -245.051)" fill="#f67409"/>
      <g id="Grupo_149321" data-name="Grupo 149321" transform="translate(42.143 135.199)" opacity="0.3">
        <path id="Trazado_217607" data-name="Trazado 217607" d="M118.5,380.25h42.858a3.144,3.144,0,0,1,3.144,3.144v48.289a3.144,3.144,0,0,1-3.144,3.144H118.5a8.575,8.575,0,0,1-8.575-8.576V388.819A8.575,8.575,0,0,1,118.5,380.25Z" transform="translate(-109.92 -380.25)"/>
      </g>
      <rect id="Rectángulo_45226" data-name="Rectángulo 45226" width="54.578" height="54.578" rx="4.05" transform="translate(32.343 135.199)" fill="#f67409"/>
      <path id="Trazado_217608" data-name="Trazado 217608" d="M126.87,430.9,110.75,417.81l4.574-5.625,10.8,8.775,16.107-17.641,5.348,4.884Z" transform="translate(-68.072 -253.257)" fill="#fff"/>
      <path id="Trazado_217609" data-name="Trazado 217609" d="M159.986,172.593a3.647,3.647,0,0,1,3.105-.947,2.036,2.036,0,0,0,1.34,0c.29-.155.451-.464.677-.7a1.849,1.849,0,0,1,2.661.058,2.344,2.344,0,0,0,.5.541c.863.5,1.933-1.108,2.77-.593a2.088,2.088,0,0,0-1.018.728.954.954,0,0,0,.052,1.173c.792.767,2.229-.792,3.118-.148.477.348.509,1.2,1.076,1.366a2.035,2.035,0,0,0,.683,0,1.521,1.521,0,0,1,1.553,1.385c0,.644-.335,1.443.135,1.9a1.411,1.411,0,0,0,1.16.226,3.93,3.93,0,0,1-.515,1.714,2.384,2.384,0,0,1,.644,3.221,5.07,5.07,0,0,1,1.289,1.469,1.785,1.785,0,0,1-.077,1.875,1.469,1.469,0,0,0-.271.361.857.857,0,0,0,0,.477,8.376,8.376,0,0,1,.29,1.856c-.052.644-.548,1.289-1.166,1.2a.644.644,0,0,0-.432,0,.387.387,0,0,0-.161.277,4.11,4.11,0,0,0,0,1.347,1.778,1.778,0,0,1-.264,1.289.767.767,0,0,1-1.166.084c.148.709.29,1.411.438,2.12a1.289,1.289,0,0,1-.174,1.211c-.412.38-1.108,0-1.385-.457s-.329-1.082-.644-1.559a3.281,3.281,0,0,1-.354-.593c-.058-.167-.071-.374-.206-.5-.271-.245-.722.129-.7.49a1.855,1.855,0,0,0,.509.947.941.941,0,0,1,.18,1.012c-.1.142-.264.232-.361.387-.322.515.432,1.07.5,1.675a1.475,1.475,0,0,1-.644,1.134c-.406.367-1.173.644-1.392.135a5.084,5.084,0,0,1-.1-.561,1.372,1.372,0,0,0-.406-.522,2.854,2.854,0,0,1-.773-1.437c.432.593.883,1.366.522,2.01a3.074,3.074,0,0,1-.644.644c-.438.412-.728.966-1.16,1.385a1.411,1.411,0,0,1-1.636.367,1.353,1.353,0,0,1-2.332,1.231c-.11-.122-.2-.277-.354-.341a.922.922,0,0,0-.528,0,2.938,2.938,0,0,1-2.777-1.289l.548-.168a6.823,6.823,0,0,1-3-1.037,2.34,2.34,0,0,1-.857-2.809c.219-.412.644-.818.47-1.289-.1-.3-.432-.451-.728-.573l-3.7-1.508a3.582,3.582,0,0,1-1.611-1.037,1.218,1.218,0,0,1,.18-1.714,3.408,3.408,0,0,0-1.237-1.475c-.606-.406-1.327-.612-1.933-.992a1.933,1.933,0,0,1-1.1-1.759c.077-.728,1.115-1.243,1.591-.689-.052-1.1-2-1.289-2.12-2.365-.09-.889,1.063-1.289,1.682-1.933-.1-.316-.412-.528-.522-.838-.238-.644.451-1.256,1.1-1.521s1.411-.535,1.6-1.2-.367-1.488,0-2.081a.786.786,0,0,1,1.037-.206c.567-1.237,2.906-.168,3.653-1.289a.438.438,0,0,0,.1-.3.464.464,0,0,0-.11-.251,5.607,5.607,0,0,0-1.005-.857,1.063,1.063,0,0,1-.432-1.16c.18-.406.96-.354.928.084a.979.979,0,0,1,1.475.451,1.044,1.044,0,0,1,1.289-.058,3.086,3.086,0,0,1,.889,1.115" transform="translate(-81.338 -170.407)" fill="#263238"/>
      <path id="Trazado_217610" data-name="Trazado 217610" d="M170.85,192.882a8,8,0,0,0-3.1-4.51,4.793,4.793,0,0,0-2.049-1.089,2,2,0,0,0-2.062.78l.077,1.289c-.219,2.062,1.334,3.866,2.049,5.8.309.85.554,1.862,1.372,2.242a1.933,1.933,0,0,0,1.385,0A3.936,3.936,0,0,0,170.85,192.882Z" transform="translate(-86.886 -176.393)" fill="#455a64"/>
      <path id="Trazado_217611" data-name="Trazado 217611" d="M157.81,201.406a4.156,4.156,0,0,0-.316-5.328,2.784,2.784,0,0,0-.251-3.382,8.054,8.054,0,0,0-3.009-2.03,5.6,5.6,0,0,0-6.482-4.156c-1.43-2.145-4.51-2.513-7-1.817a6.533,6.533,0,0,1-1.836.387,11.023,11.023,0,0,1-1.372-.206,6.006,6.006,0,0,0-6.031,3.711,4.792,4.792,0,0,1-.548,1.089,6.219,6.219,0,0,1-1.25.979,4.007,4.007,0,0,0-1.572,2.957c-.052.973.251,2.017-.168,2.9a14.077,14.077,0,0,0-.754,1.256c-.483,1.34.992,2.725.7,4.117-.058.283-.187.548-.271.825a2.493,2.493,0,0,0,.135,1.74,3.622,3.622,0,0,1,.535,1.25,3.943,3.943,0,0,1-.219,1.012c-.174.831,1.585,4.059,2.3,4.51l21.481.412a4.014,4.014,0,0,0,3.144-3.421,1.5,1.5,0,0,1,.206-.792,1.817,1.817,0,0,1,.593-.374c1.392-.728,1.579-2.629,1.45-4.194a2,2,0,0,1,0-.644A2.461,2.461,0,0,1,157.81,201.406Z" transform="translate(-73.898 -175.375)" fill="#263238"/>
      <path id="Trazado_217612" data-name="Trazado 217612" d="M152.737,204.4a11.507,11.507,0,0,0-6-10.1,14.3,14.3,0,0,0-5.476-1.379,8.717,8.717,0,0,0-5.077,1.012c-1.186.264-5.567,4.194-5.837,8.5-.3,4.787-.47,10.644.1,14.213,1.147,7.184,6.649,8.1,6.649,8.1l-.251,5.689,4.007,7.429,10.309-10.521Z" transform="translate(-74.945 -178.4)" fill="#ffbf9d"/>
      <path id="Trazado_217613" data-name="Trazado 217613" d="M145.528,227.335a1.553,1.553,0,0,0-2.339-1.166,2.075,2.075,0,0,0-.9,1.933h0a1.933,1.933,0,0,0,1.289.85h.251a1.727,1.727,0,0,0,1.16-.393A1.514,1.514,0,0,0,145.528,227.335Z" transform="translate(-79.289 -190.164)" fill="#ff9a6c"/>
      <path id="Trazado_217614" data-name="Trazado 217614" d="M134.4,215.98a.934.934,0,0,0,.889.934.889.889,0,0,0,.954-.831.934.934,0,0,0-.889-.934.889.889,0,0,0-.954.831Z" transform="translate(-76.485 -186.321)" fill="#263238"/>
      <path id="Trazado_217615" data-name="Trazado 217615" d="M132.994,211.466c.11.122.812-.393,1.8-.393s1.72.5,1.83.38-.064-.271-.38-.5a2.577,2.577,0,0,0-1.463-.451,2.448,2.448,0,0,0-1.437.464C133.052,211.189,132.949,211.408,132.994,211.466Z" transform="translate(-75.981 -184.669)" fill="#263238"/>
      <path id="Trazado_217616" data-name="Trazado 217616" d="M140.614,219.576a6.444,6.444,0,0,0-1.6-.29c-.258,0-.5-.077-.541-.251a1.288,1.288,0,0,1,.174-.747c.232-.612.483-1.256.747-1.933a33.208,33.208,0,0,0,1.675-5.045,33.417,33.417,0,0,0-2.081,4.9q-.377,1.015-.715,1.933a1.456,1.456,0,0,0-.129.992.644.644,0,0,0,.412.367,2,2,0,0,0,.432.064,6.392,6.392,0,0,0,1.63.013Z" transform="translate(-77.803 -184.957)" fill="#263238"/>
      <path id="Trazado_217617" data-name="Trazado 217617" d="M140.94,240.927a18.323,18.323,0,0,0,9.619-2.577s-2.538,5.154-9.729,4.51Z" transform="translate(-78.772 -194.575)" fill="#ff9a6c"/>
      <path id="Trazado_217618" data-name="Trazado 217618" d="M144.807,225.2c-.161,0-.161,1.07-1.082,1.83s-2.062.644-2.075.8.258.206.741.219a2.68,2.68,0,0,0,1.733-.6,2.352,2.352,0,0,0,.838-1.54C145,225.458,144.884,225.193,144.807,225.2Z" transform="translate(-79.064 -189.898)" fill="#263238"/>
      <path id="Trazado_217619" data-name="Trazado 217619" d="M133.62,205.754c.168.238.928.077,1.817.155s1.624.3,1.817.084c.084-.1,0-.341-.322-.586a2.68,2.68,0,0,0-1.437-.5,2.577,2.577,0,0,0-1.482.309C133.678,205.413,133.549,205.638,133.62,205.754Z" transform="translate(-76.201 -182.674)" fill="#263238"/>
      <path id="Trazado_217620" data-name="Trazado 217620" d="M150.836,216.769a.928.928,0,0,1-.921.9A.883.883,0,0,1,149,216.8a.928.928,0,0,1,.921-.9.876.876,0,0,1,.915.87Z" transform="translate(-81.678 -186.589)" fill="#263238"/>
      <path id="Trazado_217621" data-name="Trazado 217621" d="M152.051,212.016c-.122.116-.8-.425-1.791-.464s-1.733.438-1.836.309.071-.264.4-.483a2.5,2.5,0,0,1,1.475-.4,2.455,2.455,0,0,1,1.417.515C152.006,211.739,152.109,211.964,152.051,212.016Z" transform="translate(-81.463 -184.838)" fill="#263238"/>
      <path id="Trazado_217622" data-name="Trazado 217622" d="M152.418,206.822c-.206.219-.96-.045-1.875-.09s-1.707.09-1.875-.155c-.077-.116.058-.335.406-.535a2.977,2.977,0,0,1,3.022.193C152.412,206.48,152.508,206.712,152.418,206.822Z" transform="translate(-81.553 -182.968)" fill="#263238"/>
      <path id="Trazado_217623" data-name="Trazado 217623" d="M163.41,220.246c0-.535.644-1.8,1.147-1.875,1.411-.225,3.956-.11,3.982,3.473,0,4.9-4.89,3.917-4.9,3.782S163.41,222.1,163.41,220.246Z" transform="translate(-86.804 -187.444)" fill="#ffbf9d"/>
      <path id="Trazado_217624" data-name="Trazado 217624" d="M165.837,224.718a1.486,1.486,0,0,0,.232.122.85.85,0,0,0,.644,0,2.1,2.1,0,0,0,.96-1.933,2.744,2.744,0,0,0-.245-1.218.986.986,0,0,0-.644-.644.432.432,0,0,0-.5.238c-.064.135-.032.232-.058.238s-.11-.077-.071-.283a.515.515,0,0,1,.193-.3.644.644,0,0,1,.47-.129,1.2,1.2,0,0,1,.9.754,2.873,2.873,0,0,1,.3,1.359,2.164,2.164,0,0,1-1.231,2.126.915.915,0,0,1-.78-.129C165.843,224.834,165.818,224.725,165.837,224.718Z" transform="translate(-87.666 -188.333)" fill="#ff9a6c"/>
      <path id="Trazado_217625" data-name="Trazado 217625" d="M128.77,201.187a2.854,2.854,0,0,0,1.559-2.622c.644.193,1.321-.644,1.7-1.218s.857-.857.825-1.54a.735.735,0,0,1,.052-.393c.1-.193.329-.251.535-.316a3.273,3.273,0,0,0,2.158-2.281,6.829,6.829,0,0,0,3.357.554,2.654,2.654,0,0,0,4.51-.193,2.371,2.371,0,0,0,1.591,1.173,6.9,6.9,0,0,0,2.029.11,2.8,2.8,0,0,0,1.849,3.183c.174.052.374.11.451.271a.722.722,0,0,1-.071.548,2.21,2.21,0,0,0,1.475,2.816,1.649,1.649,0,0,0,.155,2.577c.174.1.406.232.38.438a.451.451,0,0,1-.11.213,3.221,3.221,0,0,0-.773,1.617,1.179,1.179,0,0,0,.973,1.289,1.585,1.585,0,0,0-.644,1.076c0,.425.425.857.825.7a27.369,27.369,0,0,0,2.712-.689c1.385-1.881-.354-3.956-.5-6.288a15.147,15.147,0,0,0-2.113-6.617,11.192,11.192,0,0,0-1.74-2.365,14.566,14.566,0,0,0-2.693-1.978,13.413,13.413,0,0,0-3.924-1.875c-2.648-.644-5.393.335-7.854,1.475a11.468,11.468,0,0,0-2.661,1.566,10.386,10.386,0,0,0-2.242,2.925,12.886,12.886,0,0,0-1.772,5.013" transform="translate(-74.482 -177.082)" fill="#263238"/>
      <path id="Trazado_217626" data-name="Trazado 217626" d="M127.28,197.728a1.74,1.74,0,0,1,.264-.522c.1-.161.251-.354.387-.6a2.255,2.255,0,0,0,.277-.908,7.086,7.086,0,0,0,0-1.218,5.277,5.277,0,0,1,.039-1.45,4.072,4.072,0,0,1,1.25-2.236,6.331,6.331,0,0,1,.773-.573,2.963,2.963,0,0,0,.747-.644,3.982,3.982,0,0,0,.464-.921,6.444,6.444,0,0,1,1.192-1.888,6.3,6.3,0,0,1,1.9-1.456,5.629,5.629,0,0,1,1.179-.445,5.071,5.071,0,0,1,1.289-.142c.219,0,.438.032.644.052s.438.084.644.122a3.222,3.222,0,0,0,1.289,0c.445-.084.87-.245,1.327-.354a8.376,8.376,0,0,1,2.822-.251,7.409,7.409,0,0,1,1.437.264,4.884,4.884,0,0,1,2.461,1.63l.18.245h-.077a5.676,5.676,0,0,1,6.572,4.214l-.039-.052a16.006,16.006,0,0,1,1.714.908,5.244,5.244,0,0,1,1.4,1.289,3.4,3.4,0,0,1,.644,1.694,2.32,2.32,0,0,1-.47,1.656v-.084a4.021,4.021,0,0,1,1.121,2.519,4.136,4.136,0,0,1-.509,2.429,3.741,3.741,0,0,1-.329.483c-.116.148-.238.29-.335.438a1.018,1.018,0,0,0-.174.483,2.623,2.623,0,0,0,0,.5,8.326,8.326,0,0,1-.058,1.862,3.866,3.866,0,0,1-.483,1.411,2.268,2.268,0,0,1-.767.792c-.251.168-.477.232-.6.322a1.732,1.732,0,0,0-.18.148.56.56,0,0,1,.168-.161c.129-.1.348-.168.593-.335a2.468,2.468,0,0,0,.741-.792,3.923,3.923,0,0,0,.457-1.4,7.855,7.855,0,0,0,.039-1.843,2.782,2.782,0,0,1,0-.522,1.134,1.134,0,0,1,.187-.522,4.305,4.305,0,0,1,.341-.445,4.547,4.547,0,0,0,.309-.47,4.072,4.072,0,0,0,.49-2.377,3.962,3.962,0,0,0-1.1-2.442l-.039-.039.032-.039a2.2,2.2,0,0,0,.438-1.572,3.221,3.221,0,0,0-.644-1.617,5.2,5.2,0,0,0-1.366-1.224,16.3,16.3,0,0,0-1.7-.9h0v-.039a5.547,5.547,0,0,0-6.4-4.1h-.045l-.032-.045-.174-.232a4.723,4.723,0,0,0-2.39-1.578,7.6,7.6,0,0,0-1.4-.264,8.594,8.594,0,0,0-1.411,0,8.078,8.078,0,0,0-1.366.238c-.445.11-.876.264-1.327.354a3.524,3.524,0,0,1-.689.071,4.64,4.64,0,0,1-.644-.077c-.226-.039-.438-.09-.644-.122a4.206,4.206,0,0,0-.644-.052,5.057,5.057,0,0,0-1.25.135,5.894,5.894,0,0,0-1.153.432,6.23,6.23,0,0,0-1.868,1.424,6.443,6.443,0,0,0-1.179,1.849,3.982,3.982,0,0,1-.483.947,3.106,3.106,0,0,1-.773.644,6.9,6.9,0,0,0-.767.561,4.167,4.167,0,0,0-.593.676,4.007,4.007,0,0,0-.644,1.5,5.464,5.464,0,0,0-.052,1.437,7.013,7.013,0,0,1,0,1.218,2.346,2.346,0,0,1-.3.934c-.142.245-.3.432-.4.586a2.97,2.97,0,0,0-.225.374Z" transform="translate(-73.952 -175.337)" fill="#455a64"/>
      <path id="Trazado_217627" data-name="Trazado 217627" d="M151.516,185.625s-.129-.071-.367-.187a3.222,3.222,0,0,0-1.063-.316,3.06,3.06,0,0,0-1.611.232,3.17,3.17,0,0,0-1.469,1.289,2.467,2.467,0,0,0-.245.554.644.644,0,0,0,.032.515l.122.168-.2-.058a2.017,2.017,0,0,0-1.514.18,1.933,1.933,0,0,0-.831.9,2.1,2.1,0,0,0-.193.805,2.385,2.385,0,0,1,0,.309.258.258,0,0,1,0-.077,1.457,1.457,0,0,1,0-.232,1.933,1.933,0,0,1,.161-.844,2.01,2.01,0,0,1,.85-.973,2.145,2.145,0,0,1,1.617-.206l-.077.11a.747.747,0,0,1-.058-.644,2.5,2.5,0,0,1,.258-.586,3.286,3.286,0,0,1,1.54-1.379,3.176,3.176,0,0,1,1.682-.206,3.041,3.041,0,0,1,1.076.367,2.172,2.172,0,0,1,.264.167Z" transform="translate(-79.961 -175.579)" fill="#455a64"/>
      <path id="Trazado_217628" data-name="Trazado 217628" d="M164.27,194.769a1.246,1.246,0,0,1-.168.174,3.22,3.22,0,0,1-.554.38,2.339,2.339,0,0,1-.979.29,1.739,1.739,0,0,1-1.218-.367h.11l-.142.206c-.052.064-.11.122-.168.187a3.035,3.035,0,0,1-2.4.9,2.764,2.764,0,0,1-.767-.174,1.019,1.019,0,0,1-.258-.135,4.3,4.3,0,0,0,1.031.206,3.041,3.041,0,0,0,1.121-.168,2.951,2.951,0,0,0,1.16-.728l.161-.187.135-.187.052-.064.058.052a1.662,1.662,0,0,0,1.115.348,2.454,2.454,0,0,0,.941-.245C164,194.988,164.257,194.743,164.27,194.769Z" transform="translate(-84.784 -179.072)" fill="#455a64"/>
      <path id="Trazado_217629" data-name="Trazado 217629" d="M167.736,201.557v.09a.908.908,0,0,1-.11.238,1.289,1.289,0,0,1-.792.522,2.468,2.468,0,0,1-1.4-.155c-.251-.09-.509-.18-.773-.3a1.366,1.366,0,0,1-.644-.644v-.077l.11.032a5.515,5.515,0,0,1-1.45.87,2.506,2.506,0,0,1-1.379.135,1.72,1.72,0,0,1-.844-.387,1.552,1.552,0,0,1-.18-.18c0-.045-.052-.071-.045-.071a3.115,3.115,0,0,0,.258.206,1.933,1.933,0,0,0,.831.335,2.577,2.577,0,0,0,1.289-.168,5.669,5.669,0,0,0,1.411-.857l.084-.064.032.1v.071a1.288,1.288,0,0,0,.606.548c.251.116.509.213.754.3a2.461,2.461,0,0,0,1.327.187,1.334,1.334,0,0,0,.767-.457A1.451,1.451,0,0,0,167.736,201.557Z" transform="translate(-85.673 -181.318)" fill="#455a64"/>
      <path id="Trazado_217630" data-name="Trazado 217630" d="M176.984,174.7a1.026,1.026,0,0,0-.232.039,1.166,1.166,0,0,0-.548.354,1.527,1.527,0,0,0-.367.934,4.266,4.266,0,0,0,.18,1.334v.084h-.084a2.8,2.8,0,0,0-1.694.515,2.165,2.165,0,0,0-.934,1.714,2.023,2.023,0,0,0,.709,1.63l.167.129h-.213a2.532,2.532,0,0,0-1.856.812,2.474,2.474,0,0,0-.644,1.5,2.635,2.635,0,0,0,.168,1.082c.09.245.167.361.155.367s0,0-.058-.084a1.288,1.288,0,0,1-.142-.264,2.519,2.519,0,0,1,.419-2.687,2.635,2.635,0,0,1,1.933-.87l-.045.129a2.171,2.171,0,0,1-.773-1.752,2.255,2.255,0,0,1,.3-1.05,2.384,2.384,0,0,1,.7-.773,2.9,2.9,0,0,1,1.785-.522l-.064.077a4.6,4.6,0,0,1-.161-1.372,1.6,1.6,0,0,1,.419-.979,1.082,1.082,0,0,1,.593-.335.645.645,0,0,1,.18,0Z" transform="translate(-89.638 -171.934)" fill="#455a64"/>
      <path id="Trazado_217631" data-name="Trazado 217631" d="M186.385,190.631l-.077.045a2.538,2.538,0,0,1-.245.11,3.434,3.434,0,0,1-.986.226,4,4,0,0,1-1.54-.187,3.692,3.692,0,0,1-1.649-1.089H182a3.112,3.112,0,0,1-2.2,1.508,2.365,2.365,0,0,1-2.435-1.289h.122a1.971,1.971,0,0,1-.586.831,2.577,2.577,0,0,1-.805.451,3.6,3.6,0,0,1-1.495.155,8.314,8.314,0,0,1-.96-.155,1.8,1.8,0,0,1-.335-.1l.341.052c.226.032.548.09.96.116a3.621,3.621,0,0,0,1.45-.174,2.133,2.133,0,0,0,1.289-1.224l.058-.161.071.155a2.229,2.229,0,0,0,2.294,1.211,2.983,2.983,0,0,0,2.107-1.43l.052-.084.058.077a3.692,3.692,0,0,0,1.585,1.063,3.943,3.943,0,0,0,1.495.213,4.509,4.509,0,0,0,1.327-.322Z" transform="translate(-90.322 -177.234)" fill="#455a64"/>
      <path id="Trazado_217632" data-name="Trazado 217632" d="M181.558,199.906s0,.039-.058.09a.464.464,0,0,1-.277.122,2.287,2.287,0,0,1-1.082-.18,2.687,2.687,0,0,1-1.243-1.044,2.732,2.732,0,0,1-.354-1.933h0l.11.084a3.183,3.183,0,0,1-1.965.264,3.556,3.556,0,0,1-1.488-.644,3.982,3.982,0,0,1-.78-.76,1.333,1.333,0,0,1-.219-.335,5.979,5.979,0,0,0,1.057,1.012,3.589,3.589,0,0,0,1.45.593,3.074,3.074,0,0,0,1.875-.264l.135-.064v.148h0a2.635,2.635,0,0,0,.329,1.849,2.577,2.577,0,0,0,1.173,1.018,2.365,2.365,0,0,0,1.031.219.5.5,0,0,0,.309-.174Z" transform="translate(-90.642 -179.358)" fill="#455a64"/>
      <path id="Trazado_217633" data-name="Trazado 217633" d="M163.3,174.94a4.208,4.208,0,0,0-.226,1.508,3.473,3.473,0,0,0,.47,1.559,3.389,3.389,0,0,0,2.609,1.6h.064v.084a4.348,4.348,0,0,0-.187,1.585,4.511,4.511,0,0,0,.277,1.243,4.118,4.118,0,0,0,.2.438.374.374,0,0,0,.258.2.238.238,0,0,0,.2-.064c.032,0,.039-.058.045-.058s0,.032,0,.077a.251.251,0,0,1-.219.09.4.4,0,0,1-.316-.206,2.575,2.575,0,0,1-.225-.445,4.058,4.058,0,0,1-.316-1.289,4.278,4.278,0,0,1,.167-1.63l.064.09a3.408,3.408,0,0,1-3.015-4.42,2.652,2.652,0,0,1,.116-.29Q163.3,174.94,163.3,174.94Z" transform="translate(-86.657 -172.02)" fill="#455a64"/>
      <path id="Trazado_217634" data-name="Trazado 217634" d="M153.044,216.489v-.78l-7.841-2.526h0c-2.8-1.2-6.784-.5-9.13.941l-2.036.052h0a9.63,9.63,0,0,0-9.3-.883l.077.329h0v.135l.064.3c.412,1.8.9,3.711,1.379,4.22a5.019,5.019,0,0,0,2.313.644c.341.039.644.064.876.077s2.648.167,3.06-.2,1.2-3.305,1.417-4.194l2.087-.045c.245.7.644,3.866,1.675,4.465s5.386.438,5.882-.3a33.06,33.06,0,0,0,1.856-4.562l.045-.084ZM132.33,218.46c-.438.348-5.187.1-5.753-.49s-1.057-3.073-1.289-4.046v-.039c2.712-1.031,6.25-.7,8.273.857a17.188,17.188,0,0,1-1.231,3.718Zm11,0c-.309.464-4.362.831-5.4.18-.715-.445-1.1-2.635-1.417-3.866,2.287-1.366,6.2-1.933,8.679-.709a26.6,26.6,0,0,1-1.862,4.394Z" transform="translate(-73.049 -185.381)" fill="#263238"/>
      <g id="Grupo_149322" data-name="Grupo 149322" transform="translate(63.888 28.338)" opacity="0.3">
        <path id="Trazado_217635" data-name="Trazado 217635" d="M143.67,215.679s.425,3.067,1.289,3.221,1.933-4.51,1.933-4.51S144.224,214.925,143.67,215.679Z" transform="translate(-143.67 -214.39)" fill="#fff"/>
      </g>
      <g id="Grupo_149323" data-name="Grupo 149323" transform="translate(52.587 28.116)" opacity="0.3">
        <path id="Trazado_217636" data-name="Trazado 217636" d="M126.13,214.577s.432,3.479,1.289,3.621,2.661-4.1,2.661-4.1S126.691,213.823,126.13,214.577Z" transform="translate(-126.13 -214.047)" fill="#fff"/>
      </g>
      <path id="Trazado_217637" data-name="Trazado 217637" d="M199.02,227.687s-1.566-2.216-2.519-1.868-2.158,1.411-2.216,2.236.271,1.521.644,1.437a6.05,6.05,0,0,0,1.353-.947l1.5,1.6-.251,2.307-1.218.857-.966-1.463.064-1.8s-.992-.644-1.289.85-.522,4.1,1.07,5.154a41.178,41.178,0,0,0,4.51,2.332l6.34-1.424.5-7.777s2.2-2.957,2.223-4.04-.29-4.362-.29-4.362a.773.773,0,0,0-1.166.49,19.875,19.875,0,0,0-.393,3.647l-1.856,2.365-.432-9.387s-1.4-.644-1.643,1.5-.116,7.384-.374,7.416-1.044.142-1.076-.947-1.527-9.3-1.527-9.3a2.17,2.17,0,0,0-1.443,2.39c.354,1.746,1.037,7.2,1.063,7.609S199.02,227.687,199.02,227.687Z" transform="translate(-97.654 -186.824)" fill="#ffbf9d"/>
      <path id="Trazado_217638" data-name="Trazado 217638" d="M204.021,244.367a5.808,5.808,0,0,1-.457-.586,4.265,4.265,0,0,0-2.983-1.6,4.109,4.109,0,0,1-.741-.052,1.34,1.34,0,0,1,.747-.135,3.7,3.7,0,0,1,3.157,1.688C204,244.064,204.054,244.354,204.021,244.367Z" transform="translate(-99.763 -195.869)" fill="#ff9a6c"/>
      <path id="Trazado_217639" data-name="Trazado 217639" d="M193.4,249.149l2.152,14.129-9.162-8.376a26.461,26.461,0,0,0-6.482-4.136h-.283l-.754,16.7c4,3.163,7.7,4.768,12.2,7.893a54.121,54.121,0,0,0,6.72,3.666c2.4,1.2,6.217,1.881,8.788-1.031,3.589-4.072,1.044-9.664-1.07-16.268-2.345-7.338-3.988-14.516-3.988-14.516Z" transform="translate(-92.303 -197.727)" fill="#455a64"/>
      <path id="Trazado_217640" data-name="Trazado 217640" d="M206.9,278.321a14.308,14.308,0,0,1-1.231-3.176,14.577,14.577,0,0,1-.754-3.324,25.863,25.863,0,0,1,1.05,3.221A27.7,27.7,0,0,1,206.9,278.321Z" transform="translate(-101.57 -206.481)" fill="#263238"/>
      <path id="Trazado_217641" data-name="Trazado 217641" d="M90.265,443.56l2.712,7.97s-11.462,8.691-10.888,11.12l24.979-7.545-4.1-15.766Z" transform="translate(-57.87 -266.07)" fill="#263238"/>
      <path id="Trazado_217642" data-name="Trazado 217642" d="M107.02,462.675l-.535-2.055-23.864,8.034s-.966.825-.606,1.566Z" transform="translate(-57.822 -273.639)" fill="#455a64"/>
      <path id="Trazado_217643" data-name="Trazado 217643" d="M98.328,458.081c.039.122.644,0,1.385.2s1.192.644,1.289.548-.3-.734-1.173-.973S98.27,457.978,98.328,458.081Z" transform="translate(-63.653 -272.628)" fill="#455a64"/>
      <path id="Trazado_217644" data-name="Trazado 217644" d="M94.769,461.093c0,.129.6.174,1.173.567s.85.9.973.857,0-.754-.728-1.231S94.737,460.99,94.769,461.093Z" transform="translate(-62.388 -273.765)" fill="#455a64"/>
      <path id="Trazado_217645" data-name="Trazado 217645" d="M93.051,465.712c.122,0,.11-.644-.406-1.237s-1.166-.644-1.185-.554.438.367.85.85S92.929,465.738,93.051,465.712Z" transform="translate(-61.21 -274.801)" fill="#455a64"/>
      <path id="Trazado_217646" data-name="Trazado 217646" d="M97.284,453.078c.084.1.593-.245,1.289-.406s1.289-.1,1.34-.232-.612-.4-1.443-.2S97.193,453,97.284,453.078Z" transform="translate(-63.278 -270.633)" fill="#455a64"/>
      <path id="Trazado_217647" data-name="Trazado 217647" d="M82.024,411.2,67.25,365.24s.709-7.512,2.191-9.832,44.037-14.438,44.037-14.438,10.8-2.133,17.821.741,14.136,6.346,13.221,11.32a13.873,13.873,0,0,1-.644,2.223,18.188,18.188,0,0,1-17.3,11.6l-5.573.393L92.48,371.47a2.171,2.171,0,0,0-1.785,2.687L98.569,405S88.389,409.483,82.024,411.2Z" transform="translate(-52.599 -230.808)" fill="#263238"/>
      <path id="Trazado_217648" data-name="Trazado 217648" d="M60.951,413l-1.765,8.956s-14.1,2.912-14.625,5.354l25.771,3.93,3.086-16Z" transform="translate(-44.528 -256.7)" fill="#263238"/>
      <path id="Trazado_217649" data-name="Trazado 217649" d="M70.3,438.493l.251-2.1L45.728,433.41s-1.224.322-1.218,1.153Z" transform="translate(-44.51 -263.961)" fill="#455a64"/>
      <path id="Trazado_217650" data-name="Trazado 217650" d="M66.59,426.551c0,.122.606.277,1.166.78s.805,1.076.928,1.044.045-.786-.644-1.379S66.577,426.428,66.59,426.551Z" transform="translate(-52.364 -261.495)" fill="#455a64"/>
      <path id="Trazado_217651" data-name="Trazado 217651" d="M62.128,427.661c-.052.116.464.419.812,1.012s.38,1.185.509,1.2.316-.689-.129-1.424S62.147,427.546,62.128,427.661Z" transform="translate(-50.776 -261.904)" fill="#455a64"/>
      <path id="Trazado_217652" data-name="Trazado 217652" d="M58.621,431.065c.11.045.38-.554.161-1.289s-.767-1.1-.838-1.005.238.522.412,1.128S58.479,431.039,58.621,431.065Z" transform="translate(-49.285 -262.305)" fill="#455a64"/>
      <path id="Trazado_217653" data-name="Trazado 217653" d="M67.659,421.763c.039.122.644.039,1.347.193s1.224.47,1.289.367-.387-.644-1.218-.8S67.614,421.654,67.659,421.763Z" transform="translate(-52.743 -259.717)" fill="#455a64"/>
      <path id="Trazado_217654" data-name="Trazado 217654" d="M76.1,332.523a7.406,7.406,0,0,0-8.208,6.829C66.77,347.045,63.6,385.69,63.6,385.69l16.8,3.054L85.184,348.4l27-10.186S80.886,331.73,76.1,332.523Z" transform="translate(-51.301 -228.05)" fill="#263238"/>
      <path id="Trazado_217655" data-name="Trazado 217655" d="M126.6,322.716s-4.51,8.627-3.737,10.006,11.655,7.4,11.655,7.4l27.356,11.829a23.278,23.278,0,0,0,3.337-11.4c.29-6.978-9.11-19.1-9.11-19.1Z" transform="translate(-72.349 -224.139)" fill="#263238"/>
      <path id="Trazado_217656" data-name="Trazado 217656" d="M164.37,341.734a3.8,3.8,0,0,1-.773-.245l-2.062-.76a46.444,46.444,0,0,0-6.933-2.062,20.512,20.512,0,0,0-7.177-.206,29.127,29.127,0,0,0-2.906.715,3.313,3.313,0,0,1,.734-.335,12.711,12.711,0,0,1,2.133-.593,19.179,19.179,0,0,1,7.274.116,38.553,38.553,0,0,1,6.952,2.158c.863.348,1.553.644,2.03.857a3.871,3.871,0,0,1,.728.354Z" transform="translate(-80.085 -230.006)" fill="#455a64"/>
      <path id="Trazado_217657" data-name="Trazado 217657" d="M160.939,333.464a21.954,21.954,0,0,0-2.429-.116c-.754,0-1.649.1-2.642.174s-2.088.168-3.221.329a14.915,14.915,0,0,0-5.534,1.8,17.985,17.985,0,0,0-1.933,1.443,2.017,2.017,0,0,1,.425-.509,8.752,8.752,0,0,1,1.411-1.121,13.955,13.955,0,0,1,5.605-1.933c1.147-.174,2.249-.251,3.221-.309s1.894-.116,2.661-.11a9.945,9.945,0,0,1,1.791.155A2.108,2.108,0,0,1,160.939,333.464Z" transform="translate(-80.32 -228.282)" fill="#455a64"/>
      <path id="Trazado_217658" data-name="Trazado 217658" d="M87.228,419.64c.09,0-.438,3.157-1.179,7.01s-1.424,6.965-1.514,6.945.438-3.157,1.179-7.01S87.137,419.627,87.228,419.64Z" transform="translate(-58.744 -259.062)" fill="#455a64"/>
      <path id="Trazado_217659" data-name="Trazado 217659" d="M114.245,340.89a.276.276,0,0,0-.129.064l-.4.168-1.546.606-5.8,2.249-20.2,7.686.1-.122c-.6,4.239-1.25,8.865-1.933,13.672-1.437,10.044-2.764,19.3-3.808,26.545v.142h-.135l-12.241-2.281-3.363-.644-.876-.18a1.747,1.747,0,0,1-.3-.071l.3.032.889.142,3.37.58,12.241,2.165-.155.116c1.024-7.261,2.326-16.513,3.743-26.564.683-4.806,1.347-9.426,1.933-13.665v-.1l.084-.032,20.237-7.577,5.85-2.158,1.559-.561.451-.142Z" transform="translate(-51.304 -231.05)" fill="#455a64"/>
      <path id="Trazado_217660" data-name="Trazado 217660" d="M148.726,252.618s-1.656-2.687-3.4-3.473l-9.916-2.481-1.469-3.995-10.392,4.787-1.765,5.425v-5.2l-3.1-2.39-1.63,1.733-4.9,1.2v.045c-.3.084-6.72,2.081-8.1,7.422-2.242,8.646-9.3,33.664-9.3,33.664L80,300.521l7.023,3.569s13.375-3.827,16.751-7.976c2.667-3.3,5.76-11.713,6.765-15.888,0,1.057-.367,2.983-.5,6.159-.206,4.761-2.519,10.309.573,10.418s33,.155,33,.155,2.577.251,1.256-7.815C144.216,285.174,148.726,252.618,148.726,252.618Z" transform="translate(-57.134 -196.112)" fill="#455a64"/>
      <path id="Trazado_217661" data-name="Trazado 217661" d="M136.92,250.31a10.7,10.7,0,0,1,.786,1.643c.464,1.018,1.044,2.474,1.791,3.988l.052.1h-.271c.689-1.521,1.153-2.97,1.533-4a10.626,10.626,0,0,1,.644-1.656,9.483,9.483,0,0,1-.438,1.72,32.62,32.62,0,0,1-1.456,4.059l-.129.284-.148-.264-.064-.116c-.767-1.566-1.289-3.009-1.72-4.053A10.309,10.309,0,0,1,136.92,250.31Z" transform="translate(-77.381 -198.83)" fill="#263238"/>
      <path id="Trazado_217662" data-name="Trazado 217662" d="M157.763,249a3.107,3.107,0,0,1-.593.464l-1.694,1.173c-1.437.979-3.434,2.307-5.644,3.769l-2.629,1.682-.219.142v-.245c-.129-1.83-.226-3.4-.283-4.51,0-.509-.039-.941-.058-1.289a2.065,2.065,0,0,1,0-.47,1.65,1.65,0,0,1,.084.464c.039.354.09.78.142,1.289.11,1.108.245,2.674.393,4.51l-.226-.11,2.616-1.733c2.216-1.456,4.233-2.764,5.7-3.692l1.746-1.1a4.291,4.291,0,0,1,.664-.348Z" transform="translate(-80.835 -198.364)" fill="#263238"/>
      <path id="Trazado_217663" data-name="Trazado 217663" d="M124.408,302.658a1.837,1.837,0,0,1-.135-.251,3.944,3.944,0,0,1-.225-.78,18.264,18.264,0,0,1-.277-3.009c0-1.289,0-2.835.084-4.574s.142-3.685.226-5.76l.039.1a13.189,13.189,0,0,1-2.758-4.272,12.41,12.41,0,0,1-.883-3.866,15.515,15.515,0,0,1,.238-3.666,52.317,52.317,0,0,1,1.643-5.985,38.093,38.093,0,0,0,1.057-4.027c.187-.96.232-1.508.264-1.5a1.649,1.649,0,0,1,0,.393,11.315,11.315,0,0,1-.135,1.128,31.627,31.627,0,0,1-.96,4.065A55.83,55.83,0,0,0,121,276.622a15.727,15.727,0,0,0-.219,3.6,12.4,12.4,0,0,0,.87,3.769,12.885,12.885,0,0,0,2.693,4.181l.039.045v.064c-.1,2.075-.187,4.014-.271,5.76s-.155,3.279-.148,4.562a20.948,20.948,0,0,0,.187,2.99A6.85,6.85,0,0,0,124.408,302.658Z" transform="translate(-71.525 -204.08)" fill="#263238"/>
      <path id="Trazado_217664" data-name="Trazado 217664" d="M140.147,300.195a2.29,2.29,0,0,1-.052-.425l-.077-1.218c-.071-1.05-.135-2.577-.193-4.471-.116-3.782-.135-9.02.116-14.78s.741-10.985,1.185-14.741c.219-1.881.425-3.4.586-4.446.077-.5.135-.9.187-1.2a3.092,3.092,0,0,1,.084-.419,1.771,1.771,0,0,1,0,.425c-.039.309-.077.709-.135,1.211-.116,1.089-.283,2.577-.483,4.452-.393,3.763-.838,8.968-1.089,14.735s-.271,10.953-.213,14.761c.039,1.862.071,3.383.1,4.478v1.218A2.173,2.173,0,0,1,140.147,300.195Z" transform="translate(-78.385 -201.739)" fill="#263238"/>
      <path id="Trazado_217665" data-name="Trazado 217665" d="M160.975,298.637a3.472,3.472,0,0,1-.419.213,8.726,8.726,0,0,1-1.218.425,13.891,13.891,0,0,1-8.421-.329,9.54,9.54,0,0,1-1.179-.515c-.271-.142-.412-.232-.4-.251s.644.238,1.649.567a15.624,15.624,0,0,0,8.292.322C160.331,298.824,160.956,298.585,160.975,298.637Z" transform="translate(-81.799 -215.857)" fill="#263238"/>
      <path id="Trazado_217666" data-name="Trazado 217666" d="M176.276,264.818a2.742,2.742,0,0,1-.367-.432,8.378,8.378,0,0,1-.76-1.327,9.91,9.91,0,0,1-.9-4.955,7.087,7.087,0,0,1,2.1-4.549,3.376,3.376,0,0,1,1.34-.76,1.379,1.379,0,0,1,.561-.077,4.626,4.626,0,0,0-1.74,1.012,7.235,7.235,0,0,0-1.933,4.407,10.547,10.547,0,0,0,.773,4.826C175.851,264.135,176.322,264.786,176.276,264.818Z" transform="translate(-90.651 -199.685)" fill="#263238"/>
      <path id="Trazado_217667" data-name="Trazado 217667" d="M61.4,290.049,96.717,291.8a2.224,2.224,0,0,1,2.345,1.785l2.79,25.913,18.2.754a1.063,1.063,0,1,1-.09,2.12l-17.879-.741-3.4-.142-36.847-1.527-2.848-27.369a2.319,2.319,0,0,1,2.41-2.545Z" transform="translate(-49.658 -212.964)" fill="#e0e0e0"/>
      <path id="Trazado_217668" data-name="Trazado 217668" d="M61.391,290.039a1.849,1.849,0,0,0-.561.032A2.332,2.332,0,0,0,58.962,292a6.352,6.352,0,0,0,.071,1.463c.1,1.044.219,2.249.361,3.608.548,5.425,1.347,13.253,2.326,22.879v.09h.1l56.382,2.371,1.521.064a1.488,1.488,0,0,0,.805-.116,1.2,1.2,0,0,0,.084-2.107,1.5,1.5,0,0,0-.792-.18l-.747-.032-5.9-.245-11.333-.47.135.129c-1.012-9.284-1.933-17.937-2.79-25.707a2,2,0,0,0-.6-1.372,2.654,2.654,0,0,0-1.327-.644,12.087,12.087,0,0,0-1.424-.11l-1.385-.064-5.315-.258-9.452-.451-13.453-.644-3.6-.155-.928-.032h-.316l.316.032.928.058,3.6.2,13.453.709,9.445.483,5.322.271,1.385.071a12.176,12.176,0,0,1,1.385.109,2.436,2.436,0,0,1,1.211.593,1.753,1.753,0,0,1,.522,1.231l2.751,25.707v.116h.122l11.327.477,5.908.245.747.032a1.121,1.121,0,0,1,.644.142.915.915,0,0,1-.064,1.6,1.186,1.186,0,0,1-.644.09l-1.514-.064-56.388-2.307.1.1c-1.018-9.593-1.843-17.415-2.423-22.821q-.213-2.042-.387-3.608a6.636,6.636,0,0,1-.084-1.437,2.242,2.242,0,0,1,.457-1.082,2.293,2.293,0,0,1,1.34-.844A1.907,1.907,0,0,1,61.391,290.039Z" transform="translate(-49.646 -212.955)" fill="#263238"/>
      <path id="Trazado_217669" data-name="Trazado 217669" d="M90.1,312.725a2.21,2.21,0,1,1-.581-1.594A2.216,2.216,0,0,1,90.1,312.725Z" transform="translate(-59.152 -220.21)" fill="#fff"/>
      <path id="Trazado_217670" data-name="Trazado 217670" d="M121.158,322.291c-.052,0-.9-6.6-1.933-14.748s-1.772-14.767-1.727-14.774.9,6.6,1.933,14.754S121.21,322.285,121.158,322.291Z" transform="translate(-70.472 -213.933)" fill="#263238"/>
    </g>
  </g>
</svg>
