<svg xmlns="http://www.w3.org/2000/svg" width="96.378" height="128.591" viewBox="0 0 96.378 128.591">
  <g id="mujer_1_" data-name="mujer (1)" transform="translate(-19.239)">
    <path id="Trazado_218653" data-name="Trazado 218653" d="M42.8,100.062S28.7,73.493,28.7,46.208h0C28.7,31,36.756,17.517,50.849,9.464h12.08v90.6Z" transform="translate(-1.541 -1.541)" fill="#5a4650"/>
    <path id="Trazado_218654" data-name="Trazado 218654" d="M98.665,96.874S114.771,70.7,114.771,44.529h0A42.279,42.279,0,0,0,72.493,2.25H68.466C58.4,2.25,50.347,8.56,50.347,16.343h0A8.053,8.053,0,0,0,58.4,24.4h8.053V96.874Z" transform="translate(-5.065 -0.366)" fill="#64505a"/>
    <g id="Grupo_149388" data-name="Grupo 149388" transform="translate(35.215 52.216)">
      <path id="Trazado_218655" data-name="Trazado 218655" d="M46.376,74.451a4.026,4.026,0,0,1-8.053,0c0-4.026,4.026-12.08,4.026-12.08S46.376,70.424,46.376,74.451Z" transform="translate(-38.323 -62.371)" fill="#ffe17d"/>
      <path id="Trazado_218656" data-name="Trazado 218656" d="M113.711,74.451a4.026,4.026,0,0,1-8.053,0c0-4.026,4.027-12.08,4.027-12.08S113.711,70.424,113.711,74.451Z" transform="translate(-49.286 -62.371)" fill="#ffe17d"/>
    </g>
    <path id="Trazado_218657" data-name="Trazado 218657" d="M106.04,114.166l-20.793-7.339a8.053,8.053,0,0,1-5.373-7.594V88.824H55.714V99.233a8.053,8.053,0,0,1-5.373,7.594l-20.794,7.339a12.08,12.08,0,0,0-8.059,11.391v15.613H114.1V125.557A12.079,12.079,0,0,0,106.04,114.166Z" transform="translate(-0.366 -14.462)" fill="#e3aa75"/>
    <path id="Trazado_218658" data-name="Trazado 218658" d="M74.45,98.89a29.805,29.805,0,0,0,12.08-2.576v-7.49H62.371v7.49A29.8,29.8,0,0,0,74.45,98.89Z" transform="translate(-7.023 -14.462)" fill="#d29b6e"/>
    <path id="Trazado_218659" data-name="Trazado 218659" d="M99.336,48.836h-3.02V40.783A12.08,12.08,0,0,0,84.236,28.7H56.05a12.08,12.08,0,0,0-12.08,12.08v8.053h-3.02a5.033,5.033,0,1,0,0,10.066h3.122a26.147,26.147,0,0,0,52.142,0h3.122a5.033,5.033,0,0,0,0-10.066Z" transform="translate(-2.716 -4.673)" fill="#f5b97d"/>
    <path id="Trazado_218660" data-name="Trazado 218660" d="M106.04,118.77l-4.721-1.666a42.169,42.169,0,0,1-67.05,0l-4.721,1.666a12.079,12.079,0,0,0-8.059,11.391v15.613H114.1V130.161A12.08,12.08,0,0,0,106.04,118.77Z" transform="translate(-0.366 -19.067)" fill="#54aa13"/>
    <path id="Trazado_218661" data-name="Trazado 218661" d="M43.97,40.783v8.053H41.238a5.231,5.231,0,0,0-5.294,4.514A5.034,5.034,0,0,0,40.95,58.9h3.122a25.986,25.986,0,0,0,30.11,23.82A26.155,26.155,0,0,1,52.023,56.889V42.8a8.053,8.053,0,0,1,8.053-8.053H82.223a4.027,4.027,0,0,0,4.026-4.026V28.7H56.05A12.08,12.08,0,0,0,43.97,40.783Z" transform="translate(-2.716 -4.673)" fill="#e3aa75"/>
    <path id="Trazado_218662" data-name="Trazado 218662" d="M102.653,117.1a42.169,42.169,0,0,1-67.05,0l-4.721,1.666a11.967,11.967,0,0,0-1.2.532,48.3,48.3,0,0,0,78.893,0,11.944,11.944,0,0,0-1.2-.532Z" transform="translate(-1.7 -19.067)" fill="#f67409"/>
    <path id="Trazado_218663" data-name="Trazado 218663" d="M62,53.116A1.884,1.884,0,0,0,60.121,55v2.013a1.884,1.884,0,1,0,3.767,0V55A1.884,1.884,0,0,0,62,53.116Z" transform="translate(-6.656 -8.648)"/>
    <path id="Trazado_218664" data-name="Trazado 218664" d="M90.862,53.116A1.884,1.884,0,0,0,88.979,55v2.013a1.884,1.884,0,1,0,3.767,0V55A1.884,1.884,0,0,0,90.862,53.116Z" transform="translate(-11.355 -8.648)"/>
    <path id="Trazado_218665" data-name="Trazado 218665" d="M106.3,97.927,95.968,94.28a115.11,115.11,0,0,0,7.415-14.389C110.166,64.2,111.59,51.8,111.59,44.163A44.213,44.213,0,0,0,67.428,0H63.4A22.778,22.778,0,0,0,49.408,4.526,16.584,16.584,0,0,0,45.436,8.9,40.59,40.59,0,0,0,25.278,44.668c0,14.378,3.881,27.684,7.138,36.314a116.534,116.534,0,0,0,6.031,13.454l-9.892,3.491a13.984,13.984,0,0,0-9.316,13.167v15.613a1.884,1.884,0,1,0,3.767,0V111.094a10.212,10.212,0,0,1,6.8-9.615l3.073-1.085c7.212,9.968,20.328,16.116,34.546,16.116a47.644,47.644,0,0,0,18.44-3.662,1.884,1.884,0,1,0-1.47-3.469,43.842,43.842,0,0,1-16.97,3.363c-12.588,0-24.182-5.188-30.822-13.663l14-4.94a9.952,9.952,0,0,0,6.63-9.37V78.354a28.056,28.056,0,0,0,20.392,0V84.77a9.952,9.952,0,0,0,6.63,9.37l14,4.939a32.176,32.176,0,0,1-7.085,6.6,1.884,1.884,0,1,0,2.141,3.1,35.524,35.524,0,0,0,8.667-8.384l3.075,1.085a10.211,10.211,0,0,1,6.8,9.615v15.613a1.884,1.884,0,1,0,3.767,0V111.094A13.985,13.985,0,0,0,106.3,97.927ZM53.464,84.77a6.179,6.179,0,0,1-4.116,5.818l-7.3,2.577c-2.895-5.368-13-25.745-13-48.5a37.7,37.7,0,0,1,4.947-19.136,36.661,36.661,0,0,1,9.465-10.744c-.035.394-.06.79-.06,1.189a9.92,9.92,0,0,0,3.636,7.678,13.975,13.975,0,0,0-7.663,12.455v6.04a.13.13,0,0,1-.13.13H38.235a6.917,6.917,0,0,0-2.112,13.5c-1.254,2.307-2.792,5.707-2.792,8.514a5.907,5.907,0,0,0,10.724,3.423,28.269,28.269,0,0,0,9.409,8.826V84.77ZM37.1,64.3c0-1.8,1.087-4.338,2.143-6.345C40.3,59.957,41.384,62.5,41.384,64.3a2.143,2.143,0,1,1-4.286,0ZM85.507,90.588a6.179,6.179,0,0,1-4.116-5.818V76.544A28.272,28.272,0,0,0,90.8,67.718,5.907,5.907,0,0,0,101.524,64.3c0-2.806-1.538-6.207-2.792-8.514a6.917,6.917,0,0,0-2.112-13.5H95.613a.13.13,0,0,1-.13-.13V36.11A13.979,13.979,0,0,0,81.52,22.146H79.507a1.884,1.884,0,1,0,0,3.767H81.52a10.208,10.208,0,0,1,10.2,10.2v6.04a3.9,3.9,0,0,0,3.9,3.9H96.62a3.15,3.15,0,1,1,0,6.3H95.482c0-.043,0-.086,0-.13a1.884,1.884,0,0,0-3.767,0,24.289,24.289,0,0,1-48.578,0,1.884,1.884,0,1,0-3.767,0c0,.043,0,.086,0,.13H38.235a3.15,3.15,0,0,1,0-6.3h1.007a3.9,3.9,0,0,0,3.9-3.9V36.11a10.208,10.208,0,0,1,10.2-10.2h18.12a1.884,1.884,0,1,0,0-3.767H53.335a6.176,6.176,0,0,1-6.169-6.169c0-6.732,7.283-12.209,16.236-12.209h4.026a40.441,40.441,0,0,1,40.4,40.4c0,23.351-13.342,45.421-15.5,48.832ZM93.471,64.3c0-1.8,1.087-4.338,2.143-6.345,1.056,2.007,2.143,4.545,2.143,6.345a2.143,2.143,0,1,1-4.286,0Z"/>
    <path id="Trazado_218666" data-name="Trazado 218666" d="M79.976,72.688a6.974,6.974,0,0,1-4.717,1.471,6.975,6.975,0,0,1-4.717-1.471A1.884,1.884,0,0,0,67.9,75.369a10.646,10.646,0,0,0,7.363,2.556,10.647,10.647,0,0,0,7.363-2.556,1.884,1.884,0,1,0-2.646-2.682Z" transform="translate(-7.831 -11.747)"/>
    <path id="Trazado_218667" data-name="Trazado 218667" d="M61.184,44.671,58.793,45.8a1.884,1.884,0,1,0,1.613,3.4L62.8,48.076a1.884,1.884,0,0,0-1.613-3.4Z" transform="translate(-6.265 -7.244)"/>
    <path id="Trazado_218668" data-name="Trazado 218668" d="M89.6,48.075,92,49.208a1.884,1.884,0,0,0,1.613-3.4l-2.391-1.132a1.884,1.884,0,1,0-1.613,3.4Z" transform="translate(-11.282 -7.244)"/>
  </g>
</svg>
