<svg xmlns="http://www.w3.org/2000/svg" width="85.801" height="131.847" viewBox="0 0 85.801 131.847">
  <g id="nino" transform="translate(-27.1 -0.25)">
    <g id="Grupo_149402" data-name="Grupo 149402" transform="translate(29.1 2.25)">
      <path id="Trazado_218669" data-name="Trazado 218669" d="M45.562,62.457c0,6.431-3.935,11.644-8.788,11.644S29.1,68.115,29.1,61.683s2.82-10.871,7.673-10.871S45.562,56.026,45.562,62.457Z" transform="translate(-29.1 -9.172)" fill="#ffa78f"/>
      <path id="Trazado_218670" data-name="Trazado 218670" d="M105.3,62.457c0,6.431,3.935,11.644,8.788,11.644s7.673-5.987,7.673-12.418-2.82-10.871-7.673-10.871S105.3,56.026,105.3,62.457Z" transform="translate(-39.962 -9.172)" fill="#ffa78f"/>
      <path id="Trazado_218671" data-name="Trazado 218671" d="M105.064,137.058v4.515h-67.8v-4.515a21.32,21.32,0,0,1,15.455-20.5l8.072-2.309a4.956,4.956,0,0,0,3.593-4.765v-6.973h13.56v6.973a4.956,4.956,0,0,0,3.593,4.765l8.072,2.309A21.319,21.319,0,0,1,105.064,137.058Z" transform="translate(-30.264 -16.542)" fill="#ffb09e"/>
      <path id="Trazado_218672" data-name="Trazado 218672" d="M95.089,116.561l-8.072-2.309a4.956,4.956,0,0,1-3.593-4.765v-6.973H75.707v6.973a4.956,4.956,0,0,0,3.593,4.765l8.072,2.309a21.319,21.319,0,0,1,15.455,20.5v4.515h7.717v-4.515A21.319,21.319,0,0,0,95.089,116.561Z" transform="translate(-35.744 -16.542)" fill="#ffa78f"/>
      <path id="Trazado_218673" data-name="Trazado 218673" d="M43.736,64.211V44.919A28.351,28.351,0,0,1,72.087,16.568h0a28.351,28.351,0,0,1,28.351,28.351V64.1a28.4,28.4,0,0,1-28.4,28.4h0A28.3,28.3,0,0,1,43.736,64.211Z" transform="translate(-31.186 -4.291)" fill="#ffcebf"/>
      <path id="Trazado_218674" data-name="Trazado 218674" d="M76.15,16.568h0a28.62,28.62,0,0,0-3.859.262A28.356,28.356,0,0,1,96.785,44.919V64.1A28.409,28.409,0,0,1,72.242,92.247a28.524,28.524,0,0,0,3.855.262h0a28.4,28.4,0,0,0,28.4-28.4V44.919A28.351,28.351,0,0,0,76.15,16.568Z" transform="translate(-35.25 -4.291)" fill="#ffb09e"/>
      <path id="Trazado_218675" data-name="Trazado 218675" d="M103.392,27.158s-.219-6.646-6.632-12.288a.652.652,0,0,1-.226-.5c.1-4.378-3.034-12.12-26.467-12.12-28.411,0-38.339,20.509-40.445,25.855a.777.777,0,0,0,.849,1.051c1.277-.208,3.31-.539,5.256-.861a.523.523,0,0,1,.535.783c-1.287,2.183-4.21,8.046-5.283,17.742a.482.482,0,0,0,.452.534,10.144,10.144,0,0,0,6.3-1.691.7.7,0,0,1,1.09.4c.959,3.661,2.9,10.027,2.9,10.027s5.51-4.887,5.317-6.74C46.72,46.387,45,28.205,52.482,29.918s11.334,2.958,17.585,2.958,10.109-1.245,17.585-2.958S93.414,46.387,93.1,49.345c-.193,1.852,5.317,6.74,5.317,6.74s.489-5.2,1.368-7.089C100.187,48.136,104.066,35.253,103.392,27.158Z" transform="translate(-29.167 -2.25)" fill="#ab695d"/>
      <g id="Grupo_149389" data-name="Grupo 149389" transform="translate(1.809)">
        <path id="Trazado_218676" data-name="Trazado 218676" d="M109.573,27.158s-.219-6.646-6.631-12.287a.652.652,0,0,1-.227-.5c.1-4.378-3.035-12.119-26.467-12.119-1.136,0-2.24.037-3.318.1C92.362,3.264,95.092,10.282,95,14.369a.652.652,0,0,0,.227.5c6.412,5.641,6.631,12.287,6.631,12.287.434,5.219-1.023,12.426-2.221,17.12-.08,2.341-.267,4.264-.351,5.067-.193,1.852,5.317,6.74,5.317,6.74s.489-5.2,1.368-7.089C106.368,48.136,110.247,35.253,109.573,27.158Z" transform="translate(-37.157 -2.25)" fill="#9b5e5e"/>
        <path id="Trazado_218677" data-name="Trazado 218677" d="M31.334,53.331c-.006-.022-.017-.04-.024-.061-.034.271-.067.544-.1.822a.482.482,0,0,0,.452.534h.018C31.558,54.171,31.44,53.734,31.334,53.331Z" transform="translate(-31.21 -9.523)" fill="#9b5e5e"/>
      </g>
      <path id="Trazado_218678" data-name="Trazado 218678" d="M105.754,134.668v9.416a1.543,1.543,0,0,1-1.543,1.543H37.843a1.543,1.543,0,0,1-1.543-1.543v-9.416A21.647,21.647,0,0,1,51.708,113.94l9.079-2.733c.363-.109.737,10.654,10.24,10.654S80.9,111.1,81.267,111.208l9.079,2.733A21.646,21.646,0,0,1,105.754,134.668Z" transform="translate(-30.126 -17.781)" fill="#f67409"/>
      <path id="Trazado_218679" data-name="Trazado 218679" d="M76.166,141.44h0a3.816,3.816,0,0,1-3.816-3.816V123.634h7.631v13.991A3.816,3.816,0,0,1,76.166,141.44Z" transform="translate(-35.265 -19.553)" fill="#f3eae6"/>
      <g id="Grupo_149390" data-name="Grupo 149390" transform="translate(50.59 93.426)">
        <path id="Trazado_218680" data-name="Trazado 218680" d="M97.73,113.94l-9.079-2.733a12.708,12.708,0,0,0-.551,2.157l1.913.576a21.646,21.646,0,0,1,15.408,20.728v9.416a1.543,1.543,0,0,1-1.543,1.543h7.717a1.543,1.543,0,0,0,1.543-1.543v-9.416A21.646,21.646,0,0,0,97.73,113.94Z" transform="translate(-88.1 -111.207)" fill="#f67409"/>
      </g>
      <path id="Trazado_218681" data-name="Trazado 218681" d="M73.608,121.778c-15.814,13.416-18.825-5.875-19.2-8.959a.574.574,0,0,1,.315-.585c5.716-2.808,8.643-1.11,8.643-1.11A14.766,14.766,0,0,0,73.608,121.778Z" transform="translate(-32.707 -17.697)" fill="#faf7f7"/>
      <path id="Trazado_218682" data-name="Trazado 218682" d="M76.822,121.778c15.814,13.416,18.825-5.875,19.2-8.959a.574.574,0,0,0-.315-.585c-5.716-2.808-8.643-1.11-8.643-1.11A14.766,14.766,0,0,1,76.822,121.778Z" transform="translate(-35.902 -17.697)" fill="#faf7f7"/>
      <g id="Grupo_149401" data-name="Grupo 149401">
        <path id="Trazado_218683" data-name="Trazado 218683" d="M41.258,73.048a7.209,7.209,0,0,1-4.485,1.629c-4.854,0-7.673-5.987-7.673-12.418a14.447,14.447,0,0,1,1.736-7.41" transform="translate(-29.1 -9.748)" fill="none" stroke="#000" stroke-linecap="round" stroke-linejoin="round" stroke-miterlimit="10" stroke-width="4"/>
        <path id="Trazado_218684" data-name="Trazado 218684" d="M110.152,72.356a7.252,7.252,0,0,0,4.63,1.745c4.854,0,7.673-5.987,7.673-12.418s-2.82-10.871-7.673-10.871a6.743,6.743,0,0,0-1.487.166" transform="translate(-40.653 -9.172)" fill="none" stroke="#000" stroke-linecap="round" stroke-linejoin="round" stroke-miterlimit="10" stroke-width="4"/>
        <g id="Grupo_149391" data-name="Grupo 149391" transform="translate(17.235 123.088)">
          <line id="Línea_679" data-name="Línea 679" y2="4.373" fill="none" stroke="#000" stroke-linecap="round" stroke-linejoin="round" stroke-miterlimit="10" stroke-width="4"/>
          <line id="Línea_680" data-name="Línea 680" y2="4.373" transform="translate(47.332)" fill="none" stroke="#000" stroke-linecap="round" stroke-linejoin="round" stroke-miterlimit="10" stroke-width="4"/>
        </g>
        <path id="Trazado_218685" data-name="Trazado 218685" d="M100.439,65.034v5.978a28.353,28.353,0,1,1-56.705.108V65.034" transform="translate(-31.186 -11.2)" fill="none" stroke="#000" stroke-linecap="round" stroke-linejoin="round" stroke-miterlimit="10" stroke-width="4"/>
        <g id="Grupo_149398" data-name="Grupo 149398" transform="translate(26.173 39.63)">
          <g id="Grupo_149394" data-name="Grupo 149394">
            <g id="Grupo_149392" data-name="Grupo 149392">
              <path id="Trazado_218686" data-name="Trazado 218686" d="M67.211,49.053a12.606,12.606,0,0,0-7.587,0" transform="translate(-59.624 -48.469)" fill="none" stroke="#000" stroke-linecap="round" stroke-linejoin="round" stroke-miterlimit="10" stroke-width="4"/>
            </g>
            <g id="Grupo_149393" data-name="Grupo 149393" transform="translate(21.869)">
              <path id="Trazado_218687" data-name="Trazado 218687" d="M85.128,49.053a12.606,12.606,0,0,1,7.587,0" transform="translate(-85.128 -48.469)" fill="none" stroke="#000" stroke-linecap="round" stroke-linejoin="round" stroke-miterlimit="10" stroke-width="4"/>
            </g>
          </g>
          <g id="Grupo_149396" data-name="Grupo 149396" transform="translate(3.794 32.135)">
            <g id="Grupo_149395" data-name="Grupo 149395">
              <path id="Trazado_218688" data-name="Trazado 218688" d="M85.917,85.945a22.7,22.7,0,0,1-21.869,0" transform="translate(-64.048 -85.945)" fill="none" stroke="#000" stroke-linecap="round" stroke-linejoin="round" stroke-miterlimit="10" stroke-width="4"/>
            </g>
          </g>
          <g id="Grupo_149397" data-name="Grupo 149397" transform="translate(2.653 11.631)">
            <circle id="Elipse_7207" data-name="Elipse 7207" cx="1.286" cy="1.286" r="1.286" fill="none" stroke="#000" stroke-linecap="round" stroke-linejoin="round" stroke-miterlimit="10" stroke-width="4"/>
            <circle id="Elipse_7208" data-name="Elipse 7208" cx="1.286" cy="1.286" r="1.286" transform="translate(21.578)" fill="none" stroke="#000" stroke-linecap="round" stroke-linejoin="round" stroke-miterlimit="10" stroke-width="4"/>
          </g>
          <path id="Trazado_218689" data-name="Trazado 218689" d="M79.86,77.446A4.431,4.431,0,0,0,76.229,75.9a4.511,4.511,0,0,0-3.659,1.552" transform="translate(-61.469 -52.378)" fill="none" stroke="#000" stroke-linecap="round" stroke-linejoin="round" stroke-miterlimit="10" stroke-width="4"/>
        </g>
        <g id="Grupo_149399" data-name="Grupo 149399" transform="translate(33.36 87.646)">
          <path id="Trazado_218690" data-name="Trazado 218690" d="M68.006,112.418a4.946,4.946,0,0,0,.76-2.638v-5.213" transform="translate(-68.006 -104.481)" fill="none" stroke="#000" stroke-linecap="round" stroke-linejoin="round" stroke-miterlimit="10" stroke-width="4"/>
          <path id="Trazado_218691" data-name="Trazado 218691" d="M84.707,104.467v5.3a4.948,4.948,0,0,0,.6,2.358" transform="translate(-70.387 -104.467)" fill="none" stroke="#000" stroke-linecap="round" stroke-linejoin="round" stroke-miterlimit="10" stroke-width="4"/>
        </g>
        <g id="Grupo_149400" data-name="Grupo 149400" transform="translate(12.549 45.839)">
          <ellipse id="Elipse_7209" data-name="Elipse 7209" cx="9.647" cy="8.093" rx="9.647" ry="8.093" transform="translate(4.932)" fill="none" stroke="#000" stroke-linecap="round" stroke-linejoin="round" stroke-miterlimit="10" stroke-width="4"/>
          <ellipse id="Elipse_7210" data-name="Elipse 7210" cx="9.647" cy="8.093" rx="9.647" ry="8.093" transform="translate(32.476)" fill="none" stroke="#000" stroke-linecap="round" stroke-linejoin="round" stroke-miterlimit="10" stroke-width="4"/>
          <line id="Línea_681" data-name="Línea 681" x2="8.25" transform="translate(24.226 8.093)" fill="none" stroke="#000" stroke-linecap="round" stroke-linejoin="round" stroke-miterlimit="10" stroke-width="4"/>
          <line id="Línea_682" data-name="Línea 682" x1="4.932" transform="translate(0 8.093)" fill="none" stroke="#000" stroke-linecap="round" stroke-linejoin="round" stroke-miterlimit="10" stroke-width="4"/>
          <line id="Línea_683" data-name="Línea 683" x1="4.932" transform="translate(51.771 8.093)" fill="none" stroke="#000" stroke-linecap="round" stroke-linejoin="round" stroke-miterlimit="10" stroke-width="4"/>
        </g>
        <path id="Trazado_218692" data-name="Trazado 218692" d="M41.714,11.666A41.749,41.749,0,0,0,29.622,28.105a.777.777,0,0,0,.849,1.051c1.277-.208,3.31-.539,5.256-.861a.523.523,0,0,1,.535.783c-1.287,2.183-4.21,8.046-5.283,17.742a.482.482,0,0,0,.452.534,10.144,10.144,0,0,0,6.3-1.691.7.7,0,0,1,1.09.4c.959,3.661,2.9,10.027,2.9,10.027s5.51-4.887,5.317-6.74C46.72,46.386,45,28.2,52.482,29.918s11.334,2.958,17.585,2.958,10.109-1.245,17.585-2.958S93.414,46.386,93.1,49.345c-.193,1.852,5.317,6.74,5.317,6.74s.489-5.2,1.368-7.089c.4-.859,4.278-13.742,3.6-21.837,0,0-.219-6.646-6.632-12.288a.652.652,0,0,1-.226-.5C96.635,9.992,93.5,2.25,70.067,2.25a46.158,46.158,0,0,0-20.925,4.6" transform="translate(-29.167 -2.25)" fill="none" stroke="#000" stroke-linecap="round" stroke-linejoin="round" stroke-miterlimit="10" stroke-width="4"/>
        <path id="Trazado_218693" data-name="Trazado 218693" d="M52.4,25.536l17.5-2.357c11.871-1.6,17.713-5.154,17.713-5.154" transform="translate(-32.421 -4.499)" fill="none" stroke="#000" stroke-linecap="round" stroke-linejoin="round" stroke-miterlimit="10" stroke-width="4"/>
        <path id="Trazado_218694" data-name="Trazado 218694" d="M79.981,127.329v10.783a3.816,3.816,0,0,1-3.816,3.816h0a3.816,3.816,0,0,1-3.816-3.816V127.05" transform="translate(-35.265 -20.04)" fill="none" stroke="#000" stroke-linecap="round" stroke-linejoin="round" stroke-miterlimit="10" stroke-width="4"/>
        <path id="Trazado_218695" data-name="Trazado 218695" d="M105.659,133.093q.094,1,.095,2.03v9.416a1.543,1.543,0,0,1-1.543,1.543H37.843a1.543,1.543,0,0,1-1.543-1.543v-9.416a21.647,21.647,0,0,1,15.408-20.728" transform="translate(-30.126 -18.236)" fill="none" stroke="#000" stroke-linecap="round" stroke-linejoin="round" stroke-miterlimit="10" stroke-width="4"/>
        <path id="Trazado_218696" data-name="Trazado 218696" d="M99.331,114.395a21.633,21.633,0,0,1,12.6,10.071" transform="translate(-39.111 -18.236)" fill="none" stroke="#000" stroke-linecap="round" stroke-linejoin="round" stroke-miterlimit="10" stroke-width="4"/>
        <path id="Trazado_218697" data-name="Trazado 218697" d="M73.608,121.778c-15.814,13.416-18.825-5.875-19.2-8.959a.574.574,0,0,1,.315-.585c5.716-2.808,8.643-1.11,8.643-1.11A14.766,14.766,0,0,0,73.608,121.778Z" transform="translate(-32.707 -17.697)" fill="none" stroke="#000" stroke-linecap="round" stroke-linejoin="round" stroke-miterlimit="10" stroke-width="4"/>
        <path id="Trazado_218698" data-name="Trazado 218698" d="M76.822,121.778c15.814,13.416,18.825-5.875,19.2-8.959a.574.574,0,0,0-.315-.585c-5.716-2.808-8.643-1.11-8.643-1.11A14.766,14.766,0,0,1,76.822,121.778Z" transform="translate(-35.902 -17.697)" fill="none" stroke="#000" stroke-linecap="round" stroke-linejoin="round" stroke-miterlimit="10" stroke-width="4"/>
      </g>
    </g>
  </g>
</svg>
