<svg xmlns="http://www.w3.org/2000/svg" width="318.524" height="270.1" viewBox="0 0 318.524 270.1">
  <g id="Judge-rafiki_1_" data-name="Judge-rafiki (1)" transform="translate(-56.11 -89.566)">
    <g id="freepik--background-simple--inject-6" transform="translate(93.264 89.566)">
      <path id="Trazado_217091" data-name="Trazado 217091" d="M132.888,212.978C96.359,225.717,97.326,260.527,112.51,281.7c29.608,41.3,88.535,39.621,128.452,6.888s31.078-48.787,73.935-58.624c65.321-14.992,60.126-110.887-2.605-132.863-67.462-23.63-113.876,11.587-121.1,59.863C185.31,196.253,158.124,204.188,132.888,212.978Z" transform="translate(-102.603 -89.566)" fill="#e8e8e8"/>
    </g>
    <g id="freepik--Shadow--inject-6" transform="translate(56.11 341.574)">
      <ellipse id="freepik--path--inject-6" cx="154.943" cy="9.046" rx="154.943" ry="9.046" transform="translate(0 0)" fill="#f5f5f5"/>
    </g>
    <g id="freepik--Character--inject-6" transform="translate(94.533 110.357)">
      <g id="freepik--group--inject-6" transform="translate(0 0)">
        <path id="Trazado_217093" data-name="Trazado 217093" d="M167.169,159.8c6.721,2.357,21.1,24.533,19.307,34.323s-20.625,12.786-20.625,12.786Z" transform="translate(-116.577 -124.465)" fill="#263238"/>
        <path id="Trazado_217094" data-name="Trazado 217094" d="M167.169,159.8c6.721,2.357,21.1,24.533,19.307,34.323s-20.625,12.786-20.625,12.786Z" transform="translate(-116.577 -124.465)" opacity="0.3"/>
        <path id="Trazado_217095" data-name="Trazado 217095" d="M162.67,405.515l6.489.679.336-3.9-.12-.072.751-9.965v-.04l-6.353-.687.04.08-.879,10.612v.072Z" transform="translate(-115.938 -171.013)" fill="#b97964"/>
        <path id="Trazado_217096" data-name="Trazado 217096" d="M122.16,404.384h6.281l.072-1.918.008-.176.288-8.087.008-.176L128.96,390H122.8v.192l-.12.16L122,401.883v.184Z" transform="translate(-107.768 -170.706)" fill="#b97964"/>
        <path id="Trazado_217097" data-name="Trazado 217097" d="M128.781,407.53h-7.632a.544.544,0,0,0-.535.432l-1.239,5.594a.927.927,0,0,0,.719,1.095.856.856,0,0,0,.2,0c2.469-.04,4.267-.192,7.368-.192,1.91,0,7.672.2,10.309.2s2.981-2.605,1.9-2.845c-4.843-1.055-8.487-2.517-10.037-3.908a1.511,1.511,0,0,0-1.055-.376Z" transform="translate(-107.237 -174.227)" fill="#263238"/>
        <path id="Trazado_217098" data-name="Trazado 217098" d="M169.281,407.28h-7.632a.543.543,0,0,0-.535.432l-1.239,5.594a.927.927,0,0,0,.719,1.095.858.858,0,0,0,.2,0c2.469-.04,4.267-.192,7.368-.192,1.91,0,7.672.2,10.309.2s2.981-2.605,1.9-2.845c-4.843-1.055-8.487-2.517-10.037-3.908A1.51,1.51,0,0,0,169.281,407.28Z" transform="translate(-115.373 -174.177)" fill="#263238"/>
        <path id="Trazado_217099" data-name="Trazado 217099" d="M163.03,402.308h6.545l.871-10.037-6.481-.671-.008.024-.919,10.612Z" transform="translate(-116.01 -171.027)" opacity="0.2"/>
        <path id="Trazado_217100" data-name="Trazado 217100" d="M122.46,402.325l6.145.559h.008l.3-8.415-.008-.088-5.89-3.892-.535,11.6Z" transform="translate(-107.861 -170.804)" opacity="0.2"/>
        <path id="Trazado_217101" data-name="Trazado 217101" d="M120.49,368.841l9.637,1.127s7.12-47.66,10.117-68.206c.048-.328.088-.647.136-.959,1.183-8.111,2.541-23.367,3.692-37.7.655,1.758,1.255,3.7,1.814,5.818.12.44.24.887.352,1.343s.264,1.079.392,1.6.24,1.055.36,1.6c.208.975.416,1.982.615,3,6.473,33.188,6.6,91.812,6.6,91.812l9.11.551c6.633-50.848-.687-111.878-4.283-134.038a.409.409,0,0,1,0,.1c-.064-.416-.136-.8-.2-1.239a.345.345,0,0,0,0-.088c-.176-1.079-.344-1.806-.5-2.605H125.021v7.847c-.1,8.471-.32,22.376-.647,35.961,0,.535,0,1.071-.04,1.6s0,.847,0,1.271c-.12,4.795-.256,9.446-.416,13.769s-.328,8.255-.511,11.587a6.32,6.32,0,0,1-.048.943c0,.455-.048.927-.08,1.414C122.008,326.088,120.49,368.841,120.49,368.841Z" transform="translate(-107.465 -138.759)" fill="#263238"/>
        <path id="Trazado_217102" data-name="Trazado 217102" d="M120.49,368.841l9.637,1.127s7.12-47.66,10.117-68.206c.048-.328.088-.647.136-.959,1.183-8.111,2.541-23.367,3.692-37.7.655,1.758,1.255,3.7,1.814,5.818.12.44.24.887.352,1.343s.264,1.079.392,1.6.24,1.055.36,1.6c.208.975.416,1.982.615,3,6.473,33.188,6.6,91.812,6.6,91.812l9.11.551c6.633-50.848-.687-111.878-4.283-134.038a.4.4,0,0,0,0-.1c-.064-.36-.136-.7-.2-1.039a.345.345,0,0,0,0-.088c-.184-.975-.352-1.806-.5-2.605H124.965v7.847c-.1,8.471-.32,22.376-.647,35.961,0,.535,0,1.071-.04,1.6s0,.847,0,1.271c-.12,4.795-.256,9.446-.416,13.769s-.32,8.407-.511,11.787a3.956,3.956,0,0,1-.048.743c0,.455-.048.927-.08,1.414C122.008,326.088,120.49,368.841,120.49,368.841Z" transform="translate(-107.465 -138.759)" opacity="0.3"/>
        <path id="Trazado_217103" data-name="Trazado 217103" d="M114.16,322.618s25.133,6.561,56.315,0c0,0-1.406-53.03-6.457-106.476-1.119-11.867-2.4-23.766-3.932-35.1-1.007-7.568-2.1-14.888-3.3-21.784a65.393,65.393,0,0,0-38.87,1.758s.631,16.23.943,39.2c.056,4,.1,8.143.128,12.474C119.242,248.076,118.531,293.674,114.16,322.618Z" transform="translate(-106.193 -123.926)" fill="#263238"/>
        <path id="Trazado_217104" data-name="Trazado 217104" d="M154.133,123.4c1.462,3.061-.1,9.494-3.556,10.788-5.314,1.99-4.595-12.786-4.595-12.786S152.383,119.7,154.133,123.4Z" transform="translate(-112.579 -116.673)" fill="#263238"/>
        <path id="Trazado_217105" data-name="Trazado 217105" d="M132.78,155.182c3.061,2.781,10.556,1.75,10.556,1.75s4.683-1.279,3.7-2.741c-2.757-.456-4.092-1.742-4.643-3.388a7.992,7.992,0,0,1-.28-3.149,16.55,16.55,0,0,1,.232-1.758l-9.27-6.9C134.29,143.563,135.777,151.9,132.78,155.182Z" transform="translate(-109.934 -120.287)" fill="#b97964"/>
        <path id="Trazado_217106" data-name="Trazado 217106" d="M135.83,144.5c.368,5.594,4.939,7.1,7.192,7.408a7.991,7.991,0,0,1-.28-3.149Z" transform="translate(-110.546 -121.392)" opacity="0.2"/>
        <path id="Trazado_217107" data-name="Trazado 217107" d="M134.591,140.8a7.855,7.855,0,0,0,9.022,3.045,8.79,8.79,0,0,0,4.995-4.068,8.952,8.952,0,0,0,.416-.8c2.262-5.29,2.981-14.544-2.613-18.012a8.519,8.519,0,0,0-13.01,6.393C132.713,133.516,132.018,137.136,134.591,140.8Z" transform="translate(-109.931 -116.402)" fill="#b97964"/>
        <path id="Trazado_217108" data-name="Trazado 217108" d="M144.833,133.218c-.112.487.112.943.44,1s.663-.3.751-.8-.12-.943-.44-1S144.961,132.706,144.833,133.218Z" transform="translate(-112.349 -118.964)" fill="#263238"/>
        <path id="Trazado_217109" data-name="Trazado 217109" d="M151.9,134.418c-.12.487.112.951.44,1.007s.655-.312.743-.8-.112-.951-.44-1.007S151.974,133.922,151.9,134.418Z" transform="translate(-113.768 -119.205)" fill="#263238"/>
        <path id="Trazado_217110" data-name="Trazado 217110" d="M149.405,134.55a18.02,18.02,0,0,0,1.662,4.675,2.925,2.925,0,0,1-2.477,0Z" transform="translate(-113.109 -119.393)" fill="#a24e3f"/>
        <path id="Trazado_217111" data-name="Trazado 217111" d="M142.954,130.411a.3.3,0,0,0,.3-.064,2.4,2.4,0,0,1,2.046-.663.3.3,0,0,0,.144-.575h0a2.949,2.949,0,0,0-2.589.8.3.3,0,0,0,0,.416h0A.352.352,0,0,0,142.954,130.411Z" transform="translate(-111.941 -118.291)" fill="#263238"/>
        <path id="Trazado_217112" data-name="Trazado 217112" d="M146.065,142.944h0a4.547,4.547,0,0,1-3.7-2.014.16.16,0,0,1,.056-.216.152.152,0,0,1,.208.048h0a4.363,4.363,0,0,0,3.444,1.854.16.16,0,0,1,.152.152h0a.152.152,0,0,1-.152.152Z" transform="translate(-111.855 -120.627)" fill="#263238"/>
        <path id="Trazado_217113" data-name="Trazado 217113" d="M154.9,132.112a.343.343,0,0,0,.176.048.3.3,0,0,0,.2-.368h0a2.949,2.949,0,0,0-1.83-2.006.3.3,0,0,0-.368.2h0a.312.312,0,0,0,.2.368h0a2.4,2.4,0,0,1,1.422,1.6.28.28,0,0,0,.2.16Z" transform="translate(-114.009 -118.434)" fill="#263238"/>
        <path id="Trazado_217114" data-name="Trazado 217114" d="M134.922,115.916c-5.09,1.335-5.762,8.391-5.042,14.824.623,5.594,3.572,8.215,3.572,8.215-1.335-2.661-.935-7.855-.064-7.991s.8.871.8.871c1.926-1.207,4.731-3.133,2.581-8.926-.256-.687-.448-2.293.487-2.893,1.8-1.167,4.307-.056,4.307-.056s6.249,7.847,9.246,1.351C152.3,118.09,140.516,114.454,134.922,115.916Z" transform="translate(-109.303 -115.583)" fill="#263238"/>
        <path id="Trazado_217115" data-name="Trazado 217115" d="M146.34,148.9a8.79,8.79,0,0,0,4.995-4.068c-1.51,0-3.708.088-4.283.439S146.348,147.547,146.34,148.9Z" transform="translate(-112.658 -121.458)" opacity="0.2"/>
        <path id="Trazado_217116" data-name="Trazado 217116" d="M129.1,134.1a5.954,5.954,0,0,0,2.845,3.524c1.83.983,3.2-.551,3.069-2.509-.128-1.75-1.207-4.419-3.236-4.571A2.644,2.644,0,0,0,129.1,134.1Z" transform="translate(-109.17 -118.587)" fill="#b97964"/>
        <path id="Trazado_217117" data-name="Trazado 217117" d="M130.649,157.73s13.329,36.576,7.488,161.24l-11.931-1.694s10.517-90.605-3.8-157.892Z" transform="translate(-107.851 -124.049)" fill="#f67409"/>
        <path id="Trazado_217118" data-name="Trazado 217118" d="M149,156.1s13.441,36.48,19.483,161.344l7.392-1.2S167.883,177.4,156.016,156.292Z" transform="translate(-113.192 -123.722)" fill="#f67409"/>
        <path id="Trazado_217119" data-name="Trazado 217119" d="M159.263,168.24,151.743,156a5.338,5.338,0,0,1-3.125-1.99c-1.151-1.6-1.878-7.991-1.335-8.263s6.393.4,6.793,1.183,1.558,7.272,1.558,7.272l8.663,10.157Z" transform="translate(-112.81 -121.629)" fill="#b97964"/>
        <path id="Trazado_217120" data-name="Trazado 217120" d="M159.41,176.75s4.795,38,13.7,43.337c-1.119-11.867-2.4-23.766-3.932-35.1Z" transform="translate(-115.283 -127.87)" opacity="0.2"/>
        <path id="Trazado_217121" data-name="Trazado 217121" d="M133.408,154.154a15.6,15.6,0,0,0-5.5,4.2l3.892,6.105,2.437-.8.264,21.5s12.139,2.062,20.178-1.814l-7.048-20.657,2.1.176a10.585,10.585,0,0,0-8.319-9.054s1.854,3.628,1.6,4.131l-7.1.44Z" transform="translate(-108.955 -123.262)" fill="#f67409"/>
        <path id="Trazado_217122" data-name="Trazado 217122" d="M133.408,154.154a15.6,15.6,0,0,0-5.5,4.2l3.892,6.105,2.437-.8.264,21.5s12.139,2.062,20.178-1.814l-7.048-20.657,2.1.176a10.585,10.585,0,0,0-8.319-9.054s1.854,3.628,1.6,4.131l-7.1.44Z" transform="translate(-108.955 -123.262)" fill="#fff" opacity="0.6"/>
        <path id="Trazado_217123" data-name="Trazado 217123" d="M135.217,165.084l.567-4-3,4.835Z" transform="translate(-109.934 -124.722)" opacity="0.2"/>
        <path id="Trazado_217124" data-name="Trazado 217124" d="M151.786,163.8l-3.2-4.307,5.3,4.483Z" transform="translate(-113.109 -124.403)" opacity="0.2"/>
        <path id="Trazado_217125" data-name="Trazado 217125" d="M120,211.06c.056,4,.1,8.143.128,12.474,14.768,1.375,23.039-6.329,23.039-6.329Z" transform="translate(-107.367 -134.762)" opacity="0.2"/>
        <path id="Trazado_217126" data-name="Trazado 217126" d="M185.278,192.063c-.184-3.788-19.523-26.963-19.523-26.963l-6.345,9.31,12.53,31.669S185.869,204.617,185.278,192.063Z" transform="translate(-115.283 -125.53)" fill="#263238"/>
        <path id="Trazado_217127" data-name="Trazado 217127" d="M0,0H19.611a.5.5,0,0,1,.5.5V1.966a.5.5,0,0,1-.5.5H0Z" transform="matrix(-0.7, 0.714, -0.714, -0.7, 70.025, 60.173)" fill="#f67409"/>
        <path id="Trazado_217128" data-name="Trazado 217128" d="M192.085,193.948l4.331-4.427a21.137,21.137,0,0,0-8.167-7.991L183.91,185.9a21.121,21.121,0,0,0,8.175,8.047Z" transform="translate(-120.204 -128.83)" fill="#f67409"/>
        <path id="Trazado_217129" data-name="Trazado 217129" d="M192.085,193.948l4.331-4.427a21.137,21.137,0,0,0-8.167-7.991L183.91,185.9a21.121,21.121,0,0,0,8.175,8.047Z" transform="translate(-120.204 -128.83)" opacity="0.2"/>
        <rect id="Rectángulo_45215" data-name="Rectángulo 45215" width="8.103" height="1.942" rx="0.5" transform="matrix(-0.7, 0.714, -0.714, -0.7, 69.332, 52.617)" fill="#f67409"/>
        <rect id="Rectángulo_45216" data-name="Rectángulo 45216" width="8.103" height="1.942" rx="0.5" transform="matrix(-0.7, 0.714, -0.714, -0.7, 77.652, 60.773)" fill="#f67409"/>
        <path id="Trazado_217130" data-name="Trazado 217130" d="M153.91,197.925l14.336-1a5.33,5.33,0,0,1,3.2-1.822c1.99-.272,7.943,2.022,7.943,2.637s-3.308,5.474-4.2,5.474-7.192-1.99-7.192-1.99l-13.01,2.981Z" transform="translate(-114.178 -131.552)" fill="#b97964"/>
        <path id="Trazado_217131" data-name="Trazado 217131" d="M115.913,162c-7.352,3.788-15.743,29.16-9.59,39.956s39.109,8.583,39.109,8.583l7.08-20.57s-25.972,3.38-31.366-.511c-3.324-2.4-3.484-13.01-3.932-20.234A27.019,27.019,0,0,0,115.913,162Z" transform="translate(-104.191 -124.907)" fill="#263238"/>
        <path id="Trazado_217132" data-name="Trazado 217132" d="M115.913,162c-7.352,3.788-15.743,29.16-9.59,39.956s39.109,8.583,39.109,8.583l7.08-20.57s-25.972,3.38-31.366-.511c-3.324-2.4-3.484-13.01-3.932-20.234A27.019,27.019,0,0,0,115.913,162Z" transform="translate(-104.191 -124.907)" opacity="0.3"/>
        <path id="Trazado_217133" data-name="Trazado 217133" d="M147.341,136.712a1.55,1.55,0,1,1-1.55-1.542,1.55,1.55,0,0,1,1.55,1.542Z" transform="translate(-112.236 -119.518)" fill="none" stroke="#263238" stroke-miterlimit="10" stroke-width="0.5"/>
        <path id="Trazado_217134" data-name="Trazado 217134" d="M154.221,137.68a1.55,1.55,0,1,1-1.542-1.55,1.534,1.534,0,0,1,1.542,1.55Z" transform="translate(-113.618 -119.71)" fill="none" stroke="#263238" stroke-miterlimit="10" stroke-width="0.5"/>
        <line id="Línea_561" data-name="Línea 561" x2="6.161" y2="3.189" transform="translate(25.851 13.726)" fill="none" stroke="#263238" stroke-miterlimit="10" stroke-width="0.5"/>
        <path id="Trazado_217135" data-name="Trazado 217135" d="M148.12,137.426s1.6-.9,2.4.455" transform="translate(-113.015 -119.912)" fill="none" stroke="#263238" stroke-miterlimit="10" stroke-width="0.5"/>
      </g>
    </g>
    <g id="freepik--Balance--inject-6" transform="translate(173.734 169.666)">
      <rect id="Rectángulo_45217" data-name="Rectángulo 45217" width="3.42" height="5.522" transform="translate(98.588 1.87)" fill="#f67409"/>
      <rect id="Rectángulo_45218" data-name="Rectángulo 45218" width="3.42" height="5.522" transform="translate(98.588 1.87)" opacity="0.2"/>
      <rect id="Rectángulo_45219" data-name="Rectángulo 45219" width="4.979" height="125.287" transform="translate(102.792 173.331) rotate(180)" fill="#263238"/>
      <path id="Trazado_217136" data-name="Trazado 217136" d="M337.906,373.005a11.8,11.8,0,0,0-5.594-10.029L331.929,356H319.646l-.392,6.976a11.987,11.987,0,0,0-1.063,19.523l-.384,7.064h15.919l-.384-7.112a12.075,12.075,0,0,0,4.563-9.446Z" transform="translate(-225.469 -223.185)" fill="#f67409"/>
      <path id="Trazado_217137" data-name="Trazado 217137" d="M333.678,363.192,333.294,356H321.052l-.392,7.192Z" transform="translate(-226.874 -223.185)" fill="#fff" opacity="0.1"/>
      <path id="Trazado_217138" data-name="Trazado 217138" d="M319.234,389.786l-.384,7.248h15.919l-.384-7.264Z" transform="translate(-226.511 -229.968)" opacity="0.2"/>
      <path id="Trazado_217139" data-name="Trazado 217139" d="M307.529,394h22.543a34.219,34.219,0,0,0,20.346,12.626l8.175,1.6v3.684H279v-3.684l8.175-1.6A34.2,34.2,0,0,0,307.529,394Z" transform="translate(-218.506 -230.818)" fill="#263238"/>
      <path id="Trazado_217140" data-name="Trazado 217140" d="M307.529,394h22.543a34.219,34.219,0,0,0,20.346,12.626l8.175,1.6H279l8.175-1.6A34.2,34.2,0,0,0,307.529,394Z" transform="translate(-218.506 -230.818)" fill="#fff" opacity="0.1"/>
      <rect id="Rectángulo_45220" data-name="Rectángulo 45220" width="7.528" height="27.482" transform="translate(96.535 24.078)" fill="#f67409"/>
      <rect id="Rectángulo_45221" data-name="Rectángulo 45221" width="7.528" height="27.482" transform="translate(96.535 24.078)" opacity="0.2"/>
      <path id="Trazado_217141" data-name="Trazado 217141" d="M330.122,192.789a2.013,2.013,0,0,0,.232-.927,2.062,2.062,0,1,0-4.124,0,2.118,2.118,0,0,0,.224.927Z" transform="translate(-227.993 -189.8)" fill="#f67409"/>
      <path id="Trazado_217142" data-name="Trazado 217142" d="M449.184,333.166a1.319,1.319,0,0,1,.527-1.75c.567-.216,1.255.232,1.534,1a1.143,1.143,0,1,1-2.062.751Z" transform="translate(-252.662 -218.236)" fill="none" stroke="#263238" stroke-miterlimit="10" stroke-width="1"/>
      <line id="Línea_562" data-name="Línea 562" x1="1.095" y1="2.997" transform="translate(196.138 110.679)" fill="none" stroke="#263238" stroke-linecap="round" stroke-linejoin="round" stroke-width="1"/>
      <path id="Trazado_217143" data-name="Trazado 217143" d="M447.16,327.7a1.143,1.143,0,1,1,1.534,1.007A1.353,1.353,0,0,1,447.16,327.7Z" transform="translate(-252.284 -217.257)" fill="none" stroke="#263238" stroke-miterlimit="10" stroke-width="1"/>
      <line id="Línea_563" data-name="Línea 563" x1="1.095" y1="3.005" transform="translate(194.492 106.172)" fill="none" stroke="#263238" stroke-linecap="round" stroke-linejoin="round" stroke-width="1"/>
      <path id="Trazado_217144" data-name="Trazado 217144" d="M445.063,321.9a1.327,1.327,0,0,1,.527-1.758c.567-.208,1.255.24,1.534,1.007a1.143,1.143,0,1,1-2.062.751Z" transform="translate(-251.834 -215.971)" fill="none" stroke="#263238" stroke-miterlimit="10" stroke-width="1"/>
      <line id="Línea_564" data-name="Línea 564" x1="1.095" y1="2.997" transform="translate(192.845 101.673)" fill="none" stroke="#263238" stroke-linecap="round" stroke-linejoin="round" stroke-width="1"/>
      <path id="Trazado_217145" data-name="Trazado 217145" d="M443,316.418a1.143,1.143,0,1,1,1.6,1.031A1.431,1.431,0,0,1,443,316.418Z" transform="translate(-251.449 -215.001)" fill="none" stroke="#263238" stroke-miterlimit="10" stroke-width="1"/>
      <line id="Línea_565" data-name="Línea 565" x1="1.095" y1="3.005" transform="translate(191.199 97.166)" fill="none" stroke="#263238" stroke-linecap="round" stroke-linejoin="round" stroke-width="1"/>
      <path id="Trazado_217146" data-name="Trazado 217146" d="M441,310.774a1.143,1.143,0,1,1,1.534,1A1.327,1.327,0,0,1,441,310.774Z" transform="translate(-251.047 -213.856)" fill="none" stroke="#263238" stroke-miterlimit="10" stroke-width="1"/>
      <line id="Línea_566" data-name="Línea 566" x1="1.095" y1="3.005" transform="translate(189.553 92.659)" fill="none" stroke="#263238" stroke-linecap="round" stroke-linejoin="round" stroke-width="1"/>
      <path id="Trazado_217147" data-name="Trazado 217147" d="M438.919,305.134a1.143,1.143,0,1,1,1.534,1A1.319,1.319,0,0,1,438.919,305.134Z" transform="translate(-250.629 -212.723)" fill="none" stroke="#263238" stroke-miterlimit="10" stroke-width="1"/>
      <line id="Línea_567" data-name="Línea 567" x1="1.095" y1="3.005" transform="translate(187.907 88.16)" fill="none" stroke="#263238" stroke-linecap="round" stroke-linejoin="round" stroke-width="1"/>
      <path id="Trazado_217148" data-name="Trazado 217148" d="M436.859,299.5a1.143,1.143,0,1,1,1.534,1,1.327,1.327,0,0,1-1.534-1Z" transform="translate(-250.215 -211.592)" fill="none" stroke="#263238" stroke-miterlimit="10" stroke-width="1"/>
      <line id="Línea_568" data-name="Línea 568" x1="1.095" y1="3.005" transform="translate(186.261 83.653)" fill="none" stroke="#263238" stroke-linecap="round" stroke-linejoin="round" stroke-width="1"/>
      <path id="Trazado_217149" data-name="Trazado 217149" d="M434.8,293.864a1.143,1.143,0,1,1,1.534,1,1.318,1.318,0,0,1-1.534-1Z" transform="translate(-249.801 -210.459)" fill="none" stroke="#263238" stroke-miterlimit="10" stroke-width="1"/>
      <line id="Línea_569" data-name="Línea 569" x1="1.095" y1="3.005" transform="translate(184.614 79.154)" fill="none" stroke="#263238" stroke-linecap="round" stroke-linejoin="round" stroke-width="1"/>
      <path id="Trazado_217150" data-name="Trazado 217150" d="M432.739,288.229a1.151,1.151,0,1,1,1.534,1,1.326,1.326,0,0,1-1.534-1Z" transform="translate(-249.387 -209.324)" fill="none" stroke="#263238" stroke-miterlimit="10" stroke-width="1"/>
      <line id="Línea_570" data-name="Línea 570" x1="1.095" y1="3.005" transform="translate(182.968 74.647)" fill="none" stroke="#263238" stroke-linecap="round" stroke-linejoin="round" stroke-width="1"/>
      <path id="Trazado_217151" data-name="Trazado 217151" d="M430.644,282.447a1.319,1.319,0,0,1,.535-1.75c.567-.216,1.255.24,1.534,1a1.143,1.143,0,1,1-2.07.751Z" transform="translate(-248.938 -208.048)" fill="none" stroke="#263238" stroke-miterlimit="10" stroke-width="1"/>
      <line id="Línea_571" data-name="Línea 571" x1="1.103" y1="2.997" transform="translate(181.322 70.147)" fill="none" stroke="#263238" stroke-linecap="round" stroke-linejoin="round" stroke-width="1"/>
      <path id="Trazado_217152" data-name="Trazado 217152" d="M428.619,276.96a1.151,1.151,0,1,1,1.542,1A1.327,1.327,0,0,1,428.619,276.96Z" transform="translate(-248.56 -207.06)" fill="none" stroke="#263238" stroke-miterlimit="10" stroke-width="1"/>
      <line id="Línea_572" data-name="Línea 572" x1="1.103" y1="3.005" transform="translate(179.676 65.64)" fill="none" stroke="#263238" stroke-linecap="round" stroke-linejoin="round" stroke-width="1"/>
      <path id="Trazado_217153" data-name="Trazado 217153" d="M426.533,271.175a1.327,1.327,0,0,1,.527-1.758c.567-.208,1.255.24,1.534,1.007a1.143,1.143,0,1,1-2.062.751Z" transform="translate(-248.112 -205.783)" fill="none" stroke="#263238" stroke-miterlimit="10" stroke-width="1"/>
      <line id="Línea_573" data-name="Línea 573" x1="1.103" y1="2.997" transform="translate(178.03 61.141)" fill="none" stroke="#263238" stroke-linecap="round" stroke-linejoin="round" stroke-width="1"/>
      <path id="Trazado_217154" data-name="Trazado 217154" d="M424.473,265.484a1.311,1.311,0,0,1,.527-1.75,1.534,1.534,0,1,1-.527,1.75Z" transform="translate(-247.698 -204.59)" fill="none" stroke="#263238" stroke-miterlimit="10" stroke-width="1"/>
      <line id="Línea_574" data-name="Línea 574" x1="1.103" y1="3.005" transform="translate(176.383 56.634)" fill="none" stroke="#263238" stroke-linecap="round" stroke-linejoin="round" stroke-width="1"/>
      <path id="Trazado_217155" data-name="Trazado 217155" d="M422.449,260.054a1.143,1.143,0,1,1,1.534,1,1.326,1.326,0,0,1-1.534-1Z" transform="translate(-247.321 -203.668)" fill="none" stroke="#263238" stroke-miterlimit="10" stroke-width="1"/>
      <line id="Línea_575" data-name="Línea 575" x1="1.095" y1="3.005" transform="translate(174.745 52.127)" fill="none" stroke="#263238" stroke-linecap="round" stroke-linejoin="round" stroke-width="1"/>
      <path id="Trazado_217156" data-name="Trazado 217156" d="M420.389,254.414a1.143,1.143,0,1,1,1.534,1A1.319,1.319,0,0,1,420.389,254.414Z" transform="translate(-246.907 -202.535)" fill="none" stroke="#263238" stroke-miterlimit="10" stroke-width="1"/>
      <line id="Línea_576" data-name="Línea 576" x1="1.095" y1="3.005" transform="translate(173.099 47.628)" fill="none" stroke="#263238" stroke-linecap="round" stroke-linejoin="round" stroke-width="1"/>
      <path id="Trazado_217157" data-name="Trazado 217157" d="M418.329,248.784a1.143,1.143,0,1,1,1.534,1A1.327,1.327,0,0,1,418.329,248.784Z" transform="translate(-246.493 -201.404)" fill="none" stroke="#263238" stroke-miterlimit="10" stroke-width="1"/>
      <line id="Línea_577" data-name="Línea 577" x1="1.095" y1="3.005" transform="translate(171.453 43.121)" fill="none" stroke="#263238" stroke-linecap="round" stroke-linejoin="round" stroke-width="1"/>
      <path id="Trazado_217158" data-name="Trazado 217158" d="M416.269,243.144a1.143,1.143,0,1,1,1.534,1A1.319,1.319,0,0,1,416.269,243.144Z" transform="translate(-246.079 -200.271)" fill="none" stroke="#263238" stroke-miterlimit="10" stroke-width="1"/>
      <line id="Línea_578" data-name="Línea 578" x1="1.095" y1="3.005" transform="translate(169.807 38.622)" fill="none" stroke="#263238" stroke-linecap="round" stroke-linejoin="round" stroke-width="1"/>
      <path id="Trazado_217159" data-name="Trazado 217159" d="M414.209,237.514a1.143,1.143,0,1,1,1.534,1,1.327,1.327,0,0,1-1.534-1Z" transform="translate(-245.665 -199.14)" fill="none" stroke="#263238" stroke-miterlimit="10" stroke-width="1"/>
      <line id="Línea_579" data-name="Línea 579" x1="1.095" y1="3.005" transform="translate(168.16 34.115)" fill="none" stroke="#263238" stroke-linecap="round" stroke-linejoin="round" stroke-width="1"/>
      <path id="Trazado_217160" data-name="Trazado 217160" d="M377.206,333.166a1.319,1.319,0,0,0-.527-1.75c-.567-.216-1.255.232-1.534,1a1.143,1.143,0,1,0,2.062.751Z" transform="translate(-237.774 -218.236)" fill="none" stroke="#263238" stroke-miterlimit="10" stroke-width="1"/>
      <line id="Línea_580" data-name="Línea 580" y1="2.997" x2="1.095" transform="translate(138.721 110.679)" fill="none" stroke="#263238" stroke-linecap="round" stroke-linejoin="round" stroke-width="1"/>
      <path id="Trazado_217161" data-name="Trazado 217161" d="M379.266,327.7a1.143,1.143,0,1,0-1.534,1.007A1.353,1.353,0,0,0,379.266,327.7Z" transform="translate(-238.188 -217.257)" fill="none" stroke="#263238" stroke-miterlimit="10" stroke-width="1"/>
      <line id="Línea_581" data-name="Línea 581" y1="3.005" x2="1.095" transform="translate(140.367 106.172)" fill="none" stroke="#263238" stroke-linecap="round" stroke-linejoin="round" stroke-width="1"/>
      <path id="Trazado_217162" data-name="Trazado 217162" d="M381.326,321.9a1.327,1.327,0,0,0-.527-1.758c-.567-.208-1.255.24-1.534,1.007a1.143,1.143,0,1,0,2.062.751Z" transform="translate(-238.602 -215.971)" fill="none" stroke="#263238" stroke-miterlimit="10" stroke-width="1"/>
      <line id="Línea_582" data-name="Línea 582" y1="2.997" x2="1.095" transform="translate(142.013 101.673)" fill="none" stroke="#263238" stroke-linecap="round" stroke-linejoin="round" stroke-width="1"/>
      <path id="Trazado_217163" data-name="Trazado 217163" d="M383.426,316.418a1.143,1.143,0,1,0-1.6,1.031A1.431,1.431,0,0,0,383.426,316.418Z" transform="translate(-239.023 -215.001)" fill="none" stroke="#263238" stroke-miterlimit="10" stroke-width="1"/>
      <line id="Línea_583" data-name="Línea 583" y1="3.005" x2="1.095" transform="translate(143.659 97.166)" fill="none" stroke="#263238" stroke-linecap="round" stroke-linejoin="round" stroke-width="1"/>
      <path id="Trazado_217164" data-name="Trazado 217164" d="M385.426,310.774a1.143,1.143,0,1,0-1.534,1,1.327,1.327,0,0,0,1.534-1Z" transform="translate(-239.425 -213.856)" fill="none" stroke="#263238" stroke-miterlimit="10" stroke-width="1"/>
      <line id="Línea_584" data-name="Línea 584" y1="3.005" x2="1.095" transform="translate(145.305 92.659)" fill="none" stroke="#263238" stroke-linecap="round" stroke-linejoin="round" stroke-width="1"/>
      <path id="Trazado_217165" data-name="Trazado 217165" d="M387.506,305.134a1.143,1.143,0,1,0-1.534,1A1.319,1.319,0,0,0,387.506,305.134Z" transform="translate(-239.843 -212.723)" fill="none" stroke="#263238" stroke-miterlimit="10" stroke-width="1"/>
      <line id="Línea_585" data-name="Línea 585" y1="3.005" x2="1.095" transform="translate(146.952 88.16)" fill="none" stroke="#263238" stroke-linecap="round" stroke-linejoin="round" stroke-width="1"/>
      <path id="Trazado_217166" data-name="Trazado 217166" d="M389.562,299.5a1.151,1.151,0,1,0-1.534,1,1.327,1.327,0,0,0,1.534-1Z" transform="translate(-240.253 -211.587)" fill="none" stroke="#263238" stroke-miterlimit="10" stroke-width="1"/>
      <line id="Línea_586" data-name="Línea 586" y1="3.005" x2="1.095" transform="translate(148.598 83.653)" fill="none" stroke="#263238" stroke-linecap="round" stroke-linejoin="round" stroke-width="1"/>
      <path id="Trazado_217167" data-name="Trazado 217167" d="M391.626,293.864a1.143,1.143,0,1,0-1.534,1A1.327,1.327,0,0,0,391.626,293.864Z" transform="translate(-240.671 -210.459)" fill="none" stroke="#263238" stroke-miterlimit="10" stroke-width="1"/>
      <line id="Línea_587" data-name="Línea 587" y1="3.005" x2="1.095" transform="translate(150.244 79.154)" fill="none" stroke="#263238" stroke-linecap="round" stroke-linejoin="round" stroke-width="1"/>
      <path id="Trazado_217168" data-name="Trazado 217168" d="M393.682,288.229a1.151,1.151,0,1,0-1.534,1A1.326,1.326,0,0,0,393.682,288.229Z" transform="translate(-241.081 -209.324)" fill="none" stroke="#263238" stroke-miterlimit="10" stroke-width="1"/>
      <line id="Línea_588" data-name="Línea 588" y1="3.005" x2="1.103" transform="translate(151.882 74.647)" fill="none" stroke="#263238" stroke-linecap="round" stroke-linejoin="round" stroke-width="1"/>
      <path id="Trazado_217169" data-name="Trazado 217169" d="M395.746,282.447a1.319,1.319,0,0,0-.535-1.75c-.567-.216-1.255.24-1.534,1a1.143,1.143,0,1,0,2.07.751Z" transform="translate(-241.499 -208.048)" fill="none" stroke="#263238" stroke-miterlimit="10" stroke-width="1"/>
      <line id="Línea_589" data-name="Línea 589" y1="2.997" x2="1.103" transform="translate(153.528 70.147)" fill="none" stroke="#263238" stroke-linecap="round" stroke-linejoin="round" stroke-width="1"/>
      <path id="Trazado_217170" data-name="Trazado 217170" d="M397.8,276.96a1.151,1.151,0,1,0-1.542,1A1.327,1.327,0,0,0,397.8,276.96Z" transform="translate(-241.908 -207.06)" fill="none" stroke="#263238" stroke-miterlimit="10" stroke-width="1"/>
      <line id="Línea_590" data-name="Línea 590" y1="3.005" x2="1.103" transform="translate(155.175 65.64)" fill="none" stroke="#263238" stroke-linecap="round" stroke-linejoin="round" stroke-width="1"/>
      <path id="Trazado_217171" data-name="Trazado 217171" d="M399.856,271.175a1.327,1.327,0,0,0-.527-1.758c-.567-.208-1.255.24-1.534,1.007a1.143,1.143,0,1,0,2.062.751Z" transform="translate(-242.324 -205.783)" fill="none" stroke="#263238" stroke-miterlimit="10" stroke-width="1"/>
      <line id="Línea_591" data-name="Línea 591" y1="2.997" x2="1.103" transform="translate(156.821 61.141)" fill="none" stroke="#263238" stroke-linecap="round" stroke-linejoin="round" stroke-width="1"/>
      <path id="Trazado_217172" data-name="Trazado 217172" d="M401.741,265.484a1.311,1.311,0,0,0-.527-1.75,1.534,1.534,0,1,0,.527,1.75Z" transform="translate(-242.563 -204.59)" fill="none" stroke="#263238" stroke-miterlimit="10" stroke-width="1"/>
      <line id="Línea_592" data-name="Línea 592" y1="3.005" x2="1.103" transform="translate(158.467 56.634)" fill="none" stroke="#263238" stroke-linecap="round" stroke-linejoin="round" stroke-width="1"/>
      <path id="Trazado_217173" data-name="Trazado 217173" d="M403.976,260.054a1.143,1.143,0,1,0-1.534,1A1.327,1.327,0,0,0,403.976,260.054Z" transform="translate(-243.152 -203.668)" fill="none" stroke="#263238" stroke-miterlimit="10" stroke-width="1"/>
      <line id="Línea_593" data-name="Línea 593" y1="3.005" x2="1.095" transform="translate(160.113 52.127)" fill="none" stroke="#263238" stroke-linecap="round" stroke-linejoin="round" stroke-width="1"/>
      <path id="Trazado_217174" data-name="Trazado 217174" d="M406.036,254.414a1.143,1.143,0,1,0-1.534,1A1.319,1.319,0,0,0,406.036,254.414Z" transform="translate(-243.565 -202.535)" fill="none" stroke="#263238" stroke-miterlimit="10" stroke-width="1"/>
      <line id="Línea_594" data-name="Línea 594" y1="3.005" x2="1.095" transform="translate(161.759 47.628)" fill="none" stroke="#263238" stroke-linecap="round" stroke-linejoin="round" stroke-width="1"/>
      <path id="Trazado_217175" data-name="Trazado 217175" d="M408.1,248.784a1.143,1.143,0,1,0-1.534,1A1.327,1.327,0,0,0,408.1,248.784Z" transform="translate(-243.979 -201.404)" fill="none" stroke="#263238" stroke-miterlimit="10" stroke-width="1"/>
      <line id="Línea_595" data-name="Línea 595" y1="3.005" x2="1.095" transform="translate(163.406 43.121)" fill="none" stroke="#263238" stroke-linecap="round" stroke-linejoin="round" stroke-width="1"/>
      <path id="Trazado_217176" data-name="Trazado 217176" d="M410.156,243.144a1.143,1.143,0,1,0-1.534,1,1.319,1.319,0,0,0,1.534-1Z" transform="translate(-244.393 -200.271)" fill="none" stroke="#263238" stroke-miterlimit="10" stroke-width="1"/>
      <line id="Línea_596" data-name="Línea 596" y1="3.005" x2="1.095" transform="translate(165.052 38.622)" fill="none" stroke="#263238" stroke-linecap="round" stroke-linejoin="round" stroke-width="1"/>
      <path id="Trazado_217177" data-name="Trazado 217177" d="M412.216,237.514a1.143,1.143,0,1,0-1.534,1,1.327,1.327,0,0,0,1.534-1Z" transform="translate(-244.807 -199.14)" fill="none" stroke="#263238" stroke-miterlimit="10" stroke-width="1"/>
      <line id="Línea_597" data-name="Línea 597" y1="3.005" x2="1.095" transform="translate(166.698 34.115)" fill="none" stroke="#263238" stroke-linecap="round" stroke-linejoin="round" stroke-width="1"/>
      <path id="Trazado_217178" data-name="Trazado 217178" d="M412.12,336.8c0-.8.5-1.47,1.1-1.47s1.095.655,1.095,1.47-.487,1.462-1.095,1.462S412.12,337.608,412.12,336.8Z" transform="translate(-245.246 -219.033)" fill="none" stroke="#263238" stroke-miterlimit="10" stroke-width="1"/>
      <line id="Línea_598" data-name="Línea 598" y1="3.197" transform="translate(167.977 113.636)" fill="none" stroke="#263238" stroke-linecap="round" stroke-linejoin="round" stroke-width="1"/>
      <path id="Trazado_217179" data-name="Trazado 217179" d="M412.12,330.8c0-.8.5-1.47,1.1-1.47s1.095.655,1.095,1.47-.487,1.462-1.095,1.462S412.12,331.608,412.12,330.8Z" transform="translate(-245.246 -217.828)" fill="none" stroke="#263238" stroke-miterlimit="10" stroke-width="1"/>
      <line id="Línea_599" data-name="Línea 599" y1="3.197" transform="translate(167.977 108.841)" fill="none" stroke="#263238" stroke-linecap="round" stroke-linejoin="round" stroke-width="1"/>
      <path id="Trazado_217180" data-name="Trazado 217180" d="M412.12,324.8c0-.8.5-1.47,1.1-1.47s1.095.655,1.095,1.47-.487,1.462-1.095,1.462S412.12,325.608,412.12,324.8Z" transform="translate(-245.246 -216.622)" fill="none" stroke="#263238" stroke-miterlimit="10" stroke-width="1"/>
      <line id="Línea_600" data-name="Línea 600" y1="3.197" transform="translate(167.977 104.046)" fill="none" stroke="#263238" stroke-linecap="round" stroke-linejoin="round" stroke-width="1"/>
      <path id="Trazado_217181" data-name="Trazado 217181" d="M412.12,318.8c0-.8.5-1.47,1.1-1.47s1.095.655,1.095,1.47-.487,1.462-1.095,1.462S412.12,319.607,412.12,318.8Z" transform="translate(-245.246 -215.417)" fill="none" stroke="#263238" stroke-miterlimit="10" stroke-width="1"/>
      <line id="Línea_601" data-name="Línea 601" y1="3.197" transform="translate(167.977 99.252)" fill="none" stroke="#263238" stroke-linecap="round" stroke-linejoin="round" stroke-width="1"/>
      <path id="Trazado_217182" data-name="Trazado 217182" d="M412.12,312.8c0-.8.5-1.47,1.1-1.47s1.095.655,1.095,1.47-.487,1.462-1.095,1.462S412.12,313.608,412.12,312.8Z" transform="translate(-245.246 -214.212)" fill="none" stroke="#263238" stroke-miterlimit="10" stroke-width="1"/>
      <line id="Línea_602" data-name="Línea 602" y1="3.197" transform="translate(167.977 94.457)" fill="none" stroke="#263238" stroke-linecap="round" stroke-linejoin="round" stroke-width="1"/>
      <path id="Trazado_217183" data-name="Trazado 217183" d="M412.12,306.8c0-.8.5-1.47,1.1-1.47s1.095.655,1.095,1.47-.487,1.462-1.095,1.462S412.12,307.608,412.12,306.8Z" transform="translate(-245.246 -213.007)" fill="none" stroke="#263238" stroke-miterlimit="10" stroke-width="1"/>
      <line id="Línea_603" data-name="Línea 603" y1="3.197" transform="translate(167.977 89.662)" fill="none" stroke="#263238" stroke-linecap="round" stroke-linejoin="round" stroke-width="1"/>
      <path id="Trazado_217184" data-name="Trazado 217184" d="M412.12,300.8c0-.8.5-1.47,1.1-1.47s1.095.655,1.095,1.47-.487,1.462-1.095,1.462S412.12,301.608,412.12,300.8Z" transform="translate(-245.246 -211.802)" fill="none" stroke="#263238" stroke-miterlimit="10" stroke-width="1"/>
      <line id="Línea_604" data-name="Línea 604" y1="3.197" transform="translate(167.977 84.867)" fill="none" stroke="#263238" stroke-linecap="round" stroke-linejoin="round" stroke-width="1"/>
      <path id="Trazado_217185" data-name="Trazado 217185" d="M412.12,294.8c0-.8.5-1.47,1.1-1.47s1.095.655,1.095,1.47-.487,1.462-1.095,1.462S412.12,295.608,412.12,294.8Z" transform="translate(-245.246 -210.596)" fill="none" stroke="#263238" stroke-miterlimit="10" stroke-width="1"/>
      <line id="Línea_605" data-name="Línea 605" y1="3.197" transform="translate(167.977 80.073)" fill="none" stroke="#263238" stroke-linecap="round" stroke-linejoin="round" stroke-width="1"/>
      <path id="Trazado_217186" data-name="Trazado 217186" d="M412.12,288.8c0-.8.5-1.47,1.1-1.47s1.095.655,1.095,1.47-.487,1.462-1.095,1.462S412.12,289.607,412.12,288.8Z" transform="translate(-245.246 -209.391)" fill="none" stroke="#263238" stroke-miterlimit="10" stroke-width="1"/>
      <line id="Línea_606" data-name="Línea 606" y1="3.197" transform="translate(167.977 75.278)" fill="none" stroke="#263238" stroke-linecap="round" stroke-linejoin="round" stroke-width="1"/>
      <path id="Trazado_217187" data-name="Trazado 217187" d="M412.12,282.8c0-.8.5-1.47,1.1-1.47s1.095.655,1.095,1.47-.487,1.462-1.095,1.462S412.12,283.607,412.12,282.8Z" transform="translate(-245.246 -208.186)" fill="none" stroke="#263238" stroke-miterlimit="10" stroke-width="1"/>
      <line id="Línea_607" data-name="Línea 607" y1="3.197" transform="translate(167.977 70.483)" fill="none" stroke="#263238" stroke-linecap="round" stroke-linejoin="round" stroke-width="1"/>
      <path id="Trazado_217188" data-name="Trazado 217188" d="M412.12,276.8c0-.8.5-1.47,1.1-1.47s1.095.655,1.095,1.47-.487,1.462-1.095,1.462S412.12,277.608,412.12,276.8Z" transform="translate(-245.246 -206.981)" fill="none" stroke="#263238" stroke-miterlimit="10" stroke-width="1"/>
      <line id="Línea_608" data-name="Línea 608" y1="3.197" transform="translate(167.977 65.688)" fill="none" stroke="#263238" stroke-linecap="round" stroke-linejoin="round" stroke-width="1"/>
      <path id="Trazado_217189" data-name="Trazado 217189" d="M412.12,270.8c0-.8.5-1.47,1.1-1.47s1.095.655,1.095,1.47-.487,1.462-1.095,1.462S412.12,271.608,412.12,270.8Z" transform="translate(-245.246 -205.775)" fill="none" stroke="#263238" stroke-miterlimit="10" stroke-width="1"/>
      <line id="Línea_609" data-name="Línea 609" y1="3.197" transform="translate(167.977 60.894)" fill="none" stroke="#263238" stroke-linecap="round" stroke-linejoin="round" stroke-width="1"/>
      <path id="Trazado_217190" data-name="Trazado 217190" d="M412.12,264.8c0-.8.5-1.47,1.1-1.47s1.095.655,1.095,1.47-.487,1.462-1.095,1.462S412.12,265.608,412.12,264.8Z" transform="translate(-245.246 -204.57)" fill="none" stroke="#263238" stroke-miterlimit="10" stroke-width="1"/>
      <line id="Línea_610" data-name="Línea 610" y1="3.197" transform="translate(167.977 56.099)" fill="none" stroke="#263238" stroke-linecap="round" stroke-linejoin="round" stroke-width="1"/>
      <path id="Trazado_217191" data-name="Trazado 217191" d="M412.12,258.8c0-.8.5-1.47,1.1-1.47s1.095.655,1.095,1.47-.487,1.462-1.095,1.462S412.12,259.608,412.12,258.8Z" transform="translate(-245.246 -203.365)" fill="none" stroke="#263238" stroke-miterlimit="10" stroke-width="1"/>
      <line id="Línea_611" data-name="Línea 611" y1="3.197" transform="translate(167.977 51.304)" fill="none" stroke="#263238" stroke-linecap="round" stroke-linejoin="round" stroke-width="1"/>
      <path id="Trazado_217192" data-name="Trazado 217192" d="M412.12,252.8c0-.8.5-1.47,1.1-1.47s1.095.655,1.095,1.47-.487,1.462-1.095,1.462S412.12,253.607,412.12,252.8Z" transform="translate(-245.246 -202.16)" fill="none" stroke="#263238" stroke-miterlimit="10" stroke-width="1"/>
      <line id="Línea_612" data-name="Línea 612" y1="3.197" transform="translate(167.977 46.509)" fill="none" stroke="#263238" stroke-linecap="round" stroke-linejoin="round" stroke-width="1"/>
      <path id="Trazado_217193" data-name="Trazado 217193" d="M412.12,246.8c0-.8.5-1.47,1.1-1.47s1.095.655,1.095,1.47-.487,1.462-1.095,1.462S412.12,247.607,412.12,246.8Z" transform="translate(-245.246 -200.954)" fill="none" stroke="#263238" stroke-miterlimit="10" stroke-width="1"/>
      <line id="Línea_613" data-name="Línea 613" y1="3.197" transform="translate(167.977 41.714)" fill="none" stroke="#263238" stroke-linecap="round" stroke-linejoin="round" stroke-width="1"/>
      <path id="Trazado_217194" data-name="Trazado 217194" d="M412.12,240.8c0-.8.5-1.47,1.1-1.47s1.095.655,1.095,1.47-.487,1.462-1.095,1.462S412.12,241.607,412.12,240.8Z" transform="translate(-245.246 -199.749)" fill="none" stroke="#263238" stroke-miterlimit="10" stroke-width="1"/>
      <line id="Línea_614" data-name="Línea 614" y1="3.197" transform="translate(167.977 36.92)" fill="none" stroke="#263238" stroke-linecap="round" stroke-linejoin="round" stroke-width="1"/>
      <path id="Trazado_217195" data-name="Trazado 217195" d="M412.12,234.8c0-.8.5-1.47,1.1-1.47s1.095.655,1.095,1.47-.487,1.462-1.095,1.462S412.12,235.608,412.12,234.8Z" transform="translate(-245.246 -198.544)" fill="none" stroke="#263238" stroke-miterlimit="10" stroke-width="1"/>
      <line id="Línea_615" data-name="Línea 615" y1="3.197" transform="translate(167.977 32.125)" fill="none" stroke="#263238" stroke-linecap="round" stroke-linejoin="round" stroke-width="1"/>
      <path id="Trazado_217196" data-name="Trazado 217196" d="M412.12,228.8c0-.8.5-1.47,1.1-1.47s1.095.655,1.095,1.47-.487,1.462-1.095,1.462S412.12,229.607,412.12,228.8Z" transform="translate(-245.246 -197.339)" fill="none" stroke="#263238" stroke-miterlimit="10" stroke-width="1"/>
      <line id="Línea_616" data-name="Línea 616" y1="3.197" transform="translate(167.977 27.33)" fill="none" stroke="#263238" stroke-linecap="round" stroke-linejoin="round" stroke-width="1"/>
      <path id="Trazado_217197" data-name="Trazado 217197" d="M372.3,333c0,2.4,14.744,6.089,32.924,6.089S438.148,335.4,438.148,333Z" transform="translate(-237.247 -218.565)" fill="#f67409"/>
      <path id="Trazado_217198" data-name="Trazado 217198" d="M438.148,333c0,2.4-14.744,6.089-32.924,6.089S372.3,335.4,372.3,333Z" transform="translate(-237.247 -218.565)" opacity="0.2"/>
      <path id="Trazado_217199" data-name="Trazado 217199" d="M280.184,333.166a1.319,1.319,0,0,1,.527-1.75c.567-.216,1.255.232,1.534,1a1.143,1.143,0,1,1-2.062.751Z" transform="translate(-218.715 -218.236)" fill="none" stroke="#263238" stroke-miterlimit="10" stroke-width="1"/>
      <line id="Línea_617" data-name="Línea 617" x1="1.095" y1="2.997" transform="translate(61.085 110.679)" fill="none" stroke="#263238" stroke-linecap="round" stroke-linejoin="round" stroke-width="1"/>
      <path id="Trazado_217200" data-name="Trazado 217200" d="M278.159,327.7a1.143,1.143,0,1,1,1.534,1.007A1.353,1.353,0,0,1,278.159,327.7Z" transform="translate(-218.337 -217.257)" fill="none" stroke="#263238" stroke-miterlimit="10" stroke-width="1"/>
      <line id="Línea_618" data-name="Línea 618" x1="1.095" y1="3.005" transform="translate(59.439 106.172)" fill="none" stroke="#263238" stroke-linecap="round" stroke-linejoin="round" stroke-width="1"/>
      <path id="Trazado_217201" data-name="Trazado 217201" d="M276.063,321.9a1.327,1.327,0,0,1,.527-1.758c.567-.208,1.255.24,1.534,1.007a1.143,1.143,0,1,1-2.062.751Z" transform="translate(-217.887 -215.971)" fill="none" stroke="#263238" stroke-miterlimit="10" stroke-width="1"/>
      <line id="Línea_619" data-name="Línea 619" x1="1.095" y1="2.997" transform="translate(57.793 101.673)" fill="none" stroke="#263238" stroke-linecap="round" stroke-linejoin="round" stroke-width="1"/>
      <path id="Trazado_217202" data-name="Trazado 217202" d="M274,316.418a1.143,1.143,0,1,1,1.6,1.031A1.431,1.431,0,0,1,274,316.418Z" transform="translate(-217.502 -215.001)" fill="none" stroke="#263238" stroke-miterlimit="10" stroke-width="1"/>
      <line id="Línea_620" data-name="Línea 620" x1="1.095" y1="3.005" transform="translate(56.147 97.166)" fill="none" stroke="#263238" stroke-linecap="round" stroke-linejoin="round" stroke-width="1"/>
      <path id="Trazado_217203" data-name="Trazado 217203" d="M272,310.774a1.143,1.143,0,1,1,1.534,1A1.327,1.327,0,0,1,272,310.774Z" transform="translate(-217.099 -213.856)" fill="none" stroke="#263238" stroke-miterlimit="10" stroke-width="1"/>
      <line id="Línea_621" data-name="Línea 621" x1="1.095" y1="3.005" transform="translate(54.5 92.659)" fill="none" stroke="#263238" stroke-linecap="round" stroke-linejoin="round" stroke-width="1"/>
      <path id="Trazado_217204" data-name="Trazado 217204" d="M269.919,305.134a1.143,1.143,0,1,1,1.534,1A1.318,1.318,0,0,1,269.919,305.134Z" transform="translate(-216.682 -212.723)" fill="none" stroke="#263238" stroke-miterlimit="10" stroke-width="1"/>
      <line id="Línea_622" data-name="Línea 622" x1="1.095" y1="3.005" transform="translate(52.854 88.16)" fill="none" stroke="#263238" stroke-linecap="round" stroke-linejoin="round" stroke-width="1"/>
      <path id="Trazado_217205" data-name="Trazado 217205" d="M267.859,299.5a1.143,1.143,0,1,1,1.534,1A1.327,1.327,0,0,1,267.859,299.5Z" transform="translate(-216.268 -211.592)" fill="none" stroke="#263238" stroke-miterlimit="10" stroke-width="1"/>
      <line id="Línea_623" data-name="Línea 623" x1="1.095" y1="3.005" transform="translate(51.208 83.653)" fill="none" stroke="#263238" stroke-linecap="round" stroke-linejoin="round" stroke-width="1"/>
      <path id="Trazado_217206" data-name="Trazado 217206" d="M265.8,293.864a1.143,1.143,0,1,1,1.534,1,1.319,1.319,0,0,1-1.534-1Z" transform="translate(-215.854 -210.459)" fill="none" stroke="#263238" stroke-miterlimit="10" stroke-width="1"/>
      <line id="Línea_624" data-name="Línea 624" x1="1.095" y1="3.005" transform="translate(49.562 79.154)" fill="none" stroke="#263238" stroke-linecap="round" stroke-linejoin="round" stroke-width="1"/>
      <path id="Trazado_217207" data-name="Trazado 217207" d="M263.739,288.229a1.151,1.151,0,1,1,1.534,1A1.326,1.326,0,0,1,263.739,288.229Z" transform="translate(-215.44 -209.324)" fill="none" stroke="#263238" stroke-miterlimit="10" stroke-width="1"/>
      <line id="Línea_625" data-name="Línea 625" x1="1.095" y1="3.005" transform="translate(47.916 74.647)" fill="none" stroke="#263238" stroke-linecap="round" stroke-linejoin="round" stroke-width="1"/>
      <path id="Trazado_217208" data-name="Trazado 217208" d="M261.644,282.447a1.319,1.319,0,0,1,.535-1.75c.567-.216,1.255.24,1.534,1a1.143,1.143,0,1,1-2.07.751Z" transform="translate(-214.991 -208.048)" fill="none" stroke="#263238" stroke-miterlimit="10" stroke-width="1"/>
      <line id="Línea_626" data-name="Línea 626" x1="1.103" y1="2.997" transform="translate(46.269 70.147)" fill="none" stroke="#263238" stroke-linecap="round" stroke-linejoin="round" stroke-width="1"/>
      <path id="Trazado_217209" data-name="Trazado 217209" d="M259.619,276.96a1.151,1.151,0,1,1,1.542,1A1.327,1.327,0,0,1,259.619,276.96Z" transform="translate(-214.612 -207.06)" fill="none" stroke="#263238" stroke-miterlimit="10" stroke-width="1"/>
      <line id="Línea_627" data-name="Línea 627" x1="1.103" y1="3.005" transform="translate(44.623 65.64)" fill="none" stroke="#263238" stroke-linecap="round" stroke-linejoin="round" stroke-width="1"/>
      <path id="Trazado_217210" data-name="Trazado 217210" d="M257.533,271.175a1.327,1.327,0,0,1,.527-1.758c.567-.208,1.255.24,1.534,1.007a1.143,1.143,0,1,1-2.062.751Z" transform="translate(-214.165 -205.783)" fill="none" stroke="#263238" stroke-miterlimit="10" stroke-width="1"/>
      <line id="Línea_628" data-name="Línea 628" x1="1.103" y1="2.997" transform="translate(42.977 61.141)" fill="none" stroke="#263238" stroke-linecap="round" stroke-linejoin="round" stroke-width="1"/>
      <path id="Trazado_217211" data-name="Trazado 217211" d="M255.473,265.484a1.311,1.311,0,0,1,.527-1.75,1.534,1.534,0,1,1-.527,1.75Z" transform="translate(-213.75 -204.59)" fill="none" stroke="#263238" stroke-miterlimit="10" stroke-width="1"/>
      <line id="Línea_629" data-name="Línea 629" x1="1.103" y1="3.005" transform="translate(41.331 56.634)" fill="none" stroke="#263238" stroke-linecap="round" stroke-linejoin="round" stroke-width="1"/>
      <path id="Trazado_217212" data-name="Trazado 217212" d="M253.449,260.054a1.143,1.143,0,1,1,1.534,1A1.326,1.326,0,0,1,253.449,260.054Z" transform="translate(-213.373 -203.668)" fill="none" stroke="#263238" stroke-miterlimit="10" stroke-width="1"/>
      <line id="Línea_630" data-name="Línea 630" x1="1.095" y1="3.005" transform="translate(39.693 52.127)" fill="none" stroke="#263238" stroke-linecap="round" stroke-linejoin="round" stroke-width="1"/>
      <path id="Trazado_217213" data-name="Trazado 217213" d="M251.389,254.414a1.143,1.143,0,1,1,1.534,1A1.319,1.319,0,0,1,251.389,254.414Z" transform="translate(-212.959 -202.535)" fill="none" stroke="#263238" stroke-miterlimit="10" stroke-width="1"/>
      <line id="Línea_631" data-name="Línea 631" x1="1.095" y1="3.005" transform="translate(38.046 47.628)" fill="none" stroke="#263238" stroke-linecap="round" stroke-linejoin="round" stroke-width="1"/>
      <path id="Trazado_217214" data-name="Trazado 217214" d="M249.329,248.784a1.143,1.143,0,1,1,1.534,1,1.327,1.327,0,0,1-1.534-1Z" transform="translate(-212.546 -201.404)" fill="none" stroke="#263238" stroke-miterlimit="10" stroke-width="1"/>
      <line id="Línea_632" data-name="Línea 632" x1="1.095" y1="3.005" transform="translate(36.4 43.121)" fill="none" stroke="#263238" stroke-linecap="round" stroke-linejoin="round" stroke-width="1"/>
      <path id="Trazado_217215" data-name="Trazado 217215" d="M247.269,243.144a1.143,1.143,0,1,1,1.534,1A1.319,1.319,0,0,1,247.269,243.144Z" transform="translate(-212.132 -200.271)" fill="none" stroke="#263238" stroke-miterlimit="10" stroke-width="1"/>
      <line id="Línea_633" data-name="Línea 633" x1="1.095" y1="3.005" transform="translate(34.754 38.622)" fill="none" stroke="#263238" stroke-linecap="round" stroke-linejoin="round" stroke-width="1"/>
      <path id="Trazado_217216" data-name="Trazado 217216" d="M245.209,237.514a1.143,1.143,0,1,1,1.534,1,1.327,1.327,0,0,1-1.534-1Z" transform="translate(-211.718 -199.14)" fill="none" stroke="#263238" stroke-miterlimit="10" stroke-width="1"/>
      <line id="Línea_634" data-name="Línea 634" x1="1.095" y1="3.005" transform="translate(33.108 34.115)" fill="none" stroke="#263238" stroke-linecap="round" stroke-linejoin="round" stroke-width="1"/>
      <path id="Trazado_217217" data-name="Trazado 217217" d="M208.206,333.166a1.319,1.319,0,0,0-.527-1.75c-.567-.216-1.255.232-1.534,1a1.143,1.143,0,1,0,2.062.751Z" transform="translate(-203.827 -218.236)" fill="none" stroke="#263238" stroke-miterlimit="10" stroke-width="1"/>
      <line id="Línea_635" data-name="Línea 635" y1="2.997" x2="1.095" transform="translate(3.668 110.679)" fill="none" stroke="#263238" stroke-linecap="round" stroke-linejoin="round" stroke-width="1"/>
      <path id="Trazado_217218" data-name="Trazado 217218" d="M210.266,327.7a1.143,1.143,0,1,0-1.534,1.007A1.353,1.353,0,0,0,210.266,327.7Z" transform="translate(-204.24 -217.257)" fill="none" stroke="#263238" stroke-miterlimit="10" stroke-width="1"/>
      <line id="Línea_636" data-name="Línea 636" y1="3.005" x2="1.095" transform="translate(5.314 106.172)" fill="none" stroke="#263238" stroke-linecap="round" stroke-linejoin="round" stroke-width="1"/>
      <path id="Trazado_217219" data-name="Trazado 217219" d="M212.326,321.9a1.327,1.327,0,0,0-.527-1.758c-.567-.208-1.255.24-1.534,1.007a1.143,1.143,0,1,0,2.062.751Z" transform="translate(-204.654 -215.971)" fill="none" stroke="#263238" stroke-miterlimit="10" stroke-width="1"/>
      <line id="Línea_637" data-name="Línea 637" y1="2.997" x2="1.095" transform="translate(6.96 101.673)" fill="none" stroke="#263238" stroke-linecap="round" stroke-linejoin="round" stroke-width="1"/>
      <path id="Trazado_217220" data-name="Trazado 217220" d="M214.426,316.418a1.143,1.143,0,1,0-1.6,1.031A1.43,1.43,0,0,0,214.426,316.418Z" transform="translate(-205.076 -215.001)" fill="none" stroke="#263238" stroke-miterlimit="10" stroke-width="1"/>
      <line id="Línea_638" data-name="Línea 638" y1="3.005" x2="1.095" transform="translate(8.607 97.166)" fill="none" stroke="#263238" stroke-linecap="round" stroke-linejoin="round" stroke-width="1"/>
      <path id="Trazado_217221" data-name="Trazado 217221" d="M216.426,310.774a1.143,1.143,0,1,0-1.534,1A1.326,1.326,0,0,0,216.426,310.774Z" transform="translate(-205.478 -213.856)" fill="none" stroke="#263238" stroke-miterlimit="10" stroke-width="1"/>
      <line id="Línea_639" data-name="Línea 639" y1="3.005" x2="1.095" transform="translate(10.253 92.659)" fill="none" stroke="#263238" stroke-linecap="round" stroke-linejoin="round" stroke-width="1"/>
      <path id="Trazado_217222" data-name="Trazado 217222" d="M218.506,305.134a1.143,1.143,0,1,0-1.534,1A1.319,1.319,0,0,0,218.506,305.134Z" transform="translate(-205.896 -212.723)" fill="none" stroke="#263238" stroke-miterlimit="10" stroke-width="1"/>
      <line id="Línea_640" data-name="Línea 640" y1="3.005" x2="1.095" transform="translate(11.899 88.16)" fill="none" stroke="#263238" stroke-linecap="round" stroke-linejoin="round" stroke-width="1"/>
      <path id="Trazado_217223" data-name="Trazado 217223" d="M220.562,299.5a1.151,1.151,0,1,0-1.534,1A1.327,1.327,0,0,0,220.562,299.5Z" transform="translate(-206.306 -211.587)" fill="none" stroke="#263238" stroke-miterlimit="10" stroke-width="1"/>
      <line id="Línea_641" data-name="Línea 641" y1="3.005" x2="1.095" transform="translate(13.545 83.653)" fill="none" stroke="#263238" stroke-linecap="round" stroke-linejoin="round" stroke-width="1"/>
      <path id="Trazado_217224" data-name="Trazado 217224" d="M222.626,293.864a1.143,1.143,0,1,0-1.534,1,1.327,1.327,0,0,0,1.534-1Z" transform="translate(-206.723 -210.459)" fill="none" stroke="#263238" stroke-miterlimit="10" stroke-width="1"/>
      <line id="Línea_642" data-name="Línea 642" y1="3.005" x2="1.095" transform="translate(15.191 79.154)" fill="none" stroke="#263238" stroke-linecap="round" stroke-linejoin="round" stroke-width="1"/>
      <path id="Trazado_217225" data-name="Trazado 217225" d="M224.682,288.229a1.151,1.151,0,1,0-1.534,1A1.327,1.327,0,0,0,224.682,288.229Z" transform="translate(-207.133 -209.324)" fill="none" stroke="#263238" stroke-miterlimit="10" stroke-width="1"/>
      <line id="Línea_643" data-name="Línea 643" y1="3.005" x2="1.103" transform="translate(16.83 74.647)" fill="none" stroke="#263238" stroke-linecap="round" stroke-linejoin="round" stroke-width="1"/>
      <path id="Trazado_217226" data-name="Trazado 217226" d="M226.746,282.447a1.319,1.319,0,0,0-.535-1.75c-.567-.216-1.255.24-1.534,1a1.143,1.143,0,1,0,2.07.751Z" transform="translate(-207.551 -208.048)" fill="none" stroke="#263238" stroke-miterlimit="10" stroke-width="1"/>
      <line id="Línea_644" data-name="Línea 644" y1="2.997" x2="1.103" transform="translate(18.476 70.147)" fill="none" stroke="#263238" stroke-linecap="round" stroke-linejoin="round" stroke-width="1"/>
      <path id="Trazado_217227" data-name="Trazado 217227" d="M228.8,276.96a1.151,1.151,0,1,0-1.542,1A1.327,1.327,0,0,0,228.8,276.96Z" transform="translate(-207.961 -207.06)" fill="none" stroke="#263238" stroke-miterlimit="10" stroke-width="1"/>
      <line id="Línea_645" data-name="Línea 645" y1="3.005" x2="1.103" transform="translate(20.122 65.64)" fill="none" stroke="#263238" stroke-linecap="round" stroke-linejoin="round" stroke-width="1"/>
      <path id="Trazado_217228" data-name="Trazado 217228" d="M230.856,271.175a1.327,1.327,0,0,0-.527-1.758c-.567-.208-1.255.24-1.534,1.007a1.143,1.143,0,1,0,2.062.751Z" transform="translate(-208.377 -205.783)" fill="none" stroke="#263238" stroke-miterlimit="10" stroke-width="1"/>
      <line id="Línea_646" data-name="Línea 646" y1="2.997" x2="1.103" transform="translate(21.768 61.141)" fill="none" stroke="#263238" stroke-linecap="round" stroke-linejoin="round" stroke-width="1"/>
      <path id="Trazado_217229" data-name="Trazado 217229" d="M232.741,265.484a1.311,1.311,0,0,0-.527-1.75,1.534,1.534,0,1,0,.527,1.75Z" transform="translate(-208.616 -204.59)" fill="none" stroke="#263238" stroke-miterlimit="10" stroke-width="1"/>
      <line id="Línea_647" data-name="Línea 647" y1="3.005" x2="1.103" transform="translate(23.414 56.634)" fill="none" stroke="#263238" stroke-linecap="round" stroke-linejoin="round" stroke-width="1"/>
      <path id="Trazado_217230" data-name="Trazado 217230" d="M234.976,260.054a1.143,1.143,0,1,0-1.534,1A1.326,1.326,0,0,0,234.976,260.054Z" transform="translate(-209.204 -203.668)" fill="none" stroke="#263238" stroke-miterlimit="10" stroke-width="1"/>
      <line id="Línea_648" data-name="Línea 648" y1="3.005" x2="1.095" transform="translate(25.061 52.127)" fill="none" stroke="#263238" stroke-linecap="round" stroke-linejoin="round" stroke-width="1"/>
      <path id="Trazado_217231" data-name="Trazado 217231" d="M237.036,254.414a1.143,1.143,0,1,0-1.534,1,1.319,1.319,0,0,0,1.534-1Z" transform="translate(-209.618 -202.535)" fill="none" stroke="#263238" stroke-miterlimit="10" stroke-width="1"/>
      <line id="Línea_649" data-name="Línea 649" y1="3.005" x2="1.095" transform="translate(26.707 47.628)" fill="none" stroke="#263238" stroke-linecap="round" stroke-linejoin="round" stroke-width="1"/>
      <path id="Trazado_217232" data-name="Trazado 217232" d="M239.1,248.784a1.143,1.143,0,1,0-1.534,1A1.327,1.327,0,0,0,239.1,248.784Z" transform="translate(-210.032 -201.404)" fill="none" stroke="#263238" stroke-miterlimit="10" stroke-width="1"/>
      <line id="Línea_650" data-name="Línea 650" y1="3.005" x2="1.095" transform="translate(28.353 43.121)" fill="none" stroke="#263238" stroke-linecap="round" stroke-linejoin="round" stroke-width="1"/>
      <path id="Trazado_217233" data-name="Trazado 217233" d="M241.156,243.144a1.143,1.143,0,1,0-1.534,1A1.319,1.319,0,0,0,241.156,243.144Z" transform="translate(-210.446 -200.271)" fill="none" stroke="#263238" stroke-miterlimit="10" stroke-width="1"/>
      <line id="Línea_651" data-name="Línea 651" y1="3.005" x2="1.095" transform="translate(29.999 38.622)" fill="none" stroke="#263238" stroke-linecap="round" stroke-linejoin="round" stroke-width="1"/>
      <path id="Trazado_217234" data-name="Trazado 217234" d="M243.216,237.514a1.143,1.143,0,1,0-1.534,1,1.327,1.327,0,0,0,1.534-1Z" transform="translate(-210.859 -199.14)" fill="none" stroke="#263238" stroke-miterlimit="10" stroke-width="1"/>
      <line id="Línea_652" data-name="Línea 652" y1="3.005" x2="1.095" transform="translate(31.645 34.115)" fill="none" stroke="#263238" stroke-linecap="round" stroke-linejoin="round" stroke-width="1"/>
      <path id="Trazado_217235" data-name="Trazado 217235" d="M243.12,336.8c0-.8.5-1.47,1.1-1.47s1.095.655,1.095,1.47-.487,1.462-1.095,1.462S243.12,337.608,243.12,336.8Z" transform="translate(-211.299 -219.033)" fill="none" stroke="#263238" stroke-miterlimit="10" stroke-width="1"/>
      <line id="Línea_653" data-name="Línea 653" y1="3.197" transform="translate(32.924 113.636)" fill="none" stroke="#263238" stroke-linecap="round" stroke-linejoin="round" stroke-width="1"/>
      <path id="Trazado_217236" data-name="Trazado 217236" d="M243.12,330.8c0-.8.5-1.47,1.1-1.47s1.095.655,1.095,1.47-.487,1.462-1.095,1.462S243.12,331.608,243.12,330.8Z" transform="translate(-211.299 -217.828)" fill="none" stroke="#263238" stroke-miterlimit="10" stroke-width="1"/>
      <line id="Línea_654" data-name="Línea 654" y1="3.197" transform="translate(32.924 108.841)" fill="none" stroke="#263238" stroke-linecap="round" stroke-linejoin="round" stroke-width="1"/>
      <path id="Trazado_217237" data-name="Trazado 217237" d="M243.12,324.8c0-.8.5-1.47,1.1-1.47s1.095.655,1.095,1.47-.487,1.462-1.095,1.462S243.12,325.608,243.12,324.8Z" transform="translate(-211.299 -216.622)" fill="none" stroke="#263238" stroke-miterlimit="10" stroke-width="1"/>
      <line id="Línea_655" data-name="Línea 655" y1="3.197" transform="translate(32.924 104.046)" fill="none" stroke="#263238" stroke-linecap="round" stroke-linejoin="round" stroke-width="1"/>
      <path id="Trazado_217238" data-name="Trazado 217238" d="M243.12,318.8c0-.8.5-1.47,1.1-1.47s1.095.655,1.095,1.47-.487,1.462-1.095,1.462S243.12,319.607,243.12,318.8Z" transform="translate(-211.299 -215.417)" fill="none" stroke="#263238" stroke-miterlimit="10" stroke-width="1"/>
      <line id="Línea_656" data-name="Línea 656" y1="3.197" transform="translate(32.924 99.252)" fill="none" stroke="#263238" stroke-linecap="round" stroke-linejoin="round" stroke-width="1"/>
      <path id="Trazado_217239" data-name="Trazado 217239" d="M243.12,312.8c0-.8.5-1.47,1.1-1.47s1.095.655,1.095,1.47-.487,1.462-1.095,1.462S243.12,313.608,243.12,312.8Z" transform="translate(-211.299 -214.212)" fill="none" stroke="#263238" stroke-miterlimit="10" stroke-width="1"/>
      <line id="Línea_657" data-name="Línea 657" y1="3.197" transform="translate(32.924 94.457)" fill="none" stroke="#263238" stroke-linecap="round" stroke-linejoin="round" stroke-width="1"/>
      <path id="Trazado_217240" data-name="Trazado 217240" d="M243.12,306.8c0-.8.5-1.47,1.1-1.47s1.095.655,1.095,1.47-.487,1.462-1.095,1.462S243.12,307.608,243.12,306.8Z" transform="translate(-211.299 -213.007)" fill="none" stroke="#263238" stroke-miterlimit="10" stroke-width="1"/>
      <line id="Línea_658" data-name="Línea 658" y1="3.197" transform="translate(32.924 89.662)" fill="none" stroke="#263238" stroke-linecap="round" stroke-linejoin="round" stroke-width="1"/>
      <path id="Trazado_217241" data-name="Trazado 217241" d="M243.12,300.8c0-.8.5-1.47,1.1-1.47s1.095.655,1.095,1.47-.487,1.462-1.095,1.462S243.12,301.608,243.12,300.8Z" transform="translate(-211.299 -211.802)" fill="none" stroke="#263238" stroke-miterlimit="10" stroke-width="1"/>
      <line id="Línea_659" data-name="Línea 659" y1="3.197" transform="translate(32.924 84.867)" fill="none" stroke="#263238" stroke-linecap="round" stroke-linejoin="round" stroke-width="1"/>
      <path id="Trazado_217242" data-name="Trazado 217242" d="M243.12,294.8c0-.8.5-1.47,1.1-1.47s1.095.655,1.095,1.47-.487,1.462-1.095,1.462S243.12,295.608,243.12,294.8Z" transform="translate(-211.299 -210.596)" fill="none" stroke="#263238" stroke-miterlimit="10" stroke-width="1"/>
      <line id="Línea_660" data-name="Línea 660" y1="3.197" transform="translate(32.924 80.073)" fill="none" stroke="#263238" stroke-linecap="round" stroke-linejoin="round" stroke-width="1"/>
      <path id="Trazado_217243" data-name="Trazado 217243" d="M243.12,288.8c0-.8.5-1.47,1.1-1.47s1.095.655,1.095,1.47-.487,1.462-1.095,1.462S243.12,289.607,243.12,288.8Z" transform="translate(-211.299 -209.391)" fill="none" stroke="#263238" stroke-miterlimit="10" stroke-width="1"/>
      <line id="Línea_661" data-name="Línea 661" y1="3.197" transform="translate(32.924 75.278)" fill="none" stroke="#263238" stroke-linecap="round" stroke-linejoin="round" stroke-width="1"/>
      <path id="Trazado_217244" data-name="Trazado 217244" d="M243.12,282.8c0-.8.5-1.47,1.1-1.47s1.095.655,1.095,1.47-.487,1.462-1.095,1.462S243.12,283.607,243.12,282.8Z" transform="translate(-211.299 -208.186)" fill="none" stroke="#263238" stroke-miterlimit="10" stroke-width="1"/>
      <line id="Línea_662" data-name="Línea 662" y1="3.197" transform="translate(32.924 70.483)" fill="none" stroke="#263238" stroke-linecap="round" stroke-linejoin="round" stroke-width="1"/>
      <path id="Trazado_217245" data-name="Trazado 217245" d="M243.12,276.8c0-.8.5-1.47,1.1-1.47s1.095.655,1.095,1.47-.487,1.462-1.095,1.462S243.12,277.608,243.12,276.8Z" transform="translate(-211.299 -206.981)" fill="none" stroke="#263238" stroke-miterlimit="10" stroke-width="1"/>
      <line id="Línea_663" data-name="Línea 663" y1="3.197" transform="translate(32.924 65.688)" fill="none" stroke="#263238" stroke-linecap="round" stroke-linejoin="round" stroke-width="1"/>
      <path id="Trazado_217246" data-name="Trazado 217246" d="M243.12,270.8c0-.8.5-1.47,1.1-1.47s1.095.655,1.095,1.47-.487,1.462-1.095,1.462S243.12,271.608,243.12,270.8Z" transform="translate(-211.299 -205.775)" fill="none" stroke="#263238" stroke-miterlimit="10" stroke-width="1"/>
      <line id="Línea_664" data-name="Línea 664" y1="3.197" transform="translate(32.924 60.894)" fill="none" stroke="#263238" stroke-linecap="round" stroke-linejoin="round" stroke-width="1"/>
      <path id="Trazado_217247" data-name="Trazado 217247" d="M243.12,264.8c0-.8.5-1.47,1.1-1.47s1.095.655,1.095,1.47-.487,1.462-1.095,1.462S243.12,265.608,243.12,264.8Z" transform="translate(-211.299 -204.57)" fill="none" stroke="#263238" stroke-miterlimit="10" stroke-width="1"/>
      <line id="Línea_665" data-name="Línea 665" y1="3.197" transform="translate(32.924 56.099)" fill="none" stroke="#263238" stroke-linecap="round" stroke-linejoin="round" stroke-width="1"/>
      <path id="Trazado_217248" data-name="Trazado 217248" d="M243.12,258.8c0-.8.5-1.47,1.1-1.47s1.095.655,1.095,1.47-.487,1.462-1.095,1.462S243.12,259.608,243.12,258.8Z" transform="translate(-211.299 -203.365)" fill="none" stroke="#263238" stroke-miterlimit="10" stroke-width="1"/>
      <line id="Línea_666" data-name="Línea 666" y1="3.197" transform="translate(32.924 51.304)" fill="none" stroke="#263238" stroke-linecap="round" stroke-linejoin="round" stroke-width="1"/>
      <path id="Trazado_217249" data-name="Trazado 217249" d="M243.12,252.8c0-.8.5-1.47,1.1-1.47s1.095.655,1.095,1.47-.487,1.462-1.095,1.462S243.12,253.607,243.12,252.8Z" transform="translate(-211.299 -202.16)" fill="none" stroke="#263238" stroke-miterlimit="10" stroke-width="1"/>
      <line id="Línea_667" data-name="Línea 667" y1="3.197" transform="translate(32.924 46.509)" fill="none" stroke="#263238" stroke-linecap="round" stroke-linejoin="round" stroke-width="1"/>
      <path id="Trazado_217250" data-name="Trazado 217250" d="M243.12,246.8c0-.8.5-1.47,1.1-1.47s1.095.655,1.095,1.47-.487,1.462-1.095,1.462S243.12,247.607,243.12,246.8Z" transform="translate(-211.299 -200.954)" fill="none" stroke="#263238" stroke-miterlimit="10" stroke-width="1"/>
      <line id="Línea_668" data-name="Línea 668" y1="3.197" transform="translate(32.924 41.714)" fill="none" stroke="#263238" stroke-linecap="round" stroke-linejoin="round" stroke-width="1"/>
      <path id="Trazado_217251" data-name="Trazado 217251" d="M243.12,240.8c0-.8.5-1.47,1.1-1.47s1.095.655,1.095,1.47-.487,1.462-1.095,1.462S243.12,241.607,243.12,240.8Z" transform="translate(-211.299 -199.749)" fill="none" stroke="#263238" stroke-miterlimit="10" stroke-width="1"/>
      <line id="Línea_669" data-name="Línea 669" y1="3.197" transform="translate(32.924 36.92)" fill="none" stroke="#263238" stroke-linecap="round" stroke-linejoin="round" stroke-width="1"/>
      <path id="Trazado_217252" data-name="Trazado 217252" d="M243.12,234.8c0-.8.5-1.47,1.1-1.47s1.095.655,1.095,1.47-.487,1.462-1.095,1.462S243.12,235.608,243.12,234.8Z" transform="translate(-211.299 -198.544)" fill="none" stroke="#263238" stroke-miterlimit="10" stroke-width="1"/>
      <line id="Línea_670" data-name="Línea 670" y1="3.197" transform="translate(32.924 32.125)" fill="none" stroke="#263238" stroke-linecap="round" stroke-linejoin="round" stroke-width="1"/>
      <path id="Trazado_217253" data-name="Trazado 217253" d="M243.12,228.8c0-.8.5-1.47,1.1-1.47s1.095.655,1.095,1.47-.487,1.462-1.095,1.462S243.12,229.607,243.12,228.8Z" transform="translate(-211.299 -197.339)" fill="none" stroke="#263238" stroke-miterlimit="10" stroke-width="1"/>
      <line id="Línea_671" data-name="Línea 671" y1="3.197" transform="translate(32.924 27.33)" fill="none" stroke="#263238" stroke-linecap="round" stroke-linejoin="round" stroke-width="1"/>
      <path id="Trazado_217254" data-name="Trazado 217254" d="M203.3,333c0,2.4,14.744,6.089,32.924,6.089S269.148,335.4,269.148,333Z" transform="translate(-203.3 -218.565)" fill="#f67409"/>
      <path id="Trazado_217255" data-name="Trazado 217255" d="M269.148,333c0,2.4-14.744,6.089-32.924,6.089S203.3,335.4,203.3,333Z" transform="translate(-203.3 -218.565)" opacity="0.2"/>
      <path id="Trazado_217256" data-name="Trazado 217256" d="M328.642,207.9l3.109.152c.487,0,1.063.072,1.694.136l2.022.208c.735.056,1.47.2,2.27.32s1.6.224,2.485.432l2.677.567,2.829.8c.967.28,1.942.607,2.949.919s2,.727,3.021,1.1c2.022.8,4.084,1.686,6.121,2.669s4.068,2.022,6.081,3.061,4,2.062,5.969,2.989a36.77,36.77,0,0,0,5.874,2.2,30.432,30.432,0,0,0,5.746,1.023,25.854,25.854,0,0,0,5.194-.1c.4-.048.8-.136,1.151-.2l.559-.1.527-.144,1.015-.28.927-.352c.152-.056.3-.1.439-.168l.408-.2.759-.384c.472-.28.879-.567,1.263-.8l.911-.8a6.265,6.265,0,0,0,.615-.639l.5-.551L397.4,221l-.559.687a7.864,7.864,0,0,1-.7.8l-1.063.983c-.44.3-.911.671-1.454,1.023l-.879.487-.464.256c-.16.08-.336.144-.5.216l-1.055.447c-.368.128-.751.24-1.143.368l-.6.184-.623.144c-.416.088-.847.2-1.287.272a28.291,28.291,0,0,1-5.738.336,33.024,33.024,0,0,1-6.313-.855,40.039,40.039,0,0,1-6.449-2.118c-2.094-.887-4.171-1.846-6.217-2.8s-4.076-1.91-6.089-2.765-4-1.6-5.961-2.317c-.983-.312-1.942-.631-2.885-.919s-1.886-.527-2.8-.759l-2.669-.591-2.517-.432c-.8-.16-1.6-.208-2.325-.3a20.576,20.576,0,0,0-2.086-.216l-1.822-.112c-.559-.04-1.071-.072-1.6-.064H328.49Z" transform="translate(-228.447 -193.436)" fill="#f67409"/>
      <path id="Trazado_217257" data-name="Trazado 217257" d="M312.249,207.9l-3.109.152c-.479,0-1.055.072-1.686.136l-2.03.208c-.727.056-1.47.2-2.262.32s-1.6.224-2.485.432l-2.677.567-2.837.8c-.959.28-1.942.607-2.941.919s-2,.727-3.021,1.1c-2.022.8-4.092,1.686-6.121,2.669s-4.076,2.022-6.089,3.061-4,2.062-5.969,2.989a36.445,36.445,0,0,1-5.874,2.2,30.211,30.211,0,0,1-5.746,1.023,25.772,25.772,0,0,1-5.186-.1c-.4-.048-.8-.136-1.159-.2l-.559-.1-.527-.144-1.015-.28-.927-.352c-.144-.056-.3-.1-.44-.168l-.4-.2-.8-.384c-.464-.28-.871-.567-1.255-.8l-.919-.8a6.087,6.087,0,0,1-.607-.639l-.5-.551L243.46,221l.567.687a7.878,7.878,0,0,0,.7.8l1.055.983c.44.3.919.671,1.454,1.023l.879.487.471.256c.16.08.328.144.5.216l1.055.447c.368.128.759.24,1.151.368l.6.184.615.144c.424.088.855.2,1.295.272a28.177,28.177,0,0,0,5.73.336,32.94,32.94,0,0,0,6.313-.855,40.032,40.032,0,0,0,6.449-2.118c2.1-.887,4.171-1.846,6.225-2.8s4.076-1.91,6.089-2.765,4-1.6,5.954-2.317c.983-.312,1.942-.631,2.893-.919s1.886-.527,2.8-.759l2.661-.591,2.517-.5c.8-.16,1.6-.208,2.326-.3a20.7,20.7,0,0,1,2.094-.216l1.822-.112c.559-.04,1.071-.072,1.6-.064h3.109Z" transform="translate(-211.367 -193.436)" fill="#f67409"/>
      <path id="Trazado_217258" data-name="Trazado 217258" d="M328.642,207.9l3.109.152c.487,0,1.063.072,1.694.136l2.022.208c.735.056,1.47.2,2.27.32s1.6.224,2.485.432l2.677.567,2.829.8c.967.28,1.942.607,2.949.919s2,.727,3.021,1.1c2.022.8,4.084,1.686,6.121,2.669s4.068,2.022,6.081,3.061,4,2.062,5.969,2.989a36.77,36.77,0,0,0,5.874,2.2,30.432,30.432,0,0,0,5.746,1.023,25.854,25.854,0,0,0,5.194-.1c.4-.048.8-.136,1.151-.2l.559-.1.527-.144,1.015-.28.927-.352c.152-.056.3-.1.439-.168l.408-.2.759-.384c.472-.28.879-.567,1.263-.8l.911-.8a6.265,6.265,0,0,0,.615-.639l.5-.551L397.4,221l-.559.687a7.864,7.864,0,0,1-.7.8l-1.063.983c-.44.3-.911.671-1.454,1.023l-.879.487-.464.256c-.16.08-.336.144-.5.216l-1.055.447c-.368.128-.751.24-1.143.368l-.6.184-.623.144c-.416.088-.847.2-1.287.272a28.291,28.291,0,0,1-5.738.336,33.024,33.024,0,0,1-6.313-.855,40.039,40.039,0,0,1-6.449-2.118c-2.094-.887-4.171-1.846-6.217-2.8s-4.076-1.91-6.089-2.765-4-1.6-5.961-2.317c-.983-.312-1.942-.631-2.885-.919s-1.886-.527-2.8-.759l-2.669-.591-2.517-.432c-.8-.16-1.6-.208-2.325-.3a20.576,20.576,0,0,0-2.086-.216l-1.822-.112c-.559-.04-1.071-.072-1.6-.064H328.49Z" transform="translate(-228.447 -193.436)" fill="#fff" opacity="0.1"/>
      <path id="Trazado_217259" data-name="Trazado 217259" d="M312.249,207.9l-3.109.152c-.479,0-1.055.072-1.686.136l-2.03.208c-.727.056-1.47.2-2.262.32s-1.6.224-2.485.432l-2.677.567-2.837.8c-.959.28-1.942.607-2.941.919s-2,.727-3.021,1.1c-2.022.8-4.092,1.686-6.121,2.669s-4.076,2.022-6.089,3.061-4,2.062-5.969,2.989a36.445,36.445,0,0,1-5.874,2.2,30.211,30.211,0,0,1-5.746,1.023,25.772,25.772,0,0,1-5.186-.1c-.4-.048-.8-.136-1.159-.2l-.559-.1-.527-.144-1.015-.28-.927-.352c-.144-.056-.3-.1-.44-.168l-.4-.2-.8-.384c-.464-.28-.871-.567-1.255-.8l-.919-.8a6.087,6.087,0,0,1-.607-.639l-.5-.551L243.46,221l.567.687a7.878,7.878,0,0,0,.7.8l1.055.983c.44.3.919.671,1.454,1.023l.879.487.471.256c.16.08.328.144.5.216l1.055.447c.368.128.759.24,1.151.368l.6.184.615.144c.424.088.855.2,1.295.272a28.177,28.177,0,0,0,5.73.336,32.94,32.94,0,0,0,6.313-.855,40.032,40.032,0,0,0,6.449-2.118c2.1-.887,4.171-1.846,6.225-2.8s4.076-1.91,6.089-2.765,4-1.6,5.954-2.317c.983-.312,1.942-.631,2.893-.919s1.886-.527,2.8-.759l2.661-.591,2.517-.5c.8-.16,1.6-.208,2.326-.3a20.7,20.7,0,0,1,2.094-.216l1.822-.112c.559-.04,1.071-.072,1.6-.064h3.109Z" transform="translate(-211.367 -193.436)" fill="#fff" opacity="0.1"/>
      <circle id="Elipse_7170" data-name="Elipse 7170" cx="2.062" cy="2.062" r="2.062" transform="translate(165.731 24.853)" fill="#f67409"/>
      <path id="Trazado_217260" data-name="Trazado 217260" d="M243.6,220.9a2.062,2.062,0,1,0,2.054,2.062A2.062,2.062,0,0,0,243.6,220.9Z" transform="translate(-210.979 -196.047)" fill="#f67409"/>
      <path id="Trazado_217261" data-name="Trazado 217261" d="M333.586,201.393a6.393,6.393,0,1,0-12.786,0,5.818,5.818,0,0,0,1.3,3.661l.543,12.306h9.086l.543-12.307a5.778,5.778,0,0,0,1.319-3.66Z" transform="translate(-226.903 -190.845)" fill="#f67409"/>
      <path id="Trazado_217262" data-name="Trazado 217262" d="M322.111,205.619h10.173a5.954,5.954,0,0,0,1.3-3.716,6.393,6.393,0,1,0-12.786,0,5.994,5.994,0,0,0,1.295,3.716Z" transform="translate(-226.903 -190.947)" fill="#fff" opacity="0.1"/>
    </g>
  </g>
</svg>
