<svg xmlns="http://www.w3.org/2000/svg" width="267.383" height="269.4" viewBox="0 0 267.383 269.4">
  <g id="Justice-rafiki_1_" data-name="Justice-rafiki (1)" transform="translate(-56.11 -56.854)">
    <g id="freepik--background-simple--inject-61" transform="translate(64.804 56.854)">
      <path id="Trazado_217263" data-name="Trazado 217263" d="M280.431,246.449c26.2-92.851-57.168-105.014-86.342-147.22S93.046,26.816,71.754,107.076c-17.8,67.008,46.612,73.165,90.934,104.89C198.984,237.975,254.243,339.307,280.431,246.449Z" transform="translate(-68.719 -56.854)" fill="#e8e8e8"/>
      <path id="Trazado_217264" data-name="Trazado 217264" d="M162.688,211.966C198.984,237.975,118.365,180.241,162.688,211.966Z" transform="translate(-68.719 -56.854)" fill="#afafaf" opacity="0.9"/>
    </g>
    <g id="freepik--Shadow--inject-61" transform="translate(56.11 310.644)">
      <ellipse id="freepik--path--inject-61" cx="133.691" cy="7.805" rx="133.691" ry="7.805" transform="translate(0 0)" fill="#f5f5f5"/>
    </g>
    <g id="freepik--Character--inject-61" transform="translate(98.095 58.962)">
      <path id="Trazado_217265" data-name="Trazado 217265" d="M269.572,95.365c1.917-.517,4.5.179,3.261,1.882.11,1.7-2.875,2.682-3.586,2.117S269.572,95.365,269.572,95.365Z" transform="translate(-164.192 -70.867)" fill="#f67409"/>
      <path id="Trazado_217266" data-name="Trazado 217266" d="M270.013,99.173c1.545.621.5,4.137,1.489,5.847-2.758-1.427-3.827-4.137-2.82-5.82C269.744,98.422,270.013,99.173,270.013,99.173Z" transform="translate(-163.979 -72)" fill="#f67409"/>
      <path id="Trazado_217267" data-name="Trazado 217267" d="M271.682,98.065c1.62-.4,2.834,3.068,4.634,3.868-3.082.462-5.516-1.1-5.7-3.068C271.027,97.617,271.682,98.065,271.682,98.065Z" transform="translate(-164.696 -71.733)" fill="#f67409"/>
      <path id="Trazado_217268" data-name="Trazado 217268" d="M259.265,128.778c1.841-1.262,8.605,0,11.508,2.634s15.1,18.927,20,19.576a23.2,23.2,0,0,1-16.852,8.274s2.393,7.192,4.434,8.123c-2.868,3.744-21.989,2.069-21.989,2.069S254.59,137.838,259.265,128.778Z" transform="translate(-160.166 -81.14)" fill="#f67409"/>
      <path id="Trazado_217269" data-name="Trazado 217269" d="M259.265,128.778c1.841-1.262,8.605,0,11.508,2.634s15.1,18.927,20,19.576a23.2,23.2,0,0,1-16.852,8.274s2.393,7.192,4.434,8.123c-2.868,3.744-21.989,2.069-21.989,2.069S254.59,137.838,259.265,128.778Z" transform="translate(-160.166 -81.14)" opacity="0.2"/>
      <path id="Trazado_217270" data-name="Trazado 217270" d="M240.11,90.108c.945,2.9,4.489,3.234,6.068,3.048-.5,1.269,1.214,3.592,3.406,3.241-.441.834-.821,4.358.193,5.447-1.7.855.283,3.6.283,3.6s3.93-.545,4.089-2.689a3.372,3.372,0,0,0,4.213-2.889c2.358-.621,3.565-3.689,2.262-5.516,1.255-.731,1.765-4.875-1.207-7.5s-6.806-.593-6.806-.593.055-2.069-4.2-2.269-3.1,2.455-3.1,2.455S240.441,85.654,240.11,90.108Z" transform="translate(-155.223 -67.383)" fill="#263238"/>
      <path id="Trazado_217271" data-name="Trazado 217271" d="M246.25,83.3c-1.972.565-3.5-1.283-3.985-2.234-.517.758-2.455.69-3.089-.69-.3.565-2.117,2.069-3.1,1.944.165,1.269-2.117,1.2-2.117,1.2s-1.172-2.393-.034-3.289a2.262,2.262,0,0,1,0-3.448,2.527,2.527,0,0,1,2.2-3.323c-.062-.972,2.069-2.82,4.634-2.158s2.9,3.572,2.9,3.572,1.124-.807,2.841,1.482-.193,2.648-.193,2.648S248.6,81.436,246.25,83.3Z" transform="translate(-153.054 -63.406)" fill="#263238"/>
      <path id="Trazado_217272" data-name="Trazado 217272" d="M151.606,105.12h0a4.523,4.523,0,0,0-4.944,1.862l-1.02,1.517a2.324,2.324,0,0,0,1.214,3.51l1.613.524s3.744,3.779,7.957,4.358l2.5-3.448L157.2,109.8A8.654,8.654,0,0,0,151.606,105.12Z" transform="translate(-125.769 -73.899)" fill="#7f3e3b"/>
      <path id="Trazado_217273" data-name="Trazado 217273" d="M206.683,136.88l-.993.469-.917.407c-.607.276-1.214.517-1.82.758-1.214.5-2.448.924-3.675,1.379a73.576,73.576,0,0,1-7.523,2.069c-1.269.3-2.558.538-3.848.779s-2.6.4-3.916.531l-1.979.2c-.69.041-1.331.076-1.993.1l-1,.048h-3.1a8.13,8.13,0,0,1-2.448-.441,9.552,9.552,0,0,1-1.717-.786,12.668,12.668,0,0,1-2.282-1.7,25.879,25.879,0,0,1-2.993-3.351,53.859,53.859,0,0,1-4.227-6.688c-1.214-2.248-2.317-4.516-3.33-6.812s-1.931-4.592-2.758-7.012a2.882,2.882,0,0,1,5.1-2.558l.035.048c2.7,3.93,5.42,7.943,8.24,11.639a60.42,60.42,0,0,0,4.323,5.165A15.314,15.314,0,0,0,175.931,133a3.269,3.269,0,0,0,.69.4c.041,0,.055,0-.041-.055a1.7,1.7,0,0,0-.69-.131l1.558-.145.814-.076.827-.11,1.641-.221,1.648-.283c2.193-.407,4.385-.9,6.564-1.5s4.358-1.262,6.5-2.02c1.076-.372,2.138-.772,3.192-1.172l1.565-.614.758-.31.69-.283.276-.124a5.771,5.771,0,0,1,4.709,10.529Z" transform="translate(-129.112 -76.403)" fill="#7f3e3b"/>
      <path id="Trazado_217274" data-name="Trazado 217274" d="M200.966,432.411v.827H169.813a1.62,1.62,0,0,1-1.613-1.62v-3.344a1.62,1.62,0,0,1,1.613-1.613h31.153v.827C200.146,427.487,200.146,432.411,200.966,432.411Z" transform="translate(-132.896 -173.779)" fill="#f67409"/>
      <path id="Trazado_217275" data-name="Trazado 217275" d="M203.4,432.783H176.829a.786.786,0,0,1-.779-.793v-3.344a.779.779,0,0,1,.779-.786H203.4C202.583,427.86,202.583,432.783,203.4,432.783Z" transform="translate(-135.334 -174.151)" fill="#fff" opacity="0.8"/>
      <path id="Trazado_217276" data-name="Trazado 217276" d="M200.984,417.181c-.331-1.765-1.724-2.813,0-9.446,0,0-7.426-.29-7.385,1.889.069,3.951-9.433,8.323-15.245,8.364-2.586,0-.517,2.8,1.379,2.8,5.33,0,9.295-.524,11.97-.448,2.289.062,4.034.455,7.771.448C201.039,420.787,201.322,418.946,200.984,417.181Z" transform="translate(-135.672 -167.899)" fill="#7f3e3b"/>
      <path id="Trazado_217277" data-name="Trazado 217277" d="M273.74,426.626c-.448-1.738-1.9-2.7-.593-9.426,0,0-7.426.193-7.247,2.365.331,3.937-1.993,6.737-7.654,8.074-1.972.469-1.855,2.689.048,2.682,4.751,0,6.55-.1,9.226-.2,2.282-.083,3.137.241,4.971.2C274.029,430.287,274.181,428.37,273.74,426.626Z" transform="translate(-160.41 -170.842)" fill="#7f3e3b"/>
      <path id="Trazado_217278" data-name="Trazado 217278" d="M210.463,200.4c-1,10.908-12.2,28.615-7.778,33.042-3.448,25.733-17.569,54.369-10.653,66.539-.827,11.9-22.141,56.4,1.248,52.018s42.612,10.3,77.475,10.3,6.9-23.161-4.427-48.342c0,0,8.895-9.405-6.206-48.956s-10.129-54.086-17.045-64.581C222.054,195.162,210.463,200.4,210.463,200.4Z" transform="translate(-137.291 -102.808)" fill="#f67409"/>
      <path id="Trazado_217279" data-name="Trazado 217279" d="M195.648,345.86A59.163,59.163,0,0,1,194,353.541c10.653,8.467,64.181,40.606,80.784,43.509C252.789,388.335,202.012,354.024,195.648,345.86Z" transform="translate(-140.907 -148.692)" opacity="0.2"/>
      <path id="Trazado_217280" data-name="Trazado 217280" d="M211.371,249.36l-1.041,6.351c27.733,16.721,47.343,52.211,54.472,63.836C257.024,298.068,237.794,271.769,211.371,249.36Z" transform="translate(-145.977 -118.731)" opacity="0.2"/>
      <path id="Trazado_217281" data-name="Trazado 217281" d="M215.477,140.169c.138,3.206-4.923,10.626,1.324,14.921.738,6.482,1.655,12.86,3.386,23.478,7.943,2.689,19.913,1.682,32.614,0-1.338-9.184-1.048-19.658,3.268-40.337a8.274,8.274,0,0,0-7.24-9.888c-1.3-.131-2.682-.234-4.1-.3a102.978,102.978,0,0,0-14.811,0c-1.6.145-3.255.345-4.827.565a11.191,11.191,0,0,0-9.619,11.563Z" transform="translate(-147.015 -80.981)" fill="#f67409"/>
      <path id="Trazado_217282" data-name="Trazado 217282" d="M223.358,194.33c-2.958,2.71-3.53,5.516.414,9.536S223.358,194.33,223.358,194.33Z" transform="translate(-149.282 -101.645)" fill="#f67409"/>
      <path id="Trazado_217283" data-name="Trazado 217283" d="M221,169.86c5.854,4.254,22,8.274,26.54,13.977C240.307,180.589,222.42,174.707,221,169.86Z" transform="translate(-149.29 -94.048)" opacity="0.2"/>
      <path id="Trazado_217284" data-name="Trazado 217284" d="M224.338,206.33c4.027,5.282,28.65,27.477,29,33.649C249.83,233.27,223.966,211.757,224.338,206.33Z" transform="translate(-150.325 -105.371)" opacity="0.2"/>
      <path id="Trazado_217285" data-name="Trazado 217285" d="M262,140.15c0,4.1,3.53,12.156,6.592,15.287.434-2.868.993-5.985,1.662-9.4Z" transform="translate(-162.019 -84.824)" opacity="0.2"/>
      <path id="Trazado_217286" data-name="Trazado 217286" d="M248.547,104c-.931,4.765-1.862,13.494,1.469,16.68,0,0-9.088,1.586-19.038,11.915-1.655-9.819,4.227-11.915,4.227-11.915,5.316-1.269,5.178-5.213,4.254-8.916Z" transform="translate(-152.296 -73.6)" fill="#7f3e3b"/>
      <path id="Trazado_217287" data-name="Trazado 217287" d="M248.8,108.56l-5.385,4.592a14.8,14.8,0,0,1,.462,2.627c2.027-.29,4.827-2.517,5.034-4.647a7.247,7.247,0,0,0-.11-2.572Z" transform="translate(-156.248 -75.016)" opacity="0.2"/>
      <path id="Trazado_217288" data-name="Trazado 217288" d="M253.348,85.208c-1.855,7.75-2.482,11.074-7.074,14.4-6.9,5.013-15.859,1.055-16.28-7.088-.407-7.33,2.7-18.776,10.777-20.555C248.722,70.2,255.21,77.458,253.348,85.208Z" transform="translate(-152.071 -63.572)" fill="#7f3e3b"/>
      <path id="Trazado_217289" data-name="Trazado 217289" d="M236.311,70.157c1.7,3.448,7.109,3.379,9.026,2.855-.393,1.669,2.172,4.227,4.827,3.392-.4,1.11-.214,5.516,1.234,6.7-1.944,1.379,1.014,4.413,1.014,4.413s7.123-1.345,7.364-3.068c1.6,1.117,5.516.09,5.516-3.179,2.834-.889,3.785-6.13-.034-8.274,1.655-2.613,1.524-9.095-3.985-11.032-4.827-1.724-9.205,1.379-9.205,1.379a5.039,5.039,0,0,0-5.737-3.386,4.427,4.427,0,0,0-4.137,4.468S235.9,64.579,236.311,70.157Z" transform="translate(-154.038 -59.912)" fill="#263238"/>
      <path id="Trazado_217290" data-name="Trazado 217290" d="M236.359,91.64a17.238,17.238,0,0,1-3,3.7,2.762,2.762,0,0,0,2.2.827Z" transform="translate(-153.127 -69.763)" fill="#630f0f"/>
      <path id="Trazado_217291" data-name="Trazado 217291" d="M231.834,84.711c-.758.172-2.462,4.64-1.551,5.351s3.206.1,4.62.462,2.655,1.738,8.826,2.31,14.342,2.758,14.349,1.662,1.917-1.91.862-2.31-19.183-6.088-22.989-6.9C233.82,84.8,232.723,84.511,231.834,84.711Z" transform="translate(-152.091 -67.591)" fill="#f67409"/>
      <path id="Trazado_217292" data-name="Trazado 217292" d="M241.72,101.729a6.207,6.207,0,0,1-1.089-.1.189.189,0,1,1,.069-.372,5.1,5.1,0,0,0,4.468-1.248.193.193,0,0,1,.269,0,.186.186,0,0,1,0,.269A5.282,5.282,0,0,1,241.72,101.729Z" transform="translate(-155.336 -72.343)" fill="#263238"/>
      <path id="Trazado_217293" data-name="Trazado 217293" d="M262.167,100.6a5.1,5.1,0,0,1-3.668,2.069c-1.834.1-2.269-1.986-1.379-3.8.827-1.627,2.758-3.648,4.413-2.882S263.339,99.074,262.167,100.6Z" transform="translate(-160.366 -71.06)" fill="#7f3e3b"/>
      <path id="Trazado_217294" data-name="Trazado 217294" d="M249.923,84.966a.365.365,0,0,1-.255-.159,3.027,3.027,0,0,0-2.372-1.379.386.386,0,0,1-.386-.372.372.372,0,0,1,.372-.386,3.751,3.751,0,0,1,3.013,1.724.372.372,0,0,1-.1.524.379.379,0,0,1-.269.048Z" transform="translate(-157.334 -66.978)" fill="#263238"/>
      <path id="Trazado_217295" data-name="Trazado 217295" d="M232.848,81.733a.379.379,0,0,1-.172-.69,3.758,3.758,0,0,1,3.406-.69.372.372,0,0,1,.228.483.379.379,0,0,1-.483.234,3.027,3.027,0,0,0-2.689.572A.365.365,0,0,1,232.848,81.733Z" transform="translate(-152.864 -66.213)" fill="#263238"/>
      <path id="Trazado_217296" data-name="Trazado 217296" d="M289.23,240.393,284,235.152c-.434-.434,18.21-16.549,18.617-16.087l2.648,2.655C305.73,222.134,289.644,240.772,289.23,240.393Z" transform="translate(-168.846 -109.322)" fill="#f67409"/>
      <path id="Trazado_217297" data-name="Trazado 217297" d="M289.23,240.393,284,235.152c-.434-.434,18.21-16.549,18.617-16.087l2.648,2.655C305.73,222.134,289.644,240.772,289.23,240.393Z" transform="translate(-168.846 -109.322)" fill="#fff" opacity="0.3"/>
      <path id="Trazado_217298" data-name="Trazado 217298" d="M245.279,247.964l-6.5-6.5c-.538-.545-91.072,93.182-90.527,93.72,0,0-8.522,10.619-7.923,11.219s11.225-7.909,11.225-7.909C152.069,339.009,245.8,248.474,245.279,247.964Z" transform="translate(-124.233 -116.28)" fill="#f67409"/>
      <path id="Trazado_217299" data-name="Trazado 217299" d="M245.279,247.964l-6.5-6.5c-.538-.545-91.072,93.182-90.527,93.72,0,0-8.522,10.619-7.923,11.219s11.225-7.909,11.225-7.909C152.069,339.009,245.8,248.474,245.279,247.964Z" transform="translate(-124.233 -116.28)" fill="#fff" opacity="0.7"/>
      <path id="Trazado_217300" data-name="Trazado 217300" d="M249.2,246.692l-1.882-1.882c-.159-.159-79.3,79.929-79.164,80.088,0,0-7.971,8.571-7.792,8.743s8.75-7.785,8.75-7.785C169.253,326,249.341,246.837,249.2,246.692Z" transform="translate(-130.461 -117.318)" fill="#f67409" opacity="0.2"/>
      <path id="Trazado_217301" data-name="Trazado 217301" d="M293.909,248.385l-2.613,2.606c-.917.917-18.286-16.445-17.362-17.362l2.613-2.613C277.416,230.147,294.778,247.544,293.909,248.385Z" transform="translate(-165.714 -113.026)" fill="#263238"/>
      <path id="Trazado_217302" data-name="Trazado 217302" d="M276.862,230.6l-3.358,3.351c-1.179,1.179-2.317.041-1.138-1.138l3.351-3.351C276.841,228.347,277.979,229.484,276.862,230.6Z" transform="translate(-165.083 -112.411)" fill="#263238"/>
      <path id="Trazado_217303" data-name="Trazado 217303" d="M302.042,255.781l-3.358,3.351c-1.179,1.179-2.317.041-1.138-1.138l3.358-3.351C302.021,253.527,303.159,254.664,302.042,255.781Z" transform="translate(-172.901 -120.229)" fill="#263238"/>
      <circle id="Elipse_7171" data-name="Elipse 7171" cx="2.689" cy="2.689" r="2.689" transform="translate(132.443 108.371)" fill="#263238"/>
      <path id="Trazado_217304" data-name="Trazado 217304" d="M305.339,228.711l-.9-2.1s-1.834-5.82-4.937-8.178l-3.944,2.386-.062,6.13a8.964,8.964,0,0,0,1.627,5.254l1.227,1.738a2.331,2.331,0,0,0,3.558.3l2.944-2.979a2.331,2.331,0,0,0,.483-2.551Z" transform="translate(-172.42 -109.128)" fill="#7f3e3b"/>
      <path id="Trazado_217305" data-name="Trazado 217305" d="M270.117,132.874c1.972,2.069,3.765,4.061,5.571,6.164s3.551,4.234,5.233,6.461,3.344,4.489,4.9,6.937c.779,1.22,1.558,2.469,2.275,3.841.359.69.689,1.379,1.048,2.165.172.386.338.807.5,1.207a13.972,13.972,0,0,1,.462,1.379c.069.248.138.517.2.752l.131.69c.09.441.138.814.207,1.22.11.772.193,1.517.255,2.248.124,1.455.193,2.855.248,4.247.117,2.758.1,5.516.069,8.274-.1,5.475-.365,10.888-.931,16.335a2.875,2.875,0,0,1-5.709.11h0c-.758-5.323-1.379-10.674-2.013-15.962-.31-2.648-.69-5.282-1.027-7.861-.179-1.289-.379-2.565-.607-3.785-.117-.607-.241-1.193-.365-1.751-.062-.248-.124-.538-.193-.752l-.1-.324-.083-.214c-.048-.138-.159-.345-.234-.524l-.331-.641c-.255-.448-.538-.917-.841-1.379-.621-.965-1.317-1.979-2.069-2.986s-1.51-2.007-2.317-3.006-1.6-2.013-2.434-3.013c-3.31-3.979-6.861-7.978-10.295-11.853l-.041-.041a5.771,5.771,0,0,1,8.467-7.84Z" transform="translate(-161.455 -82.051)" fill="#7f3e3b"/>
      <path id="Trazado_217306" data-name="Trazado 217306" d="M150.113,134.169h0a.9.9,0,0,1-.9-.9v-20.8a.9.9,0,0,1,.9-.9h0a.9.9,0,0,1,.9.9v20.775a.9.9,0,0,1-.9.931Z" transform="translate(-127 -75.947)" fill="#f67409"/>
      <path id="Trazado_217307" data-name="Trazado 217307" d="M125.69,139.679h0a1.379,1.379,0,0,1,1.379-1.379h31.5a1.379,1.379,0,0,1,1.379,1.379h0a1.379,1.379,0,0,1-1.379,1.379H127.062A1.379,1.379,0,0,1,125.69,139.679Z" transform="translate(-119.698 -84.249)" fill="#f67409"/>
      <path id="Trazado_217308" data-name="Trazado 217308" d="M132.958,161.695H118.54a.379.379,0,0,1-.324-.172.393.393,0,0,1-.055-.359L125.373,140a.421.421,0,0,1,.758,0l7.205,21.161a.407.407,0,0,1-.048.359A.4.4,0,0,1,132.958,161.695Zm-13.859-.8h13.3l-6.647-19.52Z" transform="translate(-117.354 -84.704)" fill="#f67409"/>
      <path id="Trazado_217309" data-name="Trazado 217309" d="M175.655,161.695H161.23a.407.407,0,0,1-.379-.531L168.064,140a.421.421,0,0,1,.758,0l7.212,21.161a.407.407,0,0,1-.379.531Zm-13.866-.8h13.3l-6.647-19.52Z" transform="translate(-130.609 -84.704)" fill="#f67409"/>
      <path id="Trazado_217310" data-name="Trazado 217310" d="M117,171c0,3.117,3.744,5.647,8.371,5.647s8.364-2.531,8.364-5.647Z" transform="translate(-117 -94.402)" fill="#f67409"/>
      <path id="Trazado_217311" data-name="Trazado 217311" d="M159.73,171c0,3.117,3.751,5.647,8.371,5.647s8.364-2.537,8.364-5.647Z" transform="translate(-130.267 -94.402)" fill="#f67409"/>
    </g>
  </g>
</svg>
