<svg xmlns="http://www.w3.org/2000/svg" xmlns:xlink="http://www.w3.org/1999/xlink" width="132.412" height="132.412" viewBox="0 0 132.412 132.412">
  <defs>
    <clipPath id="clip-path">
      <path id="path5493" d="M0-204.8H132.412V-72.388H0Z" transform="translate(0 204.799)"/>
    </clipPath>
  </defs>
  <g id="dar-dinero" transform="translate(0 0)">
    <g id="g5487" transform="translate(0 0.001)">
      <g id="g5489">
        <g id="g5491" clip-path="url(#clip-path)">
          <g id="g5497" transform="translate(36.724 20.689)">
            <path id="path5499" d="M-46.342-26.031h-80.572a4.2,4.2,0,0,1-4.2-4.2V-69.451a4.2,4.2,0,0,1,4.2-4.2h80.572a4.2,4.2,0,0,1,4.2,4.2v39.224a4.2,4.2,0,0,1-4.2,4.2" transform="translate(131.11 73.647)" fill="#54aa13"/>
          </g>
          <g id="g5501" transform="translate(36.724 56.941)">
            <path id="path5503" d="M-2.294-6.213H4.874v-.175a11.183,11.183,0,0,0-11.19-11.19H-6.49v7.168a4.2,4.2,0,0,0,4.2,4.2" transform="translate(6.49 17.577)" fill="#feeeab"/>
          </g>
          <g id="g5505" transform="translate(114.323 56.941)">
            <path id="path5507" d="M-3.919-6.213h-7.168v-.175A11.183,11.183,0,0,1,.1-17.577H.277v7.168a4.2,4.2,0,0,1-4.2,4.2" transform="translate(11.087 17.577)" fill="#feeeab"/>
          </g>
          <g id="g5509" transform="translate(114.323 20.689)">
            <path id="path5511" d="M-3.919,0h-7.168V.175A11.183,11.183,0,0,0,.1,11.364H.277V4.2A4.2,4.2,0,0,0-3.919,0" transform="translate(11.087)" fill="#feeeab"/>
          </g>
          <g id="g5513" transform="translate(36.898 56.941)">
            <path id="path5515" d="M-6.117-6.117a11.183,11.183,0,0,0-11.19-11.19" transform="translate(17.307 17.307)" fill="none" stroke="#000" stroke-linecap="round" stroke-linejoin="round" stroke-miterlimit="10" stroke-width="4"/>
          </g>
          <g id="g5517" transform="translate(114.323 56.941)">
            <path id="path5519" d="M0-6.117a11.183,11.183,0,0,1,11.19-11.19" transform="translate(0 17.307)" fill="none" stroke="#000" stroke-linecap="round" stroke-linejoin="round" stroke-miterlimit="10" stroke-width="4"/>
          </g>
          <g id="g5521" transform="translate(114.323 20.864)">
            <path id="path5523" d="M0,0A11.183,11.183,0,0,0,11.19,11.19" fill="none" stroke="#000" stroke-linecap="round" stroke-linejoin="round" stroke-miterlimit="10" stroke-width="4"/>
          </g>
          <g id="g5525" transform="translate(81.206 68.305)">
            <path id="path5527" d="M0,0H0" transform="translate(0 0)" fill="none" stroke="#000" stroke-linecap="round" stroke-linejoin="round" stroke-miterlimit="10" stroke-width="4"/>
          </g>
          <g id="g5529" transform="translate(81.206 20.689)">
            <path id="path5531" d="M0,0H40.286a4.2,4.2,0,0,1,4.2,4.2V43.42a4.2,4.2,0,0,1-4.2,4.2H11.638" fill="none" stroke="#000" stroke-linecap="round" stroke-linejoin="round" stroke-miterlimit="10" stroke-width="4"/>
          </g>
          <g id="g5533" transform="translate(36.724 41.652)">
            <path id="path5535" d="M-17.956-14.571H-46.6a4.2,4.2,0,0,1-4.2-4.2V-41.223" transform="translate(50.8 41.223)" fill="none" stroke="#000" stroke-linecap="round" stroke-linejoin="round" stroke-miterlimit="10" stroke-width="4"/>
          </g>
          <g id="g5537" transform="translate(68.617 31.924)">
            <path id="path5539" d="M-6.882,0A12.588,12.588,0,0,1,5.707,12.588,12.588,12.588,0,0,1-6.882,25.177,12.588,12.588,0,0,1-19.47,12.588,12.588,12.588,0,0,1-6.882,0" transform="translate(19.47)" fill="#feeeab"/>
          </g>
          <g id="g5541" transform="translate(69.481 31.924)">
            <path id="path5543" d="M-.323-3.667A12.587,12.587,0,1,1-.914,6.8" transform="translate(0.914 10.376)" fill="none" stroke="#000" stroke-linecap="round" stroke-linejoin="round" stroke-miterlimit="10" stroke-width="4"/>
          </g>
          <g id="g5545" transform="translate(108.096 44.512)">
            <path id="path5547" d="M0,0H0" fill="none" stroke="#000" stroke-linecap="round" stroke-linejoin="round" stroke-miterlimit="10" stroke-width="4"/>
          </g>
          <g id="g5549" transform="translate(25.344 6.724)">
            <path id="path5551" d="M0,0H37.5A16.668,16.668,0,0,1,47.679,3.469l13.613,10.5H33.17A5.369,5.369,0,0,0,27.8,19.334h0a5.368,5.368,0,0,0,2.77,4.7L43.877,31.39a6.365,6.365,0,0,1,2.883,7.795h0a6.366,6.366,0,0,1-7.054,4.047l-9.342-1.624A59.34,59.34,0,0,1,6.207,31.551H0Z" fill="#ffd4be"/>
          </g>
          <g id="g5553" transform="translate(25.344 6.724)">
            <path id="path5555" d="M0,0H37.5A16.668,16.668,0,0,1,47.679,3.469l13.613,10.5H33.17A5.369,5.369,0,0,0,27.8,19.334h0a5.368,5.368,0,0,0,2.77,4.7L43.877,31.39a6.365,6.365,0,0,1,2.883,7.795h0a6.366,6.366,0,0,1-7.054,4.047l-9.342-1.624A59.34,59.34,0,0,1,6.207,31.551H0" fill="none" stroke="#000" stroke-linecap="round" stroke-linejoin="round" stroke-miterlimit="10" stroke-width="4"/>
          </g>
          <path id="path5557" d="M26.758-159.421H4V-200.8H26.758Z" transform="translate(-1.414 203.386)" stroke="#000" stroke-linecap="round" stroke-linejoin="round" stroke-miterlimit="10" stroke-width="4"/>
          <g id="g5559" transform="translate(16.562 88.175)">
            <path id="path5561" d="M-1.04-3.008h0a6.419,6.419,0,0,1,9.058.022L20.59,9.589a22.466,22.466,0,0,0,15.888,6.582h1.077a6.4,6.4,0,0,1-6.4-6.4h0a6.4,6.4,0,0,1,6.4-6.4H53.883L57.261-.642A22.119,22.119,0,0,1,74.178-8.51h0A22.12,22.12,0,0,1,87.169-4.293l.376.273V30.037H36.879a33.787,33.787,0,0,1-23.891-9.9L-1.061,6.091a6.419,6.419,0,0,1,.021-9.1" transform="translate(2.941 8.51)" fill="#ffd4be"/>
          </g>
          <g id="g5563" transform="translate(16.562 91.818)">
            <path id="path5565" d="M-49.467-19.082h-50.666a33.786,33.786,0,0,1-23.89-9.9l-14.05-14.05a6.419,6.419,0,0,1,.021-9.1h0a6.419,6.419,0,0,1,9.058.022l12.572,12.576a22.466,22.466,0,0,0,15.888,6.582h13.971" transform="translate(139.953 53.985)" fill="none" stroke="#000" stroke-linecap="round" stroke-linejoin="round" stroke-miterlimit="10" stroke-width="4"/>
          </g>
          <g id="g5567" transform="translate(50.656 88.175)">
            <path id="path5569" d="M-18.9-13.493H-47.056a6.4,6.4,0,0,1-6.4-6.4h0a6.4,6.4,0,0,1,6.4-6.4h16.329l3.378-4.009a22.12,22.12,0,0,1,16.917-7.868h0A22.118,22.118,0,0,1,2.558-33.958l.376.273" transform="translate(53.458 38.175)" fill="none" stroke="#000" stroke-linecap="round" stroke-linejoin="round" stroke-miterlimit="10" stroke-width="4"/>
          </g>
          <g id="g5571" transform="translate(107.067 88.447)">
            <path id="path5573" d="M-12.442-22.621H-35.2V-64h22.758Z" transform="translate(35.2 64)" fill="#8a92ff"/>
          </g>
          <g id="g5575" transform="translate(107.067 88.447)">
            <path id="path5577" d="M-12.442-22.621H-35.2V-64h22.758Z" transform="translate(35.2 64)" fill="none" stroke="#000" stroke-linecap="round" stroke-linejoin="round" stroke-miterlimit="10" stroke-width="4"/>
          </g>
        </g>
      </g>
    </g>
  </g>
</svg>
