<svg xmlns="http://www.w3.org/2000/svg" width="125.321" height="125.321" viewBox="0 0 125.321 125.321">
  <g id="contrato_1_" data-name="contrato (1)" transform="translate(-0.6 -0.6)">
    <g id="files-document-protection-insurance-pen" transform="translate(0.6 0.6)">
      <path id="Trazado_218714" data-name="Trazado 218714" d="M15.9,6.9h8.355V69.56H15.9Z" transform="translate(90.623 36.962)" fill="#f67409"/>
      <path id="Trazado_218715" data-name="Trazado 218715" d="M24.255,9.277v8.355H15.9V9.277a4.177,4.177,0,0,1,8.355,0Z" transform="translate(90.623 26.23)" fill="#898890"/>
      <path id="Trazado_218716" data-name="Trazado 218716" d="M24.255,15.9,20.077,32.609,15.9,15.9Z" transform="translate(90.623 90.623)" fill="#898890"/>
      <path id="Trazado_218717" data-name="Trazado 218717" d="M16.5,6.9h4.177V69.56H16.5Z" transform="translate(94.2 36.962)" fill="#f67409"/>
      <path id="Trazado_218718" data-name="Trazado 218718" d="M20.677,9.277v8.355H16.5V5.1a4.209,4.209,0,0,1,4.177,4.177Z" transform="translate(94.2 26.23)" fill="#57565c"/>
      <path id="Trazado_218719" data-name="Trazado 218719" d="M20.677,15.9,16.5,32.609V15.9Z" transform="translate(94.2 90.623)" fill="#57565c"/>
      <rect id="Rectángulo_45313" data-name="Rectángulo 45313" width="75.192" height="121.143" rx="0.6" transform="translate(22.975 2.089)" fill="#fee9ab"/>
      <path id="Trazado_218720" data-name="Trazado 218720" d="M44.2,10.455V23.843a16.73,16.73,0,0,1-5.619,12.49L25.4,48.051,12.219,36.333A16.73,16.73,0,0,1,6.6,23.843V10.455L25.4,2.1Z" transform="translate(35.174 8.343)" fill="#fece2f"/>
      <path id="Trazado_218721" data-name="Trazado 218721" d="M42.674,14.366a6.266,6.266,0,0,1-6.266,6.266H21.787V45.7H7.187L.9,41.519V12.277L11.343,8.1H36.408A6.266,6.266,0,0,1,42.674,14.366Z" transform="translate(1.189 44.117)" fill="#fccea9"/>
      <path id="Trazado_218722" data-name="Trazado 218722" d="M42.674,14.366a6.32,6.32,0,0,1-.835,3.133,6.893,6.893,0,0,0-1-1.295,6.251,6.251,0,0,0-4.428-1.838H11.343L.9,18.543V12.277L11.343,8.1H36.408A6.266,6.266,0,0,1,42.674,14.366Z" transform="translate(1.189 44.117)" fill="#fccea9"/>
      <path id="Trazado_218723" data-name="Trazado 218723" d="M31.675,10.455V23.843a16.73,16.73,0,0,1-5.619,12.49L12.877,48.051,8.7,44.333l9-8a16.73,16.73,0,0,0,5.619-12.49V10.455L8.7,3.959,12.877,2.1Z" transform="translate(47.694 8.343)" fill="#fece2f"/>
      <path id="Trazado_218724" data-name="Trazado 218724" d="M25.432,5.077V117.866a4.19,4.19,0,0,1-4.177,4.177H12.9a4.19,4.19,0,0,0,4.177-4.177V5.077A4.19,4.19,0,0,0,12.9.9h8.355a4.19,4.19,0,0,1,4.177,4.177Z" transform="translate(72.736 1.189)" fill="#fece2f"/>
      <path id="Trazado_218725" data-name="Trazado 218725" d="M94.591.6H27.753a6.285,6.285,0,0,0-6.266,6.266V50.728H13.132a1.957,1.957,0,0,0-.773.146L1.916,55.052A2.089,2.089,0,0,0,.6,56.994V86.236a2.089,2.089,0,0,0,.94,1.734l6.287,4.177a2.02,2.02,0,0,0,1.149.355H21.487v27.153a6.285,6.285,0,0,0,6.266,6.266H94.591a6.285,6.285,0,0,0,6.266-6.266V6.866A6.285,6.285,0,0,0,94.591.6ZM21.278,67.438h.209V88.325H9.6L4.777,85.108V58.415l8.752-3.509H38.2a4.177,4.177,0,0,1,0,8.355H19.4a2.089,2.089,0,0,0-2.089,2.089,6.285,6.285,0,0,1-6.266,6.266v4.177a10.462,10.462,0,0,0,10.235-8.355Zm75.4,52.217a2.089,2.089,0,0,1-2.089,2.089H27.753a2.089,2.089,0,0,1-2.089-2.089V67.438H38.2a8.355,8.355,0,0,0,0-16.709H25.664V6.866a2.089,2.089,0,0,1,2.089-2.089H94.591a2.089,2.089,0,0,1,2.089,2.089Z" transform="translate(-0.6 -0.6)"/>
      <path id="Trazado_218726" data-name="Trazado 218726" d="M15.625,19.172A2.088,2.088,0,0,0,17.1,18.56L28.917,6.744,25.964,3.791,15.625,14.13,11.193,9.7,8.239,12.651l5.909,5.909a2.089,2.089,0,0,0,1.477.612Z" transform="translate(44.947 18.424)"/>
      <path id="Trazado_218727" data-name="Trazado 218727" d="M46.841,10.343l-18.8-8.355a2.045,2.045,0,0,0-1.713,0l-18.8,8.355a2.062,2.062,0,0,0-1.232,1.9V25.632a18.754,18.754,0,0,0,6.308,14.036l13.2,11.738a2.089,2.089,0,0,0,2.757,0l13.2-11.738a18.754,18.754,0,0,0,6.308-14.036V12.243a2.062,2.062,0,0,0-1.232-1.9ZM43.9,25.632a14.65,14.65,0,0,1-4.908,10.924l-11.8,10.485-11.8-10.485a14.65,14.65,0,0,1-4.908-10.924V13.6L27.187,6.165,43.9,13.6Z" transform="translate(33.385 6.555)"/>
      <path id="Trazado_218728" data-name="Trazado 218728" d="M34.4,17.332H28.132V11.066a6.266,6.266,0,0,0-12.532,0V82.081a2.059,2.059,0,0,0,.063.5L19.84,99.292a2.089,2.089,0,0,0,4.052,0l4.177-16.709a2.059,2.059,0,0,0,.063-.5V21.509h4.177v18.8h4.177V19.421A2.089,2.089,0,0,0,34.4,17.332ZM21.866,90.185l-1.5-6.015H23.37Zm2.089-10.193H19.777V21.509h4.177Zm0-62.66H19.777V11.066a2.089,2.089,0,1,1,4.177,0Z" transform="translate(88.834 24.442)"/>
      <path id="Trazado_218729" data-name="Trazado 218729" d="M5.4,11.4h8.355v4.177H5.4Z" transform="translate(28.019 63.792)"/>
      <path id="Trazado_218730" data-name="Trazado 218730" d="M7.2,11.4H48.974v4.177H7.2Z" transform="translate(38.751 63.792)"/>
      <path id="Trazado_218731" data-name="Trazado 218731" d="M5.4,13.2h8.355v4.177H5.4Z" transform="translate(28.019 74.525)"/>
      <path id="Trazado_218732" data-name="Trazado 218732" d="M7.2,13.2H48.974v4.177H7.2Z" transform="translate(38.751 74.525)"/>
      <path id="Trazado_218733" data-name="Trazado 218733" d="M5.4,15h8.355v4.177H5.4Z" transform="translate(28.019 85.257)"/>
      <path id="Trazado_218734" data-name="Trazado 218734" d="M7.2,15H48.974v4.177H7.2Z" transform="translate(38.751 85.257)"/>
      <path id="Trazado_218735" data-name="Trazado 218735" d="M5.4,16.8h8.355v4.177H5.4Z" transform="translate(28.019 95.989)"/>
      <path id="Trazado_218736" data-name="Trazado 218736" d="M7.2,16.8H48.974v4.177H7.2Z" transform="translate(38.751 95.989)"/>
    </g>
  </g>
</svg>
