<svg xmlns="http://www.w3.org/2000/svg" xmlns:xlink="http://www.w3.org/1999/xlink" width="200" height="183.333" viewBox="0 0 200 183.333">
  <defs>
    <clipPath id="clip-path">
      <rect id="Rectángulo_1" data-name="Rectángulo 1" width="81.001" height="81.001" fill="#404040" stroke="#404040" stroke-width="1"/>
    </clipPath>
  </defs>
  <g id="Grupo_28" data-name="Grupo 28" transform="translate(-8 -13)">
    <path id="blob_4_" data-name="blob(4)" d="M127.992-1.889c7.736,28.418-16.735,62.519-50.52,88.095S.428,129.148-30.358,110.992C-61.3,92.836-79.773,39.474-65.88,2.531c13.893-37.1,60.309-57.467,103.409-56.52C80.629-52.883,120.414-30.149,127.992-1.889Z" transform="translate(78.572 73.964)" fill="#fff0e5"/>
    <g id="Grupo_3" data-name="Grupo 3" transform="translate(205.222 196.333) rotate(180)">
      <text id="_" data-name="+" transform="translate(98.278 120.444)" fill="#ff6b00" font-size="27" font-family="Montserrat-Bold, Montserrat" font-weight="700"><tspan x="-7.884" y="0">+</tspan></text>
      <text id="_2" data-name="+" transform="translate(14.944 142.667)" fill="#ff6b00" font-size="27" font-family="Montserrat-Bold, Montserrat" font-weight="700"><tspan x="-7.884" y="0">+</tspan></text>
      <text id="_3" data-name="+" transform="translate(126.056 26)" fill="#ff6b00" font-size="27" font-family="Montserrat-Bold, Montserrat" font-weight="700"><tspan x="-7.884" y="0">+</tspan></text>
      <circle id="Elipse_1" data-name="Elipse 1" cx="5.556" cy="5.556" r="5.556" transform="translate(1.389 30.556)" fill="#ff6b00"/>
      <circle id="Elipse_2" data-name="Elipse 2" cx="5.556" cy="5.556" r="5.556" transform="translate(38.889 159.722)" fill="#ff6b00"/>
      <circle id="Elipse_5" data-name="Elipse 5" cx="5.556" cy="5.556" r="5.556" transform="translate(144.444 154.167)" fill="#ff6b00"/>
      <circle id="Elipse_6" data-name="Elipse 6" cx="13.889" cy="13.889" r="13.889" transform="translate(56.944 13.889)" fill="#ff6b00" opacity="0.1"/>
      <circle id="Elipse_7" data-name="Elipse 7" cx="13.889" cy="13.889" r="13.889" transform="translate(144.444 105.556)" fill="#ff6b00" opacity="0.1"/>
      <circle id="Elipse_11" data-name="Elipse 11" cx="9.722" cy="9.722" r="9.722" transform="translate(166.667 2.778)" fill="#ff6b00" opacity="0.1"/>
      <circle id="Elipse_12" data-name="Elipse 12" cx="9.722" cy="9.722" r="9.722" transform="translate(0 163.889)" fill="#ff6b00" opacity="0.1"/>
      <circle id="Elipse_8" data-name="Elipse 8" cx="13.889" cy="13.889" r="13.889" transform="translate(52.778 145.833)" fill="#ff6b00" opacity="0.1"/>
      <g id="Elipse_3" data-name="Elipse 3" transform="translate(138.889 100)" fill="none" stroke="#ff6b00" stroke-width="2">
        <circle cx="5.556" cy="5.556" r="5.556" stroke="none"/>
        <circle cx="5.556" cy="5.556" r="4.556" fill="none"/>
      </g>
      <g id="Elipse_4" data-name="Elipse 4" transform="translate(9.722 72.222)" fill="none" stroke="#ff6b00" stroke-width="2">
        <circle cx="5.556" cy="5.556" r="5.556" stroke="none"/>
        <circle cx="5.556" cy="5.556" r="4.556" fill="none"/>
      </g>
    </g>
    <g id="Grupo_13" data-name="Grupo 13" transform="translate(51.056 39.389)">
      <g id="Grupo_10" data-name="Grupo 10" transform="translate(0)">
        <circle id="Elipse_13" data-name="Elipse 13" cx="18.056" cy="18.056" r="18.056" transform="translate(0)" fill="#fff"/>
        <g id="Icon_feather-check-circle" data-name="Icon feather-check-circle" transform="translate(1.216 0.981)">
          <path id="Trazado_18" data-name="Trazado 18" d="M36.24,18.092v1.529A16.62,16.62,0,1,1,26.385,4.43" transform="translate(-3 -2.991)" fill="none" stroke="#404040" stroke-linecap="round" stroke-linejoin="round" stroke-width="3"/>
          <path id="Trazado_19" data-name="Trazado 19" d="M26.684,6l-9.927,9.937" transform="translate(-5.1 5.653)" fill="none" stroke="#404040" stroke-linecap="round" stroke-linejoin="round" stroke-width="3"/>
          <path id="Trazado_41" data-name="Trazado 41" d="M9.927,0,0,9.937" transform="translate(21.589 11.658) rotate(90)" fill="none" stroke="#404040" stroke-linecap="round" stroke-linejoin="round" stroke-width="3"/>
        </g>
      </g>
      <g id="Grupo_16" data-name="Grupo 16" transform="translate(0 94.444)">
        <circle id="Elipse_13-2" data-name="Elipse 13" cx="18.056" cy="18.056" r="18.056" transform="translate(0)" fill="#fff"/>
        <g id="Icon_feather-check-circle-2" data-name="Icon feather-check-circle" transform="translate(1.216 1.451)">
          <path id="Trazado_18-2" data-name="Trazado 18" d="M36.24,18.092v1.529A16.62,16.62,0,1,1,26.385,4.43" transform="translate(-3 -2.991)" fill="none" stroke="#404040" stroke-linecap="round" stroke-linejoin="round" stroke-width="3"/>
          <path id="Trazado_19-2" data-name="Trazado 19" d="M26.684,6l-9.927,9.937" transform="translate(-5.1 5.653)" fill="none" stroke="#404040" stroke-linecap="round" stroke-linejoin="round" stroke-width="3"/>
          <path id="Trazado_41-2" data-name="Trazado 41" d="M9.927,0,0,9.937" transform="translate(21.589 11.658) rotate(90)" fill="none" stroke="#404040" stroke-linecap="round" stroke-linejoin="round" stroke-width="3"/>
        </g>
      </g>
      <g id="Grupo_11" data-name="Grupo 11" transform="translate(0 47.222)">
        <circle id="Elipse_13-3" data-name="Elipse 13" cx="18.056" cy="18.056" r="18.056" transform="translate(0)" fill="#fff"/>
        <g id="Icon_feather-check-circle-3" data-name="Icon feather-check-circle" transform="translate(1.216 1.216)">
          <path id="Trazado_18-3" data-name="Trazado 18" d="M36.24,18.092v1.529A16.62,16.62,0,1,1,26.385,4.43" transform="translate(-3 -2.991)" fill="none" stroke="#404040" stroke-linecap="round" stroke-linejoin="round" stroke-width="3"/>
          <path id="Trazado_19-3" data-name="Trazado 19" d="M35.106,6,18.486,22.637,13.5,17.651" transform="translate(-1.866 -2.666)" fill="none" stroke="#404040" stroke-linecap="round" stroke-linejoin="round" stroke-width="3"/>
        </g>
      </g>
    </g>
    <g id="Grupo_15" data-name="Grupo 15" transform="translate(94.111 65.555)">
      <path id="Trazado_40" data-name="Trazado 40" d="M905.655,115.74l5.256-16.558s58.3-61.3,60.144-61.5a57.653,57.653,0,0,1,6.086,0l6.57,6.57v6.57l-61.5,59.923Z" transform="translate(-903.356 -36.412)" fill="#fff"/>
      <g id="Grupo_14" data-name="Grupo 14">
        <g id="Grupo_8" data-name="Grupo 8" transform="translate(0 0)" clip-path="url(#clip-path)">
          <path id="Trazado_35" data-name="Trazado 35" d="M16.037,71.406a1.538,1.538,0,0,1-1.084-.448L3.621,59.626a1.537,1.537,0,0,1,0-2.171L54.444,6.633a1.577,1.577,0,0,1,2.169,0L67.945,17.965a1.532,1.532,0,0,1,0,2.169L17.122,70.958a1.539,1.539,0,0,1-1.085.448M6.876,58.54,16.037,67.7,64.69,19.048,55.527,9.885Z" transform="translate(2.174 4.248)" fill="#404040" stroke="#404040" stroke-width="1"/>
          <path id="Trazado_36" data-name="Trazado 36" d="M47.589,23.925a1.523,1.523,0,0,1-1.084-.45L33.189,10.161a1.537,1.537,0,0,1,0-2.171L37.979,3.2a1.58,1.58,0,0,1,2.169,0L53.462,16.518a1.532,1.532,0,0,1,0,2.169l-4.788,4.788a1.53,1.53,0,0,1-1.085.45M36.444,9.076,47.589,20.222,50.209,17.6,39.063,6.457Z" transform="translate(22.438 1.898)" fill="#404040" stroke="#404040" stroke-width="1"/>
          <path id="Trazado_37" data-name="Trazado 37" d="M49.036,20.043a1.535,1.535,0,0,1-1.084-.448L36.618,8.263a1.538,1.538,0,0,1,0-2.171l4.427-4.426a5.69,5.69,0,0,1,8.047,0L54.547,7.12a5.69,5.69,0,0,1,0,8.047L50.121,19.6a1.536,1.536,0,0,1-1.085.448M39.874,7.178l9.161,9.163L52.378,13a2.622,2.622,0,0,0,0-3.709L46.924,3.836a2.687,2.687,0,0,0-3.709,0Z" transform="translate(24.788 -0.001)" fill="#404040" stroke="#404040" stroke-width="1"/>
          <path id="Trazado_38" data-name="Trazado 38" d="M1.534,56.093a1.534,1.534,0,0,1-1.461-2L5.419,37.413A1.534,1.534,0,0,1,7.963,36.8L19.3,48.129a1.535,1.535,0,0,1-.617,2.547L2,56.019a1.5,1.5,0,0,1-.469.074m6.038-15.35L3.9,52.188,15.348,48.52Z" transform="translate(0 24.909)" fill="#404040" stroke="#404040" stroke-width="1"/>
          <path id="Trazado_39" data-name="Trazado 39" d="M8.068,63.444a1.534,1.534,0,0,1-1.085-2.619L57.808,10a1.533,1.533,0,0,1,2.167,2.169L9.151,62.994a1.523,1.523,0,0,1-1.084.45" transform="translate(4.478 6.546)" fill="#404040" stroke="#404040" stroke-width="1"/>
        </g>
      </g>
    </g>
  </g>
</svg>
